<svg xmlns="http://www.w3.org/2000/svg" xmlns:xlink="http://www.w3.org/1999/xlink" width="1070" height="780" viewBox="0 0 1070 780"><defs><linearGradient id="a" x1="0.754" x2="0.331" y2="1.764" gradientUnits="objectBoundingBox"><stop offset="0" stop-color="#fff"/><stop offset="1" stop-color="#faefc5"/></linearGradient><linearGradient id="b" x1="1.023" y1="-0.159" x2="0.368" y2="0.958" gradientUnits="objectBoundingBox"><stop offset="0" stop-color="#fff"/><stop offset="1" stop-color="#fff2dd"/></linearGradient><clipPath id="d"><rect width="1070" height="780"/></clipPath></defs><g id="c" clip-path="url(#d)"><g transform="translate(-910 -10)"><g transform="translate(-13 3)"><path d="M6156.922-6151.39c16.636-3.878,328.311,0,328.311,0s3.819-31.306,25.767-62.8,87.793-56.017,87.793-56.017-162.427-14.823-274.927,14.88-175.073,103.935-175.073,103.935" transform="translate(-4704 6391)" fill="url(#a)"/><path d="M1103.725,0h-49.536A228.361,228.361,0,0,0,1030.2,101.978c0,30.563-12.407,63.676-41.056,84.9-5.243,3.9-10.591,7.724-15.8,11.59l73.737,42.955a151.683,151.683,0,0,1,21.863-38.658C1155.4,91.538,1066.732,63.615,1103.725,0Z" transform="translate(640.02 123.8)" fill="#f9c36e" opacity="0.254"/><path d="M1007.367-19.021,1027.418,0a228.362,228.362,0,0,1,23.989,101.978c0,30.563,12.407,63.676,41.056,84.9,5.243,3.9,10.591,7.724,15.8,11.59l-73.738,42.955a151.684,151.684,0,0,0-21.863-38.658C926.2,91.538,1044.361,44.594,1007.367-19.021Z" transform="matrix(0.94, 0.342, -0.342, 0.94, 674.074, -185.896)" fill="#f9c36e" opacity="0.158"/></g><g transform="translate(940.02 190.81)"><g transform="translate(-0.02 -0.04)"><path d="M200.788,575.072a251.811,251.811,0,0,1,4.66-42.713c1.914-7.641,0-14.434.953-22.075,6.688-41.608,28.649-76.408,60.15-106.139s68.744-48.417,107.894-72.171c5.727-4.244,11.454-8.488,14.321-13.617,15.274-22.075,22.915-45,47.736-60.287,54.424-33.113,116.5-50.944,141.3-106.139,2.179-4.963,12.467-25.078,14.835-29.92l-55.869-28.3c-14.328,60.816-57.5,66.248-93.051,94.118-65.764,51.587-155.6,17.75-242.932,87.749S5.216,554.221-7.375,575.072H200.788Z" transform="translate(-10.888 -22.787)" fill="url(#b)"/><path d="M251,587.585h74.4a440.474,440.474,0,0,1,18.126-114.037c4.774-19.525,12.414-39.906,32.462-50.1,30.556-14.434,57.291-33.113,75.424-60.287.961-1.695,3.82-1.695,5.734-3.4.953-1.695.953-4.244,1.906-6.809,8.594-14.434,19.094-27.166,29.595-39.906,24.829-31.418,55.377-50.944,87.839-74.721,17.188-11.885,39.15-19.533,49.65-34.8,10.811-16.182,20.819-32.364,30.677-48.47L637.177,145.1q-4.811,9.54-9.139,19.374c-24.821,55.225-86.878,73.026-141.3,106.139C461.916,285.895,454.275,308.825,439,330.9c-2.867,5.1-8.594,9.343-14.321,13.617-39.15,23.777-76.408,42.456-107.894,72.171s-53.463,64.531-60.15,106.139c-.953,7.641.961,14.434-.953,22.075A251.814,251.814,0,0,0,251,587.585Z" transform="translate(-61.1 -35.3)" fill="#ffeb9a" opacity="0.725"/><path d="M480.307,590.039a248.933,248.933,0,0,1,1.74-25.721c1.906-16.129,13.368-31.418,26.735-43.3s21.939-27.991,27.688-44.15c4.774-11.892,15.274-22.083,16.227-34.8.953-7.641,4.774-13.617,6.688-20.38,1.906-4.244,5.727-7.641,7.633-11.885.953-2.549-.953-5.946,0-8.5,33.415-69.6,87.839-124.825,160.381-169.822a132.653,132.653,0,0,0,33.468-30.457L682.191,155.18c-10.319,16.893-20.774,33.862-32.114,50.83-10.5,15.282-32.462,22.93-49.65,34.8-32.454,23.77-62.965,43.3-87.831,74.713-10.5,12.762-21,25.472-29.6,39.906-.953,2.549-.953,5.1-1.906,6.809-1.914,1.7-4.774,1.7-5.734,3.4-18.156,27.174-44.869,45.852-75.424,60.287-20.048,10.19-27.688,30.571-32.462,50.1a440.471,440.471,0,0,0-18.1,114.022Z" transform="translate(-85.052 -37.754)" fill="#f9c36e" opacity="0.938"/><path d="M628.309,604.8c1.513-33.113,11.075-65.06,35.276-93.656,46.783-54.34,111.707-90.857,131.754-161.289,2.867-10.19,8.594-19.533,14.321-28.876.961-2.542-.953-5.939,0-8.488,8.579-26.349,30.533-44.211,53.894-61.436L803.033,215.8a132.655,132.655,0,0,1-33.468,30.412c-72.565,45-126.988,100.2-160.381,169.822-.953,2.549.953,5.946,0,8.5-1.906,4.244-5.727,7.641-7.633,11.885-1.914,6.809-5.734,12.74-6.688,20.38-.953,12.732-11.454,22.922-16.227,34.8-5.734,16.129-14.321,32.265-27.688,44.15s-24.851,27.2-26.758,43.333a248.942,248.942,0,0,0-1.74,25.721Z" transform="translate(-127.194 -52.514)" fill="#ffeb9a"/><path d="M918.238,616.134c13.617-19.435,22.257-35.745,24.208-40.655-.651.93-.56-.7.991-2.043,38.9-85.289-4.418-184.589,27.908-268.131L897.608,262.35c-23.361,17.226-45.315,35.087-53.894,61.436-.953,2.549.961,5.946,0,8.488-5.727,9.343-11.454,18.686-14.321,28.876-20.033,70.469-84.957,106.986-131.747,161.326-24.208,28.566-33.8,60.521-35.276,93.656Z" transform="translate(-161.263 -63.848)" fill="#f9c36e"/><path d="M1123.073,71.209c-9.572-4.73-29.225-4.349-29.225-4.349H639.9a13.484,13.484,0,0,0-12.967,11.771l-.809,7.149h506.017A16.113,16.113,0,0,0,1123.073,71.209Z" transform="translate(-152.437 -16.249)" fill="#3795e2"/><path d="M1123.854,91.87H617.837L592.184,317.1a10.225,10.225,0,0,0,10.281,11.771h511.389Z" transform="translate(-144.154 -22.339)" fill="#d9f1ff"/><path d="M1198.728,714.078c1.6-3.071,3.094-6.241,4.615-9.237,6.96-13.7,17.006-26.115,29.164-34.27a3.261,3.261,0,0,0-2.065-5.954c-13.186.976-26.38,5.19-36.116,15.448-8.2,8.624-13.9,21.349-24.488,25.215-5.916,2.164-12.165.983-18.209,2.4-3.351.757-7.368,3.124-11.348,6.4Z" transform="translate(-277.628 -161.793)" fill="#70edd0"/><path d="M1164.494,691.115c11.264-4.32,22.3-9.131,31.63-16.734,15.705-12.793,24.919-32.462,28.392-52.57,2.845-16.484,3.087-35.087-.257-51.511-1.679,6.377-3.321,13.882-4.8,19.1a91.192,91.192,0,0,1-9.237,21.182c-4.388,7.459-9.834,14.57-17.2,19-9.532,5.719-21.25,6.347-31.3,11.068-17.959,8.435-27.582,28.059-35.859,46.276-.552,1.2-1.2,2.625-1.906,4.229Z" transform="translate(-273.654 -138.83)" fill="#37a7e2"/><path d="M1191.372,338.991a16.25,16.25,0,0,0-23.452-8.322l-.144.083c-6.052,3.639-10.984,10.054-10.917,17.188,0,3.662,1.347,7.437.167,10.9-1.982,5.878-9.411,7.21-14.487,10.69a17.8,17.8,0,0,0-7.512,15.463c.34,5.606,3.314,11.4,1.112,16.56-1.437,3.389-4.766,5.485-7.883,7.4-4.963,3.026-9.971,6.2-13.768,10.637s-6.287,10.394-5.3,16.182c.825,4.774,3.934,9.176,3.442,14s-4.274,8.322-6.226,12.679c-3.684,8.17.061,18.58,7.384,23.626A23.453,23.453,0,0,0,1124.663,490a5.357,5.357,0,0,1,2.368.847,23.452,23.452,0,0,0,10.879,3.783c8.836.688,18.156-5.076,20.328-13.791,1.142-4.615.409-9.835,2.95-13.837s7.732-5.56,11.348-8.76c4.35-3.888,6.052-10.115,5.848-15.985s-2.2-11.507-4.206-17.014c-1.256-3.465-2.565-7.2-1.6-10.765,1.46-5.417,7.353-8.072,11.068-12.233a17.9,17.9,0,0,0,3.669-16.832c-1.823-5.923-6.809-11.658-4.736-17.506,1.218-3.45,4.539-5.576,6.854-8.412,4.448-5.538,4.539-13.663,2.058-20.335A.3.3,0,0,1,1191.372,338.991Z" transform="translate(-269.031 -79.938)" fill="#e2bb37"/><path d="M1117.538,525.436l-1.248-.446,64.478-186.359,1.248.446Z" transform="translate(-271.786 -82.422)" fill="#a58827"/><path d="M1187.233,370.68,1182.49,353.3l1.279-.356,4.743,17.385Z" transform="translate(-287.905 -85.906)" fill="#a58827"/><path d="M1164.8,430.242l-4.683-33.392,1.316-.189,4.675,33.392Z" transform="translate(-282.458 -96.551)" fill="#1765a5"/><path d="M1162.78,409.111l3.17-9.751,1.256.416-3.17,9.751Z" transform="translate(-283.106 -97.209)" fill="#1765a5"/><path d="M1154.593,473.272l-.643-1.173,27.688-15.63.643,1.173Z" transform="translate(-280.956 -111.114)" fill="#a58827"/><path d="M1171.295,463.5l-1.135-.7,8.851-14.835,1.135.7Z" transform="translate(-284.903 -109.044)" fill="#a58827"/><path d="M1138.755,500.787l-9.056-32.674,1.271-.363,9.063,32.674Z" transform="translate(-275.052 -113.861)" fill="#1765a5"/><path d="M1133.17,473.176l2.156-17.876,1.316.159-2.164,17.876Z" transform="translate(-275.896 -110.829)" fill="#1765a5"/><path d="M1137.315,520.777l-.825-1.052L1166.7,495.57l.817,1.052Z" transform="translate(-276.705 -120.634)" fill="#1765a5"/><path d="M1166.415,502.174l-1.135-.7,5.432-9.01,1.127.7Z" transform="translate(-283.715 -119.877)" fill="#1765a5"/><path d="M1187.444,380.03l-.764-1.1L1202.6,367.57l.764,1.1Z" transform="translate(-288.925 -89.468)" fill="#a58827"/><path d="M1202.228,369.6l-1.188-.59,5.5-11.28,1.188.59Z" transform="translate(-292.422 -87.072)" fill="#a58827"/><path d="M1133.907,657.591c.136-13.073,10.758-23.565,21.659-30.48s23.263-12.293,31.244-22.574c14.23-18.323,9.578-44.763,15.4-67.33a71.748,71.748,0,0,1,24.148-37.637c2.958-2.383,6.226-4.66,7.928-8.095s1.059-8.45-2.383-9.941c-1.891-.817-4.07-.378-6.052.166-21.939,5.992-40.466,23.891-47.6,45.951-4.728,14.638-5.379,31.948-16.59,42.289-8,7.384-19.4,9.154-28.9,14.374a46.148,46.148,0,0,0-21.493,26.07c-4.463,13.9-.938,31.289,11.219,38.794Z" transform="translate(-270.113 -117.107)" fill="#b94cac"/><path d="M1136.051,633.554a78.552,78.552,0,0,0,7.716-16.764c9.275-29.058-.847-60.65,2.511-90.971a102.81,102.81,0,0,1,18.974-48.984c9.729-13.352,22.589-24.148,31.773-37.894a89.468,89.468,0,0,0,14.253-57.245c-.756-7.989-5.1-16.356-4.97-24.208.1-6.385,8.67-15.637,3.828-21.485-2.194-2.648-6.43-2.671-9.313-.794s-4.607,5.144-5.7,8.45c-6.7,20.312,6.181,43.961-2.852,63.32-3.669,7.86-10.478,13.7-17.513,18.618-21.235,14.835-47.154,24.367-62.185,45.716-14.207,20.169-15.592,46.654-15.024,71.4.272,11.855.84,23.974-2.572,35.337-3.457,11.537-10.826,21.523-19.374,29.86-7.406,7.232-16.325,14.321-18.156,24.594-.061.348-.114.688-.151,1.036Z" transform="translate(-257.421 -81.268)" fill="#93cb5c"/><path d="M641.987,82.679a4.388,4.388,0,0,1-4.4-5.038,5.78,5.78,0,0,1,5.545-5.031,4.388,4.388,0,0,1,4.4,5.031,5.78,5.78,0,0,1-5.545,5.038Z" transform="translate(-155.216 -17.649)" fill="#fff"/><path d="M659.207,82.679a4.388,4.388,0,0,1-4.4-5.038,5.78,5.78,0,0,1,5.545-5.031,4.388,4.388,0,0,1,4.426,5.031A5.78,5.78,0,0,1,659.207,82.679Z" transform="translate(-159.409 -17.649)" fill="#fff"/><path d="M676.41,82.679a4.388,4.388,0,0,1-4.426-5.038,5.78,5.78,0,0,1,5.545-5.031,4.388,4.388,0,0,1,4.4,5.031,5.78,5.78,0,0,1-5.522,5.038Z" transform="translate(-163.592 -17.649)" fill="#fff"/><path d="M936.559,613.171,519.19,612.165c-20.2-.045-34.459-15.811-31.849-35.208l40.194-298.066c2.315-15.887,8.677-23.066,28.884-23.021l442.9,1.006c14.555,0,23.225,8.095,21.432,22.015L983.069,578.16C980.459,597.534,956.8,613.224,936.559,613.171Z" transform="translate(-118.571 -62.271)" fill="#000543"/><path d="M998.789,268.223,566.9,267.3c-19.238-.038-24.133,6.052-26.7,23.717L503.311,575.731c-2.58,17.672,9.744,16.182,28.99,16.227l401.747.915c19.246.045,37.069,1.619,39.656-16.053l37.826-282.581C1013.639,282.733,1013.027,268.223,998.789,268.223Z" transform="translate(-122.451 -65.054)" fill="#3795e2"/><path d="M981.242,722.187a7.822,7.822,0,0,0,.582-3.071V704.787c0-3.783-1.959-6.877-7.7-6.877H502.415c-5.742,0-10.394,3.079-10.394,6.877V719.16a5.083,5.083,0,0,0,1.1,3.071Z" transform="translate(-119.785 -169.901)" fill="#000543"/><path d="M698.881,722.187a4.925,4.925,0,0,0,1.157-3.071V704.787c0-3.783-4.88-6.877-10.894-6.877H197.714c-6.014,0-10.894,3.079-10.894,6.877V719.16a4.925,4.925,0,0,0,1.157,3.071Z" transform="translate(-45.473 -169.901)" fill="#000543"/><path d="M724.77,150.594a3.124,3.124,0,0,0-3.14-3.54,3.979,3.979,0,0,0-3.851,3.54v.2c-1.6,14.162-14.177,25.631-28.2,25.631s-24.473-11.65-23.043-25.964,13.9-25.767,27.9-25.948h.333A4,4,0,0,0,698.33,121a3.109,3.109,0,0,0-2.867-3.51h-.045a2.094,2.094,0,0,0-.227,0,3.541,3.541,0,0,0-.688.068c-17.566.522-33.12,15.085-34.906,32.954-1.816,18.156,11.348,33,29.285,33,17.733,0,33.619-14.419,35.776-32.288A3.8,3.8,0,0,0,724.77,150.594Z" transform="translate(-160.547 -28.576)" fill="#fff"/><rect width="4.055" height="230.487" transform="translate(340.197 297.075)" fill="#fff"/><rect width="4.055" height="230.487" transform="translate(344.153 297.075)" fill="#e3f4fc"/><rect width="4.055" height="230.487" transform="translate(348.102 297.075)" fill="#b6def2"/><path d="M457.625,369.81l-1.505,4.108,2.837.015Z" transform="translate(-111.044 -90.013)" fill="#000543"/><path d="M461.63,388.479l-4.244-13.224-2.837-.015-4.879,13.239Z" transform="translate(-109.473 -91.336)" fill="#fff"/><path d="M386.179,670.149c1.18-13.073,3.094-33.158,6.287-59.659h13.163c-1.672,13.844-9.449,41.964-12.823,59.825-.484,2.587-.045,3.6-2.95,3.6S385.937,672.8,386.179,670.149Z" transform="translate(-94.006 -148.616)" fill="#ffcbbc"/><path d="M370.45,671.17c-.567-13.1-1.339-33.287-1.71-59.946L381.8,609.56c.189,13.943-3.783,42.8-4.751,60.937-.144,2.625.431,3.578-2.451,3.941S370.593,673.826,370.45,671.17Z" transform="translate(-89.768 -148.389)" fill="#ffcbbc"/><path d="M405.628,543.32l-10.894.076H365.026a8.5,8.5,0,0,0-2.625,6.415c-.068,3.941-.136,7.837-.212,11.779-.757,6.6,3.435,15.516,3.291,22.415-.166,7.527-4.123,13.3-4.289,20.834a26.228,26.228,0,0,0,11.461,3.026c10.19,0,12.422-1.173,14.926-2.27a17.207,17.207,0,0,1,2.27-.809c2.9-.81,7.308-.462,9.577-.2a1.513,1.513,0,0,0,1.664-1.3c2.58-18.618,5.8-37.394,5.583-55.982A8.382,8.382,0,0,0,405.628,543.32Z" transform="translate(-87.93 -132.261)" fill="#3795e2"/><path d="M398.424,692.651l-11.892-3.533c-.583-.174-1.286,0-1.384.393l-1.672,5.855c-.1.34.371.658.976.658l12.626.038C400.391,696.078,401.4,693.552,398.424,692.651Z" transform="translate(-93.353 -167.744)" fill="#fff"/><path d="M383.4,692.489l-11.892-3.51c-.583-.174-1.286,0-1.384.393l-1.672,5.855c-.1.34.371.658.976.658l12.619.045C385.371,695.916,386.378,693.366,383.4,692.489Z" transform="translate(-89.696 -167.71)" fill="#fff"/><path d="M401.34,411.186l-13.065-3.026a8.375,8.375,0,0,0-2.716,6.96l.62,7.005a9.078,9.078,0,0,0,1.838,4.683c.068.159.219.552.386,1.082l1.952.583-.757.242c-.681.2-1.846.3-1.967,1.082a24.638,24.638,0,0,0,.34,2.958,13.615,13.615,0,0,1-.159,3.14c0,.166-.681,8.322-.59,8.48s4.471-.053,4.645,0c2.224.643,1.369,0,3.336-1.263.507-.31.946-.182,1.067-.757a72.683,72.683,0,0,0,.068-11.09,1.353,1.353,0,0,0-.061-.492.757.757,0,0,1,.537-.651,9.888,9.888,0,0,0,3.851-2.224,8.193,8.193,0,0,0,2.792-6.65l-1.263-9.91Z" transform="translate(-93.855 -99.351)" fill="#ffcbbc"/><path d="M382.45,423.212c2.542.371,2.141,3.586,7.21,1.808,3.979-1.392,2.27-3.064,1.884-3.987a3.3,3.3,0,0,1,1.286-3.684,33.913,33.913,0,0,1,3.223-1.748c2.61-1.619,6.7-7.285-.7-8.1-1.551-.166-1.513-.62-1.929-1.959a4.184,4.184,0,0,0-1.581-2.133,6.81,6.81,0,0,0-1-.5c.136-.2-1.785-.227-1.687-.439.794-.106,3.661-.212,4.342.182,1.513.855.469.878,3.208,1.2,1.748.2,4-.113,4.963,1.286a7.822,7.822,0,0,1,.878,5.477c-.28,1.233-1.551,3.079-1.558,4.327,0,.477.235,2.27-.25,2.436-.129.038-.219-.068-.287-.2a23.073,23.073,0,0,1-2.587,4.4,10.7,10.7,0,0,1-7.709,7.52,1.915,1.915,0,0,1-.991,0c-1.279-.409-.507-.946-3.783-.953C381.3,428.114,382.987,425.119,382.45,423.212Z" transform="translate(-93.106 -97.942)" fill="#000543"/><path d="M404.648,421.066a1.9,1.9,0,0,0-1.294-.378c-1.218.106-2.012,1.475-1.778,3.026a3.094,3.094,0,0,0,1.952,2.587,1.665,1.665,0,0,0,.666.083c1.21-.106,2-1.475,1.778-3.026A3.382,3.382,0,0,0,404.648,421.066Z" transform="translate(-97.753 -102.4)" fill="#ffcbbc"/><path d="M383.279,414.285a1.558,1.558,0,0,0,.855-.371,1.422,1.422,0,0,0,.3-1.717,2.4,2.4,0,0,0-.386-.492,14.9,14.9,0,0,1,5.371-7.452c.53-.378.2-1.006.507-1.445.356.166.62-.212.885,0,.757.53,2.678,1.377,2.935,2.27a2.512,2.512,0,0,0,.931,1.43c.325.235.076,1.089.484,1.135,1.558.174,3.344.582,3.987,1.944a4.721,4.721,0,0,1-.378,4.236c-.666.938-1.914,1.309-2.905,1.922a32.542,32.542,0,0,0-3.223,1.748,3.3,3.3,0,0,0-1.286,3.684c.219.522,1.1.931,1.165,1.513s-.8,1.279-1.309,1.672a6.136,6.136,0,0,1-1.74.825,5.572,5.572,0,0,1-3.556.416c-1.369-.484-2.27-2.027-3.654-2.224a4.887,4.887,0,0,0-.6-1.233C382.265,419.452,382.674,416.8,383.279,414.285Z" transform="translate(-92.914 -98.032)" fill="#000543"/><path d="M391.626,401.93s-17.96.2-9.835,19.412C381.791,421.342,403.783,406.129,391.626,401.93Z" transform="translate(-92.432 -97.834)" fill="#000543"/><path d="M367.3,509.133c.885-2.572,1.891-5.1,2.966-7.565,1.437-3.351,3.276-6.627,3.972-10.258,1.218-6.393-1.112-12.24-2.86-18.308,1.052-4.274,2.27-8.48,3.677-12.581a7.329,7.329,0,0,0-3.873-8.458,5.136,5.136,0,0,0-1.2-.288,10.115,10.115,0,0,1,3.677-3.419l.061-.038c3.9-2.118,8.412-4.3,12.15-4.055a15.789,15.789,0,0,1,5.674.84,16.281,16.281,0,0,1,11.711,15.062c.2,16.1.545,45.058,3.374,53.145A40.035,40.035,0,0,1,408.7,523.8a15.133,15.133,0,0,0-5.462-.3c-.953.076-2.02.2-3.238.409-7.565,1.286-8.632,4.653-18.814,4.653a32.894,32.894,0,0,1-12.195-2.073h.136A110.285,110.285,0,0,1,367.3,509.133Z" transform="translate(-89.417 -108.113)" fill="#fc6bcf"/><path d="M362.426,525.361a3.858,3.858,0,0,1-.166-1.513,47.249,47.249,0,0,1,1.725-9.2c.3-1.044.643-2.08.991-3.109-.076-2.882-.068-5.772.053-8.654.061-1.4.151-2.8.257-4.191a142.794,142.794,0,0,1,3.783-23.316q-.348-1.2-.658-2.428a79.011,79.011,0,0,1-2.323-12.467,10.258,10.258,0,0,1,1.581-6.43c-2.595-.272-4.705,1.808-5.689,4.706-6.869,20.214-4.373,45.013.106,66.717Z" transform="translate(-87.086 -110.52)" fill="#ffcbbc"/><path d="M375.395,462.805c-1.392,4.1-2.625,8.322-3.677,12.581q-.348-1.2-.658-2.428a79.006,79.006,0,0,1-2.323-12.467,10.258,10.258,0,0,1,1.581-6.43,5.139,5.139,0,0,1,1.2.287A7.286,7.286,0,0,1,375.395,462.805Z" transform="translate(-89.758 -110.527)" fill="#fc6bcf"/><path d="M363.717,542.4a47.25,47.25,0,0,1,1.725-9.237c.3-1.044.643-2.08.991-3.109a110.284,110.284,0,0,0,1.831,17.309h-.136a18.651,18.651,0,0,1-2.27-1.052A4.131,4.131,0,0,1,363.717,542.4Z" transform="translate(-88.543 -129.03)" fill="#fc6bcf"/><path d="M447.5,470.143c-1.513-3.026.628-6.6,3.238-8.707a4.486,4.486,0,0,1,2.875-1.256,3.094,3.094,0,0,1,2.724,2.648,4.985,4.985,0,0,1-1.188,3.783A7.6,7.6,0,0,1,447,469Z" transform="translate(-108.822 -112.017)" fill="#ffcbbc"/><path d="M436.849,463.273c-6.309,5.992-16.409,16.144-21.8,21.319-1.135-6.128-3.593-18.489-4.993-25.623a6.6,6.6,0,1,0-12.687,3.389c1.188,3.261,2.421,6.665,2.746,7.565,3.783,10.273,5.364,15.244,7.853,21.856a5.122,5.122,0,0,0,7.3,2.761,22.964,22.964,0,0,0,3.117-2.307c7.4-6.317,15.206-18.64,22.408-27.038Z" transform="translate(-96.63 -110.359)" fill="#ffcbbc"/><path d="M273.365,728.3a45.861,45.861,0,0,1-7.421-5.3c-3.715,3.026-9.29,4.728-15.244,5.3Z" transform="translate(-61.027 -176.01)" fill="#3bd98a"/><path d="M0,712.424H181.276c-7.837-.7-15.168-3.374-18.709-7.8-6.324,5.666-23.528,3.548-25.85-3.185-13.935,3.079-31.161-2.353-35.322-11.136,1.6,7.565-16.568,11.6-26.924,7.452S60.332,685.522,57,678.169s-7.981-15.41-19-18.845c-12.861-4-27.862-1.355-42.413,11.92s-15.792,41.179-15.792,41.179H0Z" transform="translate(0.015 -160.139)" fill="#3bd98a"/><path d="M76.479,672.375c-.242,7.7-1.331,16.386,3.026,22.2,5.084,6.809,14.737,5.795,21.3,10.682a15.522,15.522,0,0,1,1.581,1.362H113.9c-1.226-6.234-3.843-12.1-6.809-14.767-3.215-2.943-7.437-4.365-10.319-7.716-5.175-5.992-4.4-15.72-6.521-23.807C86.9,647.471,76.161,639.149,65.29,633.99,73.483,644.165,76.91,658.493,76.479,672.375Z" transform="translate(-15.882 -154.338)" fill="#17a579"/><path d="M105.269,685.62a34.8,34.8,0,0,1,4.842,8.685h13c.189-2.36.356-4.4.469-5.961,1.044-13.965,1.732-29.262-6.415-40.572-4.539-6.332-11.507-10.742-15.418-17.506-3.026-5.235-3.957-11.446-4.146-17.506a64.145,64.145,0,0,1,1.43-16.046c.84-3.7,2.353-8.851,3.465-13.315-7.565,8.881-13.617,20.328-17.4,31.373-4.6,13.436-5.553,28.611-.257,41.82C89.3,667.653,97.7,676.5,105.269,685.62Z" transform="translate(-19.767 -142.02)" fill="#69edc4"/><path d="M120.516,698.374h14.76c2.2-11.348,7.5-22.136,12.982-32.386,5.182-9.7,10.765-20.017,9.918-31.017-1.1-14.449-12.8-25.434-23.679-34.86,5.734,9.941,3.888,22.642-.318,33.332s-10.591,20.5-13.806,31.539a59.931,59.931,0,0,0,0,32.833Z" transform="translate(-28.736 -146.088)" fill="#49cb53"/><path d="M146.516,709.24c6.763-2.043,14.54-1.922,19.435-6.96,5.175-5.3,4.653-13.769,4.978-21.228.59-13.428,5.4-27.023,15.024-36.313-12.172,4.214-24.473,11.552-29.111,23.7-2.913,7.656-2.814,17.1-8.9,22.536-3.389,3.026-8.08,4.115-11.8,6.725-2.958,2.08-5.833,6.491-7.724,11.507Z" transform="translate(-31.253 -156.955)" fill="#92ed69"/><path d="M1024.445,145.39H781.1a16.757,16.757,0,0,0-16.53,14.593l-50.278,370.5,232.03.885a47.476,47.476,0,0,1-.431,6.4c-3.125,23.588,12.013,24.829,14.374,24.874h.318s17.4-1.437,21.455-26.251l4.04-24.814,49.241-353.526a11.075,11.075,0,0,0-10.871-12.664Z" transform="translate(-173.905 -35.37)" fill="#fff"/><path d="M998.722,619.64h.287c2.118.061,15.683,1.513,11.847,29.239s10.349,29.186,12.566,29.247l-54.023-.2,4.32-26.523C978.221,620.45,998.722,619.64,998.722,619.64Z" transform="translate(-236.021 -150.844)" fill="#b6def2"/><path d="M631,702.768H882.919l8.428-51.73c4.5-30.949,24.965-31.774,24.965-31.774l-251.73-1.1h-.053s-20.5.81-25,31.774l-4.32,26.531h.045Z" transform="translate(-153.625 -150.483)" fill="#e3f4fc"/><path d="M669.295,574.706c-11.416,0-19.715-9.4-18.512-20.963s11.476-20.963,22.892-20.963,19.715,9.4,18.5,20.963S680.7,574.706,669.295,574.706Zm4.237-40.542c-10.667,0-20.252,8.783-21.379,19.579s6.627,19.579,17.286,19.579,20.252-8.783,21.379-19.579-6.612-19.579-17.286-19.579Z" transform="translate(-158.413 -129.694)" fill="#fff"/><path d="M674.594,568.621a11.3,11.3,0,0,1-11.348-12.861A14.571,14.571,0,0,1,677.3,542.9a11.3,11.3,0,0,1,11.348,12.861A14.578,14.578,0,0,1,674.594,568.621Zm2.618-25.056a13.779,13.779,0,0,0-13.3,12.18,10.726,10.726,0,0,0,10.758,12.2,13.872,13.872,0,0,0,13.337-12.2A10.713,10.713,0,0,0,677.211,543.566Z" transform="translate(-161.458 -132.159)" fill="#fff"/><path d="M695.215,552.676a2.141,2.141,0,0,0-2.148-2.436,2.746,2.746,0,0,0-2.655,2.436.919.919,0,0,0,0,.144c-1.15,9.736-9.835,17.619-19.473,17.619s-16.795-8.011-15.766-17.854,9.638-17.718,19.268-17.839h.227a2.769,2.769,0,0,0,2.459-2.413,2.126,2.126,0,0,0-1.952-2.413h-.2a2.539,2.539,0,0,0-.477.045c-12.1.363-22.816,10.372-24.1,22.7-1.309,12.513,7.679,22.7,20.033,22.7,12.187,0,23.157-9.918,24.7-22.2a2.36,2.36,0,0,0,.083-.477Z" transform="translate(-158.317 -128.998)" fill="#f9c36e"/><path d="M677.074,541.34c-7.565,0-14.412,6.219-15.289,13.882v.061A1.309,1.309,0,0,0,663.1,556.8a1.7,1.7,0,0,0,1.634-1.513v-.061a12.436,12.436,0,0,1,12.029-10.886,9.722,9.722,0,0,1,9.744,11.03A12.5,12.5,0,0,1,674.456,566.4a1.687,1.687,0,0,0-1.657,1.513,1.309,1.309,0,0,0,1.316,1.513A15.879,15.879,0,0,0,689.458,555.4C690.268,547.672,684.7,541.34,677.074,541.34Z" transform="translate(-161.117 -131.779)" fill="#fff"/><g transform="translate(451.896 248.643)" opacity="0.58"><path d="M660.463,331.316a1.127,1.127,0,0,1-1.12-1.347,1.619,1.619,0,0,1,1.513-1.339,1.127,1.127,0,0,1,1.112,1.347,1.6,1.6,0,0,1-1.505,1.339Z" transform="translate(-612.417 -328.63)" fill="#85caf9"/><path d="M659.053,340.516a1.127,1.127,0,0,1-1.12-1.347,1.611,1.611,0,0,1,1.513-1.339,1.127,1.127,0,0,1,1.112,1.347A1.6,1.6,0,0,1,659.053,340.516Z" transform="translate(-612.073 -330.87)" fill="#85caf9"/><path d="M657.632,349.716a1.12,1.12,0,0,1-1.12-1.347,1.611,1.611,0,0,1,1.513-1.339,1.127,1.127,0,0,1,1.12,1.347A1.6,1.6,0,0,1,657.632,349.716Z" transform="translate(-611.727 -333.11)" fill="#85caf9"/><path d="M656.232,358.916a1.12,1.12,0,0,1-1.12-1.347,1.611,1.611,0,0,1,1.513-1.339,1.12,1.12,0,0,1,1.12,1.347,1.6,1.6,0,0,1-1.513,1.339Z" transform="translate(-611.386 -335.35)" fill="#85caf9"/><path d="M654.822,368.136a1.12,1.12,0,0,1-1.12-1.347,1.611,1.611,0,0,1,1.513-1.339,1.127,1.127,0,0,1,1.12,1.347A1.611,1.611,0,0,1,654.822,368.136Z" transform="translate(-611.043 -337.595)" fill="#85caf9"/><path d="M653.412,377.316a1.12,1.12,0,0,1-1.12-1.347,1.611,1.611,0,0,1,1.513-1.339,1.12,1.12,0,0,1,1.12,1.347,1.611,1.611,0,0,1-1.513,1.339Z" transform="translate(-610.699 -339.83)" fill="#85caf9"/><path d="M639.6,329.458l-21.054-.1-.514,3.359,21.054.1Z" transform="translate(-602.363 -328.808)" fill="#85caf9"/><path d="M638.268,338.128l-21.054-.1-.514,3.359,21.054.1Z" transform="translate(-602.039 -330.919)" fill="#85caf9"/><path d="M632.131,355.451l-31.849-.151-.522,3.359,31.857.151Z" transform="translate(-597.914 -335.124)" fill="#85caf9"/><path d="M597.834,371.26l-.514,3.359,24.912.113.514-3.351Z" transform="translate(-597.32 -339.01)" fill="#85caf9"/><path d="M604.264,329.29l-.514,3.359,7.49.03.522-3.351Z" transform="translate(-598.886 -328.791)" fill="#85caf9"/><path d="M602.934,337.96l-.514,3.359,7.5.03.507-3.351Z" transform="translate(-598.562 -330.902)" fill="#85caf9"/></g><path d="M669.455,343.55h-3.639a42.362,42.362,0,0,1-.446,6.915c-3.389,22.8-24.466,41.351-46.979,41.351-1.2,0-2.368-.061-3.525-.166l-.545,3.639c1.157.091,2.33.159,3.533.159,24.488,0,47.411-20.176,51.095-44.982a45.122,45.122,0,0,0,.507-6.915Z" transform="translate(-149.564 -83.62)" fill="#fff"/><path d="M605.176,379.59c-22.068-1.12-36.82-20.335-32.28-43.371,4.161-21.1,23.611-38.2,44.6-39.225,22.938-1.12,39.255,16.779,36.941,39.339a1.513,1.513,0,0,0,1.513,1.717,2.179,2.179,0,0,0,2.08-1.914c2.5-24.534-15.244-43.984-40.186-42.773-22.824,1.112-43.984,19.722-48.508,42.682-4.94,25.041,11.1,45.928,35.087,47.154a2.164,2.164,0,0,0,2.164-1.816,1.513,1.513,0,0,0-1.407-1.793Z" transform="translate(-138.392 -71.387)" fill="#ffeb9a"/><g transform="translate(420.372 339.38)" opacity="0.51"><path d="M556.346,488.688h-.7l1.528-10.568h.7Z" transform="translate(-555.65 -455.765)" fill="#85caf9"/><path d="M556.356,487.79h-.7l1.929-13.36h.7Z" transform="translate(-555.652 -454.867)" fill="#85caf9"/><path d="M556.366,486.892h-.7L558,470.74h.7Z" transform="translate(-555.655 -453.968)" fill="#85caf9"/><path d="M556.376,485.991h-.7l2.731-18.951h.7Z" transform="translate(-555.657 -453.067)" fill="#85caf9"/><path d="M556.386,485.092h-.7l3.14-21.742h.7Z" transform="translate(-555.66 -452.169)" fill="#85caf9"/><path d="M556.4,484.191h-.7l3.54-24.541h.7Z" transform="translate(-555.662 -451.268)" fill="#85caf9"/><path d="M556.406,483.293h-.7l3.941-27.333h.7Z" transform="translate(-555.665 -450.369)" fill="#85caf9"/><path d="M556.416,482.394h-.7l4.342-30.124h.7Z" transform="translate(-555.667 -449.471)" fill="#85caf9"/><path d="M556.426,481.493h-.7l4.743-32.923h.7Z" transform="translate(-555.669 -448.57)" fill="#85caf9"/><path d="M576.856,481.493h-.7l4.751-32.923h.7Z" transform="translate(-560.644 -448.57)" fill="#85caf9"/><path d="M597.286,481.493h-.7l4.751-32.923h.7Z" transform="translate(-565.618 -448.57)" fill="#85caf9"/><path d="M617.724,481.493h-.7l4.751-32.923h.7Z" transform="translate(-570.593 -448.57)" fill="#85caf9"/><path d="M638.156,481.493h-.7L642.2,448.57h.7Z" transform="translate(-575.57 -448.57)" fill="#85caf9"/><path d="M658.586,481.493h-.7l4.743-32.923h.7Z" transform="translate(-580.544 -448.57)" fill="#85caf9"/><path d="M679.016,481.493h-.7l4.751-32.923h.7Z" transform="translate(-585.518 -448.57)" fill="#85caf9"/></g><path d="M662.685,464.607l-4.917,6.62-2.451,3.314-1.233,1.657a6.368,6.368,0,0,1-1.672,1.732,5.651,5.651,0,0,1-5,.643,3.9,3.9,0,0,1-1.778-1.392l-1.044-1.513-4.191-6.052-2.1-3.026-.522-.757a3.343,3.343,0,0,0-.545-.59,3.858,3.858,0,0,0-1.513-.757,4.834,4.834,0,0,0-1.846-.113,9.075,9.075,0,0,0-1.959.56l-4.221,1.521-2.1.757a12.544,12.544,0,0,1-2.27.643,9.728,9.728,0,0,1-4.539-.227,7.706,7.706,0,0,1-1.922-.893,16.31,16.31,0,0,1-1.513-1.21l-2.913-2.436-2.913-2.436a12.86,12.86,0,0,0-1.437-1.135,3.026,3.026,0,0,0-1.77-.287,3.458,3.458,0,0,0-1.748.756c-.461.409-.976.976-1.46,1.46l-2.958,3.026-5.908,6.052-2.958,3.026a12.055,12.055,0,0,1-1.589,1.513,6.131,6.131,0,0,1-2.088.968,5.713,5.713,0,0,1-2.27.136c-.757-.114-1.362-.325-2.043-.492l-3.994-1.044-2-.522a9.584,9.584,0,0,0-2.027-.371,9.971,9.971,0,0,0-4.229.643,25.073,25.073,0,0,0-3.783,2.133l-3.737,2.27-7.467,4.592,7.406-4.668,3.7-2.338A25.653,25.653,0,0,1,571,474.177a9.948,9.948,0,0,1,6.461-.363l2,.5,4.017,1c.673.151,1.347.363,2,.454a5.3,5.3,0,0,0,2.058-.151,5.509,5.509,0,0,0,1.876-.893,12.106,12.106,0,0,0,1.513-1.437l2.905-3.026,5.825-6.113,2.913-3.026c.514-.522.915-1.006,1.513-1.551a4.487,4.487,0,0,1,2.27-.983,3.82,3.82,0,0,1,2.269.348,4.6,4.6,0,0,1,.847.59l.756.605,2.958,2.4,2.958,2.4a16.113,16.113,0,0,0,1.513,1.135,6.885,6.885,0,0,0,1.695.757,8.556,8.556,0,0,0,3.949.151,11.172,11.172,0,0,0,2-.605l2.088-.757,4.161-1.513c.356-.129.666-.25,1.067-.378a7.408,7.408,0,0,1,1.21-.287,6.68,6.68,0,0,1,2.376,0,5.046,5.046,0,0,1,2,.983,4.363,4.363,0,0,1,.757.757l.545.757,2.141,2.988,4.3,5.976,1.074,1.513a2.443,2.443,0,0,0,1.2.923,3.707,3.707,0,0,0,3.261-.454,4.606,4.606,0,0,0,1.2-1.309l1.2-1.664,2.406-3.336,4.819-6.672a1.112,1.112,0,0,1,1.316-.363.7.7,0,0,1,.272,1.089Z" transform="translate(-135.38 -111.618)" fill="#ffeb9a"/><path d="M609.79,540.253l1.294-9.313,10.516.015-1.294,9.313Z" transform="translate(-148.46 -129.246)" fill="#ffeb9a"/><path d="M606.35,565.125l1.294-9.305,10.516.008-1.294,9.313Z" transform="translate(-147.623 -135.304)" fill="#ffeb9a"/><path d="M602.91,590l1.294-9.313,10.508.015-1.286,9.305Z" transform="translate(-146.785 -141.36)" fill="#ffeb9a"/><path d="M599.47,614.873l1.286-9.313,10.516.015-1.286,9.313Z" transform="translate(-145.948 -147.415)" fill="#ffeb9a"/><path d="M596.03,639.743l1.286-9.313,10.516.015-1.294,9.313Z" transform="translate(-145.11 -153.471)" fill="#ffeb9a" opacity="0.2"/><path d="M592.58,664.613l1.294-9.313,10.516.015-1.294,9.313Z" transform="translate(-144.27 -159.526)" fill="#ffeb9a" opacity="0.2"/><path d="M588.47,540.23l1.294-9.32,10.508.015-1.286,9.313Z" transform="translate(-143.269 -129.239)" fill="#ffeb9a" opacity="0.6"/><path d="M585.03,565.1l1.286-9.313,10.516.008-1.286,9.32Z" transform="translate(-142.432 -135.297)" fill="#ffeb9a"/><path d="M581.59,589.973l1.286-9.313,10.516.015-1.286,9.313Z" transform="translate(-141.594 -141.353)" fill="#ffeb9a"/><path d="M578.14,614.843l1.294-9.313,10.516.015-1.294,9.313Z" transform="translate(-140.754 -147.408)" fill="#ffeb9a" opacity="0.8"/><path d="M574.7,639.713l1.294-9.313,10.508.015-1.286,9.313Z" transform="translate(-139.917 -153.464)" fill="#ffeb9a" opacity="0.2"/><path d="M571.26,664.593l1.294-9.313,10.508.008-1.286,9.32Z" transform="translate(-139.079 -159.522)" fill="#ffeb9a"/><path d="M566.77,540.2l1.286-9.313,10.516.008-1.286,9.32Z" transform="translate(-137.986 -129.234)" fill="#ffeb9a"/><path d="M563.33,565.073l1.286-9.313,10.516.015-1.294,9.313Z" transform="translate(-137.148 -135.29)" fill="#ffeb9a" opacity="0.8"/><path d="M559.88,589.943l1.294-9.313,10.516.015-1.294,9.313Z" transform="translate(-136.308 -141.345)" fill="#ffeb9a" opacity="0.2"/><path d="M556.44,614.813l1.286-9.313,10.516.015-1.286,9.313Z" transform="translate(-135.471 -147.401)" fill="#ffeb9a" opacity="0.8"/><path d="M553,639.693l1.286-9.313,10.516.008-1.286,9.313Z" transform="translate(-134.633 -153.459)" fill="#ffeb9a" opacity="0.8"/><path d="M549.56,664.563l1.286-9.313,10.516.015-1.286,9.313Z" transform="translate(-133.795 -159.514)" fill="#ffeb9a"/><path d="M546.59,540.173l1.286-9.313,10.516.015-1.286,9.313Z" transform="translate(-133.072 -129.227)" fill="#ffeb9a"/><path d="M543.14,565.043l1.294-9.313,10.516.015-1.294,9.313Z" transform="translate(-132.232 -135.282)" fill="#ffeb9a"/><path d="M539.7,589.923l1.294-9.313,10.508.008-1.286,9.313Z" transform="translate(-131.395 -141.34)" fill="#ffeb9a"/><path d="M536.26,614.793l1.286-9.313,10.516.015-1.286,9.313Z" transform="translate(-130.557 -147.396)" fill="#ffeb9a"/><path d="M532.82,639.663l1.286-9.313,10.516.015-1.286,9.313Z" transform="translate(-129.719 -153.451)" fill="#ffeb9a" opacity="0.8"/><path d="M529.38,664.533l1.286-9.313,10.516.015-1.294,9.313Z" transform="translate(-128.882 -159.507)" fill="#ffeb9a"/><path d="M823.88,250.233a7.27,7.27,0,0,1-4.955-2.519,7.694,7.694,0,0,1-1.695-6.12l3.382-25.51a9.956,9.956,0,0,1,3.314-6.105,9.57,9.57,0,0,1,6.377-2.519l25.207.076a7.369,7.369,0,0,1,5.712,2.549,7.724,7.724,0,0,1,1.695,6.12l-3.382,25.51a9.993,9.993,0,0,1-3.314,6.105,9.585,9.585,0,0,1-6.385,2.519l-25.237-.106Zm31.441-38.4a3.17,3.17,0,0,0-.378,0l-25.207-.068a5.1,5.1,0,0,0-4.895,4.358l-3.382,25.51a3.783,3.783,0,0,0,3.737,4.38l25.207.068a5.106,5.106,0,0,0,4.9-4.358l3.374-25.532a3.722,3.722,0,0,0-3.359-4.38Z" transform="translate(-198.947 -50.483)" fill="#e3f4fc"/><path d="M810.017,352.053a7,7,0,0,1-4.736-2.4,7.421,7.421,0,0,1-1.619-5.855l3.487-26.281a9.525,9.525,0,0,1,3.162-5.833,9.184,9.184,0,0,1,6.1-2.406l25.971.076a7.02,7.02,0,0,1,5.455,2.436,7.406,7.406,0,0,1,1.619,5.848l-3.487,26.281a9.524,9.524,0,0,1-3.162,5.84,9.184,9.184,0,0,1-6.1,2.4l-26-.068C810.494,352.091,810.252,352.076,810.017,352.053Zm32.144-38.4a2.627,2.627,0,0,0-.348,0l-25.971-.076a4.426,4.426,0,0,0-2.935,1.157,4.539,4.539,0,0,0-1.513,2.814l-3.48,26.281a3.533,3.533,0,0,0,.757,2.814,3.4,3.4,0,0,0,2.625,1.18l25.971.068a4.357,4.357,0,0,0,2.935-1.157,4.539,4.539,0,0,0,1.513-2.814l3.487-26.274a3.555,3.555,0,0,0-.757-2.822A3.321,3.321,0,0,0,842.161,313.653Z" transform="translate(-195.645 -75.275)" fill="#e3f4fc"/><path d="M796.159,453.9a6.726,6.726,0,0,1-6.052-7.868l3.586-27.045a9.2,9.2,0,0,1,8.828-7.86l26.735.076a6.718,6.718,0,0,1,5.2,2.323,7.036,7.036,0,0,1,1.513,5.575l-3.586,27.053a9.214,9.214,0,0,1-8.828,7.86l-26.735-.076C796.613,453.941,796.386,453.926,796.159,453.9Zm32.833-38.4h-.31l-26.735-.076a4.206,4.206,0,0,0-4.032,3.586l-3.586,27.053a3.072,3.072,0,0,0,3.079,3.609l26.735.076a4.206,4.206,0,0,0,4.032-3.586l3.586-27.053a3.238,3.238,0,0,0-.7-2.549A3.026,3.026,0,0,0,828.992,415.5Z" transform="translate(-192.34 -100.074)" fill="#e3f4fc"/><path d="M782.3,555.763a6.363,6.363,0,0,1-4.3-2.179,6.7,6.7,0,0,1-1.46-5.3l3.684-27.825a8.76,8.76,0,0,1,8.4-7.474l27.5.083a6.4,6.4,0,0,1,6.408,7.512l-3.684,27.825a8.761,8.761,0,0,1-8.4,7.467l-27.5-.076C782.733,555.794,782.514,555.778,782.3,555.763Zm33.536-38.408h-.28l-27.5-.076a3.579,3.579,0,0,0-2.368.938,3.677,3.677,0,0,0-1.233,2.27l-3.684,27.825a2.867,2.867,0,0,0,.628,2.27,2.731,2.731,0,0,0,2.118.946l27.5.076a3.571,3.571,0,0,0,2.368-.93,3.707,3.707,0,0,0,1.225-2.27l3.692-27.84a2.874,2.874,0,0,0-.628-2.27,2.708,2.708,0,0,0-1.838-.938Z" transform="translate(-189.044 -124.876)" fill="#e3f4fc"/><path d="M841.065,244.007a1.816,1.816,0,0,1-1.445-.931l-6.688-12.331a2.322,2.322,0,0,1,.946-2.973,1.975,1.975,0,0,1,2.867.567l5.2,9.562,12.331-17.029a2.27,2.27,0,0,1,3.026-.757,2.043,2.043,0,0,1,.348,2.935l-14.374,19.9a2.489,2.489,0,0,1-1.891,1.036Z" transform="translate(-202.741 -53.494)" fill="#1765a5"/><path d="M827.682,346.927a1.793,1.793,0,0,1-1.437-.931l-6.7-12.331a2.322,2.322,0,0,1,.946-2.973,1.982,1.982,0,0,1,2.867.567l5.2,9.562,12.331-17.029a2.27,2.27,0,0,1,3.026-.757,2.043,2.043,0,0,1,.348,2.943l-14.374,19.9A2.489,2.489,0,0,1,828,346.912Z" transform="translate(-199.481 -78.554)" fill="#1765a5"/><path d="M813.932,447.417a1.808,1.808,0,0,1-1.437-.93l-6.7-12.331a2.323,2.323,0,0,1,.946-2.973,1.975,1.975,0,0,1,2.867.567l5.2,9.562,12.331-17.029a2.27,2.27,0,0,1,3.026-.757,2.035,2.035,0,0,1,.348,2.935l-14.374,19.9a2.474,2.474,0,0,1-1.884,1.044Z" transform="translate(-196.133 -103.022)" fill="#1765a5"/><path d="M800.312,549.407a1.816,1.816,0,0,1-1.445-.93l-6.7-12.331a2.322,2.322,0,0,1,.946-2.973,1.982,1.982,0,0,1,2.867.567l5.2,9.57,12.331-17.037a2.27,2.27,0,0,1,3.026-.757,2.05,2.05,0,0,1,.348,2.943l-14.374,19.9a2.489,2.489,0,0,1-1.891,1.036Z" transform="translate(-192.817 -127.855)" fill="#1765a5"/><path d="M885.359,228.789a1.785,1.785,0,0,1-1.589-2.1,2.459,2.459,0,0,1,2.353-2.1l90.343.3a1.808,1.808,0,0,1,1.8,2.111,2.451,2.451,0,0,1-2.36,2.1l-90.343-.287Z" transform="translate(-215.164 -54.654)" fill="#e3f4fc"/><path d="M883.887,242.859a1.785,1.785,0,0,1-1.6-2.1,2.451,2.451,0,0,1,2.353-2.1l133.585.522a1.8,1.8,0,0,1,1.793,2.111,2.451,2.451,0,0,1-2.36,2.1l-133.578-.522Z" transform="translate(-214.803 -58.08)" fill="#e3f4fc"/><path d="M870.478,331.649a1.793,1.793,0,0,1-1.6-2.1,2.451,2.451,0,0,1,2.353-2.1l132.912.34a1.778,1.778,0,0,1,1.8,2.111,2.444,2.444,0,0,1-2.353,2.1l-132.919-.333Z" transform="translate(-211.539 -79.699)" fill="#e3f4fc"/><path d="M914.7,346.069a1.793,1.793,0,0,1-1.6-2.1,2.451,2.451,0,0,1,2.353-2.1l44.158.038a1.785,1.785,0,0,1,1.8,2.111,2.451,2.451,0,0,1-2.353,2.1l-44.158-.045Z" transform="translate(-222.306 -83.21)" fill="#e3f4fc"/><path d="M869.037,345.759a1.793,1.793,0,0,1-1.6-2.111,2.451,2.451,0,0,1,2.36-2.088l26.357.182a1.808,1.808,0,0,1,1.793,2.118,2.459,2.459,0,0,1-2.36,2.088l-26.365-.182Z" transform="translate(-211.188 -83.135)" fill="#e3f4fc"/><path d="M846.3,536.279a1.808,1.808,0,0,1-1.6-2.1,2.444,2.444,0,0,1,2.353-2.1l132.919.333a1.8,1.8,0,0,1,1.793,2.111,2.451,2.451,0,0,1-2.353,2.1l-132.912-.34Z" transform="translate(-205.652 -129.524)" fill="#e3f4fc"/><path d="M844.817,550.339a1.785,1.785,0,0,1-1.6-2.1,2.459,2.459,0,0,1,2.368-2.1l26.357.182a1.8,1.8,0,0,1,1.793,2.118,2.451,2.451,0,0,1-2.368,2.088l-26.357-.174Z" transform="translate(-205.29 -132.947)" fill="#e3f4fc"/><path d="M858.218,442.409a1.8,1.8,0,0,1-1.6-2.1,2.451,2.451,0,0,1,2.353-2.1l132.912.34a1.785,1.785,0,0,1,1.8,2.1,2.459,2.459,0,0,1-2.353,2.1l-132.919-.34Z" transform="translate(-208.554 -106.668)" fill="#e3f4fc"/><path d="M902.4,456.781a1.785,1.785,0,0,1-1.6-2.088,2.444,2.444,0,0,1,2.353-2.1l44.158.038a1.793,1.793,0,0,1,1.8,2.1,2.451,2.451,0,0,1-2.353,2.1L902.6,456.8Z" transform="translate(-219.311 -110.169)" fill="#e3f4fc"/><path d="M856.737,456.469a1.785,1.785,0,0,1-1.6-2.1,2.466,2.466,0,0,1,2.36-2.1l26.364.182a1.816,1.816,0,0,1,1.785,2.118,2.466,2.466,0,0,1-2.36,2.1l-26.364-.182Z" transform="translate(-208.193 -110.091)" fill="#e3f4fc"/><path d="M860.2,427.571a1.793,1.793,0,0,1-1.6-2.1,2.443,2.443,0,0,1,2.353-2.1l132.912.34a1.785,1.785,0,0,1,1.8,2.1,2.459,2.459,0,0,1-2.353,2.1l-132.9-.34Z" transform="translate(-209.036 -103.057)" fill="#e3f4fc"/><path d="M1096.06,682.565l6.309-1.695c.091.318.182.628.265.938a19.959,19.959,0,0,1,.522,2.731l-5.939,1.634Q1096.628,684.365,1096.06,682.565Z" transform="translate(-266.861 -165.752)" fill="#ffa27f"/><path d="M1103.529,685.72c.318,2.776-.257,4.705-1.642,5.122s-3.366-.628-4.07-2.776l-.227-.711Z" transform="translate(-267.233 -166.933)" fill="#ffa27f"/><path d="M1074.137,551.664a6.071,6.071,0,0,1,0-.7l.083-2.27,24.148-.938,2.8.045-.144,2.557-.06.666c-3.064,21.137-5.825,62.465.961,94.012a3.525,3.525,0,0,1-3.193,4.062l-8.026,1.1a3.647,3.647,0,0,1-4.176-2.686C1078.714,609.393,1074.787,573.073,1074.137,551.664Z" transform="translate(-261.52 -133.342)" fill="#1a307e"/><path d="M1075.94,682.565l6.309-1.695c.1.318.189.628.272.938a19.961,19.961,0,0,1,.522,2.731l-5.938,1.634Q1076.515,684.365,1075.94,682.565Z" transform="translate(-261.962 -165.752)" fill="#ffa27f"/><path d="M1083.419,685.72c.318,2.776-.257,4.705-1.642,5.122s-3.366-.628-4.07-2.776l-.227-.711Z" transform="translate(-262.337 -166.933)" fill="#ffa27f"/><path d="M1054,551.664a6.071,6.071,0,0,1,0-.7l.083-2.27,24.148-.938,2.8.045-.144,2.557a6.429,6.429,0,0,1-.068.666c-3.026,21.137-5.818,62.465.968,94.012a3.533,3.533,0,0,1-3.2,4.062l-8.019,1.1a3.646,3.646,0,0,1-4.176-2.686C1058.6,609.393,1054.647,573.073,1054,551.664Z" transform="translate(-256.616 -133.342)" fill="#021a6c"/><path d="M1065.959,690.813l12.861-4.441c.635-.219,1.415,0,1.513.469l2.1,7.2c.121.416-.378.81-1.044.817l-13.859.151C1063.962,695.05,1062.737,691.925,1065.959,690.813Z" transform="translate(-259.077 -167.071)" fill="#fff"/><path d="M1075.768,690.642l.537-.166a.189.189,0,0,0,.121-.234l-.719-2.285a.2.2,0,0,0-.242-.129l-.53.166a.2.2,0,0,0-.129.242l.7,2.315a.182.182,0,0,0,.257.091Z" transform="translate(-261.684 -167.445)" fill="#fbe9dc"/><path d="M1073.095,691.4l.53-.166a.189.189,0,0,0,.129-.242l-.7-2.315a.181.181,0,0,0-.234-.129l-.537.166a.189.189,0,0,0-.121.242l.7,2.315a.182.182,0,0,0,.235.129Z" transform="translate(-261.038 -167.619)" fill="#fbe9dc"/><path d="M1070.546,692.269l.537-.166a.2.2,0,0,0,.121-.242l-.7-2.322a.2.2,0,0,0-.242-.121l-.529.166a.189.189,0,0,0-.129.235l.7,2.323A.189.189,0,0,0,1070.546,692.269Z" transform="translate(-260.418 -167.831)" fill="#fbe9dc"/><path d="M1085.993,690.643l12.9-4.441c.635-.219,1.407,0,1.513.469l2.1,7.2c.121.424-.378.809-1.044.817l-13.859.151C1084.034,694.88,1082.771,691.755,1085.993,690.643Z" transform="translate(-263.958 -167.03)" fill="#fff"/><path d="M1095.806,690.46l.537-.159a.2.2,0,0,0,.121-.242l-.7-2.322a.189.189,0,0,0-.235-.129l-.529.166a.2.2,0,0,0-.129.242l.7,2.322a.182.182,0,0,0,.235.121Z" transform="translate(-266.568 -167.391)" fill="#fbe9dc"/><path d="M1093.125,691.23l.53-.166a.189.189,0,0,0,.129-.234l-.7-2.323a.189.189,0,0,0-.235-.129l-.537.166a.2.2,0,0,0-.121.242l.7,2.315A.2.2,0,0,0,1093.125,691.23Z" transform="translate(-265.916 -167.579)" fill="#fbe9dc"/><path d="M1090.575,692.079l.537-.166a.189.189,0,0,0,.121-.242l-.7-2.315a.182.182,0,0,0-.235-.129l-.53.166a.189.189,0,0,0-.129.242l.7,2.315a.189.189,0,0,0,.235.129Z" transform="translate(-265.294 -167.785)" fill="#fbe9dc"/><path d="M1062.3,454.29l-2.443,2.179c1.15,5.3,5.349,20.116,8.934,27.825,1.573,3.367,3.571,5.167,5.878,4.88a5.7,5.7,0,0,0,1.649-2.269c.076-.2,2.55-1.248,2.633-1.46C1078.954,485.466,1065.609,460.04,1062.3,454.29Z" transform="translate(-258.046 -110.583)" fill="#ffa27f"/><path d="M1061.343,452.062a5.7,5.7,0,0,0-.84-2.126.386.386,0,0,0-.673.257c0,.431.121,1.513-.272,1.748-.2.113-.378-.1-.461-.288-.393-.878-.757-1.763-1.1-2.663-.219-.575-.371-.711-1.059-.757a1.952,1.952,0,0,0-2.307,1.339,7.193,7.193,0,0,0-.688,3.934c.446,1.884,3.7,3.881,5.613,3.836.991,0,2.466-.757,2.186-1.99A23.843,23.843,0,0,1,1061.343,452.062Z" transform="translate(-256.594 -109.096)" fill="#ffa27f"/><path d="M1085.63,438.989a2.444,2.444,0,0,1-.333-.076,9.3,9.3,0,0,1-7.429-7.02l-.151-.2a4.282,4.282,0,0,0,1.127-2.345c.257-1.717-.537-3.079-1.77-3.026a2.224,2.224,0,0,0-1.331.56,4.061,4.061,0,0,0-.756.908c-.257-.045-.3-.832-.31-1.036,0-.507.083-1.021.083-1.513A6.393,6.393,0,0,0,1074,422.8l-1.014,7.868a7.86,7.86,0,0,0,2.761,6.756,8.588,8.588,0,0,0,2.981,1.664,18.744,18.744,0,0,1,1.248,3.253,10.476,10.476,0,0,0,1.967,3.888c.371.439,1.445.53,2.05.537,2.36,0,5.341.287,7.073-1.513.378-.4-.711-2.474-1.188-3.442s-1.082-1.755-1.581-2.776a5.685,5.685,0,0,1-.363-1.006,12.392,12.392,0,0,1-1.271.847,1.831,1.831,0,0,1-1.036.113Z" transform="translate(-261.235 -102.916)" fill="#ffa27f"/><path d="M1095.195,460.139s-9.388-18.86-35.216-3.026a16.219,16.219,0,0,0-3.3,2.958c-1.415,1.717-.378,3.866-.908,6.287-.628,2.89-.809,12.482-.605,15.38.643,8.987-1.014,16.061-1.922,24.208-.431,4.282-3.435,13.784-4.206,18.27,0,1.468.537,5.152,1.354,6.052.613.681,6.809,5.243,15.312,6.052,8.057.757,9.6-4.917,24.549-4.274a4.161,4.161,0,0,0,4.085-3.329c3.828-18.315,1.4-29.3,2.141-56.33C1096.784,470.987,1097.5,464.247,1095.195,460.139Z" transform="translate(-255.412 -109.729)" fill="#7456f8"/><path d="M1098.683,420.249c.522-2.27-2.141-3.624-2.27-5.848-.076-1.044.409-2.27-.129-3.094-.817-1.286-3.291-.439-3.941-1.838-.25-.53-.121-1.21-.318-1.763a1.392,1.392,0,0,0-1.642-.84c-.477.129-.938.484-1.4.416-.6-.091-.825-.847-.756-1.513a6.052,6.052,0,0,0,.076-1.944,1.831,1.831,0,0,0-2.27-1.074c-2.375.59-3.457,2.481-6.445,3.692-1.657.673-4.342,2.02-5.243,3.465a9.184,9.184,0,0,0-.961,5.946c.265,1.279,1.513,3.094,1.513,4.433,0,.507-.272,2.481.227,2.557,1.642-2.67,4.3-1.43,3.851,1.581a4.283,4.283,0,0,1-1.127,2.345l.151.2a9.32,9.32,0,0,0,7.762,7.1,1.83,1.83,0,0,0,1.014-.136c1.581-.7.492-1.059,3.881-1.468a3.5,3.5,0,0,0,2.406-1.082,4.01,4.01,0,0,0,.477-2.837c2.315-1.468,1.384-1.982,1.929-3.737S1098.26,422.08,1098.683,420.249Z" transform="translate(-261.306 -98.012)" fill="#000543"/><path d="M1051.666,451.793H1028.35c-.59,0-1.21-.681-1.377-1.513l-3.987-19.707c-.166-.832.174-1.513.757-1.513h23.316c.59,0,1.2.681,1.377,1.513l4.017,19.707C1052.589,451.112,1052.248,451.793,1051.666,451.793Z" transform="translate(-249.058 -104.44)" fill="#000543"/><path d="M1024.753,485.329c2.012-7.126,4.849-16.379,5.916-23.369l-3.094.378c-2.375,5.3-8.276,20.653-10.326,29.5-.9,3.866-.537,6.657,1.324,7.815v.038a5.727,5.727,0,0,0,2.565-.968c2.95-2.012,7.626-5.379,15.372-11.045q1.468-1.067,2.9-2.141l-5.008-10.069C1031.214,478.755,1027.847,482.159,1024.753,485.329Z" transform="translate(-247.556 -112.451)" fill="#ffa27f"/><path d="M1055.754,460.237c-10.485,9.547-17.4,11.6-20.275,16.545-1.71,2.9,1.6,9.88,4.6,12.1a2.2,2.2,0,0,0,2.6-.114c1.029-.756,2.519-1.808,3.412-2.436a11.466,11.466,0,0,1,1.142-.757c5.477-3.7,10.871-7.565,16.447-11.121.212-.136.424-.28.62-.431,7.323-5.515.756-17.211-7.845-14.041Z" transform="translate(-251.996 -111.84)" fill="#7456f8"/><path d="M1033.685,457.808a6.877,6.877,0,0,0,.083-2.451.348.348,0,0,0-.673,0c-.159.424-.462,1.513-.893,1.611-.2,0-.28-.257-.28-.477,0-1.029,0-2.058.061-3.087,0-.658-.053-.855-.62-1.18a1.681,1.681,0,0,0-2.481.371,8.178,8.178,0,0,0-2.073,3.6c-.333,2.05,1.7,5.364,3.351,6.113.855.386,2.4.265,2.618-1.067A27.913,27.913,0,0,1,1033.685,457.808Z" transform="translate(-249.99 -109.986)" fill="#ffa27f"/></g></g><path d="M190.443,66.729c.073,1.532-.887,5.373,2.183,8.121.641.572,1.365,1.051,1.982,1.648a8.171,8.171,0,0,1,2.22,3.682s-1.635-1-2.33-1.346a2.147,2.147,0,0,0-2.25.138c-1.491,1.247-.291,3.971.466,5.248.917,1.542,2.138,2.938,2.686,4.649a6.116,6.116,0,0,1-3.085,7.274,10.946,10.946,0,0,1-5.03.511,13.723,13.723,0,0,0-3.24-.095,20,20,0,0,0-2.809,1.173c-1.56.591-3.391.925-4.832.086a5.538,5.538,0,0,1-1.573-1.516,16.143,16.143,0,0,1-2.625-5.186,8.267,8.267,0,0,0-1.128-2.834c-1.066-1.381-3.007-1.7-4.413-2.729a5.982,5.982,0,0,1-2.261-5.166,8.5,8.5,0,0,1,2.442-5.218c1.212-1.271,2.783-2.315,3.41-3.956.673-1.764.073-3.727.05-5.617a9.019,9.019,0,0,1,2.33-5.906,13.613,13.613,0,0,0,2.737-6.6c.516-2.7,1.169-5.66,3.382-7.285a1.1,1.1,0,0,1,.533-.244c.582-.052.882.669.992,1.242a52.111,52.111,0,0,1,.777,6.059c.121,1.8-.263,3.781.585,5.382.889,1.676,1.827,3.324,2.74,4.985.11.2,1.012,2.241,1.232,2.241,1.6-.214,2.86-.574,4.461-.749l.369,2" transform="translate(1052.215 454.718)" fill="#000543" fill-rule="evenodd"/></g></g></svg>