<?xml version="1.0" ?><svg data-name="Design Convert" id="Design_Convert" viewBox="0 0 64 64" xmlns="http://www.w3.org/2000/svg"><defs><style>.cls-1{fill:#010101;}</style></defs><title/><path className="cls-1" d="M50,33a1,1,0,0,1-1-1A17,17,0,0,0,20.24,19.72a1,1,0,0,1-1.38-1.44A19,19,0,0,1,51,32,1,1,0,0,1,50,33Z"/><path className="cls-1" d="M32,51A19,19,0,0,1,13,32a1,1,0,0,1,2,0A17,17,0,0,0,43.76,44.28a1,1,0,1,1,1.38,1.44A18.88,18.88,0,0,1,32,51Z"/><path className="cls-1" d="M8,42a.94.94,0,0,1-.55-.17,1,1,0,0,1-.28-1.38l6-9a1,1,0,0,1,1.49-.2l8,7a1,1,0,1,1-1.32,1.5L14.2,33.5l-5.37,8A1,1,0,0,1,8,42Z"/><path className="cls-1" d="M50,33a1,1,0,0,1-.66-.25l-8-7a1,1,0,0,1,1.32-1.5L49.8,30.5l5.37-8a1,1,0,1,1,1.66,1.1l-6,9a1,1,0,0,1-.7.44Z"/></svg>