<?xml version="1.0" encoding="UTF-8" standalone="no"?>
<!-- Uploaded to: SVG Repo, www.svgrepo.com, Generator: SVG Repo Mixer Tools -->
<svg width="800px" height="800px" viewBox="0 0 64 64" version="1.1" xmlns="http://www.w3.org/2000/svg" xmlns:xlink="http://www.w3.org/1999/xlink">
    
    <title>con-ruler-pencil</title>
    <desc>Created with Sketch.</desc>
    <defs>

</defs>
    <g id="64px-Line" stroke="none" stroke-width="1" fill="none" fill-rule="evenodd">
        <g id="con-ruler-pencil">

</g>
        <path d="M43,62 C43.428,62 43.809,61.727 43.947,61.321 L49.947,43.647 C49.982,43.543 50,43.435 50,43.326 L50,11 L50,6 C50,3.794 48.206,2 46,2 L40,2 C37.794,2 36,3.794 36,6 L36,11 L36,43.326 C36,43.435 36.018,43.544 36.053,43.647 L42.053,61.321 C42.191,61.727 42.572,62 43,62 L43,62 Z M38,12 L48,12 L48,40.586 L45,43.586 L41.707,40.293 C41.327,39.913 40.714,39.902 40.319,40.267 L38,42.421 L38,12 L38,12 Z M40.974,42.389 L44.293,45.707 C44.488,45.902 44.744,46 45,46 C45.256,46 45.512,45.902 45.707,45.707 L47.87,43.544 L44.32,54 L41.679,54 L38.513,44.674 L40.974,42.389 L40.974,42.389 Z M42.359,56 L43.642,56 L43,57.889 L42.359,56 L42.359,56 Z M40,4 L46,4 C47.103,4 48,4.897 48,6 L48,10 L38,10 L38,6 C38,4.897 38.897,4 40,4 L40,4 Z" id="Shape" fill="#3182CE">

</path>
        <path d="M42,37 L42,15 C42,14.448 41.552,14 41,14 C40.448,14 40,14.448 40,15 L40,37 C40,37.552 40.448,38 41,38 C41.552,38 42,37.552 42,37 L42,37 Z" id="Shape" fill="#3182CE">

</path>
        <path d="M27,62 C27.552,62 28,61.552 28,61 L28,3 C28,2.448 27.552,2 27,2 L13,2 C12.448,2 12,2.448 12,3 L12,61 C12,61.552 12.448,62 13,62 L27,62 L27,62 Z M14,4 L26,4 L26,10 L19,10 C18.448,10 18,10.448 18,11 C18,11.552 18.448,12 19,12 L26,12 L26,16 L23,16 C22.448,16 22,16.448 22,17 C22,17.552 22.448,18 23,18 L26,18 L26,22 L19,22 C18.448,22 18,22.448 18,23 C18,23.552 18.448,24 19,24 L26,24 L26,28 L23,28 C22.448,28 22,28.448 22,29 C22,29.552 22.448,30 23,30 L26,30 L26,34 L19,34 C18.448,34 18,34.448 18,35 C18,35.552 18.448,36 19,36 L26,36 L26,40 L23,40 C22.448,40 22,40.448 22,41 C22,41.552 22.448,42 23,42 L26,42 L26,46 L19,46 C18.448,46 18,46.448 18,47 C18,47.552 18.448,48 19,48 L26,48 L26,52 L21,52 C20.448,52 20,52.448 20,53 C20,53.552 20.448,54 21,54 L26,54 L26,60 L14,60 L14,4 L14,4 Z" id="Shape" fill="#D69E2E">

</path>
    </g>
</svg>