<svg id="c5413ef9-293e-4763-9345-e260992620fe" data-name="Layer 1" xmlns="http://www.w3.org/2000/svg" viewBox="0 0 300 300"><defs><style>.\35 70561d0-b03b-4317-a7bb-3e47867bdef3{fill:#fff;}.\33 02613a6-a8af-4252-9c0b-170a336faed1{fill:#52df84;}.e6572de4-13fa-418f-be96-af56a5fb0592{fill:#e6e6e6;}</style></defs><g id="93ac18cc-3aec-462b-a01a-0e959fdefa5a" data-name="Form 44"><path d="M299.92,10.15a3.64,3.64,0,0,1-.92,4.08,3.23,3.23,0,0,0-1.28-.76,4.53,4.53,0,0,1,.15-2.46,1.51,1.51,0,0,1,2.05-.81"/></g><path class="570561d0-b03b-4317-a7bb-3e47867bdef3" d="M218.42,203.54c.52-4.81,1-9.63,1.37-14.45a174.91,174.91,0,0,1-1.63-19.54c-.13-9.27-.09-18.54,0-27.81-.37-4.45-.7-8.91-.94-13.37-.52-9.86-.65-19.71-.2-29.52a75.62,75.62,0,0,0-3.27-13.1c-1.1-3.1-2.27-6.19-4.56-8.63a14.8,14.8,0,0,0-11.1-4.2c-10.09.23-20.23,1.27-30.3,1.91l-30.38,1.92L73.06,80.82a9.8,9.8,0,0,0-8.08-1c-5.42,1.75-9.24,7.45-7.49,13.2a89.63,89.63,0,0,1,2.65,11.65c0,.09,0,.18,0,.27.11,1,.21,2,.3,3,.21,2.39.35,4.78.44,7.17a205,205,0,0,1-1.12,24.77c-1.54,16.39-3.94,32.85-2.74,49.34.22,3.06.61,6.09,1,9.13.16,1.18.33,2.37.51,3.55.07.51.14,1,.22,1.52,0,.26.07.48.09.64l-.45,15.64c-.16,5.35,4.2,9.86,9.3,10.55a11,11,0,0,0,9.24-3.2l.33,0,6.42.15q2.42.66,4.88,1.17a108.91,108.91,0,0,0,15,2,160.86,160.86,0,0,0,24-.64l4.87.57.54.07.58.09,3,.44c4,.62,7.9,1.33,11.81,2.17,8.07,1.73,15.77,4.51,23.73,6.56s16,1.91,22.87-2.12c1.4,4.41,5,8.62,10.14,8a20.73,20.73,0,0,0,10.71-4.3C215.69,228.57,217.08,216.05,218.42,203.54ZM109.14,186s0-.42,0-.89C109.33,185.45,109.43,185.91,109.14,186Zm55.78-8.69-.38,0c.22-.33.42-.66.61-1h0c0,.31.08.61.11.92Z"/><path d="M221.14,143.12c-.35-9.47-2.06-18.66-3.54-28-.13-2.67-.28-5.34-.43-8q-.21-3.57-.43-7.14c1.37-9.51,3.57-19.79-2-28.28a2.78,2.78,0,0,0-.26-.32,9.65,9.65,0,0,0-.73-1.88,6,6,0,0,0-1.2-1.59,1.7,1.7,0,0,0-1.83-1.6l-1.55.18a5,5,0,0,0-1.32.15q-18.6,2.13-37.27,3.55l-55,2.61q-12.36.24-24.73.16c-10.17-.07-20.83-1-30.58,2.51A2,2,0,0,0,59,77.12c-3.39.45-5.07,2.24-4.75,6.06.41,4.95.84,9.9,1.16,14.86,1.3,19.68,1.64,39.43,1,59.14,0,1-.07,2-.11,3a1.84,1.84,0,0,0-.27,1.06c0,1.32,0,2.63.07,3.95q-1.34,29.7-5.58,59.18c-.35,2.4,3.32,3.43,3.67,1,.05-.32.09-.64.14-1a9,9,0,0,0,2.37,1.91,1.87,1.87,0,0,0,2.06-.12,1.64,1.64,0,0,0,1.79-1.36C65,204.63,61.78,183.39,60,163q1.1-26.16-.08-52.37-.32-7-.79-13.95-.24-3.5-.52-7c-.18-2.26-.94-5.11-.62-7.33.25-1.77,1.37-1.48,2.81-1.56l3.31-.2,7.55-.44L86.3,79.3l58-3.37c21.45-1.25,42.95-3,64.44-2.5,1.47,15.78,2.34,31.58,2.76,47.4,0,3.77.07,7.54.23,11.31.34,23.94-.24,47.9-1.13,71.82q-.48,12.78-1.06,25.55c-.35,4-.56,8-.53,12a1.77,1.77,0,0,0,.57,1.35,3.18,3.18,0,0,0,1,1.27c.82.66,2,.68,2.8,1.34a1.91,1.91,0,0,0,.92.44,1.88,1.88,0,0,0,3.45-1l.06-.89a1.72,1.72,0,0,0,.61-1.38c-.09-1.1-.21-2.2-.35-3.3,1.2-20.88,2.35-41.76,2.89-62.67C221.26,165.53,221.55,154.3,221.14,143.12ZM56,214.79c0,1.37-.07,2.74-.1,4.11A12.61,12.61,0,0,1,56,214.79Z"/><path d="M101.31,102q-9.44,1-18.88,1.92c-2.16-.06-4.32-.17-6.48-.29a1.82,1.82,0,0,0-1.85,1l-1.71.16c-2.73.24-2.76,4.53,0,4.29q5.06-.45,10.1-.93c6.54.17,13.06-.12,19.39-2C104.1,105.52,103.81,101.69,101.31,102Z"/><path d="M102.4,110.45a113.67,113.67,0,0,1-14.05,1.9,86.18,86.18,0,0,0-9.92.28l-.07,0c-1.17,0-2.34-.05-3.51-.1-2.77-.12-2.76,4.17,0,4.29,1,0,2,.07,3.06.09h.17c3.56.06,7.11-.05,10.66-.31,5,0,10-.12,14.8-2A2.15,2.15,0,0,0,102.4,110.45Z"/><path d="M95.15,120.83a144.82,144.82,0,0,1-18.51.83,1.94,1.94,0,0,0-1.59.69l-.55,0c-2.76-.14-2.75,4.15,0,4.3A85.38,85.38,0,0,0,95.72,125C98.06,124.57,97.57,120.56,95.15,120.83Z"/><path d="M138.18,156.43c-3.76-.43-7.31-2.34-11.06-2.47s-8,1-11.65,2c-.31.08-1.12.18-1.68.35l-.18-.35a3.57,3.57,0,0,0-2.48-2c-2.93-.72-6.79,1.18-9.63,2.08a2.14,2.14,0,0,0-2.58-.36c-.58.3-2.79,1.72-2.31,2.55-.44-.62-.53-2.06-1.15-2.68a3.47,3.47,0,0,0-3.2-.83,8,8,0,0,0-2.4,1.63,4.59,4.59,0,0,0-1.4-1.84,2.19,2.19,0,0,0-3.59.95c-.15.38-.29.75-.42,1.13a5.45,5.45,0,0,0-.89-.2c-2.5-.31-4.44,1.3-5.73,3.27-1.51,2.32,2.2,4.47,3.71,2.17.28-.78.84-1,1.66-.65-.25,2.42,3.67,2.9,4.22.57.06-.27.13-.53.2-.8a2.52,2.52,0,0,0,1.66.55,4.11,4.11,0,0,0,2.47-.88,5.8,5.8,0,0,0,.91-.74,4,4,0,0,0,2.92,2.62c2,.33,3-1,4.14-2.08a2.5,2.5,0,0,0,1.53-.08,2,2,0,0,0,1,0l5.82-1.71,1.6-.58s.19.59.34,1c1.24,3,4.23,1.73,6.57,1.09,3.4-.93,7.55-2.21,11.08-1.74a41.23,41.23,0,0,1,5,1.43,39.72,39.72,0,0,0,5.53,1C140.92,161,140.9,156.74,138.18,156.43Z"/><path d="M190.62,171.17c-4.66.87-9.43.74-14.15.8l-14.23.18c-9.17.11-18.35.21-27.52.36-18.79.28-37.59.84-56.3,2.74-2.72.28-2.75,4.57,0,4.29,19.06-1.94,38.22-2.47,57.37-2.76,9.52-.14,19-.24,28.56-.36,9-.12,18.49.54,27.41-1.1C194.48,174.81,193.33,170.68,190.62,171.17Z"/><path d="M190.17,183.63c-18.22,3.21-36.69-.2-55,.33a105.47,105.47,0,0,0-13,1.17c-4.1.64-8.26,1.63-12.45,1.24s-7.39-3.51-11.6-4.08-8.39,1-12.26,2.52c-2.53,1-1.42,5.18,1.14,4.14,4.45-1.8,9.21-3.68,13.79-1.29,3.37,1.76,6.38,3,10.26,3.08,4.12.09,8.21-.84,12.27-1.47a102.33,102.33,0,0,1,13.88-1.06c18.1-.26,36.18,2.72,54.17-.44C194,187.29,192.88,183.15,190.17,183.63Z"/><path d="M184,198.19c-16.75-4.81-33.82,1.12-50.78.51-16.23-.59-33.36-5.19-48.42,3.28-2.41,1.35-.25,5.06,2.17,3.7,14.52-8.17,31.65-3,47.27-2.66,16.19.38,32.66-5.27,48.62-.69C185.47,203.09,186.61,199,184,198.19Z"/><path d="M184.87,218c-3,2.11-6.5,2-10,1.67-3.69-.35-7.31-.8-11-.82-8.56-.05-17.14.41-25.69.64L86,220.9c-2.76.08-2.77,4.37,0,4.3l54.29-1.52c8.67-.24,17.42-.85,26.09-.54,6.81.25,14.61,2.79,20.7-1.49C189.28,220.08,187.14,216.35,184.87,218Z"/><path d="M176.92,230.64c-14.92,3-30.12.5-45.1-.74a186.64,186.64,0,0,0-45.35,1.82c-2.72.44-1.56,4.58,1.14,4.14a185.07,185.07,0,0,1,46.25-1.49c14.74,1.31,29.53,3.4,44.2.41C180.77,234.23,179.62,230.09,176.92,230.64Z"/><path d="M256.36,121.27c-2-3.79-2.68-8.67-.35-12.34s8.21-4.83,11.12-1.63"/><path class="570561d0-b03b-4317-a7bb-3e47867bdef3" d="M247.63,152.68c-4.17-5-9.77-7.92-15.8-9.76l.22-.52a15.27,15.27,0,0,0-2.27-14.07c-5.19-7.2-12.79-8.56-20.44-7.27a26.05,26.05,0,0,0-6.44-11.87,23.77,23.77,0,0,0-4.87-3.9,21.11,21.11,0,0,0-2.12-1.08c-.24-.11-1.19-.58-1.74-.81,0-.09,0-.18-.07-.3a18.42,18.42,0,0,0-1.13-3,20.11,20.11,0,0,0-3.61-5.57c-5.41-6-14.18-8.37-22-6.73a20.08,20.08,0,0,0-15.2,16,24.44,24.44,0,0,0,2.39,15.62,15.13,15.13,0,0,0-2.39,5.15c-1.55,6.11,1,12.75,5.85,16.68A19,19,0,0,0,173.21,145c.23.43.46.87.71,1.29l.06.09c-4.66,1.28-9.38,2.28-13.59,4.8a33.45,33.45,0,0,0-10.22,9.88,34.56,34.56,0,0,0-5.36,12.86,5.85,5.85,0,0,0-1.13.34C135,177.83,127.83,184,124,192.74a39.74,39.74,0,0,0-3.15,14.32c0,.11,0,.23,0,.34-4.82,1.11-9,4.07-10.18,9.64a8.09,8.09,0,0,0,3.62,8.87,13.24,13.24,0,0,0,6.49,1.76,8,8,0,0,0,6.15,1,37.83,37.83,0,0,1,10.31-1.75,17.24,17.24,0,0,1,7.7,2.25c6.3,3.09,12.69,6.53,20,5.94,13.84-1.11,25.49-12.77,25.69-26.82,0-2.44-1.38-5.5-3.67-6.67a18,18,0,0,0,2.42-7l.48-3.37a52.56,52.56,0,0,0,38.38,5.46c9-2.27,18-7.7,22.33-16.23C255.21,171.15,254.34,160.76,247.63,152.68Z"/><path class="302613a6-a8af-4252-9c0b-170a336faed1" d="M239.57,149.42a73.48,73.48,0,0,0-24.46-2.69c-4,.25-8.13.51-11.5,2.8-3.1,2.11-4.53,5.06-7.32,6.28.78-.34-2.15.38-1.94.45a10.34,10.34,0,0,0-1.51.06c-.66-.11-1.3-.33-1.94-.5a18.27,18.27,0,0,0-11.19.34,7.69,7.69,0,0,0-1-3.36c-2.3-3.93-6.89-4.64-10.75-2.82-.83.39-1.64.84-2.44,1.3-6.79.5-13,6.48-15.21,12.9a20.66,20.66,0,0,0-.41,11.59,10.92,10.92,0,0,0,.57,2.12c0,.11.09.23.14.34a42.46,42.46,0,0,0,5.79,10.91c1,1.34,1.92,2.65,2.91,3.94.13.76.29,1.53.49,2.28a7.14,7.14,0,0,0,6.28,5.49,40.46,40.46,0,0,0,8.92,6.66,57.42,57.42,0,0,0,11.68-4.91,2.79,2.79,0,0,1,2.22-.26,4.51,4.51,0,0,0,.09-.53c0-.16,0-.31,0-.47a9.55,9.55,0,0,0,.21-5.19,12.56,12.56,0,0,0-3.68-6.25l-.17.19a2.76,2.76,0,0,1,.34,1.32,3,3,0,0,1-2.91,2.91,8.1,8.1,0,0,1-9.09-7.57,7.35,7.35,0,0,1,7.57-8.14,3,3,0,0,1,2.91,2.91c.1.93.05,1.86.08,2.79a89.85,89.85,0,0,0,12.94,10.23c7.85,4.77,16.54,3.15,24.69.17A99.58,99.58,0,0,0,243.21,184c6.58-4.44,14.07-10.13,13.87-19C256.86,155.49,247.37,151.63,239.57,149.42Z"/><path class="e6572de4-13fa-418f-be96-af56a5fb0592" d="M191.83,209.43c-2.4-3.73-6-7-10.43-8a20.55,20.55,0,0,0-9.89,0l-.48-.3-.06,0-.5-.42c-.46-.42-.92-.86-1.36-1.3-1-1-4-4.76-.67-.38-1.84-2.4-3.59-4.7-6.26-6.26a17.3,17.3,0,0,0-11.13-2.08,16.62,16.62,0,0,0-8.26,3.44c-2.4,1.86-5,4.76-6,7.86-3.44,2.19-6.64,6.15-7.54,10.13-1,4.47-.8,9.49,1.76,13.45s6,6.26,10.43,8a23.27,23.27,0,0,0,16.55.3c8.52,3.91,19.64,5.55,27.56-.53,3.77-2.9,6.71-5.65,8-10.44C194.74,218.7,194.22,213.14,191.83,209.43Z"/><path d="M189.27,132.85c1.16-1.4,3.37-1.4,5.06-.82,1.22.41,2.44,1.46,2.21,2.68s-1.69,2-1.11,3a5,5,0,0,1-5.23,0,3.53,3.53,0,0,1-.93-4.88"/><path d="M229,114.69a4,4,0,0,1,.76,3c-.23,1-1.69,1.69-2.33.87a18.71,18.71,0,0,1-7.22-13.79c1.58-1.34,3.73.81,4.78,2.62l4,7.33"/><path d="M268,124.29a22.74,22.74,0,0,0-10.82,13.21c-1.05,3.32-4.48,5.41-8,5.94s-6.92-.35-10.3-1.17c-2.15-.52-4.24-1-6.4-1.51a2.15,2.15,0,0,1,0-2.91,4.33,4.33,0,0,1,3-1.22c3.9-.23,7.57,2.38,11.52,2.21,4.89-.17,9-5.35,8-10.18a5.39,5.39,0,0,1,5.35-3.32c.29-.7.58-1.4.81-2.15-1.57-.64-3.14-1.28-4.77-1.92"/><path d="M157.78,239.39a13.41,13.41,0,0,1-3.37,9.08,15.78,15.78,0,0,0-5.35-12.33,4.5,4.5,0,0,0-1.57,4.83c.69,2-3.15,2.79-4.25,1s-.41-4.14-.06-6.23.12-4.83-1.92-5.53c-3.09-1.16-4.83,3.67-4.31,7s.76,7.86-2.44,8.62A36.3,36.3,0,0,1,132,232.88c-2.74-2.45-6.93-1.22-10.59-1.34a13.36,13.36,0,0,1-3.9-26c2.5-.88,3-4.08,3.37-6.64a32,32,0,0,1,22.81-25.66c2.91-.81,3.09-4.77,3.61-7.74,1.69-10.12,12.51-15.59,22-19.55.64-3,1.22-6.34.06-9.2s-5.07-4.83-7.57-3c-1.92,1.34-2.27,4.19-4.19,5.47a23.74,23.74,0,0,0,7.16,3.55c0,2.27-3.2,2.91-5.35,2.27s-4.48-2-6.52-1a62.18,62.18,0,0,1-18,5.35c-5.3.76-12.05-.06-13.91-5.06-1.22-3.32.35-6.93,1.92-10.07.76-1.63,1.69-3.43,3.38-4.19,2.21-1.1,5,.12,6.51,2.1s2,4.54,2.5,7c-.58,1.05-2.21.76-3.14,0s-1.45-2-2.5-2.5c-2.85-1.51-5.64,3.26-3.78,5.88s5.58,3,8.78,2.56c4.83-.59,9.43-2.22,14-3.84,1-.35,2.33-1.46,1.63-2.33-5.53-6.52-2.73-18.16,5.18-21.47-5.88-1.4-6.58-9.37-5.65-15.31.76-4.54,1.87-9.25,5.07-12.51,4.48-4.6,11.69-4.89,18.09-4.31,8.15.76,17.58,3.44,20.49,11.12,1.8,4.89,7.1,7.39,11.46,10.24s8.73,7.86,7,12.8c6-2.73,13.56.58,16.94,6.23s3,13,.4,19c5,1.51,10,3,15,4.48a20.24,20.24,0,0,1,7,3c4,3.09,5.07,8.67,4.54,13.62-1.05,9.95-7.56,18.56-15.36,24.79-12.05,9.6-29.56,14.43-43,6.81-1.74-1-3.49-2.21-5.47-2s-3.84,2.5-2.62,4.08c3.44,1.45,5.42,5.29,5.71,9s-.82,7.39-1.86,10.94c-1.4,4.88-3,10-6.75,13.38-2.68,2.5-6.17,3.78-9.66,4.83-6.17,1.74-12.63,2.68-19,1.74m24.15-83.27c-3.14-2.56-5.35-7.21-9.42-7.15a10,10,0,0,0-3.79,1.16c-7.09,3.37-14.95,7.56-17.22,15.13s1.86,15.3,6.11,21.94c2.91,4.48,6,9.07,10.36,12.16s10.41,4.36,15.19,1.92,7-9.43,3.6-13.56c-3-3.61-5.81-7.33-8.43-11.23l-.88,5.41c-.46,3.09-.87,6.52.88,9.14s6.63,2.85,7.5-.18c.24,1.11.47,2.16.7,3.26-1.92,4.72-9.66,3.55-12.16-.87s-1.4-9.95-.23-14.9c1-4.25,2.15-8.79,5.23-11.87s8.91-4,11.7-.64c-3.55.35-8,1.46-8.61,4.95a6.74,6.74,0,0,0,.35,3.37c3.72,12.92,17.22,21.77,30.66,21.71s26.13-8,33.58-19.26c4.37-6.52,6.52-16.53.29-21.36a18.82,18.82,0,0,0-6.05-2.68c-8.5-2.62-17.52-5.29-26.13-3-2.15.52-5.24.93-5.88-1.23.7-3.25,5.36-2.9,8.68-3.31a10.68,10.68,0,0,0,.69-21.13c-3-.58-7,1.17-6.86,4.25A32.88,32.88,0,0,1,203,151.82c-5.35,5.82-15,9.37-21.07,4.3m-34.91,74c3.32,4,9.25,4.19,14.49,4.14,6-.12,12.22-.24,17.57-2.91s9.66-8.56,8.38-14.44a3.9,3.9,0,0,1-4.89-3.66c2.62.7,5.71.12,7.39-2s1.23-5.82-1.22-6.92c-3.2-1.46-6.4,1.86-9.66,3.25s-7.33.64-10.47-1.22-5.59-4.6-7.86-7.45a114.88,114.88,0,0,1-11.93-18.68c-1.86-3.6-7.33-2.38-10.65-.11a36.36,36.36,0,0,0-12.74,15.48c-.93,2.15-1.57,5,.12,6.69,1.16,1.16,3,1.28,4.54,1.69s3.25,1.8,2.91,3.37c-.53,2.39-4,1.69-6.41,1.17a11.84,11.84,0,0,0-12.91,6.4c-1.34,3-1.17,7,1.45,8.84a10.25,10.25,0,0,0,4.71,1.46c6.58.87,13.56,1.74,19.61-.88,3.21-1.39,5.36,3.09,7.57,5.76m35.21-80.53c1.51,1.68,3.14,3.43,5.29,4.13,4.13,1.28,8.32-1.75,11.46-4.66a27.67,27.67,0,0,0,6-7c1.74-3.2,2.27-6.92,2.73-10.59.47-4.07.7-8.79-2.21-11.7-2.33-2.38-6.05-2.79-9.37-2.67a46.23,46.23,0,0,0-11,1.8,22.91,22.91,0,0,0-4.72,1.92,15.11,15.11,0,0,0-7.33,10.42,15,15,0,0,0,3.49,12.28c.29.29.58.58.93.87l4.72,5.24m-28.34-46.32c-.41,2.32-.82,4.83-.06,7s3.08,4.13,5.35,3.61c4.37-1.11,9.72,1.39,13.15-1.52a41.45,41.45,0,0,1,19.9-9.6,27.32,27.32,0,0,0-4.77-7.45c-4.48-4.54-11.4-5.53-17.8-5.58-4-.06-8.44.29-11.47,3.08-2.79,2.56-3.61,6.63-4.3,10.42M152,126.85c-1.63,4.37.05,10.36,4.59,11.58a8.49,8.49,0,0,1,10.77-10.24,4.12,4.12,0,0,0,1.34,3.9c.75-4.6,2-10,6.28-11.87,4.6-2,8.85-4.72,13.56-6.4s10.18-2.16,14.55.17a3.83,3.83,0,0,0,2.15.76c.76,0,1.57-.82,1.22-1.51a1.83,1.83,0,0,0-.35-.41c-3.78-4-9.13-7.45-14.37-5.88l-15.89,8.38a30.53,30.53,0,0,1-4.42,2c-3.72,1.16-7.85.64-11.52,1.86a12.79,12.79,0,0,0-7.91,7.62"/><path d="M215.09,134.79c0,.56.08,1.12.1,1.68,0,.31,0,.63,0,.94v.15c0-.15,0-.14,0,0l0,.12a.87.87,0,0,1,.4-.54l1.82.24c-.24-.3,0-.16-.07-.1s-.1.28-.11.25.05-.05.19,0,.23,0,.05,0c-.63-.31-.88-.72-.75-1.22.08.14-.15.39-.31.66a3.69,3.69,0,0,0-.52.83c0,.25-.07.1.48.11a.47.47,0,0,1,.57.08c-.11-.12-.13-.13-.05,0a2.84,2.84,0,0,1-.34-.88c.06.32,0-.42,0-.43s-.13.27-.13.28c-.08-.2,1-.63,1.19-.62,1.93.12,1.92-2.88,0-3a4.57,4.57,0,0,0-3.65,1.92,3.72,3.72,0,0,0-.23,3,3.46,3.46,0,0,0,2.06,2.52c1.25.38,2.14-.52,2.74-1.49a7.57,7.57,0,0,0,1.07-2.1,2,2,0,0,0-1.87-2.56,3.21,3.21,0,0,0-3,1.42,3.08,3.08,0,0,0,.59,3.56,1.51,1.51,0,0,0,1.82.23c1.67-.9,1.08-3.43,1.05-5,0-1.92-3-1.93-3,0Z"/></svg>