<svg xmlns="http://www.w3.org/2000/svg" viewBox="20 0 300 300"><defs><style>.bd4f76ea-5659-487f-bcdd-cf6532553526{isolation:isolate;}.c7fad636-4fb9-407a-8b63-8edda3a0f909{fill:#fff;}.\38 259ef7b-0be7-4019-bdb2-90305bba7fc0{fill:#52df84;}.\32 1a21b91-9aa6-41ad-93db-d565ddf7ad45,.\34 a4db907-8c02-40e8-b80d-d30fd6b2a85f{fill:#e6e6e6;}.a25d0814-212e-49ae-ac93-824d4c6ecc05{fill:#8b898a;}.\32 1a21b91-9aa6-41ad-93db-d565ddf7ad45{mix-blend-mode:multiply;}</style></defs><g class="bd4f76ea-5659-487f-bcdd-cf6532553526"><g id="4d481098-c588-4898-8332-88a53b3649a4" data-name="Layer 1"><path class="c7fad636-4fb9-407a-8b63-8edda3a0f909" d="M246.71,176.51a29.51,29.51,0,0,0-4-5.5c-.36-.43-.73-.85-1.09-1.27l-.15-.18c-.16-.24-.75-1-.76-1-.32-.5-.54-1.06-.87-1.54l-.05-.08c-.17-.49-.35-1-.51-1.48-.28-.91-.51-1.83-.72-2.76-.46-2.11-.77-4.25-1.1-6.38-.73-4.81-1.54-9.61-2.46-14.39q-2.67-14-6.4-27.67-4.26-15.66-9.88-30.91c-.93-2.54-1.9-5.07-2.89-7.58-1.45-3.69-2.68-7.34-6.28-9.51-3.22-1.94-6.77-1.56-10.26-.83a24.38,24.38,0,0,0-14.17-12.9c-9.91-3.34-20.87,1.62-26.37,10.11A20.61,20.61,0,0,0,156,69c-.16.71-.27,1.44-.41,2.16-.6.31-1.25.69-1.43.78a22.29,22.29,0,0,0-3.14,2.14,32.27,32.27,0,0,0-5.22,5c-.82,1-1.61,2-2.39,3-.41.52-.81,1.06-1.22,1.58l-.17.22c-1.33,1.69-2.69,3.35-4.13,4.94-.54.6-1.1,1.19-1.66,1.77a166.24,166.24,0,0,0-25.78,8.41,16.65,16.65,0,0,0-6.63,2.92,11,11,0,0,0-4,5.76,7.49,7.49,0,0,0-1.64.34c-4.18,1.35-7.62,6-6,10.59,8.79,24.86,9.33,51.58,15.89,77,3.33,12.87,7.83,25.39,12.4,37.86,2.13,5.8,4.19,12.17,8.85,16.5a17.94,17.94,0,0,0,8.08,4.49c4.46,1,8.7,0,12.89-1.52l27.57-9.9c2.41,4.58,7.63,7.13,12.62,7.94a23.51,23.51,0,0,0,25.76-13.34,28.54,28.54,0,0,0,1.57-4.3c9.21-.82,16.91-6.46,22.15-14s6.88-16.82,8.09-25.67C248.84,187.77,249.56,182.16,246.71,176.51ZM120.53,116l-.4-.35h.6C120.66,115.71,120.59,115.83,120.53,116Zm56.16,87.49.47-.41.18-.15.2.18Z"/><path class="8259ef7b-0be7-4019-bdb2-90305bba7fc0" d="M183.93,168.26a5.82,5.82,0,0,0-4.17-4.83,36.07,36.07,0,0,0-17.4-.14,5.79,5.79,0,0,0-.63.19,5.93,5.93,0,0,0-7.73,2.18c-1.49,2.54-.76,6.58,2.08,8a29.52,29.52,0,0,0,25.07.44C183.22,173.17,184.23,170.27,183.93,168.26Z"/><path class="4a4db907-8c02-40e8-b80d-d30fd6b2a85f" d="M260.31,170.31c-3.45-5.8-11.77-8.43-17.67-4.63s-8.33,11.45-4.63,17.67c.31.52.6,1.05.88,1.59a26.26,26.26,0,0,1,.79,2.89,25,25,0,0,1,0,3c-.1.51-.22,1-.36,1.51-1.74,6.52,2.19,14.33,9,15.89s14-2,15.89-9A37.67,37.67,0,0,0,260.31,170.31Z"/><path class="4a4db907-8c02-40e8-b80d-d30fd6b2a85f" d="M229,236.46a13.2,13.2,0,0,0-15.89-9l-29.28,6.85c-6.58,1.54-11.11,9.43-9,15.88a13.19,13.19,0,0,0,15.89,9l29.28-6.84C226.52,250.81,231,242.92,229,236.46Z"/><path class="4a4db907-8c02-40e8-b80d-d30fd6b2a85f" d="M213.17,110.14a27.14,27.14,0,0,0-8.5-6,159.07,159.07,0,0,0-20-8c-6.44-2-14.38,2.41-15.89,9a13.21,13.21,0,0,0,9,15.89q5.23,1.66,10.32,3.74c1.65.72,3.3,1.47,4.91,2.29a11.92,11.92,0,0,0,8.74,8.75c6.43,1.46,14.44-1.94,15.88-9A18.33,18.33,0,0,0,213.17,110.14Z"/><path class="a25d0814-212e-49ae-ac93-824d4c6ecc05" d="M169,239.74c-9,4.68-18.35,9.59-28.67,10-5.24.22-5.27,8.4,0,8.18,11.85-.51,22.47-5.77,32.79-11.15C177.78,244.36,173.65,237.3,169,239.74Z"/><path class="a25d0814-212e-49ae-ac93-824d4c6ecc05" d="M238.27,218.11a30.82,30.82,0,0,1-10,4.21c-5.13,1.19-3,9.07,2.17,7.89a37.66,37.66,0,0,0,11.91-5C246.81,222.33,242.72,215.25,238.27,218.11Z"/><path class="a25d0814-212e-49ae-ac93-824d4c6ecc05" d="M151.81,242.43l-7.54-22c-1.7-4.95-9.61-2.83-7.89,2.17q3.76,11,7.54,22C145.62,249.56,153.53,247.43,151.81,242.43Z"/><path class="a25d0814-212e-49ae-ac93-824d4c6ecc05" d="M117.56,123.29a87.46,87.46,0,0,0-4.89-17.89,4.21,4.21,0,0,0-5-2.85c-2,.53-3.67,3-2.86,5a87.22,87.22,0,0,1,4.9,17.88c.35,2.19,3.06,3.4,5,2.86C117,127.68,117.92,125.48,117.56,123.29Z"/><path class="a25d0814-212e-49ae-ac93-824d4c6ecc05" d="M213,165.7a4.16,4.16,0,0,0-5.59-1.46c-7.87,3.89-14.12,10.28-22,14.21-6.55,3.27-13.93,5.63-19,11.19a38.76,38.76,0,0,0-3.23,4.42l-.13.2c-.13-.12-.24-.22-.31-.3a89.39,89.39,0,0,1-8.09-10.5A107.82,107.82,0,0,1,143.26,160c-3.32-9.32-6.41-18.95-12.34-27a4.22,4.22,0,0,0-5.6-1.46c-1.75,1-2.78,3.8-1.47,5.59,5.47,7.43,8.34,16.12,11.4,24.71a118.3,118.3,0,0,0,12.37,25.78,108.26,108.26,0,0,0,8.86,11.59c1.4,1.58,2.9,3.27,5.05,3.78a7.17,7.17,0,0,0,6.71-2.11c1.37-1.36,2.15-3.13,3.31-4.63a16.42,16.42,0,0,1,3.67-3.44,65.36,65.36,0,0,1,10.4-5.41A70.85,70.85,0,0,0,198,180.32c4.42-3.18,8.67-6.6,13.58-9A4.13,4.13,0,0,0,213,165.7Z"/><path class="a25d0814-212e-49ae-ac93-824d4c6ecc05" d="M177.07,102.08a71.54,71.54,0,0,0-15.47-5.9c-5.11-1.28-7.29,6.61-2.18,7.89a62.06,62.06,0,0,1,13.52,5.07C177.61,111.55,181.75,104.5,177.07,102.08Z"/><path class="a25d0814-212e-49ae-ac93-824d4c6ecc05" d="M200.41,111a4.46,4.46,0,0,0-2.36-1.11l-.18-.07-.23-.08-.07,0,0,0,0,0v0c-.26-.17-.33-.36,0,0-.13-.14-.28-.29-.41-.41s-.31-.7,0,0h0c0,.07.06.14.09.23l-.09-.24-.08-.06.07.06a4.22,4.22,0,0,0-1.78-2.2,4.17,4.17,0,0,0-3.15-.42c-1.92.63-3.69,2.9-2.85,5a9.47,9.47,0,0,0,2.83,4.17,10,10,0,0,0,5.43,2.2,4,4,0,0,0,2.89-1.19,4.09,4.09,0,0,0,0-5.79Z"/><path class="a25d0814-212e-49ae-ac93-824d4c6ecc05" d="M197.51,109.66h0Z"/><polygon class="a25d0814-212e-49ae-ac93-824d4c6ecc05" points="197.05 109.22 197.04 109.21 197.04 109.21 197.05 109.22"/><g id="f655e66b-5ea2-4a7a-b52a-a4f610768ffa" data-name="pdf24_13"><path d="M216.77,155c.3-.68,1.46-.12,1.38.56a2.84,2.84,0,0,1-3,.35,3.5,3.5,0,0,1,1.5-1.08"/><path d="M189.39,142.13a3.77,3.77,0,0,1,1.34,3.79c-.22,1-.82,1.76-1.08,2.71-1.29,1-3.27-.39-3.53-2s.56-3.18,1.21-4.69c.69.08,1.38.13,2.06.17"/><path d="M154,137.61c1.46,1.21.73,3.57-.09,5.3-2,1.55-5.47-.18-5.47-2.72S152,136,154,137.61"/><path d="M216.77,232.1c-.64,1.93-2.84,2.75-4.78,3.31-9.73,2.8-19.45,5.64-29.18,8.44-1.68.51-3.53,1-5.12.34-.09-1.46,1.63-2.28,3.05-2.71q15.82-4.71,31.77-9a8.06,8.06,0,0,1,4.26-.38"/><path d="M228.39,153.32c.91,1.72-1,3.58-2.67,4.65q-30.15,18.79-60.3,37.62c-1.21.74-3.19,1.3-3.7,0,5.81-6.15,13.17-10.55,20.44-14.85l46.23-27.38"/><path d="M152.76,173.25a88.21,88.21,0,0,0,5.9,9c1.42,1.76,3,3.48,3.79,5.59s.47,4.87-1.38,6.16q-20.28-33.26-38.57-67.63c-1-1.81-1.89-4-.77-5.72q15.36,26.4,31,52.64"/><path d="M168,172.82c-2.28,1.47-4.82,3.79-4.05,6.37.35,1.21-1.89.78-2.58-.3-5.77-8.61-11.54-17.17-17.26-25.78-7.32-10.94-14.68-21.91-20.24-33.88a440.89,440.89,0,0,1,65.52-37.45c1,1.42-.82,3.1-2.37,3.87q-19.36,9.5-38.74,19c-1.89.95-4.13,2.5-3.7,4.56Q168.36,99,191.33,87c.73,7.23,4.22,13.81,7.62,20.23q9,16.92,18.12,33.87c-14,13.65-32.63,21.27-49.11,31.77m5-13.69c-1.12-2.23,0-4.9.82-7.27,3.1-8.27,3.61-17.74.08-25.83s-11.53-14.46-20.36-14.72c-7.62-.26-14.68,3.7-21,8a5,5,0,0,0-2.24,2.59,4.64,4.64,0,0,0,.78,3.14,243.45,243.45,0,0,0,21.35,34.22c1.12,1.51,2.84,3.23,4.65,2.58a26.12,26.12,0,0,1,18.51.43c2.06.86,4.43-.3,6.37-1.46Q194.73,153.29,207,145a2.29,2.29,0,0,0,1.29-1.63c.31-6.5-4.3-12.7-10.37-15.15s-13.13-1.51-18.85,1.59A35.82,35.82,0,0,1,173,159.13m3.79-35.51c.69,2,1.38,4.39,3.36,5-.09-2.92,3.22-4.73,6.11-5.2a22.13,22.13,0,0,1,17.09,4.52c1.5,1.24,3,2.75,5,2.88a35.07,35.07,0,0,0-15.62-18.73,6.55,6.55,0,0,1,2.92-3,142.89,142.89,0,0,0-7.44-15.49c-.22-.39-.48-.82-.91-.91a1.71,1.71,0,0,0-1.07.26c-6.55,3.23-13.13,6.42-19.72,9.64a12,12,0,0,1,5.9,5,54.29,54.29,0,0,1-10.81-1.9,14.81,14.81,0,0,0-6.84,2.11c1.76,1.51,4.3,1.68,6.63,2.16a21.21,21.21,0,0,1,15.41,13.64m-3.53,42.7c.08-.51.17-1,.26-1.59a29.17,29.17,0,0,0-14.64-.3c-1,.21-2.06.9-1.76,1.81,1.2,1.85,2.41,3.66,3.61,5.51.52.77,1.51,1.59,2.15.94a27,27,0,0,1,10.38-6.37m40.16-25.83a2.4,2.4,0,0,0-1.85-3.35,4.65,4.65,0,0,0-.22,2.84c.39.9,1.73,1.42,2.33.69"/><path d="M228.18,123.88c2.19,10.37,4.39,20.7,6.58,31.08,1,4.95,2.59,10.54,7.15,12.78a19.54,19.54,0,0,1,9.56,23.12c-1.55,4.39-4.7,8.18-5.64,12.78s1.89,10.51,6.54,10.08A15.86,15.86,0,0,0,242,222.41a17.35,17.35,0,0,1-2,4.09c-4.22,5.12-15.32,1.34-17.39,7.62a31,31,0,0,1-48.21,15c-2.19-1.64-5.42-.69-7.62,1s-3.87,4-6.28,5.34c-6.46,3.53-15.59-1.08-21.35,3.44-2.54,2-6.5,1.12-8.87-1.07s-3.53-5.43-4.61-8.48c-11-31.08-19.88-62.85-28.79-94.58C95.21,149,93.62,143.25,92,137.48c-2.11-7.53-4.22-15.49-2.15-23s10-14,17.43-11.53c-1.59,4.56-.26,9.6,1.08,14.24q18.6,64.13,37.19,128.28c-3.62-1.51-5.21-5.68-6.41-9.38q-20.61-64-36.51-129.49c-5.12.52-8.91,5.56-9.73,10.64s.56,10.29,1.94,15.28c11.15,40.07,22.3,80.15,36,119.45.34,1,1.5,2.2,2.19,1.38a18.6,18.6,0,0,1,13.09-6.8c1.76-.13,4.3-.91,3.78-2.59q-23-72.57-42-146.35a7.36,7.36,0,0,0,6.59-2.15c-1.85-1.94-4.82,1-7.49,1.16-3.06.17-4.95-3.36-5.34-6.42s-.13-6.45-2.15-8.78c-2.58-3-4.69-6.8-4.65-10.8s2.84-8.14,6.8-8.7,8.1,3.79,6.5,7.49a34.85,34.85,0,0,0-1.55,22.77,62.27,62.27,0,0,0,40-9.55c-.9-3.75,1.94-7.41,5-9.73s6.67-4.35,8.48-7.79c4.17-8,12.22-14.34,21.22-14.72s18.29,6.15,19.41,15.15c4.13-1.72,9.47-3.19,12.7-.09,1.68,1.64,2.24,4,2.76,6.33q4.26,19.75,9.47,39.26c1.5-3.23,6.45-3.27,9.12-1s3.62,6,4.48,9.43a7.44,7.44,0,0,0,14,1.25c.17,2.06.47,4.26,1.85,5.77s4.35,1.72,5.3-.13c1.5-3,5-5,8.26-4.14s5.17,5.21,3.23,7.92-5.64,2.59-8.82,2.29c-4.91-.44-10.85-1.64-12.49-6.33-1.81,2.8-5.89,3.4-8.87,1.93s-4.9-4.47-5.94-7.61c-1.37-4-3.18-9.47-7.31-8.74-1.9,3.66-1.08,8.13-.26,12.18m0,23.07c1.38-.64,1.25-2.58.9-4Q220.17,104.81,211,66.8c-17.05,3-33.36,9-49.59,14.85q-23,8.4-46,16.83a4.51,4.51,0,0,0-2.24,1.38c-.78,1.08-.43,2.54-.09,3.79Q122.57,137.36,132,171c1.73,6,3.4,12.06,5.08,18.08,4.91,17.31,9.77,34.66,15.89,51.62a2.07,2.07,0,0,0,.73,1.16,2.28,2.28,0,0,0,1.76,0q45-12.27,88.76-28.54a173.48,173.48,0,0,1-9-37.62c-1-8.7-1.59-17.91-6.67-25.05-1.34-1.81-2.93-3.45-4.31-5.25a57.36,57.36,0,0,1-5.08-8.31q-13.76-25.63-25.61-52.26c-1-2.24-1.34-5.85,1.08-6.29q16.2,34.48,33.53,68.36M156.29,73.86a13.58,13.58,0,0,0-6.76,8.31A2.88,2.88,0,0,0,152,82a354.81,354.81,0,0,1,46.19-15.93c-2.46-4.44-5.21-9.17-9.82-11.37-3.87-1.8-8.48-1.46-12.44.18a33.83,33.83,0,0,0-10.37,7.4c-1.59,1.55-3.23,3.44-3,5.64a4.39,4.39,0,0,1-2.16,3.87,39.78,39.78,0,0,1-4.13,2.07m60.27,164.78c1.72-3.23,2.32-6.93,2.71-10.59.08-.69,0-1.51-.56-1.81Q196.3,234,173.29,239.85a33.15,33.15,0,0,0,1.51,3.44c2.54,4.78,7.75,7.75,13.13,8.48s10.8-.52,15.76-2.63c5.2-2.19,10.2-5.51,12.87-10.5m23.63-52.52c1.12.39,1.38,1.81,1.5,3,.18,2.37.39,4.7.61,7.06a3.16,3.16,0,0,0,.6,2,1.14,1.14,0,0,0,1.77,0,25.08,25.08,0,0,0,3.83-13.64c-.05-4.26-1.34-8.78-4.57-11.62a10.74,10.74,0,0,0-5.68-2.54,74.71,74.71,0,0,1,1.94,15.79M136.32,256.81a33,33,0,0,1,17-3.79,4.29,4.29,0,0,0,2.2-.26,1.37,1.37,0,0,0,.65-1.85c1.89-.86,3.78-1.68,5.68-2.54,4-1.81,8.31-3.83,10.59-7.66-1.6-.48-3.32.13-4.87.73q-10.85,4.26-21.26,9.51c-1.34.65-3,.22-4.44.35a12.31,12.31,0,0,0-5.29,2.23c-.73.48-1.51,1-1.72,1.81s.64,1.85,1.42,1.47m87.6-28.54c2.58-.65,5.16-1.25,7.75-1.9a14.21,14.21,0,0,0,3.52-1.2,9.21,9.21,0,0,0,4.09-6.25,43.62,43.62,0,0,0-4.43,1.38l-7,2.5a8.12,8.12,0,0,0-3.4,1.89,2.91,2.91,0,0,0-.51,3.58M101.28,78.68a3.3,3.3,0,0,1,1.51-1,31.37,31.37,0,0,1,.56-8.09c.21-1.43.43-2.85.64-4.31a2,2,0,0,0-2.41.13,5.09,5.09,0,0,0-1.42,2.2,13.91,13.91,0,0,0-1.38,5.85,6.58,6.58,0,0,0,2.5,5.25m167.28,46.79c-.09-.34-.31-.73-.69-.77a1.31,1.31,0,0,0-.56.21c-1.6,1-3.19,2-4.78,3a3.38,3.38,0,0,0,4.13,1.5,3.34,3.34,0,0,0,1.9-4"/></g><path class="21a21b91-9aa6-41ad-93db-d565ddf7ad45" d="M240.33,204.66c-.9-2.26-1.73-4.54-2.44-6.85a36.4,36.4,0,0,1-1.8-6.41c-1.81-7-3.18-14.19-4.87-21.33s-3.45-14-5.28-20.93c0,.34.06.68.07,1a26.53,26.53,0,0,1-2.13,10.55c-3.51,0-6.91,1.76-9,6a21,21,0,0,1-2.12,3.44c-12.6,3.5-24.38,9.42-35.59,16.13-5.64,3.37-11.56,8.42-17.87,10.37l-.28.07c-.77-1.15-1.56-2.3-2.31-3.52-2.93-4.79-5.14-10-8.1-14.76-5.79-9.37-12.38-17.86-16.82-28-.45-1-.88-2.08-1.3-3.12-1-3.55-2-7.07-3.12-10.58-.65-2.33-1.3-4.67-2-7-1.28-4.62-3.86-10.4-5-15.69,0,0,0,0,0,0,1.72-.76,3.46-1.48,5.18-2.22l12.94-5.57,11.65-5L155.3,99l.09.31c5,14.21,26,8.63,22.66-6.24-.88-2.52,9.13-7.23,17.29-10.51q3.42,8.31,6.82,16.62c3.9,9.51,7.29,19.61,12.42,28.55,3,5.21,7.19,9.47,9.57,14.65q-1.6-6.07-3.18-12.15c-5.58-21.55-10.09-43.33-18.11-64.08-16.74,4.67-33,11.49-49.81,15.76-15.33,3.9-30.74,7.73-44.77,14.84a8.67,8.67,0,0,1-3.39,3.76c-6.21,3.9-9.43,9.26-9.59,16.63a8.5,8.5,0,0,1-1.64,5A10.71,10.71,0,0,1,95,129.39c-1.77,12.34,5,25.21,8.81,36.58,4,12,5.32,24.71,8.21,37,3.08,13.12,8.46,23.51,15,35.15,2,3.54,3.48,7.3,5.1,11a13.19,13.19,0,0,0,9.68-2.87,9.54,9.54,0,0,0,10.53-3.2c3.45-4.16,9.23-4.83,14.2-6.26l21.87-6.3,43.72-12.61C238.33,216.11,241.2,210.39,240.33,204.66Z"/></g></g></svg>