<svg id="1dca0adb-ba52-4fef-b8ef-5daaf08d78a0" data-name="Layer 1" xmlns="http://www.w3.org/2000/svg" viewBox="20 0 300 300"><defs><style>.\32 5af8bbc-7d75-483b-8275-6a33af0d85d1{fill:#fff;}</style></defs><path class="25af8bbc-7d75-483b-8275-6a33af0d85d1" d="M224.19,69.08c.9-3,.94-6.56,1.34-9.7.38-2.87.41-5.89-2.62-7.32s-7.33-.73-10.53-.76c-7.48-.06-15,.12-22.43.49-4.57.23-5.14,6.53-1.65,7.86a55.46,55.46,0,0,0-7.1-.32c-8,.14-17.51,1.55-24,6.57a19.76,19.76,0,0,0-7.56,16.38,19.23,19.23,0,0,0-2-.13,17.32,17.32,0,0,0-8.44,2.29,3.78,3.78,0,0,0-3.3-1.84,212,212,0,0,0-25.7,1,23.58,23.58,0,0,0-.67-7.69,6,6,0,0,0-8.71-3.6c-3.47,1.95-1.92,6.47,1,7.38,0,.14,0,.28,0,.41,0,.84,0,1.67,0,2.5l.09,5.51c0,2,1.84,4.31,4.06,4a212.09,212.09,0,0,1,26.54-1.49,15.93,15.93,0,0,0-2.5,7.7l-5.26-.25c-7.4-.38-14.52,5.3-16.81,12.3-8,1.29-14.79,9.45-14.44,17.41a17.63,17.63,0,0,0,12.82,16.68,14.21,14.21,0,0,0-.42,4c.46,10.1,7.73,16.82,17.56,17.56,2.33.17,4.66.3,7,.41-8.1,1.19-15.15,9.2-14.78,17.41a17.83,17.83,0,0,0,10.07,15.7,17.18,17.18,0,0,0,14.66,8.21,16.47,16.47,0,0,0,4.07-.53,3.68,3.68,0,0,0,0,2.25l.63,2a4.33,4.33,0,0,0,1.86,2.42,4.05,4.05,0,0,0,6-4.57c-.21-.66-.43-1.31-.64-2a4.27,4.27,0,0,0-1.86-2.43l-.33-.17a18.6,18.6,0,0,0,3.73-3.24q4.23-.19,8.46-.55l.95-.09a17.8,17.8,0,0,0,1.76,4.16l2.75,3.56a17.52,17.52,0,0,0,7.75,4.51l3.89,1.35a13.35,13.35,0,0,0,7,.32,13.16,13.16,0,0,0,5.06-1.27l-1.8,7.48c-.88,3.62,2.85,5.76,5.5,4.84a4.14,4.14,0,0,0-.48,1.15,23.06,23.06,0,0,0,.49,13.85,4.3,4.3,0,0,0,3.82,3,4.07,4.07,0,0,0,0,.5v1.3a4.21,4.21,0,0,0,1.18,2.87,3.21,3.21,0,0,0,1.31.84,3.08,3.08,0,0,0,1.56.35,4.12,4.12,0,0,0,2.86-1.19,4.21,4.21,0,0,0,1.19-2.87v-1.3a4.14,4.14,0,0,0-1.19-2.86,2.93,2.93,0,0,0-1.3-.84,3,3,0,0,0-1.44-.35,3.17,3.17,0,0,0-.15-1.58,15.49,15.49,0,0,1-.49-9.54c1-3.63-2.8-5.76-5.49-4.79a4.55,4.55,0,0,0,.47-1.19q1.38-5.74,2.77-11.5a20.55,20.55,0,0,0,11.39-2.86c.27-.17.54-.34.8-.52l.63,7.33c.44,5.16,8.55,5.2,8.1,0s-.91-10.7-1.37-16a22.71,22.71,0,0,0,1.26-3.34c4.25-.41,4.59-6.54,1-7.84-.26-4.57-2.11-9-4.36-12.94a15.77,15.77,0,0,0-2-2.77c2.06-4.86,2.07-10.48-1.16-15.13-4.35-6.26-11.17-11.28-19.24-10.63-.85.07-1.67.17-2.48.3a17.79,17.79,0,0,0-8.66-8.8,22.81,22.81,0,0,0-5.29-16h5.3a17.43,17.43,0,0,0,16.14-10.73,3.75,3.75,0,0,0,.11.6,4.13,4.13,0,0,0,5,2.83,27.37,27.37,0,0,1,8.08-.29c2.18.22,4-2,4-4a3.89,3.89,0,0,0-2.63-3.71,3.79,3.79,0,0,0-2.28-1.62l-.11,0a20.31,20.31,0,0,0,6.39-12.92,4,4,0,0,0,3.24-1.14,5.9,5.9,0,0,0,1.74-4.12,6.17,6.17,0,0,0-1.64-4.16A4.09,4.09,0,0,0,219.3,82a4.21,4.21,0,0,0-2.63,1,18.66,18.66,0,0,0-3.78-5.19,21.37,21.37,0,0,0-1.7-4.12c1.73-.08,3.46-.17,5.19-.29C219.66,73.09,223.09,72.75,224.19,69.08Zm-78.4,97.55q8.84-.24,17.63-1.21c.08.11.17.21.25.31Q154.75,166.57,145.79,166.63ZM194.27,60.76a39.78,39.78,0,0,0-4.21-.87c1.77-.09,3.55-.16,5.32-.23A6.42,6.42,0,0,0,194.27,60.76Z"/><path class="25af8bbc-7d75-483b-8275-6a33af0d85d1" d="M243.41,114.37c-.53-1.9-2.94-3.68-5-2.83a21.86,21.86,0,0,1-16.14.56c-4.93-1.72-7,6.11-2.15,7.82a28.75,28.75,0,0,0,20.44-.57C242.59,118.51,244.06,116.67,243.41,114.37Z"/><path class="25af8bbc-7d75-483b-8275-6a33af0d85d1" d="M254.46,108.45a4.11,4.11,0,0,0-1.87-2.43,4,4,0,0,0-3.12-.4l-1.95.66a4.32,4.32,0,0,0-2.42,1.86,4.06,4.06,0,0,0,1.45,5.55,4,4,0,0,0,3.13.4l1.95-.66a4.32,4.32,0,0,0,2.42-1.86A4.15,4.15,0,0,0,254.46,108.45Z"/><path class="25af8bbc-7d75-483b-8275-6a33af0d85d1" d="M145.36,215.6a4.14,4.14,0,0,0-2.42-1.86c-1.91-.44-4.67.58-5,2.83-.21,1.52-.42,3-.64,4.56a4.5,4.5,0,0,0,.41,3.12,4.15,4.15,0,0,0,2.42,1.87c1.91.43,4.67-.59,5-2.83.21-1.52.42-3,.64-4.57A4.51,4.51,0,0,0,145.36,215.6Z"/><path class="25af8bbc-7d75-483b-8275-6a33af0d85d1" d="M136.21,229.94a4.15,4.15,0,0,0-2.42-1.87c-2-.46-4.53.61-5,2.83-.22,1.09-.45,2.17-.67,3.26a4.25,4.25,0,0,0,.41,3.12,4.11,4.11,0,0,0,2.42,1.86c2,.46,4.52-.61,5-2.83.23-1.08.45-2.17.68-3.25A4.34,4.34,0,0,0,136.21,229.94Z"/><path class="25af8bbc-7d75-483b-8275-6a33af0d85d1" d="M126.1,237.68a4.12,4.12,0,0,0-4,4v2.61a4.06,4.06,0,0,0,8.11,0v-2.61A4.11,4.11,0,0,0,126.1,237.68Z"/><path class="25af8bbc-7d75-483b-8275-6a33af0d85d1" d="M172.51,229.31c.41.88,0,0,0-.2a3.84,3.84,0,0,1-.11-.46l0-.12c0-.19,0-.4,0-.52h0s0-.09,0-.16a4.05,4.05,0,0,0-7.81-2.15,11.55,11.55,0,0,0,.91,7.71,4.07,4.07,0,0,0,5.54,1.46A4.17,4.17,0,0,0,172.51,229.31Z"/><path class="25af8bbc-7d75-483b-8275-6a33af0d85d1" d="M182.18,219.14l-.66-1.95a4.34,4.34,0,0,0-1.87-2.42,4,4,0,0,0-5.54,1.45,4.09,4.09,0,0,0-.41,3.13l.67,2a4.28,4.28,0,0,0,1.86,2.42,4.15,4.15,0,0,0,3.12.41,4.07,4.07,0,0,0,2.83-5Z"/><path class="25af8bbc-7d75-483b-8275-6a33af0d85d1" d="M237.51,226a4.12,4.12,0,0,0-4.06,4v3.26a4.06,4.06,0,0,0,8.11,0V230A4.09,4.09,0,0,0,237.51,226Z"/><path class="25af8bbc-7d75-483b-8275-6a33af0d85d1" d="M229.69,215.53a4.12,4.12,0,0,0-4.05,4.05v2.61a4.05,4.05,0,0,0,8.1,0v-2.61A4.09,4.09,0,0,0,229.69,215.53Z"/><path class="25af8bbc-7d75-483b-8275-6a33af0d85d1" d="M221.55,143.29a4.11,4.11,0,0,0-2.42-1.86c-2-.45-4.6.59-5,2.83l-.67,3.9a4.39,4.39,0,0,0,.4,3.12,4.16,4.16,0,0,0,2.43,1.86c2,.45,4.6-.59,5-2.83.22-1.3.45-2.6.67-3.9A4.34,4.34,0,0,0,221.55,143.29Z"/><g id="aede9f5a-698a-41f2-aead-45976d1ea967" data-name="pdf24_10"><path d="M254.41,104.54c-2.58-1.4-5.76-1-8.64-.37-1.72.37-3.85,2.34-2.42,3.4a34,34,0,0,1,10.88-2.06c1,1.09.36,2.94-.82,3.78a8.2,8.2,0,0,1-4.15,1l-24.58,1.45c-1.91.12-3.91.21-5.54-.73s-2.58-3.3-1.37-4.76a74.62,74.62,0,0,0-12.39,1.7,16,16,0,0,0,9.78.37,3.53,3.53,0,0,1,0,3.63c-3.42,0-6.87,0-10.3,0a10.78,10.78,0,0,1-.06-6.36c3.39.27,7.61.12,9.18-2.91a10.46,10.46,0,0,1,11.34-5.21,65.2,65.2,0,0,1-.85-17.19c-2.27.52-4.73,1-6.85.06s-3.46-4-1.88-5.66c2.33-2.58,7.24.69,9.94-1.52a19.2,19.2,0,0,0-16.15.24c1.09.37,2.18.7,3.3,1.06a35.32,35.32,0,0,0,.85,10.85,5.93,5.93,0,0,1,7.39-2.27c0,3.94,0,7.88,0,11.82a9.73,9.73,0,0,1-9.39.09c-.18,2.36-.46,4.85-1.91,6.7s-4.61,2.57-6.18.79c.82-4.55.45-10.94-4.09-11.73-1.58-.31-3.7,0-4.37-1.43-.39.88-.82,1.79-1.21,2.67-1-.09-1.33-1.55-.94-2.49s1.24-1.69,1.58-2.66c.57-1.79-.76-3.76-2.49-4.55a11.73,11.73,0,0,0-5.54-.51c-5.73.36-11.46.75-17.19,1.12a21,21,0,0,1,.28,8.24,34.82,34.82,0,0,1-10.19.49,12,12,0,0,0-5.85-13.55c0-3.09,0-6.18-.06-9.27l9.28-.09c.39-2.64.78-5.25,1.18-7.85A39.12,39.12,0,0,1,186,65a24.07,24.07,0,0,1,.39-13.79c13.31-.18,26.61-.33,39.92-.52A47.65,47.65,0,0,0,228,75.41q.69-11.73,1.37-23.51a4.06,4.06,0,0,0-.31-2.34c-.72-1.24-2.45-1.36-3.87-1.36l-41.51.42c0,.08,0,.15,0,.22a9.49,9.49,0,0,1-1,4.64c-.32,1.64-.65,3.27-1,4.9-3.85-.09-7.67-.21-11.52-.3-2.64-.06-5.42-.09-7.7,1.21s-3.66,4.49-2.18,6.67a30.68,30.68,0,0,0-9.27.51,42.49,42.49,0,0,0,.24,12.28c-3.67.3-7.36.57-11,.88a5.15,5.15,0,0,0-2.82.81c-2.42,2,.49,6.43-1.36,9q-15.24.33-30.49.7a20.18,20.18,0,0,1,2.18-17.3q.09,8,.18,16.12c.61,1.36,2.43-.52,2.55-2,.45-4.79.91-9.61,1.36-14.43a7.84,7.84,0,0,0,5.88-1c-4.73-.27-9.45-.51-14.15-.75-3.12-.19-6.55-.25-9,1.63s-2.94,6.49-.06,7.73l7.3.09c.18,4.46.36,8.91.55,13.4,5.75-.61,11.51-1.22,17.27-1.79,2.79-.3,5.7-.58,8.27.51s4.64,3.94,3.76,6.61c-.73,2.24-3.24,3.49-5.6,3.61s-4.67-.67-7-1.19c-3.57-.81-7.54-.93-10.72.88s-5.16,6.16-3.34,9.37a60.78,60.78,0,0,0-12.18,1.3c.21,8.49.45,17,.67,25.49.09,2.88,1.85,7,4.48,5.73,3.79-1.76,7.79,2.63,8.31,6.75s-.7,8.46.48,12.46l17.37,1.18c1.91,3-1.43,7.61-4.88,6.76-2.25-.55-3.34,2.64-3.37,4.94-.06,2.55-.12,5.09-.15,7.64-.06,3.39-.06,7.09,1.94,9.82s6.85,3.57,8.67.69l.91,13.82c1.79.15,2.66-2.12,2.94-3.91.51-3,1-6.21-.31-9s-5-4.63-7.42-2.85c-1.06.73-2.64.06-3.3-1.06a7.07,7.07,0,0,1-.61-3.76l.18-10.36c0-1.64.7-3.88,2.34-3.67,4.36.58,8-5.36,5.42-9l33.18-.82c2.4-.06,4.91-.12,7-1.3s3.63-3.73,2.78-6a24.86,24.86,0,0,0,15-2.48c-.72-3.34-1.45-6.85-.33-10.07s4.88-5.78,8-4.36a31.64,31.64,0,0,1-1.91,10.06,34.78,34.78,0,0,0,21.79.64c-.18,6.67-.36,13.3-.54,19.94-1.7.3-3.4.61-5.13.88a30.17,30.17,0,0,0,13.61,1.42A172.79,172.79,0,0,0,221.32,218c-1.49.18-3,.33-4.49.52.37-3.91.73-7.79,1.06-11.7-3.51.94-7.27-.43-10.91-.21s-7.76,3.57-6.27,6.91c-1.15,1.54-3.7-.25-3.91-2.16s.67-3.87.18-5.72a4.3,4.3,0,0,0-6.76-2c.12-2.52.22-5.16-.91-7.4s-3.84-3.91-6.18-2.94c-1.82.82-2.73,2.91-3.12,4.85-.48,2.33-.51,4.94.79,6.94s4.24,3,6.18,1.64a18.16,18.16,0,0,1,.27,7.27q-5.91.36-11.82.76c-.63-2-1.27-4-1.91-6-2.57.18-5.15.33-7.72.51,1.88-2.6.33-6.51-2.34-8.3s-6-2-9.24-2.15c-3-.18-6.09-.31-8.7,1.09s-4.36,4.91-2.82,7.42a30.5,30.5,0,0,0-12.69.22,25,25,0,0,0,12.54,1.54c.49,2.49-2.06,4.37-3.85,6.15-2.18,2.19-3.57,5.4-2.75,8.37s4.39,5.12,7.15,3.76c3.3-1.64,3.21-6.28,2.66-9.91a7.81,7.81,0,0,1,6.85.69c.88-2.45.55-5.15.37-7.76s-.09-5.42,1.45-7.54,5.06-2.88,6.76-.88c.21,3,.55,6.24,2.49,8.55s6.12,2.94,7.78.42c.94,2.61,1.85,5.39,1.28,8.09s-3.34,5.12-6,4.34c-.64,2.51-1.28,5.15-.73,7.72s2.64,5,5.24,5l0,.28A8.29,8.29,0,0,1,174,236a39.78,39.78,0,0,1,1.44-10.74c1.09,0,2.18,0,3.27.07v.15a4.73,4.73,0,0,1,2.54-.51,15.09,15.09,0,0,0-.11-7.89A8.41,8.41,0,0,1,187,217a13.53,13.53,0,0,0,1.67,8.46c1.36-.22,2.76-.4,4.12-.61a2,2,0,0,1,1.7.27,2,2,0,0,1,.39,1.31c.12,3.45.28,6.94.43,10.39.12,2.67.79,6,3.39,6.58-.27-6.76-.57-13.49-.85-20.25a27.19,27.19,0,0,0,1.67,2.85c-.06-.45.61-.73,1-.48a1.86,1.86,0,0,1,.64,1.18,26.85,26.85,0,0,1,.94,5.76,43.38,43.38,0,0,1-.73,6.18A36.26,36.26,0,0,0,202,252c1-.09,2-.18,2.95-.29a3.15,3.15,0,0,0-.36-.61,4.4,4.4,0,0,1,1.62.48c1.51-.17,3-.36,4.53-.59a13,13,0,0,0,.39-4.77c-.39-3.31-3.06-6.61-6.39-6.43A43.17,43.17,0,0,0,204.1,223c-3.39,1.67-7.79-2.73-6.12-6.12,1.94.15,3.88.27,5.82.39a9.83,9.83,0,0,1,.55-7.54,7.21,7.21,0,0,1,8.94,1.33,8.44,8.44,0,0,1,1,9.21c2.6,0,5.21.1,7.85.13a32.22,32.22,0,0,0,1.89,8.72l.12.08c.81-2.79,5.55-1.49,6.83,1.2s1.16,6.24,3.25,8.48c2.33-.57,4.66-1.12,7-1.66.45-3,.88-6.19-.34-9s-4.66-4.81-7.33-3.36c2.43-2.91-.3-8.27-4.09-8-4.91.39-7.09-6-7.3-10.91a126.06,126.06,0,0,1,.87-21.64c.43-3.54,1-7.3-.36-10.6s-5.67-5.7-8.67-3.73q.38-7.73.73-15.46a44.7,44.7,0,0,1,11.52-1.33c-4.09-1.27,1.66-9.37-2.06-11.49a4.49,4.49,0,0,0-2.43-.39c-3.76.06-8.82,1.48-8.54,5.21.12,1.36-1.7,1.91-3.07,2-5.3.21-10.63.46-15.94.7,1.19-3.18,1.55-7-.33-9.82s-6.64-3.73-8.64-1c-1-3-1.94-6.18-1.33-9.27s3.36-6,6.52-5.61q4,.5,8,1c-.52-3.52-1.06-7.06-1.58-10.58-2.27-.21-1.27,3.64-2.24,5.7-.91,1.91-3.58,1.94-5.67,1.67q-10.68-1.45-21.43-2.85a18.14,18.14,0,0,0-4.06-15.49A8.64,8.64,0,0,1,162,94.51c3.82-.52,7.6-1,11.42-1.52-2.15-1.24-1.78-4.73.06-6.36s4.49-2,7-2.22c2.1-.21,4.22-.39,6.34-.6,2-.18,3.67,1.66,4,3.63s-.24,3.94-.85,5.85l10.49.46a204.54,204.54,0,0,0-.52,25.12,18,18,0,0,1,17.21-4.36c-.06,1.66-.12,3.36-.18,5A195.31,195.31,0,0,0,241,119.3c1.66-.13,3.78-.7,3.94-2.37.45-4.51,6.63-5.39,11.15-5C258.29,109.93,257,106,254.41,104.54ZM102.5,76.32a1.9,1.9,0,0,1-1.76,1.49c-1.45,0-2.91-.09-4.39-.15a23.93,23.93,0,0,1,.12-3.88c2,0,3.94.06,5.91.06A5.35,5.35,0,0,1,102.5,76.32Zm83.34,128.23a1.82,1.82,0,0,1-2.12-.07c-.88-.78.49-2.57-.42-3.3a1.91,1.91,0,0,1,.3-3,1.78,1.78,0,0,1,2.61-1.73c.18,2,.36,4.09.54,6.13A2.24,2.24,0,0,1,185.84,204.55Zm-43.12,19.66c-.55,1-1.94,1.58-2.82.91,0-2,0-3.94.06-5.91a4.25,4.25,0,0,1,.36-2.12,1.51,1.51,0,0,1,1.79-.79c.76.34.91,1.31.94,2.13,0,.42,0,.81.06,1.24s0,.85.06,1.27A6,6,0,0,1,142.72,224.21Zm2.86-21.79a5.46,5.46,0,0,1,4.06-.69,1.11,1.11,0,0,1,.67.36,1.15,1.15,0,0,1,.15.7c0,.85,0,1.66,0,2.51a1.07,1.07,0,0,1-.21.76,1.14,1.14,0,0,1-.73.18c-.91,0-1.85,0-2.76,0a.9.9,0,0,1-1.15-1.06Zm4.65,11.43a1.13,1.13,0,0,1-.24.64,1.3,1.3,0,0,1-.61.21c-1.3.21-2.6.39-3.91.6.13-1.36-.21-2.75-.06-4.12s1-2.85,2.43-2.91a2.69,2.69,0,0,1,2.48,2.09A7.5,7.5,0,0,1,150.23,213.85Zm21.73,14a3.78,3.78,0,0,0-.09,4.64,7.19,7.19,0,0,1-3.39,0,3.81,3.81,0,0,1,1.51-1.25c-.63.1-.91-.78-.91-1.42s0-1.3,0-2a4.44,4.44,0,0,1,.31-2.21,1.63,1.63,0,0,1,1.84-1C172.36,225,172.26,226.64,172,227.82Zm6.15-5.16h-2.54a26.68,26.68,0,0,1,0-5.79c1,0,2.06.06,3.09.06A18.22,18.22,0,0,0,178.11,222.66Zm16.46-3.51c-.09,1.18-.45,2.67-1.64,2.88-.78.15-2-.18-2.12.61-1.21-.67.15-3.24-1.18-3.64.94-.33.24-2.06,1.06-2.6a1.2,1.2,0,0,1,.73-.19,3.07,3.07,0,0,1,2.76.7A3.16,3.16,0,0,1,194.57,219.15Zm-.79-5.69c-1.36.57-3-.58-3.45-2a8,8,0,0,1,.24-4.46,7.88,7.88,0,0,1,2.12-.79,1.72,1.72,0,0,1,1.4.18,1.93,1.93,0,0,1,.51,1.52A10.78,10.78,0,0,1,193.78,213.46ZM204,244.25a1.31,1.31,0,0,1,.34-.88c.7-.61,2.39.24,2.48-.7a.94.94,0,0,1,1.22.55,2.77,2.77,0,0,1,.09,1.48c-.22,1.67-.46,3.3-.67,5,0,.33-.12.73-.46.85-.51.21-1.18-.55-1.6-.15s-.82-.21-1-.67A13.26,13.26,0,0,1,204,244.25Zm30.15-16.4c.6-1,2.75.09,3.06-1,1.42.78,1.06,3.2,1.2,4.24,0,.43,0,.86,0,1.29-.13.94.15,2.09-.44,3a1.27,1.27,0,0,1-1.75.48,1.57,1.57,0,0,1-.49-.64,17.61,17.61,0,0,1-1.73-6.42A1.32,1.32,0,0,1,234.11,227.85Zm-8.26-7.52a2.48,2.48,0,0,1,2-1.66,7.73,7.73,0,0,1,2.75.15c0,1,.06,2.06.09,3.12A4,4,0,0,1,230,225a2.58,2.58,0,0,1-3.7-.6A4.84,4.84,0,0,1,225.85,220.33Zm-9.49-72.55c-.58-1.45.67-3.12,2.15-3.6a8.64,8.64,0,0,1,4.64.21c-.18,1.15-.4,2.33-.58,3.48a5.36,5.36,0,0,1-.6,1.94c-.79,1.31-2.49,1.64-4,1.85-1,.15-2.31.09-2.58-.85A3,3,0,0,1,216.36,147.78ZM133.72,92.44a11.28,11.28,0,0,1,1.75-.17,4.28,4.28,0,0,1,3.25-1.55h.18l.27-.94c1-.55.94-2,.58-3.09s-.94-2.22-.52-3.28c.55-1.27,2.21-1.51,3.58-1.6,3.36-.18,6.7-.4,10-.58a3.85,3.85,0,0,1,2.85.61c.18,3,.45,6,.73,8.94a2.28,2.28,0,0,0,.78,1.85c1.31.78,1.49,2.6,1.37,4.15s-.46,3.18.33,4.48a.75.75,0,0,1-.39,1,2.09,2.09,0,0,1-1.19.09,121.49,121.49,0,0,0-22.72-.57C133.2,98.93,133.44,95.6,133.72,92.44Zm28.76,12.73a1.52,1.52,0,0,1,1.12.43,1.72,1.72,0,0,1,.27,1c.21,4.12.42,8.27.67,12.39.09,2.18,3,2.76,5.21,2.7,4-.12,8-.21,12-.33q-.22,15.4-.45,30.85a1.48,1.48,0,0,1-.25,1,1.53,1.53,0,0,1-.87.45,19.54,19.54,0,0,1-9.37.09,3.81,3.81,0,0,0-3.88,1.88,11.2,11.2,0,0,0-1.33,4.37c-17.7-.73-35.55-1.43-53.07,1.36-1.15.18-2.6.27-3.24-.73a3,3,0,0,1-.24-1.85c.33-2.94,1.15-5.85,1-8.82s-1.55-6.15-4.31-7.18c-1.54-.57-3.24-.42-4.84-.6s-3.43-.82-4.07-2.31a6.12,6.12,0,0,1-.33-2c-.33-7-.7-14-1.06-21-.12-2.33,3-3.21,5.33-2.94s5.16.73,6.49-1.15c1.73-2.39-.76-6.58,1.58-8.43.36.52.72,1.07,1.09,1.61.42-1.06,1.78-1.3,2.94-1.39A279,279,0,0,1,162.48,105.17Zm80.69,10.91a5.43,5.43,0,0,1-2.88.67c-6.58.27-13.12.55-19.7.79a1.87,1.87,0,0,1,.48-2.64,5.27,5.27,0,0,1,2.88-.79c4.85-.39,9.67-.75,14.52-1.12,1.61-.12,3.33-.21,4.7.67Z"/><path d="M150.2,97.75a22.48,22.48,0,0,0,.09-3.49,2.27,2.27,0,0,1,2.25,1.61,6.6,6.6,0,0,1,.15,3c-1.28.88-3,.85-4.52.76-.54,0-1.18-.12-1.39-.61a4.83,4.83,0,0,1-.64-3.15c.3-1.06,1.73-1.79,2.55-1,0,.82.09,1.64.12,2.48a1.91,1.91,0,0,0,1.39.46"/><path d="M117.11,85.08c2.45.06,4.85-.48,7.3-.61a41.26,41.26,0,0,1,7.91.58c.94.12,2,.39,2.31,1.3-7,.28-13.95.55-20.92.85a2.2,2.2,0,0,1-1.24-.21.78.78,0,0,1-.27-1.09c1.3-1.09,3.21-.85,4.91-.82"/><path d="M186.24,100.87a8.73,8.73,0,0,1,.09,7.18,10.36,10.36,0,0,1-6.4,1.52,4.64,4.64,0,0,1-2.79-1.06c-1.51-1.4-1.27-3.82-.63-5.76a3.79,3.79,0,0,1,1.09-1.94,4.41,4.41,0,0,1,3-.73,14.68,14.68,0,0,1,5.64.79m-6.1,6.58c1.16.21,2.31-1,3.4-.58a27.08,27.08,0,0,0,.09-3.82,3.15,3.15,0,0,0-4,0,4.73,4.73,0,0,0-.91,2.43,1.9,1.9,0,0,0,1.39,1.94"/><path d="M167.29,146.12a27.36,27.36,0,0,1-1,5.66,2.87,2.87,0,0,1-.75,1.43,2.8,2.8,0,0,1-1.73.39l-23.37.55c-1.6,0-3.24.06-4.85.12-1.87,0-4.12-.12-5.09-1.73a163.73,163.73,0,0,1,32.22-1.27c.7,0,1.06-.82,1.21-1.52a14.3,14.3,0,0,0,.55-4.63c-.22-2.22-1.34-4.79.15-6.49,2.42,1.39,2.91,4.7,2.69,7.49"/><path d="M128.26,251a1.61,1.61,0,0,0,.79.06c.3-.09.54-.33.85-.45a.62.62,0,0,1,.42,0l.67-.3a9.71,9.71,0,0,0,.76-4.35c0-2.39,0-4.75.06-7.15,2-1.57,5.48,0,7.24-1.85,0-2,0-4.06.06-6.09a2.88,2.88,0,0,0-.51-2,2.2,2.2,0,0,0-1.1-.51,7.79,7.79,0,0,0-7.75,2.39,2.62,2.62,0,0,1-.49,2c1.36,3-.57,6.46-.45,9.76,0,1.15.3,2.24.33,3.36a3.81,3.81,0,0,1-1.12,3.06,2.19,2.19,0,0,0-1.55-.69c-1.12-1.88-1.15-4.22-1.12-6.43,0-1.33.34-3,1.64-3.3a1.22,1.22,0,0,1,.18-1.12c-1.36-.82-3.27-.06-4.18,1.24a7.78,7.78,0,0,0-1,4.61A8.73,8.73,0,0,0,123.2,248,8.21,8.21,0,0,0,128.26,251Zm4.15-18.82,2.22-1.45c.63-.46,1.72-.76,2,0-.34.24-.67.45-1,.7a3.67,3.67,0,0,1,1.12,1.75,2.38,2.38,0,0,1-1.12,2.19,5,5,0,0,1-2.49.63A5.72,5.72,0,0,1,132.41,232.15Z"/></g></svg>