<svg xmlns="http://www.w3.org/2000/svg" viewBox="10 0 300 300"><defs><style>.\37 9a763e3-0241-49c2-99b4-464e98e14685{isolation:isolate;}.\31 c9b7bb3-515d-475d-925c-02887a87f1bc{fill:#fff;}.\37 a6a96c4-9914-423a-b638-730c08e06742{fill:#52df84;}.\32 cb533cf-77c1-47e3-afab-1489644acf6b,.cd2cbe3b-ea75-4239-b52a-a9d36cb1b770{fill:#e6e6e6;}.cd2cbe3b-ea75-4239-b52a-a9d36cb1b770{mix-blend-mode:multiply;}</style></defs><g class="79a763e3-0241-49c2-99b4-464e98e14685"><g id="09c62dd4-b2de-48ad-9139-35429d0692a4" data-name="Layer 1"><path class="1c9b7bb3-515d-475d-925c-02887a87f1bc" d="M246.67,107.37c-1.76-3.84-4.64-8.69-8.47-11.13a17,17,0,0,0,1.92-11.17C238.6,76.27,231,72,222.82,71.62a23,23,0,0,0-4.95-1.86c-9.53-2.38-19.13,3-23.88,11.17a18.73,18.73,0,0,0-1.69,15.32,37.91,37.91,0,0,0-7.53,3.07c-2.31,1.25-5,2.76-6.94,4.07a11.3,11.3,0,0,0-1.42-1.11A26.41,26.41,0,0,0,158,95.1c-4.52.06-8.63,2.31-10.43,6.58a13.14,13.14,0,0,0-.77,2.59,27.43,27.43,0,0,0-4.1,5.34c-.49.83-1,1.67-1.45,2.52-.21.18-.41.36-.61.56-8.51,8.53-17.18,19.72-14.67,32.63a24.1,24.1,0,0,0,1.56,5c1.13,10.09,8.1,18,18.42,20.57a23.41,23.41,0,0,0,17.26-2.38c.33-.19,1.47-.89,2.2-1.42l.86.6a78.66,78.66,0,0,1,8.5,6.83c2.52,2.32,6.64,2,9.16-.15a40.68,40.68,0,0,0,22.28,12.87c18,3.55,37.13-6,42.82-23.81,2.6-8.12,2.71-17.34-1.11-25.14-.39-.78-.92-1.64-1.4-2.49a31.52,31.52,0,0,0,2.89-9.88A35,35,0,0,0,246.67,107.37ZM165.61,167c.32-.23.52-.42.47-.47C167.38,167.85,166.5,167.44,165.61,167Zm5.24-13.23a21.74,21.74,0,0,1,2.4.14c.11.46.22.91.34,1.35A29.24,29.24,0,0,0,170.85,153.76Z"/><path class="7a6a96c4-9914-423a-b638-730c08e06742" d="M244.47,146.68c-3.39-1.89-7.16-2.17-11-2.19a56.34,56.34,0,0,0-5.66.2,11.9,11.9,0,0,0-1.82-1.13,11.57,11.57,0,0,0-6.25-1c-4.67.58-7.82,3.66-10.95,6.88l-3.23,3.33q-.93-.07-1.86-.18a84.73,84.73,0,0,1-12.63-2.4l-2.88-.78c-1.7-7.32-11.21-11.82-17.93-7a12.88,12.88,0,0,0-5.17,11c.22,4.62,3,8.15,6.57,10.83a31.73,31.73,0,0,1,6.54,6.5,48.84,48.84,0,0,0,8.12,8.57,41,41,0,0,0,20.29,8.26c.3,0,.6.06.91.09a6.52,6.52,0,0,0,3.73.63l4.88-.67c1.16-.12,2.32-.28,3.47-.48l3-.42c3.28-.47,6.56-1.29,9-3.48,6.23-3,12.64-7.24,16.57-12.87C253.54,162.76,253.27,151.61,244.47,146.68Z"/><path class="2cb533cf-77c1-47e3-afab-1489644acf6b" d="M177.91,154.12a16.69,16.69,0,0,0-5.67-10.42c3.93-5.4,4.28-13.61.06-18.88a16.21,16.21,0,0,0-22.18-3.43c-9.34,6.32-17.3,16-15.5,28.05,2.15,14.41,15.16,23,29.14,22.09C172.06,171,179.14,162.37,177.91,154.12Z"/><path d="M172.37,183.32l-.35-3.39a1.58,1.58,0,0,1,1.24-.39c.59,1.25,1.24,2.43,1.84,3.68l-1.19,1.07c-.55-.34-1.1-.69-1.7-1"/><path d="M167,184.12c-.6.38-1.14.75-1.74,1.14a19.5,19.5,0,0,1-1.7-9.72,2.55,2.55,0,0,1,.85-2c.65-.44,1.83.18,1.53.9-.43,1,.72,1.79,1.19,2.75,1,2.13-1.56,5-.13,7"/><path d="M201.72,148c-2.36-1.24-5-2.94-5-5.59a23.84,23.84,0,0,0,10.43.14,9.66,9.66,0,0,1-1.42,4.24c-.94,1.17-2.62,1.92-4,1.21"/><path d="M240.16,167.1a19,19,0,0,0,.28-8.64A10.82,10.82,0,0,0,237,152c1.38-1.05,3.52-.37,4.62.95a10.36,10.36,0,0,1,1.57,4.94c.41,3.47.17,7.85-3,9.24"/><path d="M127.61,186a8.43,8.43,0,0,1-4.17,1.81,13.53,13.53,0,0,1-2.92.09l-8-.3c-.61-1.32.66-2.88,2.11-3.3a14.31,14.31,0,0,1,4.47.12,12.41,12.41,0,0,0,8.93-3.1,5,5,0,0,1-.47,4.68"/><path d="M201,105.6a14.57,14.57,0,0,0-9,8.32,1.34,1.34,0,0,1-2.17.07,3.26,3.26,0,0,1-.42-2.51,12.86,12.86,0,0,1,7.1-9.56c1.47-.68,3.24-1,4.6-.15s1.47,3.35-.08,3.83"/><path d="M237.59,107.19c3.31-.87,7.07-1.52,9.88.42,1.77,1.25,3.6,2.5,5.43,3.74,1.32.93.66,3.23-.82,3.86s-3.19,0-4.5-.81a21.91,21.91,0,0,0-4.08-2.5,13.08,13.08,0,0,0-2.56-.53c-1.66-.2-3.39-.45-5.06-.65-.92-.12-1.16-1.48-.65-2.22a4.08,4.08,0,0,1,2.36-1.31"/><path d="M142.89,182.09a21.17,21.17,0,0,0,3.65.32c1.81.08,3.68.1,5.49.17,2,.11,4.76.79,4.76,2.81a12.79,12.79,0,0,1-11.58.66A60,60,0,0,0,132,184.92c-1.07-2.13,1.55-4.52,3.94-4.56s4.59,1.23,6.93,1.73"/><path d="M170.59,175.94c-3-1.56-4-6.39-7.37-6.53-3.16-.15-4.54,4-4.11,7.07s1.58,6.54-.06,9.21a19.89,19.89,0,0,1-4.08-13.3C144.25,176.21,131.6,170,126.05,160s-4.73-22.58-.12-33c3.24-7.3,8.74-14.19,16.42-16.53a20.14,20.14,0,0,1,33.92-13.87c2.12,2,5.48,2.15,8.2,1.18s5-3,7.21-4.84a18.52,18.52,0,0,1,3.06-17.75,23.94,23.94,0,0,1,7.73-6c9.73-5.1,22.34-5.49,31.39.8s12.89,19.83,6.94,29.1a8.9,8.9,0,0,1,4.8,2.7c-5.42.61-10.83,1.22-16.29,1.89-1.18-.67.46-2.28,1.74-2.73,6.31-2.24,9.76-9.94,8.24-16.48S232,73,225.57,71.12s-13.42-.79-19.65,1.71c-5.72,2.29-11.65,7.1-11,13.26.44,4.74,4.57,8.14,8.32,11-8.95-2.22-19.09,4-21.13,13.08-.51,2.28-.51,4.83.85,6.76s4.38,2.74,6.13,1.18a19.67,19.67,0,0,1,31,6.26A16.85,16.85,0,0,1,248,121.59a18.21,18.21,0,0,1,14.38-2.76,11.64,11.64,0,0,0,13.09-16.4l-5.3,10.43c-.79-3-1.4-6.34-.22-9.28s4.74-5.06,7.55-3.59c1.91,1,2.84,3.27,3.11,5.42a16.47,16.47,0,0,1-20.77,18.09c-4.11-1.17-8.84,1.44-10.34,5.48a10.55,10.55,0,0,0,3.32,11.56c3,2.36-.66,6.93-.43,10.68,1,16.37-9.26,32.9-24.45,39.2s-34.2,1.89-45.09-10.44c-.36,2.17-.77,4.34-1.19,6.51a4.71,4.71,0,0,1-.7-6.26c.32-2-2.11-3.5-4.2-3.66s-4.33.34-6.18-.63m9.22-40.45c.81-4,1.63-7.88,2.45-11.79a9.79,9.79,0,0,0-11.43,2.08c-1.34,1.47-2.2,3.37-3.54,4.83-3.26,3.48-9.14,3.66-13.08,1s-5.9-7.68-5.64-12.38c.18-2.84,1.21-5.82,3.47-7.54s6-1.52,7.63.81c2.52,3.78-1.77,8.53-1.94,13.06a8.5,8.5,0,0,1-1.28-9.81c-2.48-1.33-4.8,2.47-4.4,5.24.71,4.87,6,9.16,10.52,7.21,2.7-1.13,4.21-4,6.05-6.31s4.69-4.53,7.45-3.54c2,.65,3.27-2.25,2.8-4.27s-1.56-4.31-.47-6.07c1.28-2,.51-4.89-1.11-6.63s-4-2.62-6.3-3.34c-4.51-1.45-9.33-2.39-13.91-1.38s-9,4.33-9.92,8.94c-.7,3.48-.21,8.21-3.55,9.35-11,3.74-16.26,16.57-16.81,28.21-.26,5.24.25,10.66,2.84,15.18,3.37,5.82,10,9.34,16.65,9.87s13.39-1.6,19.15-5A13.76,13.76,0,0,0,178.05,173c-1.46-4.32-6.25-6.43-9.45-9.66a16.3,16.3,0,0,1,11.21-27.89m12.64,16.92c-5.68-3-9.42-8.86-15-12a13,13,0,0,0-4.19,23.29c1.27-3.16-.9-6.71-.24-10a6,6,0,0,1,11.85,1c-2.72-1.68-6.54.46-7.55,3.55s0,6.38,1.38,9.26a37.4,37.4,0,0,0,65.88,2.71c2.62-4.47,4.35-9.8,3.19-14.84s-5.82-9.5-11-9.07c-3.27.23-6.59.52-9.86.75-3.48.31-8.11-.22-8.73-3.67-4,9.45-16.68,13.95-25.74,9.14M207,149c3.65-1.76,6.16-5.26,8.25-8.72,1.39-2.43,2.72-5,2.91-7.85.27-5.61-4.27-10.45-9.23-13.13a14.65,14.65,0,0,0-5.44-1.78c-2.74-.25-5.5.78-8,2-4.46,2.16-8.87,5.27-10.46,10A13.91,13.91,0,0,0,187,141.6a22.17,22.17,0,0,0,10,7.69,12.43,12.43,0,0,0,10-.29m18.48-25.4a7.79,7.79,0,0,0-2.89,2.37c-2.34,3.54.6,8.92-1.92,12.32-1,1.38.68,3.43,2.44,3.47s3.24-1,4.74-1.93,3.45-1.58,4.92-.72c-.4,1.26.85,2.57,2.19,2.64a5.73,5.73,0,0,0,3.63-1.38c2.87-2.05,5.53-4.61,6.73-7.93s.56-7.44-2.21-9.6c-2.38-1.88-5.62-1.92-8.58-1.67a26,26,0,0,0-9,2.43M249.57,147a4.44,4.44,0,0,0-3.46-7.19,7.29,7.29,0,0,0-3.83,1.51c0,.75.1,1.43.17,2.11a16.49,16.49,0,0,1,7.12,3.57"/><path d="M283.36,187.87c-19,3.53-39.68,7.09-62.2,10.7l-3.87,0a141.28,141.28,0,0,0-23.13,2.76c-9.54,1.75-19.41,3.85-29.67,4.9a1.54,1.54,0,0,0-.91.41q-13.17,2-27.14,4.45l-1.35.19a1.71,1.71,0,0,0-.47.13l-5.77,1.06c-1.8.33-2.08,2.77-.16,3,4.87.64,9.69-.14,14.4-1.07,3.69-.73,7.32-1.55,10.91-2.36,37-4.37,69.3-8.22,98.13-14.43,1.46-.31,2.9-.63,4.34-1l.78-.12c8.69-1.33,17.32-2.14,25.78-6.41C284,189.68,284.44,187.67,283.36,187.87Z"/><path d="M274.06,197.7c-17.8,4-36.94,8-57.6,12.14-1.17,0-2.35.07-3.54.13a121,121,0,0,0-21,3.24c-8.58,1.93-17.42,4.18-26.58,5.43a1.32,1.32,0,0,0-.81.41q-11.68,2.2-24,4.86l-1.18.21a1.73,1.73,0,0,0-.42.14l-5.06,1.12c-1.57.36-1.79,2.7-.1,2.9,4.29.51,8.52-.34,12.66-1.32,3.26-.77,6.47-1.63,9.64-2.49,33.06-5,62.4-9.51,88.91-16.29,1.34-.34,2.68-.7,4-1.05l.73-.14c8.08-1.53,16.15-2.56,24-7C274.71,199.47,275.08,197.47,274.06,197.7Z"/><path d="M264.92,209.67c-.82-.78-2.1-.54-3.35-.23l-.09,0c0-.34-.18-.57-.58-.47q-5.11,1.29-10.37,2.57c-1,.07-2.1.17-3.19.35-3.31.55-6.71,1.46-10.15,2.29s-7.16,1.66-10.8,2.43c-15,3.2-30.87,5.89-47.77,9.28-10,2-20.39,4.27-31.09,7a1.75,1.75,0,0,0-.32.12c-2.85.62-5.73,1.28-8.63,2a23.39,23.39,0,0,0-6.63,1.62l-3.74.7a1.4,1.4,0,0,0-1.13,1c-.37,1.46.68,2.41,2.15,2.73l.11,0a1,1,0,0,0,.66.2,64.25,64.25,0,0,0,15.24-2.88c5-1.46,9.94-2.84,14.86-3.89,9.77-2.1,19.22-3.64,28.35-5.52l.92-.19,4.46-.76c2.64-.45,5.25-.93,7.83-1.42A159.36,159.36,0,0,0,218,224c7.38-1.63,14.6-4,21.63-6.22,5.26-1.67,10.43-3.26,15.45-4.43l1,0a13.11,13.11,0,0,0,8.54-2.21A1.08,1.08,0,0,0,264.92,209.67Z"/><path d="M124.75,213.21a71.9,71.9,0,0,0-15.19-6.34c-5.3-1.66-10.61-3.25-15.91-5l-4.59-1.55a93.15,93.15,0,0,0-12.78-5,57.92,57.92,0,0,1-8-2.81c-2.58-1.14-5.14-2.43-7.72-3.55a76.12,76.12,0,0,0-10.45-3.67c-2.47-1.06-5-2.14-7.42-3.25-1.07-.47-1.27,1.71-.27,2.29-.15.7.2,1.81.93,1.93a68.74,68.74,0,0,1,6.77,1.45q19.3,8.28,38.63,14.88l1.36.63c5.39,2.44,10.79,4.46,16.19,6.32,6.09,2.1,12.19,4,18.28,6C125.66,215.9,125.86,213.86,124.75,213.21Z"/><path d="M124.31,224.63c-15.55-7.89-31.11-15.77-46.68-23.41a81.61,81.61,0,0,0-8.9-5.23,75.15,75.15,0,0,0-10.16-4c-2-.93-3.94-1.87-5.91-2.79-.95-.45-1.21,1.22-.57,2a1.72,1.72,0,0,0,.95,1.48c1.8.54,3.59,1.07,5.39,1.65q9.51,4.51,19,9.19c1.17.76,2.33,1.54,3.49,2.32a161.19,161.19,0,0,0,27.44,14.86c5.25,2.23,10.51,4.23,15.76,6.23C125.22,227.38,125.43,225.19,124.31,224.63Z"/><path d="M123,236.17q-6-2.94-12-5.92L108.87,229c-4.77-2.76-9.55-5.47-14.36-7.87-3.65-1.83-7.33-3.3-11-4.75q-9.65-5-19.26-10.2a80.53,80.53,0,0,1-8.67-5.86q-1.73-1.55-3.42-3.21c-.47-.48-.87-.33-1.08.08-.63-.4-1.25-.79-1.89-1.15-1.22-.7-1.41,1.92-.2,2.61a66,66,0,0,1,6.49,4.43,77.81,77.81,0,0,0,22.65,13.77c1.75.69,3.5,1.37,5.25,2.07q11.28,5.83,22.59,11.52l4.28,2.14c4.23,2.59,8.56,5.35,12.81,6.3C124.14,239.1,124.06,236.69,123,236.17Z"/><path d="M125.78,168.33c-.16-.49-.51-.86-1-.79-8.07,1.1-16.13,2.24-24.2,3.37l-36.51,4.26-4.69.55-11.46,1.17a.76.76,0,0,0-.49.23l-.87.1c-1.29.15-1,2.88.29,2.73l3.12-.36c9.47-.27,18.85-1.66,28.22-2.93l4.49-.62c8.61-.95,17.21-2,25.79-3.18l5-.69,11.88-1.38C126.38,170.67,126.43,169,125.78,168.33Z"/><path class="cd2cbe3b-ea75-4239-b52a-a9d36cb1b770" d="M263.43,195.88c-23.72,2.81-47,8.23-70.4,12.75-11.7,2.25-23.46,4.28-35.3,5.61-5.64.63-11.36.89-17,1.88-5.35.94-10.86,4.11-16.31,3.53-2.61-.28-5.23-.69-7.84-1.15q-11.27-4.51-22.53-9c-9.06-3.59-18.24-6.86-27.85-8A14.45,14.45,0,0,0,58.1,201a3,3,0,0,0-2.4,3.51,6.05,6.05,0,0,0-1.46.08,2.92,2.92,0,0,0-2,4.56c6.9,10.6,18.6,15.89,30.16,19.86,3.34,1.14,6.69,2.26,10,3.44l.18.11c5.81,3.23,11.62,6.45,17.71,9.11,3.79,1.66,8.06,4,12.36,5,5.26,1.65,10.74.42,16.17-.56,7.45-1.35,14.84-3,22.24-4.68l19.36-4.27,32-6.21c7.93-1.54,15.86-3.06,23.79-4.62,7-1.38,14-2.91,20.52-6,2.7-1.29,2-6.28-1.34-5.53l-75.55,16.67-3.88.75-40.8,7.92c-3.15.61-6.89,1.9-10.08,1.19a23.24,23.24,0,0,1-2.4-.68,28.88,28.88,0,0,1-2.69-1.3l1,.25a2.6,2.6,0,0,0,2.88-1.37,2.66,2.66,0,0,0,2.17.64,29.44,29.44,0,0,0,11.61-3.76,2.31,2.31,0,0,0,1.08-1.19l4.42-1.08a2.22,2.22,0,0,0,1.67-1.59q26.72-3.54,53.12-9,18.93-3.92,37.62-8.82c6-1.57,12-3.06,17.93-5,4.83-1.57,9.36-3.83,12.49-7.94A2.91,2.91,0,0,0,263.43,195.88Zm-140.5,32.19-4.62.47a2.58,2.58,0,0,0-2.3,1.67c-7.24-3.87-15.08-6.84-22.65-10l1.21.2,5.21.88ZM82,213.13c-1.08-1-2.18-2.06-3.31-3.1q2.27.71,4.5,1.5A3.36,3.36,0,0,0,82,213.13Zm-12.17-3-7.78-3.35c.7,0,1.41.09,2.1.15A18.46,18.46,0,0,1,69.86,210.17Zm160.87-1.35q-18.64,4.8-37.53,8.6-29.12,5.87-58.63,9.35a2.46,2.46,0,0,0-1.49-1.68l-1.34-.54c1.72-.54,3.4-1.2,5.13-1.71a58.62,58.62,0,0,1,9.84-1.74c12.49-1.39,24.87-2.76,37.25-5s24.8-4.84,37.18-7.33c9.64-1.93,19.29-3.77,29-5.28l-1.81.53C242.49,205.73,236.61,207.3,230.73,208.82Z"/><path class="cd2cbe3b-ea75-4239-b52a-a9d36cb1b770" d="M218.21,192.6a15.14,15.14,0,0,0-10.16-1.32,112.18,112.18,0,0,0-16.36-1.4,26.33,26.33,0,0,0-7.39-4.16,28.1,28.1,0,0,0-6.11-1.49c-2.4-.29-4.87.15-7.23-.18s-4-2-6.26-2.65a22.85,22.85,0,0,0-6.28-.53c-5.85,0-11.7.14-17.55.25-4.92.09-22.71.06-21,8.77-.78.33-1.55.67-2.32,1-3.12,1.4-1.81,5.44,1.34,5.53q5.41.13,10.81-.15l.55.11a66.32,66.32,0,0,0,12.07,1.22,10.08,10.08,0,0,0,4.83,9.78c3.36,2,7.51,2.07,11.28,1.51,3.27-.5,7.18-1,9.54-3.5l.84-.23h.37a107.7,107.7,0,0,0,14.22-1.32,54.6,54.6,0,0,0,10.38-2.34c1-.2,2-.43,3-.7,1.66-.45,3.41-1.14,5.2-1.83a54.91,54.91,0,0,0,15.37-.91A2.9,2.9,0,0,0,218.21,192.6Z"/></g></g></svg>