<svg id="f1c8cc65-69b5-41c0-a9b3-ef1735aab16c" data-name="Layer 1" xmlns="http://www.w3.org/2000/svg" viewBox="0 0 300 300"><defs><style>.\32 28c9f63-7a5c-4f5d-93f9-3039be05c232{fill:#fff;}.c5ec384d-af4f-402e-b17a-bea9b51706dc{fill:#52df84;}.\37 2fedcef-5986-4743-9e82-8148ec7afda2{fill:#e6e6e6;}.a56603c1-36ff-4340-b47e-083009880af6{fill:#8b898a;}</style></defs><path class="228c9f63-7a5c-4f5d-93f9-3039be05c232" d="M247.83,129.31a13.1,13.1,0,0,0-4.21-9.13c4.4-9.19,10.22-17.87,9.81-28.54a12.46,12.46,0,0,0-12.22-12.22c-8.42-.16-16.5,4-22.25,9.94-5,5.23-8.13,11.61-11.41,18-2,3.84-4.16,7.51-6.16,11.29a11.9,11.9,0,0,0-9.12-4.14,12.56,12.56,0,0,0-11.78,9c-.29,1-.56,2-.83,3a33,33,0,0,0-6.24-2.4l-.25-.07-.12-.41A30.72,30.72,0,0,0,165.4,111a28.67,28.67,0,0,0-13.35-7.52c-6.82-1.47-13.15-.33-19.41,2.54A33.23,33.23,0,0,0,118.3,118.8a26.62,26.62,0,0,0-14.9,6A23.51,23.51,0,0,0,98,155a21.13,21.13,0,0,0-9.11,2.15,14.52,14.52,0,0,0-6.87,8.69,24.21,24.21,0,0,0-.47,7q.73,19.82.85,39.66.13,22.29-.52,44.58c-.18,6.26,5.76,12.69,12.22,12.22a387.93,387.93,0,0,1,39.62-.85c13.12.39,26.11,1.87,39.18,2.89a136.29,136.29,0,0,0,14.57.45,12.08,12.08,0,0,0,19.8,3.92c4.9-5.34,6.6-12,6.68-19.06.06-5.41-.13-10.84-.2-16.25s-.09-11.07-.38-16.59c-.3-5.91-1.12-11.74-1.93-17.59a67.48,67.48,0,0,1-.57-14.48c.89-5.2,2.38-10.39,3.14-15.63a10.24,10.24,0,0,0,1.54,1.78,12.54,12.54,0,0,0,14.75,1.94,12.74,12.74,0,0,0,1.86-.37,18.69,18.69,0,0,0,10.89-9,13.15,13.15,0,0,0,.07-12.31c1.6-3.77,1.78-7.77-.39-11.48a11.42,11.42,0,0,0-4.52-4.38c.27-.45.56-.89.84-1.33C244,139.42,248.07,134.69,247.83,129.31Z"/><path class="c5ec384d-af4f-402e-b17a-bea9b51706dc" d="M249.3,100.19c1.08-2.62,2-5.55,1.75-8.43-.33-3.39-2.39-5.94-5-8-5.51-4.4-12.3-4-17.95,0a50.34,50.34,0,0,0-13.78,15.62c-1.76,3-3.43,6-5.14,9a26.06,26.06,0,0,0-2.69,5.71c-.1.15-.2.3-.29.45l-.15-.1c-.51,5.83-3.32,12.64-9.69,12.09a3.62,3.62,0,0,1-1.46-.18c-1.07.53-2.77.14-2.72-1.28-2.55-1.86-3-5.11-2.34-8.41l-.15.19c-.2.18-.38.36-.56.55a4.79,4.79,0,0,0-1.26-.18A4.87,4.87,0,0,0,183.1,122a10,10,0,0,1-.43,2.12c-.25.93-.52,1.84-.69,2.79a11.82,11.82,0,0,0,.78,7.42,12.85,12.85,0,0,0,2.07,3,13.82,13.82,0,0,0,.75,1.93,12.18,12.18,0,0,0,5,5.25,23.06,23.06,0,0,0,3.69,4.45c4.09,4,14.63,9.6,17.95,1.68,1.26-3,.36-6.36-1.24-9.09a8,8,0,0,0,.31-.85l0-.05.3-.2a6.42,6.42,0,0,0,1.19,1.74,9.09,9.09,0,0,0,4,6.2,19.69,19.69,0,0,0,9.55,3.25c3.28.37,7,.23,9.78-1.69,3.3-2.25,4.17-5.77,4.48-9.52,0-.17,0-.28,0-.37.05-.3.12-.59.18-.89,0-.07.1-.25.15-.36s.35-.42.19-.28a33.16,33.16,0,0,0,3.21-3.06,9.56,9.56,0,0,0,2.42-5.66c0-.16,0-.35,0-.54a.64.64,0,0,0,.11-.16,4.68,4.68,0,0,0,.57-3c-.59-4.54-6.07-5.91-9.94-6h-.15c.92-1.2,1.76-2.48,2.61-3.73C243.45,111.21,246.93,105.94,249.3,100.19Z"/><path class="72fedcef-5986-4743-9e82-8148ec7afda2" d="M244.07,171.64c-.64-6.43-1.71-13.65-8.29-16.78-5-2.37-10.51-1.63-15.87-2.12q-2.67-.44-5.3-1.13a11.26,11.26,0,0,0-10.09,2.48,25.93,25.93,0,0,0-6.16-2.65,10.3,10.3,0,0,0-5.14-8.63c-2.28-1.31-4.52-2.68-6.71-4.14-1.1-.73-2.18-1.48-3.25-2.24l-1.32-1c-.56-.41-2.67-2-.21-.13-2.22-1.72-4.52-3.24-7.51-3.11a11,11,0,0,0-6.07,2l-.13-.14c-.25-.42-.52-.83-.76-1.26-2.22-3.94-7.61-6.31-12-4.89a11,11,0,0,0-7.72,9.28c-.08.14-.16.27-.21.38l-.16.16c-.26.16-.52.31-.79.45-.53.17-1.07.31-1.62.43a35.17,35.17,0,0,1-5.71-.18c-4-.6-7.88-1.35-11.82-2l-6.74-1.17-2.3-.39a.83.83,0,0,0-.07-.13,10.78,10.78,0,0,0-6.35-4.88c-5.22-1.19-12,1.57-13.07,7.42-1.17,6.27,1,11.59,6.25,15.15a22.27,22.27,0,0,0,8.88,3.15l1.77.3L91.6,158a11.37,11.37,0,0,0-7.51,3.11A10.8,10.8,0,0,0,81,168.63a11.74,11.74,0,0,0,1.31,4.81,15.46,15.46,0,0,0,.26,3.12c.51,2.86,1,5.73,1.39,8.61.33,2.63.61,5.27.81,7.91a140.23,140.23,0,0,0-1.49,20.62c0,3.71,0,7.43.07,11.14-1.39,10-2.74,20.18-1.41,30.28.36,2.8.9,5.49,3.11,7.52l.09.08-.12.69a11.79,11.79,0,0,0,.54,6.92,10.14,10.14,0,0,0,4.35,5.08,12.69,12.69,0,0,0,5.36,1.45c2.93.13,5.35-1.37,7.51-3.12a10.92,10.92,0,0,0,2.42-2.8c10-.33,20-.6,30.06-.6,13.08,0,26.1.64,39.13,1.77,3.64.32,7.29.61,10.95.67,1.49,0,3,0,4.46-.06a11.13,11.13,0,0,0,3.46,4.24,10.12,10.12,0,0,0,6.43,2.29,12.6,12.6,0,0,0,5.37-1.46c2.06-1.09,4.49-4,4.88-6.34,2.45-14.94,2.55-30.07,2.76-45.16q.3-22.08,0-44.17c0-3.07-.1-6.14-.16-9.21l1.92.36c2.34,5.09,7.16,9.77,12.54,11.45,3.5,1.1,7.84,1,11-1.07A12.89,12.89,0,0,0,244.07,171.64ZM87.21,266.75l-.2-.5c.39.62.85,1.24,1.36,1.9C88,267.68,87.6,267.22,87.21,266.75Zm71-17.1c.1-.19.2-.38.29-.58l.48.62Z"/><path class="a56603c1-36ff-4340-b47e-083009880af6" d="M193.43,204.56c-1.47-5.35-7.61-9.18-13.07-7.42a11.53,11.53,0,0,0-5.92,4.37,11.34,11.34,0,0,0-1.35-1.7,10.82,10.82,0,0,0-7.52-3.11c-6.17.28-10.1,4.68-10.62,10.62-.48,5.49,3.14,10.75,7.72,13.41,3.52,2,7.87,2.48,11.85,2.14s8.54-.82,12.2-2.83A13.62,13.62,0,0,0,193.43,204.56Z"/><path class="a56603c1-36ff-4340-b47e-083009880af6" d="M111,194.75c-.59-2.62-1.61-5.12-2.39-7.68-.13-.15-.26-.3-.38-.46a10.37,10.37,0,0,0-2.71-1.22c-.7,5.37-6.69,8.3-12,8.44l.12.43c2.39.8,4.38,2.19,4.35,5,0,1,.41,1.19,1.33,1.48a11.16,11.16,0,0,0,3.2.41,39,39,0,0,0,5.62-.17C111.68,200.53,111.69,197.69,111,194.75Z"/><path class="a56603c1-36ff-4340-b47e-083009880af6" d="M111.56,251.18l-.27-.13c-1.83-.85-4-1.93-4.46-3.66l-.81-.06a7.67,7.67,0,0,1-.35,5.16,5,5,0,0,1-5.52,2.35,3.69,3.69,0,0,1-2.86-3.59,9.65,9.65,0,0,0-2.41,6.68,11.63,11.63,0,0,0,.25,1.89,1.61,1.61,0,0,1,1.21.23,10.7,10.7,0,0,1,2.4,2.21c2.3.93,5.84.07,8,.17a32.57,32.57,0,0,0,4.47.18C112.7,259.32,112.54,255,111.56,251.18Z"/><g id="c55e2d04-51e4-4f07-9b8e-e24477fb7cec" data-name="pdf24 _2"><path d="M84,229.69c.51.36,0,1.31-.55,1.17a1.48,1.48,0,0,1-.16-1c.11-.33.62-.51.83-.25"/><path d="M207.46,50.12l-1.19-.06a1.2,1.2,0,0,1-.07-.79,1.05,1.05,0,0,1,1.41.85"/><path d="M200.9,116.59l0,.7a.86.86,0,0,1-.8-1.31c.26.22.52.44.8.65"/><path d="M185,15.7c-.27.38-1,.11-.92-.33a1.12,1.12,0,0,0,.81-.74l.93,0c-.27.35-.56.7-.82,1.05"/><path d="M242.24,152.08a2.63,2.63,0,0,1,1.17-1.89,1.43,1.43,0,0,1-1.15,1.8"/><path d="M78.63,148c0-.45-.12-.91-.19-1.34a2.87,2.87,0,0,1,1.15,1.57,1.67,1.67,0,0,1-1.2-.1"/><path d="M94.57,178.76a1,1,0,0,1,.14.94.5.5,0,0,1-.5.06,2.81,2.81,0,0,1,0-2.71,2.7,2.7,0,0,1,.33,1.74"/><path d="M206.69,20.36a12.07,12.07,0,0,1-2.65.58c.1-.32.19-.63.27-.92a4.55,4.55,0,0,1,2.38.34"/><path d="M187.33,205.13a4.59,4.59,0,0,1,.38,2.87,2.74,2.74,0,0,1-.38-2.87"/><path d="M193.17,168c.4-.35,1-.16,1.48-.11s1.17-.36,1-.82a1,1,0,0,1,.15,1,14.13,14.13,0,0,1-2.6-.08"/><path d="M94.93,184.12a1.35,1.35,0,0,1-.11.84.54.54,0,0,1-.74.23,20.11,20.11,0,0,1,.07-2.8.57.57,0,0,1,.7,0c0,.57.06,1.14.08,1.7"/><path d="M212.52,197.14c.06-.7.11-1.4.17-2.12a3.7,3.7,0,0,0,.55-.09,20.79,20.79,0,0,1-.07,2.85c-.08.2-.42.19-.54,0a1,1,0,0,1-.11-.64"/><path d="M194.87,143.78a5.34,5.34,0,0,1-.5-.43l-.5.43c-.08-.16-.17-.32-.27-.49a4.21,4.21,0,0,1,1.54-.56,1.39,1.39,0,0,1,1.4.66,3.66,3.66,0,0,0-1.67.24"/><path d="M83.85,222.33c-.59,0-.73-.85-.48-1.41s.65-1.14.38-1.68l.68-.1a10.21,10.21,0,0,1-.58,3.19"/><path d="M84.16,223.5a4.9,4.9,0,0,1,.21,2.68,1.07,1.07,0,0,1-.18.47.6.6,0,0,1-.86,0,7.27,7.27,0,0,1,.48-4.44.83.83,0,0,1,.35,1.24"/><path d="M103.69,259.31a8.27,8.27,0,0,1-4.12-.42c-.43-.16-.91-.45-.87-.9a11.28,11.28,0,0,1,5.49.67c.27.23-.16.6-.5.65"/><path d="M161,277.61a.92.92,0,0,1,.06.69,17,17,0,0,0-5.46.14,4.43,4.43,0,0,1,4.35-.61,1.06,1.06,0,0,1,1-.22"/><path d="M197.72,167.64a4.43,4.43,0,0,1,1.74,0,23.43,23.43,0,0,1-.36,4.71c-.64-.32-.76-1.21-.7-1.93a2.83,2.83,0,0,0-.31-2.1.41.41,0,0,0,.43-.41c-.27-.08-.54-.16-.8-.22"/><path d="M208.71,271.51a1.85,1.85,0,0,0,.38,1.64c.17.19.35.56.1.66-.65.27-.64,1.17-.61,1.9s-.26,1.64-1,1.61c0-1.77.1-3.53.21-5.31l.88-.5"/><path d="M226,170.51c-.57-.26-1.49.4-1.73-.2s.62-.72,1.17-.92c1-.34,1.32-1.56,1.51-2.62a3,3,0,0,1-1,4.23,2.67,2.67,0,0,0,0-.49"/><path d="M177.77,200.45a21.1,21.1,0,0,0-5.72.31.6.6,0,0,0-.43.48c-.14-.37.24-.71.59-.88a6.09,6.09,0,0,1,5.56.09"/><path d="M195.7,115.3c0,2.08.58,4.42-.63,6.1-.15.22-.47.41-.62.22-.06-1.2-.09-2.38-.13-3.58a5,5,0,0,1,.15-1.69,1.55,1.55,0,0,1,1.23-1"/><path d="M161.32,215.58c-.59-1.32-1.64-2.55-1.58-4a2.78,2.78,0,0,1,.91-1.84,25.22,25.22,0,0,0,1.42,5.8l-.75,0"/><path d="M198.5,227.74a1.24,1.24,0,0,1-.09-2,14.35,14.35,0,0,1-.35-3.53,1.1,1.1,0,0,1,.22-.74c.19-.19.57-.2.67.06a6.86,6.86,0,0,0,.13,3.51c.1.37-.17.72-.35,1.07s0,.93.37.88c-.21.22-.41.46-.6.7"/><path d="M224.25,156.05a9.66,9.66,0,0,1-1.05,6,1,1,0,0,1-.31.4.62.62,0,0,1-.44.13,3,3,0,0,1-.06-2.47c.27-1,.54-1.89.79-2.86.16-.58.49-1.26,1.07-1.21"/><path d="M108.93,150.51a.58.58,0,0,0,1,.12l2.32,1.13-7.45-.35c.1-.7,1-.91,1.74-.94.23,0,.45,0,.68,0,.45,0,1,0,1.15.48.17-.15.36-.28.52-.43"/><path d="M165.47,196.92c-.78,1.57-1.58,3.14-2.38,4.71a21.71,21.71,0,0,0-1,2.06,7.83,7.83,0,0,1,3.36-6.77"/><path d="M198.6,63.39c0-.34,0-.7-.06-1,.75-.12,1.52-.24,2.3-.3a12.87,12.87,0,0,1,6.7,1.45c.07.32-.41.44-.67.27s-.5-.46-.82-.45a1.8,1.8,0,0,0-.6.31c-.21.1-.55.09-.58-.14a32,32,0,0,1-6.27-.1"/><path d="M114.63,117c.13.2.25.4.37.6.16-.09.35-.19.51-.3,0-.25,0-.51-.05-.77A4.46,4.46,0,0,1,114.63,117Z"/><path d="M199.56,90.24a3.14,3.14,0,0,1,.64-1.91,6.49,6.49,0,0,1,3.3-1.91c.12-.49.23-1,.34-1.45a2.73,2.73,0,0,1,.59-1.29.92.92,0,0,1,1.27-.09,2.17,2.17,0,0,1,0,2.78,7,7,0,0,1-2.37,1.83,5.56,5.56,0,0,0-2.27,2c.12-.11.32.06.31.22s-.13.26-.2.42a.85.85,0,0,0,.33,1.1,1.17,1.17,0,0,1-1.44-.21,2,2,0,0,1-.52-1.45"/><path d="M197.86,246.86c.3-.1.6-.2.9-.32,0,1.2,0,2.38,0,3.55,0,.66,0,1.32,0,2a4.94,4.94,0,0,1-.27,3.77c.39,0,.33.6.11.93s-.24,1,.14.94a2.36,2.36,0,0,0-.59,1.55,5.3,5.3,0,0,1-1-4.5,27.21,27.21,0,0,0,.73-7.89"/><path d="M154.68,166.77a4.89,4.89,0,0,1,3.82.52c-.14.16-.26.33-.38.48-3.7.1-7.39.13-11.08.11a11.87,11.87,0,0,1-5.14-.83,10,10,0,0,1,3.86.16,1.21,1.21,0,0,0,.86,0c1.89-1.11,4.42.31,6.41-.6.29.54,1.07.33,1.65.17"/><path d="M169.11,202.14a5.53,5.53,0,0,1-1.11,1.42,5.49,5.49,0,0,0-1.25,2.68l.24.46c-.33-.1-.49.41-.44.77a13.15,13.15,0,0,0,.76,3.57,16.71,16.71,0,0,0,1.88,3.19,7.85,7.85,0,0,1-4-8.22c.39-2.11,2.05-4.21,4.2-4.15.08-.18.13-.36.21-.53a1.84,1.84,0,0,1,.05,1.2c-.19-.12-.39-.25-.57-.39"/><path d="M207.71,248.77c-.14-.41.18-.82.33-1.25s-.08-1.06-.5-.93a1.66,1.66,0,0,0,.31-2.22c.23-.08.29-.37.33-.62.15-1.33.3-2.68.46-4a5.86,5.86,0,0,0,0-2.17c-.14-.46.2-.92.4-1.39s.19-1.12-.3-1.26a1.4,1.4,0,0,0,.65-.78q-.2,6.86-.43,13.7c-.18.1-.37.23-.56.33a3,3,0,0,1-.44,3.11,4.77,4.77,0,0,0-.22-2.51"/><path d="M82.08,143.47a10.07,10.07,0,0,0,3.09-.67l7.45-2.5c.33.2.66.42,1,.64a3.33,3.33,0,0,1-1.82,1.18l-6.87,2.52c-.51.18-1.13.51-1.09,1.06,0-.55-.86-.47-1.35-.22-.81.41-1.62.85-2.44,1.26-.23.13-.53.23-.72.08-.46-.34.37-1.14.05-1.63a3.29,3.29,0,0,0,1.91-1.13c.22-.26.46-.59.8-.59"/><path d="M181.7,207.29a8.86,8.86,0,0,1-2,7,5.84,5.84,0,0,1-4.37,1.88,10.89,10.89,0,0,1-4.72-1.16c1.31-.39,2.72.07,4.07,0a6.12,6.12,0,0,0,5.23-3.15,8.79,8.79,0,0,0,.61-5.76c.56-.34,1.11.48,1.21,1.12"/><path d="M106,186.57c.22,1.24.41,2.47.62,3.7a1.56,1.56,0,0,1-.17,1.26c-1,1,.76,3-.2,4-.78.85-2.28-.06-3.32.39a11.83,11.83,0,0,1-6.8.74c1-1.11,2.74-.46,4.19-.57a9.58,9.58,0,0,0,1.32-.23c1.29-.33,2.59-.65,3.88-1a2.47,2.47,0,0,0-.22-2c1.12-1.67,0-3.92.16-5.92,0-.32.44-.69.54-.39"/><path d="M105.43,248.78a12.92,12.92,0,0,0-.06-4.92c0-.27,0-.61.22-.67a17.58,17.58,0,0,1,.07-5.79.77.77,0,0,1,.46,1.31c.14.8.28,1.6.4,2.38.1.45.11,1-.3,1.23a2.15,2.15,0,0,1,.6,1.59c.27,3.29.53,6.57.8,9.84.06.66-.57,1.53,0,1.83a.64.64,0,0,1-1,.23,1.7,1.7,0,0,1-.52-1.07,11.16,11.16,0,0,1-.07-3.74c.13-.83.19-2-.62-2.22"/><path d="M97.36,253.92c-.44.09-.68-.53-.66-1s0-1.06-.42-1.19c.12-.13.27-.26.38-.39-.23-.78-.44-1.56-.65-2.34a.48.48,0,0,0,.41-.62,4.88,4.88,0,0,1-1-3.14c-.2-2.53-.37-5.05-.57-7.57a6.2,6.2,0,0,1,.08-2.15A2.2,2.2,0,0,1,96.33,234a2.21,2.21,0,0,1-.07,1.54,1.14,1.14,0,0,0-.1.61,29.34,29.34,0,0,0,.86,7.28c0,.13-.08.25-.13.38.26,2,.51,3.94.76,5.92a7.14,7.14,0,0,1-.29,4.18"/><path d="M172.07,238.59a.74.74,0,0,1-.21-.85,2.22,2.22,0,0,1-.68-1.52,7.29,7.29,0,0,1,0-3.74,3.64,3.64,0,0,1,1.38-1.81,2.18,2.18,0,0,1,2.21-.35,2.73,2.73,0,0,1,1.12,1.25,9.6,9.6,0,0,1,1,3.34,4.38,4.38,0,0,1-1.09,3.77,2.85,2.85,0,0,1-3.77-.09m3.32-6.18.29-.37a1.42,1.42,0,0,0-2.5-.17,3,3,0,0,0-.19,1.06c0,1.67-.09,3.35-.15,5,.08.75,1.18.94,1.75.47a3,3,0,0,0,.77-2,25.19,25.19,0,0,0,0-4"/><path d="M199.37,36.65c.07.43-.6.38-1,.4s-.79.33-1.2.42-1-.25-.81-.62A1.6,1.6,0,0,0,196,38c-.62-.28-1.54-.44-1.75.19-.06.2-.29.28-.47.34A13.55,13.55,0,0,0,188,42c-.88-1.45.23-3.5,1.82-4.06,1-.36,2.23-.3,3-1l4.67-1.13,1-.23a21.7,21.7,0,0,1,6.63-.36,1.55,1.55,0,0,1-2,.62,1,1,0,0,1-1.6.27c.11.41-.48.59-.91.59l-1.25,0"/><path d="M170.59,277.23a3,3,0,0,0,1.3.29c4.11.24,8.22.48,12.3.74.59,0,1.35.22,1.39.81-1.56-.07-3.12-.12-4.68-.2-1.92-.07-3.84-.14-5.76-.23-4.52-.17-9-.34-13.53-.53-.22-.26,0-.67.35-.77a1.65,1.65,0,0,1,.59,0c2.08.05,4.14.13,6.22.18a3.53,3.53,0,0,0,1.82-.25"/><path d="M200.06,74.17c-1.25-.87-1.12-2.72-.87-4.21a5.12,5.12,0,0,1,1.49-1.19,1.73,1.73,0,0,1,1.8.17,15.13,15.13,0,0,1,4.08-2.13c.7-.35,1.37-.71,2.05-1a.84.84,0,0,0-.46-.45c.29.08.52-.34.49-.66s-.15-.68,0-.94a1.76,1.76,0,0,1,2.94.5,2.28,2.28,0,0,1-.69,2.25,6.92,6.92,0,0,1-2.15,1.26l-3.21,1.36c-.3-.4-.91-.27-1.38,0a2,2,0,0,1-1.4.38,1.52,1.52,0,0,0-1.63.95,4.43,4.43,0,0,0-.2,2,1.79,1.79,0,0,0,.39,1.27c.56.52,1.75.33,1.94,1.09-1.1-.19-2.34,0-3.23-.59"/><path d="M199.94,184.17c-.13-1.14-.28-2.38-.4-3.65-.29,5.71-.56,11.44-.85,17.14a2.83,2.83,0,0,0,.44,2.1,32,32,0,0,0,1.3-7.29l.18-1.9C200.39,188.44,200.17,186.3,199.94,184.17Z"/><path d="M84.05,234.38c-.17.22-.34.41-.51.63a16.34,16.34,0,0,1,.8,6.11,253.39,253.39,0,0,0,1.47,26.55c-1.63-1.3-2-3.62-2.15-5.71-.79-8.53-1.56-17.1-1.06-25.63a4.48,4.48,0,0,1,.59-2.38l.86.43"/><path d="M159.3,172.38c-1-1.9-.14-4.17.7-6.15q4.94-11.5,9.84-23c.32-.73.73-1.55,1.5-1.74.88,2.92-.42,6-1.7,8.73q-5.19,11.13-10.34,22.21"/><path d="M201.69,43.12a1.2,1.2,0,0,1,.14.8,10.47,10.47,0,0,0-7.12,5.14c2.41-.18,4.81-.36,7.25-.56.63,0,1.59.26,1.38.88.1-.24.2-.46.31-.69A1.06,1.06,0,0,0,205,48.6a1.59,1.59,0,0,1,.75,1.24c-.43.09-.87.16-1.3.23a44.45,44.45,0,0,0-7.39.26,8.49,8.49,0,0,1-2.56.06,2.54,2.54,0,0,1-2-1.5,2.5,2.5,0,0,1,.8-2.5,7.52,7.52,0,0,1,2.4-1.38,58.49,58.49,0,0,0,10-5.66c1.74-1.23,4.5-.42,5.89-2-.59-.44-1.2-.87-1.79-1.33a11.94,11.94,0,0,0-4.09-.24c-.14-.39.51-.75.77-.42a.67.67,0,0,1,.47-.79,2.2,2.2,0,0,1,1,0,14.3,14.3,0,0,0,6.14-.29,2.58,2.58,0,0,1-.15,3.23,7.91,7.91,0,0,1-2.88,2l-7.71,3.64c-.58.26-1.33.48-1.72,0"/><path d="M192.09,277.85a105.39,105.39,0,0,0,10.66.39.52.52,0,0,0,.54.7q17.09,2.55,34.19,5.05c1.19.17,2.64.62,2.76,1.81Q217,282,193.52,279.68c-1.74-.17-3.61-.4-4.86-1.61s-1.25-3.77.39-4.38c1.06.57.34,2.37,1.06,3.36a2.72,2.72,0,0,0,2,.8"/><path d="M104.92,175.91c.41-1.93-1.72-3.46-3.68-3.71-3.19-.4-6.72,1.47-7.66,4.57-1.53-1.57-.14-4.76,2.06-4.72s3.27-3.09,1.7-4.45c8.9-1.93,18.11-1.77,27.22-1.58,5.81.12,11.69.24,17.38,1.53l-29.1-.23c-4.55,0-9.3,0-13.3,2.13a.67.67,0,0,1-.14,1.05c1.58,1,3.85.53,5.29,1.7s1.39,3.1,1.33,4.84c-.1,2.51-.2,5-.32,7.55a14.89,14.89,0,0,1-.78-8.68"/><path d="M68.25,281.42q24.47-2.51,49.06-3.51,16-.63,31.95-.61a13.16,13.16,0,0,1,6.05.95q-43.12.53-86.08,4.55a1.91,1.91,0,0,1-1.29-.18c-.37-.24-.47-.88-.1-1.09a.81.81,0,0,1,.41-.11"/><path d="M219.33,179.65a7.81,7.81,0,0,0,2.86.66,24.36,24.36,0,0,0,14.19-3.11c3.84-2.19,7.2-5.75,7.84-10.11s-2.25-9.34-6.64-9.82c-1.31-.13-1.19-2.12-.51-3.24s1.55-2.64.63-3.57a3.59,3.59,0,0,1,.63,5.74c4.31.7,7.48,5,7.61,9.37s-2.35,8.51-5.81,11.2a26.63,26.63,0,0,1-12,4.81,17.79,17.79,0,0,1-7.92-.06,7.9,7.9,0,0,1-5.59-5.24,11.9,11.9,0,0,1-.17-3.63c.3-5.28.57-10.57.85-15.88.05-.58.15-1.28.7-1.5a33.79,33.79,0,0,1,.52,11.43,35.34,35.34,0,0,0-.6,7.08c.18,2.36,1.28,4.82,3.43,5.87"/><path d="M107.91,273.37c.92.18,1,1.63.34,2.28a4,4,0,0,1-2.68.71c-4.94.1-9.9.18-14.84.29a5.64,5.64,0,0,1-1.91-.21c-2.3-.76-2.51-3.9-2.33-6.31,27.12,1.33,73.29,1.63,100.43.84.74,0,1.77.26,1.65,1-12.1.14-43.17.29-55.26.44-15.06.19-30.22.4-45.15-1.65a3.27,3.27,0,0,0,1.67,4.41,6.46,6.46,0,0,0,2.07.25l12.08.15c1.7,0,4-.54,3.93-2.21"/><path d="M191.58,21.52a.75.75,0,0,0-1.22.55c-.52-.13-1-.27-1.57-.39a2.31,2.31,0,0,1-2.45,2,1.05,1.05,0,0,1-.13,1.42,4.25,4.25,0,0,0-3,2.73,126.69,126.69,0,0,0,12.92-4.68c4.42-.43,8.82-.69,13.24-.73a.94.94,0,0,1,0,1.31,78.26,78.26,0,0,0-23.71,5.48c-2.38,1-4.88,2.08-7.44,1.73a3.37,3.37,0,0,1,1-3.78A14,14,0,0,1,182.79,25a49.59,49.59,0,0,0,4.82-2.85q7.6-4.8,15.59-9c.85.34,1.8-.64,1.66-1.53A2.32,2.32,0,0,0,202.93,10a7.94,7.94,0,0,0-2.7.19c-8.74,1.49-18.45-.58-26,4-.77.47-1.68-.78-1.28-1.6a3.11,3.11,0,0,1,2.24-1.41,70.76,70.76,0,0,1,22.39-2.35c1.53.1,3.32.11,4.28-1.09.19.31.41.59.6.89a1.24,1.24,0,0,1,.94-.93,2,2,0,0,0,2.29,2,1.64,1.64,0,0,1,.1-1.73A2.2,2.2,0,0,0,204,7.55a2.34,2.34,0,0,1,2.91.3,3.36,3.36,0,0,1,.86,2.92c-.45,2.65-3.17,4.19-5.6,5.37L193,20.52l-1.41,1"/><path d="M184.68,191.9c-1.81-2.05-5-2-7.68-1.79-5.91.47-12.42,1.2-16.41,5.58-3.27,3.58-4,8.75-4.4,13.6a12.78,12.78,0,0,0,.27,4.74,9.65,9.65,0,0,0,3.12,4.29,20.24,20.24,0,0,0,15.16,4.89,20.47,20.47,0,0,0,14-7.69,15.3,15.3,0,0,0,2.75-5.35C193.17,203.62,189.17,197,184.68,191.9Zm5.4,15.33a9.56,9.56,0,0,1-1.25,3.5,24.16,24.16,0,0,1-3.9,5.88c-5.13,5.37-13.9,5.72-20.78,2.88-2.51-1-5-2.66-5.94-5.24a11.8,11.8,0,0,1-.15-5.26c.56-4.77,1.38-10,5-13.11a13.3,13.3,0,0,1,4.37-2.35,6.82,6.82,0,0,1,4-1.54,17.06,17.06,0,0,1,2.82-.52l1.72-.34a1.92,1.92,0,0,1,.89.06,6,6,0,0,1,.74-.05,1.46,1.46,0,0,1,.64-.19,5.83,5.83,0,0,1,1.18.05h0a2,2,0,0,1,.24,0,2,2,0,0,1,1.42.06c4.57,2.35,6.58,7.72,8.2,12.6A9.72,9.72,0,0,1,190.08,207.23Z"/><path d="M205.45,119.7c-.7-.08-1.4-.13-2.07-.21a9.79,9.79,0,0,1-3.19,6.64,8.36,8.36,0,0,1-7.14,2.13,6.52,6.52,0,0,1-5.12-5.18c-.29-2,.44-4-.13-5.91a3.39,3.39,0,0,1,1.64-3.59,9.81,9.81,0,0,1,4-1.19c.16,1-1.16,1.62-2.19,1.89s-2.29,1.11-1.89,2.08a2.43,2.43,0,0,1,2,.84,6.9,6.9,0,0,0-1.07,5.88,4.74,4.74,0,0,0,4.64,3.37,5.68,5.68,0,0,0,3.22-1.64,8.92,8.92,0,0,0,2.74-7c.64.23,1.29.44,1.93.68,3-4.84,4.59-10.4,7.32-15.39,3.4-6.24,8.49-11.39,13.51-16.45a20.13,20.13,0,0,1,19.52-5c-.18.92,1.84,0,2.37.72.17.26.08.62.21.89s.73.2.57-.08a14.83,14.83,0,0,1,4.24,10.66,23.63,23.63,0,0,1-1.31,6.68,68.36,68.36,0,0,1-7.44,15.92,6,6,0,0,0-1,2.17,1.83,1.83,0,0,0,1.06,2c-2.71-.67-4.76,2.42-7.35,3.5a19,19,0,0,1-3,.79c-4.76,1.26-8,5.52-10.88,9.51a4.86,4.86,0,0,1,2.95-4.55c.56-.22.26-1.16-.32-1.31a2.14,2.14,0,0,0-1.61.61,32.77,32.77,0,0,0-7,7.43c-1.49,2.15-2.65,5.21-.93,7.2.62.71,1.59,1.27,1.63,2.2a4.79,4.79,0,0,0,2.87,3.9,12.47,12.47,0,0,0,5,.94c5,.21,10.6-.47,13.7-4.38a1.81,1.81,0,0,0,.47-1.27c-.07-.45-.71-.8-1-.45a14.93,14.93,0,0,1-15.52,3.54,3.53,3.53,0,0,1-1.71-1.1,3.67,3.67,0,0,1-.15-2.95,28.49,28.49,0,0,1,12-17,3.82,3.82,0,0,1,2.1-.81,1.43,1.43,0,0,1,1.45,1.41c-6.27,2.44-10.56,8.39-13.15,14.61a6,6,0,0,0-.66,3.11,2.32,2.32,0,0,0,2,2.16,20.49,20.49,0,0,0,10.81-2.21,14,14,0,0,0,6.94-8.36,10.09,10.09,0,0,1,.82-2.45,13.7,13.7,0,0,1,2.26-2.31,7.49,7.49,0,0,0,1.81-7.3c-.45-1.45-2.49-1.79-3.77-1a7.46,7.46,0,0,0-2.6,3.58c-.27.58-1.28.33-1.48-.29a2.27,2.27,0,0,1,.45-1.81c1.21-2,3.16-4,5.51-3.84,3.06.24,4.64,4.09,3.94,7.09s-2.8,5.41-4.31,8.1-2.38,5.51-3.76,8.16-3.32,5.23-6.11,6.32a12.53,12.53,0,0,1-3.71.72,31.45,31.45,0,0,1-10.05-.81,7.46,7.46,0,0,1-4.26-2.33c-1-1.43-1.26-3.64-2.9-4.37a7.91,7.91,0,0,0-.13,6.24c-1.57,0-2.28-2-2-3.56s1-3.06.74-4.59c-.66-3.29,1.1-6.6,3.31-9.12,5.31-6.06,13.15-9.15,20.69-12,3.3-1.27,5-4.83,6.48-8.07,1.17-2.68,2.36-5.37,3.53-8,1.67-3.79,3.35-7.67,3.52-11.78S247,85,243.39,83a16.3,16.3,0,0,0-4-1.39l-2.34.57c-1.09.26-2.19.53-3.28.9-5.72,1.93-10.32,6.3-14.17,11a80,80,0,0,0-14.1,25.63"/><path d="M184.07,134.62a16.72,16.72,0,0,1,1.75-15.69,10.88,10.88,0,0,0-5.17,9.58,7,7,0,0,0-8.31.57c-.54-4.3-1.09-8.6-1.65-12.93-.14-1.13-.29-2.28-.48-3.42a2.85,2.85,0,0,1-1.23-1.27c-.26-.56-.53-1.11-.8-1.66a28,28,0,0,0-46.65,7.68c-6.43.89-12.92,2.71-18,6.72S95,134.73,95.93,141.14c.37,2.26-2.23,3.69-4.34,4.54a62.79,62.79,0,0,0-18.65,11.88c-2.25,2.07-4.5,5.2-3.07,7.9a57.9,57.9,0,0,1,24.06-18.83,2.21,2.21,0,0,1,1.3-.27,2.29,2.29,0,0,1,1.16.78c2,2,4,3.92,6,5.89l-22.21,3.5A435.76,435.76,0,0,0,83.85,218,73.87,73.87,0,0,0,84,205.29q-1.14-24-2.27-48c2.77.45,5.6-.19,8.37-.69,23.2-4.22,47.27.42,70.59-3.07-.52-.91-1.81-1-2.87-1q-20.57.39-41.1.74a36,36,0,0,1-10-.74c-3.24-.88-6.32-2.82-7.83-5.79l5.95-2.2c-1.23-1.76-4.47.15-6.1-1.29a3.24,3.24,0,0,1-.81-2.37c-.25-4.81,2.08-9.52,5.48-12.94a34.15,34.15,0,0,1,12.3-7.4,11.37,11.37,0,0,1,4.64-1c3.86.25,6.47,4,8.51,7.26a10.51,10.51,0,0,0-.68-6.57c-.36.84-.72,1.66-1.07,2.5-2.51-2.08-2.7-6.08-1.23-9s4.26-4.92,7.08-6.57c5.24-3.08,11.21-5.35,17.28-5a21.36,21.36,0,0,1,15.49,8.55,22.09,22.09,0,0,1,3.79,17.31c-.35,1.77-.9,3.76.07,5.3a8.32,8.32,0,0,1,6-4.42c2.57-.31,5.37,1.32,5.86,3.85a14.26,14.26,0,0,0,11.64,11.22A19,19,0,0,1,184.07,134.62Z"/></g><path d="M214.94,169.22c1.28,31.81-2.3,63.59-5.87,95.22a2.2,2.2,0,0,1-.52,1.41c-.36.34-1.11.32-1.26-.17a870.91,870.91,0,0,0,6.3-101.05c1.16,1.16,1.31,3,1.35,4.59"/><path d="M96.14,254.54a.53.53,0,0,0-.32.32c3.49,1.37,7,2.45,10.61,1.17.21-.06.44-.19.62-.95a22.85,22.85,0,0,1-9.51-.69A4.43,4.43,0,0,0,96.14,254.54Z"/><path d="M94.45,194.18a.58.58,0,0,0-.32.33c3.49,1.36,7,2.44,10.61,1.16.21,0,.44-.19.62-.94a22.86,22.86,0,0,1-9.51-.7A4.43,4.43,0,0,0,94.45,194.18Z"/><path d="M198,256.73a9.34,9.34,0,0,0,.38,2.56c1.52-27.57,2.71-55.32,1.19-83.7a10,10,0,0,0-1.1-4.88q.83,37.78-.66,75C197.87,249.29,197.84,253.21,198,256.73Z"/><path d="M98.24,232.16a1.9,1.9,0,0,0,.47,1c1.08-11.43,1.79-22.92-.53-34.49a2.33,2.33,0,0,0-1.32-1.93,186.47,186.47,0,0,1,.92,30.86A35.46,35.46,0,0,0,98.24,232.16Z"/><path d="M215.51,156.49A2.71,2.71,0,0,0,217,156c-15.4-2.75-30.92-5-46.93-3.56a3.29,3.29,0,0,0-2.79,1.43,273.61,273.61,0,0,1,42,2.62A53.75,53.75,0,0,0,215.51,156.49Z"/><path d="M105.12,233.39a11.13,11.13,0,0,0-7.26.53c-.18.06-.37.19-.55.64a9.17,9.17,0,0,1,5-.1,27.77,27.77,0,0,1,3.37.87c0-.07,0-.14,0-.21A7.84,7.84,0,0,0,105.12,233.39Z"/><path d="M94,183.54c.12-2.8.35-5.53.61-8.25l-.21-.1a5.28,5.28,0,0,0-1.18,1,32.93,32.93,0,0,1,0,4,30.63,30.63,0,0,0-.37,4.76,35.58,35.58,0,0,1,.58,4.72c0,.68-.06,1.35-.09,2,.15.93.32,1.87.52,2.81a2.11,2.11,0,0,0,.69,1.32A54.37,54.37,0,0,1,94,183.54Z"/><path d="M196.78,167.66l.21-.28-1.21-.18c-3.14-.18-6.32,0-9.47-.1-6.23-.26-12.44-.39-18.67-.4l-.8.11a2.56,2.56,0,0,0-1.91,1,1.49,1.49,0,0,1,1.07-.22,57.94,57.94,0,0,0,10.78.21c3.4-.11,6.78,0,10.18.17l4.17.22C193.08,167.55,195.33,167,196.78,167.66Z"/><path d="M186.7,259.67a4.52,4.52,0,0,0,.54-.28l-3.13-.17c-8.14-.19-16.38,0-24.54-.11-16.15-.25-32.24-.39-48.4-.4l-2.08.11a12.46,12.46,0,0,0-4.94,1,9.37,9.37,0,0,1,2.77-.22c9.25.55,18.64.34,28,.22,8.82-.11,17.58,0,26.39.17l10.81.21C177.1,259.56,183,259,186.7,259.67Z"/></svg>