<svg id="ed097345-c4b4-4a69-b242-d3aff3b94393" data-name="Layer 1" xmlns="http://www.w3.org/2000/svg" viewBox="0 0 300 300"><defs><style>.\31 42ee731-ea16-4657-89d8-2b08730c8071{fill:#fff;}.af3d02b8-32a5-41ce-b7d0-a37fade7101e{fill:#52df84;}.\30 5df6828-a5f2-4030-84b2-5077478c0cd2{fill:#e6e6e6;}.\35 b924e2a-6871-4a39-a0d2-0c82a10fd9c5{fill:#8b898a;}</style></defs><path class="142ee731-ea16-4657-89d8-2b08730c8071" d="M212.25,166.69a12.87,12.87,0,0,0-3.49-2.6c-1-.53-3.62-.94-4.32-1.41-1.11-.75-.94-4.52-1.05-6.11-.3-4.46-1.07-8.76-4.07-12.26-4.66-5.44-12.88-6.7-19.63-7.09-7.44-.42-14.91,1.42-19.94,7.21-.92,1.06-1.74,2.2-2.69,3.24,0,0-1.5,1.52-1.12,1.17-1.25,1.15-.74.23-.43.24.67,0-.6-.61-.36-.28-.72-1-.69-2.27-1-3.75a10.2,10.2,0,0,0-5-6.84A94.69,94.69,0,0,0,160.46,130a5.57,5.57,0,0,0,1.89-4,29.2,29.2,0,0,0,4.71-7.13,39.47,39.47,0,0,0,5.31-5.1c3.42-4,5.62-9.17,4.13-14.52s-5.84-9.28-10.94-11.26c-10.41-4.06-21.79,1.29-31.1,5.9A11.23,11.23,0,0,0,136.87,89a1.55,1.55,0,0,1,0-.21c3.16-5.73,1.15-12.51-4-15.26a33.48,33.48,0,0,0-6.82-7.19c-9.06-7-24.37-9.07-34.9-3.5a11.65,11.65,0,0,0-3.3-3.3c-5.49-3.61-11.61-1.61-17.11.74C61.75,64.14,50.33,72,53.71,83.55c1.78,6.09,7.46,8.53,13,6.89a18.38,18.38,0,0,0,11.67,1.63,22.44,22.44,0,0,0,3.84,11,24.55,24.55,0,0,0,0,3c.31,4.49,3.51,6.88,7.87,6.35.62-.07,1.24-.17,1.86-.27a30.59,30.59,0,0,0,5,2.31c-.61.44-1.22.91-1.82,1.4-1.87,1.53-3.62,3.24-5.59,4.64-2.25,1.6-4.66,2.82-6.07,5.33a8.58,8.58,0,0,0-.21,8.13,7.76,7.76,0,0,0,.56,6,10.44,10.44,0,0,0,6.42,4.66,48.66,48.66,0,0,0,15.44,2.07,52.06,52.06,0,0,1,9.5,0c-5.5,11.91-9.56,25.46-.45,36.85a19.38,19.38,0,0,0,8,5.84,21.36,21.36,0,0,0,4.74,1.11c1.27.19,3.07.12,4.22.76,2.25,1.26,4,4.39,5.72,6.36,2.4,2.82,4.7,5.77,7.26,8.45a17.64,17.64,0,0,0,9.31,5.53c4,.79,8.29-.21,12.17-1.41A59.18,59.18,0,0,0,186,199.52c2.4-1.93,4.61-5,7.75-5.7,3.39-.71,6.64-.73,9.92-2,6.64-2.49,12-7.9,12.11-15.35A14.32,14.32,0,0,0,212.25,166.69Z"/><path class="af3d02b8-32a5-41ce-b7d0-a37fade7101e" d="M166.69,89.62a29.53,29.53,0,0,0-11.55-1.36,37.86,37.86,0,0,0-9.26.94c-8.25,1.88-15.44,6.63-21.92,11.89a114.23,114.23,0,0,0-12.09,11.39l-.18.06c-5.46,1.51-11.32,1.72-16.66,3.62a16.73,16.73,0,0,0-5.92,3.45c-.46.28-.92.57-1.36.9a14.6,14.6,0,0,0-4.38,5.18c-5.9,4.53-4.08,12.84,1.82,16.67a16.64,16.64,0,0,0,10.15,2.33c1.54-.11,3-.34,4.37-.53a26.08,26.08,0,0,0,17,5.22q1.36-.12,2.7-.33a15.06,15.06,0,0,0,1.62.66,10.22,10.22,0,0,0,5.61.45,21.55,21.55,0,0,0,8.91-4.55c.37-.29.73-.6,1.08-.91a55.36,55.36,0,0,0,7.23-3.71,62.07,62.07,0,0,0,13.26-10.74,73.23,73.23,0,0,1,5.67-6c1.81-1.56,4.24-2.86,5.94-4.8a30.15,30.15,0,0,0,4.29-7c1.34-2.81,2.61-5.67,2.76-8.83A14.24,14.24,0,0,0,166.69,89.62Zm-66.8,38.31c-.78,1.15-1.6,2.37-2.29,3.63l-.67,0c-.53,0-1.06,0-1.58,0l-1-.07a31.1,31.1,0,0,0,1.94-2.72A19.92,19.92,0,0,1,99.89,127.93Z"/><path class="05df6828-a5f2-4030-84b2-5077478c0cd2" d="M202.89,179.78c2.5-5.93,4.18-12.31,2.42-18.73-2.3-8.34-10-15.86-19.15-15.41a16.8,16.8,0,0,0-4.84.89c-4.72-2.61-11.24-2.31-15.09,1.87-2.49,2.71-5,5.41-7.57,8.06a11.41,11.41,0,0,0-1.42-3.57,14.13,14.13,0,0,0-9.89-6.86c-4.85-.78-8.83.89-13.22,2.75a35.14,35.14,0,0,0-6.54,3.63A51.53,51.53,0,0,0,113.35,167c-3.6,5.64-1.64,14.28,4.31,17.54a14,14,0,0,0,5.27,1.66,14.13,14.13,0,0,0,7.5,10.92,15.39,15.39,0,0,0,5.13,1.78,17.72,17.72,0,0,0,4.36,10.36c5.7,6.12,14.92,6,22.56,5a44.25,44.25,0,0,0,16.22-5.67A52.44,52.44,0,0,0,189,200.7a46,46,0,0,0,6.11-1.83c3.3-1.24,6-2.65,7.88-5.78a13,13,0,0,0,1.47-9.67A16.44,16.44,0,0,0,202.89,179.78Zm-39.66-27.42-.06.1c-.28.31-.55.63-.82,1C162.25,153.47,162.42,153.22,163.23,152.36ZM168.82,183c2.6-2.59,5.26-5.09,7.83-7.66-.28.46-.56.92-.85,1.37s-.63,1-1,1.42a14.73,14.73,0,0,0-4.23,4.3,10.82,10.82,0,0,0-.51,1c-.54.49-1.09,1-1.66,1.44-1,.68-2.07,1.31-3.14,1.9C166.42,185.44,167.6,184.21,168.82,183Z"/><path class="05df6828-a5f2-4030-84b2-5077478c0cd2" d="M83.38,89.54c1.25-2.12.38-1,0,0Z"/><path class="05df6828-a5f2-4030-84b2-5077478c0cd2" d="M86.43,66.52c-4.6-4.34-13.49-5.76-18.07-.28A50.21,50.21,0,0,0,57.85,85.62c-1.72,6.46,1.8,14.17,8.62,15.88,6.56,1.64,14-1.73,15.88-8.63.29-1.1.61-2.19,1-3.26l0-.07c-.09.16-.19.34-.31.53.29-.48.49-1,.75-1.53a33.26,33.26,0,0,1,1.71-3c.31-.48.65-.94,1-1.41l0-.07c2-2.48,3.4-5,3.49-8.34A13.08,13.08,0,0,0,86.43,66.52Z"/><path d="M128.56,82a2.89,2.89,0,0,1-.35.11,4.12,4.12,0,0,1-.83.11s0,.06,0,.09a2.91,2.91,0,0,0,.51,2.46c.6.65,2,.26,1.88-.59L129.67,83A3.51,3.51,0,0,1,128.56,82Z"/><path d="M101.46,94.12l.12.49a3.18,3.18,0,0,1,.86.63,3.07,3.07,0,0,1,.67.14,3.26,3.26,0,0,1,1.44-1A3.09,3.09,0,0,0,103,91.07a1.51,1.51,0,0,0-1.84.89,2.53,2.53,0,0,0,.36,2.19Z"/><path d="M90.67,62.67a1.18,1.18,0,0,1,1.2-.47,5.36,5.36,0,0,1,1.67,6.26,4,4,0,0,1-2.29.83,55.31,55.31,0,0,1-.58-6.62"/><path d="M187.77,135.55a13.46,13.46,0,0,0-1.5-.62,1.36,1.36,0,0,0,.43.73,11.81,11.81,0,0,1,1.33,0Z"/><path d="M70.78,114.79c0-1.45-.07-2.93-.11-4.36,0-2.45,2.2-4.23,4.18-5.64.53.53.23,1.48-.3,2s-1.24.83-1.76,1.39c-1.53,1.78-.25,5-2,6.6"/><path d="M81.48,58.09a10.35,10.35,0,0,1,1.53-.2c.54,0,1.07.44,1,.94a65.06,65.06,0,0,0-14.48,2.64,7.84,7.84,0,0,1,3.62-2.74c.82.64,1.8-.53,2.73-1,1.67-.89,3.67.64,5.58.38"/><path d="M110.83,62.63c-1.58-.53-3.16-1.07-4.77-1.55A6.22,6.22,0,0,1,103.83,60a13.12,13.12,0,0,1,13.31,4.75,13.42,13.42,0,0,1-6.31-2.13"/><path d="M133.87,58.63c-2,2.46-5.91,2-8.76.58-2.08-1-4.17-2.71-4.21-5a4.15,4.15,0,0,1,5.3,2.29,18.5,18.5,0,0,1,7.67,2.15"/><path d="M81.35,71.11A19.53,19.53,0,0,0,76,81.25,8.71,8.71,0,0,1,75.1,84a2.24,2.24,0,0,1-2.48,1.14c-.9-1-.54-2.55-.14-3.78,1.35-4.11,2.84-8.42,6.16-11.12a2.69,2.69,0,0,1,2-.79c.73.13,1.27,1.09.75,1.62"/><path d="M147.67,81.06c2.84-.61,5.68-1.17,8.56-1.75a10.24,10.24,0,0,1-.08-1.21c1.71-1.43,4.24-.07,6.39.67a10.62,10.62,0,0,0,7.33-.14,2.75,2.75,0,0,0,1.59-1.22,4.43,4.43,0,0,0,.1-2.61c-.08-.86.13-2,1-2.22s1.7.68,2.25,1.46c-1,.68,0,2.18-.19,3.34a2.73,2.73,0,0,1-1.21,1.52,12.61,12.61,0,0,1-11,1.62,10.62,10.62,0,0,0-4-.94,11.15,11.15,0,0,0-3.56,1.57,9.57,9.57,0,0,1-6.69.81.92.92,0,0,1-.44-.9"/><path d="M164.3,173.65a24.57,24.57,0,0,0-5.12-1.2,128.83,128.83,0,0,1-32.47-6.35c2.79-1.48,6.2-1.17,9.28-.57,7.29,1.45,14.43,4.3,21.84,3.75A16.54,16.54,0,0,1,163,170c4.25,1.06,8.53,2.07,12.78,3.13.75.21,1.76.75,1.47,1.52a33.24,33.24,0,0,1-12.9-.95"/><path d="M219.49,170.61a8.74,8.74,0,0,1-4.5-.3c-3.77-1.62-4.25-7.68-8.24-8.72-1.07-.26-2.67-.52-2.59-1.64a27.34,27.34,0,0,0-3.4-14.91,26.14,26.14,0,0,0-2.4-2.86A20.26,20.26,0,0,0,195.9,140c-3.51.52-7.05-1.79-10.56-2.95-6.81-2.19-14.42.21-20.05,4.57-1.74,1.31-4.5,2.73-5.74.93l.16-.2a4.05,4.05,0,0,1-2.45-3.55,21.51,21.51,0,0,0-2.63-2c1.39,4.75,2.72,9.46,4.06,14.22a25,25,0,0,1,39.09-4.22c2.29,2.38,1.86,6.16,1.8,9.47s1.12,7.44,4.4,7.9c4.08.58,5.17,5.88,5.31,10,.07,3,.15,6,.26,8.92.64-3.09,1.24-6.18,1.88-9.27.92.17,1.83.29,2.75.46,1.59,3.6.54,7.89-1.74,11.13s-5.53,5.48-8.75,7.72c-4,2.74-8.36,5.6-13.22,5.62A15.59,15.59,0,0,0,186,199c-2.08.65-3.45,2.56-4.84,4.22-6.17,7.39-16.4,11.61-25.75,9.4s-16.89-11.63-15.82-21.19c-.76-.25-1.56-.45-2.32-.7-2.32,6.62.45,14.31,5.63,19s12.44,6.72,19.42,6.76q6.51,14.44,13,28.81a5.15,5.15,0,0,0,2.12,2.72c1.08.48,2.65-.26,2.5-1.4-4.11-9.08-8.18-18.12-12.29-27.19a4.08,4.08,0,0,1-.52-2.81c.41-1.2,1.82-1.72,3-2.15a27.8,27.8,0,0,0,12.43-8.62c1.32-1.6,2.78-3.49,4.88-3.53,15.42-.06,29.64-13.2,31-28.57q11.9-1.08,23.79-2.21c4.67-.45,9.84-1.15,12.76-4.8Q237.25,168.63,219.49,170.61Z"/><path d="M176.84,97.17c-2.56-6.16-9-10-15.61-11.07s-13.27.07-19.81,1.45A15.35,15.35,0,0,0,115.28,72c-11.6-5.47-26.38,0-34.06,10.35-2.63,3.58-4.79,7.8-8.69,9.94-5.19,2.81-12.28.52-15.43-4.45S54.66,76,58.19,71.27A13.68,13.68,0,0,0,71.58,94.68c1.61-.57,4.08-1,4.45.62a27.07,27.07,0,0,0,14.48,18.1c1.29.6.59,2.57-.38,3.6-2.91,3.34-6.48,6.11-9,9.75s-3.79,8.69-1.49,12.51c1.72,2.87,5,4.38,8.24,5.52A33.71,33.71,0,0,0,98.68,147c4.88,0,10.82-1.13,13.68,2.82-2.57,3.3-3.71,7.4-4.83,11.4-1.64,6-3.26,12.6-.53,18.2,1.82,3.8,5.36,6.44,8.9,8.72a26.65,26.65,0,0,0,9.26,4.31c3.37.7,7.14.17,9.7-2.08-6.42-.79-13.08-1.87-18.49-5.5s-9.22-10.4-7.42-16.63,3.66-12.56,5.48-18.89c4.77,3,11,2.88,16.3,1s10-5.17,14.54-8.48c7.18-5.19,14.36-10.42,20.81-16.48,3.91-3.68,7.61-7.74,9.91-12.65S178.93,102.1,176.84,97.17Zm-44.6-26.08a14.19,14.19,0,0,1,3.08,2.53,14.43,14.43,0,0,1,2.41,14.8,41.34,41.34,0,0,1-3.82,3,20.67,20.67,0,0,1-5.58,2.46c-.24.28-.72.09-.85-.27a1.75,1.75,0,0,1,0-1.06,6.42,6.42,0,0,0-.86-4.57,6,6,0,0,1-2.32-6.22A55.89,55.89,0,0,0,117.65,74,11.7,11.7,0,0,1,132.24,71.09ZM82.53,101.42c-2.24-3.92-3.11-8.88-1.07-12.89C84.77,82,90.23,76.38,97.09,74s15.19-1.19,20.36,4c2.62,2.64,4.26,6.1,5.87,9.43a12.71,12.71,0,0,1,1.73,5.8,10.77,10.77,0,0,1-1.18,4.11,29.18,29.18,0,0,1-22.81,16.17c-3.29.37-6.93,0-9.44-2.2C88.22,108.35,84.75,105.3,82.53,101.42Zm93.12.87a20.11,20.11,0,0,1-2.94,9.45,53.89,53.89,0,0,1-11,13.94,108.46,108.46,0,0,1-10.85,8.14c-3.6,2.47-7.24,5-10.88,7.46-3.78,2.63-7.69,5.26-12.09,6.47-4.16,1.15-9,.79-12.36-1.84a33.22,33.22,0,0,1-3.07-1.74,53.53,53.53,0,0,1-6.44-4.56,17.62,17.62,0,0,1-4.9-6,7.56,7.56,0,0,1-.49-1.13c-1-2.88.22-6.59,3.12-7.48,1.66-.54,3.75-.09,5.08-1.25a1.93,1.93,0,0,0-.59-2.4c-6.78-1-12.89,4.62-15.94,10.76a8.29,8.29,0,0,0-1.17,5.24c.4,1.79,2.23,3.36,3.93,2.81a6.13,6.13,0,0,1,.83-8.93,25.35,25.35,0,0,0,9.27,12.19A72.36,72.36,0,0,1,90.32,142c-3-.61-6.42-1.67-8-4.4-2.33-4.16.94-9.22,4.07-12.88,3.26-3.87,7.23-8,12.29-8.15a31.66,31.66,0,0,0,25.53-14c3.65-5.5,10-8.47,16.17-10.9,4.32-1.72,8.79-3.3,13.38-3.2a14.65,14.65,0,0,1,2.09.21,29.43,29.43,0,0,1,6.9,1c3.88,1,8.1,2.73,10.35,5.93A9.85,9.85,0,0,1,175.65,102.29Z"/><path class="5b924e2a-6871-4a39-a0d2-0c82a10fd9c5" d="M104.12,252.19l.3.15.55-.29A2.4,2.4,0,0,0,104.12,252.19Z"/><path class="5b924e2a-6871-4a39-a0d2-0c82a10fd9c5" d="M153.32,228.1a5.7,5.7,0,0,0-.73-.95c.15-.25.29-.49.42-.75.27-.52.34-.75-.25-1.06s-1.07-.39-1.57-.65-1.11-.52-1.66-.76l-15.28-9.57c-.5-.43-1-.85-1.52-1.27-.81-.66-1.58-1.37-2.38-2v0l-1-1,.1.35a1.74,1.74,0,0,1-.25-.29,1,1,0,0,0,.36.68l1.14,4.1L142,225.46c-8.72.22-17.48.11-26-2l-1.09-.29a36.06,36.06,0,0,1-5.75-1.71c-6.74-2.38-13.38-5-19.37-9a103.36,103.36,0,0,1-15.72-12.73c-9.86-9.7-19-21.63-23-35-3.79-12.43-3.47-25.34-3.21-38.2a6.92,6.92,0,0,0-2.66-.8,47.82,47.82,0,0,1,.07,6.67,76.7,76.7,0,0,0,.92,11.71,132.67,132.67,0,0,0,4.6,23c3.9,12.47,9.4,25.56,18.18,35.42,4.26,4.8,9.31,8.7,13.45,13.66A60.69,60.69,0,0,0,89,223.55a35.18,35.18,0,0,0,7.31,4.51,104.65,104.65,0,0,0,30.59,9.4l-12.43,6.48c.42,0,.86,0,1.18,0,1.35-.06,2.65-.23,4-.35a76.81,76.81,0,0,0,13.77-2,37.81,37.81,0,0,0,6.87-2.69,25,25,0,0,0,6-4.43c.44-.43.89-.87,1.33-1.32A52.37,52.37,0,0,0,153.32,228.1Z"/><path class="5b924e2a-6871-4a39-a0d2-0c82a10fd9c5" d="M171.48,23.52l-.3-.14-.55.28A2,2,0,0,0,171.48,23.52Z"/><path class="5b924e2a-6871-4a39-a0d2-0c82a10fd9c5" d="M130.4,57.17a5.46,5.46,0,0,0,.73.95c-.15.24-.29.49-.42.74-.27.52-.34.76.25,1.06s1.07.39,1.57.65,1.1.52,1.66.76l15.28,9.58L151,72.17c.82.67,1.58,1.37,2.38,2h0l1,1-.1-.34a1.72,1.72,0,0,1,.25.28,1,1,0,0,0-.36-.68L153,70.41,141.7,59.81c8.73-.23,17.49-.12,26,2l1.09.29a36.06,36.06,0,0,1,5.75,1.71c6.73,2.39,13.38,5,19.37,9a103.42,103.42,0,0,1,15.72,12.74c9.86,9.7,19,21.62,23,35,3.79,12.43,3.47,25.35,3.21,38.2a6.84,6.84,0,0,0,2.65.81,47.86,47.86,0,0,1-.06-6.67,76.73,76.73,0,0,0-.92-11.72,132.85,132.85,0,0,0-4.6-23c-3.9-12.46-9.4-25.56-18.18-35.42-4.27-4.79-9.31-8.7-13.45-13.66a61.45,61.45,0,0,0-6.63-7.33,35.4,35.4,0,0,0-7.31-4.5,104.35,104.35,0,0,0-30.59-9.4l12.42-6.48c-.41,0-.85,0-1.18,0-1.34,0-2.64.23-4,.34a76.83,76.83,0,0,0-13.76,2,38.55,38.55,0,0,0-6.87,2.69,25.1,25.1,0,0,0-6,4.43c-.45.43-.89.88-1.33,1.33A50.36,50.36,0,0,0,130.4,57.17Z"/></svg>