<svg id="f5c5c7eb-4fb0-439a-a1db-d3f40ee04a9b" data-name="Layer 1" xmlns="http://www.w3.org/2000/svg" viewBox="0 0 300 300"><defs><style>.\33 3361460-76d0-47e0-b31f-b7d392b8f5e4{fill:#fff;}.cc2e8c18-8824-430a-adc1-e95ebe63c4f4{fill:#52df84;}.\37 a263e1e-0de2-4776-9c73-b09d201855da{fill:#e6e6e6;}.\38 5912efd-81f4-4508-8fe9-e82fd28f5637{fill:#8b898a;}</style></defs><path class="33361460-76d0-47e0-b31f-b7d392b8f5e4" d="M250.78,196.45a8.76,8.76,0,0,0-4.37-6.13,74.35,74.35,0,0,1-7.84-4.95l-.44-.32c-.61-.49-1.22-1-1.82-1.49q-1.81-1.55-3.53-3.2a79.44,79.44,0,0,1-6.23-6.87h0l-.29-.4c-.41-.57-.82-1.15-1.22-1.73q-1.42-2.07-2.7-4.25c-2.28-3.86-6.45-5.07-10.63-4.32-12.82,2.28-25,7-37.2,11.29-1.79-.31-3.59-.59-5.4-.78a20.88,20.88,0,0,0,6.06-6c2.38-3.49,1.26-8.51-1.47-11.4a12,12,0,0,0-2.69-2.13c4-6.58,7.57-13.38,11.19-20.19a243.75,243.75,0,0,1,13.07-22.38c3-2.94,6.18-5.78,9.45-8.48,1.75-1.45,2.75-4.47,2.75-6.65a9.59,9.59,0,0,0-2.75-6.66,9.48,9.48,0,0,0-6.66-2.75,10.64,10.64,0,0,0-6.65,2.75C181,98,172,107.88,163.33,118.12a49.09,49.09,0,0,0-9.09,5.54,28.47,28.47,0,0,0-3.64,3.48,17.15,17.15,0,0,0-2.75.93c2.63-1.11,0,0-.58.21l-1.71.66c-1.34.5-2.69,1-4,1.43l-1.42.47c0-1.31.07-2.62.15-4a24.1,24.1,0,0,0-.33-5.95,21,21,0,0,0,4.1-1.13,28.15,28.15,0,0,0,10.31-6.71,27.57,27.57,0,0,0,6.33-10.81,14.35,14.35,0,0,0-5.51-16.47,25.2,25.2,0,0,0-9.38-3.55,41.85,41.85,0,0,0-8.86-.85,8.24,8.24,0,0,0,.65-3.56c-.06-1.35-.12-2.7-.17-4.06-.16-3.86-2.79-8.3-6.91-9.07a18.27,18.27,0,0,0-11.75,1.65,9.29,9.29,0,0,0-.71-.84,14.68,14.68,0,0,0-2.28-6.32A17,17,0,0,0,103.86,52a21.92,21.92,0,0,0-6.46-4.37c-7.32-3.36-15.59-4.09-22.29,1.09A15.88,15.88,0,0,0,69,58c-1.1,5.48.68,11.45,5.8,14.31,3,1.65,6,1.67,9.2,1.42a33.83,33.83,0,0,0,.39,4.31A22.76,22.76,0,0,0,94.43,93.37a19.42,19.42,0,0,0,2,1.13l-.78.15a31.37,31.37,0,0,1-4.75.06c-3.94-.25-8.21,3.08-9.08,6.91s.5,8.79,4.33,10.63l13,6.25c.75.36,1.49.72,2.22,1.11.41.22.8.45,1.19.7l.15.14c0,.09,0,.19,0,.28-.14.63-.3,1.24-.49,1.85-.15.45-.32.89-.48,1.34-1.26,2.59-2.48,5.21-3.51,7.9-2.2,5.78-2.27,12.59,1,18,2.87,4.77,7.44,7.48,12.47,9.46.94.38,1.9.7,2.86,1a25.78,25.78,0,0,0-.32,6.85,36.8,36.8,0,0,0,.82,4.88c-.23.23-.46.46-.68.7a34.3,34.3,0,0,0-5.07,6.74,26,26,0,0,0-2.83,9.08,14.62,14.62,0,0,0-2.48,0,26.15,26.15,0,0,0-3.2.4c-8.9.78-17.59,3.48-26,6.33a201.4,201.4,0,0,1-19.78,6l-3.07.22a10.7,10.7,0,0,0-3.88,1,54.68,54.68,0,0,1-6.13.39c-5.74,0-5.75,9,0,8.92h.69a10.69,10.69,0,0,0,2.65,5.67A8,8,0,0,0,47,219.74l36.5,33,9.24,8.36c3.38,3.05,6.65,6.56,10.41,9.13a12.24,12.24,0,0,0,10,1.72,33.14,33.14,0,0,0,6.67-3.17q5-2.68,10.1-5c.93-.43,1.85-.85,2.79-1.26l1.12-.48c1.64-.72-.57.23-.57.23,0-.17,5.18-2.07,5.68-2.26q5.35-2,10.83-3.69c7.15-2.21,14.41-4,21.68-5.81,14.51-3.51,29.16-6.69,43.19-11.87,4.45-1.65,8.88-3.43,13.15-5.49a19.84,19.84,0,0,0,3.81-2.4,7.7,7.7,0,0,0,5.15-2.66,75.26,75.26,0,0,0,14.34-25.77A8.27,8.27,0,0,0,250.78,196.45Zm-6.1,13a10.25,10.25,0,0,0,.85-.74h0C244.83,209.46,244.6,209.57,244.68,209.41Z"/><path class="cc2e8c18-8824-430a-adc1-e95ebe63c4f4" d="M160.14,93.53c-1.77-4.53-5.45-7.53-9.89-9.28-4.7-1.85-9.82-1.54-14.7-.69-2.52.43-5,1-7.5,1.58s-4.77,1-6.84,2.45c-3.62,2.62-7,5-11.41,6.25a45.61,45.61,0,0,1-7,1.12,10.24,10.24,0,0,0-1.74.41,8.44,8.44,0,0,0-.9-.16A19.67,19.67,0,0,0,91,96.47c-3.18,1.26-7.44,3.42-8.45,7a8.35,8.35,0,0,0-.2,1,4.18,4.18,0,0,0-1.53,2.25c-.57,2.07.46,3.81,2.05,5a25.93,25.93,0,0,0,15.49,5.19,4.32,4.32,0,0,0,1.08-.14,19.48,19.48,0,0,0,9.21,7c6.25,2.32,13.18.74,18.94-2.14a4.62,4.62,0,0,0,.68-.43l1.25-.26c5-1.17,9.63-3.6,14.18-5.86C151.37,111.28,164.24,104,160.14,93.53Z"/><path class="7a263e1e-0de2-4776-9c73-b09d201855da" d="M135.18,131.5a10.15,10.15,0,0,0-4.55-5.92,10,10,0,0,0-7.63-1c-2.14.69-4.59,2-5.71,4.12-.34,0-.68,0-1-.05l-2-.38c-5.07-1-11,1.46-12.19,6.92-1.13,4.94,1.49,11.07,6.92,12.18,4.69,1,9.53,1.74,14.25.43,4.42-1.24,9.06-4.35,10.93-8.67C135.29,136.6,136,134.29,135.18,131.5Z"/><path class="7a263e1e-0de2-4776-9c73-b09d201855da" d="M192.57,108.59c-3.81-3.49-10.27-4.08-14,0a245.67,245.67,0,0,1-27.63,25.95c-4.69,3.76-9.6,7.28-13.94,11.47a66.78,66.78,0,0,0-11.28,15c-1.53,2.65-3,5.34-4.65,7.91-.42.65-.86,1.3-1.3,1.94l-.34.46a35,35,0,0,1-3,3.2c-3.8,3.54-3.85,10.48,0,14a10.11,10.11,0,0,0,14,0c4.43-4.11,7.72-9.34,10.7-14.55,1.39-2.43,2.75-4.88,4.26-7.24l.5-.75a9.61,9.61,0,0,0-.23,5.73,10.09,10.09,0,0,0,4.55,5.92c4.38,2.32,11.22,1.46,13.55-3.55a33.49,33.49,0,0,1,2.87-5c.28-.33.56-.65.85-1,3.48-3.84,4.08-10.27,0-14a11,11,0,0,0-6.13-2.78l1.71-1.34q7.39-5.82,14.32-12.18,7.94-7.31,15.2-15.27C196.07,118.78,196.64,112.32,192.57,108.59Z"/><path class="7a263e1e-0de2-4776-9c73-b09d201855da" d="M182.58,205.47c-1.76-5.45-6.72-8-12.19-6.92q-6.64,1.26-13.35,2.2A266.83,266.83,0,0,1,126,202.88a6.87,6.87,0,0,0-.19-.75,10.06,10.06,0,0,0-4.55-5.92c-2.19-1.15-5.24-2-7.64-1l-7.92,3.3c-2.49,1-4.5,2.12-5.92,4.55a9.9,9.9,0,0,0,3.55,13.55,12.62,12.62,0,0,0,4,1.35,10,10,0,0,0,8.28,4.63,278.49,278.49,0,0,0,60.09-4.95C180.76,216.68,184.14,210.27,182.58,205.47Z"/><path class="85912efd-81f4-4508-8fe9-e82fd28f5637" d="M139.63,176.15a80.34,80.34,0,0,1-21.47,10.15,2.93,2.93,0,0,0-2.17,2.47,3.27,3.27,0,0,0-.45,3.79,3.2,3.2,0,0,0,4.29,1.13l5.28-2.65a2.55,2.55,0,0,0,1-.83,85.86,85.86,0,0,0,16.74-8.64C146.14,179.34,143,173.9,139.63,176.15Z"/><path class="85912efd-81f4-4508-8fe9-e82fd28f5637" d="M123.9,124.15a14.92,14.92,0,0,1-14.12-.5c-3.5-2-6.66,3.39-3.17,5.42a21.47,21.47,0,0,0,20.46.5C130.67,127.75,127.5,122.33,123.9,124.15Z"/><path class="85912efd-81f4-4508-8fe9-e82fd28f5637" d="M116.47,194c-1.09-1.09-3.37-1.33-4.43,0a49.09,49.09,0,0,1-16,13.19c-3.59,1.85-.42,7.27,3.16,5.41a53.11,53.11,0,0,0,17.25-14.16A3.23,3.23,0,0,0,116.47,194Z"/><path class="85912efd-81f4-4508-8fe9-e82fd28f5637" d="M191.67,103.4a9.31,9.31,0,0,1-4.76-3.87c-2.14-3.41-7.57-.27-5.42,3.17a16.26,16.26,0,0,0,8.51,6.75,3.14,3.14,0,0,0,1.67-6Z"/><path d="M127.66,74.83h-.28a3.27,3.27,0,0,1-.65-.06l0,.06a2.27,2.27,0,0,0-.07,2c.33.59,1.46.56,1.52-.1,0-.28.1-.57.14-.86A2.83,2.83,0,0,1,127.66,74.83Z"/><path d="M105,79v.39a2.91,2.91,0,0,1,.53.63,2.28,2.28,0,0,1,.47.23,2.7,2.7,0,0,1,1.27-.48,2.41,2.41,0,0,0-.52-2.78,1.16,1.16,0,0,0-1.55.34,1.94,1.94,0,0,0-.13,1.71Z"/><path d="M102.69,53.28a.9.9,0,0,1,1-.13,4.16,4.16,0,0,1,.1,5,3,3,0,0,1-1.88.19,44.77,44.77,0,0,1,.79-5.08"/><path d="M78.06,88.84c.26-1.09.5-2.21.73-3.3.43-1.85,2.44-2.77,4.19-3.47.3.5-.1,1.16-.59,1.46s-1.09.39-1.59.72c-1.48,1.06-1.12,3.73-2.74,4.59"/><path d="M96.62,48.13a6.67,6.67,0,0,1,1.19.13c.39.13.72.53.59.89A50.58,50.58,0,0,0,87,48.46a6.07,6.07,0,0,1,3.23-1.39c.5.63,1.46-.06,2.25-.26,1.42-.37,2.64,1.15,4.13,1.32"/><path d="M117.88,57c-1.09-.7-2.18-1.39-3.3-2a4.87,4.87,0,0,1-1.49-1.22,10.19,10.19,0,0,1,9.15,6A10.57,10.57,0,0,1,117.88,57"/><path d="M136,58.23c-1.95,1.49-4.82.4-6.71-1.19-1.38-1.12-2.64-2.8-2.24-4.55a3.21,3.21,0,0,1,3.57,2.7,14.46,14.46,0,0,1,5.38,3"/><path d="M94.11,57.9a15.24,15.24,0,0,0-6,6.64A6.78,6.78,0,0,1,87,66.49a1.72,1.72,0,0,1-2.08.39c-.5-.89.06-2,.59-2.87,1.79-2.84,3.7-5.81,6.71-7.23a2,2,0,0,1,1.61-.23c.53.23.76,1.05.27,1.35"/><path d="M142.22,77.68c2.24.07,4.49.17,6.77.27a8.57,8.57,0,0,1,.16-.93c1.56-.76,3.21.73,4.69,1.68A8.23,8.23,0,0,0,159.39,80a2.17,2.17,0,0,0,1.42-.63,3.47,3.47,0,0,0,.56-2c.1-.66.46-1.45,1.16-1.48s1.15.82,1.42,1.52c-.86.33-.37,1.65-.76,2.47a2.11,2.11,0,0,1-1.19.93,9.78,9.78,0,0,1-8.62-.83,8.15,8.15,0,0,0-2.84-1.45,8.63,8.63,0,0,0-3,.53,7.43,7.43,0,0,1-5.19-.63.73.73,0,0,1-.16-.76"/><path d="M137.6,150.49a19.17,19.17,0,0,0-3.64-1.85,100.08,100.08,0,0,1-23.28-10.8c2.38-.59,4.89.27,7.1,1.29,5.22,2.45,10.08,5.91,15.75,6.87a13,13,0,0,1,3.74,1.45c3,1.59,6,3.14,9,4.73.53.29,1.19.89.83,1.42a25.76,25.76,0,0,1-9.54-3.11"/><path d="M115.05,174a4.4,4.4,0,0,1,1.07-.73c.5-.24,1-.45,1.5-.65a15.09,15.09,0,0,1-1.88-13.31c-.53-.33-1.09-.62-1.62-1-3,4.55-2.31,10.86.73,15.35C114.91,173.77,115,173.87,115.05,174Z"/><path d="M129.85,191.21q1.41,7.64,2.83,15.25a3.91,3.91,0,0,0,1.09,2.44c.72.57,2,.3,2.14-.59-1.13-6.05-2.24-12.09-3.37-18.13A5.87,5.87,0,0,1,129.85,191.21Z"/><path d="M179.73,158.42a6.73,6.73,0,0,1-3.33-1.06c-2.55-1.92-1.79-6.57-4.59-8.09-.25-.13-.54-.27-.81-.43-.12.25-.25.49-.38.72a5.34,5.34,0,0,1-1,1.33c2.6,1.38,2.43,5.35,1.8,8.35-.5,2.25-1,4.53-1.46,6.77,1.06-2.21,2.08-4.42,3.14-6.64.66.3,1.32.57,2,.86.53,3-1.06,6.05-3.37,8.06s-5.18,3.1-8,4.19c-3.53,1.32-7.33,2.68-11,1.79a12,12,0,0,0-3.36-.7c-1.69.1-3.08,1.29-4.43,2.28a22.1,22.1,0,0,1-2.25,1.45,4.73,4.73,0,0,1-.76,2c-.32.46-.65.92-1,1.36a21.25,21.25,0,0,0,4.59-2.61c1.29-1,2.75-2.12,4.33-1.75,11.62,2.8,24.77-4.46,28.63-15.79q9.17,1.4,18.33,2.74c3.59.53,7.62,1,10.5-1.25Q193.47,160.22,179.73,158.42Z"/><path d="M155.25,125a19.54,19.54,0,0,0-11,1.56c-1.56.67-3.9,1.23-4.49-.36l.15-.13a3.15,3.15,0,0,1-1.19-3.12,16.2,16.2,0,0,0-1.61-2c.17,3.83.3,7.63.43,11.46a19.58,19.58,0,0,1,15.95-5.33A5.48,5.48,0,0,1,155.25,125Z"/><path d="M161.21,95.22c-.8-5.12-5-9.18-9.71-11.23s-10-2.41-15.19-2.58A11.9,11.9,0,0,0,119.5,64.87C111.77,58.6,99.62,60,91.93,66.36c-2.64,2.21-5.05,5-8.39,5.87-4.42,1.16-9.34-1.88-10.8-6.2s.37-9.38,3.9-12.29a10.61,10.61,0,0,0,5.75,20.11c1.32-.13,3.26,0,3.23,1.29a21,21,0,0,0,7.56,16.31c.86.69,0,2-1,2.64-2.81,2-6,3.4-8.59,5.68s-4.46,5.85-3.43,9.15c.76,2.48,3,4.23,5.18,5.68a25.89,25.89,0,0,0,7.73,3.66c3.66.93,8.35,1.16,9.77,4.66-2.54,2-4.16,4.89-5.74,7.69-2.35,4.23-4.79,8.89-3.77,13.61.66,3.2,2.84,5.84,5.09,8.22a20.58,20.58,0,0,0,6.17,4.95,8.73,8.73,0,0,0,7.7.23c-4.69-1.78-9.51-3.83-12.92-7.56s-5-9.54-2.51-13.9,5.09-8.78,7.63-13.21c3,3.14,7.73,4.2,12.09,3.8s8.45-2,12.51-3.7a158.25,158.25,0,0,0,18.73-8.55,33.39,33.39,0,0,0,9.8-7.69C160.28,103.57,161.87,99.31,161.21,95.22ZM132.44,67.31a10.69,10.69,0,0,1,.93,14.07,33,33,0,0,1-3.43,1.55,16,16,0,0,1-4.66.83c-.23.16-.56-.07-.59-.37a1.28,1.28,0,0,1,.23-.79,5,5,0,0,0,.19-3.6,4.7,4.7,0,0,1-.59-5.12,43.82,43.82,0,0,0-3.6-7.1A9.08,9.08,0,0,1,132.44,67.31ZM89.39,81c-1-3.37-.7-7.26,1.58-9.91,3.7-4.29,8.85-7.52,14.46-8.05s11.66,1.91,14.6,6.77c1.49,2.47,2.08,5.38,2.67,8.19a9.94,9.94,0,0,1,.24,4.68,8.33,8.33,0,0,1-1.66,2.88,22.63,22.63,0,0,1-20.17,8c-2.54-.34-5.22-1.29-6.7-3.41C92.39,87.22,90.34,84.29,89.39,81Zm70,17.9a15.53,15.53,0,0,1-4,6.57,41.57,41.57,0,0,1-10.89,8.45,85.29,85.29,0,0,1-9.68,4.13c-3.17,1.19-6.37,2.41-9.57,3.6s-6.77,2.54-10.31,2.64c-3.35.09-6.9-1.07-9-3.68-.72-.58-1.39-1.27-2-1.87a41.1,41.1,0,0,1-4-4.64,13.74,13.74,0,0,1-2.58-5.44,5.88,5.88,0,0,1-.15-1c-.2-2.34,1.38-4.92,3.73-5,1.35-.1,2.84.63,4.06,0a1.49,1.49,0,0,0,0-1.91c-4.92-2-10.57,1.09-14,5.15a6.3,6.3,0,0,0-1.85,3.73c0,1.42,1,2.94,2.44,2.84a4.75,4.75,0,0,1,2.28-6.57,19.63,19.63,0,0,0,4.72,10.89A55.25,55.25,0,0,1,87.74,113c-2.18-1-4.53-2.44-5.19-4.79-1-3.56,2.41-6.77,5.45-9s6.93-4.72,10.76-3.86a24.57,24.57,0,0,0,21.83-5.84c3.76-3.47,9.11-4.53,14.2-5.22,3.57-.5,7.23-.86,10.66.06a11.74,11.74,0,0,1,1.54.55,23.07,23.07,0,0,1,5,2c2.73,1.49,5.59,3.55,6.7,6.38A7.7,7.7,0,0,1,159.36,98.85Z"/><g id="c5e2ee85-ad64-4bd0-8e64-1e0cb722acc7" data-name="pdf24_14"><path d="M100.81,209.27c5.28-1.42,11.06-3.93,12.78-9.15.73-2.28,3.9-2.28,6.24-2.87a16.71,16.71,0,0,0,5.91-3.53c33.68-27.35,64.36-59.94,82.06-99.56,1.15-2.54,2.24-5.25,2.14-8s-1.81-5.71-4.52-6.34-5.51,1.19-7.76,3a380.66,380.66,0,0,0-69.23,70.78,44.26,44.26,0,0,1-5.71,8.55q-7.89,11.44-15.8,22.9c-1.16,1.71-2.34,3.4-3.53,5.12L90.91,208.24c5.48-5.74,11-11.49,16.47-17.2a8,8,0,0,1,3.93,1.19c1.09.86,1.62,2.57.73,3.63-5.09,6.11-11,12.65-18.82,13.57-6,.73-10,6.28-13.28,11.36,7.66-2.54,15.46-4.69,23.35-6.5,2.87-.66,6.8-.76,7.86,2,1.58,4.33,7.36,4.95,12,4.79q14-.41,28-.86c1,0,2.37.43,2.14,1.39A90.2,90.2,0,0,0,137,230.1a4.59,4.59,0,0,0-1.78,1.69,3.32,3.32,0,0,0,1.32,4A8.68,8.68,0,0,0,140.9,237a55.2,55.2,0,0,0,27.34-4.59c1.85-.83,4-1.75,5.81-.79A14.55,14.55,0,0,0,192,227.83a30,30,0,0,1-16.84,3c3.76-2.11,7.53-4.19,11.29-6.31a5.42,5.42,0,0,1-1.12-3.17,13.2,13.2,0,0,0-12.75,6.08,7.26,7.26,0,0,1-3.83,2.61,74.21,74.21,0,0,1-25.49,5c-2.21,0-5-.49-5.48-2.67q10.26-6.49,20.77-12.52c.53-1.22-1.39-1.94-2.71-1.91-11.16.3-22.35.56-33.51.86-3.44.06-7.89-.63-8.52-4a4.5,4.5,0,0,0-3.8-3.33,13.2,13.2,0,0,0-5.32.46c-6.14,1.39-12.31,2.74-18.45,4.13C89.72,211.84,95.56,210.69,100.81,209.27Zm9.31-21.83a6.08,6.08,0,0,1,1.06-3.7c17.34-31.93,43.36-58.15,69.31-83.57,6.83-6.7,13.84-13.51,22.32-17.93,2.21-1.16,4.95,1.12,5.22,3.6s-1.06,4.79-2.31,6.93c-2.08,3.47-4.16,7-6.24,10.47-3.83,6.44-7.66,12.88-11.73,19.18a291.48,291.48,0,0,1-65.15,71.1c-1.61,1.22-3.5,2.54-5.51,2.21C117.59,192,110.75,191.17,110.12,187.44Zm71.72,35.83c.6,0,1.39.23,1.29.82-.06.3-.33.47-.56.63-2.38,1.45-5,3-7.76,2.58A9.27,9.27,0,0,1,181.84,223.27Z"/><path d="M203.77,90.06a2.58,2.58,0,0,1,.79-3.83c.33.47.66.93,1,1.36a4.83,4.83,0,0,1-1.78,2.47"/><path d="M116.59,188.38c-.06.09-.11.19-.16.28.59.73,1.19,1.42,1.82,2.15a1.39,1.39,0,0,1,1-.69,5.68,5.68,0,0,1-1.11-1.73A5.67,5.67,0,0,1,116.59,188.38Z"/><path d="M187,99a16.25,16.25,0,0,1,4.39,3.83,3.33,3.33,0,0,1,.66,1.26A9.21,9.21,0,0,1,187,99"/><path d="M181.32,124.77a23.47,23.47,0,0,1-4.43,6.14c0-.4.07-.83.1-1.25,1.22-1.56,2.41-3.11,3.6-4.66a.56.56,0,0,1,.73-.23"/><path d="M192.41,183.74a55.57,55.57,0,0,1,4.13,5.06,19.06,19.06,0,0,1-6.57-6.18c.92-.3,1.78.43,2.44,1.12"/><path d="M197,181.43a55.44,55.44,0,0,1,4.13,5,18.94,18.94,0,0,1-6.57-6.17c.92-.3,1.78.43,2.44,1.12"/><path d="M201,179.78a55.33,55.33,0,0,1,4.12,5.05,18.94,18.94,0,0,1-6.57-6.17c.93-.3,1.78.43,2.45,1.12"/><path d="M190.49,107.93c-2.44-.17-4.25-2.21-5.77-4.13-.27-.3-.5-.59-.73-.89-.43-.53-.86-1.35-.36-1.82a1.59,1.59,0,0,1,.59.47c2.08,2.11,4.16,4.25,6.27,6.37"/><path d="M144.83,191.27c2.84,3.87,18.39,19.71,21,23.74a1.18,1.18,0,0,1,0,1.23c-3.21-3.44-18.79-19.22-21-23.38-.27-.53-.46-1.26,0-1.59"/><path d="M174.91,214.39a.51.51,0,0,1-.69.06c-1.59-1.72-3.17-3.43-4.79-5.15-2.31-2.51-17.6-17.07-18.63-20.34.24-.3.66,0,.86.26,3.27,4,19.39,19.85,22.65,23.85a1.75,1.75,0,0,1,.6,1.32"/><path d="M198.58,165.15a78.57,78.57,0,0,1,12.06-1.81l-18.53,5.44a16.54,16.54,0,0,1-4.75.93,1.16,1.16,0,0,1-.66-.13.81.81,0,0,1,0-1.09,2.32,2.32,0,0,1,1.06-.5l5.35-1.45c1.81-.46,3.63-1,5.44-1.39"/><path d="M159.36,186.25a1.3,1.3,0,0,1-1.19-1.48,19.66,19.66,0,0,1,3.53,3.53c3.63,4.29,20.14,20.47,23.74,24.77a.89.89,0,0,1-1,.06c-3.73-4.23-20.34-20.37-24-24.63a2.91,2.91,0,0,1-1-2.25"/><path d="M240.88,224.79a11.9,11.9,0,0,0,1.66-2.28c3.89-6.31,7.75-12.65,11.65-18.95.76-1.26,1.62-2.58,3-3,.89,1.65-.17,3.67-1.19,5.25q-7.94,12.18-16.64,23.81c-.6.79-1.46,1.72-2.45,1.42l4-6.24"/><path d="M93.55,186.75c3.53-.89,7.29-1.75,10.79-.73q-37,9.16-74,18.29c-.57-1.05.92-2,2.08-2.27Q63,194.4,93.55,186.75"/><path d="M258.86,197.43q-20.58-18-41.35-35.84c-1.29.82-.2,2.77.89,3.79,7.43,6.84,15.15,13.34,22.85,19.85q8.64,7.28,17.23,14.55C258.61,199,258.73,198.22,258.86,197.43Z"/><path d="M122.44,188c18-12.88,32.52-30,45.93-47.65a38.45,38.45,0,0,1,6.57-7.23,231.83,231.83,0,0,1-49,54c-1,.83-2.45,1.62-3.47.9"/><path d="M38.23,221.78q2,1.82,4,3.6c-2.32-2.81-4.61-5.64-7-8.42Q36.81,219.33,38.23,221.78Z"/><path d="M106.7,275.6a60.1,60.1,0,0,0-5.29-4.09A121.5,121.5,0,0,1,90.48,262q-30-28.17-60-56.39c-.79-.76-2-1.52-2.84-.8Q64,242.19,103.41,276.33C104.51,276.06,105.6,275.82,106.7,275.6Z"/><path d="M107.12,274.88c2.9-2.74,6.8-4.1,10.56-5.38q43.84-14.76,88.1-28.33c11.16-3.41,22.49-6.81,34.15-7.3-4,1.68-8.23,2.44-12.42,3.33-16.08,3.4-31.76,8.56-47.38,13.67q-36.51,12-73,24"/></g></svg>