<svg id="0442a14d-6cb5-4e3f-9e7d-3eb9b9fc8430" data-name="Layer 1" xmlns="http://www.w3.org/2000/svg" viewBox="0 0 300 300"><defs><style>.\31 b914686-3bb5-4450-aaa7-b2efb9d0d784{fill:#fff;}.dda1a892-3514-4a70-890d-812ad382adff{fill:#52df84;}.b98f4b4b-9099-48ed-93b3-e17a4fc3e527{fill:#e6e6e6;}.\36 b33e61b-dc53-426f-8330-37adca8efbf2{fill:#8b898a;}</style></defs><path class="1b914686-3bb5-4450-aaa7-b2efb9d0d784" d="M233.1,212.82c.3-.3.59-.6.86-.91a16.57,16.57,0,0,0,5.66-4c3.18-3.54,4.66-7.8,2.91-12.48s-5.54-6.89-10.22-7.52l-1.52-.2a13,13,0,0,0,1.53-8.6c-.55-4-3.46-7.47-7-9.48l.23-.3a43.9,43.9,0,0,1,5.68-5.22c.95-.63,1.93-1.22,2.93-1.78a23.27,23.27,0,0,0,7.16-6c4.82-6.11,3.34-16.53-3.47-20.62-5.48-3.28-11.5-2.08-17,.25a17.5,17.5,0,0,0-11-4.59c-6-.29-11.52,3-15,7.73a14.86,14.86,0,0,0-1.37,2.25,11.58,11.58,0,0,0-4.4-1.08h-.43a8.7,8.7,0,0,0-4.48.8,8.6,8.6,0,0,0-3.8,2.22,8.69,8.69,0,0,0-2.54,3.61,8.94,8.94,0,0,0-.63,1.33l-.65-.24c-1-.36-2-.71-3.06-1,2.83-17.8,4.94-35.71,6.22-53.7.35-4.93,1.27-10.32-1-14.92-1.89-3.77-5.5-5.49-8.69-7.83a30,30,0,0,1-2.85-3.11c-1.52-2.48-2.72-5.13-4.64-7.38-3.41-4-8.65-5.54-13.73-5.59-6.91-.07-13.83-.07-20.75-.1l-41.13-.18c-4.79,0-9.69-.51-14.08,1.77l-.36.2a10.16,10.16,0,0,0-5.2-1.46c-6.23,0-11.75,4.57-12,11q-1.74,44.69.4,89.42.57,11.78,1.41,23.55a10.24,10.24,0,0,0,0,5.27,11.78,11.78,0,0,0,13.82,8.64q13.44-2.46,27.05-3.88l45.73,4,16.77,1.46c-2,5.57-.94,12.12,4,16.31a15.77,15.77,0,0,0,6.14,3.09c0,.15,0,.3,0,.45,0,.87,0,1.75,0,2.62-5.6.26-10.83,5.37-10.82,11a11.76,11.76,0,0,0,8.47,11.54,12.35,12.35,0,0,0,1.4,2c2.18,2.52,4.25,5.21,6.59,7.57a15.44,15.44,0,0,0,10.3,4.69c1.6.09,3.23,0,4.84,0a133.57,133.57,0,0,1,18.62,1.72,58.91,58.91,0,0,0,8.16,1.56c5.38.32,9.62-2.39,12.67-6.6a49.07,49.07,0,0,0,6.74-14.07A11.67,11.67,0,0,0,227,221l-7-.55a40.57,40.57,0,0,0,5.55-2.3A29.67,29.67,0,0,0,233.1,212.82Z"/><path class="dda1a892-3514-4a70-890d-812ad382adff" d="M214.72,174.56a5.1,5.1,0,0,0,.78-3.11,5.17,5.17,0,0,0-.84-2.27l-.36-.25a1.55,1.55,0,0,1-.24-.19,35.58,35.58,0,0,1-15-1.57c-.28-.06-.55-.12-.81-.2a9.73,9.73,0,0,1-4.65-2.85,11.94,11.94,0,0,1-4.16-7.25,7,7,0,0,0-1.45-1.11,5,5,0,0,0-3.25-3.85c-9.74-3.49-19.69-6.73-30.17-5.67a30.07,30.07,0,0,0-13.41,4.52c-4,2.65-8.4,6.25-10.49,10.7-2.27,4.83-1,10.2,2.22,14.28,3,3.86,7.78,5.89,12.36,7.31a118.17,118.17,0,0,0,15.53,3.84,66.4,66.4,0,0,0,15.11.49,154.1,154.1,0,0,0,17.91-2.16q1.95-.36,3.9-.78c.16-.18.32-.36.49-.53a1.79,1.79,0,0,1,2.77.48,23.17,23.17,0,0,1,2,5.22,4.84,4.84,0,0,0,4,.67,1.81,1.81,0,0,1,1.34-1.91,1.55,1.55,0,0,1,.31,0c-.12-3.17-2.1-6.16-3.05-9.25a1.73,1.73,0,0,1,.53-1.7C208.54,175.45,211.63,174.93,214.72,174.56Z"/><path class="b98f4b4b-9099-48ed-93b3-e17a4fc3e527" d="M245.88,228.13a10.71,10.71,0,0,0-5.15-8.18,19.43,19.43,0,0,0,2-9.57,20.33,20.33,0,0,0-4.42-11.86,24.14,24.14,0,0,0-5.79-5c-1.44-.94-3-1.76-4.39-2.71.11-.3.22-.61.34-.91,1.57-2.93,3.53-5.66,5.37-8.44a10.88,10.88,0,0,0,1-9.45.43.43,0,0,0,0-.07c1.35-2.32,2.33-5.48,1.42-8.14-.08-.22-.15-.44-.21-.67.58-2.07,1.43-4.06,2.11-6.1a25,25,0,0,0,1-12.47c-1-5.49-7.41-9.46-12.76-8a10.85,10.85,0,0,0-8.07,12.08c0,.12,0,.24,0,.36-.63,2.32-1.61,4.52-2.32,6.81-1.24,4-1.88,8.71-.49,12.75.15.43.31.85.47,1.25l-.09.13a83.29,83.29,0,0,0-7.42,12.67,21,21,0,0,0,.17,17.73c2.07,4.07,5.7,7,9.54,9.36.86.52,1.7,1.09,2.55,1.64l-.38.19a18,18,0,0,1-2.18.46,30.18,30.18,0,0,0-5.94.76,16.91,16.91,0,0,0-7.67,4.34l-7.32-.32a9.85,9.85,0,0,0-2.66-2.43c-.87-.54-1.72-1.1-2.55-1.7-.62-.45-2.56-2.16-1.65-1.3-1.2-1.12-2.38-2.25-3.46-3.48-.6-.69-1.18-1.39-1.74-2.11l.22.38c-.27-.48-.62-.92-.92-1.39a44.25,44.25,0,0,1-2.9-5.38c-2.32-5.08-9.62-7.22-14.38-4.43a10.88,10.88,0,0,0-4.43,14.37,50.8,50.8,0,0,0,4.2,7.43,11.4,11.4,0,0,0-2.59,9.6c.76,4.76,4.87,8.69,9.38,10,.51.15,1,.27,1.55.38a8.66,8.66,0,0,0-.34,2.38,12.55,12.55,0,0,0,1.22,5.42,10.57,10.57,0,0,0,6.15,5.15,118.23,118.23,0,0,0,33.79,3.09c5-.33,9.81-1.88,12.52-6.57A13.26,13.26,0,0,0,230.4,241l7.37-1.56A10.62,10.62,0,0,0,245.88,228.13Z"/><path class="b98f4b4b-9099-48ed-93b3-e17a4fc3e527" d="M185.17,205.72l0,0C184,203.66,184.68,205.09,185.17,205.72Z"/><path class="b98f4b4b-9099-48ed-93b3-e17a4fc3e527" d="M137.44,134.22a38.8,38.8,0,0,0-13.19-.79c-5,.52-10.07,2.23-12.9,6.64-2.43,3.77-2.22,8.35-2.4,12.65-.14,3.32-.29,6.64-.43,9.95-.24,5.56,4.43,11.1,10.18,11.08a10.83,10.83,0,0,0,11.08-10.17c.13-3,.16-6.1.27-9.16l1.07.1a11.28,11.28,0,0,0,8-.77,10.84,10.84,0,0,0,5.16-6.14C145.71,142.46,143.24,135.54,137.44,134.22Z"/><path class="6b33e61b-dc53-426f-8330-37adca8efbf2" d="M212.63,214.45a3.4,3.4,0,0,0-4-2.53c-5,1.62-10.2,1.88-15.34,2.36s-10.49,1.32-15.55.15a5,5,0,0,0-.54-.08,4,4,0,0,0-.82-2.82,92.94,92.94,0,0,1-8.06-13.27c-1.94-3.88-7.9-.73-5.95,3.15a101.07,101.07,0,0,0,9,14.68,2.74,2.74,0,0,0,2,1.06,3.37,3.37,0,0,0,2.29,3.7c5.92,1.36,11.8.67,17.77.12,5.58-.52,11.33-.72,16.7-2.48A3.47,3.47,0,0,0,212.63,214.45Z"/><path class="6b33e61b-dc53-426f-8330-37adca8efbf2" d="M215.12,172.18q-4.69,2.23-9.22,4.81a3.42,3.42,0,0,0-.25,5.82c1.45,1,1.66,2.19.4,3.36-2,1.89-2.85,4.47-1.44,7.05,1.93,3.51,7.18,1.09,6.29-2.31l.23-.21a8.22,8.22,0,0,0,1.61-9.77c1.82-1,3.67-1.91,5.53-2.8C222.19,176.26,219,170.31,215.12,172.18Z"/><path class="6b33e61b-dc53-426f-8330-37adca8efbf2" d="M224.62,162.29a3.41,3.41,0,0,0-4.76-.2,6.42,6.42,0,0,1-4.8,2c-4.33-.06-4.63,6.67-.29,6.73a13.27,13.27,0,0,0,9.65-3.82A3.44,3.44,0,0,0,224.62,162.29Z"/><path class="6b33e61b-dc53-426f-8330-37adca8efbf2" d="M181.8,113.88a35.42,35.42,0,0,0,.43-10.81c.53-5.91.57-11.82-1.08-17.65a3.54,3.54,0,0,0-.31-.77,3.11,3.11,0,0,0-1.07-1.91,3.11,3.11,0,0,0-.24-2.48c-5.39-10.44-16.6-15.41-23.66-24.41a3.14,3.14,0,0,0-3.06-1,3.66,3.66,0,0,0-.92-.18c-23.48-1.64-47-3.28-70.59-1.88-6.55.39-13.18,1.43-19.72.48A3.36,3.36,0,0,0,58.14,56a3.57,3.57,0,0,0-4.27,4c2.69,16.58-1.5,33.25-1.66,49.86-.08,8.43.75,16.87,1.33,25.27s.86,16.79,2.87,25c2.26,9.2,3.89,18.27,3.92,27.78a4.74,4.74,0,0,0,0,.55,3.69,3.69,0,0,0-.51,2.66,3.45,3.45,0,0,0,4,2.53c11.88-1.3,24.09-.69,36-.45s24.12.72,36.17,1.42q10.35.62,20.69,1.44c4.32.34,4.6-6.39.28-6.73q-36.78-2.94-73.73-3.05c-5.44,0-10.87,0-16.29.4a107.33,107.33,0,0,0-3-23.74,111.52,111.52,0,0,1-2.63-12.37c-.52-4.1-.68-8.26-1-12.39-.59-8.63-1.43-17.29-1.51-25.94-.08-8.43.92-16.8,1.69-25.17.84-9.06,1.29-18.15,0-27.18a4.69,4.69,0,0,0,.65.14c5.75.84,11.53.07,17.28-.32S90.21,59.05,96,59c11.78-.12,23.56.36,35.32,1,6.75.4,13.5.87,20.25,1.34h.11c6.69,7.87,17,12.65,21.86,22a3.46,3.46,0,0,0,.69.92,5,5,0,0,0-.16.69c-.64,4.21-.08,8.37.54,12.52q-1.11,11.71-2.11,23.44c-2.63,7.15-5.46,14.22-3.63,22.07a3.13,3.13,0,0,0,1.68,2.19,3.63,3.63,0,0,0,2.35,2.8,3.43,3.43,0,0,0,4.23-2.17c3.65-8.63,2.72-18.25,3.35-27.44A38.24,38.24,0,0,0,181.8,113.88Z"/><g id="88669e50-dc8b-4d2e-bf19-e0830239269a" data-name="pdf24_9"><path d="M204.52,168.55A14.11,14.11,0,0,1,195,142.33c-5.17-3.76-13.44-2-16.67,3.54a3.19,3.19,0,0,0-.55,1.82c.14,1.82,2.52,2.32,4.34,2.48s4.12,1.34,3.6,3.08c-8.29-3-16.87-5.55-25.69-5.73s-17.93,2.19-24.53,8a15.56,15.56,0,0,0-4.8,6.86c-1.23,4.09.18,8.62,2.81,12s6.4,5.6,10.27,7.37c17.29,8,37.76,6.67,55.69.3a15.94,15.94,0,0,0-7.53.85,9.69,9.69,0,0,1,4.42-3c1.77-.38,4,.67,4.1,2.49l3.82-.79a5,5,0,0,1-2.88,3.57,45,45,0,0,0,23,23.12,133.12,133.12,0,0,1-38.6,6.17c-2.78,0-5.68-.07-8.11-1.43a15.39,15.39,0,0,1-4.72-4.75,64.52,64.52,0,0,1-8.19-16,10.43,10.43,0,0,0,3.21,19.82,9.61,9.61,0,0,1-9.05-15.6q-46-3.06-92.23-2c-.36-1.32,1.54-2,2.9-2q44.86-.45,89.7,2l5.14-4.6a67.72,67.72,0,0,1-22.95-7.34c-5.93-3.16-11.86-8-12.71-14.65-1-8.11,6-15.09,13.47-18.46a43.12,43.12,0,0,1,33.37-.76,14.45,14.45,0,0,1,7.28-9.18,38.56,38.56,0,0,1-11.07-6.24,5.18,5.18,0,0,1-1.59,5.79A336.42,336.42,0,0,1,175.12,85a63.38,63.38,0,0,1-19.85-19.16c-2.1-3.14-6.43-3.63-10.2-3.81q-40.44-1.81-80.87-3.67A735.22,735.22,0,0,1,151.75,61q10.73,10.89,21.44,21.8a9.1,9.1,0,0,1,2.42,3.38,8.91,8.91,0,0,1,.1,3.71q-2.11,19.42-4.27,38.84c1.84-.81,3.67-1.63,5.5-2.41a11.5,11.5,0,0,1,0-5.68,2.87,2.87,0,0,0-2.73.4q.57,2,1.11,4.08a3.58,3.58,0,0,1,1.68-7c.73-12.22,1.49-24.56,5-36.29-1,9.15-2,18.3-2.94,27.44-.5,4.69-.81,10,2.29,13.5,1.72,1.93-1.19,4.63-3.69,5.28s-5.83,2-5.37,4.52a21.85,21.85,0,0,1,11.46,6.64c3.58-3.64,9.88,2.16,14.62.28a16.1,16.1,0,0,1,21.4,19.35c2.41-1.11,4.91-2.24,7.55-2.2s5.46,1.65,6,4.23a15.22,15.22,0,0,0,10.27-10.58,12.92,12.92,0,0,0-5.15-13.51c-4.33-2.76-10.67-2.1-14,1.82a5.62,5.62,0,0,1,0,6.09c.06-6.61-6.06-12.18-12.61-13s-13.14,2.08-18.17,6.38c4.29-7.73,15.18-10.89,22.93-6.66,3.54,1.93,7.45,5.19,11,3.31,6.06-3.24,14.38.26,17.06,6.57s-.06,14.2-5.56,18.26c-3.45,2.54-8.25,4.46-8.89,8.68,1.55,1.37,3.94,1.12,5.9.49s3.95-1.59,6-1.33,4,2.49,3,4.33c3.12,0,6.24,0,9.39,0a11.07,11.07,0,0,0,5.08-.82c1.55-.81,2.71-2.64,2.15-4.27s-3.28-2.18-4-.6c0-2.56,4.19-3.3,5.62-1.18s.27,5.22-1.81,6.73-4.73,1.86-7.26,2.17a19.43,19.43,0,0,1-7.41-.1c-2.38-.69-4.6-2.58-4.86-5.06-2.82,1.64-6,3.32-9.19,2.6S227.48,166,230,163.9c-1.13.15-2.28.27-3.42.42.15,4.26-5.26,6.48-9.48,6s-8.39-2.57-12.55-1.72M178.9,211.62a9.6,9.6,0,0,0,3.46.73c7.95.55,15.91-.67,23.79-1.88,3.73-.55,7.44-1.13,11.17-1.69.87-.14,1.88-.38,2.26-1.18-10-3.63-16.49-13.3-20.21-23.21-10.77,3-21.74,6-32.88,5.44a47.34,47.34,0,0,0,9.4,19.12,9.34,9.34,0,0,0,3,2.67m36.7-65.08a18.73,18.73,0,0,0-6.06-4.9,13.88,13.88,0,0,0-12.53.56,15.46,15.46,0,0,0-7.35,10.28c-.87,4.35.43,9.43,4.19,11.78a13.08,13.08,0,0,0,3.43,1.42c5.29,1.46,11.32,1.33,15.89-1.71s7.08-9.45,4.62-14.35a14.48,14.48,0,0,0-2.19-3.08m7.65,14.85a4.17,4.17,0,0,1,2.95.53c1.67,1,3.82.42,5.69-.19a1.19,1.19,0,0,0,.67-.43c.16-.23,0-.62-.24-.61-.84,0-1.28-1-1.93-1.54a4.12,4.12,0,0,0-3.16-.63A18.72,18.72,0,0,0,217,163c-1.58,1.37-3.06,3.06-5.08,3.58-.39.09-.44.7-.14,1a1.72,1.72,0,0,0,1.08.41l5.42.62a6,6,0,0,0,3.7-.34,5,5,0,0,0,1.23-1,4.75,4.75,0,0,0,1.42-2.71,2.18,2.18,0,0,0-1.53-2.39l.16-.7m-45.15-35.2c.92-.28,2-.76,2.09-1.73a2.35,2.35,0,0,0-.32-1.2l-1.15-2.44-.64.13c-.09,1.69-.21,3.39-.32,5.08-.07.17.26.36.34.16"/><path d="M196.07,250.36a.75.75,0,0,1,.29.77,1.78,1.78,0,0,1-1,.07c-.27-.38.23-1,.68-.82"/><path d="M231.4,254.65c-.26-.23,0-.67.27-.77a1.57,1.57,0,0,1,1,.22.48.48,0,0,1-.11.51l-1.05,0"/><path d="M258.93,236.66a1.19,1.19,0,0,0,.45.67,3.1,3.1,0,0,1-1.76-.07,7,7,0,0,0,.12-.78c.41,0,.82.1,1.23.16"/><path d="M209.86,252.42c-.35.1-.83.1-1-.23a2.25,2.25,0,0,1,2-.48,2.26,2.26,0,0,1-1,.78"/><path d="M179.09,139.51a.75.75,0,0,1-.91-1.06,2.14,2.14,0,0,1,1.9.8.9.9,0,0,1-1,.26"/><path d="M230.71,240.1a1.38,1.38,0,0,1-1.4.79l1.5-1.6a1,1,0,0,1,0,.86"/><path d="M176.63,243.69a1,1,0,0,1,0-.87,7.91,7.91,0,0,0,1.34,1.7.75.75,0,0,1-.51.26c-.27-.35-.55-.73-.82-1.11"/><path d="M154.29,60.49a1.07,1.07,0,0,1,1.37.79.69.69,0,0,1-.89-.43,1.32,1.32,0,0,1-.45.46,1.35,1.35,0,0,0-1.3-.53c.1-.47.77-.42,1.22-.3"/><path d="M200.79,238.88a2,2,0,0,0,2.41-.12,1,1,0,0,1,.27.75l-2.6-.11a.86.86,0,0,1-.08-.52"/><path d="M141.4,223.44a13.27,13.27,0,0,1,3.67.16,12.91,12.91,0,0,1-3.67-.16"/><path d="M155.07,204a23.91,23.91,0,0,1,.21-4.4,13.55,13.55,0,0,1-.21,4.4"/><path d="M183.67,145c.35-.59,1.24-.58,1.9-.35a1.3,1.3,0,0,1,.93.73,2.1,2.1,0,0,1-1.79,1.18c-.76,0-1.43-.9-1-1.56"/><path d="M215.91,252.27c.68-.06,1.6.19,1.61.87a16.34,16.34,0,0,1-4.19-.22,7.9,7.9,0,0,1,2.58-.65"/><path d="M189.75,143.88a1.16,1.16,0,0,0,.14-.75,5.27,5.27,0,0,1,.7-.25,7.94,7.94,0,0,1-1.91,3.1,6.48,6.48,0,0,0,.56-2,.63.63,0,0,1,.51-.09"/><path d="M226.7,245.66a2.93,2.93,0,0,1-2.57.37c-.58-.2-1.17-.4-1.75-.62a6.58,6.58,0,0,1,4.37-.36c0,.2,0,.41-.05.61"/><path d="M165.57,224.45c.53-.24,1.11.28,1.35.83a4.46,4.46,0,0,0,.76,1.58,1.27,1.27,0,0,1,0,1.69c-.24,0-.45-.17-.57-.35-.82-1.12-1.7-2.37-1.55-3.75"/><path d="M202.92,252a1.14,1.14,0,0,1-.73-.09.94.94,0,0,1-.21-.18l-.29-.28a23.29,23.29,0,0,1,7.11.43c-2,0-3.92,0-5.88.12"/><path d="M199,153a2,2,0,0,1-2.8-1.49,2.28,2.28,0,0,1,2.27-2.39,2.19,2.19,0,0,1,1.7.8c0,1.15-.17,2.51-1.17,3.08"/><path d="M162.86,246.89a1,1,0,0,1,0,.78A18.39,18.39,0,0,0,158,247c-.65,0-1.53-.15-1.61-.81a3.67,3.67,0,0,1,3.3.47,1.13,1.13,0,0,0,1.66-.43l.65,0a.76.76,0,0,0,.84.68"/><path d="M225.11,251.07a3.1,3.1,0,0,1-3.05-.71c.28.08.58.13.86.21a5.09,5.09,0,0,1,1.66-.73c.55-.22,1.13-.65,1.13-1.26a.77.77,0,0,1,1.32-.39.76.76,0,0,1-.85,1.07c0,.25,0,.51-.07.75a1,1,0,0,0-1,1.06"/><path d="M140.82,133.55A1.33,1.33,0,0,1,142,134a1.42,1.42,0,0,1,.08.68l-.11,2.53c-.17,0-.37.05-.55.08a3,3,0,0,0-.89-1.94c-1.06-.84-3-.22-3.58-1.49l.3-.45c1.19.05,2.41.1,3.6.13"/><path d="M182,249.29c-.49.22-1-.19-1.39-.56-.62-.61-1.25-1.2-1.85-1.81s-1.15-1.44-.65-2a5,5,0,0,1,2.7,1.26c.33.4.71,1,1.22.83.42.76.72,1.9,0,2.32"/><path d="M118.07,134.6a4,4,0,0,1-2.66.73,8.72,8.72,0,0,1-.34,3.37c-.14.45-.6,1-1,.7a16,16,0,0,1-.09-5.53,7.71,7.71,0,0,1,2.88-.47,3.07,3.07,0,0,0,1.17,1.2"/><path d="M133.05,228.6a9.07,9.07,0,0,0-3.74.31c.42-.24.84-.89.39-1.08,1.38.08,2.71.93,4,.53a5.62,5.62,0,0,1,4.36.49c-1.69-.09-3.35-.18-5-.25"/><path d="M113.38,171.75l3.11.15a3.33,3.33,0,0,1,1.31.27,1.07,1.07,0,0,1,.56,1.11c-.45-.24-1,.05-1.42.24s-1.14.19-1.29-.29c-.1.32-.55.17-.85,0s-.82.05-.62.32a2.24,2.24,0,0,0-1.86-.49,11.92,11.92,0,0,1,.21-6.67c1.29,1.36,1.14,3.47.88,5.33"/><path d="M172.13,247.05c1,.39,1.85,1.44,2.88,1.18a19.19,19.19,0,0,1-4.35.15,51,51,0,0,1-6-.89c-.56-.11-1.32-.57-1-1.06.05.35.55.48.9.37s.62-.39,1-.48.84.08.83.45a.65.65,0,0,1,.79-.32,2.45,2.45,0,0,0,.49.28c.19,0,.42-.17.29-.31,1.12.89,2.82.14,4.14.63"/><path d="M103.33,227.55a74.07,74.07,0,0,0,8.29-.19.59.59,0,0,1,0,.74,3.1,3.1,0,0,1-2.22-.38c-.38-.12-.54.63-.16.71-1.16.26-2.26-.7-3.44-.58-.89.09-1.81.79-2.59.33a3.38,3.38,0,0,0-3.45,0,.87.87,0,0,1-.14-.7c1.23,0,2.47,0,3.72.05"/><path d="M127.07,228.45a67.36,67.36,0,0,1-10.91-.16c0-.2-.08-.39-.11-.57a3.65,3.65,0,0,0,2.07-.26c.39.45,1.11.35,1.72.25a16.62,16.62,0,0,1,7.29.37,1,1,0,0,0,.64-.16,2.12,2.12,0,0,1,1.71,0c-.12.19-.23.38-.35.55-.56-.11-1.29-.18-1.57.35.14-.21-.23-.38-.49-.37"/><path d="M216.45,244.75a1.38,1.38,0,0,1,.78-.06c1.51.2,3,.41,4.52.63,0,.6-1.09.73-1.3.18-.46,1-2.14-.11-2.93.59-.61.54-1.64-.78-2.2-.24a2.14,2.14,0,0,1-1.92.28c-1.7-.26-3.38-.53-5.08-.82a1.3,1.3,0,0,0,1.45-.61c.82.66,2,0,3.1,0s2.49.58,3.58.07"/><path d="M212.54,137.87a1.36,1.36,0,0,1-.3-1.42,1.46,1.46,0,0,1,.72-.73c1.33-.6,2.78.42,3.86,1.4.28.23.55.48.82.7,1.48,1.32,3.08,3,2.85,4.94-.11.92-.86,1.89-1.79,1.79a5.85,5.85,0,0,0-6.16-6.68"/><path d="M198,126.67a2,2,0,0,1,1,.28.7.7,0,0,1,.2.92,4.12,4.12,0,0,1-2.5.72,7.61,7.61,0,0,0-5.08,1.69,13.24,13.24,0,0,1-1.93,1.57,2.06,2.06,0,0,1-2.31-.12,1,1,0,0,1,.42-.72,30.21,30.21,0,0,1,4.52-3.32,9.38,9.38,0,0,1,1.52-.76,9.23,9.23,0,0,1,4.15-.26"/><path d="M214.31,248.54a9.67,9.67,0,0,0,3.31.33c-.11.47.53.72,1,.72s1.08-.05,1.3.4a2.34,2.34,0,0,1,1.11-.5c.25.25.47.52.72.77-.52.63-1.57.37-2.32,0s-1.7-.74-2.33-.19a6.22,6.22,0,0,0-1-.32,24.94,24.94,0,0,0-6.32-.74c-.74,0-1.71-.12-1.85-.86a5.34,5.34,0,0,1,3.34.38,1.62,1.62,0,0,1,1.79-.19c.4.24,1,.59,1.22.19"/><path d="M175.07,198.19c0-.26.38-.38.62-.26a1.12,1.12,0,0,1,.49.59c1.14,2.19,2.26,4.41,3.32,6.64a10.86,10.86,0,0,0,2.63,3.88c0,.39-.52.59-.89.46a1.81,1.81,0,0,1-.81-.81q-2.37-3.7-4.38-7.62a3.63,3.63,0,0,0-1-2.88"/><path d="M130.05,75.13l-6-.26a6.67,6.67,0,0,1-4-1.06,1.49,1.49,0,0,0,1-.58c.13.13.25.27.38.42a1.84,1.84,0,0,1,1.4-.39,27.17,27.17,0,0,1,4.75.44c.42-.29,1-.09,1.47.06a6.36,6.36,0,0,0,3.51.11c.39-.1.79.18,1.18.31s1-.05,1-.46a2.23,2.23,0,0,0,1,.65.78.78,0,0,0,1-.46l0,.85a7,7,0,0,0-3.49.15,9.29,9.29,0,0,1-3.11.22"/><path d="M136.34,222.64c.1.22.2.42.3.62-.78.3-1.57-.45-2.37-.36a34.65,34.65,0,0,1-10.89-.48,2.17,2.17,0,0,0-.91.13,6.36,6.36,0,0,1-4.79-.61l7.53.25a6.31,6.31,0,0,0,2.9-.33c-.05.26-.09.54-.14.8a2,2,0,0,0,1,.15.51.51,0,0,0-.08-.74,35.82,35.82,0,0,0,7.46.57"/><path d="M256.45,237.34l-6.35-.47-13.53-1a.86.86,0,0,0-.85-.56.73.73,0,0,1-.08-.52c2.09-.71,4.43.25,6.58-.24a2,2,0,0,1,1-.11,48.07,48.07,0,0,0,10.47,1.42c.45,0,1,.08,1.19.5a1.06,1.06,0,0,0,.43-.46c0,.44.79.47.8.06a1.08,1.08,0,0,0,.91.51c-.16.28-.35.55-.53.83"/><path d="M123,122a3,3,0,0,0,1.57.4c3,.12,6.08.25,9.13.4a1.4,1.4,0,0,0,1.23-.36c.14.16.29.32.43.46a1.15,1.15,0,0,1,2,1c-2.93,0-5.83-.06-8.75-.29-.52,0-1.12,0-1.42.37.1-.32-.39-.49-.76-.48-2.61.13-5.24.23-7.84.34a4,4,0,0,1-2.78-1,10.89,10.89,0,0,1,3.76-.71,6.06,6.06,0,0,0,2.65,0c.24-.12.55-.28.76-.15"/><path d="M78.7,101.91a3.44,3.44,0,0,1-.82-2.13c.18-.15.17-.43.16-.67-.15-2-.33-4-.48-6a80.81,80.81,0,0,1,0-14h1a22.16,22.16,0,0,1,.29,5.46c-.11,3.14-.2,6.27-.31,9.41,0,1.26-.07,2.51,0,3.77a41.62,41.62,0,0,0,.23,4.17"/><path d="M184.44,219.07c-3.94.76-8,.31-11.94-.12a1,1,0,0,1-.87-.4l-.41.26c-.66-.2-1.35-.36-2-.5-1.14-.22-2.26-.46-3.38-.7s-2.25-.58-2.55-1.59a32.4,32.4,0,0,1,5.28.64c1.83.34,3.68.68,5.53,1,.13,0,.26-.05.39-.07,1.36.19,2.72.38,4.07.59a1.39,1.39,0,0,0,1.12-.15c.44.71,1.48.78,2.33.68a3.07,3.07,0,0,1,2.46.37"/><path d="M198,247.69c-.51-.19-1,.24-1.59.32-1,.18-2-.93-3-.6a9.76,9.76,0,0,1-.93.44c-.74.1-1.4-.76-2.12-.55a9.92,9.92,0,0,1-6.85-.46c.22-.23.43-.44.63-.67,0,.15.25.19.41.17l7.23-.3a2.37,2.37,0,0,0,1.7.27c.24-.08.46-.24.73-.32a.59.59,0,0,1,.68.31,6.75,6.75,0,0,1,4.48.17,1.35,1.35,0,0,1,1.87.21,5.82,5.82,0,0,1,.48-.41c.07.41.67.39,1.11.41a2.11,2.11,0,0,1,1.62,1l-1.7.38a7.92,7.92,0,0,1-4.74-.33"/><path d="M187.42,239.27l4.35.12a1.46,1.46,0,0,1,1.75.11,41.37,41.37,0,0,1,5.07-.56c.72,0,1.6.07,1.9.73l-6.38.29a3.08,3.08,0,0,0-1.18.19,3.18,3.18,0,0,1-1.31.18l-12,.14a5.57,5.57,0,0,1-3.65-.8c0-.24-.08-.48-.12-.7l11.59.3"/><path d="M75.69,75.8a.84.84,0,0,1,.4-1.39l7.81-.56a110.88,110.88,0,0,1,11.81-.41,11,11,0,0,1,4.19.76c0,.69-.9.92-1.6,1L93,75.32c-3.52.11-7,.24-10.52.68-2.07.26-4.24.64-6.25.06a1.75,1.75,0,0,1-.55-.26"/><path d="M103.85,175.92a56.11,56.11,0,0,0-11.43-.83,54.24,54.24,0,0,1-12.34-.78,7.9,7.9,0,0,1-3.25-1.14c1.07-1.1,2.83-.81,4.31-.53a41.08,41.08,0,0,0,13.32.28,7.93,7.93,0,0,1,2.23.07l5.2.64a3.48,3.48,0,0,1,1.82.59,1.18,1.18,0,0,1,.14,1.7"/><path d="M104,83.91c-1.53-1.24-2.14-3.23-2.67-5.12-.79-2.81-1.57-5.81-.63-8.57,2.14,4.19,1.15,9.68,4,13.4a4.75,4.75,0,0,1,.52,3.53l-.93,8c-.28.06-.46-.36-.34-.64s.33-.51.36-.81-.39-.6-.55-.35a28.88,28.88,0,0,0,.21-9.46"/><path d="M120.28,118.59a9.48,9.48,0,0,1,3.1,0,43.41,43.41,0,0,0,7.76,1.16,45.11,45.11,0,0,0,6.16.43,8.44,8.44,0,0,1,4,.6,1.08,1.08,0,0,1-1.62.87c-.21.25-.6.23-.92.2-6.82-.85-13.66-1.38-20.52-1.63a2.55,2.55,0,0,0-1.73.34c-.1-.35-.75-.34-.81,0-.41-.47-.82-.92-1.21-1.4l5.74-.62"/><path d="M81.61,164.55l-.84,0q-.48-9.42-1-18.83c-.15-3-.3-6.06-.31-9.1a2.75,2.75,0,0,1,.35-1.59,1,1,0,0,1,1.44-.22,1.49,1.49,0,0,1,.23.88q.33,14.44.07,28.9"/><path d="M202.15,179.54c-.5-1.06-1.87-1.31-3-1.45l-5-.53c-.18-.44.19-.93.59-1.19,1.23-.79,2.84-.55,4.31-.27l2.68.5a12.74,12.74,0,0,1,5.37,5.89,1.73,1.73,0,0,0,.49.78.59.59,0,0,0,.82-.06,3.71,3.71,0,0,1,.34,3.36,11.34,11.34,0,0,1-1.8,3c-.39.5-.76,1-1.13,1.51-.9-1.06-.14-2.65.64-3.79s1.61-2.66.81-3.78c-.88.27-.3,2-1.2,2.29-.38-1.16-.77-2.31-1.15-3.47a6.59,6.59,0,0,0-.92-1.93,2,2,0,0,0-1.85-.84"/><path d="M113.2,75.57a2.82,2.82,0,0,1,3.36-1.66,8.42,8.42,0,0,1,1.76,1,14.45,14.45,0,0,0,6,1.78,87.66,87.66,0,0,0,15.11-.06l3.19-.19c-.15,1-1.47,1.42-2.53,1.52a91.69,91.69,0,0,1-19.94-.19c-1.46-.17-3.2-.59-3.64-2-1.12,0-2.25-.12-3.35-.18"/><path d="M117.64,115.07q.51-16.75,1.57-33.44c.06-1.06.58-2.45,1.59-2.23q-.89,18.5-2.31,37c-.59.17-.88-.69-.85-1.3"/><path d="M101.12,121.25c1.55,1.67,4.75.31,6.42,1.87,0,.41-.54.54-.93.55a70.37,70.37,0,0,1-9.27-.76c-1.36-.17-2.72-.36-4.07-.52-3.56-.46-7.12-.91-10.65-1.45-1.47-.21-2.93-.47-4.39-.73,0-.33-.06-.63-.09-1a10.22,10.22,0,0,1,5.44-.5c4.45.47,8.89,1.44,13.37,1.19,3.1-.17,6.19-.91,9.3-.64a1.92,1.92,0,0,0,.51.82l-3.77.36a2.37,2.37,0,0,0-1.87.77"/><path d="M90.56,171.52a19.91,19.91,0,0,1-6.93-.29c-.25.42-.87.09-1.32-.1-1.25-.58-2.91.16-4.07-.59-1-.65-1.15-2-1.16-3.23a110.7,110.7,0,0,1,1.43-19.06c1,6.94-.68,14,.2,21a.72.72,0,0,0,.17.48.85.85,0,0,0,.47.15c4.82.4,9.66.8,14.48,1.22-.43.22-.85.45-1.27.64a2.91,2.91,0,0,0-2-.19"/><path d="M143.07,96.08l-.39,4.6c-.1,1.19-.21,2.38-.31,3.59A105.43,105.43,0,0,1,140.6,118a203.41,203.41,0,0,1,1.52-23.54,1.32,1.32,0,0,1,.45-1c.2-3,.39-6.11.59-9.18.05-.8.22-1.77,1-2a1.5,1.5,0,0,1,.31-2.22q-.69,8-1.37,16.09"/><path d="M108.13,77.45a13.83,13.83,0,0,0,.34,3.9,13.55,13.55,0,0,1,.24,4.41l-1.17,21.47a4.91,4.91,0,0,1-1,3.36c-.09-7.91.18-15.81.47-23.71.09-2.25.16-4.48.24-6.73a60.14,60.14,0,0,1,1-10.21c0,2.51-.06,5-.08,7.51"/><path d="M180.56,79.87c-1.77.43-3.38-1-4.65-2.27L165.25,66.72c-.81-.84-1.64-1.7-2.47-2.54-2.72-2.78-5.45-5.56-8.15-8.36a2.56,2.56,0,0,1-.92-1.8c.08-.69,1.14-1.14,1.46-.54,2.11,4,6.14,6.39,9.42,9.42,4.63,4.27,7.9,9.89,12.95,13.64,1.24.92,2.65,1.84,3,3.33"/><path d="M171.54,237.84c-1-1.61-2.09-3.24-3.15-4.84a2.71,2.71,0,0,1-.63-2,6.14,6.14,0,0,0,3.56.93c3.85.18,7.68.32,11.51.48l19.95.79a47.68,47.68,0,0,1-7.47.29q-12.8-.16-25.65-.33c.11,1.09,1.07,1.84,1.84,2.61a11.36,11.36,0,0,1,3.27,9.87,1.59,1.59,0,0,1-1.31-1.33,12.13,12.13,0,0,1,0-2,9.38,9.38,0,0,0-1.88-4.43"/><path d="M44.66,228.49a7.35,7.35,0,0,1,4.35-.9q25,.09,50,.15-15.69.54-31.39,1a18.87,18.87,0,0,1-5.14-.3,129.24,129.24,0,0,1-17.82,0"/><path d="M107.35,133.87a5.25,5.25,0,0,0-.55,2.57q-.57,18.23-1.19,36.41a1.88,1.88,0,0,1-.51-.82c-1.23-3.2-1.1-6.72-.94-10.14q.69-13.69,1.34-27.39l-20.6-.42c-2.18,0-4.54-.14-6.24-1.5-.45-.6.65-1.14,1.41-1.11l24.56,1a3.89,3.89,0,0,1,1.33-3.63c0,1.8.07,3.82,1.39,5.05"/><path d="M40.05,220.73q5.81.09,11.63.15,29.08.35,58.17.77a23.46,23.46,0,0,1,7.74,1l-70.92-.14a30.22,30.22,0,0,1-7.19-.61.76.76,0,0,1-.51-.31c-.28-.49.51-.84,1.08-.84"/><path d="M125.54,190q-28-.81-56-.56c-1.41,0-3.32-.44-3.28-1.85q40.28-.47,80.55,1.42a5.33,5.33,0,0,1,2.32.47,1.82,1.82,0,0,1,1,2,59.29,59.29,0,0,0-11.4-1.09l-8.46-.25-4.72-.13"/><path d="M151.78,55.07q-18.1,0-36.23-.13H106c-3.18,0-6.37,0-9.56,0q-19.39-.07-38.81-.12a3.72,3.72,0,0,1-2.53-.63c.86-.94,2.27-1,3.55-1q23.13-.16,46.25-.3c8.32,0,16.67-.11,25,.07a201.69,201.69,0,0,1,23.17,1.56c-.11.52-.81.62-1.33.62"/><path d="M207.87,177.62c-.2-.44-.4-.91-.62-1.37a26.43,26.43,0,0,1,11.19-4c3.92-.44,8.14.1,11.31,2.47a11.32,11.32,0,0,1,3.86,5.26c1.18,3.3.23,7.75-3.05,9a12.23,12.23,0,1,1-2.37,23.59c1.32-1.53,3.67-1.23,5.68-1.43A10,10,0,0,0,238.6,193c-3.37-2.33-7.79-2.39-11.86-1.95-.29-.32-.56-.63-.85-.93a16.5,16.5,0,0,0,5.06-3.34,5.21,5.21,0,0,0,1.29-1.66,4.72,4.72,0,0,0,.27-2.24c-.46-4.94-5.45-8.51-10.4-8.94s-9.77,1.52-14.24,3.67"/><path d="M59.39,64.53a6.41,6.41,0,0,1,.82-3.93,44.92,44.92,0,0,1,.55,5.92c1.33,30-.12,60.14,2.23,90.09.78,9.74,1.95,19.48,1.7,29.27-.91-.54-1.09-1.74-1.18-2.78-1.68-19.67-3.27-39.33-3.63-59-.05-3-.07-6-.09-9q-.21-25.25-.4-50.5"/><path d="M57.57,193.81q-.87-23.9-1.79-47.78-.33-9-.67-17.91c-.11-3.43-.25-6.86-.36-10.29q-1.16-30.48-2.3-61a8.85,8.85,0,0,1,1.22,4.61q3.22,46.62,4.19,93.36c.06,2.73.11,5.49.17,8.22q.28,14.94.56,29.9c0,.65-.8,1.5-1,.88"/><path d="M184.34,229.06c-3.15,0-6.34.08-9.31-.94,3.45,0,6.87,0,10.3.07a4.26,4.26,0,0,0,2.4-.44,6.87,6.87,0,0,0,1.3-1.44c2.05-2.47,5.61-2.93,8.8-3.21a1.41,1.41,0,0,0,0-1.64c-12.13,1.31-24.43,2.58-36.49.75a2.42,2.42,0,0,1,2.42-1.35,91.48,91.48,0,0,0,26.59-.37,38.09,38.09,0,0,1,7.4-.16q18.57.78,37.15,1.59c1.17.05,2.61.29,3,1.41q-12,.13-24.05-.28a31.2,31.2,0,0,1-6.33-.66c-1.48-.35-3.57-.56-4,.89a5.47,5.47,0,0,1,5.48,6.17,22,22,0,0,1-9.84-1.39l8,0c.47-1.81-1.06-3.63-2.83-4.18a11.32,11.32,0,0,0-5.51.16l-5.08,1c-1.75.36-4,1.35-3.64,3.1a18.49,18.49,0,0,1,4.81.16,4,4,0,0,1,4.27.52c-5,.08-9.94.12-14.88.2"/></g></svg>