<svg id="9053da1f-0b71-4cbd-9ede-b766a89d6f14" data-name="Layer 1" xmlns="http://www.w3.org/2000/svg" viewBox="0 0 300 300"><defs><style>.\36 1a7359c-1334-46c9-8a90-6693aabce2a5{fill:#fff;}.ee9738b5-d01b-4302-b9b9-fdf51138382b{fill:#52df84;}.\39 1ac4432-4285-4df6-9d23-7b6c395b34da{fill:#d1cfd0;}.\31 d6427ba-ceb8-4a37-9fd7-479cbd3bf254{fill:#8b898a;}</style></defs><path class="61a7359c-1334-46c9-8a90-6693aabce2a5" d="M48.44,134.72a10.38,10.38,0,0,0-4.73-4.18,2.5,2.5,0,0,0-3.08-.89,15.09,15.09,0,0,0-5,.11,29.69,29.69,0,0,0-7.31,2.51,6.12,6.12,0,0,0-3.79,5c-.29,5.75,6.74,7,11.08,6.52a7.55,7.55,0,0,0,1.4-.28l1.32,0a2.3,2.3,0,0,0,2.82,1.11C45.45,143.36,51.62,140,48.44,134.72Zm-18.75,2.71c0,.27.39-.19.65-.35s.27-.15.41-.22a5.81,5.81,0,0,0-.56,1.31A.85.85,0,0,1,29.69,137.43Z"/><path class="61a7359c-1334-46c9-8a90-6693aabce2a5" d="M244.09,86.54a5.86,5.86,0,0,0-7.32-.77,5.34,5.34,0,0,0-2.08,2.55l-.8.4A6.53,6.53,0,0,0,231.51,91a6.73,6.73,0,0,0-.42.9,5.42,5.42,0,0,0-2.36,4A2.51,2.51,0,0,0,230,98.14a3.8,3.8,0,0,0,4.51-.71,2.29,2.29,0,0,0,2.28.45,8.34,8.34,0,0,0,2.27-1.08,2.8,2.8,0,0,0,2.79-1.24C243.36,93.54,246.19,88.85,244.09,86.54Z"/><path class="61a7359c-1334-46c9-8a90-6693aabce2a5" d="M264.48,162.25c-4.28-6.38-11.22-9.42-18.4-11.33a56,56,0,0,0-12.51-2.25c-4.66-.46-9.34-.48-14-.53L208.05,148c.41-.73.77-1.48,1.11-2.25a2.34,2.34,0,0,0,2.69-1.84,23.84,23.84,0,0,0-.86-13.56,3.46,3.46,0,0,0-.51-.89,17.39,17.39,0,0,0-6.51-9.4,13.13,13.13,0,0,0-10.44-2.33,10.46,10.46,0,0,0-5.7,3.58c-.8-.9-1.65-1.78-2.44-2.74a4.14,4.14,0,0,1-1.2-3c.12-2,1-3.9,1.3-5.82,1.29-7.39.28-15.27-4.92-21s-13-6.15-20.24-5.67a90.65,90.65,0,0,0-20.43,3.43,51.25,51.25,0,0,0-15.45,7.54c.43-5.13,1-10.23-1.78-15A11.45,11.45,0,0,0,116,73.67c-3.66-1-7.23.51-10.39,2.26A60.31,60.31,0,0,0,89.29,89.24c-2.3,2.68-4.45,5.52-4.84,9.14s.66,7.5,1.41,11a34.25,34.25,0,0,0,2.91,8.38,54.66,54.66,0,0,0-14.83-1.59c-2.61.1-5.88.13-7.36,2.7s.53,6.14,1.59,8.65a39.8,39.8,0,0,0,4.23,8,23.17,23.17,0,0,0,5.16,5.29,19.37,19.37,0,0,0,1.07,7.94,45,45,0,0,1-5.2,5.59,43,43,0,0,1-4.32,3.43c-.57.27-1.13.54-1.68.82a2.25,2.25,0,0,0-.89.84h0q-1.93,1.16-4,2.12c-1.7.8-3.06,1.75-2.62,3.88.68,3.26,4.32,3.55,7,3.63a58.79,58.79,0,0,0,10.36-.41,27.93,27.93,0,0,0,9.58-3.27c3-1.66,5.77-3.73,8.75-5.44s6.5-3.32,10-2.79a10.66,10.66,0,0,1,1.38.33l1.2.93c.71.56,1.48,1.06,2.22,1.58a24.25,24.25,0,0,0-12.38,18.8,29.37,29.37,0,0,0,2.07,14.44,10,10,0,0,0,4.1,5.18,10.41,10.41,0,0,0,2.54.91,7.38,7.38,0,0,0,1.14.31,1.08,1.08,0,0,1,.26,0,2.66,2.66,0,0,0,3.88,1.25,2.35,2.35,0,0,0,.78.37,2.62,2.62,0,0,0,3.2-1.82,9.63,9.63,0,0,0,.08-2.56l4,.49a14.74,14.74,0,0,1,3.31.52c.78.28.82.56,1,1.41.76,4.86,2.47,9.08,6.12,12.53a2.7,2.7,0,0,0,2.69.52,24.24,24.24,0,0,0,11.2,7.21c4.08,1.34,8.59,1.66,12.82,2.19a208,208,0,0,0,25.07,1.66,210.21,210.21,0,0,0,24.45-1.27c8.45-.94,17.27-1.89,25.45-4.34a39.06,39.06,0,0,0,13.86-7.27c3.53-2.9,5.81-6.91,8.46-10.58,1.59-2,3.26-3.85,4.83-5.83a43,43,0,0,0,6.52-10.78C268.56,176.89,268.5,168.24,264.48,162.25ZM73.76,127.39l.55.08c.08.55.18,1.1.29,1.64C74.3,128.54,74,128,73.76,127.39Zm.84-5.9c-.91.17-1.81.36-2.7.6l-.23.07a1,1,0,0,0-.15-.25,2.27,2.27,0,0,0,0-.34c.86,0,1.91-.21,2.76-.24h.48Zm5.94,6.93c-.18.29-.36.58-.52.88-.09-.33-.16-.66-.23-1ZM78.3,160.21a12,12,0,0,1-2.87.46A38.23,38.23,0,0,0,83,156.74a18.14,18.14,0,0,0,1.8-1.48c.42.2.86.39,1.3.56C83.66,157.58,81.16,159.39,78.3,160.21ZM105.8,193a11.17,11.17,0,0,1-1.53-3.38,22.44,22.44,0,0,0,2.73,4.36A3,3,0,0,1,105.8,193Zm2.34-15.86c0,.24-.1.48-.16.72l0,.08a10.57,10.57,0,0,0-.56,1.05,13.87,13.87,0,0,1,.3-2,17.65,17.65,0,0,1,.73-2.45C108.31,175.34,108.23,176.22,108.14,177.09Zm7.1-19.87c-.16-.15-.33-.3-.51-.44s-.26-.32-.4-.48a9.35,9.35,0,0,0,1.4.14ZM112,78.73c.31-.07.62-.13.93-.17a4.73,4.73,0,0,1,3.56,1.12A10.41,10.41,0,0,0,112,78.73Zm28.7,45.63c0,.07,0,.14-.07.21l-1.11-.34Z"/><path class="ee9738b5-d01b-4302-b9b9-fdf51138382b" d="M255.27,152.32c-.47-.24-.93-.47-1.4-.69l-.73-.31-.29-.12a47.41,47.41,0,0,0-6.81-2c-.71-.15-1.41-.28-2.12-.4l-.95-.16h-.09l-.54-.07-.72-.08c-.64-.07-1.27-.13-1.92-.18-5.24-.4-10.49-.06-15.74-.05-4.33,0-8.66-.08-13-.14-4.83,2-9.52,4.39-14.7,5.5a12,12,0,0,1-8.09-1.3,9.49,9.49,0,0,0-6.56-1,22.19,22.19,0,0,0-5.68,2.78A55,55,0,0,1,156.44,161a38.15,38.15,0,0,1-18.62-2,15.81,15.81,0,0,0-2.23-1.33,4.63,4.63,0,0,0,.15-2.67c-.69-2.5-3.05-3.43-5.4-3.06a37.23,37.23,0,0,0-21.94,12.38c-6.14,2.21-9.72,8-10.38,14.4a22.36,22.36,0,0,0,2.56,12.1,16,16,0,0,0,5.8,8.41,3.46,3.46,0,0,0,3.21.53,4,4,0,0,0,.86.19c2.33.28,4-1.06,4.82-3.14A41.9,41.9,0,0,1,126.82,181a28.44,28.44,0,0,1,5,0c-.74,1.51-1.4,3.06-2.11,4.57-1.62,3.45-3.92,6.75-4.7,10.53-1.63,7.84,3.14,15.24,9.73,19.13,6.8,4,15.27,5.15,22.92,6.5,30.1,5.27,63.46,4.56,89.18-14a69.64,69.64,0,0,0,15.57-15.13c4.81-6.57,6.68-14.39,4.15-22.26C264.4,163.76,260.54,157,255.27,152.32Zm-113.5,17.61c0-.22,0-.45,0-.67l1,.18Zm39.86-9.1a6.35,6.35,0,0,1,1.92-.93c-.15,0,.34.07.42.11l.53.26Zm77.31,16.06h0l-.2-.18c0-.18.11-.36.16-.55,0,0,0,.07,0,.1,0,.22,0,.44,0,.65Z"/><path class="91ac4432-4285-4df6-9d23-7b6c395b34da" d="M132.5,114.46a27.83,27.83,0,0,1-7.94-.42,11.11,11.11,0,0,1-4.28-1.88,26.21,26.21,0,0,1-2.27-1.82l-.2-.2h0l-1,.05c-.11,0-1,.13-1.27.18l-1.66.27a21.25,21.25,0,0,1-8.91-.31c-4.35-1.09-9-3.06-11.16-7.29-2.82-5.6-1.09-12,2.29-17.24a3.83,3.83,0,0,0-2.81.56,23.27,23.27,0,0,0-7.54,8.55,4.15,4.15,0,0,0-1.94,3.54c0,.48,0,1,0,1.45,0,.15-.07.3-.11.46a4.59,4.59,0,0,0-.48,2.94,19.54,19.54,0,0,0,1.55,9.82c1.71,3.84,5.46,5.49,9.41,6.07.35.19.71.37,1.08.53q.63.6,1.32,1.14c4.49,3.44,9.56,3.59,14.47,2.24-.63,1.5-1.26,3-1.86,4.52-2,5-1.42,11.25,4.29,13.34,4.79,1.74,9.21-.9,12.14-4.52a21.93,21.93,0,0,0,5.81-2.49,16.38,16.38,0,0,0,8-12.63,3.84,3.84,0,0,0-1.3-3.12c0-.13,0-.26-.05-.39A13.48,13.48,0,0,0,140.9,115a3.53,3.53,0,0,0,.69-2.27A38.7,38.7,0,0,1,132.5,114.46Z"/><path class="91ac4432-4285-4df6-9d23-7b6c395b34da" d="M183.74,111.58l.07-.15,0-.11c.12-.38.28-.75.41-1.13.24-.72.44-1.44.61-2.18.07-.28.13-.57.18-.85,0,0,.05-.35.09-.58s0-.34,0-.4q0-.51.06-1a27.11,27.11,0,0,0-.14-3.82c0-.08-.1-1.39,0-.45s-.05-.25-.08-.45c-.1-.69-.22-1.37-.35-2.06-.25-1.36-.53-2.71-.79-4.07q-.14-.63-.24-1.26a4.47,4.47,0,0,0-3.14,4.16c0,.37-.06.73-.1,1.1v0l-.06.35a14.29,14.29,0,0,1-.5,2s-.09.18-.16.32l-.07.15a.5.5,0,0,0-.09.12,1.11,1.11,0,0,0-.11.11l-.1.06-.47.08a40.6,40.6,0,0,1-11.27-1.14,4.51,4.51,0,0,0-5.4,3.07,4.43,4.43,0,0,0,3.06,5.4q2.87.59,5.76.94a2.51,2.51,0,0,0,.26.31,21.09,21.09,0,0,0,7.53,5.67,9.74,9.74,0,0,0,2.39.6A40.74,40.74,0,0,0,183.74,111.58Z"/><path class="1d6427ba-ceb8-4a37-9fd7-479cbd3bf254" d="M202.83,148.84a18.34,18.34,0,0,1-6,1.87,4.9,4.9,0,0,0-2.31-.71,15.43,15.43,0,0,1-6.85-2.09,4.46,4.46,0,0,0-5.32.69,5.28,5.28,0,0,0-.55.72,4.8,4.8,0,0,0-2.5-.1l-11.53,2.62a113,113,0,0,1-11.5,2.43c-7.3.89-14.25-2.58-21-5a4.08,4.08,0,0,0-3.92.85,4,4,0,0,0,0-2.41,4.34,4.34,0,0,0-2-2.62l-.63-.31c-.17-2.11-.38-4.23-.55-6.34a4.78,4.78,0,0,0-2.59-4,19.11,19.11,0,0,1-6.07,2.79,3.41,3.41,0,0,0-.13,1.2l.1,1.2c-.93.11-1.88.17-2.81.34a8.81,8.81,0,0,0-5,2.74,19.35,19.35,0,0,0-3.94-9.2,4.16,4.16,0,0,0-.42-.42l.24-.41a4.09,4.09,0,0,0,.31-.33c.1,0,.46-.29.61-.36,3.23-1.63,2.64-7.36-1-8l-31.34-5.66a4.84,4.84,0,0,0-4.1,1l-.78,0c-3.17-.11-4.6,2.88-4.23,5.56a19,19,0,0,0,8.79,13.08,18.39,18.39,0,0,0,7.76,2.67c.34,0,.68.06,1,.08a55.33,55.33,0,0,1-16.11,15.49,4.49,4.49,0,0,0-1.57,6h0a4.16,4.16,0,0,0-.72,2.38,4.7,4.7,0,0,0,2.53,4,4.88,4.88,0,0,0,4.74.2l.52-.24a45,45,0,0,0,23-11,4.45,4.45,0,0,0,4.7,1.83c-.51.09.16,0,.51,0a6,6,0,0,0,.68.17,7.39,7.39,0,0,0,.66.34c.07.11.63.61.63.62,1.42,1.55,3.58,1.47,5.32.69,4.79-2.16,9.66-4.19,14.39-6.46a5.78,5.78,0,0,1,6.74-3.19,25.5,25.5,0,0,1,7.24,3.82c1.26.93,2.49,1.91,3.72,2.89l1.24,1c.19.14.3.24.36.29l.51.37a7.54,7.54,0,0,1,2,2.19,29.93,29.93,0,0,0,11.06.9,123.91,123.91,0,0,0,12.36-2.46l3.34-.76a16.25,16.25,0,0,1,6.68-3.5,6.16,6.16,0,0,1,.67-2.13c1.47-2.8,5.15-3.42,7.78-2,.16.08,1.5.71,1.32.66l1.06.38a26.24,26.24,0,0,0,2.78.69l.14,0h.19c.46,0,.91.06,1.37.07,1,0,1.91-.06,2.87-.12l.63-.11,1.35-.29c.91-.22,1.81-.48,2.7-.77s1.79-.64,2.68-1l.18-.07.46-.21,1.33-.62c.6-.28,1.19-.58,1.78-.88A4.5,4.5,0,0,0,202.83,148.84ZM98.19,134.37a6.71,6.71,0,0,0-1.18-1,5.05,5.05,0,0,0-.24-.53,5.4,5.4,0,0,0,.44-1.8l1.54.28A15.76,15.76,0,0,0,98.19,134.37Z"/><path class="1d6427ba-ceb8-4a37-9fd7-479cbd3bf254" d="M212.73,131.52c-.17-.66-.35-1.33-.55-2-.06-.18-.39-1-.33-.95q-.37-.74-.81-1.44c-.09-.15-1-1.36-.85-1.22a26.56,26.56,0,0,0-2.88-2.93c-.12-.11-.81-.67-.78-.66q-.41-.3-.81-.57a30.62,30.62,0,0,0-3-1.6c-.68-.33-1.36-.64-2-1l-.08,0-.06,0-1.25-.49a36.11,36.11,0,0,0-4.78-1.46l-.9-.18A5.64,5.64,0,0,1,183,114.4c0-.16,0-.31,0-.47-.52-.31-1.05-.61-1.59-.91-2.54-1.65-4.94-3.53-7.91-4.45a12.66,12.66,0,0,0-3-.51c-6.15-2-12.61-2.77-19-.61a34.56,34.56,0,0,0-13.07,8.31.41.41,0,0,0,0,.07c-.86,3-1.57,6-3.17,8.76a28.07,28.07,0,0,1-6.67,7.69c-.49.39-1,.78-1.5,1.16a4.55,4.55,0,0,0,1.85,2.2,4.47,4.47,0,0,0,6-1.57c1.24-1.79,2.52-3.65,3.88-5.47a4,4,0,0,0,3.58-1.22c5-4.94,11.77-7.15,18.79-8.87,1.77-.43,3.54-.82,5.31-1.21a23.27,23.27,0,0,1,2.5-.47h.12a57.07,57.07,0,0,1,7.92,3.81,23.86,23.86,0,0,0,2.81,1.63,5.11,5.11,0,0,0,3,.48l0,.15a4.48,4.48,0,0,0,5.41,3.06l8.48-1.67c1-.2,2.79-.62,3.43-.67l.29,0s0,.06.09.12a3.7,3.7,0,0,1,.9.7,103.79,103.79,0,0,0,12,9.84C213.19,133.34,213,132.43,212.73,131.52Z"/><g id="fa997315-baa7-47e7-a292-bbacd2f4034c" data-name="pdf24_01"><path d="M116.06,120.71a23,23,0,0,0,3-1.66A15.26,15.26,0,0,0,116.06,120.71Z"/><path d="M105.44,159.31a4.41,4.41,0,0,0,1.09-.23A.94.94,0,0,0,105.44,159.31Z"/><path d="M267.15,168.59c-2.91-10.81-13.3-18.3-24.15-20.94s-22.3-1.25-33.38.35c6.84-8.42,4.15-22.72-5.28-28.07,1.63-2.26,5.13-2.29,7.69-1.11s4.6,3.22,7.09,4.55A14.08,14.08,0,0,0,234,99.5c3.19-.61,6.48-1.26,9-3.27s3.92-5.83,2.16-8.55A6.55,6.55,0,0,0,239.38,85c-6.44.07-11.34,8-8.57,13.77.3-2.86.78-5.8,2.33-8.22s4.45-4.17,7.27-3.59,4.85,4.1,3.34,6.53-5,2.37-7.77,3.17-5.07,4.85-2.51,6.18c5.51,2.92,5.88,11.67,1.41,16s-11.91,4.45-17.44,1.54c-3.67-2-7.44-5.18-11.44-4a22.41,22.41,0,0,1-3.44,1.15c-1.49.15-2.89-.6-4.35-.9-4.9-1-9.33,3-12.74,6.63a24,24,0,0,0-6-4.7c5.78,4.63,8.34,12.64,7.14,19.93s-5.83,13.8-11.92,18.05a34,34,0,0,1-31.39,3.77c.6-1.58,1.23-3.17,1.86-4.75a3.85,3.85,0,0,0-2.44,3.19,25.43,25.43,0,0,1-13.44-15.53,7,7,0,0,1-.28-3.95,7.81,7.81,0,0,1,2.89-3.59q8.9-7.5,17.77-15-10.18,7.27-20.33,14.56A134.72,134.72,0,0,0,140.85,115c-3.39,2.59-5,6.81-7.31,10.43a31.73,31.73,0,0,1-19.23,13.87c-1.53.38-3.34.53-4.42-.6a4.34,4.34,0,0,1-1-2.49,17.07,17.07,0,0,1,7.13-15.53c-8,3.64-17.87,3.11-24.8-2.21-7.84-6.06-10.48-18.3-5-26.54-4.22,3.11-5.38,9.17-4.17,14.27s4.35,9.5,7.41,13.78a24.89,24.89,0,0,0-22.29-1.71A12.66,12.66,0,0,0,65.9,113C63,122.79,68,134.33,77.16,138.86a30.87,30.87,0,0,1-10-18.25c6.08-4.17,14.33-2.24,21.21.35s14.38,5.73,21.39,3.47a12.53,12.53,0,0,0-1.88,7.82,91.5,91.5,0,0,1-16.19-6.16,37.26,37.26,0,0,0,2.26,3.64c-4,4.63-11.46,2-16.84-.88a11.83,11.83,0,0,0,10.08,5.36,69.43,69.43,0,0,1-13.67,15.55c-2.52,2.14-5.36,4.18-8.65,4.55s-7-1.4-7.74-4.65A9.08,9.08,0,0,0,46.9,143c1.94-4,3.8-9.18,1-12.7-2.94-3.69-8.77-2.78-13.12-.95-4.57,1.94-9.57,5.93-8.42,10.78,1.33,5.58,9,6.11,14.68,5.38s13.32-.28,14.73,5.28c1.2,4.77,7.36,6.76,12,5.23s8.12-5.41,11.33-9.13L88,136.64a5.34,5.34,0,0,1,7-.75l-2.64-2.34c-.47-1.3,1.56-2.36,2.77-1.63s1.58,2.26,1.86,3.62a4.09,4.09,0,0,0,.48-4.22c3.79-.46,7.59,1.83,9.52,5.12a15.15,15.15,0,0,1,1.26,11.14c-.23.88-.5,1.76-.78,2.64-.48,1.55-1,3.11-1.46,4.67a3.21,3.21,0,0,0-4.72.88c1.78.2,4.12,1.21,3.64,2.94a41.24,41.24,0,0,0,8.87-16.64q7.05-3,14-6a25.45,25.45,0,0,0,1.64,13.79l-3.07.83a3.91,3.91,0,0,0-.93-4.77,7.19,7.19,0,0,1-4.85,7,19,19,0,0,1,5.63-13.38c-3.09-.35-5.3,2.84-6.76,5.58-2.26,4.25-4.5,8.47-6.76,12.7q2-7.4,4-14.78c-2.72,2.16-3.52,5.85-4.63,9.12-1,2.91-2.78,6-5.59,6.93a1.77,1.77,0,0,1,1.12,1.74c-.18,1.18-1.26,2-2.19,2.72a23.12,23.12,0,0,0,2.77,38.15c3,1.7,6.54,3.05,8.1,5.94a2.6,2.6,0,0,1,1.56-.81,18.89,18.89,0,0,1-.66-8.4c2.33-1.1,5.12.71,6.36,3s1.53,4.93,2.53,7.31a13.52,13.52,0,0,0,.93,1.77,9,9,0,0,1,1.35,1.84c3.34,3.84,8.67,6,13.68,7.58a147.25,147.25,0,0,0,61.28,5.5c22-2.69,44.56-11.38,57.31-29.45C266.25,188,269.69,177.94,267.15,168.59ZM44.46,142.68l-6,1.13c-.43.07-.86.15-1.29.2a9,9,0,0,1-8.14-3.65,3.48,3.48,0,0,1-.73-4.22,6.91,6.91,0,0,1,2.74-2.24,34.75,34.75,0,0,1,9-3.94,8.06,8.06,0,0,1,3.2-.18,5.31,5.31,0,0,1,4.19,5.31C47.35,137.83,45.14,140,44.46,142.68Zm67.59,1.71a2.25,2.25,0,0,1-.68,1.35.94.94,0,0,1-1.36-.2,5.83,5.83,0,0,0-1-4.65,1.93,1.93,0,0,1,2.66.55A3.85,3.85,0,0,1,112.05,144.39ZM190.42,121c1.53-.73,3.36-1.28,4.14-2.79a2.65,2.65,0,0,0,2.42-.58l3.92,1.66a11,11,0,0,1,1.46.73,12.8,12.8,0,0,1,1.18,1l4.52,4.52a14.45,14.45,0,0,1,2.21,2.54c1.16,1.74,1.64,3.87,2.82,5.58a.88.88,0,0,1-1.26.05,3.31,3.31,0,0,1-.73-1.18c-1.15-2.49-3.42-4.22-5.6-5.88-1.86-1.41-4.12-2.91-6.36-2.26a2.79,2.79,0,0,0-.81-1.06c0,.38-.57.33-.93.18s-1,0-.78.3c-.32-.78-1.45-.65-2.26-.33s-1.83.61-2.33-.07a10.91,10.91,0,0,0-3,1.38.71.71,0,0,0-1.2.08C187.27,123.3,188.86,121.74,190.42,121Zm-3,21.89c2.21-5.5.18-11.71.25-17.64a9.45,9.45,0,0,0,3.87-.3l1.69-.38a1.16,1.16,0,0,1,1.93.3,1.27,1.27,0,0,0,1.23-.48c1,.25,1.91.51,2.87.81,4,1.28,7.79,3.59,10,7.14s2.51,8.47,0,11.81c-1.93,2.51-5.1,3.77-8.22,4.47-3.72.86-7.81,1-11.11-.85C188.18,146.77,186.65,144.74,187.4,142.9Zm-1.31,5.31a6,6,0,0,1,3.15.88c.4.17.8.37,1.18.55.8.4,1.63.78,2.43,1.18,1.11.53,2.19,1.06,3.3,1.58l3.09-.9a8.36,8.36,0,0,1,3.59-.53,4.93,4.93,0,0,1-1.81,2.34,9.75,9.75,0,0,1-4.24,1.23,3.49,3.49,0,0,1-1.44,0,1.07,1.07,0,0,1-.75-1.08,9,9,0,0,0-4.83-.86c-.75.1-1.3-.62-1.86-1.15a4.23,4.23,0,0,0-3.92-1.11A2.15,2.15,0,0,1,186.09,148.21ZM129.52,150c.32-.36,1.08-.21,1,.27l-.25.05c.2.55.43,1.08.65,1.64a2,2,0,0,1-1.78-.66A1.77,1.77,0,0,1,129.52,150ZM118,152.68a2.68,2.68,0,0,1,0-2.49,6.08,6.08,0,0,0,.68-.33.86.86,0,0,1,0-.67.36.36,0,0,1,.58-.08,7.66,7.66,0,0,0-.56,3.54,2.43,2.43,0,0,1-2.69,1.54c.58-.35,1.16-.71,1.76-1.06C117.85,153,118.06,152.83,118,152.68ZM124,197.17a1.06,1.06,0,0,1-1.33.55,12,12,0,0,0-5.58-1.48c-.15-1.86,1-3.57,2.14-5a44.35,44.35,0,0,1,9.4-8.75c.55.68-.1,1.61-.61,2.29a16.65,16.65,0,0,0-2.11,4.47,24.77,24.77,0,0,0-1.61,6.39A3.14,3.14,0,0,1,124,197.17Zm140-11.29c-5.17,12.29-15.5,22-27.37,28.05s-25.21,8.77-38.5,9.75A161.3,161.3,0,0,1,145.78,219,42.46,42.46,0,0,1,134,214.41c-3.57-2.24-6.64-5.56-7.75-9.63-1.2-4.4,0-9.07,1.39-13.39,1.23-3.8,2.76-7.67,5.73-10.33s7.79-3.67,11-1.26c1.23.93,2.66,2.36,4,1.63.3-1.28-.9-2.38-2-3.09a32.08,32.08,0,0,0-23.1-3.94c-2.16.45-4.43,1.25-5.71,3s-1,4.77,1,5.68c-.83-2.49,1-5.23,3.37-6.34s5.1-1,7.71-.88,5.53.3,7.72,1.84a29.21,29.21,0,0,0-24,24,21.3,21.3,0,0,1-12.59-28.48C103,167.86,107.4,163.66,112,160a34.93,34.93,0,0,1,9.78-5.83,13.7,13.7,0,0,1,9.6-.25c2.94,1.15,5.18,3.57,7.64,5.53A29,29,0,0,0,150.68,165a20.16,20.16,0,0,0,5.73.53c3.47-.28,6.71-1.74,9.85-3.17l4.1-1.83c4.8-2.22,9.83-4.55,13.09-8.7a7.84,7.84,0,0,1,4.8,2.11,17,17,0,0,0-6.48,3.17c2.31,1.58,4.95-1.51,7.67-2.19,3-.73,6,1.69,9.07,1.26,2.44-.33,4.25-2.36,6.26-3.77,4-2.79,9.12-3.19,14-3.42,10.23-.5,20.81-.6,30.26,3.32s17.57,12.79,17.5,23A27.88,27.88,0,0,1,264,185.88Z"/><path d="M137.16,210.94a.62.62,0,0,1,.12.88H136c-.35-.58.65-1.33,1.13-.85"/><path d="M101,151.15c-.07-.23.21-.43.46-.41a1.1,1.1,0,0,1,.55.41,1.55,1.55,0,0,1-1.41.78.46.46,0,0,1,.4-.73"/><path d="M220.48,154a1.17,1.17,0,0,1,1.63-.63,1.48,1.48,0,0,1-.1.88,3.05,3.05,0,0,1-1.56-.18"/><path d="M261.62,171.48c-.12-.68-.2-1.53.35-1.94l.15,1.66c0,.18,0,.36-.1.48s-.4,0-.35-.12"/><path d="M105.21,142.93c.15,0,0,.27-.15.2s-.12-.25-.12-.4c0-.58.07-1.16.1-1.74a2.06,2.06,0,0,1,.72,1,.7.7,0,0,1-.52.9"/><path d="M31.22,136.67a.39.39,0,0,1,.37.43,1.1,1.1,0,0,0-.47,1.23,1,1,0,0,1-.71.12,1.5,1.5,0,0,1,.81-1.76"/><path d="M235.08,151.52c0,.48.68.58,1.16.51s1.15-.05,1.25.42a13.25,13.25,0,0,1-2.44.08.92.92,0,0,1,0-1"/><path d="M247.27,202.8a1.37,1.37,0,0,1,1.38-1.54,3.06,3.06,0,0,1-1.35,1.61"/><path d="M87.17,90.82c0,.21-.08.43-.1.63-.18-.45-.36-.93-.53-1.38a.85.85,0,0,1,1.56.05,1,1,0,0,0-1,.7"/><path d="M224.8,153.63a1.81,1.81,0,0,1-1.08.56c-.4,0-.83-.46-.6-.81a8.71,8.71,0,0,1,2.79,0c.07.35-.51.46-.88.35"/><path d="M218.59,152.91c.43.2.83.37,1.23.57-.65.58-1.78,1.13-2.28.41a1,1,0,0,0,1.08-1"/><path d="M98,125.36c.61.55,1.21,1.13,1.79,1.68A1.44,1.44,0,0,1,98,125.38"/><path d="M138.64,169a1.64,1.64,0,0,1,1.76-.23l-.38.68c-.25-.2-.47-.4-.73-.6a3.3,3.3,0,0,1-.78,1.78,1.94,1.94,0,0,1,.11-1.63"/><path d="M142.91,167.28a1.42,1.42,0,0,0,.66.5c.25.06.57-.15.52-.42,0,.32.08.65.13,1a4.28,4.28,0,0,0-2.89.58.85.85,0,0,1-.15-.68,3,3,0,0,0,1.48-1"/><path d="M77.46,162.53a.9.9,0,0,1-.1-.75c1,.2,2.06.43,3.09.68.53.15.18,1-.37,1.15s-1.11-.15-1.64,0a1.2,1.2,0,0,0-1-1.06"/><path d="M228.49,154.34a3,3,0,0,1,3.47,1.58l-.68.15c0-.6-.8-.8-1.4-.83s-1.41-.3-1.39-.9"/><path d="M184,117.42a2,2,0,0,1-.58-1.46.91.91,0,0,1,.68-.13c.53,1.06,1,2.14,1.53,3.22l-.8.08c-.31-.56-.58-1.11-.88-1.66"/><path d="M179.73,111.33c.46.46.91.88,1.34,1.31s.8.78,1.18,1.18c-.3.56-1.18.15-1.56-.4s-.8-1.23-1.43-1.11a.63.63,0,0,1,.47-1"/><path d="M152.09,156.85a3.68,3.68,0,0,1-.63,2.82,4.16,4.16,0,0,1-1.08,1.13.75.75,0,0,1-.58-.58,5.45,5.45,0,0,1,2.29-3.37"/><path d="M174.71,108.52c.2.33.43.68.63,1a7,7,0,0,0-3.47.38,1.63,1.63,0,0,1-.51-1.76.77.77,0,0,1,1.09.4.65.65,0,0,1,.42-.5,1.76,1.76,0,0,0,1.84.45"/><path d="M165.76,157.91c-.65,1-1.46,2.08-2.64,2.21a23.68,23.68,0,0,1,1.16-2.16,3.12,3.12,0,0,1,1.28-1.36.54.54,0,0,1-.25.8c.15.18.3.33.45.51"/><path d="M88.12,141a10.26,10.26,0,0,1,2.46-.33,2.51,2.51,0,0,1,2.14.7.9.9,0,0,1,.2.61c-.07.75-1.15.75-1.88.52l-2.52-.82c-.12-.23-.27-.46-.4-.68"/><path d="M147.11,157a2.09,2.09,0,0,1,.55-.75,1.12,1.12,0,0,1,.78-.23,5.91,5.91,0,0,1-2.49,4.4,13.81,13.81,0,0,1,1.16-3.42"/><path d="M108,189.12l-.55.15c-.58,1.19-1.18,2.34-1.86,3.47a5.29,5.29,0,0,1,0-2.06,8.26,8.26,0,0,0,1.89-2.31c.2.25.38.5.55.75"/><path d="M102.05,150.92c-.18-.6.27-1.21.7-1.68.7-.78,1.41-1.59,2.11-2.39,0,.65,0,1.31,0,2a6.78,6.78,0,0,1-2.84,2.09"/><path d="M77.31,162.88a5.31,5.31,0,0,1-2.06,3.45c-.3.22-.7.42-1,.22-.45-.45.08-1.18.55-1.58.86-.7,1.71-1.38,2.54-2.09"/><path d="M239.78,208.6l2.56-2.26c.48-.43,1.18-.85,1.66-.45a5.58,5.58,0,0,1-4.22,2.71"/><path d="M247.32,202.77a7,7,0,0,1-2.29,2.54,1.47,1.47,0,0,1-1.05.48c-.28-.68.42-1.31,1.08-1.61s1.43-.68,1.48-1.41h.72"/><path d="M97.65,163.14c.73-.18,1.43-.36,2.13-.56s2-.2,2.16.63a8.89,8.89,0,0,1-5.75.43c.2-.28.43-.53.63-.81,0,.36.5.41.83.31"/><path d="M113.1,118.32c1-.95,1.94-1.86,2.94-2.74a1.14,1.14,0,0,1,.56-.28.5.5,0,0,1,.45.43,12.56,12.56,0,0,1-3.64,3.37l-.31-.78"/><path d="M127.2,213.93c-.2.35-.72,0-1-.25-1.16-1.28-2.29-2.56-3.44-3.85.67-.22,1.33.33,1.78.86a35.76,35.76,0,0,1,2.66,3.24"/><path d="M89.17,145.21v1.66A20.14,20.14,0,0,1,82.61,148a2.65,2.65,0,0,1,3.14-1.89,8.11,8.11,0,0,1,3.42-.82"/><path d="M110.67,185.23a1,1,0,0,0-.66-.63l4.75-4.42c-.07.52-.17,1-.25,1.55a13.08,13.08,0,0,0-3.84,3.5"/><path d="M250.54,156l2.59.6c.9,1.68,3.46,2.19,3.92,4a13.38,13.38,0,0,1-4.15-2.76c-.48-.48-1.11-1.06-1.76-.81l-.6-1.05"/><path d="M146.86,110.83l.48.48a1,1,0,0,1,1-.5.5.5,0,0,1-.07.75,3.15,3.15,0,0,1-2.74,1.56c-.43,0-.93-.1-1.21.2a3.68,3.68,0,0,1-2.79,1.11c1.21-1,2.41-2,3.59-3.05.16.13.31.26.43.38a4.17,4.17,0,0,0,1.31-.93"/><path d="M104.73,75.49a1.41,1.41,0,0,1,1.31,0A5.49,5.49,0,0,1,103.93,77L99.1,79.24l-.9-.53a8.69,8.69,0,0,0,4.7-2.29c.65,0,1.31,0,2,0a.61.61,0,0,0-.13-.88"/><path d="M136.33,125.74c1.73-1.39,2.46-3.75,4.25-5.08.55-.4,1.25-.86,1.18-1.51.75.28.4,1.41,0,2.06-.81,1.08-1.59,2.19-2.37,3.27a4.91,4.91,0,0,1-1.28,1.33,1.55,1.55,0,0,1-1.73-.07"/><path d="M87.14,157.43c.18.2.35.43.55.63-2.43,1-5.07,2.18-6.31,4.52a2.81,2.81,0,0,0-.47-2,5.71,5.71,0,0,1,2.49-2.49,10.21,10.21,0,0,1,1.23-.5c1-.38,2-.75,3-1.11a.85.85,0,0,1-.45,1"/><path d="M123.18,166.83a2.21,2.21,0,0,0,1.94-.38,3.73,3.73,0,0,1-.93,1.33,63,63,0,0,0-5.76,7.09,2.77,2.77,0,0,1,.43-2.74,15.47,15.47,0,0,1,4.12-4.52,7.44,7.44,0,0,0,.2-.78"/><path d="M192.33,132.6a4.52,4.52,0,0,1,4.65-1.26,3.07,3.07,0,1,1-4.65,1.26m2.31,1.81c.15.27.3.52.45.8a1.26,1.26,0,0,0,1.08-1.61,1.83,1.83,0,0,0-1.43-.17c-.48.17-.65.95-.2,1.15"/><path d="M134.79,89a.5.5,0,0,1,.68.51,2.35,2.35,0,0,0,1.11-.81,5.61,5.61,0,0,1-.3,1.54.63.63,0,0,0-.76-.51l-.3,1c.13-.27-.35-.5-.6-.32s-.38.47-.55.75c-.53.7-1.59.73-2.39,1.08-1.23.55-2.26,2-3.55,1.66a6.94,6.94,0,0,1,3.62-2.16c.1-.33.18-.65.25-1l.51.5a1.16,1.16,0,0,0,.37-1.21,1.72,1.72,0,0,0,1.91-1"/><path d="M87.27,160.9c.07-.2.15-.38.22-.58.81-.7,1.61-1.43,2.42-2.14a.53.53,0,0,0,.2-.78,1.17,1.17,0,0,1,1.28.38c-.18-.35.5-.43.83-.22s1,.1.8-.23a.8.8,0,0,1,.1.83c-.63.85-2.08.45-2.91,1.1a2.62,2.62,0,0,0-.63.73,10.72,10.72,0,0,1-4,3.45c-.5.22-1.38.2-1.31-.36a6.29,6.29,0,0,1,3-2.18"/><path d="M135.27,210.34a2.92,2.92,0,0,1,0,1.78c-.45-.25-.91-.48-1.36-.7a10.14,10.14,0,0,1-5.33-7.29,1.31,1.31,0,0,1,.08-.88c.15-.25.55-.38.75-.15a7.88,7.88,0,0,0,1.08,3.62,9.06,9.06,0,0,0,1.28,1.35c1,.88,2,1.79,3,2.69l.42-.42"/><path d="M89.3,86.9c.28-.2.63-.32.81-.65s-.13-.8-.46-.65a1,1,0,0,1,.91-.15,9.78,9.78,0,0,1,2.81-3.25c0-.22,0-.45,0-.68l4.45-1.73a16.27,16.27,0,0,1-3.24,2.84c-1.13.75-2.46,1.46-2.84,2.77l-3,2.79a.89.89,0,0,1-.8,1A4.21,4.21,0,0,1,89.3,86.9"/><path d="M172.57,116.71l-5.45.45a.69.69,0,0,1-.56-.1c-.12-.15-.05-.45.16-.4-1.16.35-2.32.73-3.47,1.08-.43-.2-.83-.37-1.23-.58a9.54,9.54,0,0,1,4.44-1.6,2.13,2.13,0,0,0,1.69.3c.73-.23,1.73-.73,2.06,0-.2-.37.5-.5.85-.3s1,.28,1-.12a.9.9,0,0,0,1.66.67c.18.15.35.33.53.51a1.72,1.72,0,0,0,.5-.76c.35-.07.66.33.63.68a1.3,1.3,0,0,1-.63.83l-.5-.5c-.18.15-.38.3-.55.45.07-.48-.63-.63-1.11-.58"/><path d="M157.69,131.27a4.24,4.24,0,0,1,2.26-4.53,3.68,3.68,0,0,1,4.68,1.58,4.83,4.83,0,0,1,.33,2.44,4.49,4.49,0,0,1-1.86,3.32,3.47,3.47,0,0,1-3.42,0,4.27,4.27,0,0,1-2-2.84m2.44.87a2.36,2.36,0,0,0,2.87-1.8,2.3,2.3,0,0,0-.23-1.34,11.24,11.24,0,0,0-2.59-.07,3.69,3.69,0,0,0-.05,3.21"/><path d="M87.42,152.81a27.71,27.71,0,0,0,2.79-.81c.93-.18,2.16.33,2.16,1.28a3.33,3.33,0,0,1-4.37.3,18.51,18.51,0,0,1-6.34,1.76,11.12,11.12,0,0,0-2.59,1,2.53,2.53,0,0,1-2.61-.2c.1-1.46,1.86-2.09,3.29-2.37l4.12-.82c.35,0,.86,0,.81.37.6-.75,1.78-.4,2.74-.47"/><path d="M63.41,175.22c.05.36.08.71.13,1.06a3.39,3.39,0,0,1-2.39.05,12.09,12.09,0,0,1-1.1-14.5,12.77,12.77,0,0,1,2.18-2.46,5.31,5.31,0,0,1,3.62-1.51,3.55,3.55,0,0,1-1.1,1.91c-1.31,1.4-2.59,2.84-3.9,4.24a4.3,4.3,0,0,0-.85,2.9,13.05,13.05,0,0,0,.42,4.75,5.76,5.76,0,0,0,3,3.56"/><path d="M156.33,112.39l-3.59,3.32a1,1,0,0,0-.5-.73c1.58-.38,2.08-2.34,3.19-3.52.53-.58,1.23-1,1.78-1.53a1.92,1.92,0,0,0,.51-2.12,5.8,5.8,0,0,0-3.57,1.26,6.56,6.56,0,0,1-1.36,1.06,1.36,1.36,0,0,1-1.58-.08,33.76,33.76,0,0,0,2.91-2.84c1-.88,2.59-1.48,3.75-.78a2.06,2.06,0,0,0,.07,1,9.5,9.5,0,0,1,7.27-.83l-3.8,1.18c-1.36.4-2.91,1-3.34,2.36a5.48,5.48,0,0,1-1.74,2.29"/><path d="M259.83,185c.17.17.32.37.5.55-.18.18-.38.35-.55.53a13.06,13.06,0,0,1-4.43,6.61c-.2-.3-.4-.61-.62-.91,1.23-.15,1-2.69,2.26-2.66.05-.28.07-.53.1-.81.15-.07.33-.12.48-.2a4.79,4.79,0,0,0,1.13-2.66c0-1,.8-1.76,1.38-2.54a7,7,0,0,0,1.43-4.22c.48-.05.68-.68.58-1.16s-.38-.93-.43-1.41c-.1-1,.71-1.73,1.44-2.36a2,2,0,0,0-1.14-.15.91.91,0,0,1,1-1.26c.16.48.33.93.48,1.41-.27,1.41-.55,2.84-.83,4.25a5.71,5.71,0,0,0-.1,2.81c-.25.08-.5.16-.73.26a1.57,1.57,0,0,1-1.43,2.21v.75a1,1,0,0,0,.7-.4,1.17,1.17,0,0,1-1.2,1.36"/><path d="M123.58,83a7.53,7.53,0,0,0-1.7-3.45c-1.24-1.23-3.1-1.65-4.48-2.71-.43-.33-.85-.93-.55-1.38a21,21,0,0,1,3.52,1.66,10,10,0,0,1,4.77,5.25,14.34,14.34,0,0,1,.38,1.91c.65,4.88.75,10.15-1.78,14.38a2.76,2.76,0,0,0-2,.55l-1.26-1.11a2.72,2.72,0,0,1,1.56-.47A21.15,21.15,0,0,0,123.58,83"/><path d="M174,151.35c1.71-.66,3.45-1.51,5.28-1.44a12.57,12.57,0,0,1-8.79,3.85c-1.51,0-2.82,1.48-4.33,1.21a5.62,5.62,0,0,0-4.67,1.63,16.78,16.78,0,0,0-2.94,4.2,4.18,4.18,0,0,1,2.46-4.35c-.83-1.26-2.84-1.16-4-.2a8,8,0,0,0-2.18,3.87c-.63-.73,0-1.81.57-2.64s.43-2.34-.55-2.26a39.16,39.16,0,0,1-11.16-.78,2.39,2.39,0,0,0-2.76,2.34c-.66,0-1-.81-.93-1.46a4,4,0,0,0,0-2c-.55-1.23-2.74-1-3.11-2.31.42-.23.88-.43,1.33-.66,3.54,2.57,8.19,2.87,12.57,3.09,7.81.36,15.91.71,23.19-2.13"/><path d="M183.48,113.7c.63-1.91,1.56-3.75,2.16-5.68a18,18,0,0,0-4.17-17.47c-6.23-6.44-16.24-7.22-25.14-6.21a85.82,85.82,0,0,0-17.89,4,47.49,47.49,0,0,1,24.4-6.48c6.26,0,12.72,1.45,17.6,5.32a20.88,20.88,0,0,1,5.2,25.44c-.45.83-1.46,1.71-2.16,1.11"/><path d="M96.62,159.84A34.64,34.64,0,0,1,73.09,170.7c-3.24.13-6.48-.18-9.7.28a3.21,3.21,0,0,0-2.84-3.12L68,159.34a.89.89,0,0,1,.76-.4c.3,0,.35.6,0,.58a51.7,51.7,0,0,0-4.78,7c0,.88,1.08,1.28,2,1.46a33.89,33.89,0,0,0,27.45-7.49c1-.93,2.19-2.32,1.58-3.6a17.5,17.5,0,0,1,2.11-17.92c2-2.46,5.13-4.47,8.15-3.59.17.88-1,1.3-1.89,1.5-3.32.83-5.7,3.95-6.61,7.27s-.65,6.78-.35,10.2c0,.71.2,1.54.85,1.81a6.41,6.41,0,0,1,.53-2.89c-.25,1.59,1.41,2.74,2.82,3.55s3,2.21,2.34,3.69c-2-1.21-4.78-2.31-6.36-.63"/></g></svg>