<svg xmlns="http://www.w3.org/2000/svg" viewBox="0 0 300 300"><defs><style>.\33 3e6b59a-f1ce-4206-ac11-4b7a789e3a95{isolation:isolate;}.\39 68a8a73-f617-4c98-aad8-e94592bc75b4,.b7658835-b30f-4fc7-9367-735fe695e687{fill:#fff;}.b4fcff69-947d-4d8a-aca0-0c2ee7134554{fill:#e8d1a1;}.\34 01e6177-f58d-4404-971e-6fd735132bb7,.\34 51b00c5-9533-454e-a427-ce3a559edd35,.\36 8cb3971-5a2a-4921-938a-bf80023a4e00{fill:#e6e6e6;}.\34 01e6177-f58d-4404-971e-6fd735132bb7,.\36 8cb3971-5a2a-4921-938a-bf80023a4e00,.be9ff878-6412-46c3-a720-f4823f5ff955,.da55b2be-3e55-4c43-abdf-509c3bc7b8cb{mix-blend-mode:multiply;}.b7693d93-d3ed-4746-9e6f-71b15ea57477,.be9ff878-6412-46c3-a720-f4823f5ff955{fill:#b3b3b3;opacity:0.3;}.\33 b16658e-6845-493f-be3d-569b3a544d3d{fill:#424242;}.\36 8cb3971-5a2a-4921-938a-bf80023a4e00{opacity:0.6;}.da55b2be-3e55-4c43-abdf-509c3bc7b8cb{opacity:0.4;}.\39 68a8a73-f617-4c98-aad8-e94592bc75b4{opacity:0.52;}.\32 2f66e08-7b3d-4820-b17b-bb3d5880a0e8{fill:gray;}.d736319f-350e-4e3d-8940-75149d7e9857{fill:#999;}.\30 51ff54e-0992-47c4-8601-9ea32598c8ca{fill:#4d4d4d;}</style></defs><g class="33e6b59a-f1ce-4206-ac11-4b7a789e3a95"><g id="dcbd40d2-57fd-453f-bf4c-1858829d6ae8" data-name="Layer 1"><path class="b7658835-b30f-4fc7-9367-735fe695e687" d="M176.5,108.93a11.92,11.92,0,0,0-2.9-.78c-3.29-.4-6.59-2.59-7.41-5.75a51.74,51.74,0,0,0-5,2.27q-.77-.08-1.53-.12a14.31,14.31,0,0,0,4.28-14.33A11.77,11.77,0,0,0,156.15,83c-2.64-.9-5.46-1-8.1-1.88a10.61,10.61,0,0,0-1.13-.58c-.52-.3-1-.64-1.49-1l-.13-.09-.07-.06-.55-.46c-.56-.47-1.09-1-1.62-1.45-4.1-3.84-8.1-8.33-13.81-9.66-4.21-1-8.72-.39-13,.19a31.43,31.43,0,0,0-8.64,2.34,15.19,15.19,0,0,0-6.33-6.08c-4-1.79-9-1.58-13.28-1.09a33.73,33.73,0,0,0-12.63,3.73c-4.09,2.25-8.22,6.41-7.54,11.48.34,2.52,2.2,4.77,3.25,7.06,0,0,.08.2.14.33l.22.55c.09.23.17.47.26.71a5.06,5.06,0,0,0-1.94,0A4,4,0,0,0,66,85a14.44,14.44,0,0,0-7.12,2.68,17.48,17.48,0,0,0-6.07,3.63,4.73,4.73,0,0,0-.93,5.26,11.64,11.64,0,0,0-2.14,6.59c0,.11,0,.22,0,.33a7.06,7.06,0,0,0,.29,6.07,7.67,7.67,0,0,0,6.34,3.92c3.9,1.75,8.42,1.21,12.41,0a32.17,32.17,0,0,0,5.26-2.17,13.85,13.85,0,0,0,1.37,5.63c2.49,4.2,7.65,4,11.57,2.29s6.62-5.83,5.33-10.17c-.8-2.67-3.07-4.25-5.6-5.29a10.4,10.4,0,0,0,2.18-4.38,7.75,7.75,0,0,0-1.68-7.07,7.24,7.24,0,0,0-5.1-2.07,5.22,5.22,0,0,0-.12-1.1,39.49,39.49,0,0,0-2-6.39c-.52-1.26-1.07-2.51-1.69-3.72q-.39-.75-.81-1.47c-.05-.09-.12-.24-.2-.42l.13-.21c.2-.22.41-.43.63-.64l.4-.34.33-.23c.85-.48,1.66-1,2.54-1.41l.38-.18.41-.16c.5-.17,1-.35,1.52-.51a31.24,31.24,0,0,1,11.81-1.19l.8.08c.41.12,1.14.37,1,.26q.28.15.57.33c-.4-.23.6.54.75.7s.47.56.52.59q.38.54.72,1.08c.51.82,1,1.67,1.42,2.52a4.65,4.65,0,0,0,3.92,2.29,4.32,4.32,0,0,0,4.26-.16c.66-.42,1.33-.77,2-1.14l.4-.19.6-.23a29,29,0,0,1,4.49-1.15l1.15-.18.14,0,.25,0c.62-.06,1.24-.13,1.87-.18a42.73,42.73,0,0,1,4.8-.23,12.09,12.09,0,0,1,1.21.08h.14l.3.09,1.36.4h0a7.94,7.94,0,0,0,.77.39,17.37,17.37,0,0,1,1.48.92l.23.16.52.4c.37.31.74.62,1.09.94.91.82,1.77,1.67,2.65,2.52,3.73,3.63,7.69,7,12.93,8.15,1.18.25,2.38.42,3.57.66a18.34,18.34,0,0,1,1.91.47c.24.07.48.17.73.24-1-.3.05.07.25.18a1,1,0,0,1,.18.09c.15.14.3.3.45.45l.05.09,0,0a1.93,1.93,0,0,0,.18.6c0,.22,0,.47,0,.69a.62.62,0,0,1,0,.13l0,.06c0,.23-.1.47-.17.7s-.2.59-.2.62-.16.32-.25.48-.54.79-.48.76a10.54,10.54,0,0,1-1,.93.89.89,0,0,1-.18.14c-.36.23-.71.47-1.08.68s-.63.34-1,.5l-.36.17-.11,0c-.77.24-1.51.53-2.28.75-1.55.44-3.12.77-4.7,1.09a4.61,4.61,0,0,0,.48,9,4.29,4.29,0,0,0,.15.73,4.78,4.78,0,0,0,5.72,3.25c.41-.08.83-.15,1.24-.21l.94-.12c.89-.09,1.8-.15,2.7-.19a41.63,41.63,0,0,1,5.24.12,4.7,4.7,0,0,0,2.6.32c.81.14,1.62.29,2.41.48a43.9,43.9,0,0,1,5.65,1.73c2.28.86,5.2-1,5.72-3.25a4.64,4.64,0,0,0-.71-3.85C175.88,109.17,176.19,109,176.5,108.93Z"/><path class="b7658835-b30f-4fc7-9367-735fe695e687" d="M189,117.11c-.44-.34-.89-.68-1.35-1-2.79-2-6.47-5-10.14-6.75a29.93,29.93,0,0,0,3.56,2.92c2.28,1.6,4.72,3,7.1,4.41l.9.55A.54.54,0,0,0,189,117.11Z"/><path class="b7658835-b30f-4fc7-9367-735fe695e687" d="M80,96.91a2.57,2.57,0,0,0-.16.58v0A.6.6,0,0,1,80,96.91Z"/><path class="b7658835-b30f-4fc7-9367-735fe695e687" d="M195.82,134.47c-1.2-6.07-4.63-11.45-8.39-16.22s-8.84-8.65-15.15-9.58a97.25,97.25,0,0,0-18.68-.8q-3.87.18-7.76.58a22.89,22.89,0,0,0,3-2.52,9.4,9.4,0,0,0,2.63-4.49h0c-.22,2.42,2.29,4.75,4.65,4.64a4.77,4.77,0,0,0,4.65-4.64,38.67,38.67,0,0,0-.59-10.63c-.71-3.79-2.24-6.93-5.41-9.22a30.66,30.66,0,0,0-8.81-4,38.12,38.12,0,0,0-10.28-1.63,4.26,4.26,0,0,0-1.72.34l-.15-.18c-3.24-3.63-8.9-3.33-13.36-3.18a4.86,4.86,0,0,0-4.59,3.73c-1,.05-2,.13-3,.26a38.46,38.46,0,0,0-3.86.68c-2.75-3.43-6-6.48-10.48-7.48a27.1,27.1,0,0,0-8.48-.3A25.78,25.78,0,0,0,81.24,72c-5,2.35-8.54,7.57-8.15,13.16a22.93,22.93,0,0,0,2.56,8.57,10.09,10.09,0,0,0,6.65,5.72,10.58,10.58,0,0,0,7.11-.82,18.34,18.34,0,0,0,.69,5.66,50,50,0,0,0,3.31,7.85,4.34,4.34,0,0,0-3.16,2.65,4.57,4.57,0,0,0,.46,4.41c-1.32.83-2.68,1.61-3.94,2.55a29.31,29.31,0,0,0-9,9.92,21,21,0,0,0-2.15,6.64c1.46,1.89,2.76,3.87,4.08,5.88.09.14.62.91.82,1.22s.73.86.8.94a13.17,13.17,0,0,0,1,.93c1.56.18,3.2.21,4.8.31,3.85-7.21,14.13-2.08,13.52,5.15a43.81,43.81,0,0,1,8.2,7.62,4.55,4.55,0,0,0,1.23-1.16,49.28,49.28,0,0,0,10.81,6.3,11.7,11.7,0,0,0,3.44,1.92A102.73,102.73,0,0,0,147.64,173a45.86,45.86,0,0,0,12.87-.06l.57-.1.65.08c6.22.61,12.8-1.82,17.72-5.51a57.34,57.34,0,0,0,12.92-13.77c.29-.43.56-.86.82-1.3.77-2.46,1.46-4.94,2-7.46.32-1.48.61-3,.85-4.45.1-.58.19-1.16.27-1.75l0-.21A28.68,28.68,0,0,0,195.82,134.47Zm-81.6-48.25-.29-.17L115,86Z"/><path class="b4fcff69-947d-4d8a-aca0-0c2ee7134554" d="M194.73,135c-1.21-6.06-4.63-11.44-8.4-16.22s-8.83-8.64-15.15-9.57a96.41,96.41,0,0,0-18.68-.8c-.87,0-1.75.09-2.62.15a19.68,19.68,0,0,1-2.4.69,13.91,13.91,0,0,1-9.9-1.09,12.65,12.65,0,0,1-4.72-5.06,40.8,40.8,0,0,1-3.22,7.09c-3,5.11-7.23,9.83-13.13,11.36s-12.38.4-18.22-1.14a24.16,24.16,0,0,1-9.3-4.6,4.54,4.54,0,0,0,.63,3.94c-1.33.84-2.68,1.61-3.94,2.56a29.22,29.22,0,0,0-9,9.91,22.82,22.82,0,0,0-1.87,5.1,67.71,67.71,0,0,1,4.19,5.8c.82.6,1.65,1.18,2.52,1.71.2.12,1.44.67.82.47l.57.19a19.92,19.92,0,0,0,2.43.56c.83.15,1.66.27,2.48.41a5.88,5.88,0,0,1,4.61-2.34,5.07,5.07,0,0,1,7-.19c4.68,4.32,7.09,10.24,9.22,16.19a3.27,3.27,0,0,0,.28-.37,49.62,49.62,0,0,0,10.82,6.31,11.77,11.77,0,0,0,3.43,1.92,102.92,102.92,0,0,0,23.34,5.54,45.12,45.12,0,0,0,12.87-.06l.57-.09.65.08c6.22.61,12.79-1.82,17.72-5.52a57.36,57.36,0,0,0,12.92-13.77c.29-.42.56-.86.81-1.29.77-2.47,1.46-4.95,2-7.47.33-1.47.61-2.95.86-4.44l.27-1.75s0-.1,0-.22A30.49,30.49,0,0,0,194.73,135Z"/><path class="451b00c5-9533-454e-a427-ce3a559edd35" d="M94.83,113l-5.35-6.44c-1.83-2.2-3.84-4.91-7.14-4.19a4.83,4.83,0,0,0-2.79,1.76,3.76,3.76,0,0,0-3.41-.82,9.94,9.94,0,0,1-8.47-1.67,10.28,10.28,0,0,1-3.6-6.15c2.42-2.75-1-7.76-4.69-5.59l-6.1,3.56a13.87,13.87,0,0,0-5.05,4.41c-2.46,4-1.41,9.12,1.65,12.46a14.37,14.37,0,0,0,11.67,4.35,10.6,10.6,0,0,0,6-2.59,13.84,13.84,0,0,0,1.82-.06A4.34,4.34,0,0,0,72,110.9c.61.06,1.22.09,1.84.09a11.74,11.74,0,0,0,3.44,6.6c3,2.73,8.38,3.88,11.56.74a5.21,5.21,0,0,0,.45-.5l.34.4c1.27,1.54,3.9,1.32,5.22,0A3.77,3.77,0,0,0,94.83,113Z"/><path class="451b00c5-9533-454e-a427-ce3a559edd35" d="M80.09,69.44a3.16,3.16,0,0,0-.54-.44,3.82,3.82,0,0,0-2.42-.94c-3.83-.13-6.82,3-7.69,6.53a12.84,12.84,0,0,0,.08,5.75c.07.33.15.67.24,1a14,14,0,0,0,1,5.08,3.73,3.73,0,0,0,4,2.64A3.66,3.66,0,0,0,78,85.44a25.12,25.12,0,0,0-.88-4.59c0-.17,0-.33,0-.5s0-.31,0-.46.13-.67.13-.66a6.29,6.29,0,0,1,.89-2.35l.4-.66a2,2,0,0,0,.13-.22.59.59,0,0,0,.1-.11,11,11,0,0,1,1.23-1.23A3.73,3.73,0,0,0,80.09,69.44Z"/><path class="451b00c5-9533-454e-a427-ce3a559edd35" d="M141,78.16a3.74,3.74,0,0,0-4.54-2.58,7.3,7.3,0,0,1-4.7-.45,28.91,28.91,0,0,1-5-2.61,3.74,3.74,0,0,0-5.05,1.33,3.78,3.78,0,0,0,1.32,5.05l7.66,5.68c1.46,1.08,3.77.38,4.77-1a4.53,4.53,0,0,0,.31-.5,13.18,13.18,0,0,0,2.65-.43A3.74,3.74,0,0,0,141,78.16Z"/><path class="451b00c5-9533-454e-a427-ce3a559edd35" d="M137.73,105.52c-.35-2-2.74-3.08-4.54-2.58a3.69,3.69,0,0,0-2.63,4.11c-.12.16-.36.37-.38.4a6.6,6.6,0,0,1-1.33,1.06q-2.4,1.63-4.91,3.12a92.84,92.84,0,0,1-10.15,5.14c-1.83.79-2.24,3.47-1.32,5,1.1,1.89,3.21,2.11,5,1.32a89.6,89.6,0,0,0,12.31-6.46C134,114.09,138.74,111.11,137.73,105.52Z"/><path class="401e6177-f58d-4404-971e-6fd735132bb7" d="M100.8,120.73c-.48-1.74-2.69-3.34-4.54-2.58A25,25,0,0,0,82,133.08a3.72,3.72,0,0,0,2.58,4.54,3.77,3.77,0,0,0,4.54-2.57,17.63,17.63,0,0,1,3.59-5.81,16,16,0,0,1,2.5-2.21c.56-.39,1.14-.75,1.73-1.08l.72-.38s1-.46.61-.3C100.06,124.51,101.37,122.82,100.8,120.73Z"/><path class="b7693d93-d3ed-4746-9e6f-71b15ea57477" d="M189,117.12c-.45-.34-.9-.68-1.36-1-3.79-2.73-9.23-7.38-14-8a9.84,9.84,0,0,1-2.53-.66,5.28,5.28,0,0,1,.27,1.24,22.64,22.64,0,0,1,9.69,4c1.69,1.19,3.27,2.54,5.05,3.61a25.09,25.09,0,0,0,3.44,1.72C189.33,117.73,189.16,117.43,189,117.12Z"/><path class="be9ff878-6412-46c3-a720-f4823f5ff955" d="M184.61,157.93a45.06,45.06,0,0,1-10,6.21c-4,1.71-8.17,1.93-12.42,2.05l-1.25,0c-3.33,0-6.66-.16-10-.47a70,70,0,0,1-11.61-2.32c-9-2.66-18.79-7.83-23.82-16a16,16,0,0,1-2.36-6.31,9.57,9.57,0,0,1-1.65-5.76,4.77,4.77,0,0,1,3-6.75c.59-.14,1.17-.3,1.75-.49.24-.08.48-.18.73-.25h0a26.53,26.53,0,0,0,2.35-1.26c.42-.26.82-.53,1.22-.81.22-.15.8-.61.79-.59q.9-.74,1.77-1.5a86.57,86.57,0,0,1,8.52-7.14,23.81,23.81,0,0,1,2.32-1.4c0-.09.08-.18.13-.27a4.85,4.85,0,0,1,6.22-1.89c1.17-.18,2.36-.28,3.52-.38s2.08-.16,3.12-.26c.24,0,1.14-.16,1-.12.31-.06.62-.11.93-.18a24.22,24.22,0,0,0,3.15-.92l.55-.21.15-.07c.39-.19.78-.37,1.16-.57,2.66-1.36,5.16-2.93,7.79-4.31a17,17,0,0,1-3.58-1.75,10.26,10.26,0,0,1-1.16.9,21.75,21.75,0,0,1-21.59,2,1.72,1.72,0,0,0-.07.21,3.41,3.41,0,0,0-.09,1.28,3.93,3.93,0,0,0-3.56,1.8,21.48,21.48,0,0,1-5.67,5.17,4.19,4.19,0,0,0-3.06,1.81c-.12.17-.26.36-.41.54a13.2,13.2,0,0,1-1.7.9,12.06,12.06,0,0,1-4.76.77c-3.74,0-7.51-.07-11.25-.24-.67,0-1.33-.07-2-.13l-.32,0-.29-.06c-.32-.07-.65-.13-1-.21l-.38-.1a5,5,0,0,1-4.72,3.83l-.77,0-.14,0-1.32.33c-.13,0-1.26.45-1.25.42-.36.16-.72.34-1.08.52a32,32,0,0,0-2.83,1.64c-.37.25-.73.51-1.11.75-.06,0-.47.3-.73.45l-.8.66-.87.84c-.67.67-1.31,1.37-2,2.05a19.7,19.7,0,0,1-4.68,3.81,5.07,5.07,0,0,1-2.61.6,6.66,6.66,0,0,0,.23,1.51,11.89,11.89,0,0,0,5.08,6.4,14,14,0,0,0,2.45,1.29,4.56,4.56,0,0,0,0,.54,3.67,3.67,0,0,0,.37,1.54q-.77.18-1.53.33c-.55-.41-1.12-.8-1.7-1.18a4.07,4.07,0,0,0-1.34-1.48l.26.39c.09.14.62.91.82,1.22s.73.86.8.94a13.17,13.17,0,0,0,1,.93c1.56.18,3.2.21,4.8.31,3.85-7.22,14.14-2.08,13.52,5.16a41.46,41.46,0,0,1,5.91,5.09c0-.13.08-.25.1-.38a26.91,26.91,0,0,0,1.59,2.21q.73.84,1.44,1.71c4.82,5.23,11.47,8.65,18.31,10.5,9.68,2.62,19.8,2.17,29.72,1.81h.5a158.53,158.53,0,0,0,15.87-.31,3.91,3.91,0,0,0,3.48-2.49,44,44,0,0,0,6.54-3.56c.63-.66,1.26-1.33,1.86-2,.34-.4.68-.8,1-1.21l.19-.23.27-.36a40.93,40.93,0,0,0,3.5-5.5c.26-.49.52-1,.76-1.5.1-.23.38-.92.4-.94.29-.78.57-1.57.83-2.37.61-1.89,1.17-3.78,1.66-5.7A54.23,54.23,0,0,1,184.61,157.93ZM99.3,134.59a4.24,4.24,0,0,0-2-.63,12.52,12.52,0,0,1,3-1.86l0,0A10.45,10.45,0,0,1,99.3,134.59Zm4,16.66a21.45,21.45,0,0,1-1.15-3.87c-.31-1.55-.5-3.12-.67-4.69a11.07,11.07,0,0,0,1-.7,25.89,25.89,0,0,0,2,11.17A11,11,0,0,1,103.3,151.25ZM108,131a3.7,3.7,0,0,0-.87.11,3.62,3.62,0,0,0-1-1.12,3.23,3.23,0,0,0,.46-.59l.39.33a8.9,8.9,0,0,0,1.26.84C108.13,130.71,108,130.85,108,131Z"/><g id="c12b56db-bf21-42bc-bb56-314c2de0aa09" data-name="Form 29"><path class="3b16658e-6845-493f-be3d-569b3a544d3d" d="M196,139.8c-.38-7.05-1.91-14.27-6-20.07l.85,0a11.51,11.51,0,0,1-1.88-2.64c-.45-.34-.9-.68-1.36-1-3.79-2.73-9.23-7.38-14-8a9.59,9.59,0,0,1-5.84-2.93,50.17,50.17,0,0,0-8.73-.88,15.89,15.89,0,0,0,4-13.92,4,4,0,0,0,3.41-1.18,6.62,6.62,0,0,1-5.08-3.17l2.81-2.16a2.35,2.35,0,0,0-2.87,1.4,1.8,1.8,0,0,1-1.77-2.11,28.15,28.15,0,0,0,15.17-18.48c-4.29,3-5.49,8.86-9.05,12.71-3.14,3.42-7.9,5-12.55,5.22s-9.24-.73-13.78-1.72c2.41-2.92,7-1.67,10.66-.49s8.78,1.2,9.9-2.43c-3.88,2.37-8.89,1.12-13.23-.22a13.2,13.2,0,0,1-3.34-1.37A18.14,18.14,0,0,1,140,73.11a23.72,23.72,0,0,0-27.89-4.73c-2.27,1.23-4.71-1.09-6.7-2.73-6.67-5.5-16.55-4.19-24.83-1.73C76,65.24,71.39,67,68.38,70.57s-3.61,9.62-.08,12.74a13.7,13.7,0,0,1,5.11-14.55c2.63-1.86,5.85-2.7,9-3.44,8-1.92,17.8-3,23.32,3.12a2.69,2.69,0,0,1,.88,1.88c-.08,1.07-1.26,1.67-2.08,2.41s-1.09,2.43,0,2.65a23.71,23.71,0,0,1,37.25,3,9.88,9.88,0,0,0-8.45,6.64c4.48-1.12,9-2.24,13.61-2s9.35,1.91,12.17,5.55,3.12,9.38-.14,12.66a19.09,19.09,0,0,1-13.8,5.55c6,.77,12.14-.46,18.21,0,15.83,1.15,29.72,15.12,30.73,31s-11,31.5-26.52,34.64c-5,1-10.26.88-15.4.58-11.62-.69-23.65-2.16-33.6-8.23s-17.31-17.81-14.88-29.21a6.73,6.73,0,0,1,12.47-1.91c1.26-.71,1.1-2.76,0-3.75a6.06,6.06,0,0,0-4.1-1.12,33.13,33.13,0,0,0-19.17,6.13,5.44,5.44,0,0,0-2.4,2.84c-.31,1.23.52,2.82,1.77,2.76a7.65,7.65,0,0,1,5.88-6.94c-.9,4-2.95,7.84-6.42,9.95s-8.51,1.86-11.11-1.23c-2.89-3.42-1.91-8.67.09-12.69A21.72,21.72,0,0,1,90,119.6c4.15-2.08,9.38-2.25,13.29.27A21.1,21.1,0,0,0,133.76,93c.47,9.85-7.74,17.83-15.83,23.47-2.46,1.72-5.14,3.41-8.15,3.58-3.2.22-6.26-1.34-9-3-3.09-1.83-6.18-3.93-8.15-6.94-3.28-5.09-2.71-11.87-.28-17.39,3.29-7.44,10-13.54,18-15s17,2.19,20.75,9.41c.52-4.41-3.31-8.21-7.38-10-8-3.5-17.86-1.84-24.8,3.55S88,94.79,87.6,103.54a6.18,6.18,0,0,1-5.49-.6c0,2.49,3.85,3.83,5.36,1.84a8.61,8.61,0,0,1,1.17,5.79,13.16,13.16,0,0,0-4.7,1.59,3.86,3.86,0,0,0,5.72-1.29c1.75,1.56,3.5,3.12,5.22,4.68-2.87,1.28-5.77,2.54-8.64,3.83-2.44,1.06-5.39,2.1-7.63.68-3.09-2-2.19-6.64-.93-10.09A4.27,4.27,0,0,0,74,113.25a12.36,12.36,0,0,0,0,5.31c-3.42-.66-6.95-1.29-10.39-.69s-6.81,2.71-7.91,6a8.63,8.63,0,0,1-11.56,4.76c-2.65-1.34-4.35-4-6.1-6.37s-3.88-4.84-6.81-5.42-6.45,1.83-5.85,4.73c.44,2.22,2.79,3.39,4.87,4.24l6.86,2.87c3.42,1.4,6.92,2.84,10.61,2.93l.61,0a22.33,22.33,0,0,1,4.54-2.41,5.57,5.57,0,0,1,2.66-.31,7.93,7.93,0,0,0,1.57-2c1.12-2.19,1.28-5.06,3.31-6.42a6.59,6.59,0,0,1,3.17-.93,29.87,29.87,0,0,1,18,4,21.5,21.5,0,0,0-5.5,15.4c1.24,1.65,2.38,3.37,3.52,5.1a27.58,27.58,0,0,1,2.69,2.83,2.93,2.93,0,0,1-.19.26l.18.17c1.21.14,2.45.2,3.7.26l1.49-.56a6,6,0,0,1,6.32-2.75c3.7-2.06,6.85-4.94,7-9a14.34,14.34,0,0,1-3.43,10.57A8.48,8.48,0,0,1,98.64,147a1.78,1.78,0,0,0,.56-1.52c.55-.63,1.06-1.29,1.61-1.91a6.12,6.12,0,0,1,1,4.53c0,.36-.35.8-.66.61s-.84,0-1.18.41a7.35,7.35,0,0,1,.62,3.63l.42.28c.29-1.15.52-2.32.72-3.48q2.25,4,4.53,8.05a56.13,56.13,0,0,1,4.28,4.94,79.72,79.72,0,0,0,46,12.83c8.28-.3,16.62-2,23.81-6.1a34.76,34.76,0,0,0,5.52-3.92l0-.05c.34-.4.68-.8,1-1.21l.19-.23.27-.36a40.93,40.93,0,0,0,3.5-5.5c.26-.49.52-1,.76-1.5.1-.23.38-.92.4-.94.29-.78.57-1.57.83-2.37.88-2.75,1.67-5.51,2.29-8.33.32-1.48.61-3,.85-4.45h0Zm-80.55-20.18a27.22,27.22,0,0,0,5.74-2.92c1.07-.74,2.11-1.53,3.14-2.35a32.67,32.67,0,0,0,5.8-5.34,17,17,0,0,0,2-3.41,4,4,0,0,1,.82-1.37,1.14,1.14,0,0,1,1.45-.14,12.66,12.66,0,0,1-2.16,6.76A21.68,21.68,0,0,1,128.4,115c-3.8,3.28-8.42,6.29-13.42,5.85A1.54,1.54,0,0,1,115.47,119.62Zm-77,8.83c-1.31-1.09-2.62-2.21-3.94-3.33a9.18,9.18,0,0,0-2.27-1.56c-1.66-.71-3.8-.49-5.06-1.8.2-.72.36-1.45.55-2.16a1.49,1.49,0,0,1,.36-.77c.46-.44,1.2-.16,1.75.11,1.5.79,3,1.56,4.54,2.35A4.39,4.39,0,0,1,36,122.47c1,1.31,1.94,2.59,2.92,3.88a2.21,2.21,0,0,1,.63,1.45C39.51,128.35,38.85,128.81,38.44,128.45Z"/><path class="3b16658e-6845-493f-be3d-569b3a544d3d" d="M136,91v1.06a1.59,1.59,0,0,1-1,.14,5.32,5.32,0,0,1-.11-1.78,1.5,1.5,0,0,1,1-.14A.9.9,0,0,1,136,91"/><path class="3b16658e-6845-493f-be3d-569b3a544d3d" d="M173.76,60.61a.8.8,0,0,1,1-.68,2.4,2.4,0,0,1-.82,2.76c-.06-.68-.14-1.39-.19-2.08"/><path class="3b16658e-6845-493f-be3d-569b3a544d3d" d="M141.39,94.66c-.25-.63-.52-1.23-.77-1.86l2.68-.08a2.37,2.37,0,0,1-.11,2.07c-.43.55-1.55.52-1.72-.16"/><path class="3b16658e-6845-493f-be3d-569b3a544d3d" d="M171.8,165.18a6.06,6.06,0,0,1-1.13.3c-.21,0-.51,0-.54-.25a5.47,5.47,0,0,1,4.29-1.34,13,13,0,0,1-2.62,1.29"/><path class="3b16658e-6845-493f-be3d-569b3a544d3d" d="M112.51,116.53a8.9,8.9,0,0,1-2.54.77,6.79,6.79,0,0,1-2.62-.06c1.72-.24,3.44-.46,5.16-.71"/><path class="3b16658e-6845-493f-be3d-569b3a544d3d" d="M85.31,141.14a4.35,4.35,0,0,1-1.26-3.06c0-.25,0-.52,0-.77,1.13.25,1.65,1.54,2,2.63a1.51,1.51,0,0,1,.06,1c-.14.33-.63.5-.82.22"/><path class="3b16658e-6845-493f-be3d-569b3a544d3d" d="M87,97.39a2.82,2.82,0,0,1-3.42,2.41,5.25,5.25,0,0,1-1.91-1.15c1.2-1.48,3.93,0,5.33-1.26"/><path class="3b16658e-6845-493f-be3d-569b3a544d3d" d="M94.63,119.51l6,1.23a5.58,5.58,0,0,1-6.32-.57l.33-.66"/><path class="3b16658e-6845-493f-be3d-569b3a544d3d" d="M88.81,93c.08.33-.25.63-.58.76a4.21,4.21,0,0,1-5.57-2.4,31.15,31.15,0,0,1,5.49,1.15c.27.08.6.21.66.49"/><path class="3b16658e-6845-493f-be3d-569b3a544d3d" d="M120.72,159.13c-1.45.09-2.71-.9-3.83-1.85l-1.61-1.4a5.81,5.81,0,0,1,3.77,1.61l1.67,1.64"/><path class="3b16658e-6845-493f-be3d-569b3a544d3d" d="M75.27,91.87C77,93,78.64,94.22,80.33,95.4c.36.24.77.6.68,1A9.7,9.7,0,0,1,77.38,95l-2.11-3.17"/><path class="3b16658e-6845-493f-be3d-569b3a544d3d" d="M91.79,80.88c0,1-.06,2-.06,3a1.21,1.21,0,0,1-1.8-.22,2.94,2.94,0,0,1-.38-2,13,13,0,0,1,8.28-11,1.65,1.65,0,0,1,.22,1.18A15.2,15.2,0,0,0,93.37,78a6.77,6.77,0,0,1-1.58,2.85"/><path class="3b16658e-6845-493f-be3d-569b3a544d3d" d="M173.74,54.54c-.36,0-.44-.49-.36-.84.3-1.7.63-3.39,1-5.09.49-.33,1-.66,1.5-1a4.12,4.12,0,0,1,1,1.43c-.63.08-.68,1-.63,1.58s-.13,1.48-.76,1.45a8.34,8.34,0,0,0,1.77,6.75,7.06,7.06,0,0,1,1.21,1.62,1.61,1.61,0,0,1-.28,1.86c-.46-.9-.65-1.92-1.17-2.76a2,2,0,0,0-2.57-.91c.14.39-.41.77-.74.55.85-1.42-1.18-3.58,0-4.68"/><path class="3b16658e-6845-493f-be3d-569b3a544d3d" d="M140.54,62A12.3,12.3,0,0,1,148,65.1a21.69,21.69,0,0,1,3.81,4,7.5,7.5,0,0,1,1.66,4,6.65,6.65,0,0,1-3.61-2.32,21.68,21.68,0,0,0-11-7.52c-.21-.8.88-1.26,1.67-1.26"/><path class="3b16658e-6845-493f-be3d-569b3a544d3d" d="M114.51,93.81a4.67,4.67,0,0,1,4.21,2.27,4.76,4.76,0,0,1,.79,4.37A5.14,5.14,0,0,1,111,100c-.19-.76-.38-1.53-.54-2.29.93-1.7,2.16-3.56,4.07-3.86m1.29,2.11a1.54,1.54,0,0,0-2.11.6,4.18,4.18,0,0,0-.33,2.38,1.61,1.61,0,0,0,1.56,1.36,4.5,4.5,0,0,0,2.22-.52,4.49,4.49,0,0,0-.66-2.76,1.09,1.09,0,0,1-.68-1.06"/><path class="3b16658e-6845-493f-be3d-569b3a544d3d" d="M67.81,86.81c-4.49-1.91-9.93.14-13.1,3.83s-4.43,8.67-4.81,13.53a9.1,9.1,0,0,0,.79,5.36A7.53,7.53,0,0,0,53,111.88a16.85,16.85,0,0,0,18.54.06c.66-.44,1.53.44,1.37,1.2a2.71,2.71,0,0,1-1.62,1.59,19.82,19.82,0,0,1-20.48-1.67A8.29,8.29,0,0,1,49,111.28a9.55,9.55,0,0,1-1.36-5c-.28-6.07,1.17-12.42,5.19-17S63.71,82.52,69.26,85a3.86,3.86,0,0,1,2,1.58,1.77,1.77,0,0,1-.43,2.3,9.25,9.25,0,0,0-3-2"/></g><path d="M34.26,126.13A63.06,63.06,0,0,1,36,119a23.89,23.89,0,0,1,1.35-3.26,17.14,17.14,0,0,0,.83-1.9,8.71,8.71,0,0,0,.51-2.22,26.44,26.44,0,0,0,.73-3.78c.25-1.69.34-3.39.63-4.51s.9-2.63,1.46-4.33c1.11-3.34,1.63-6.61,2.89-9.72a37.49,37.49,0,0,1,4.4-7.74c1.34-1.72,2.79-3.39,4.27-5.07s2.9-3.33,4.48-4.86c3.11-3.1,6.53-6,9.89-9,1.68-1.49,3.38-3.1,5-4.69s3.15-3.12,4.79-4.49a26.28,26.28,0,0,1,2.54-1.87A14.89,14.89,0,0,1,81,50.79l.68-.35.77-.38c2-1,4-2.08,6-3.14,2.19-.8,4.27-1.37,6.59-2.43,1.58-.72,2.83-1.42,4.11-2.09a38.38,38.38,0,0,1,4.15-2,69,69,0,0,1,25-4.31A45.71,45.71,0,0,1,140,37.82a48.44,48.44,0,0,1,5.55,1.9c.91.36,1.81.77,2.72,1.19l2.86,1.37c4.68,2.24,9,4.61,13.5,6.94a114.5,114.5,0,0,1,13.25,7.63,65.61,65.61,0,0,1,8.66,7.06c5.33,5.43,10.5,11.2,14.13,17.75A39.78,39.78,0,0,1,204.69,92c.21.9.35,1.81.52,2.73s.28,1.89.39,2.83c.24,1.89.43,3.78.54,5.67a60.06,60.06,0,0,1-.51,8.49,62.65,62.65,0,0,1-1.36,7c-.3,1.13-.61,2.23-1,3.31l-1.1,3.43c-1.41,4.57-2.55,9-3.89,13.33-.69,2.09-1.41,4.15-2.16,6.21-.53,1.31-1.06,2.6-1.68,3.86-1.3,2.73-3.74,6.75-5.32,9.49-1.14,2-2.12,4.14-3.38,6-1.24,1.58-2.49,3.06-3.72,4.47-1.54,1.54-2.73,2.52-4.09,3.72-.68.6-1.4,1.25-2.25,2s-1.86,1.76-3,2.94c.1.34-.4,1.05-.59,1.56l-.85.83c-1.69,1.18-3.51,2.49-5.18,3.49l-1.91,2.23c-2.15,1.16-4.81,2.84-7.53,4.48l-4,2.45c-.66.4-1.32.76-1.94,1.16s-1.27.77-1.85,1.15l-4.53,1.75c-4,1.57-7.16,3-10.7,4.11L132,201c-4.82.65-8.65.64-12.14-.63-.83.09-1.62.17-2.42.23-2.27-.45-6.13-1-9.88-1.31-.94-.09-1.87-.17-2.76-.22l-2.42-.14a19.77,19.77,0,0,0-3.55,0l-.41-.11c-1.38-.39-2.65-.8-3.94-1.25-4.48-2.24-8.25-3.8-12.48-5.55-2-1.08-4-2.25-6.16-3.61a122.65,122.65,0,0,1-14.43-11.05l-3.54-3.1a37,37,0,0,1-3.24-3.15c-1-1.12-2.08-2.33-3.17-3.55-.55-.61-1.11-1.22-1.69-1.82L49,165c-.23-.26-.45-.52-.66-.79a13.41,13.41,0,0,1-1.52-2.62c-.45-1.19-.8-2.5-1.2-3.9a40.39,40.39,0,0,0-1.46-4.3c-.73-1.77-1.46-3.21-2.13-4.5A45.82,45.82,0,0,1,38.7,138.4c-.67-3.71-1.29-7.3-1.76-10.75l0-.36c0-2,0-3.92.22-5.88.15-.19.29.09.43-.2a42.42,42.42,0,0,1,1.51-11.77c.15-.46.31.15.39.07.56-3.85,1.68-5.58,2.31-4.6a40.94,40.94,0,0,1,1.3-4.72c1.12-1.08,3.34-5.27,5.85-9.58S54.38,81.82,56,79.47a62.14,62.14,0,0,1,5.13-4.89c1.76-1.48,3.74-3,5.67-4.38,3.5-2.55,6.06-4.26,7.68-5.53s2.33-2.09,2.22-2.69l9.94-6.36-.57-.88.21-.13a2.85,2.85,0,0,1-.31,0L85,53l-.66.41a1.93,1.93,0,0,1-.06-.42c-5.8,3.82-10.42,7-15.44,10.43a67.18,67.18,0,0,0-9.11,6.15A51.37,51.37,0,0,0,51.5,78c-1.54,1.87-3,3.88-4.6,6.19a113.26,113.26,0,0,0-7.21,12.37,61.07,61.07,0,0,0-5,13.67c-1.21,5-2.06,11-1.53,15.89.06.62.16,1.13.26,1.68.13,2.32.39,4.62.71,6.9s.65,4.49,1.21,6.86c1.11,4.68,3.32,8.83,5.12,12.93.76,1.8,1.35,3.59,2,5.51.12.59.25,1.2.38,1.77a16.13,16.13,0,0,0,2.39,5.72c.27.43.6.83.89,1.21l.76,1c.51.67,1,1.33,1.56,2a53.33,53.33,0,0,0,3.82,4.49c1.63,1.68,3.34,3.1,5.38,4.9a155.65,155.65,0,0,0,15,11.85,77.14,77.14,0,0,0,27.31,11.36c1.6.31,3.3.58,4.84.77l4.68.59c3.13.36,6.28.64,9.44.7a46.85,46.85,0,0,0,9.41-.67,71.68,71.68,0,0,0,13.37-3.9q4.73-1.56,9.25-3.57a58.67,58.67,0,0,0,8.79-4.75A119.79,119.79,0,0,0,175,181a30.75,30.75,0,0,0,4.72-4.24c1.14.43,5.88-3.34,10-8.85a57,57,0,0,0,5.41-8.75,65.47,65.47,0,0,0,3.07-7.26c0-.35-.27-.07-.3-.38,1.54-3.66,3.48-9.59,5.2-15.16.87-2.78,1.74-5.47,2.55-7.74a52.4,52.4,0,0,1,2.18-5.34,42.74,42.74,0,0,0,.93-8.35,54.85,54.85,0,0,0,.55-10c.52-3.26,1.26-5.65,1.08-9.73A5.28,5.28,0,0,1,209.7,94c-.24-.51-.5-1.14-.75-1.82-.5-1.37-1.08-3-1.74-4.65a64.22,64.22,0,0,0-4.58-9.28,72.79,72.79,0,0,0-5.88-8.54c-.09-.25-.12-.44,0-.48A68.34,68.34,0,0,0,190.22,62a2.68,2.68,0,0,1,.5.26c-3.26-3.71-6.61-5.87-8.28-6-.76-.58-1.52-1.15-2.3-1.69A71.13,71.13,0,0,0,168.41,46c-5-2.83-10.71-5.62-16.13-8.36a43.18,43.18,0,0,0-4.18-1.9,30.12,30.12,0,0,0-3.45-1.1,44.61,44.61,0,0,0-14.47-2.42,82.74,82.74,0,0,0-14.45,1.52,71,71,0,0,0-15,3.55,66.87,66.87,0,0,0-7.21,3c-2.4,1.16-4.77,2.47-7.25,3.8-1.22.66-2.56,1.36-4,2.06-.7.33-1.41.68-2.12,1a20.17,20.17,0,0,0-2.32,1.29,28.84,28.84,0,0,0-6.81,6.31l-.12.16C66.17,59.89,60.72,64.1,55.68,69c-1.25,1.23-2.49,2.52-3.64,3.85L48.61,76.8a52.44,52.44,0,0,0-6.22,8.64,32.91,32.91,0,0,0-2.26,4.9c-.62,1.68-1.13,3.36-1.65,5s-1.1,3.15-1.74,4.85A15.64,15.64,0,0,0,36,102.9a12,12,0,0,0-.16,1.44l-.06,1.35c-.05,1.77,0,3.48-.16,5.1a7.27,7.27,0,0,1-.46,2.16c-.26.69-.66,1.44-1,2.26-1.59,3.36-2.21,6.94-2.91,10.28ZM39.71,106a52.33,52.33,0,0,1,2.49-6.17l.18-.13A54.58,54.58,0,0,0,39.71,106ZM51.05,85.38l0,0,.36-.47Z"/><path d="M208.62,100.86a29.2,29.2,0,0,1,1.8,5.64c-.1.45-.17,1-.25,1.51-.39,2.76.45,5.12.81,8.07.15,1.27.26,2.54.32,3.82l-.12,2.22,0-.18a187.26,187.26,0,0,1-4.37,19.55,11,11,0,0,0-1.69,2.53c-.48,1.39-.28,2.51-.59,3.91a26.48,26.48,0,0,1-1.84,5.16,49.5,49.5,0,0,1-2.54,4.59c-1.76,3-3.68,5.73-5,9a50,50,0,0,1-6.1,11l-2.91,3.76a102.23,102.23,0,0,1-13.07,13.94l-3,2c-3.52,2.22-6.24,4.91-9.34,7l-2.37,1.31a15.22,15.22,0,0,1-1.61.68,40.67,40.67,0,0,0-4.39,1.32c-.87.38-1.66,1.05-2.5,1.51-.81.25-1.6.44-2.34.71-.9.16-1.56.21-2.31.33a10.9,10.9,0,0,0-2.84.79c0,.33-.27.6-.4.89a4.19,4.19,0,0,1-.46.16c-.88-.08-1.83-.11-2.67-.25-.37.23-.72.49-1.06.74a12.5,12.5,0,0,0-7.44.74,17.12,17.12,0,0,0-2,0,14.32,14.32,0,0,0-2.48.38l-2.3.52-.66,0c-2-.32-3.66-.55-5-1.77l-1,.29a13.58,13.58,0,0,0-4-.69,7.47,7.47,0,0,0-3.75.51l-.18-.05c-.57-.18-1.11-.35-1.65-.54a10.62,10.62,0,0,0-5.45-2c-.92-.31-1.87-.62-2.91-.9l-2.71-.76.17.06a91.74,91.74,0,0,1-11.48-5.15l-1.25-.7a29.19,29.19,0,0,0-2.88-2.11,12.83,12.83,0,0,0-1.8-.92,70.55,70.55,0,0,0-7.88-5l-.12-.09c-.61-.58-1.22-1.14-1.81-1.74,0-.16.21-.2.19-.38a23.62,23.62,0,0,1-4-3.07c-.13-.16.24-.23.24-.3-1.53-.76-1.95-1.57-1.09-2.08-.5-.12-1.42-.78-2-1a3.63,3.63,0,0,0-.94-1.58c-.27-.31-.58-.63-.92-1s-.64-.68-1-1c-1.47-1.46-3.1-3-4.06-3.75-1-1.7-2-3.42-2.85-5.14-1.58-3.07-2.1-4.36-3.24-4.11a37.52,37.52,0,0,1-1.47-4.46l-1,.26,0-.1a2,2,0,0,1-.16.14l-1.83.47L45,166c-.13,0-.26,0-.4,0a52.34,52.34,0,0,0,3.15,7.44,21.19,21.19,0,0,0,4.68,8.4c.62.81,1.29,1.62,2,2.52s1.3,1.52,2,2.3,1.47,1.4,2.21,2.11l4.42,4c1.56,1.4,3.22,3.24,5.06,4.2a5.21,5.21,0,0,0,.66.28,77.74,77.74,0,0,0,9.7,6.29c.7.46,1.43.88,2.15,1.31l.51.58c2.32,2.75,4.09,3.95,8.3,5.8l4.78,2.06.06,0,.13,0a115.56,115.56,0,0,0,13.08,3.85,41.61,41.61,0,0,0,13.36.89c2-.25,3.91-.49,5.79-.82,1.39,0,2.77-.09,4.15-.17a38.61,38.61,0,0,0,4.16-.45,77.31,77.31,0,0,0,8.17-1.68,5.92,5.92,0,0,0,2.62-.62c.55,1.06,3.07.66,5.8-.23a42.52,42.52,0,0,0,3.92-1.73c1.18-.66,2.19-1.29,2.83-1.74.06-.19-.13-.24-.1-.42.76-.36,1.66-1,2.68-1.54l1.58-.94,1.58-1a34.51,34.51,0,0,1,5.19-3c.67-1,1.58-2,2.08-2.92,1.12-.82,2.15-1.74,3.21-2.63,1.46-.36,2.77-.33,4.29-1.21-.14-1,.52-2.15,1.39-3.35a19.58,19.58,0,0,1,1.44-1.7c.49-.55.95-1.06,1.36-1.49.72-.76,2-1.87,3-3.06.14,0,.26,0,.32.06a13.87,13.87,0,0,0,1.39-1.49c.38-.53.77-1.07,1.18-1.62a.85.85,0,0,1,0,.28c1.4-1.43,2.13-2.88,1.76-3.91l.74-.93c.85-.67,1.61-1.26,2.36-1.91a11.69,11.69,0,0,0,2.17-2.33,23.4,23.4,0,0,0,1.86-3.39c.52-1.21,1-2.43,1.61-3.57a22.69,22.69,0,0,0,1.26-3.16,117.05,117.05,0,0,0,5-11c2.25-3.92,3.25-7.67,4.57-12.25.31-1.13.75-2.47,1.07-3.8a14.2,14.2,0,0,0,.48-3.76s0-.05,0-.09q1.38-6,2.42-12.09v-.14a71.78,71.78,0,0,0-.05-11.45,36.16,36.16,0,0,0-2.78-11.3ZM63.85,188.54c-.71-.62-1.4-1.27-2.1-1.91l0-.14C62.46,187.17,63.14,187.87,63.85,188.54Zm-6.61-7.21v0l-.14-.21Z"/><path class="68cb3971-5a2a-4921-938a-bf80023a4e00" d="M136.16,42.69C111.78,40.47,86,46,65.88,59.87c-13.41,9.26-24.19,20.86-29,35.82-3.75,11.56-3,24.84,1.17,36a68.33,68.33,0,0,0,4.33,9.36c2.73,15,11.57,29,23.83,39.6a90.8,90.8,0,0,0,36.05,19.37c15.12,3.91,30.22.62,44.19-5.64,25.8-11.57,49.76-31.13,59.16-56.62,7.56-20.52,2.69-44.47-10-61.94C182.13,57.35,160.5,44.91,136.16,42.69Z"/><g class="da55b2be-3e55-4c43-abdf-509c3bc7b8cb"><path class="451b00c5-9533-454e-a427-ce3a559edd35" d="M133.56,175.76l.51-.27a5.8,5.8,0,0,0-1.22.54Z"/><path class="451b00c5-9533-454e-a427-ce3a559edd35" d="M163.06,44.28c-10.81-3.41-22-6.48-33.47-7.9-3.23.47-6.45,1.08-9.63,1.86A89.31,89.31,0,0,0,79,60.66C67.29,71.82,56.27,83.4,49.67,97.74c-3,6.62-6.89,13.44-8.63,20.43a40,40,0,0,0-.11,16.9c1.22,6.74,2.73,13.2,3.51,19.75C52,169.26,61,183.42,72.68,195.2c1.09,1.1,2.2,2.17,3.35,3.22a72.47,72.47,0,0,0,40.6,9.53c13.59-.92,26.16-4.95,37.94-10.69a6.44,6.44,0,0,1,2.59-2.5c15-7.81,25.18-22.06,36.83-33.39q2.19-2.13,4.34-4.27c2-5.2,4-10.42,6.17-15.6,3.7-9.07,8.93-17.76,11.36-27.2,4.79-18.6-7.89-32.61-18.42-46.78a6.24,6.24,0,0,1-1.31-3.19C184.57,58.29,175.89,48.32,163.06,44.28Zm15.62,28c-.71-.63,1.41,1.53,2.07,2.39,1.72,2.18,3.31,4.45,4.88,6.72C187.8,84.53,190,87.72,192,91c.93,1.47,1.77,3,2.67,4.48.27.59,1,2.09,1.17,2.43s1.08,2.39,1.56,3.91c0,.28,0,.69,0,1.3,0,.26.17,1.48.18,2.3,0,.1-.05.2-.08.33-.21,1-.4,2-.66,3s-.62,2-.89,3l-.1.4a167.82,167.82,0,0,1-14.27,24.65c-.51.73-1.06,1.44-1.57,2.17L180,139l-.47.57c-1.52,1.85-3,3.69-4.62,5.5q-4.77,5.4-10,10.41c-1.75,1.67-3.55,3.3-5.38,4.89-.91.79-1.84,1.58-2.77,2.36l-2.25,1.85-.53.41c-1,.7-1.93,1.39-2.9,2.08a17.1,17.1,0,0,0-8.3,3.13,72.07,72.07,0,0,1-8.66,5.29c.1,0,.18,0,.2,0l-.71.26-.05,0c-1.59.83-1.3.59-.66.25l-.77.29q-2.94,1-6,1.79c-1,.26-2,.43-3.06.7-2.43.64,1.53-.31,1.47-.21-.32.53-5.6.61-6.26.65-1.57.1-3.15.15-4.72.15-.39,0-1.3.06-2.08,0a11,11,0,0,0-1.17-.18A80,80,0,0,1,98.75,177l-1.69-.49-.61-.24c-2.15-.85-4.29-1.69-6.38-2.66a63.55,63.55,0,0,1-10-5.32c-.73-.56-1.79-1.35-2.33-1.75q-2.76-2-5.37-4.18a108.28,108.28,0,0,1-8.75-8.09c-.22-.23-.88-1-1.31-1.49l-.19-.25c-1.36-1.81-2.75-3.56-4-5.44-1.08-1.62-2-3.35-3-5-.25-.69-.57-1.36-.84-2a61.29,61.29,0,0,1-1.89-5.85c-.2-.75-.38-1.49-.55-2.24a7.89,7.89,0,0,0-.58-1.54c-.8-2.86-.4-6.91-.45-9.61,0-1.8,0-3.6.06-5.41,0-.77.09-1.55.11-2.32,0-.22,0-.41,0-.57.32-1.75.56-3.51,1-5.26.19-.73.51-1.49.64-2.22.92-1.57,1.85-3.16,2.72-4.74.82-.95,1.63-1.91,2.48-2.83,6-6.5,12.36-12.82,19-18.75l.89-.78a23.61,23.61,0,0,0,5.63,7.4c6.81,6.1,16.53,8.35,26.3,8,8.76-.34,18.06-3.48,25.76-8,4.79-2.81,9.6-6.43,12.25-11.16a16.63,16.63,0,0,0,1.39-13.75l1.87.29c3.79.64,7.55,1.41,11.26,2.35,1,.26,2.06.56,3.09.83,2.46,1,4.83,2,7.21,3.15.09,0,.4.23.72.42s.76.54.84.61C175.66,69.42,177.16,70.82,178.68,72.25Z"/></g><path class="968a8a73-f617-4c98-aad8-e94592bc75b4" d="M93.82,82.23a37.33,37.33,0,0,0-26.3,3.38c-4.12,2.21-7,6.09-7.07,10.44,0,3.5,2,6.76,4.54,9,4.21,3.75,10.18,5.16,16.17,5a34.68,34.68,0,0,0,15.78-4.81c2.93-1.71,5.87-3.92,7.48-6.8a10,10,0,0,0-2-12.57A17.07,17.07,0,0,0,93.82,82.23Z"/><path class="968a8a73-f617-4c98-aad8-e94592bc75b4" d="M134.92,44.76c-7.73-1.5-15.38-.1-23,1.37a13.37,13.37,0,0,0-7.69,4.73c-1.94.7-3.79,1.43-5.5,2.12-5.68,2.3-10.81,4.39-14.1,9.6-4.8,7.64-.27,17.24,7.23,21.24,6.06,3.22,14.09,3.83,21,3.67,14-.32,36.09-6.43,39.5-21.08C155,55.39,145.86,46.89,134.92,44.76Z"/><path class="22f66e08-7b3d-4820-b17b-bb3d5880a0e8" d="M175.18,179.05c1.33-2.5,2.81-3,5.28-4"/><path class="d736319f-350e-4e3d-8940-75149d7e9857" d="M176.48,179.81c1-1.86,2.48-2.54,4.38-3.3a1.55,1.55,0,0,0,1-1.84,1.51,1.51,0,0,0-1.85-1c-2.62,1-4.76,2.1-6.17,4.67-.93,1.7,1.66,3.21,2.59,1.52Z"/><path class="22f66e08-7b3d-4820-b17b-bb3d5880a0e8" d="M260.9,255.85c-1.53,4.15-7.18,6-10.2,4.53-3.39-1.13-6-3.77-8.67-5.66-5.27-4.52-10.92-8.66-16.2-13.19-17-15.45-33.54-32-48.24-49.74-.75-7.54,6-12.82,9.8-18.85a4.07,4.07,0,0,1,2.64-1.13c3.77,1.51,6.78,4.53,9.42,7.92,7.91,10.17,18.09,17.33,27.51,26a34.88,34.88,0,0,0,5.65,4.9c1.51.75,2.64,2.64,3.77,3.77,8.29,6,15.08,13.57,21.11,21.86a22.72,22.72,0,0,0,3.39,4.9,9.79,9.79,0,0,1,2.34,10.37"/><path class="051ff54e-0992-47c4-8601-9ea32598c8ca" d="M259.61,255.09c-4.63,9.67-14.49.15-19.43-3.86-6.61-5.38-13.22-10.62-19.46-16.45-12.11-11.31-23.82-23.08-34.78-35.53-2.32-2.64-6.87-6.35-6.75-10s3.06-7.05,5.17-9.75c1.22-1.57,3.8-6.1,5.75-6,3.36.23,6.9,5.54,8.82,7.91a124.63,124.63,0,0,0,15.89,15.69c5.29,4.54,10.34,9.49,15.76,13.86a154.56,154.56,0,0,1,17.86,16.38,86,86,0,0,1,8.55,11c2.67,4.19,6.47,7.25,4.78,12.77-.56,1.85,2.33,2.64,2.9.79,2.32-7.59-3.74-13.69-8.05-19.31-5.67-7.4-12.33-13.05-19.07-19.36s-14.09-12.6-21.26-18.77c-3.46-3-6.89-6-10.07-9.29-3.47-3.58-6.25-7.91-10-11.19-1.71-1.49-4.23-3.72-6.59-3.63-3.28.12-4.81,3.74-6.53,5.94-3,3.86-9.31,11-6.69,16.39,2,4.1,6.87,8.09,9.9,11.48,3.76,4.2,7.61,8.31,11.53,12.37,7.38,7.64,15,15,22.81,22.26s16.4,14.77,25.29,20.76c5.58,3.75,13,3.86,16.26-3,.83-1.73-1.76-3.26-2.59-1.52Z"/><path class="051ff54e-0992-47c4-8601-9ea32598c8ca" d="M249.3,236.47a23.12,23.12,0,0,0-6.56-3c-7-7.27-15.15-13.07-22.44-20.11-6.72-6.5-13.47-12.81-20.56-18.87-.14-.13-.27-.27-.4-.4-5.2-5.31-13.22-7.38-15.46-4.69-2.64,3.18,0,8.91,5.55,14.6,10.64,10.87,21.27,21.79,32.24,32.43,5.48,5.3,11.8,11.59,18,15.77,9.65,6.48,18.41,6.61,19-.38C259.15,247.54,256,240.91,249.3,236.47Zm-24.64-16.8q-7-7-13.94-14,4,3.66,7.84,7.44c7.2,7,15.37,12.86,22.37,20a8.07,8.07,0,0,0-2.36,0l-1.51-1.39C232.83,227.76,228.74,223.71,224.66,219.67Z"/></g></g></svg>