<svg id="60293793-3e59-4471-8bd3-154d3da36770" data-name="Layer 1" xmlns="http://www.w3.org/2000/svg" viewBox="0 0 300 300"><defs><style>.d4c73492-77f3-44c9-8fce-b28901c40d46{fill:#fff;}.f031c090-0471-4808-aaa3-84d54a94ff7c{fill:#52df84;}.e2941798-6d3d-4241-b1e1-90fb9002188b{fill:#e6e6e6;}.\31 7369349-5e42-40e4-9bf5-cd2a6ecf1ff1{fill:#8b898a;}</style></defs><path class="d4c73492-77f3-44c9-8fce-b28901c40d46" d="M65.22,129.49h.11l-.07,0Z"/><path class="d4c73492-77f3-44c9-8fce-b28901c40d46" d="M206.07,119.89a48,48,0,0,0-9.56-16.12,45.58,45.58,0,0,0-5.13-4.69c-1-.78-1.92-1.55-2.84-2.38-.36-.33-.72-.66-1.06-1-.11-.1-.2-.21-.3-.32a17.89,17.89,0,0,0,.14-10.25c-1.79-5.65-6.71-9-12.13-10.63-1.46-.45-3-.75-4.45-1.09l-1.27-.3c.17-.55.34-1.1.52-1.62,2.28-6.48,2.16-13.62-2-19.32-4.42-6.07-10.85-9.34-18.23-10.17a22.88,22.88,0,0,0-12.37,2.13,18.67,18.67,0,0,0,.81-7.07,18.17,18.17,0,0,0-7-13.26,21.08,21.08,0,0,0-24.65-.36A31.93,31.93,0,0,0,93.6,47.37c-.3,8.48,5.43,14.74,12.47,18.46,1.11.59,2.23,1.14,3.34,1.73.5.26,1,.54,1.49.83l.48.29c0,.15,0,.29.05.41s-.05.28-.08.41c-.16.71-.34,1.41-.5,2.12a38,38,0,0,0-1.08,6.86,17.74,17.74,0,0,0,5,13,24.91,24.91,0,0,0,2,1.88,40.28,40.28,0,0,0-13.51,22.5,23.41,23.41,0,0,0-6.46-2.34c-8.09-1.61-17.08-.13-23.79,4.86a27.3,27.3,0,0,0-8.61,9.73c-.23.47-.46,1-.67,1.5-.43,0-.82.12-1.08.13a34.66,34.66,0,0,0-25,11.67C30.9,149.24,27.64,159,27.14,169.29c-.24,4.82-.05,10.38,1.41,15,2.09,6.59,6.93,10,13.19,12.25,18.24,6.38,38.13,11.38,57.59,9.9,8.22-.63,17.47-1.86,24.67-6.21a22.14,22.14,0,0,0,7.36-2.46c9.72-5.37,10.91-16.53,9.32-26.42-.91-5.65-3.12-10.91-5.33-16.16,9.38,6.48,21.5,8.06,32.64,7.82s22.81-1.46,31.61-8.86C209.36,145.92,210.13,131.18,206.07,119.89Zm-94.5-51v-.06l.63.55C112.26,69.48,112.05,69.41,111.57,68.87ZM114,46.81l-.46-.4,0,0-.06-.08c-.14-.2.06-.13.72.63Zm2.8-5.37c-.83,1.85-1.69,3.72-2.39,5.63l-.2-.11c.14-.5.28-1,.44-1.49.11-.32.23-.63.34-.94l.06-.12c.37-.67.69-1.35,1.09-2,.13-.21.27-.42.4-.64s.1-.15.15-.21l.12-.13Zm50.78,31.13-.82-.48a1.42,1.42,0,0,1,1.05.55Zm14.9,46.11a1.85,1.85,0,0,1,.14.14l.33.4c.17.24.34.47.5.71.6.88,1.16,1.8,1.67,2.73.31.55.73,1.2,1,1.85a1.12,1.12,0,0,1,0,.16A65.75,65.75,0,0,0,182.45,118.68Z"/><path class="d4c73492-77f3-44c9-8fce-b28901c40d46" d="M282.59,259.92c-.42-.29-.85-.56-1.29-.83-1.66-1.08-3.29-2.2-4.89-3.38l-.61-.44-.82-.64c-1-.82-2.05-1.66-3-2.52a111.12,111.12,0,0,1-10.61-10.54c-4.5-5.1-10-8.29-16.94-8.19a69.42,69.42,0,0,0-7.45.59,8.69,8.69,0,0,0-.52-1.17,13.49,13.49,0,0,0,0-2,3.4,3.4,0,0,0-.68-1.84,32.85,32.85,0,0,1,1.19-4.66c1.36-4.06-5.05-5.8-6.4-1.76a39.58,39.58,0,0,0-1.67,7.26,11.65,11.65,0,0,0-2.28,5.16c-5.05.23-10.12.23-15.17,0a44.06,44.06,0,0,0-8.2-.1,12.37,12.37,0,0,0-10.2,8.86c-1,3.62-.19,7.47,1,11.19q.9,5,1.78,10.05c.87,4.93.94,12,4.86,15.55a12.06,12.06,0,0,0,10.18,3.14c.51-.07,1-.16,1.41-.26a10.54,10.54,0,0,0,2.14.25c18.92.26,37.53-3.81,56-7.18l1,.6.81.53c4.52,2.87,11.46,1.09,14-3.66C289,268.7,287.3,263.17,282.59,259.92Z"/><path class="d4c73492-77f3-44c9-8fce-b28901c40d46" d="M237,190.24a11.17,11.17,0,0,0-1-1.93,7.08,7.08,0,0,0-1.73-2.78c-2.47-2.45-6.34-3.06-9.63-3.5a37.9,37.9,0,0,0-11,.15q-1.31.21-2.58.51c-1.25,0-2.49,0-3.73,0a17.64,17.64,0,0,1,1.17-1.42,16.39,16.39,0,0,0,2.55-3.74,6.78,6.78,0,0,0-.68-7.36,40.33,40.33,0,0,1,9-.12c1.8.17,3.3-1.64,3.32-3.32,0-2-1.55-3.08-3.32-3.31a40,40,0,0,0-19.27,2.24c-2.73,1-3.56,5.79,0,6.4,1.27.22,3.89.44,4.75,1.6,1,1.37-1.42,3.35-2.26,4.38a11.73,11.73,0,0,0-2.36,5c-1.85.15-3.71.34-5.56.57-2.7.35-5.39.76-8.06,1.28-1.25.24-2.48.52-3.72.79.27-3.87-3.74-6-7.08-4.14a5.51,5.51,0,0,0-1.63,8.28,6.79,6.79,0,0,0,1.26,1.3c-1.62,11.76-2.73,23.59-3.26,35.46-.2,4.27,6.44,4.26,6.64,0q.63-14,2.27-27.9c.25-2,.59-4.09.92-6.15.86-.1,1.72-.25,2.56-.43a124.93,124.93,0,0,1,12.51-2.06,5.85,5.85,0,0,0,3.61,4.65c2.65,1.08,5.63.31,8.34-.14q4.68-.78,9.29-1.92c2.77-.69,5.53-1.78,8.35-2.25a3.4,3.4,0,0,1,3.23.77,10.37,10.37,0,0,1-.57,2.95,13.56,13.56,0,0,0-.5,5.69,6.17,6.17,0,0,0,2.7,4.17,4.37,4.37,0,0,0,5.74-1.93C239.11,198.87,238.25,193.49,237,190.24Z"/><path class="f031c090-0471-4808-aaa3-84d54a94ff7c" d="M206.81,125.43c-4.8-15.22-19.1-25.82-34.17-29.58A6.43,6.43,0,0,0,165.09,99a15,15,0,0,0-3.76,1.27c-2.88,1.42-4.71,3.89-6.5,6.43-.89.16-1.78.3-2.68.44l-.41.06c-.73.1-1.47.19-2.2.27-4.73.56-9.91,1.18-14.45-.62l-.1,0-.3-.17c-.44-.24-.87-.48-1.3-.75a7.3,7.3,0,0,1-1.77-1.49c-.1-.09-.37-.43-.44-.5-.23-.33-.44-.68-.64-1-.09-.16-.16-.28-.22-.37s0-.1,0-.3-.26-1.65-.18-.66c-.3-3.71-2.95-6.9-6.89-6.9a7.22,7.22,0,0,0-6.76,5.26,6.52,6.52,0,0,0-2.11.74c-6.55,3.83-12.52,10.22-13.87,17.93A19.68,19.68,0,0,0,109.33,139a16.55,16.55,0,0,0,11.94,2.21,15.33,15.33,0,0,0,2.81-.9l.15.31a6.62,6.62,0,0,0,1.93,2.1,24.56,24.56,0,0,0,2.14,3.4,36.44,36.44,0,0,0,8.75,8.37c6.64,4.56,14.65,6.44,22.56,7.19a90.74,90.74,0,0,0,25.33-1c7.8-1.51,15.11-5.59,19.63-12.24S209.16,132.87,206.81,125.43Z"/><path class="e2941798-6d3d-4241-b1e1-90fb9002188b" d="M136.44,167.51c-.53-3.9-2.28-7.33-4-10.81l-7.19-14.16c-2.74-5.41-9.57-8.07-15.26-7.31a15,15,0,0,0-4.64,1.39c2.49-10.66-8.65-20.91-19.16-17.72-9.94,3-15.76,12.25-15.67,22a17.45,17.45,0,0,0-5.1-1,115.77,115.77,0,0,0-27.94,1.65,19.65,19.65,0,0,0-15.09,14.6c-1.25,4.9-.44,10.19.06,15.13,1.13,11.07,3.34,22.54,13.73,28.79a23.08,23.08,0,0,0,9.09,3.07,28.08,28.08,0,0,0,13.21,8.16c9.91,2.8,21.39.75,31.33-.83a69,69,0,0,0,25.4-8.93c7.63-4.72,14.85-11.5,18.66-19.75C136,177,137.14,172.76,136.44,167.51Z"/><path class="e2941798-6d3d-4241-b1e1-90fb9002188b" d="M242.47,230a17.4,17.4,0,0,0-.8-2.23c-.06-.11-.1-.23-.17-.34-1.86-2.81-4.74-4.48-6.79-7.2a15.15,15.15,0,0,0-2.67-1.06c-.4.77-.81,1.53-1.27,2.3-2.56,4.23-6.7,8.2-8.36,12.91-1.06,3-.44,6.84,1.2,10.21a16.47,16.47,0,0,0,4,.71c5.28.24,11.07-1.95,13.51-6.87A14.82,14.82,0,0,0,242.47,230Z"/><path class="e2941798-6d3d-4241-b1e1-90fb9002188b" d="M228.5,179.17a8.43,8.43,0,0,1-1.34-.37,19.51,19.51,0,0,1-7.59.52,8.4,8.4,0,0,1-7-10.17,45.1,45.1,0,0,0-7,0c2.77,4.74.46,12.58-6.81,12.94-6.53.33-13.18-.46-19.34,2.24-3.53,1.54-6.15,4.17-8.5,7.09-.65,4.83.51,10.52.8,15.12.38,6.11.71,12.22.76,18.35a16,16,0,0,0,2.21,3q3.5-.19,7-.05c1.51-5.81,2.93-11.63,3.91-17.57a9.67,9.67,0,0,1,.45-1.67,21.4,21.4,0,0,1-1.11-5c-.46-6.21,7.36-10.33,12.41-7.13l1.74,1.11c1.36-1.59,2.63-3.26,3.83-4.94.34-.48.67-1,1-1.45,1.65,1,3.26,2,4.84,3.09l.48.4c.67.57,1.31,1.18,2,1.78a9,9,0,0,1,6.89-3.71,10.78,10.78,0,0,1,11.3,11.1,14.12,14.12,0,0,1-.21,2.17,15.16,15.16,0,0,0,8.55-4.28,19,19,0,0,0,2.2-2.91C238.07,190.93,236,180.66,228.5,179.17Z"/><path class="e2941798-6d3d-4241-b1e1-90fb9002188b" d="M121.89,176.45l.67-.95c.4-.65.44-.9-.77,1.06l0,0Z"/><path class="17369349-5e42-40e4-9bf5-cd2a6ecf1ff1" d="M189,184l-8.16.29a4.86,4.86,0,0,0,0,9.71l8.16-.3a5,5,0,0,0,4.85-4.85A4.89,4.89,0,0,0,189,184Z"/><path class="17369349-5e42-40e4-9bf5-cd2a6ecf1ff1" d="M212.76,183.62c-2.09-1.1-5.57-.75-6.64,1.74l-.07.15a4.81,4.81,0,0,0-6-1c-2.08,1.21-3.3,4.51-1.74,6.63a9.25,9.25,0,0,0,8.34,4.1c3.18-.29,6.52-1.9,7.85-5C215.49,187.93,215.27,184.94,212.76,183.62Z"/><path class="17369349-5e42-40e4-9bf5-cd2a6ecf1ff1" d="M228.05,185.36a5.23,5.23,0,0,0-5.65-.94,4.84,4.84,0,0,0-5.24,1.06,4.94,4.94,0,0,0,0,6.86c2.83,2.91,8.15,3,10.89-.12a5.17,5.17,0,0,0,1.42-3.43A5,5,0,0,0,228.05,185.36Z"/><path class="17369349-5e42-40e4-9bf5-cd2a6ecf1ff1" d="M184,200.06c-.28-2.61-2-4.85-4.85-4.85-2.4,0-5.13,2.22-4.85,4.85a133.23,133.23,0,0,1,.49,22.51c-.4,6.23,9.31,6.21,9.7,0A132.2,132.2,0,0,0,184,200.06Z"/><path class="17369349-5e42-40e4-9bf5-cd2a6ecf1ff1" d="M135.9,165c-.45-3.27-2.29-6.53-4.24-9.16-.31-.42-.64-.84-1-1.25a5,5,0,0,0,.68-3.93c-1-4.24-4.78-6-8.68-6.46a7.55,7.55,0,0,0-2.49-2.41c-3-1.72-6.43-1.16-9.47,0a4.11,4.11,0,0,0-.82.39c-.39-.34-.77-.7-1.13-1.08a5.81,5.81,0,0,0-1.4-1.64,15.4,15.4,0,0,1-3-9.78c.25-6.24-9.45-6.23-9.7,0a24.54,24.54,0,0,0,4.61,15.11,6.47,6.47,0,0,0,1.71,3.56,8.64,8.64,0,0,0,.69.66A48.93,48.93,0,0,0,119,168.83c2.84,1.9,6.69,4.5,10.2,4.55C133.8,173.44,136.49,169.31,135.9,165Z"/><g id="58a3022b-c5f9-44aa-a15b-6fd4e50f879c" data-name="Form 44"><path d="M134,246.85a6.07,6.07,0,0,1,.2-4.64,4.59,4.59,0,0,1,.26,5"/><path d="M164.33,229.49a2.06,2.06,0,0,1-1.33-.25,1.12,1.12,0,0,1-.46-.77c2.1-.1,4.14-.26,6.23-.36a9.57,9.57,0,0,1-4.44,1.38"/><path d="M188.08,229a2.88,2.88,0,0,1-1.74-1.48l5.92-.15c.52.81-.25,2-1.22,2.19a4.66,4.66,0,0,1-2.86-.51"/><path d="M42.43,230.87a7.69,7.69,0,0,1-6.84,0,6.57,6.57,0,0,1,6.84,0"/><path d="M196,228c2.3,0,4.6-.05,6.9-.1a11.71,11.71,0,0,1-8.07,1c-.21-.56.61-.82,1.17-.87"/><path d="M158.25,96.46c-.51,1.33-2.7,1-3.37-.31s-.3-2.81,0-4.24c.46-1.43,2.86-1.22,3.63.1s.3,3-.26,4.45"/><path d="M177.25,87.11a3.5,3.5,0,0,1,1,4.09,2.76,2.76,0,0,1-3.83,1.22,6.32,6.32,0,0,1-.41-4c.46-1.33,2.2-2.2,3.22-1.33"/><path d="M20.73,182.71c-.87.51-1.69,1-2.56,1.43-.61.36-1.38.72-2,.31a5.41,5.41,0,0,1,5.46-4.5,1.12,1.12,0,0,1,.52,1.59,3.23,3.23,0,0,1-1.43,1.17"/><path d="M262,219h-6.61c-1.38.05-3.27-.46-3.12-1.84l11.69.46c.26.92-1.07,1.38-2,1.38"/><path d="M160.45,228.83A42.25,42.25,0,0,1,147.78,230a1.67,1.67,0,0,1-.25-1.28,61.33,61.33,0,0,1,12.92.16"/><path d="M225.71,239.3a12.87,12.87,0,0,0,11.8-.41,6.12,6.12,0,0,1-11.8.41"/><path d="M217.9,219.69l-23.39.15c-1,0-2.09-.05-2.65-.82a.74.74,0,0,1-.16-.71c.16-.56.92-.56,1.43-.26s1,.67,1.53.61a141.26,141.26,0,0,1,27.43-.66c-.67,1.43-2.61,1.69-4.19,1.69"/><path d="M222.24,193.18c-2.25.46-4.44.92-6.64,1.33a3,3,0,0,1,1.28-3.17,7.18,7.18,0,0,1,3.37-1.12c2.35-.36,4.9-.36,6.89.87s3.22,4,2,6.07c-.62,1-1.79,2.15-1.08,3.12a2.55,2.55,0,0,0,.87.56,29,29,0,0,0,9.5,2.2c.46,1.53-1.48,2.55-3,2.91a30.23,30.23,0,0,1-7.36,1,14.36,14.36,0,0,1-3.37-.51,18.73,18.73,0,0,0-.05-12,1.7,1.7,0,0,0-2.4-1.33"/><path d="M40.74,171.37c3.73-.86,7.66-.86,11.29-2.09a33.11,33.11,0,0,0,5.67-2.71c2-1.17,4-2.29,6-3.42a18.85,18.85,0,0,1,5.92-2.5,6.49,6.49,0,0,1,6,1.63,46.05,46.05,0,0,0-14.29,6.08,38.55,38.55,0,0,1-18.49,6.08c-3.17.15-6.13,1.63-8.89,3.22a3.62,3.62,0,0,1-2.24.71c-.77-.1-1.49-1-1.08-1.68a23.84,23.84,0,0,1,10.11-5.32"/><path d="M197,95.13c.72,2.71,2,5.87,4.85,6.13a5.63,5.63,0,0,0,3.32-1c2.45-1.38,4.75-3.73,4.8-6.54a11.27,11.27,0,0,1,4.91-9,3.84,3.84,0,0,1,5.61,1.07A8.34,8.34,0,0,1,222,93.09a8.52,8.52,0,0,1-5.06,5.51c-1.58.56-3.27.62-4.9,1a5.59,5.59,0,0,0-3.93,2.86,11,11,0,0,1-9.15.87c-1.17-.41-2.45-1.63-1.83-2.7A7.09,7.09,0,0,1,193.9,92,16.69,16.69,0,0,1,197,95.13M218.87,92a4.16,4.16,0,0,0-.76-4.34c-1.18-1.07-3.43-.76-3.89.72a14,14,0,0,1-3.52,7.45A6.52,6.52,0,0,0,218.87,92"/><path d="M195.84,183.68c-.82-.66.25-1.94,1.22-2.4a42.86,42.86,0,0,1,8.94-2.91,7,7,0,0,0-.25-5,8,8,0,0,1-10.42-2.76,6.33,6.33,0,0,1,2.4-4.49,11,11,0,0,1,3.68-1.74,47.7,47.7,0,0,1,16.13-1.94,8,8,0,0,1,3.83.87,3.18,3.18,0,0,1,1.74,3.32c-2-1.79-5.06-1.74-7.76-1.48a125.33,125.33,0,0,0-15,2.29c-1.27.26-2.91,1.38-2.24,2.46,1.38,1.12,3.32,1,5.05.81,4.91-.51,9.81-1,14.66-1.48,2.2-.2,4.49-.51,6.08-2,1.43.82.41,3.06-1,4a10.07,10.07,0,0,1-4.14,1.59c-2.2.3-5.16.3-5.77,2.45-.2.71-.05,1.48-.31,2.19s-1.12,1.33-1.68.82c.1,1.58-1.74,2.5-3.22,3a85.9,85.9,0,0,1-10.72,2.5,1.53,1.53,0,0,1-1.28-.1"/><path d="M96.56,115c-6.28-1.23-13.12-1.54-18.79,1.43s-9.65,10.06-7.3,16c-6.59-3.73-15-1.28-21.5,2.66-11.9,7.25-20.79,20-21.55,33.91s7.71,28.34,20.93,32.83c4.86,1.69,10.12,2,14.92,3.88C50.6,209,36.45,202.58,29.36,191.6S21.9,166,27.16,154a46.25,46.25,0,0,1,35-26.71c1.59-.25,3.53-.76,3.78-2.35.56-4.29,3.63-7.91,7.3-10.16a34.48,34.48,0,0,1,12.26-3.88c4.34-.71,10.11-.15,11.08,4.09"/><path d="M182.15,174.29c.31,1.68-2.09,2.34-3.83,2.24a243.17,243.17,0,0,1-34.93-4.44,30.09,30.09,0,0,1-26.14,35.19c-4,.51-9.61,1.53-9.55,5.61q.3,12.18.61,24.36c0,1.89-.56,4.45-2.45,4.34a94.06,94.06,0,0,1-1.43-28.8c.1-1.17-1.64-1.43-2.81-1.22a49.4,49.4,0,0,1-25.33-2.71c-3.47-1.33-7.41.51-9.86,3.22s-3.83,6.28-5.56,9.55a46,46,0,0,1-12.06,14.5c-.56-2.81,1.18-5.57,2.81-8,4.14-6,8.28-12,12.36-18.08,1.33-1.94,2-5.51-.36-5.77l22.78,3.83a45.81,45.81,0,0,0,10.26,1,50.19,50.19,0,0,0,9.5-1.69c7.51-1.84,15.12-3.78,21.61-7.86s11.84-10.93,12.15-18.64c.25-7.2-3.78-13.79-7.66-19.87,1.07-1.79,3.93-.87,5.11.77s1.58,3.88,3,5.36c1.58,1.68,4,2.09,6.28,2.35,11.85,1.58,23.7,3.11,35.49,4.7"/><path d="M180.16,208.3a23.51,23.51,0,0,0-9.5,2.6,28.7,28.7,0,0,0,.41-18.84c-1.68-5.11,1.89-11.29,7.15-12.46-.56,3.47-3.93,6.18-4,9.7a15.45,15.45,0,0,0,1.12,4.95,19.66,19.66,0,0,1-.36,12.11c1.59-.05,3.22-.11,4.8-.11-1.17-3.11,1.43-6.23,3.78-8.52-4.39-1.59-6.08-7.72-3.47-11.55s8.48-4.69,12.36-2.19a12.15,12.15,0,0,1-8.79,1.58,7.77,7.77,0,0,0-.35,9.76,44.72,44.72,0,0,0,10.67-7c-1.43,3.37,2.45,6.84,6.13,7.2s7.3-1.07,10.93-.66c-3.32-3.93-1.74-10.42,2.24-13.64s9.5-3.88,14.61-3.67c4.65.25,9.7,1.32,12.66,4.9,3.37,4.13,3,10.06,2.35,15.32-.3,2.71-2.14,6.33-4.59,5.11a94.69,94.69,0,0,0,.41-13.69,10,10,0,0,0-1.28-5.16c-1.79-2.45-5.26-2.76-8.27-2.45s-6.08,1.17-8.94.15-6.28,1.53-7.15,4.65,0,6.33,1,9.4c-6.38,4.95-16.55,4.13-22-1.79-2.3,1.53-4.7,3.17-6.23,5.57s-2,5.61-.31,7.86c.46.66,1.13,1.43.77,2.15a27.68,27.68,0,0,0-3,17.46c.76.15,1.48.36,2.24.51-.86,2-4.08,1.58-5.31-.25s-1-4.14-.66-6.29.56-4.39.82-6.58c-1.43-1.59-4.35-.51-5.26,1.43s-.52,4.24-.06,6.38.87,4.44-.05,6.38a11.39,11.39,0,0,1-6,.11c.87-.36,1.73-.72,2.65-1.08a45.21,45.21,0,0,1,1.23-16.54,39.15,39.15,0,0,0,11.49-.26c.25-1.84-2.3-2.7-4.19-2.6"/><path d="M241.34,229.54c1.07,1.58,2.71,3.37,4.55,2.81,2.86-.77,5.72,1.07,8.07,2.86a316.09,316.09,0,0,1,37.53,33.55c1.48,1.53,2.66,4.45.77,5.26q-17.4-15.93-34.68-31.92c-2.86-2.55-5.77-5.26-9.45-6.38s-8.27-.36-10.31,2.91c-.36-2.7-4.19-2.86-6.85-2.3a146.88,146.88,0,0,1-36.05,3c-2.25-.11-2.66,3.16-2.3,5.36q3,16.62,5.87,33.24c.52,2.71,1.95,6.24,4.7,5.83q43.67-6,87.69-8.43c2.3-.1,5.62.82,5.05,3.06q-46.19,2.31-92,8.89a10.06,10.06,0,0,1-5.06-.2c-2.55-1.13-3.52-4.19-4.19-7a340.28,340.28,0,0,1-7.09-41.82,120.81,120.81,0,0,1,32.63-3.27c2.76.15,4.19-3.22,4.9-5.88s2.5-6,5.26-5.41c-1.63,3.73-3.22,7.46-4.8,11.13a15.72,15.72,0,0,1,8.27-.4c3.22.71,5.21-4,3.89-7s-4.35-4.9-6.23-7.61-2.15-7.25.91-8.48a1.67,1.67,0,0,1,1-.15c.82.2,1.08,1.17,1.23,1.94a48.37,48.37,0,0,0,6.74,16.34"/><path d="M85.84,81.49c2.81-2.29.76-6.94-2.1-9.19s-6.58-4-7.45-7.56c-.67-2.6-3.93-3.83-6.59-3.21S65,64.08,63,65.92a5,5,0,0,0-1.84,2.76c-.41,3,4,4,6.79,2.91s5.67-3.17,8.43-2a16.86,16.86,0,0,1-12.66,6.07,7.44,7.44,0,0,1-5-1.48c-2.3-1.89-2.35-5.62-.82-8.22s4.19-4.24,6.85-5.72c3.11-1.69,6.89-3.22,10.16-1.79,4.34,1.89,5.36,7.71,9.19,10.47,2.4,1.74,5.93,2.35,7,5.11S90,79.45,88.7,82s-.77,6.79,2.09,6.84c7,.05,13.43-6.13,13.64-13.08,0-3.21-.92-6.74.66-9.49-11-2.81-17.57-16-14.66-27s13.79-18.95,25.13-20.12c5.52-.56,11.49.36,15.78,4,5.11,4.29,6.79,11.39,8,18a27.41,27.41,0,0,1,30.74,8.27c3.27,4.19,5.21,10.27,2.5,14.86-1.48,2.56.56,5.93,3.17,7.46s5.67,1.94,8.22,3.52c5.47,3.32,6.84,10.52,7.71,16.91-2.7.3-3.73,4.18-2.24,6.53s4.23,3.43,6.94,4.19c12.87,9.6,19.36,28.4,11.9,42.64-4.34,8.28-12.61,14-21.6,16.65s-18.54,2.45-27.73,1c-10.37-1.58-21.09-5.1-27.78-13.17-3.37-4-7-9.71-12.11-8.68-9.6,1.89-18.84-7.31-19.76-17.06s4.39-19.15,11.24-26.15c2.6-2.65,7-5.11,9.6-2.5a32.55,32.55,0,0,0-15.32,17.77c-1.79,5.16-2.2,11.08-.06,16.14s7.26,9,12.77,8.88c2.86,0,6.28-2.86,4.7-5.2a20,20,0,0,1-3.17-8c-.3-1.84-.2-3.88,1.13-5.11s4.18-.41,4,1.38c-1.23,11.44,5.06,22.83,14.25,29.62s21,9.45,32.53,9.4c12.51,0,26.25-4,32.78-14.66,5.78-9.35,4.35-22.06-1.83-31.15s-16.4-14.86-27.07-17.72c.82-2.71,5-1,7.76-1.48,2.1-.36,3.63-2.3,4.29-4.34a11,11,0,0,0-19.35-9.86,11.23,11.23,0,0,1,3.52-8.17,14.77,14.77,0,0,0-7.3-12.67c-3.68-2-8-2.45-12.21-2.09-13.63,1.23-27,12.15-27.06,25.84a30.54,30.54,0,0,0,3.27,13.07,21.33,21.33,0,0,0,5.66,7.92c5.42,4.34,13.54,3.88,19.72.66S164,97.22,168.42,91.86C166.88,102.64,157,111.57,146.15,112s-21.4-7.61-23.85-18.18c-.87-3.93-.82-8.17-2.65-11.74s-6.9-6-10-3.32a5.44,5.44,0,0,1,5.51-4,5.38,5.38,0,0,1,4.85,4.7c2.51.46,3.32-3.11,3.68-5.56,1.38-8.48,10.06-13.59,18.13-16.45,4.55-1.63,9.35-3,14.15-2.76s9.8,2.25,12.66,6.18c2.2-3.47-.41-8-3.32-10.87-4.08-4-9.19-7.2-14.86-7.77S138.64,44.06,135.88,49c-1.32,2.34-2.75,5.71-5.41,5.26.72-5.26,3.58-10.07,3.83-15.33a16.31,16.31,0,0,0-12.51-16.18,21.63,21.63,0,0,0-11.39,1.12C104.32,26,98.76,30.22,96,36.09A20.34,20.34,0,0,0,98.3,56.93,20.42,20.42,0,0,0,118,64.08a10.28,10.28,0,0,0-9,5.67,14,14,0,0,0-.36,10.93,17,17,0,0,0,10.37,10c-2.45,1.43-5.62.76-7.91-.82s-3.94-3.93-5.52-6.28c-2.4,2.81-4.9,5.72-8.17,7.5s-7.51,2.15-10.57,0-3.83-7.2-1-9.55"/></g></svg>