<svg id="598a59c8-5ae1-4fb1-a55c-d5e4e4a6944c" data-name="Layer 1" xmlns="http://www.w3.org/2000/svg" viewBox="0 0 300 300"><defs><style>.d86ba225-4c68-4330-95c0-c048b2f89041{fill:#fff;}.\37 f1c18eb-8358-49fb-8bf3-d55ef837128d{fill:#e8d1a1;}.\32 72ce5ad-c233-4403-b309-f90a0c4317ff{fill:#e6e6e6;}.\38 36d31ed-9cee-42dd-a4d9-8d7df2969be0{fill:#8b898a;}</style></defs><path class="d86ba225-4c68-4330-95c0-c048b2f89041" d="M195.79,204.52c-1.28-4.65-6.11-5.36-9.36-3.53-5-2.2-11.74-2.24-16.33-2.31-3.49,0-7,0-10.46,0a13.71,13.71,0,0,0,4.31-1.58,16.05,16.05,0,0,0,4.58-1,22.66,22.66,0,0,0,7.75-3.42c8.35-5.84,12-19.07,3.75-26.7a5.37,5.37,0,0,0-.7-.56,40.82,40.82,0,0,0,4.91-2.58c5.11-3.21,8.91-8.23,9.16-14.43a11.52,11.52,0,0,0-12.16-12.26l-.8.05a61.07,61.07,0,0,0-7-3.41c.27-.91.53-1.84.76-2.77q2.94-8.41,5.9-16.84a15.15,15.15,0,0,0,9.82-16.08c-1-9.06-6.9-16.59-14.26-21.61-15.75-10.75-37-7.93-53.81-1.23a32.83,32.83,0,0,0-13,8.9,76,76,0,0,0-8.57,12.8,6.31,6.31,0,1,0,10.9,6.37c1.11-2,2.22-3.9,3.42-5.8a15.87,15.87,0,0,0-.76,3.11,10.28,10.28,0,0,0-1.38,3.38c-1.35,6.4,3.12,12.46,9.21,14.16.6.16,1.19.28,1.79.38a17.33,17.33,0,0,0-.13,3.3,38.31,38.31,0,0,0,2.38,11.32,5.26,5.26,0,0,0-.8,1.84,67.37,67.37,0,0,0-1.23,7.84,17.29,17.29,0,0,0-3.61-2.55c-5.38-2.75-10.7-.38-14.18,4.05-5.79,7.4-10.67,16.33-8.3,26a17.51,17.51,0,0,0,2.67,5.9c.25.35.52.69.78,1a15.84,15.84,0,0,0-2.22,3.26,17.62,17.62,0,0,0-1.92,6.77,24.09,24.09,0,0,0,8.43,19.94c-3.57-.53-7.14-1.06-10.69-1.65a17.61,17.61,0,0,1-5.39-1.48l-.35-.2c-.27-.24-.52-.49-.76-.75a3.14,3.14,0,0,1-.23-.29c-.28-.45-.53-.9-.77-1.37-.06-.14-.18-.4-.2-.48-.13-.4-.27-.8-.38-1.21a27.91,27.91,0,0,1-.64-2.85c0-.08-.08-.51-.12-.78s-.07-.71-.08-.79c-.12-1.19-.2-2.39-.28-3.59q-.54-7.8-.93-15.62-1.56-31-.81-62.13.44-17.67,1.6-35.29c.22-3.41-3.06-6.32-6.32-6.32a6.65,6.65,0,0,0-1,.09,26,26,0,0,0-10.28.25,6.37,6.37,0,0,0-4.41,7.77,7,7,0,0,0,1.1,2.1c-3,3.74-6.27,7.19-9.52,10.92C49.17,99.13,44,106.09,38.73,113a4.72,4.72,0,0,0-.91,2.54,6.4,6.4,0,0,0-1.56,8.1c1.65,2.81,5.8,4.17,8.65,2.26a101.53,101.53,0,0,0,15-12.22c-.25,10.65.72,21.35,1.73,32a532.18,532.18,0,0,1,2,53.72c0,2-.2,4.17-.14,6.23l-1,.28-14.92,2.83c-3,.58-5,4.06-4.53,6.93a6.31,6.31,0,0,0,6.21,5.48l31.12-.27,15.11-.13c5.38-.05,10.4-.17,15.4-2.38,3.07-1.37,3.72-5.43,2.4-8.37a14.29,14.29,0,0,0,2.92.18,6.57,6.57,0,0,0-1.33,5.82c1,3.6,4.39,4.95,7.77,4.42,1.33-.21,2.66-.4,4-.58,5.65-.39,11.43.87,17,1.87a189,189,0,0,0,23.47,2.78c3.81.2,7.63.27,11.44.21s8.36.19,12-1.6C197.57,219.6,197.62,211.17,195.79,204.52ZM76.18,208.31c0-.48.06-1,.07-1.46a13.65,13.65,0,0,0,.83,1.45ZM157,198.72l-3.54.06.63-1.08A7.87,7.87,0,0,0,157,198.72Zm-19.91-1q1-.3,2-.51c-.22.27-.49.57-.81,1l-.13.15a6.43,6.43,0,0,1-1.42-.27Zm-11.89,8.86,1.14.7-.59.08c-.56,0-1.11.08-1.67.14A12.76,12.76,0,0,0,125.19,206.57Z"/><path class="d86ba225-4c68-4330-95c0-c048b2f89041" d="M278.6,168.61a69.74,69.74,0,0,0-10.41-23.47c-2.6-3.74-5.56-7.46-9.68-9.6a16,16,0,0,0-14.42-.32,5,5,0,0,0-2.46,2.54l-.87.14c4-7.36,7.65-14.92,11.89-22.13a58.49,58.49,0,0,1,9.94-13.19c4.23-4.06,9.36-7,12.13-12.46a6.46,6.46,0,0,0-2.26-8.64,6.68,6.68,0,0,0-6.42,0Q237,81,207.89,79.8a6.24,6.24,0,0,0-5.8,3.9,7.89,7.89,0,0,0-.57.7c-3,4.16-1.7,10,1.55,13.55,3.48,3.83,8.74,4.41,13.6,4.64l18.29.86L219.51,125l-10.68,14.88c-.46.65-.9,1.29-1.31,2a5.19,5.19,0,0,0-3.69.86,7.25,7.25,0,0,0-3.25,7.85,11.83,11.83,0,0,0,3.16,5.08,27.33,27.33,0,0,0,7.46,5.75c2.92,1.55,7,.83,8.64-2.26a4.78,4.78,0,0,0,.28-.61,17.32,17.32,0,0,0,6.4-2.31,6.86,6.86,0,0,0,3.09-.8l.72-.37a6.64,6.64,0,0,0,2.81.72,9.52,9.52,0,0,1,3.54.69,5.88,5.88,0,0,1,1.11.48c.64.32,1.26.68,1.87,1.06a25.43,25.43,0,0,1,6.07,5.88,83.39,83.39,0,0,1,4.68,7.24c1.55,2.57,2.39,4.1,1.8,7.09a30.82,30.82,0,0,1-2.65,8.05,19,19,0,0,1-4.83,6,35.49,35.49,0,0,1-6.36,4.11c-2.74,1.45-5.59,2.69-8.44,3.93a4.28,4.28,0,0,0-1.47,1c-.89-.33-1.77-.68-2.65-1-5.75-2.35-11.11-3.37-17-.83a5.32,5.32,0,0,0-2.93,4,6.44,6.44,0,0,0-.5,7.09c3.58,6.13,10.17,9.28,16.83,11a49.37,49.37,0,0,0,20.21.86,34.44,34.44,0,0,0,17.85-8.78,35.38,35.38,0,0,0,6.66-8.71,30.84,30.84,0,0,0,9.78-9.87C281.43,187,280.64,177.31,278.6,168.61Zm-26.43-16.53a8.87,8.87,0,0,1,2,2.19C253.51,153.51,252.86,152.78,252.17,152.08Z"/><path class="7f1c18eb-8358-49fb-8bf3-d55ef837128d" d="M184.18,134.39a29.35,29.35,0,0,0-8.74.67,22.2,22.2,0,0,0-6.87-.41c-8,.7-15.29,4.45-21.51,9.36a14.91,14.91,0,0,1-1.55.28,11.45,11.45,0,0,1-1.29.08c-.44-.29-.84-.55-1.13-.7L132.31,138a6.56,6.56,0,0,0-3.76-.72,5.64,5.64,0,0,0-.93-.08,6.15,6.15,0,0,0-6.09,6.09c.22,10.86,1.9,24,13.05,29.22,2.75,1.28,5.94,1,7.86-1.57a6.34,6.34,0,0,0,1.18-2.81c5.57,4.51,14.6,3.16,21.18,1.81a49.45,49.45,0,0,0,22.12-10.56,21.12,21.12,0,0,0,3.23-3.53,14.06,14.06,0,0,0,4.74-9.24C195.46,140,190.53,135,184.18,134.39Z"/><path class="272ce5ad-c233-4403-b309-f90a0c4317ff" d="M107.69,213.43a15.54,15.54,0,0,0-4-9.57c-1.7-2.11-3.64-4-5.49-6-.42-.45-.83-.9-1.23-1.36s-.46-.51-.57-.61l0,0a32,32,0,0,1-1.31-5.36l-.06-.49c-.43-3.71-1.23-6.83-4-9.57a13.52,13.52,0,0,0-19.14,0c-2.27,2.47-4.37,6.08-4,9.57.81,7,1.63,14,5.56,20,3.15,4.83,7.46,8.5,11.06,12.93,2,2.53,6.46,4,9.57,4a13.77,13.77,0,0,0,9.57-4C106.09,220.42,107.85,217,107.69,213.43ZM96.07,195.2c-.35-.78-.64-1.53-.76-1.82C95.56,194,95.82,194.59,96.07,195.2Z"/><path class="272ce5ad-c233-4403-b309-f90a0c4317ff" d="M192.32,210.13A13.67,13.67,0,0,0,186.1,202l-3.23-1.37a13.66,13.66,0,0,0-6.78-.09l-.35-.35a14.24,14.24,0,0,0-4-2.63,12.23,12.23,0,0,0,1.47-10.4,15,15,0,0,0-8.32-9.08c.33-6.09-3.92-12.49-9.94-13.86a13.48,13.48,0,0,0-12,2.65,40.49,40.49,0,0,1-5.05-1.47A48.21,48.21,0,0,1,132,162c-.49-.45-1-.88-1.49-1.34a39.8,39.8,0,0,1-3.35-3.64c-2.08-2.53-6.45-4-9.58-4a13.77,13.77,0,0,0-9.57,4,13.62,13.62,0,0,0-4,9.57,15.47,15.47,0,0,0,4,9.58,49.86,49.86,0,0,0,17.56,13.32,14.68,14.68,0,0,0,.68,4.94c2.74,8.5,10.53,11.15,18.5,11.74a33.67,33.67,0,0,0-.67,4.28c-.4,3.18,1.81,7.41,4,9.57a13.75,13.75,0,0,0,9.57,4,16.3,16.3,0,0,0,5.33-1.1l1.83.26a11.25,11.25,0,0,0,3.46,2.89l3.23,1.36a13.54,13.54,0,0,0,7.2,0l4.16-.64a15.15,15.15,0,0,0,8.09-6.22,15.09,15.09,0,0,0,1.36-10.43ZM150,196.79c-.43.52-.35.47.25-.17a1.31,1.31,0,0,1,.12-.11l.32-.22C148.78,198.2,149.19,197.45,150,196.79Z"/><path class="272ce5ad-c233-4403-b309-f90a0c4317ff" d="M255.59,198.92a13.8,13.8,0,0,0-18.52-4.86c-.26.15-.53.29-.8.43-.75.24-1.51.44-2.27.61a14.13,14.13,0,0,0-9,3.91,13.54,13.54,0,0,0,0,19.14c2.53,2.32,6,4.24,9.57,4a37.75,37.75,0,0,0,16.12-4.68C256.9,214,259.51,205,255.59,198.92Z"/><path class="272ce5ad-c233-4403-b309-f90a0c4317ff" d="M270,173.7a75.84,75.84,0,0,0-5.65-15.88,36.14,36.14,0,0,0-12.06-13.28c-4.38-3-10.7-2.24-15,.88q6.88-8.49,12.94-17.61c3.91-5.91,1.36-15.23-4.86-18.52-6.79-3.58-14.34-1.46-18.52,4.86-2.32,3.51-4.77,6.92-7.28,10.3l-.16.21-.29.37c-.52.66-1.05,1.32-1.58,2-1.41,1.74-2.86,3.46-4.32,5.15a14.36,14.36,0,0,0-4,9.57,13.77,13.77,0,0,0,4,9.57c5.08,4.67,14.19,5.72,19.14,0L233.4,150c-3.12,6.58-1,13.56,4.91,17.71l.32.34c.23.23.45.47.67.71a39.23,39.23,0,0,1,2,3.57c1,2.79,1.79,5.66,2.54,8.54,1.77,6.86,9.76,11.69,16.65,9.46C267.56,188.06,271.86,181,270,173.7Z"/><path class="272ce5ad-c233-4403-b309-f90a0c4317ff" d="M81.89,97.81a13.81,13.81,0,0,0-8.09-6.22c-6.59-1.5-15.35,2-16.66,9.45a50.42,50.42,0,0,1-2.91,10.23c-1.23,3-.22,7.73,1.36,10.43a13.81,13.81,0,0,0,8.09,6.22c3.47.79,7.36.62,10.43-1.36s4.83-4.64,6.22-8.09a50,50,0,0,0,2.92-10.23C83.89,104.57,83.83,101.13,81.89,97.81Z"/><path class="836d31ed-9cee-42dd-a4d9-8d7df2969be0" d="M69.64,119.88a3.76,3.76,0,0,0-1.7-3.37,4.07,4.07,0,0,0-1.24-3,4.38,4.38,0,0,0-6.06,0,43.09,43.09,0,0,1-6,4.66,4.37,4.37,0,0,0-1.54,5.87c1.2,1.86,3.87,2.86,5.87,1.54.51-.34,1-.69,1.51-1-.71,6.23-1.35,12.46-1.66,18.72a229.23,229.23,0,0,0,.3,23.15,219.66,219.66,0,0,1,.4,23,75.71,75.71,0,0,1-1.31,10.83c-.44,2.17-.8,5-3.19,5.74-3.35,1.1-6.68,1.07-9.84,2.93A17.8,17.8,0,0,0,38,217c-.91,2.13-.64,4.6,1.54,5.87,1.8,1,5,.6,5.86-1.54a10.16,10.16,0,0,1,5.15-5.61c3-1.33,6.45-1,9.44-2.6,6.43-3.44,7.07-12.22,7.77-18.63,1.72-15.73-.86-31.51-.45-47.27C67.53,138.09,68.58,129,69.64,119.88Z"/><path class="836d31ed-9cee-42dd-a4d9-8d7df2969be0" d="M142.26,88c-2.29.35-3.55,3.23-3,5.28.67,2.44,3,3.34,5.27,3a35.76,35.76,0,0,1,5.17-.37c.85,0,1.69,0,2.54.06l1.1.08a4,4,0,0,0,2.2,1.5c2.08.57,4.85-.71,5.27-3C162.56,85.17,147.65,87.22,142.26,88Z"/><path class="836d31ed-9cee-42dd-a4d9-8d7df2969be0" d="M113.85,113.84a4.37,4.37,0,0,0-6.07,0l-6.22,6.23a4.29,4.29,0,0,0,6.06,6.06l6.23-6.23A4.35,4.35,0,0,0,113.85,113.84Z"/><path class="836d31ed-9cee-42dd-a4d9-8d7df2969be0" d="M191.45,215.14c-10.34-.43-20.8.22-31.15.42-5.51.11-5.52,8.68,0,8.57,10.35-.2,20.81-.85,31.15-.41C197,224,197,215.38,191.45,215.14Z"/><path class="836d31ed-9cee-42dd-a4d9-8d7df2969be0" d="M256.8,173.36a4.41,4.41,0,0,0-5.87-1.53c-1.87,1.09-2.88,4-1.54,5.86.79,1.12.08,3.19-.12,4.48-.27,1.82-.21,4.74-1.46,6.12-3,3.26-7.46,5.71-11.31,7.75-4.88,2.59-.55,10,4.32,7.41a64,64,0,0,0,8.16-5.14c2.47-1.84,5.5-3.83,7-6.62s1.48-6.27,1.91-9.23C258.29,179.35,258.73,176.11,256.8,173.36Z"/><path class="836d31ed-9cee-42dd-a4d9-8d7df2969be0" d="M252.08,162.57a14.23,14.23,0,0,0-10.3-10.47,4.28,4.28,0,0,0-2.28,8.26c.34.09.68.18,1,.3l.52.28a6.67,6.67,0,0,1,.72.45s.58.55.59.56l.47.55c.11.17.36.55.39.61s.33.77.34.72q.15.51.27,1a4.29,4.29,0,0,0,8.27-2.28Z"/><path class="836d31ed-9cee-42dd-a4d9-8d7df2969be0" d="M243.59,93.52q-16.59.49-33.2.2c-5.52-.1-5.52,8.48,0,8.57q12,.22,24.1,0c-4.76,5.41-8.17,12-13.32,17.12-7,7-15.4,12.73-18.16,22.75-1.47,5.32,6.8,7.6,8.27,2.28,2.42-8.81,11.14-13.84,17.08-20.12s9.6-14.66,16.51-20.13a3.58,3.58,0,0,0,1.24-3C248.91,99,248.08,93.39,243.59,93.52Z"/><path class="836d31ed-9cee-42dd-a4d9-8d7df2969be0" d="M177.47,165.44c-3.3,3.07-8.22,3.55-12.52,3.76a62.76,62.76,0,0,1-17.17-1.55c-5.37-1.24-7.66,7-2.28,8.27a70.79,70.79,0,0,0,21.17,1.75c6.17-.46,12.21-1.84,16.86-6.17C187.58,167.74,181.5,161.69,177.47,165.44Z"/><path d="M54.51,217.69a7.29,7.29,0,0,1-2.59-.55,4.33,4.33,0,0,1-1.66-1.32c5.5.2,11,.57,16.58,1.09a41.78,41.78,0,0,1-12.33.78"/><path d="M193.26,203c-4.46.71-9,1.42-13.52,1a15.35,15.35,0,0,1-7-2.15,75.39,75.39,0,0,1,20.26-1.05c0,.75.11,1.49.21,2.24"/><path d="M195.38,226.61c0-.64,0-1.27-.1-1.91-1.35,1.76-3.94,1.85-6.17,1.87l-5.18,0c-8.08,0-16.32-.07-24.24-2.55a1.81,1.81,0,0,0,.93-2.16,194.17,194.17,0,0,0,32.85,1,2.6,2.6,0,0,0,1.6-.42c.78-.53.83-1.64.83-2.59,0-5.14-.05-10.32-.21-15.47a1.4,1.4,0,0,1,2-.56,4.26,4.26,0,0,0,2.28,2.48,125.44,125.44,0,0,1-1.71,26.61c-.15.89-.46,1.93-1.34,2.14-1.2-2.68-1.35-5.6-1.51-8.41"/><path d="M140.15,90.73c-.51-1.46,1.4-2.34,2.91-2.4a55.27,55.27,0,0,1,11,.46,7.9,7.9,0,0,1,2.07,5.64,21.81,21.81,0,0,0-16-3.7"/><path d="M83.68,71.29a39.31,39.31,0,0,0-16.37,1.57c1.5-4.3,7.61-5.85,11.29-2.8a1.38,1.38,0,0,1,1.61-1,5.19,5.19,0,0,1,2,1c.52.4,1,.81,1.5,1.21"/><path d="M32.6,126.6c.36-1.67,2.53-1.89,4.24-1.73,3.17.21,6.33.47,9.49.73,2.48.17,4.24-2.1,5.85-4,3.42-4.12,7.72-7.32,12-10.48.93-.68,2.28.68,2.18,1.84a5.56,5.56,0,0,1-1.71,2.85,3.06,3.06,0,0,0-.83,3.17c-1.87-1-4,.11-5.49,1.33a21.6,21.6,0,0,0-5,5.81c-.67,1.12-1.3,2.35-2.49,2.9a5.41,5.41,0,0,1-2.95.39A61.32,61.32,0,0,1,32.6,126.6"/><path d="M276.88,90.17c-4.56,4.73-9.12,9.51-13.52,14.35-7.31,8.14-14.2,16.74-22.49,23.81-1,.84-2.85,1.35-3.21.11q19.43-22,39.38-43.39c-.06,1.74-.11,3.43-.16,5.12"/><path d="M238.49,101.72c.93-.1,1.81-.15,2.75-.19-1.51,4.61-5.19,8-8.66,11.23a207.75,207.75,0,0,0-26.78,30.88,10.21,10.21,0,0,0-1.56,2.91c-1.29,5,5.49,9.78,5,15-3.53-3-7.31-6.46-8.14-11-.93-5,2.07-9.55,4.92-13.54a234.74,234.74,0,0,1,14.87-19.24,110.52,110.52,0,0,1,17.62-16.08M228,113.88a.84.84,0,0,0,.93-.89,1,1,0,0,0-1.14-.82,4.27,4.27,0,0,0-1.45,2.13A1,1,0,0,0,228,114"/><path d="M125.18,136.94c-5.54,11-1.09,26.55,9.64,33.61a7.57,7.57,0,0,0,2.48,1.11c2.28.31,4.51-1.55,6.58-.46,0,.63-.1,1.26-.15,1.94-2.38,3-7.25,3.07-10.78,1.09s-6.11-5.48-8.39-9c-2.54-3.76-5-7.78-6.11-12.15s-.94-9.26,1.55-12.75c.47-.66-.57-1.52-1.4-1.68-5.91-1.29-11.35,2.64-15.23,7.09A27.26,27.26,0,0,0,96.74,158a16.5,16.5,0,0,0,3,13.8c1.66,2,4,3.91,3.73,6.33-4.92-1.23-8.55-6.07-9.84-11C90.68,156,97.15,145,105.7,138.57a19.11,19.11,0,0,1,3.89-2.39c4.76-2,10.41-.64,15.59.76"/><path d="M237,101.14c-9.12.09-18.29.12-27.41.2-3.21,0-6.94-.19-9.07-2.82-3.31-4.08,0-10.37-2.43-15,3.26-6.61,12.07-7.3,19.48-7.18l39.89.56c7.15.1,14.61.28,21.19,3.68-24,2.7-48.91-3-72.84.11a4.68,4.68,0,0,0-1.76.52,4.14,4.14,0,0,0-1.3,2.72,22.27,22.27,0,0,0-.67,7.68c.36,2.56,1.86,5.26,4.25,6.31a11.45,11.45,0,0,0,5.64.38c8.34-.94,17.31-1.24,25,2.81"/><path d="M98.86,208.6c-5.34-2-9.22-7.12-11.19-12.59s-2.28-11.26-2.54-17a1036.77,1036.77,0,0,1,.93-107.56c2.13.88,2.44,3.76,2.34,6q-1.56,53.72,0,107.64c.15,5.93.67,12.58,5,16.84,2.13,2,5.24,3.78,5.39,6.65"/><path d="M180.05,117.28c-1.25-2.73,1.34-5.31,3.31-7.35a20.65,20.65,0,0,0,5-17.13c-1.82-11.13-12.23-19.7-23-22.58s-21.82-1.22-32.49.67c-4.77.85-9.58,1.69-14,3.57A34.5,34.5,0,0,0,99.59,95.15c-1.35-7.61,2.85-15,8.75-19.27s13.21-6.11,20.36-7.7c12-2.6,24.56-4.73,36.79-1.65S189.68,79,192.17,91.62c2.07,10.35-3.11,21.33-12.12,25.66"/><path d="M251,181.33c-.32,2.63-1.87,5.75-4.46,5.21a16.21,16.21,0,0,0,1.35-12.35,32.38,32.38,0,0,0-3.27-7c-2.79-4.74-6.84-9.87-12.12-9.91s-9.74,5.13-14.92,3.68c-.36-1.24.88-2.22,1.92-2.84,6.47-3.7,13.67-7.51,21.24-5.8,5.75,1.34,10.67,5.79,13.93,11,6.43,10.21,7,24.11.26,33.25s-20.62,12.18-30.72,5.75c-7.88-5.07-19.12,1.75-26.32-4.28,7.72-1.13,15.7-2.3,23.57-.51,3,.68,6.12,1.78,9.17,1.45,4.2-.46,7.93-3.76,12.23-2.84a10,10,0,0,1-8.34,3.42c-1.76-.17-2.18,2.71-.83,3.91s3.37,1,5,.6c9.58-2.33,17-10.95,18.23-21s-3.83-21-12.38-26.9c-2.74-1.88-6.58-3.14-8.91-1.07,9.84,4.3,16.48,15.69,15.34,26.2"/><path d="M265.85,144.21c-8.86-9.42-22.9-9.6-35.24-9.09a32.18,32.18,0,0,1,25.18-1c13.27,4.89,23.06,18.35,25.49,32.42s-1.71,28.46-9.48,39.65c-6.27,9-15,16.41-25.49,19.8a40.11,40.11,0,0,1-32.59-3.53c-4.71-2.85-9.17-7.59-9-13,8.55,10.78,22.85,16.54,35.7,14.42,14.35-2.33,25.54-13.55,32.12-26.56,3.73-7.42,6.27-15.77,5.49-24.4-.57-5.8-2.64-11.5-5.08-17-1.81-4.19-3.93-8.41-7.09-11.74"/><path d="M135.7,103.67c1.09-2.68-.26-6.11-2.64-8.06a13.75,13.75,0,0,0-8.35-2.67c-6.42-.16-13.47,3.4-14.35,9.85a11,11,0,0,0,6,10.87,9.42,9.42,0,0,0,11.45-2.58,16.29,16.29,0,0,1,14.77-6.17,19.09,19.09,0,0,1,14.09,9.56c4.82-5.93,16.27-3.43,19.12,4.11,1.29,3.37,5.9,3.15,9.12,4.52,2.38,1,4.14,3,6.06,4.79s4.25,3.35,6.68,3.14,4.46-3.2,3-5.3c-1.09-1.66.72-4.19,2.53-3.49,2.8,2.46,2.54,7.26-.05,9.68s-6.58,2.53-9.94,1.2-6.27-3.91-8.81-6.61a5.27,5.27,0,0,0-6.48-.75,9.89,9.89,0,0,0-4,5.45c6.74,3.57,15.75,2.73,20.47,8.81,3.62,4.69,2.59,11.66-.83,16.09s-8.6,6.94-13.63,9.31a15.84,15.84,0,0,1,9,13.35c.25,5.78-3,11-7.31,14.49s-9.69,5.39-14.87,7.27l-13.21,4.85c-2.64.93-1.5,4.92-.67,7.78A16.09,16.09,0,0,1,152,224.7c-3-.41-3.21-4.71-2.64-7.58s.1-7.24-2.85-7.44-3.37,4.22-2.7,7.28.21,7.43-2.74,7.23c-1.14-2.56-.06-5.4-.21-8.11s-3.32-5.88-5.23-4.1a4.63,4.63,0,0,0-.94,3.17c-.15,3.85-.31,7.65-.41,11.5-2.18-.3-3.63-2.67-3.89-4.86s.26-4.32.31-6.48-.72-4.71-2.64-5.79-4.82.53-4.09,2.64a13.56,13.56,0,0,1-1.81,12.37,27.63,27.63,0,0,1-2.59-10.17c-2.54-.54-5-1.13-7.57-1.66-.88-.22-2-.3-2.38.53-2,4.31.62,10.41,5.18,12.24q-39.94-1.28-79.89-2.62c-.37-.92-.73-1.79-1.09-2.67,2.18.31,4.51.62,6.53-.25s3.37-3.38,2.33-5.46c-1.35-2.73,1-5.75,3.73-6.68s5.75-.74,8.39-1.78c7.2-2.75,8.09-12.64,7.83-20.65L60.94,121c.31-1,1.81-.89,2.48-.1a4.65,4.65,0,0,1,.78,2.91q1.32,29.21,2.59,58.37c.21,4.73.42,9.56-.83,14a20.86,20.86,0,0,1-17.51,15.15c-2.54.31-3,4.25-1.19,6.27s4.61,2.52,7.2,2.75a88,88,0,0,0,16.79,0c10.1-.92,20.88-3.49,30.15,1.57,1.66.9,2.95-1.5,3.26-3.38.78-5.24,1-11.84-3.36-15-8.4-6-10.47-19.48-4.1-26.89a4.91,4.91,0,0,1,3,3.06c-3.32.73-5.08,4.58-4.72,8.1s2.39,6.66,4.46,9.66c5.07,7.32,13.11,14.94,21.29,12.73-.41-3.31-.78-6.62-1.19-9.92,5.85,7.26,16.11,10.42,24.4,7.58,4.56-1.55,8.76-6.83,6-11.08,11.24,4.71,24.87.74,31.24-9.11,2.44-3.81,3.89-8.69,2.33-13.18s-6.89-7.92-10.93-6c-15.13,7.1-35.95-.47-44.45-16.11A11.89,11.89,0,0,1,142.38,149c-2.64,1.73-5.28,3.41-7.93,5.14,5.7,9.47,17.36,14.11,27.83,13.32s19.84-6.16,27.92-12.61c4.72-3.76,2.44-12.54-2.9-16.12s-12.07-3.28-18.08-2.19a86.31,86.31,0,0,0-21.5,6.67c-6,2.73-13.52-.57-18.08-5.9s-6.69-12.13-8.76-18.78c-3.06-2.42-7.1.75-8.81,4.08s-3.42,7.44-7.15,7.73c-2.43.21-5,.25-7.3-1s-3.94-4-3.06-6.34,4.82-2.54,5.65-.11c-1.19.51-2.38,1.06-3.63,1.56.73,2.75,4.46,3.58,6.84,2.36s3.73-3.78,5.29-5.9,3.83-4.24,6.58-4c-4.51-3.1-9.28-7.17-9.64-12.59-.26-3.4,1.5-6.62,3.78-9,6.11-6.32,16.68-7.53,24.71-2.87,5.55,3.22,12.23,2.61,18.45,3.92s13,6.63,12,12.85c-.88,0-1.71,0-2.54.1a17,17,0,0,0-12-10.8,14.4,14.4,0,0,0-14.3,5.15m-.83,33.91c2.8,2.3,6.48,3.82,9.89,3.09a9.89,9.89,0,0,0,3.84-1.76c5.85-4,8.6-12.13,6.48-19.41a17.47,17.47,0,0,0-5-8.06A14,14,0,0,0,138.55,108a12.69,12.69,0,0,0-9.22,7c-3.42,7.29-1,17.24,5.54,22.59M158.65,123c.47,2,1.35,4.06.93,6-.67,3.13-4.61,5.41-3.47,8.56l9.85-3.8c2-.71,4.09-1.58,5.33-3.3a9.21,9.21,0,0,0,1.35-3.09,14.1,14.1,0,0,0,1-4.37,8.7,8.7,0,0,0-3.17-6.82,7.86,7.86,0,0,0-7.09-1.64,7.69,7.69,0,0,0-1-.8c-3.57.71-4.71,5.51-3.78,9.27"/><path d="M144.82,128.21a7.35,7.35,0,0,1,.18,2.39,1.5,1.5,0,0,0,3,0,3.92,3.92,0,0,0-.29-2.14c-.12-.22-.39-.48-.49-.64a6.77,6.77,0,0,0-.6-.94,1.52,1.52,0,0,0-2.12,0c-.94.79-.87,2.22-.55,3.28s1,2.72,2.31,2.72c2.43,0,2-3.23,2-4.8,0-1.93-3-1.94-3,0,0,.5.06,1,.06,1.5V130c0,.05,0,.47,0,.29s-.05.19-.05.22,0,.07.05-.13c.74-.38.94-.54.59-.48l1.46.39c0-.06-.22-.29,0,0-.05-.08-.11-.16-.15-.24a2.65,2.65,0,0,1-.26-.6c0-.13-.08-.26-.11-.4a.7.7,0,0,1,0-.14c-.06-.31,0-.07,0-.08l0-.12c-.27.37-.31.47-.13.3H144.5a3.48,3.48,0,0,0,.13.34c.07.12.35.67.51.66.16.18.12.06-.11-.35v.3c0,.22,0,.43,0,.65h3a9.51,9.51,0,0,0-.29-3.19c-.62-1.82-3.52-1-2.89.8Z"/><path d="M162.42,127a5.33,5.33,0,0,0-.93,2.44,2.31,2.31,0,0,0,1,2.32,1.54,1.54,0,0,0,1.82-.24c1.23-1.07,2.14-3.85.33-4.8a2.67,2.67,0,0,0-3.42,1.08,2.89,2.89,0,0,0,.52,3.57,1.53,1.53,0,0,0,2.12,0,1.51,1.51,0,0,0,0-2.12c-.12-.12-.13-.12,0,0l-.06-.1c.06.15.07.17,0,.07s0-.08,0,.11c.05-.4,0,.32,0-.07l-.07.14c.09-.14.07-.13,0,0l.08-.08c-.15.11-.16.12,0,0-.06,0-.37.08-.23.08s.07,0-.17,0a.68.68,0,0,1-.32-.18,1.36,1.36,0,0,1-.38-.64c-.08-.2,0-.08,0,0,0-.46,0-.16,0,0a2.31,2.31,0,0,0-.1.28c.09-.34.06-.11,0,0s-.19.32-.28.48.17-.2.07-.08a.93.93,0,0,1-.14.14l1.82-.23a.86.86,0,0,1,.48.71,2.26,2.26,0,0,1,0-.26,1.64,1.64,0,0,1,0-.23c0,.14,0,.16,0,0a6.64,6.64,0,0,1,.51-.9,1.5,1.5,0,0,0-2.59-1.52Z"/><path d="M35.82,114.36a2.45,2.45,0,0,0-.24,1.66C47.05,104.69,58.05,92.88,65,77.57A3.47,3.47,0,0,0,64.87,74a205.76,205.76,0,0,1-25.71,34.91A40.32,40.32,0,0,0,35.82,114.36Z"/></svg>