<svg id="f4aae143-75c3-4275-98ef-d6d35a5a1df7" data-name="Layer 1" xmlns="http://www.w3.org/2000/svg" viewBox="0 0 300 300"><defs><style>.\35 7e177dc-493a-4753-909c-f210cb465e68{fill:#fff;}.\34 fc7ccc2-c987-4219-b38e-449adc20cec4{fill:#52df84;}.\37 48ed487-b75d-466d-a532-24358160b6de{fill:#e6e6e6;}</style></defs><path d="M278.73,42.91a107.76,107.76,0,0,0-11-7.52C243.49,25.44,218,17.49,191.51,19c-26.17,1.5-52.07,11.54-74,26-7.1,11-10.58,24.44-11,37.69-.43,13.59,2.12,26.64,12.14,36.48a57.13,57.13,0,0,0,10.64,8.16,11.7,11.7,0,0,0,1.78,2.85c7.32,11.12,21.53,13.12,33.93,14.64a88.19,88.19,0,0,0,13.08.73,86.55,86.55,0,0,1-15.52,9.47c-5.92,2.81-4.46,12.33,2.28,12.77a21.75,21.75,0,0,0,6.75-.63,6.66,6.66,0,0,0,2.52-.14,115.35,115.35,0,0,0,29.5-11.76c6.48-3.62,12.58-8.24,16.32-14.59,11.39,1.41,22.46-2.46,33.14-6.8,9.57-3.9,19.3-8.09,27.3-14.69,4.57-5.49,10.05-10.38,14.3-16.08l1.27-1.77c.59-.88,1.15-1.78,1.67-2.71,2.87-8.74,3-18.6,1.82-27.52C297.85,59,287.9,50.07,278.73,42.91Zm5.64,35.79A188.12,188.12,0,0,1,279,101.29a7.1,7.1,0,0,0-.32,2.4,9.94,9.94,0,0,0-1.9.77,7.57,7.57,0,0,0-3.68,3.27c-6.88,6-15.2,9.67-23.64,13.14-8.74,3.6-18.89,8.27-28.58,6.53.19-.38.38-.75.56-1.13,2.49-5.29-4.17-11.09-9.16-8.43a11.31,11.31,0,0,0-6.19,8.54q-.37.59-.78,1.14a7,7,0,0,0-9-.6c-5.09,3.8-11.24,5.12-17.5,5.31a6.26,6.26,0,0,0-5.53-4.09q-6.21-.72-12.28-2a6.94,6.94,0,0,0-1.32-.59c-9.89-3.21-20.09-6.41-28.37-13-7.49-5.92-11-13.76-11.41-23.22-.75-16.91,3.79-36.24,17.76-47.08,7.76-6,17.7-8.34,27.22-9.81A188.4,188.4,0,0,1,199,30.27c21.29.62,42.83,5.29,61.27,16.31a102.76,102.76,0,0,1,13.85,9.88c3.83,3.26,8.06,7,10.42,11.47a18.14,18.14,0,0,1,1.85,6.62A7.91,7.91,0,0,0,284.37,78.7Z"/><path class="57e177dc-493a-4753-909c-f210cb465e68" d="M290,58.11c-7-12.76-19.76-19.57-33.22-23.59a77.62,77.62,0,0,0-15.51-6.1c-24.46-7-51.63-10.56-76.15-2.08-.83.28-1.66.6-2.48.92-10.42,2.42-20.56,6.94-29.87,11.43a35.14,35.14,0,0,0-18.26,19.48,84.39,84.39,0,0,0-6.39,26c-1.09,17.55,7.16,32.79,22.36,41.56,13.6,7.85,29.93,11.56,45.56,11.63A87.63,87.63,0,0,0,197.2,135a30,30,0,0,1-3.72,7.19,31.63,31.63,0,0,1-2.66,2.25,1.89,1.89,0,0,0-.92,1.84,27.65,27.65,0,0,1-2.55,2.13,34.18,34.18,0,0,1-3.93,2.53c-6.69,2.87-14.35,4.84-21.67,6.58-3.69.88,2.58,3.77,6.29,3.23,8.25-1.19,15.89-3.22,22.15-6.33a63,63,0,0,0,9.16-4.47,45.82,45.82,0,0,0,13.22-11.69c.76-1,1.51-2.1,2.22-3.25a123.3,123.3,0,0,0,13-1c18.38-2.47,38.12-9.29,51.45-22.71S299.84,75.85,290,58.11Z"/><path class="57e177dc-493a-4753-909c-f210cb465e68" d="M40.17,216.43a3.76,3.76,0,0,0-.33-.37c-.85-.81-1.73-1.58-2.62-2.34-3.75-3.19-6.88-7.17-6.46-12.87.55-7.57,7-13.94,14-17.1,3.55-1.61,7.26-2.2,10.84-3.66.44-.18.87-.37,1.3-.57-.28.11,1.38-.8,1.47-.86.5-.32,1-.66,1.49-1,0,0,1.64-1.33,1.31-1a23.66,23.66,0,0,0,7.91-13c0-.13,0-.21.07-.27s0-.28,0-.47,0-.25,0-.37a36.23,36.23,0,0,1-7.71-1.05,47.16,47.16,0,0,1-19.12-8.83c-2.48-1.91-2.48-5.89-.81-9.14a13.86,13.86,0,0,0,4.09-1.73c5.28-3.3,7.06-10.24,4.75-14.67-.88-1.7-1.69-3.43-2.46-5.19-.32-.75-.64-1.49-.94-2.25-.19-.47-.38-.93-.56-1.41l-.06-.17c-.43-1.22-.84-2.46-1.23-3.7a6.88,6.88,0,0,1,4.28,2.8,14.77,14.77,0,0,1,.53-2.83c2.92-10,14.16-15.1,22.88-13.43A20.48,20.48,0,0,1,88.73,115.7a26.93,26.93,0,0,1,14.61,2.17,17,17,0,0,1,7.34,7.08,13.46,13.46,0,0,1,5.72,1.76,16.64,16.64,0,0,1,16,5.14c5.81,6.46,7.61,16.49,3.26,25.89.86.37,1.71.79,2.54,1.25,1,.1,2,.22,2.92.37,5.69.92,11.41,3.1,15.06,7.21,9,10.15,2.58,25.84-9.72,34.77a72.42,72.42,0,0,1-8.19,4.77c-3.06,1.66-5.72,3.22-7.51,5.2-.39.44-1,1.38-.62.8-.08.21-.16.43-.23.65,0,.06,0,.14,0,.23a26.42,26.42,0,0,0,0,2.67,17.37,17.37,0,0,1-4.16,11.58,25.72,25.72,0,0,1-8.34,5.95c-1.17.58-2.39,1.07-3.54,1.69a22.07,22.07,0,0,0-1.82,1.32,10.3,10.3,0,0,0-2,2.48s-.41.69-.5.82c-.4.81-.74,1.76-1.21,2.56a15.11,15.11,0,0,1-11.38,7.59c-6.88.72-13.87.31-20.67.45-7.2.15-14.41.32-21.61.45-5.56.11-11.42,0-15.92-2.72-5.34-3.25-7.58-9.23-5.68-16.16a32.23,32.23,0,0,1,3.49-7.56c.55-.93,1.14-1.86,1.71-2.79.36-.58.72-1.15,1.06-1.74.09-.15.53-1,.76-1.41s.32-.82.4-1c-.14-.14-.17-.32-.1-.3a.37.37,0,0,1,0-.13Z"/><path class="4fc7ccc2-c987-4219-b38e-449adc20cec4" d="M62.5,187.29l.27-.6c-.58-3.15-.84-6.57.22-9.51,2.31-6.39,9.39-8.25,14.86-10.51a7.81,7.81,0,0,1,2.85-.61,21.72,21.72,0,0,1,10.8-3.16c6.38-.12,12.6,1,18.78,1.63h.07q10.53-1,21-1.29c10.51-.25,25-1.32,28.62,9.39a7.54,7.54,0,0,1,1.29,3.93,8.88,8.88,0,0,1-1.43,5.71c-3.27,8.8-14.58,15.31-22.76,19.14-11.92,5.58-24.32,4-35.2,1.35a121,121,0,0,1-11.77-3.31,11.59,11.59,0,0,1-6.59,3.94c-5.56,1.16-12.71,2.13-17.49-.07C60.29,200.69,59.84,193.46,62.5,187.29Z"/><path class="748ed487-b75d-466d-a532-24358160b6de" d="M55.73,215.39c1.71-4.49,4.69-9,9-11.67a22.72,22.72,0,0,1,14-3.51,127.93,127.93,0,0,1,34.86,7c3.74,1.25,6.71,5.87,7.51,9.61a19.6,19.6,0,0,1-2.77,13.95,26.06,26.06,0,0,1-8.28,8.11,20.94,20.94,0,0,1-5.54,10c-3.51,3.41-8.45,6.69-13.07,6.79l-12.89.28c-4.85.1-9-.53-12.33-3.64a14.88,14.88,0,0,1-4.38-11.94,24.38,24.38,0,0,1,1.27-5.51,15,15,0,0,1-6.5-5.89A17,17,0,0,1,55.73,215.39Z"/><path class="748ed487-b75d-466d-a532-24358160b6de" d="M47.66,128.34a17.19,17.19,0,0,1,4.12-6.19,17.4,17.4,0,0,1,6-4.4,15.73,15.73,0,0,1,7-2.39l4.73,0a14.17,14.17,0,0,1,7.61,3.6c.85,1.08,1.7,2.17,2.56,3.25a15.45,15.45,0,0,1,1.82,8.69l-.28,4a15.14,15.14,0,0,1-2,7,17.33,17.33,0,0,1-4.11,6.2,17.54,17.54,0,0,1-6,4.39,15.82,15.82,0,0,1-7,2.4l-4.73-.05a14.23,14.23,0,0,1-7.61-3.59l-2.55-3.26a15.44,15.44,0,0,1-1.83-8.68l.28-4A15.25,15.25,0,0,1,47.66,128.34Z"/><g id="a1e5f68f-a85f-45af-abad-d0f287a067f8" data-name="pdf24_17"><path d="M75.28,264.56c.17-1.49.39-3,.62-4.54-.23-1-2,.42-1.88,1.46s.92,2,.38,3"/><path d="M56.43,264.48c-1.12,4.77-2.3,9.75-3.42,14.52a98.52,98.52,0,0,0,5.45-11.6c1.54-4.27,2.66-9.26,2.09-10.86-1.26,2.6-2.39,5-3.59,7.6"/><path d="M87.84,258.07C86,264,87,272.16,90,276.31c2.55-5.49,1.49-15.1-2.12-18.24"/><path d="M126.35,141.79a2.47,2.47,0,0,1-.43,2.53,5,5,0,0,1-1,.41c-.27,0-.56,0-.81,0-1.13.08-2.06-.86-2.27-2.24a5.11,5.11,0,0,1,.33-2.71C123.7,138.61,125.83,140.14,126.35,141.79Z"/><path d="M107.5,116.4a5,5,0,0,1,1.43,3.41,5.73,5.73,0,0,0,5,.91c-1.62-2.33-3.58-4.79-6.67-4.82-1.36,0-3.37-.11-3-1.51-.59.84-1.18,1.62-1.77,2.4,1.67-.09,3.34-.24,5-.39"/><path d="M34.29,171c.23-1.55.46-3.17.69-4.73-3.06-2.09-7.5-2.31-11.48-.52l-3.4,3.54c-.42.94.54,1.64,1.5,1.46a11.89,11.89,0,0,0,2.65-1.32c3.51-1.85,7.13-.12,10,1.57"/><path d="M104.05,142.34c1.52.8,4.32,4.17,1.34,6a6.67,6.67,0,0,1-1.69.75,4.28,4.28,0,0,1-3.72-3,4.88,4.88,0,0,1,0-3.18,4.82,4.82,0,0,1,.48-.7,2.11,2.11,0,0,1,.23-.19C101.74,141.32,103.19,141.9,104.05,142.34Z"/><path d="M151.63,111.65a9.65,9.65,0,0,0-4.78,8.34c-1.55,3.49-23.27,1-26.53,3.07a9.06,9.06,0,0,0,4.29.76c1.58-.26,22.23,4.31,22.67,2.76,1.41-5,2.88-9.94,4.35-14.93"/><path d="M165.78,110.88a3.91,3.91,0,0,1,1.3-2.82c-.61-1.91-2.92-2.52-5.08-2.41a17.24,17.24,0,0,0-9.67,4c1.24,1,3.26,0,4.9-.88s3.92-1.44,4.64,0c.77,1.59-1.44,3.62-3.35,4.29s-4.19,1-5.37,2.75c4.1,1.4,9.76-.82,12.63-4.94"/><path d="M63.59,160.33c.44-2.11-1.67-3.26-3.46-4-3.42-1.23-6.77-2.52-10.12-3.81a9.47,9.47,0,0,1-3.43-1.87c-2.61-2.56-1.27-8.14,2.44-10.36,4.28-2.54,9.79-.69,13.41-4.14a17.54,17.54,0,0,0-14.35.6c-4.74,2.47-8.41,8.23-7.24,12.73.94,3.59,4.42,5.57,8,6.66,2.21.73,4.88,1.51,5.38,3.81a6.69,6.69,0,0,0-5.13,2.81c-1.58,2.2-1.53,4.9-2,7.37s-2,5.55-4.57,6c-4.09.68-8.17,1.42-12.26,2.11a18,18,0,0,1-.94,1.59,16.19,16.19,0,0,0,12.6-1.92c1.48-.83,3.24-.52,4.84-1.31,1.78-.86,2.82-3,3.19-4.86s.26-3.8.87-5.64A10.45,10.45,0,0,1,56.25,160a7.57,7.57,0,0,1,7.34.38"/><path d="M48.06,121.83c-.69-6.21,2.06-13.32,7.1-18.36,1.8-.16,4.09-.68,4.8-2.42l1.12,1a3.56,3.56,0,0,1,4.19-1.34c.8.43,2.39.64,2.27-.28,6.56,1.24,13.32,4,15.31,10.22a5.22,5.22,0,0,1-.65,5.14c-1.56,1.84-4.91,3.08-4.27,5a3.31,3.31,0,0,0,3.6.26,17.71,17.71,0,0,1,7-4.28,25,25,0,0,0,14.95-2.38c-.07-1.64-2-2.16-3.72-2s-3.46,1-5,.49a8.72,8.72,0,0,0-2-.69c-.71,0-1.7.62-1.63,1.32-2.12-1.15-5.18-1.54-7.44.27a5.66,5.66,0,0,0,1.51-3.77c0-1.94-1.24-3.44-2.33-4.83a32.12,32.12,0,0,0-7-6.67,15.76,15.76,0,0,0-5.72-2.18C62.41,95,52.7,99.6,47.66,107.17s-5,17.44.17,23c1.62-.26,3.18-.45,4.79-.65a1.3,1.3,0,0,0,0-1.88,6.41,6.41,0,0,0-1.84-.89c-1.78-.83-2.46-2.93-2.68-5"/><path d="M28,240.12c1.86,4.07,6,6.38,9,9.53s5,8.39,2.08,12.75c3.58-1.15,6-5.92,4.42-8.84,8.67.74,17.28,1.5,26,2.19,8.44.72,17.24,1.39,25.78-2a36.13,36.13,0,0,0,17.34-14.57c.74-1.21,2.31-1.58,3.59-2a21.45,21.45,0,0,0,13-11.2c2.39-5.3,2.15-11.21-.66-15.22,5.13-3.63,11.15-5,16.74-7.54,10.42-4.77,19.88-16.06,18.45-26.24-1.45-10.65-13.08-14.92-23.64-16.67-1.29-.19-.92-2.12-.41-3.42,3.89-9.78,2.79-20.47-2.76-27.55-4.8-6.11-15-9-22.06-2.85-2,1.72-4.64,4.28-6.51,3.1-4.83-3.11-10.29-5.67-16.51-5.84s-13.36,2.54-17.54,8a21.6,21.6,0,0,0-4,9c-1.86,8.82.84,17.6,7.08,22.6-10,.71-19.77,11.92-18.9,21.52a21.78,21.78,0,0,0-22.55,1.62c-7.11,5-10.7,15.45-6.35,21.21l-.76.12a29,29,0,0,1,.92,4.86c4,.29,7.42,1.91,9.15,5.34.36.72.4,1.95-.45,2.23C30.47,223,25.05,233.43,28,240.12Zm109.46-88.89c-1,3.47-3.88,7-7.37,7.74a33.17,33.17,0,0,1-15.73-.05c-4.14-1.08-8.79,2.68-13.29,4.18-3.77,1.23-7.49.92-11.14.55-3.13-.32-6.43-.61-8.93-2.19a14.29,14.29,0,0,1-4.83-6.4,21.57,21.57,0,0,1-1.57-14.16c1.24-5,5.16-10.06,10.15-11.73a16.16,16.16,0,0,1,7.33-.5,27.2,27.2,0,0,1,16.48,7.9c4.55,4.61,7.27,11.51,5.28,18.7,1.68.68,3.24-2.1,3.49-4.08a37,37,0,0,0-2-17.58c-.79-2.25,2.3-4.81,4.83-5.36a12.52,12.52,0,0,1,11.18,3c2.79,2.53,4.5,6.15,5.66,9.89A17.83,17.83,0,0,1,137.48,151.23Zm-12.17,54.23c-4,.38-8.17-1.16-9.41-4.72-3.08-.91-6.69,1.42-10.12,2.14a14.91,14.91,0,0,1-7.15-.41A29.3,29.3,0,0,1,77,176.26c-1.37-.77-2.91,1.71-3.09,3.44-1.07,9.31,3.25,18,10.86,22-6.66,3.65-15.12,4.05-19.48-.65-4.81-5.11-3.41-14-1.14-21.8.92-3,2.22-6.34,5-7.86,3.27-1.82,8.53-1.53,9.13-5a2.86,2.86,0,0,1,1.33,3.84c-.56-1.29-2.33,1.11-2.13,2.56,10.51-2.66,21.08-5.27,31.59-7.86,2.24-.57,4.77-1.06,6.28.22,2.64,2.08,6.94,1,10.67.21,9.92-1.88,19.82,0,27.11,5.28,4,2.92,7.42,7.62,5.79,13.11-1.47,4.95-6.53,8.52-11.18,11.34-3.41,2.07-6.93,4-10.45,5.94C133.43,203.1,129.37,205.07,125.31,205.46Zm-82,17.64c1.57-1.19,3.64-2.8,3.17-4.45-3.32-3.47-6.64-6.94-10-10.41-1.71-1.79-3.48-3.68-4-6.27-.7-3.68,1.63-8.09,5-10.69A15.85,15.85,0,0,1,49,188.33c3.36.4,6.46,2,7.86,4.79,1,2,1.16,4.62,1.77,6.9,2.4,9.06,14.43,12.69,23.72,7.12,6.14-3.7,12.46,0,18.19,2.22a34.06,34.06,0,0,0,16.39,1.55,8.39,8.39,0,0,1,9.63,9.23c-.57,5.48-6.34,10.85-11.76,11.05-3.1.14-4.92,4.08-6.66,6.94-3.44,5.9-10,9.83-16.35,11.44s-12.68,1.28-18.82.81c-6.43-.5-12.8-1.12-19.22-1.8-5.3-.58-10.94-1.41-14.31-5.11C34.73,238.4,36.69,228.22,43.28,223.1ZM36,225c.66-.14,1.33-.34,2-.48A65.58,65.58,0,0,1,32,236C30.39,232.65,32.3,227.41,36,225Z"/></g></svg>