<svg id="2f346a61-2866-421d-a41f-0a2720d180ec" data-name="Layer 1" xmlns="http://www.w3.org/2000/svg" viewBox="0 0 300 300"><defs><style>.\39 4846eec-6f77-4d01-8f93-843e7220974a{fill:#fff;}.\35 21a8099-6af3-45fe-b445-df311a228f4a{fill:#52df84;}.\37 a4ca455-5218-4a97-9545-dc1aaadd42ac{fill:#e6e6e6;}.d29266bd-b7a4-46b4-afb5-f7c73c9b7f8d{fill:#8b898a;}</style></defs><path class="94846eec-6f77-4d01-8f93-843e7220974a" d="M93.38,151.82A60.16,60.16,0,0,0,106,163.63c12.42,8.74,28.23,11.27,43,8.23a55.65,55.65,0,0,0,11.45-3.72,21.71,21.71,0,0,0-6.83,9.71,14.82,14.82,0,0,0-.74,3.7,70.2,70.2,0,0,0-30.44,6.23,23.58,23.58,0,0,0-11.7,10.54,16.09,16.09,0,0,0-3,2.67c-5.4,6.25-5.89,15.07-.3,21.34,2.6,2.92,7,3.25,10.4,1.63q0,4,.11,8,.11,7.14.2,14.27c.07,4.95.12,10.13,2.94,14.42,5.23,8,14.62,8.44,23.23,8.67q12.63.35,25.28.08t25.26-1.14c4.42-.31,8.89-.66,12.85-2.82a17.59,17.59,0,0,0,8.39-11.56c.91-3.78,1.4-7.72,1.94-11.56a102.74,102.74,0,0,0,1.25-14.21,53,53,0,0,0-5.18-23.48,36.88,36.88,0,0,0-15-15.73c-2.58-1.46-5.28-2.72-7.79-4.3-.38-.24-.74-.5-1.12-.74l-.12-.1,0,0v0c-.36-.24-.37-.32-.29-.3-.17-.17-.35-.32-.51-.49l-.24-.27a5,5,0,0,0-.4-.61c-.08-.12-.14-.21-.19-.27a10.37,10.37,0,0,0-3.76-4.42,40.91,40.91,0,0,0,5.59-2.4,7.45,7.45,0,0,0,2-1.53,9.68,9.68,0,0,0,2.16-2.33,9.22,9.22,0,0,0,.91-6.95c-.67-2.42-2.16-3.87-4.07-5.33q-.9-1.59-1.74-3.21c-.61-1.19-1.21-2.4-1.77-3.62-.23-.49-.45-1-.67-1.47-.09-.18-.15-.33-.21-.45q-1.63-4.06-2.95-8.22a9.08,9.08,0,0,0,1.28-1.6q4,1,8,2.19,6.86,2,13.57,4.47,3.36,1.23,6.68,2.56l1.56.63,1,.41,2.65,1.15a11.8,11.8,0,0,0,4.67,1.06l.26.19c3.69,2.61,9.09,1,11.63-2.32s2.66-8.86-.7-11.84q-6.17-5.44-12.32-10.9c-.8-.82-1.59-1.64-2.38-2.47-3.57-3.77-7.1-7.63-10.95-11.12a22.07,22.07,0,0,0,4.24-8.56c1.39-5.19,2.58-10.44,3.86-15.66q2.67-10.8,5.33-21.62a46,46,0,0,0,5.54-4.86,17.27,17.27,0,0,0,4-16.18C229,37.05,219.06,33.15,210,29.68c-8.73-3.34-17.4-6.92-26.22-10-5-1.75-10.62-1.89-15.16,1.1-4.74,3.12-6.55,8.53-8.52,13.56a140.57,140.57,0,0,0-9.25,51.76c0,.89,0,1.79,0,2.68,0,.16-.07.92-.11,1.45,0,.1,0,.22-.06.34l-.37-.08c-.91-.21-1.82-.44-2.74-.6-10.05-1.79-19.24.8-27.24,7C118,98.66,117,103,118,105.63a45,45,0,0,0,4.57,9.19c-3.64,0-7.28.06-10.91.26A133.42,133.42,0,0,0,98,116.56c-5,.79-10.42,2.14-12.91,7.09a14.39,14.39,0,0,0-1.42,7.65,7.77,7.77,0,0,0-.53,1.49A16.39,16.39,0,0,0,93.38,151.82Zm89-33.41,1,.34.24.08c1.47.71,2.91,1.45,4.32,2.26a23.23,23.23,0,0,0,1.53,1.76c-1.22-.31-2.44-.61-3.67-.9a6.44,6.44,0,0,0-1-1.1c-.7-.63-1.39-1.27-2-2Zm-3.11-83.15.42-.76C179.85,34.73,179.63,35,179.25,35.26Zm-3.13,71.66a3.1,3.1,0,0,0,.45-.21l.13,0C175.84,107.3,175.69,107.17,176.12,106.92Zm-1.18.81.12-.21a3.36,3.36,0,0,1,.49-.33h0A1.19,1.19,0,0,1,174.94,107.73ZM145.59,243.46l-.26-.13-.27-.16h0a6.43,6.43,0,0,0-.43-.57l-.14-.27Q145,242.91,145.59,243.46Zm19.6-61.09a4.79,4.79,0,0,1,1.5-1.07A16.51,16.51,0,0,0,165.19,182.37ZM141.56,148l0,0,.28.3C142,148.93,141.89,149.41,141.56,148Zm-37.65-14.26.53-.06-.8.39c.24-.13.06-.06-.27.06l-.16-.29Z"/><path class="94846eec-6f77-4d01-8f93-843e7220974a" d="M189.72,183.49a.45.45,0,0,1,.29.27l-.19-.17Z"/><path class="521a8099-6af3-45fe-b445-df311a228f4a" d="M82.27,121.55c2.18-1.91,5.12-2.87,7.79-3.86a57,57,0,0,1,7.66-2.27,52.3,52.3,0,0,1,32.4,2.73c4.83,2.07,9.52,4.46,14.25,6.73,1.31.63,2.61,1.25,3.84,2a5.48,5.48,0,0,1,1.65-.27,7.19,7.19,0,0,1,6.52,3.87,8.3,8.3,0,0,1,1,3.68l.32.51.41.57c1.3.67,2.64,1.27,3.91,1.9l8,4a71.67,71.67,0,0,1,7.28,3.93c3.83-.09,7.54-.88,10.55,2.43,1.67,1.85,2.53,4.46,3.47,6.73a35.72,35.72,0,0,1,1.8,5.28c2.52,4.45,5,10.28,1.47,14.8a12,12,0,0,1-5.95,3.66A27.61,27.61,0,0,1,174,185.22l-.32.28a6.21,6.21,0,0,1-8.61,0,6.3,6.3,0,0,1-.82-1,5.74,5.74,0,0,1-1.57-2.09,2.19,2.19,0,0,0,.08-3.26,42,42,0,0,0,12.86-9.73l.15-.14.07-.11c.47-.55.94-1.11,1.39-1.68,1.77-2.3-2.15-4.54-3.9-2.28-.17.23-.36.46-.55.69a2.11,2.11,0,0,0-1.88.13c-13.67,7.35-29.13,9.34-44.57,9-.91-.47-1.8-1-2.66-1.48s-1.59-1-2.38-1.44c-.75-.21-1.47-.44-2.16-.68a44.15,44.15,0,0,1-17-10.4l-2.81-1.43c-4.68-2.41-9.5-5-13.49-8.45-4.24-3.72-6.33-8.87-7-14.36C78.21,131.64,78,125.25,82.27,121.55Z"/><path class="521a8099-6af3-45fe-b445-df311a228f4a" d="M157.9,176.39l-.81-.17c1.18-.32,2.36-.65,3.53-1C159.73,175.63,158.82,176,157.9,176.39Z"/><path class="7a4ca455-5218-4a97-9545-dc1aaadd42ac" d="M128.5,205.1c.07-7.07,6.17-13.85,13.53-13.52s13.59,5.94,13.52,13.52a139.52,139.52,0,0,0,1,18.05c.2,1.36.43,2.71.68,4.06a69.18,69.18,0,0,0,5.12-5.43c.2-.22.38-.46.58-.69.48-.75,1.11-1.46,1.61-2.19,1-1.47,2-3,2.93-4.5,4.12-6.6,8.23-13.68,14.27-18.72,4.62-3.85,10.36-7.67,16.61-7.73,10.5-.1,15.85,9.62,16.29,18.84.24,5.12-1.2,10.19-2.82,15A74.42,74.42,0,0,0,208.88,233a62.56,62.56,0,0,0-.34,7.5,27.73,27.73,0,0,1-.42,6.8,15.32,15.32,0,0,1-6.88,9.51,17.92,17.92,0,0,1-4.93,1.92,16.88,16.88,0,0,1-7.38,1.87,17.1,17.1,0,0,1-2-.1l-7.2,1.37c-6.47,1.24-12.94,2.56-19.43,3.7-8.4,1.47-17.79,1.41-24-5.53a14,14,0,0,1-2.87-14.66v-.32c-.5-2.49-1.16-5-1.67-7.44-.86-4.17-1.46-8.37-2-12.59A144.85,144.85,0,0,1,128.5,205.1Z"/><path class="7a4ca455-5218-4a97-9545-dc1aaadd42ac" d="M127.74,96a12.88,12.88,0,0,1,3.72-7.77c2.81-2.58,5.8-3.51,9.56-4a70.58,70.58,0,0,1,17.86.18c.76-6.76,1.36-13.54,1.87-20.32q.5-6.57.85-13.17c.4-7.6.07-15.94,7.63-20.42a16.94,16.94,0,0,1,6.3-2.16,15.8,15.8,0,0,1,9.43-.87,78.28,78.28,0,0,1,16.29,4.71l2.15.9a38.14,38.14,0,0,1,10.34,5.39,32.27,32.27,0,0,1,4.69,3.86c5.91,5.93,8.7,14.31,6.63,22.54-1.26,5-4.54,8.73-6.86,13.12a22.85,22.85,0,0,0-.68,2.83c-.78,7.16-1.08,14.1-4.6,20.7a24.23,24.23,0,0,1-4.34,5.75,195,195,0,0,1,15.21,13.07c5.15,4.87,5.28,14.27,0,19.12a13.79,13.79,0,0,1-19.12,0c-2.89-2.74-5.84-5.42-8.88-8-1.37-1.16-2.76-2.28-4.15-3.4-.84-.61-1.67-1.24-2.51-1.84a105.16,105.16,0,0,0-18.19-10.57q-3.74-1.47-7.59-2.57h-.15a75.17,75.17,0,0,1-25.77-2.3A13.52,13.52,0,0,1,127.74,96Z"/><path class="d29266bd-b7a4-46b4-afb5-f7c73c9b7f8d" d="M126.09,207.18l.58,30.46.29,15.23c0,2.33-.21,4.89,1,7a5.12,5.12,0,0,0,6,2.51,4.28,4.28,0,0,0,2.88-4.92,10.42,10.42,0,0,0,3.89,5.46,3.6,3.6,0,0,0,1.49.9c5.57,2.87,13.79,2,19.52,1.9l5.76-.15a4.12,4.12,0,0,0,3.42,1.84,4.61,4.61,0,0,0,3.68-2l20.38-.52,9-.23c2.46-.07,5,0,7-1.81s2.24-4.2,1.91-6.64a4.4,4.4,0,0,1,1-4.18,27.42,27.42,0,0,0,3.74-6.06,30.38,30.38,0,0,0,1.62-6.64c.8-5.24,1.54-10.48,2.31-15.72,1.13-7.67,3.05-18.67-5.48-23-4.9-2.5-9.23,4.9-4.32,7.4,2.44,1.24,2.43,4.42,2.31,7.08a131.68,131.68,0,0,1-1.78,13.1c-.61,4.2-1,8.52-2,12.64-.07.27-.15.53-.23.79a137.41,137.41,0,0,0-2.8-34c-.6-2.89-3.24-3.57-5.4-2.76-.24-1-.5-2-.81-3-1.44-4.54-8.49-3.79-8.42,1.14q.12,7.65.22,15.31a4.61,4.61,0,0,0-4.76.17,4.42,4.42,0,0,0-5.7,4q-.81,10-1.63,20-.06.75-.09,1.56l-2.85-10.82c-1.24-4.72-8.39-3.65-8.41,1.14,0,2.91-.11,5.81-.28,8.71a4.64,4.64,0,0,0-3.7-1.26c-2.3.28-3.44,2.09-3.72,4.21-.05.43-.11.85-.17,1.28-7.87-14.82-15.27-29.91-20.25-46-1.41-4.54-8.53-3.8-8.41,1.13,0,.45,0,.9,0,1.35C130.39,202,126,203.46,126.09,207.18Zm20.43,44.2c-.28-1.49-.53-3-.79-4.46a40.79,40.79,0,0,1,4.22,4.31l0,0-.17,0Zm-3.19-21.45c1,2.24,2.11,4.47,3.19,6.69-.86-.69-1.74-1.36-2.62-2C143.7,233,143.51,231.49,143.33,229.93Zm45.31,26.53-1.37,0c.19-.55.37-1.1.52-1.67C188.05,255.37,188.33,255.91,188.64,256.46Zm14.9-.39-7,.18a3.73,3.73,0,0,0,.22-1.67c0-.22,0-.45-.05-.67,2.38.24,5.17-1.63,5.13-4.28,0-1.86-.05-3.71-.08-5.57l.27.38a4.65,4.65,0,0,0,5.52,1.63,24.89,24.89,0,0,0-2.58,4.19,10.66,10.66,0,0,0-.72,5.75C204,256,203.73,256.07,203.54,256.07ZM135.36,244l2.31,9.06a4.18,4.18,0,0,0-1.06,3.45,4.49,4.49,0,0,0-1.05-1.63c0-.36,0-.72,0-1.08,0-.9,0-1.8,0-2.69l-.12-6.27C135.37,244.53,135.36,244.25,135.36,244Z"/><path class="d29266bd-b7a4-46b4-afb5-f7c73c9b7f8d" d="M193.4,111.23c.88-1.5,3.11-2.68,4.84-2,15.93,6.55,25.07,21.31,33.16,35.73,2.47,4.41-3.54,8.4-6.63,5.33a3.82,3.82,0,0,1-2.88.08L205.73,145c-3.6-1.2-4.52-7.57,0-8.26l3.34-.5a137.31,137.31,0,0,0-15-19.81A4.41,4.41,0,0,1,193.4,111.23Z"/><path class="d29266bd-b7a4-46b4-afb5-f7c73c9b7f8d" d="M114.65,94.15a97.51,97.51,0,0,1,61.89,6.94c2.1,1,2.63,4,1.54,5.86a4.38,4.38,0,0,1-5.86,1.54,87.77,87.77,0,0,0-55.29-6.09C111.55,103.57,109.26,95.32,114.65,94.15Z"/><path class="d29266bd-b7a4-46b4-afb5-f7c73c9b7f8d" d="M161.54,73.92c1.27,2.75,3.2,4.86,6.69,4.17a8,8,0,0,0,3.11-1.41,3.73,3.73,0,0,0,1.94-.76l0,.17c.45,4.2,5.5,5.86,8,2.16l1.12-1.67a4.17,4.17,0,0,0,3.19,1.6c-.11.48-.21,1-.32,1.44a4.29,4.29,0,0,0,7.31,3.95l2.6,3.18L199.45,92c1.35,1.65,2.65,3.25,4.91,3.54,4.49.58,7.38-4.13,8.54-7.84a20.2,20.2,0,0,0,.84-5c4.35-7.43,8.25-15.15,10.42-23.39a4.07,4.07,0,0,0,4.39-1,10.24,10.24,0,0,0,2-10.09c-1.19-3.56-4-6-6.87-8.23a68.44,68.44,0,0,0-19.46-10.2,3.77,3.77,0,0,0-5.06,2.85,3.88,3.88,0,0,0-3.31,2.06l-11.4,25.18a4.31,4.31,0,0,0-2.3,1.72c-.58.88-1.17,1.75-1.75,2.62A5.3,5.3,0,0,0,178,61.53a189.71,189.71,0,0,1,9.83-25.45,5.51,5.51,0,0,0,.31-.65c.61-1.29,1.24-2.57,1.89-3.85a4.5,4.5,0,0,0,.5-2,4.34,4.34,0,0,0-1.29-6,15.6,15.6,0,0,0-17.84.78c-2.17-1.86-6.11-1.68-6.93,1.9q-5,21.63-10,43.26C153.45,74,158.92,76.28,161.54,73.92ZM178.2,35.45l.53-.11c-.14.32-.29.63-.43.94A3.7,3.7,0,0,0,178.2,35.45Z"/><g id="e0c76492-bf93-4013-a610-db0738a2503a" data-name="pdf24_12"><path d="M108.61,227.41c-3.29-1.67-3.79-6-5.23-9.42s-6.45-6.22-8.43-3.11c-.13,3,2,5.5,3.2,8.2s.72,6.85-2.21,7.44-4.78-2.84-5.77-5.63a193.83,193.83,0,0,0-35.83-61c1.08-1.76,3.74-.23,5,1.35,3.47,4.06,6.95,8.16,10.37,12.22,1.9-2.48-.36-5.91-2.52-8.16L55.06,156.55a27,27,0,0,1,18.75,22.18,1.46,1.46,0,0,0-.72,2.38,1.44,1.44,0,0,0,2.3-.94A125.11,125.11,0,0,1,93.1,210.69a6.06,6.06,0,0,0,5.19-7.26c1.35-.05,2.75-.14,4.1-.18A92.08,92.08,0,0,0,114,223.71a23.12,23.12,0,0,0-10-21.54,56.4,56.4,0,0,1,32-18c7.71-1.44,15.69-1.22,23.22-3.43s14.87-7.61,16-15.37a49,49,0,0,1-34.85,13.39c-15.28-.45-29.43-8-42-16.77-5.32-3.69-10.55-7.75-14.29-13.07s-5.9-12-4.42-18.35c1.81-7.71,8.7-13.43,16.23-15.82s15.64-2.12,23.53-1.44c-.49-2.35-3.24-3.61-5.68-3.65s-4.87.63-7.26.36c-4.19-.5-7.61-3.92-9.28-7.8S95.13,94,94.86,89.79c-.18-3.74.5-8.66,4.15-9.24s5.95,4.32,5.14,8-3.38,6.67-4.06,10.32,2.07,8.43,5.63,7.39c4.69-1.35,3.2-9.78,7.67-11.72,11.36-5,24.25-10,35.79-5.41a333.19,333.19,0,0,0,6.17-44.81c.59-8.2,1.58-17.76,8.57-22.08a193.11,193.11,0,0,0-7.75,51c21.77-1.53,44,10.32,54.81,29.25a115.11,115.11,0,0,1,20.15-43.81c3.29-4.37-.23-10.55-4.06-14.47a78.15,78.15,0,0,0-56.34-23.08c7.84-5.09,18.3-2.93,27,.45A114,114,0,0,1,223,35.42c4.19,3,8.25,6.5,10.59,11.09s2.7,10.6-.41,14.74a114.38,114.38,0,0,0-19.38,40.12c-1.71,6.49-2.39,14.52,2.75,18.84a112.24,112.24,0,0,1,21.14,23.63,8.24,8.24,0,0,1,1.76,4.37c-.05,4.28-5.86,5.72-10.1,5.14a37.77,37.77,0,0,1-14.74-5.5c7,.49,14,.94,21,1.44,1.94-2.61-1.71-6-5-6s-6.35,1.71-9.51,1.17a7.26,7.26,0,0,1-5.86-5.68,19.32,19.32,0,0,0,15.73,1.9c-17-23.49-44.22-38-72.25-45.44-13.75-3.7-29.35-5.64-41.57,1.71,1.4,1.4.77,3.79.81,5.81s2.26,4.38,3.75,3a10.11,10.11,0,0,1,13.43,0,12.47,12.47,0,0,0-7.66-8.42,54.29,54.29,0,0,0,23.8,5.22c9.51-.09,19.2-.18,28.22,2.84s17.31,9.7,19.74,18.89c5.09-3,11.31,2.75,12.62,8.52s.14,12.08,2.48,17.49c2.71,6.22,9.42,9.87,16.14,10.73s13.48-.63,20.06-2.12c5.41-1.22,10.37,5.23,8.79,10.55s-7.84,8.2-13.3,7.26-9.92-5.05-12.8-9.78c4.6,1,8.29,4.46,12.76,5.9s10.9-.77,10.63-5.45c-.18-3.38-3.87-5.55-7.25-5.64s-6.58,1.35-9.88,2.07c-11.22,2.48-23.75-3.6-28.66-14-1.76,2.75-6.77,2.16-7.8-1,2.52-.09,5-.18,7.57-.22.13-4.73.23-9.56-1.35-14s-5.14-8.52-9.78-9.24a19,19,0,0,1-12.58,19.34,46.05,46.05,0,0,1,12.17,26.64,8.64,8.64,0,0,1-.63,5.14c-1.13,2-3.43,2.84-5.55,3.56-9,3.11-18,6.17-27,9.28a7.22,7.22,0,0,0,6.58,2.75c3.83,1,3.61,6.77,1.4,10.06s-5.64,6.26-5.73,10.23a106.2,106.2,0,0,0,19.88-27c13.93.63,26,14,25.15,27.91-.67,12-1.39,24.11-2.11,36.15-.09,2.25.81,5.45,3,4.91a273.27,273.27,0,0,0,1.26-54,185,185,0,0,1,6.31,26.6c-4.41,6.26-3.11,15.87,2.84,20.69a9.89,9.89,0,0,1-6.22-2.75c1.22,4.82,1.36,11.58-3.42,12.89-1.49.41-3.07.09-4.56.5s-2.84,2.21-1.93,3.42l-6.9-2.7c.27,2.61,1,5.45,3.24,6.85s6-.13,5.68-2.7c1.9.58,3.79,1.17,5.73,1.75-15,9.47-34.35,6.77-51.84,3.84-3.7-.59-8.07-1-10.73,1.66s-6.76,1.76-10.23.77c-7.53-2.12-15.06-4.28-22.59-6.4-2-.59-4.55-2.39-3.38-4.15,12.72-.67,25.2,11.23,36.92,6.22.14-1.76-1.39-3.15-2.79-4.23-5.64-4.47-11.23-8.93-16.86-13.39a2,2,0,0,1-1.31,2.75c-2.66-1.94-5.36-3.88-8.07-5.82-.45,4.1-.94,8.21-1.39,12.31A40.41,40.41,0,0,1,123.3,237c-1.17.81-2.38,1.58-3.56,2.39a63.33,63.33,0,0,1-.54-19.34,19.54,19.54,0,0,1-10.59,7.35m92.77,38c-.95.22-1.8-.68-2.07-1.63a22.35,22.35,0,0,0-.59-2.84c-1.13-2.66-5.59-3.29-5.5-6.17a7.21,7.21,0,0,0,6.45,2.25,16.62,16.62,0,0,0-4.56-7.93l2.12-.14c.63,1.35,2.62,1.58,3.88.77a8.5,8.5,0,0,0,2.66-3.56,30.42,30.42,0,0,1-6.4-1.31c-1.09,1.13-2.26,2.48-2.12,4-2.93.77-5.19-3.42-8.16-3.15a8.08,8.08,0,0,0-3.11,1.39,11.6,11.6,0,0,1-10.28.68c-.49,1.49.81,2.84,2,3.83q5.9,5,11.77,10c1.13,1,2.3,2.08,2.3,3.52-3.25,0-6-2.43-8.34-4.69-2.57-2.43-5.14-4.91-7.71-7.35s-5.54-4.91-8.83-4.1c-.18-.49-.32-.94-.46-1.44a6.43,6.43,0,0,0-1.93,3.47c-.81,2.48-1.58,4.91-2.39,7.39a10.09,10.09,0,0,0-.68,3.61,3.37,3.37,0,0,0,1.94,3c2.93.41,5.86.82,8.83,1.22a15.28,15.28,0,0,1,6.14,1.8c2.11,1.31,4.77-1.08,7.21-.67,1.44.22,2.84,1.44,4.24.9.85-.32,1.35-1.22,2.2-1.62,1.13-.5,2.39.18,3.61.54a8.34,8.34,0,0,0,7.8-1.71m-24-107.24c.54-1.85,1-3.66,1.58-5.5,1,0,1.53,1.35,1.57,2.38,1,12.13-6.58,24.48-17.85,29,1.58,2.07,4.87,1.66,7.08.31s3.92-3.43,6.27-4.51c3.78-1.76,8.38-.63,12.21-2.3,4.78-2.11,6.72-8.16,5.82-13.25s-4-9.56-7-13.79a6.53,6.53,0,0,0-2.8-2.62c-1.21-.45-2.88.14-3,1.45-.27,1.89-3.11,1.48-4.77.54-8.21-4.6-16.73-9.56-21.37-17.72-1-1.85-3.07-2.88-5-3.83q-10.48-5.07-21.32-9.29a40.33,40.33,0,0,0-11.54-3.15,44.29,44.29,0,0,0-7.71.4c-5.32.59-10.73,1.18-15.64,3.25s-9.42,5.9-11,11c-1.44,4.78-.18,10.06,2.39,14.34s6.44,7.66,10.37,10.77c9.82,7.75,21,14.16,33.17,16.91s25.61,1.53,36.29-5a20.3,20.3,0,0,0,5.32-4.42,13.4,13.4,0,0,0,2.8-9.06,12.15,12.15,0,0,0,4.1,4.06m-22.27-35.66a8.35,8.35,0,0,0,1.13,3.65c2.07,4.28,4.28,8.75,8.15,11.54,4.42,3.16,9.7,5.77,15.11,5.27a22.78,22.78,0,0,0,6.22-1.75c3.78-1.67,7.57-4.11,9.15-7.94,1.71-4.14.49-9-1.54-13a23.16,23.16,0,0,0-8.29-9.6c-6.13-3.74-13.84-3.25-21-2.66A37.74,37.74,0,0,0,156,119.4a7.18,7.18,0,0,0-.86,3.07m25.6,103.05c-3.24,4.37-6.58,9.06-11.49,11.45a28,28,0,0,0-4.73,7.84c2.74.68,5.49,1.4,8.24,2.07a4,4,0,0,0-.76-4.68,17.75,17.75,0,0,0,14.11.81c1.71-.63,3.51.27,5.18,1s3.83,1.18,5.05-.13a5.39,5.39,0,0,1,7.71.18c4.42-5.73,5.05-13.48,5.5-20.69.09-1.67.09-3.56-1.13-4.65a24.48,24.48,0,0,1-5.32-6.85,2.55,2.55,0,0,1,3.34.5,7.28,7.28,0,0,1,1.39,3.38,4.06,4.06,0,0,0,1.72-4.15,12.85,12.85,0,0,0-1.94-4.32c-5.64-.05-11,2.38-15.51,5.86s-8,7.84-11.36,12.35M151.34,89.7a194.55,194.55,0,0,1,55,22.27,36.9,36.9,0,0,0,4,2.16c.41-7.3-4-14-9.1-19.2a62.23,62.23,0,0,0-45.08-18.22q-2.43,6.5-4.87,13m-24,128.83a7.81,7.81,0,0,0,4.69,8.38,2.48,2.48,0,0,1-3.74-.18,18.79,18.79,0,0,0-1.9,11c4.33,2,7.71,5.59,11.14,8.92a140,140,0,0,0,18,14.65,14.14,14.14,0,0,0-1-12.48A14.34,14.34,0,0,0,144,242.11c2.88,4.1,5.81,8.24,8.74,12.35q-9.25-8.19-18.52-16.32c-2.8-2.48-5.91-5.73-5.14-9.42,2.66,5.27,10.55,4.78,15.06,8.61,2.16,1.85,4.46,5,7.07,3.87.41-.85-.22-1.84-.94-2.48s-1.58-1.21-1.81-2.11.9-2,1.63-1.4c-3.3-7.76-6.54-15.51-9.83-23.31-1.58-3.74-3.2-7.66-3.2-11.72,0-1.21-.63-3-1.72-2.48-.09,1.13-.18,2.3-.27,3.43-1.3-1.71-2.61-3.47-3.92-5.18a2.38,2.38,0,0,1,3.79.4c5.68-.54,10.64-5.95,16.18-4.73a3,3,0,0,0,1.85.09c.54-.27.68-1.31.05-1.4.27-2-1.94-3.7-4-3.74s-4,.9-5.86,1.67-4.1,1.26-5.95.36c-3.29-1.58-6.94,1.12-9.6,3.65a79.12,79.12,0,0,1-.32,26.28m30,30.47a14.41,14.41,0,0,0,3.47-6.58c.68-3,.36-6.08.05-9.15-.32-3.29-.63-6.63-1-10-.81-8.21-1.67-16.59-5-24.16a4.07,4.07,0,0,0-5.19-3,42.64,42.64,0,0,0-10,2.12q7.65,16.16,14.83,32.5c1,2.34,2.12,4.78,2.17,7.35.13,3.74-1.72,8,.67,10.86M196,206.62a6.33,6.33,0,0,0,1.35-3.07h9.92a5.19,5.19,0,0,0,1.89,3.2,5.94,5.94,0,0,0-2.84-7.66,10.77,10.77,0,0,0-4.82-.63c-2.48,0-5.64.45-6.4,2.84a17.35,17.35,0,0,1-8.66-1.45c-1.35-.58-2.84.59-3.83,1.67-3.92,4.15-7.89,8.34-10.91,13.21s-5.09,10.46-4.91,16.14c.68,0,1.35,0,2,.09-.9-1.76,3-3.47,2-5.14-.64-1,.45-2.25,1.39-3,5.77-4.42,11.54-8.79,17.31-13.21,1.94-1.49,4.11-3,6.54-3m-42.1-98.22a2,2,0,0,0-.18-1,2,2,0,0,0-1.27-.54l-6.26-.81c-2-.27-4.15-.5-6,.41a6.8,6.8,0,0,0-3.38,4.5,20.72,20.72,0,0,0-.4,5.77,24.76,24.76,0,0,0,15.05,6.59c1-.77.72-2.3.41-3.52s-.32-2.84.81-3.34c1.76-.72,2.39-2.79,2.84-4.59-.54.18-1.13.4-1.67.63,0-1.36,0-2.71.05-4.11m-32,124.1c.22.86.9,1.94,1.71,1.54a32.64,32.64,0,0,0,.86-8.39c.09-4.24.18-8.52.27-12.8a52.09,52.09,0,0,0-.09-5.86,48.08,48.08,0,0,1,.76-14.61c-1.67-.49-2.84,1.67-3.15,3.39a55.71,55.71,0,0,0,0,21.72,5.12,5.12,0,0,1,.09,2.3,23,23,0,0,0-.45,12.71M109.15,203c1,2.39,2.07,4.73,3.29,7s2.75,4.33,4.1,6.49c1.35-1,.63-3.06.18-4.64a9.36,9.36,0,0,1,1.17-7.71,35.61,35.61,0,0,1,1.63-10.86,9,9,0,0,0-5,11.81,13.39,13.39,0,0,0-4.64-3.93c-.77-.36-1,1-.72,1.81m55.31,20.64c.5-2.43.95-4.87,1.44-7.34.27-1.49.54-3.25-.49-4.42s-.81-2.62-.81-4a14.59,14.59,0,0,0-4.69-10.33c-.9,1.94-.41,4.2.09,6.27.54,2.25,1.08,4.55,1.58,6.85,1,4.24,2,8.66,1.17,12.89.58.05,1.12.09,1.71.09m-8.52-34.35a16.77,16.77,0,0,1,2,6.63c.45.23.86.5,1.31.72a9.36,9.36,0,0,1,5.5-6.4c1.22-.5.41-2.52-.86-2.93s-2.66.09-3.92-.22a14.63,14.63,0,0,1-2.75-1.36,2.6,2.6,0,0,0-2.88,0c.54,1.17,1.08,2.39,1.62,3.56m-25.47-77.8c-.49-.63.54-1.44,1.35-1.44s1.85,0,2.21-.72a6.32,6.32,0,0,0-7-2.84c-1.89.54-3.61,2.34-3.25,4.28,1.9.63,3.39,2.12,5.05,3.24s3.84,2,5.68,1.18c-.09-.32-.18-.59-.27-.91-1.26-.94-2.48-1.84-3.74-2.79M89.27,213.21a1.07,1.07,0,0,0,1.26-1.08A61.13,61.13,0,0,0,77.64,190a26.57,26.57,0,0,0,3.25,7.75c2.79,5.18,5.59,10.32,8.38,15.46m107.38-21.68a6.61,6.61,0,0,0-6.27-.5,6.77,6.77,0,0,0-3.79,5.05,39.11,39.11,0,0,0,12.53-.9c.55-.41.09-1.22-.36-1.71a10.82,10.82,0,0,0-2.11-1.94m6.85,62.39a2.88,2.88,0,0,0,2.25,2,5,5,0,0,1,3.2-1c-1.53-1.4-1.31-3.83-.81-5.86s1.08-4.33-.13-6a33.94,33.94,0,0,0-4,7.34,5,5,0,0,0-.49,3.57m-32.59-54.28c-.86-1.44-1.76-2.84-2.62-4.24a4.81,4.81,0,0,0-1.22-1.44,2.26,2.26,0,0,0-3.11.72c-.76,1.45.27,3.25,1.54,4.29s2.84,1.93,3.47,3.47c.13-.9,1.85-.59,2.25-1.45.23-.4,0-.94-.31-1.35M99.55,83.21a17.74,17.74,0,0,0-1.8,10.54c1.21-.13,2-1.3,2.52-2.38a10.48,10.48,0,0,0,1.4-4.38,4.08,4.08,0,0,0-2.12-3.78M126.37,240a6.86,6.86,0,0,0,.27,3.6c1.94,1.31,3.92,2.57,5.86,3.88.41.22.81.5,1.26.36a1.16,1.16,0,0,0,.68-1.44,3.61,3.61,0,0,0-1.08-1.4c-1.13-1-2.26-2-3.38-3.07-1.18-.63-2.39-1.3-3.61-1.93m29.8-128.88a7.87,7.87,0,0,0,4.64-2.16c1-1,1.76-2.75.81-3.88a10.68,10.68,0,0,0-2.12.36,5.15,5.15,0,0,0-3.33,5.68m-42.24-7.75a3.53,3.53,0,0,0-.68-3.79c-1,2.61-2,5.23-3,7.84a2.35,2.35,0,0,0,3.25.45,4.52,4.52,0,0,0,.45-4.5M93.82,226a2.71,2.71,0,0,0,.81,1.48,1,1,0,0,0,1.49-.18,1.72,1.72,0,0,0,0-.81,12.79,12.79,0,0,0-3.43-6.85c-.45,0-.58.59-.54,1a8.83,8.83,0,0,0,.32,1.08c.4,1.4.85,2.84,1.3,4.24"/><path d="M183.8,238.67a1.37,1.37,0,0,0,1.17-.18l-1.71-2a1.68,1.68,0,0,0-1.76,2.21h2.12"/><path d="M134.44,208.07a3.23,3.23,0,0,0-3.2-2.39c.67.86,1.4,1.72,2.12,2.57a1.39,1.39,0,0,0,1.12-.13"/><path d="M135.25,214.38a2,2,0,0,0-3.11-1.44,12.91,12.91,0,0,0,2.88,2.79c.14-.4.27-.85.41-1.3"/><path d="M184.88,253.15a1.62,1.62,0,0,0-1.31-.9c0,.4.05.85.05,1.3a7.63,7.63,0,0,0,3.51,1.58c-.72-.67-1.48-1.3-2.2-1.94"/><path d="M122.63,84.92a9,9,0,0,1-2.17,1.35c.36.27.77.5,1.13.77a18.12,18.12,0,0,1,3.92-1.94,6.33,6.33,0,0,0-3-.32"/><path d="M193.58,264.19c.23.59,1.08-.09,1.22-.72a7.66,7.66,0,0,1-2.53-3.42c-1.08,1.26.18,3.11,1.31,4.23"/><path d="M190.51,234.89a5.39,5.39,0,0,0-2.52-3.11c.5,1.63.95,3.25,1.35,4.92a1.75,1.75,0,0,0,1.36-1.85"/><path d="M221,233.86c.77,1.12.86,2.79,2,3.51a2,2,0,0,0,2.84-1.31c-.9-.85-1.8-1.66-2.7-2.52a2.32,2.32,0,0,0-1.4-.77c-.54,0-1.08.64-.77,1.09"/><path d="M45.73,172.78c-.14-1.13-1.72-1.45-2.8-1s-1.94,1.27-3.06,1.49A2.77,2.77,0,0,0,41,175.71c.72-.73,1.85-.73,2.84-1s2.07-1,1.94-2"/><path d="M148,115.62c.54-1.13-.68-2.48-1.94-2.57a5.92,5.92,0,0,0-3.47,1.3c-1,.68-.54,2.53.63,3a4.35,4.35,0,0,0,3.6-.63,2.75,2.75,0,0,0,1.18-1.08"/><path d="M72.68,152.67A2.55,2.55,0,0,0,73,151.5a2.29,2.29,0,0,0-.63-1.35,7.14,7.14,0,0,0-4.1,7.34c2.16-.49,3.43-2.75,4.37-4.82"/><path d="M43.61,155.77a3.52,3.52,0,0,1,1.08-1.53,7.53,7.53,0,0,0-7.8-2.39,2.56,2.56,0,0,1-2.25,1.44c.45.86.85,1.67,1.3,2.48h7.49"/><path d="M170.41,123.28c.72,1.89,2.89,3.83,4.55,2.7,1.94-1.35.32-4.41.95-6.62-2-1-4.6-1.85-6.36-.5a12.45,12.45,0,0,0,.86,4.42"/><path d="M54.2,178c-1,2.48-2.07,5.18-1.67,7.84a16.41,16.41,0,0,0,4.87-9.19,1.29,1.29,0,0,0-1.89-.54A3.77,3.77,0,0,0,54.2,178"/><path d="M128.22,255.18c0,.85,0,1.67,0,2.52,2.8,1.81,5.73,3.7,9,4.06a16.35,16.35,0,0,0-4.37-5.05c-1.36-1-3-1.94-4.69-1.53"/><path d="M88.86,87.26a1.22,1.22,0,0,0,1.45,0,8.27,8.27,0,0,1,4.28-8.2c-.5-1-2-.68-2.89,0S90,80.86,89,80.82a6.64,6.64,0,0,1-.72,4.37,2,2,0,0,1,.63,2.07"/><path d="M57.58,138a16.43,16.43,0,0,1,1.53,9.47c-.13.76.59,1.35,1.27,1.71a9.16,9.16,0,0,0-1.94-12.49,1.5,1.5,0,0,0-.86,1.31"/><path d="M155.62,10c.95,2.12-1.71,4.64-.58,6.67,1.62,3.07-.41,7.12,1.08,10.23a22.45,22.45,0,0,0,.54-16.76l-1-.14"/><path d="M51.36,145.28a7.42,7.42,0,0,0-2.07-5.73,18.67,18.67,0,0,0-5.1-3.6c-.85-.5-2.16-.77-2.52.09-.41.67.27,1.48.9,2,2.93,2.43,5.86,4.82,8.79,7.26"/><path d="M236.54,66.51l-1.08,3a4.41,4.41,0,0,1,1.94-.77,1.31,1.31,0,0,1-.5,2c.41,1.31.81,2.62,1.26,3.92A68.5,68.5,0,0,1,243,63.86a3.74,3.74,0,0,0-3.74,2.65h-2.93"/><path d="M203.9,133.42a7.55,7.55,0,0,1-5.72,8.61,4.36,4.36,0,0,0-1.85.5,1.21,1.21,0,0,0-.63,1.62,9.82,9.82,0,0,0,8-1.67,6.58,6.58,0,0,0,2.16-7.48c-.36-.86-1-1.67-1.94-1.58"/><path d="M143.41,231.51c.27-3.24-2.39-5.95-4.87-8.16-1.71-1.53-3.47-3.06-5.23-4.64-.81-.72-2.12-1.49-2.93-.72-.36,1.22.68,2.34,1.58,3.15,3.83,3.47,7.62,7,11.45,10.37"/><path d="M218.51,70.36c3.29-3.34,5.32-7.75,6.9-12.22.76-2.21,1.48-4.46,2.11-6.71-1.8,0-2.84,2-3.47,3.74-1.85,5-3.69,10.1-5.54,15.19"/><path d="M163.56,255.27a12.45,12.45,0,0,0,6.67,6.85c-.09-.59.59-1.08,1.22-1.08a3.24,3.24,0,0,1,1.66.63c2,1.22,4,2.48,5.91,3.7,1-.64.23-2.26-.68-3.07A39.4,39.4,0,0,0,164,254.1a8.12,8.12,0,0,0-.45,1.17"/><path d="M197.32,229.53a14.11,14.11,0,0,0,4.73-1.22,7.71,7.71,0,0,0,4.15-6.26c.05-.59-.49-1.4-.9-1-.09.45-.18.86-.27,1.27a13.56,13.56,0,0,1-8.7,4.05c-.14-.4-.72-.27-1.13-.13a9.34,9.34,0,0,1-7.52-.32c-1-.49-2.35.63-2.26,1.81a2.87,2.87,0,0,0,2.21,2.38,1.27,1.27,0,0,0-.32,1.58c.95-1.89,4.6.18,5.82-1.58,1.4-.18,2.79-.4,4.19-.58"/><path d="M198,276.45c-7.57-.31-15.95.55-21.86-4.23-.72,2.34-3.83,2.66-6.31,2.57-11.95-.5-23.94-.41-35.88.13-1.35.09-2.89.23-3.79,1.26s-.4,3.16.95,3.07a313.42,313.42,0,0,1,48.73.95,167.83,167.83,0,0,0,35.92-.32A61.31,61.31,0,0,0,198,276.45"/></g></svg>