<svg id="9278f7dc-2dd7-466b-b542-6e349d98fd92" data-name="Layer 1" xmlns="http://www.w3.org/2000/svg" viewBox="0 0 300 300"><defs><style>.\39 eb660b6-40fa-4e91-adcf-6f9a72248db6{fill:#fff;}.\39 eced82d-b013-4ac5-a91f-7f4ad25c2ffc{fill:#52df84;}.ee5ada6e-10a2-4258-b47f-6d93fe6044ad{fill:#e8d1a1;}.d9b43ae6-7b5e-4836-bcec-1aef683f0a30{fill:#e6e6e6;}</style></defs><path class="9eb660b6-40fa-4e91-adcf-6f9a72248db6" d="M136.43,93.37a106.67,106.67,0,0,1,0-13.85,11,11,0,0,0-4.78-9.37,10.51,10.51,0,0,0-2.79-6.36,22.63,22.63,0,0,0-4.69-3.86l0-.15v-.37c.26-5.73-4.62-11.3-10.54-11.16l-7.61.19a8.17,8.17,0,0,0-1.94-3,8.09,8.09,0,0,0-3.44-2.33,8.12,8.12,0,0,0-4.18-1l-2.93.34a11.18,11.18,0,0,0-5,2.72l-1.79,2.19a10.66,10.66,0,0,0-.82,1.57l-8.39.2c-4.2.1-8.85-.3-12.61,2-4,2.43-5.83,6.22-6.33,10.64-.17,1.49-.22,3-.31,4.51a176.48,176.48,0,0,0-.45,17.66A112.52,112.52,0,0,0,59,96.35c.42,2.85,1,5.67,1.32,8.52.64,11.09-2.83,22.42,1,33.21A13.15,13.15,0,0,0,63.88,143a10.54,10.54,0,0,0,6.18,3.13,11.11,11.11,0,0,0,8.3-2.05c2.66,0,5.36.21,8,.28l12.05.34,19.78.54a12.42,12.42,0,0,0,5.08.11c5.46-.28,10.65-5.11,10.61-10.73a1.48,1.48,0,0,0,0-.21,7.51,7.51,0,0,0-.3-3.44A13.12,13.12,0,0,1,133,129c0-.66.05-1.31.12-2,.45-2,1-3.9,1.64-5.84a68.62,68.62,0,0,0,2.33-10.09C138,105.23,137.09,99.25,136.43,93.37Z"/><path class="9eced82d-b013-4ac5-a91f-7f4ad25c2ffc" d="M112.37,85a55.31,55.31,0,0,0-1.52-8.49c-.68-2.61-1.47-5.27-3.72-6.92-2-1.46-4.54-1.62-6.94-1.66l-8.71-.12-4.36,0c-1.45,0-3.08-.18-4.42.54-2.94,1.59-2.37,5-2.15,7.7a161.67,161.67,0,0,0,2.81,19.72c.49,2.36,3.14,2.71,4.87,1.51a3,3,0,0,0,5.25.28,22.9,22.9,0,0,0,2-4.39c.35.79.71,1.57,1.09,2.34a3,3,0,0,0,5.22.1,33.72,33.72,0,0,0,1.8-4.11l1.09,3.34a3.12,3.12,0,0,0,2.82,2.26c2.44.35,4.34-1.82,4.9-4C113.09,90.51,112.63,87.59,112.37,85Zm-13.26.54c-.38-1.17-.72-2.36-1-3.56a6.55,6.55,0,0,1,1.33-2.2.27.27,0,0,0,.08-.07A23.79,23.79,0,0,1,99.11,85.55ZM95.29,73.91l2.1,0a8.47,8.47,0,0,0-1.51,1c-1.77-1-4.78,0-4.74,2.51,0,2,.09,4.05,0,6.1a.61.61,0,0,0,0,.12,70.79,70.79,0,0,1-.9-9.11,3.26,3.26,0,0,0-.12-.76Z"/><g id="8add46d4-755e-4e1f-8b1a-de72ed972253" data-name="pdf24_7"><path d="M86.29,127.8c.86,0,1.69,0,2.51-.08l11.3-.26c2.26,0,4.64,0,6.57,1.08-.77,1.09-2.33,1.16-3.63,1.1a174.24,174.24,0,0,0-19.92.39c-1.82.15-4.07.11-4.93-1.49a45.79,45.79,0,0,1,8.1-.74"/><path d="M111.66,122.63c-.31-.8-1.5.19-2.32,0a27,27,0,0,0-6.84-.48q-9.65.19-19.28.33c-1.81,0-3.94-.11-5-1.59a15.77,15.77,0,0,1,4.4-.49c7-.12,14-.21,21-.3,3.08-.06,6.23-.07,9.08,1a.78.78,0,0,1,.38.2c.3.29.12.86-.24,1.11a2.44,2.44,0,0,1-1.25.26"/><path d="M89.57,105.15c6.51.16,13,.28,19.57.43a23.31,23.31,0,0,1,5.92.62c.75.21,1.62.73,1.5,1.49q-18.39-.34-36.85-.63c-.13-.92,1-1.44,1.93-1.58a43.72,43.72,0,0,1,7.93-.33"/><path d="M84.35,113.69c-1.79.13-3.6.22-5.42.34,0-.44-.06-.86-.11-1.3A14,14,0,0,1,85,111.67q13-.23,26.05.4c1.27.06,2.7.21,3.49,1.18a14.37,14.37,0,0,1-5.72.65l-20.07-.47a6.77,6.77,0,0,0-3.49.53c-.18-.29-.59-.29-.94-.27"/><path d="M102.78,93.17a1.91,1.91,0,0,0-.52,1.1c0,.41.31.83.7.75.05-.61.94-.59,1.58-.58,1.52,0,2.72-1.34,3.66-2.56.64-.09.72.93.51,1.56s-.22,1.62.45,1.66a1,1,0,0,1,.8,1.48q-8.31.27-16.53.86c-.67,0-.54-1-.2-1.56l13-19.67a4.3,4.3,0,0,1,1.88-1.87c-.42,3.61-2.58,6.78-4.69,9.76s-4.21,6-6.32,9c-.48.69-1,1.38-1.45,2.06.93-.11,1.82-.18,2.74-.26a1.94,1.94,0,0,0,1.59-.7,70.46,70.46,0,0,1,7.28-10.16c1,1.39-.09,3.24-1.09,4.62s-2.25,3-3.35,4.48"/><path d="M98.24,55.35a5.36,5.36,0,0,0-3.46.72,3.37,3.37,0,0,0-.48,4.19A6.77,6.77,0,0,0,98,62.84a4.27,4.27,0,0,1-1.73,2.89c3.23.12,6.47.28,9.71.4,2.22.11,4.78.35,6.11,2.15.91,1.26.94,2.91,1,4.47q.14,12.81.23,25.64c-1.11.64-2-1.06-2.14-2.3-1-8.91-2-17.92-.66-26.82.13-.92-1-1.51-1.86-1.24a4.11,4.11,0,0,0-2,1.8Q96.89,84,88.6,99c-.35.63-1.44.26-1.61-.44a2.81,2.81,0,0,1,.65-2c6-9.42,12-18.8,18-28.22a4.63,4.63,0,0,0-5,1.65c-.62.37-1.06-.65-1-1.35C92.8,70.4,92,80.51,86,84.08a140.69,140.69,0,0,1,9.53-16.62c-2.36-.68-4.57,1.6-5.77,3.8S87.47,76.08,85.15,77a23.21,23.21,0,0,1,5.35-8.53,3.73,3.73,0,0,0-5.39,2c-.38-.77-.8-1.51-1.18-2.25-1-.3-1.6,1-1.61,2C83.26,69.9,84,71,83.94,72A16.79,16.79,0,0,1,83,74.69c-.41,1.61.19,3.27.51,4.87s.25,3.59-1.13,4.55a5.69,5.69,0,0,1,.9,7.48c0,1,1.73.45,2.3-.43L99.24,70.83c-2.56,9.71-11.92,16.71-14.33,26.45-.58.21-1.16-.28-1.53-.76-1.51-2-1.79-4.74-2-7.28-.2-2.23-.4-4.46-.63-6.69-.43-4.74-.88-9.51-.1-14.2a2.83,2.83,0,0,1,.67-1.57A2.58,2.58,0,0,1,83,66.3l10.77-.75a23.21,23.21,0,0,1-3-10.12,133,133,0,0,0-22,.12,1.27,1.27,0,0,0-1.4,1.66q.49,38.35,1,76.73c0,1.87.69,4.36,2.54,4.24a399.53,399.53,0,0,1,56.22.56c.28,1-1.2,1.44-2.22,1.35a402.59,402.59,0,0,0-57.91-.24c-1,.08-1.35-1.23-1.37-2.21q-1.29-39.91-1.25-79.89A2.44,2.44,0,0,0,64,56.38c-.4-.52-1.13-.59-1.69-.86s-1-1.13-.48-1.53A90.22,90.22,0,0,1,90,53.16c2,.22,4.84-.2,4.76-2.2a178.23,178.23,0,0,0-29.95-.79c-1.47.1-3.4.63-3.45,2.09-1,28.13-.88,56.31.43,84.38.14,2.93.25,6-1.28,8.59a40.84,40.84,0,0,1-1.07-7.87q-1.55-23-1.64-45.93c0-13.19.27-26.36.55-39.54a5.36,5.36,0,0,1,.72-3c1-1.31,2.89-1.44,4.54-1.4l24.78.47c.6,0,1.43-.2,1.36-.8-.25-3.44,3.42-6.39,6.85-6.1s6.24,3,7.45,6.27c4-.21,7.93-.45,11.88-.66a6.48,6.48,0,0,1,4.11.71,6.59,6.59,0,0,1,1.52,1.71q8.09,12,16.22,24.07c1,1.42,1.66,3.81.05,4.48a239,239,0,0,1-19.46-27.24c-1.53-2.44-5.21-1.82-8-.85a22.66,22.66,0,0,0,5,8.32c.69-.65.39-1.83-.12-2.64a4.71,4.71,0,0,1-1.17-2.53c.06-1,1.55-1.68,2-.82a81,81,0,0,0,13.24,20.23c1.47,1.65,3.14,3.52,3.06,5.78q-1.17,31.71-2.27,63.43c0,.85-1.19,2-1.44,1.14a404.8,404.8,0,0,1,1-59.6c.47-5-3-9.34-6.31-13s-6.4-7.24-9.6-10.89a10.7,10.7,0,0,0-2.83-2.5,11.07,11.07,0,0,0-4.61-.82l-8.16-.21m10.41-2.7c.48-1.13-.85-2.11-2-2.42a13.54,13.54,0,0,0-10.32,1.39c-.57,0-.73.88-.34,1.27a2.15,2.15,0,0,0,1.61.35c3.7-.22,7.36-.4,11.06-.59M93,45.08a2.36,2.36,0,0,0-.61,1.74,1.56,1.56,0,0,0,.38,1,2.42,2.42,0,0,0,1.72.67,9.1,9.1,0,0,0,6-1.76c.12-1.53-1.85-2.23-3.37-2.42S94,44.05,93,45.08"/><path d="M128.76,147.09c1.45-.26,2.9-.54,4.34-.87,1-1.52,2.07-3,3.16-4.39q.18-30.68,2.51-61.29l-1.47-1.46c-1.84,4.07-2,8.64-2.12,13q-.75,24.57-1.53,49.15c0,1.24-.17,2.69-1.24,3.37a3.93,3.93,0,0,1-2.08.41q-29.09,0-58.11-.09c-4.58,0-9.51.11-13.21,2.87a102,102,0,0,1,14-.66Z"/></g><path class="9eb660b6-40fa-4e91-adcf-6f9a72248db6" d="M157.23,93.37a104.93,104.93,0,0,0,0-13.85,11,11,0,0,1,4.78-9.37,10.45,10.45,0,0,1,2.79-6.36,22.63,22.63,0,0,1,4.69-3.86l0-.15c0-.12,0-.24,0-.37-.25-5.73,4.63-11.3,10.55-11.16l7.61.19a9.68,9.68,0,0,1,5.37-5.31,8.16,8.16,0,0,1,4.19-1l2.93.34a11.15,11.15,0,0,1,4.94,2.72l1.8,2.19a10.66,10.66,0,0,1,.82,1.57l8.39.2c4.19.1,8.85-.3,12.6,2,4,2.43,5.83,6.22,6.34,10.64.17,1.49.21,3,.31,4.51a176.48,176.48,0,0,1,.44,17.66,112.51,112.51,0,0,1-1.13,12.44c-.42,2.85-1,5.67-1.33,8.52-.64,11.09,2.83,22.42-1,33.21a13.17,13.17,0,0,1-2.64,4.88,10.49,10.49,0,0,1-6.17,3.13,11.11,11.11,0,0,1-8.3-2.05c-2.66,0-5.36.21-8,.28l-12,.34-19.78.54a12.42,12.42,0,0,1-5.08.11c-5.46-.28-10.65-5.11-10.61-10.73v-.21a7.65,7.65,0,0,1,.31-3.44,14.53,14.53,0,0,0,.53-1.9c0-.66,0-1.31-.12-2-.45-2-1.05-3.9-1.64-5.84a67.39,67.39,0,0,1-2.34-10.09C155.67,105.23,156.58,99.25,157.23,93.37Z"/><path class="9eced82d-b013-4ac5-a91f-7f4ad25c2ffc" d="M181.24,93.07c.56,2.17,2.46,4.34,4.89,4A3.12,3.12,0,0,0,189,94.8l1.09-3.34a33.72,33.72,0,0,0,1.8,4.11,3,3,0,0,0,5.21-.1c.39-.77.75-1.55,1.1-2.34a22.26,22.26,0,0,0,2,4.39,3,3,0,0,0,5.26-.28c1.73,1.2,4.38.85,4.87-1.51A161.67,161.67,0,0,0,213.12,76c.21-2.73.79-6.11-2.15-7.7-1.34-.72-3-.56-4.43-.54l-4.35,0-8.71.12c-2.4,0-4.95.2-6.94,1.66-2.25,1.65-3,4.31-3.73,6.92A56.53,56.53,0,0,0,181.3,85C181,87.59,180.58,90.51,181.24,93.07Zm12.91-13.35.09.07a6.55,6.55,0,0,1,1.33,2.2c-.3,1.2-.63,2.39-1,3.56A24.3,24.3,0,0,1,194.15,79.72Zm9.44-5.88a3.87,3.87,0,0,0-.11.76,72.62,72.62,0,0,1-.9,9.11.61.61,0,0,1-.05-.12c-.09-2,0-4.1,0-6.1,0-2.5-3-3.51-4.73-2.51a8.2,8.2,0,0,0-1.52-1l2.11,0Z"/><g id="7c399512-415f-4e17-b597-fb88a4c05cd2" data-name="pdf24_7"><path d="M207.38,127.8c-.86,0-1.69,0-2.52-.08l-11.29-.26c-2.26,0-4.65,0-6.57,1.08.77,1.09,2.33,1.16,3.63,1.1a174.28,174.28,0,0,1,19.92.39c1.81.15,4.07.11,4.93-1.49a45.88,45.88,0,0,0-8.1-.74"/><path d="M182,122.63c.32-.8,1.5.19,2.32,0a27.11,27.11,0,0,1,6.85-.48q9.65.19,19.28.33c1.81,0,3.94-.11,5-1.59a15.84,15.84,0,0,0-4.41-.49c-7-.12-14-.21-21-.3-3.09-.06-6.23-.07-9.09,1a.79.79,0,0,0-.37.2c-.31.29-.13.86.23,1.11a2.49,2.49,0,0,0,1.25.26"/><path d="M204.1,105.15c-6.51.16-13,.28-19.57.43a23.31,23.31,0,0,0-5.92.62c-.76.21-1.63.73-1.5,1.49q18.39-.34,36.85-.63c.12-.92-1-1.44-1.94-1.58a43.61,43.61,0,0,0-7.92-.33"/><path d="M209.32,113.69c1.78.13,3.6.22,5.42.34,0-.44.06-.86.1-1.3a14,14,0,0,0-6.2-1.06c-8.69-.15-17.36,0-26.06.4-1.26.06-2.69.21-3.48,1.18a14.37,14.37,0,0,0,5.72.65l20.07-.47a6.73,6.73,0,0,1,3.48.53c.18-.29.6-.29.95-.27"/><path d="M190.89,93.17a2,2,0,0,1,.52,1.1c0,.41-.32.83-.7.75-.06-.61-1-.59-1.58-.58-1.53,0-2.72-1.34-3.66-2.56-.64-.09-.73.93-.51,1.56s.22,1.62-.45,1.66a1,1,0,0,0-.8,1.48q8.31.27,16.53.86c.67,0,.54-1,.2-1.56l-13-19.67a4.37,4.37,0,0,0-1.89-1.87c.43,3.61,2.58,6.78,4.7,9.76s4.2,6,6.32,9c.47.69.94,1.38,1.45,2.06-.93-.11-1.82-.18-2.75-.26a1.93,1.93,0,0,1-1.58-.7,69.77,69.77,0,0,0-7.29-10.16c-1,1.39.1,3.24,1.1,4.62s2.25,3,3.35,4.48"/><path d="M195.42,55.35l-8.16.21a11.09,11.09,0,0,0-4.61.82,11,11,0,0,0-2.83,2.5q-4.8,5.48-9.6,10.89c-3.29,3.71-6.78,8-6.3,13a406.18,406.18,0,0,1,1,59.6c-.26.83-1.41-.29-1.45-1.14q-1.11-31.73-2.26-63.43c-.09-2.26,1.59-4.13,3.05-5.78a80.78,80.78,0,0,0,13.25-20.23c.41-.86,1.9-.16,2,.82a4.71,4.71,0,0,1-1.17,2.53c-.51.81-.82,2-.13,2.64a22.55,22.55,0,0,0,5.06-8.32c-2.77-1-6.45-1.59-8,.85A239,239,0,0,1,155.84,77.6c-1.62-.67-.91-3.06,0-4.48q8.12-12,16.21-24.07a6.82,6.82,0,0,1,1.53-1.71,6.43,6.43,0,0,1,4.1-.71c4,.21,7.9.45,11.89.66,1.21-3.23,4-6,7.45-6.27s7.1,2.66,6.84,6.1c-.07.6.77.81,1.37.8l24.78-.47c1.65,0,3.56.09,4.53,1.4a5.28,5.28,0,0,1,.72,3c.29,13.18.6,26.35.56,39.54q-.12,23-1.65,45.93a40.82,40.82,0,0,1-1.06,7.87c-1.53-2.55-1.43-5.66-1.28-8.59,1.31-28.07,1.44-56.25.43-84.38-.06-1.46-2-2-3.45-2.09a178.23,178.23,0,0,0-30,.79c-.08,2,2.76,2.42,4.76,2.2a90.22,90.22,0,0,1,28.2.83c.52.4.11,1.23-.49,1.53s-1.29.34-1.68.86a2.54,2.54,0,0,0-.3,1.37q.06,40-1.24,79.89c0,1-.39,2.29-1.38,2.21a402.6,402.6,0,0,0-57.91.24c-1,.09-2.49-.36-2.21-1.35a399.4,399.4,0,0,1,56.21-.56c1.85.12,2.52-2.37,2.54-4.24q.5-38.37,1-76.73a1.68,1.68,0,0,0-.37-1.36,1.72,1.72,0,0,0-1-.3,132.84,132.84,0,0,0-22-.12,23.22,23.22,0,0,1-3,10.12l10.78.75a2.59,2.59,0,0,1,1.7.48,2.75,2.75,0,0,1,.66,1.57c.79,4.69.33,9.46-.09,14.2-.23,2.23-.43,4.46-.63,6.69-.26,2.54-.53,5.25-2.05,7.28-.36.48-.94,1-1.53.76-2.4-9.74-11.76-16.74-14.32-26.45l13.65,20.33c.57.88,2.34,1.48,2.3.43a5.7,5.7,0,0,1,.89-7.48c-1.37-1-1.44-2.93-1.13-4.55s.93-3.26.52-4.87a16.79,16.79,0,0,1-.93-2.72c-.07-1,.68-2.07,1.61-1.81,0-1-.66-2.3-1.6-2-.38.74-.8,1.48-1.18,2.25a3.73,3.73,0,0,0-5.39-2A23.34,23.34,0,0,1,208.52,77c-2.32-.9-3.38-3.52-4.57-5.72s-3.42-4.48-5.78-3.8a139.38,139.38,0,0,1,9.54,16.62c-6.05-3.57-6.85-13.68-13.65-15.43.05.7-.38,1.72-1,1.35A4.64,4.64,0,0,0,188,68.35c6,9.42,12,18.8,18,28.22a2.81,2.81,0,0,1,.65,2c-.17.7-1.27,1.07-1.61.44q-8.3-15-18-29.2a4,4,0,0,0-2-1.8c-.87-.27-2,.32-1.86,1.24,1.32,8.9.33,17.91-.66,26.82-.15,1.24-1,2.94-2.14,2.3q.08-12.83.23-25.64a7.8,7.8,0,0,1,1-4.47c1.33-1.8,3.9-2,6.12-2.15,3.24-.12,6.47-.28,9.71-.4a4.24,4.24,0,0,1-1.73-2.89,6.78,6.78,0,0,0,3.65-2.58,3.35,3.35,0,0,0-.48-4.19,5.35,5.35,0,0,0-3.46-.72M185,52.65c3.7.19,7.36.37,11,.59a2.14,2.14,0,0,0,1.61-.35c.4-.39.24-1.28-.33-1.27A13.54,13.54,0,0,0,187,50.23c-1.17.31-2.5,1.29-2,2.42m15.61-7.57c-1-1-2.65-.93-4.07-.78s-3.5.89-3.37,2.42a9.08,9.08,0,0,0,5.94,1.76,2.44,2.44,0,0,0,1.73-.67,1.61,1.61,0,0,0,.37-1,2.35,2.35,0,0,0-.6-1.74"/><path d="M164.91,147.09c-1.45-.26-2.9-.54-4.34-.87-1-1.52-2.07-3-3.17-4.39q-.17-30.68-2.5-61.29l1.47-1.46c1.84,4.07,2,8.64,2.12,13q.75,24.57,1.53,49.15c0,1.24.16,2.69,1.24,3.37a3.93,3.93,0,0,0,2.08.41q29.08,0,58.11-.09c4.58,0,9.51.11,13.2,2.87a101.88,101.88,0,0,0-14-.66Z"/></g><path class="9eb660b6-40fa-4e91-adcf-6f9a72248db6" d="M168,181.85a49.68,49.68,0,0,0,8.79-13.41c4.23-9.8,6-21.38,1.41-31.38-5.42-11.86-18.61-12.11-29.71-10a67,67,0,0,0-25.77,11C109,143.74,98.86,157,98.31,172.24c-1.82,4-2.37,8.22.12,12.5-.12-.2.59.85,1.29,1.78a27,27,0,0,0-.85,7.6A25.77,25.77,0,0,0,103.72,208l.08.11a68.42,68.42,0,0,0-11.08-.79c-7.94.18-14.56,3.86-17.16,11.64-.23.69-.41,1.4-.6,2.1,0,.18-.45,1.49-.31,1.24a8.72,8.72,0,0,1-1.7,2.47c-.86.94-1.74,1.84-2.62,2.75-10.53-.8-19.07,9.18-19.76,19.08-.75,10.77,7.55,19.82,16.93,23.7s20.61,3.06,30.53.95c1.43-1,2.84-2,4.22-3.08,4-3.16,7.41-8.78,13.18-7.34a4.79,4.79,0,0,1,1.3.54l.24-.23a23.75,23.75,0,0,0,20.74,6.08,22.89,22.89,0,0,0,10.39-5.08,26,26,0,0,0,5.66-4c7.25-6.65,11.29-20.95.86-26.85l-.33-.17c-.5-5-2.49-9.54-7.43-12.36a16.86,16.86,0,0,0-2.11-1,7.72,7.72,0,0,0,.92-3.44,7,7,0,0,0,1.83.48c4.15.49,7.3-1.89,8.74-5.7.41-1.09.81-2.19,1.21-3.29,5.59-2.43,10.3-6.72,11.81-12.9a8.61,8.61,0,0,0-3.2-8.82l.41-.55C167,183,167.47,182.41,168,181.85Zm-29.29,52.64-.65-.2c.22-.09.45-.18.67-.29C138.7,234.17,138.69,234.33,138.68,234.49Z"/><path class="ee5ada6e-10a2-4258-b47f-6d93fe6044ad" d="M175.39,126.61c-8.42-2-16.88-3.72-25.54-2.39-7.83,1.21-14.78,5.38-21.41,9.48-10.87,6.72-21.39,14.33-26.83,26a8.43,8.43,0,0,0-1.6,4.11,7.83,7.83,0,0,0,2.67,7.44,3,3,0,0,1,2.69-2.23c3.53-.32,7-1,10.53-1.32q.93-.91,1.89-1.8c-3,.24-5.09-4-2-5.35A38.84,38.84,0,0,1,129,157a86,86,0,0,1,9.5-5.56,15.38,15.38,0,0,0,.19,7.24,35.62,35.62,0,0,1,8.12,4.93,83.4,83.4,0,0,1,7.07,5.86,2.9,2.9,0,0,1,1.56.37c4.09,2.2,4.58,6.13,3.86,10.06a9.77,9.77,0,0,1-1.26,4.39,2.65,2.65,0,0,1-.93,1,8.8,8.8,0,0,0,4.65,1.71c6.62.45,9.88-5.34,12.1-10.57a94.82,94.82,0,0,0,5-14.69c1.73-7.1,2.85-15.27.31-22.15a7.58,7.58,0,0,0,1.94-4.23C181.54,131.56,179.3,127.55,175.39,126.61Z"/><path class="d9b43ae6-7b5e-4836-bcec-1aef683f0a30" d="M158,234c-1.59-5.32-3-9.93-6.77-14.2a4.54,4.54,0,0,1-.42-5.66,16.9,16.9,0,0,0-15.19,1.16,18.29,18.29,0,0,0-8.24,19.37L126,235a72.05,72.05,0,0,1-12.11-.17c-.79-.15-1.58-.34-2.35-.55-1-.61-1.67-1.06-.62-.17l-.18,0c-4-2.85-8-4.29-13.18-3.59-5,.67-10.69,3.55-12.92,8.44C84.15,240,83.52,241,83,242c-.16.18-.32.36-.49.53l-.55.47c-.44.27-.89.53-1.34.78s-.79.23-1.19.33H78c-.57-.14-1.13-.3-1.69-.47-.28-.15-.57-.3-.84-.46l-.53-.31c-3.42-2.73-7.14-4.53-11.7-4.53-4.34,0-9.52,1.93-12.51,5.18a18.64,18.64,0,0,0-3,4.43,4.74,4.74,0,0,1,1.44,2.94c.66,5.42,4.7,9.6,7.88,13.77,3.06,4,7.35,6.11,12.17,7.32,5.25,1.3,9.91.16,15.08-.75a93.54,93.54,0,0,0,14-3.19c4.13-1.4,7.21-4.82,11.36-5.88s7.86.62,11.65,2.12c2.37.93,5.17,1.57,7.81,2.39a4.6,4.6,0,0,1,2.31-.59c4,0,7.92.26,11.89.38,6.82-3.13,12.84-8.13,16.35-14.85a35.18,35.18,0,0,0,3.42-9.78A14.12,14.12,0,0,1,158,234Z"/><path d="M185,181.52a9.43,9.43,0,0,1,9.14-1.17c.76.29,1.59.94,1.35,1.7a1.83,1.83,0,0,1-1.18.89,19.12,19.12,0,0,1-8.13,1.06c-.89-.06-2.07-.53-2-1.41a1.52,1.52,0,0,1,.83-1.07"/><path d="M135.49,272.57a13.16,13.16,0,0,1-2.73-1.8,10,10,0,0,0-1.83,7c-.06.94,1.36,1.24,2.07.65a4.05,4.05,0,0,0,.94-2.6,3.1,3.1,0,0,1,1.22-2.4A4.34,4.34,0,0,1,135.49,272.57Z"/><path d="M106.94,247.72c-4.07,2.48-9.67-.35-14.15,1.42a10.11,10.11,0,0,1-8.25-.41c-.82-.3-1.65-.65-2.48-.95a3.51,3.51,0,0,1,1.6-2.06c.29,1.12,1.94,1.12,3.06.65s2.24-1.24,3.36-.83a21.9,21.9,0,0,0,16.51-.65,87.05,87.05,0,0,0,16.68-5.54,23,23,0,0,1,2.71-1.12c3.13-1.35,6.19-2.71,9.26-4.12-1.36,3.3-4.72,5.13-7.9,6.72-1.89.94-3.78,1.94-5.66,2.89-2.83,1.41-5.66,2.82-8.79,3.06-2,.18-4.18-.12-6,.94"/><path d="M112.48,266.12a53.51,53.51,0,0,0-4.18,11.68,5.18,5.18,0,0,1,.22,2.84,26.83,26.83,0,0,0-.45,4A3.21,3.21,0,0,0,111,286c-1.42-1.79-.31-3.84,1.59-5.29a17.91,17.91,0,0,1,1.3-3.8l-.77.25A11.76,11.76,0,0,0,112.48,266.12Z"/><path d="M196.25,202.92c-2.3-3.71-7.31-4.77-11.73-4.54s-8.85,1.24-13.09.24c2-1,.41-4.07-1.3-5.54s-3.3-4.54-1.29-5.6c8.31-4.42,11.31-14.62,13.26-23.82,1.47-7,2.89-14.2,2.12-21.34s-3.83-14.32-9.72-18.39c-5.66-3.89-13-4.42-19.87-3.77-30.95,2.89-58.24,28.88-62.54,59.65-.83-1.29-1.71-2.53-2.54-3.83-3.42-4.36-10.43-2.12-15,.89S64.2,183.59,59.31,181c-1.12-.59-2.06-1.53-3.24-2.12a6.85,6.85,0,0,0-8.25,2,6.75,6.75,0,0,0,.64,8.48c4.13,4.13,11.09,1.3,16-1.71,3.48-2.06,6.89-4.18,10.37-6.24,2.54-1.54,5.19-3.07,8.14-3.19,5-.23,9.43,3.95,11.08,8.73s1.24,10,.83,15c-5,.06-10.2.12-14.8,2.18s-8.37,6.6-8,11.61c.18,1.83.53,4.43-1.24,5-7,2.24-13.61,6.18-18.09,12s-6.84,13.5-5.25,20.63c1.71,7.84,7.84,14.15,14.91,17.81s15.09,5.12,23.05,5.95a8,8,0,0,1,7.31-2.3c-.76,2.18-1.59,4.54-1.06,6.78a4.75,4.75,0,0,0,2.94,3.31A29.65,29.65,0,0,1,96.06,281c-1.29-3.4,1.42-7.81,4.63-10.21,3.72-2.77,8.43-5,9.67-9.49a42.56,42.56,0,0,0,30.71,6.84c10.67-1.77,21.16-8.61,24.17-19,1.53-5.31.3-12.2-4.77-14.33,2.77-6.3-1.89-13.38-7.08-17.86-2.41-2.12-6.19-4.06-8.55-1.88s-5.77,1.35-8.78,1a33.48,33.48,0,0,0-25,7.13c-2.18,1.83-4.19,5.19-2.18,7.19a41.47,41.47,0,0,1,18-9.37,82.08,82.08,0,0,1,11.43-1.59c4.07-.41,8.37-.77,12,1.06a11.31,11.31,0,0,1,4.83,14.68c4,1.24,6.43,5.54,6.37,9.72s-2.3,8-5.25,11c-10.61,10.67-28.88,9.49-41.91,1.94-1.77-.94-3.71.65-5.13,2C96.68,272,75.64,274.07,61,264.64c-3.89-2.53-7.49-5.95-9-10.31-2.71-7.73,1.36-16.27,7-22.17,4.83-5,13.08-8.84,18.51-4.42a5.83,5.83,0,0,0,2.24,1.41c.88.12,1.88-.88,1.41-1.59-5-1.94-6.48-9.07-3.77-13.67s8.25-7,13.61-7.61c3.78-.41,7.9-.06,11.09,2.07,5.3,3.59,12.2,3.41,18.62,3,6.61-.41,13.33-.94,19.34-3.65a28.63,28.63,0,0,0,15.39-17.86c2.06,2.24,4.12,4.54,6.18,6.78,1,1.06,2,2.41,1.6,3.83-.42,1.59-2.36,2.06-4,2.35-2.95.42-5.9.89-8.84,1.36-1.95.3-4.54,1.83-3.54,3.54a2.81,2.81,0,0,0,1.65,1,13.91,13.91,0,0,0,12.56-2.42c3-2.41,6.66-6.3,9.72-3.95,3.66,2.71,8.73,1.3,13.27.89s10.49,2,9.9,6.54a33,33,0,0,1-16.8-2.89c1.53,5.43,7.13,9.67,12.67,8.79S199.25,207.7,196.25,202.92ZM58.66,185.83c-.29,1.24-1.83,1.71-3.06,1.65s-2.54-.47-3.78-.18a3.59,3.59,0,0,1,.06-5.42c1.06.23,2.07.41,3.07.65C56.78,182.88,59.19,184,58.66,185.83Zm97.74-1c-1.36.06-2-1.71-2.3-3.06a13.39,13.39,0,0,0-5.42-7.9c-1.77,3.77,1.82,7.66,2.71,11.67.82,3.72-.77,7.61-3.3,10.44s-5.84,4.77-9.14,6.66-6.78,3.83-10.61,3.77c-2.65-.06-5.72-1-7.66.82-.42-.76-1.48-.7-2.3-.58a21.69,21.69,0,0,1-12.62-2.13,13,13,0,0,1-5.78-5,7.1,7.1,0,0,1,.06-7.31,20.78,20.78,0,0,0,20.58,2.3c2.41-1,5.13-.88,7.66-1.65s5-3,4.42-5.54c-6.66-1.18-13,4-19.75,4.07-4.77.12-9.25-2.36-13-5.31a9.76,9.76,0,0,1-3.31-3.48c-1.59-2.94-.35-6.77,1.95-9.25s5.48-3.83,8.61-5.19a6.32,6.32,0,0,1,2.83-.65c7.19.77,14.26,1.89,21.34,3.25a1.43,1.43,0,0,0,2.18,0,42.1,42.1,0,0,1,12.73-.23c-.71-1,.12-2.48,1.24-3a5.19,5.19,0,0,1,3.53.18c4.9,1.65,9.44,6.07,8.91,11.2A8.1,8.1,0,0,1,156.4,184.88Zm-43.86-24.22c1.36-2,4.72-.18,6.84-1.36a20.42,20.42,0,0,1,10.2-2.71c1.35-.06,3,.23,3.59,1.47a20.16,20.16,0,0,1,.53,1.95c.24.65,1,1.24,1.54.88,2.83-1.53,6.83,1.54,6.13,4.72a17,17,0,0,1-11.79,1.12,1.32,1.32,0,0,0-2.24.65c-2.36-2.77-6.61-2.42-10.2-2.48a6.45,6.45,0,0,1-3.66-.88A2.66,2.66,0,0,1,112.54,160.66Zm49.81,8.66A13.23,13.23,0,0,0,145.67,164c.24-5.48-4.72-10.08-10-11.38s-11,0-16.27,1.36c-2.48.59-5.13,1.35-6.49,3.47a20.4,20.4,0,0,1-14.2,8.79c9.55-22.46,32.36-38.67,56.71-40.38,6.66-.47,14,.29,18.8,4.89s6,11.67,5.84,18.27a60.52,60.52,0,0,1-10.5,32.72c-1.35,2-2.88,4-5,5s-4.95,1.18-6.72-.47A13.2,13.2,0,0,0,162.35,169.32ZM166.71,198c-1.59-.88-3.59-.94-5.07-2s-1.88-3.89-.17-4.43a6.62,6.62,0,0,1,5.48,1.54,2.85,2.85,0,0,0,1.24,2.77A4.94,4.94,0,0,0,166.71,198Z"/></svg>