<svg id="b9061d39-2ce6-4d17-ac45-24905bd36e7a" data-name="Layer 1" xmlns="http://www.w3.org/2000/svg" viewBox="0 0 300 300"><defs><style>.\36 3d3bef9-9bc8-4892-b057-fb1d8d4b17db{fill:#fff;}.\32 123fc8a-eb70-418e-9ec2-dc934b03ea82{fill:#52df84;}.\30 bf0f121-4ad1-4d33-835b-379d00234212,.e14bec4d-4a3f-4856-af7a-e851d91937ed{fill:#8b898a;}.e14bec4d-4a3f-4856-af7a-e851d91937ed{opacity:0.3;}.\38 864cbdd-6535-4d1c-9b2a-72d3191f4a35{fill:#424242;}</style></defs><path class="63d3bef9-9bc8-4892-b057-fb1d8d4b17db" d="M205.2,262.58A13.28,13.28,0,0,0,201,253.4q-.48-7.07-1-14.12a13.23,13.23,0,0,0-3.35-8.46c.24-5.52,1.14-11.33-1-16.46-2.35-5.56-7.17-10.18-11-14.79a19.33,19.33,0,0,0-9.09-6.28c-.27-.09-.55-.16-.82-.23q.45-9.8,1.36-19.57,5.88-24.72,9.64-49.88l.06-.39c.31-.38.61-.77.9-1.18a10.92,10.92,0,0,0,1-1.86,21.81,21.81,0,0,0,1.72-4.6,23.28,23.28,0,0,0-.1-10,8.89,8.89,0,0,0-.68-1.93,33.39,33.39,0,0,0-2.25-6.49c-.5-1.1-1.06-2.18-1.6-3.26l.24-.38a17.2,17.2,0,0,0,2.35-8.84c0-3.1-1-5.77-1.7-8.63v-.23a1.46,1.46,0,0,1,.05-.2c.15-.26.3-.52.47-.77,4.88-7.47-1-17.63-9.31-18.51,2.6-5.56,1.29-13.39-4.69-16.36-11.81-5.85-25-11.35-38.47-9.92-6.84.73-13.7,2.4-19.47,6.34a35.3,35.3,0,0,0-9.13,8.82,23.2,23.2,0,0,0-4,9.13c-1,5.44-.62,10.58,2.06,15.52a18.83,18.83,0,0,0,3.73,4.71c-2.58.24-5.14.55-7.7,1C89.84,77,83.61,85.12,83.44,94.39a31.38,31.38,0,0,0,1.88,10.25c1.88,5.57,5.55,10.22,11.37,12a30.44,30.44,0,0,0,8.07.92c.06.15.11.3.17.44a14.49,14.49,0,0,0,1.31,8.2c4.45,11,6.72,22.74,8.36,34.5,1.64,12.64,2.83,25.37,5.22,37.9a11.08,11.08,0,0,0-3,3.48q-.22.41-.48.81c-.42.45-.87.89-1.33,1.31-3,2-6.22,3.49-9.08,5.62a22.9,22.9,0,0,0-7.94,9.7,34.33,34.33,0,0,0-2.13,7.3q-2.76,15.16-6.78,30.07a11.74,11.74,0,0,0-.33,1.77,11.59,11.59,0,0,0-4.31,9.27c.3,6.69,5.42,12.35,12.35,12.35a12.53,12.53,0,0,0,7.35-2.52,12.33,12.33,0,0,0,3.23.42,296.17,296.17,0,0,0,50,2.1,12,12,0,0,0,9.72,4.9,12.91,12.91,0,0,0,10.77-6.28,12.29,12.29,0,0,0,5.18-.29l2.95-1.24a12.58,12.58,0,0,0,3.37-2.91,11.93,11.93,0,0,0,3.47.51C199.31,274.93,205.5,269.25,205.2,262.58Z"/><path class="2123fc8a-eb70-418e-9ec2-dc934b03ea82" d="M190.3,109.61a8.66,8.66,0,0,0-2.54-4.56,44.4,44.4,0,0,0-13.87-9.29,4.92,4.92,0,0,0-8.3-2.46,5.44,5.44,0,0,0-1.88,1.55l-1.2.11a83.1,83.1,0,0,1-9.85.28,76.45,76.45,0,0,1-9.2-.78c-2.81-.42-6.86,1.25-6.39,4.87a19.52,19.52,0,0,1,.09,4.77c0,.07-.06.38-.08.49-.1.45-.19.9-.31,1.35a19.68,19.68,0,0,1-.7,2.22s-.18.4-.21.47c-.17.33-.33.66-.51,1a19.12,19.12,0,0,1-1.32,2.11,2.34,2.34,0,0,1-.4.51c-.24.27-.49.55-.74.81s-.65.65-1,1c-.08.07-.89.75-.48.44-2.17,1.65-3.31,4.36-1.81,6.91,1.13,1.94,4.1,3.21,6.28,2.18,1.15,2.85,2.73,5.59,4,8.18l4.44,9a93.59,93.59,0,0,0,4.4,8.79c3.91,6.17,11.13,6.63,17.79,6.73a24.4,24.4,0,0,0,6.72-.51l.11,0a5.08,5.08,0,0,0,5.54-3.62c.44-1.49.87-3,1.31-4.46a4.45,4.45,0,0,0,.18-1.44c.18-.64.35-1.26.53-1.85q3-9.57,5.83-19.18,1.42-4.8,2.81-9.61A12.91,12.91,0,0,0,190.3,109.61Zm-27.07,11.73L163,121c.09-.17.19-.34.29-.51C163.25,120.76,163.24,121.05,163.23,121.34Z"/><path class="e14bec4d-4a3f-4856-af7a-e851d91937ed" d="M187.82,72.11a42.38,42.38,0,0,0-9.16-6.63c-2.33-1.24-5.6-.67-6.91,1.81a5.12,5.12,0,0,0,1.81,6.91,30.14,30.14,0,0,1,7.12,5,5,5,0,1,0,7.14-7.14Z"/><path class="e14bec4d-4a3f-4856-af7a-e851d91937ed" d="M169.68,188A14.2,14.2,0,0,1,179,185.4a4.72,4.72,0,0,0,4-2c2.28-.34,4.55-.75,6.81-1.19,3.16-.63,6.7-1,9.61-2.43,3.53-1.77,4.54-5.27,5.66-8.77,4.13-13,7.63-26.79,4-40.3a5.13,5.13,0,0,0-6.21-3.52,5,5,0,0,0-2.63,1.79,5.15,5.15,0,0,0-4.91-3.9L170,124.64a5,5,0,1,0,0,10.1l4.19.07c-2.24,7.57-4.58,15.25-6.06,23H168c-2.56,0-5.28,2.32-5.05,5,.09,1.11.14,2.22.17,3.33q-.36-4.16-.63-8.32a5,5,0,0,0-6.17-4.92,9.62,9.62,0,0,0-.81-1c-3-3.36-7.44-4.09-11.08-6.42l-.48-.9q-2.41-5.43-4.35-11a38.38,38.38,0,0,0-2-6.37c-1.05-2.51-3.34-4.32-6.21-3.53l-.17.06-.39-.61a24.36,24.36,0,0,0-5.29-5.8c4.84-2,8.63-6.43,11.21-10.9a6.2,6.2,0,0,0,.56-5.62,9.28,9.28,0,0,0,2.36,0c2.71-.3,5-2.11,5-5,0-2.5-2.32-5.35-5-5-.27,0-.54,0-.81,0l-.5-.33c-.05-.1-.38-.47-.31-.33a7.8,7.8,0,0,1-1-3.85,61.45,61.45,0,0,1,.44-12.35,6.71,6.71,0,0,0-.32-3.29,4.64,4.64,0,0,0,1.1-3.11,9.52,9.52,0,0,0,.06-1.25c.07-.31.15-.62.23-.94a2.23,2.23,0,0,0,.06-.26l.11-.18c.1-.19,1.09-1.68.43-.85a6.52,6.52,0,0,0,1.41-3.41,4.53,4.53,0,0,0,1.69,1.65l1.21.51a5.12,5.12,0,0,0,2.69,0,7.12,7.12,0,0,0,3.33-1.86,3.45,3.45,0,0,0,.26-.28,13.25,13.25,0,0,0,.9-1.19,7,7,0,0,0,.77-1.82,5.27,5.27,0,0,0-.51-3.89,5.67,5.67,0,0,0-3-2.33,5.12,5.12,0,0,0-3.89.51,6,6,0,0,0-1.67,1.59,4.83,4.83,0,0,0-.58.43,3.86,3.86,0,0,0-1.3,1.42,3.76,3.76,0,0,0-.6,1.88c0,.12,0,.24,0,.37a3.94,3.94,0,0,0-.64-.72c-1.82-1.67-5.39-2.22-7.14,0a16.38,16.38,0,0,0-3.85,10.62,5.34,5.34,0,0,0,.41,1.89,3.54,3.54,0,0,0-.83,1.82c-.86,6.17-1.52,12.73-.33,18.9a14.9,14.9,0,0,0,3.84,7.4,7.55,7.55,0,0,0-.95.17,26.81,26.81,0,0,0-3.71,1.8,7.52,7.52,0,0,1-3.42.46,30.92,30.92,0,0,1-8.49-2,45.47,45.47,0,0,0-11.07-2.7,19.28,19.28,0,0,0-5.91.47,38.94,38.94,0,0,1,.85-5.95,5.18,5.18,0,0,0-3.53-6.21,5.38,5.38,0,0,0-4.17.7,4.62,4.62,0,0,0-3.71.53c-6.21,4.09-4,11.58-1.4,17.19a8.3,8.3,0,0,0,4.12,4.12,14.21,14.21,0,0,0,3.1,3.86c4.81,4.23,10.88,4.1,16.1,1.59a18.81,18.81,0,0,0,2.53,3.18c-2.68,1.21-4.19,3.45-5.27,6.2-1.82,4.64-2.68,9.88-1.48,14.79,1.33,5.48,5.68,9,9.16,13.16,1.13,1.34,2.2,2.74,3.22,4.17a5.88,5.88,0,0,0-.58,3.94,90.75,90.75,0,0,0,11.25,30,4.9,4.9,0,0,0,7.07,1.56l.9,1.58-15.84-.24a13.38,13.38,0,0,1-.83,5.06,15.25,15.25,0,0,1-3,5l43.2.64a4.52,4.52,0,0,0,1.47-.22,27.19,27.19,0,0,0,4.44,3.72c2.28,1.57,3.88,2.34,5.53,4.13a4.83,4.83,0,0,1,1.22,2.16c.18.57.32,1.15.45,1.74s.23,1.33.27,1.66c.3,2.62.53,5.24.8,7.86A4.73,4.73,0,0,0,172,225.2c-.07,14.92-3,29.68-.8,44.54a5.42,5.42,0,0,0-3.48,2.87,20.83,20.83,0,0,0-7.93-4.7,29.92,29.92,0,0,0-9.56-1,21,21,0,0,0-6.8-2.5,64.66,64.66,0,0,0-13.06-.69,13.82,13.82,0,0,0,2.69-5,19.37,19.37,0,0,0-1.75-14.82,5.06,5.06,0,0,0-8.73,5.1,9.67,9.67,0,0,1,1,2.77,20.77,20.77,0,0,0-4.41-7.59c-2.79-3.09-7.15-1-8.44,2.23a17.56,17.56,0,0,0,.41,14.57,12,12,0,0,0,2.38,3.08h-.35c-1,0-3-.08-3.59-.17a9.73,9.73,0,0,1-3.87-1.36,5.23,5.23,0,0,0-6.15.78,4.88,4.88,0,0,0-4.48,3.58,4.94,4.94,0,0,0-.12.67l-.51.13h0l-.42,0c-.19,0-1.6-.15-.73,0-2.68-.46-5.44.72-6.21,3.53-.67,2.43.83,5.75,3.53,6.21A16.37,16.37,0,0,0,104,273.91c10.94,1.74,21.94,3.3,33,3.47,3.39.05,6.8-.22,10.2-.36.35.28.71.57,1.06.87,4.16,3.53,9.24,7.6,14.72,8.74a9.77,9.77,0,0,0,9.16-2.59,7.67,7.67,0,0,0,4-2.39,8.2,8.2,0,0,0,2-6.09,4.66,4.66,0,0,0,5.45,2.11l9.21-2.55a5.47,5.47,0,0,0,3.82,2.56,5.08,5.08,0,0,0,5.54-3.62c1.53-5.3.53-10.65-.45-15.95s-1.93-10.42-2.9-15.63q-2.81-15.07-5.6-30.16a4.58,4.58,0,0,0-.34-4.18,18.44,18.44,0,0,0-10.07-7.58,15.07,15.07,0,0,0-1.24-1.58,4.92,4.92,0,0,0-5-1.24l-1-1.18a4.82,4.82,0,0,0-5.21-1.16l-.68-.48-.18-.12c-.29-.24-.57-.48-.84-.73l-.56-.55a2.9,2.9,0,0,0-.29-.25c0-.07-.11-.18-.23-.35a6,6,0,0,0-1.53-1.53,6.31,6.31,0,0,0-.08-1.22c-.09-.59-.17-1.17-.26-1.75A4.57,4.57,0,0,0,169.68,188Zm15-53,10.57.19a5,5,0,0,0,4-2,1.42,1.42,0,0,0,0,.2c3,11,0,22.35-3.34,32.93a39.94,39.94,0,0,0-1.38,4.31,1.79,1.79,0,0,0,0,.24h0c-2.81.66-5.64,1.25-8.47,1.8a86.1,86.1,0,0,1-9.27,1.3C176.43,160.72,180.9,147.68,184.65,135Zm-47.2,36.56.35.27c.12.39.23.78.35,1.18C137.92,172.54,137.68,172.06,137.45,171.57Zm11.29-14.08a2.26,2.26,0,0,0-.26.16C148.57,157.29,148.67,157.11,148.74,157.49Zm-3.41,2.78a4.52,4.52,0,0,0-2-2.33h0a4.73,4.73,0,0,0,1-.3,4.53,4.53,0,0,0,.88-.5,11.31,11.31,0,0,1,2.34,1.15A12.2,12.2,0,0,0,145.33,160.27Zm3,30.07a18,18,0,0,0,1-2.26,6.21,6.21,0,0,0,4.12-.4,7,7,0,0,0,1.9-1.36c.19,1.38.39,2.76.6,4.13Z"/><path class="e14bec4d-4a3f-4856-af7a-e851d91937ed" d="M151.77,228a6.16,6.16,0,0,0-3.13-8.34,5.08,5.08,0,0,0-4.61-1.06l-.36.12c-1.78-.13-3.59-.13-5.26-.2a116.9,116.9,0,0,0-20.31,1.12,4.54,4.54,0,0,0-3.51,3.65l-1.85.09a5.17,5.17,0,0,0-5,5.05,4.49,4.49,0,0,0,.21,1.36,5.35,5.35,0,0,0-1.34,3.38c0,3,2.33,4.74,5,5a100.41,100.41,0,0,0,26.09-.59c2.47-.36,3.91-3.24,3.64-5.57l.62,0h.33a91,91,0,0,1,1.59,25.17c-.21,2.72,2.46,5.05,5.05,5.05a5.15,5.15,0,0,0,5-5.05A98.76,98.76,0,0,0,151.77,228Z"/><path class="0bf0f121-4ad1-4d33-835b-379d00234212" d="M132.53,250c-.24-5.86-5-11.5-11.22-11.22-5.88.26-11.48,4.94-11.23,11.22,0,.6,0,1.18,0,1.77a20.63,20.63,0,0,1-.91,3c.15-.37.3-.73.46-1.09a11.34,11.34,0,0,0-.69,7.57A11.23,11.23,0,0,0,122.75,269c2.59-.84,5.57-2.55,6.7-5.16C131.41,259.37,132.73,254.92,132.53,250Z"/><path class="0bf0f121-4ad1-4d33-835b-379d00234212" d="M153.45,226c-.27-6.08-4.93-11.22-11.22-11.22H119c-5.87,0-11.5,5.16-11.23,11.22s4.94,11.23,11.23,11.23h23.19C148.1,237.25,153.73,232.08,153.45,226Z"/><g id="48e5d76b-cccf-462d-a328-4091960f6a3c" data-name="Form 28"><path class="8864cbdd-6535-4d1c-9b2a-72d3191f4a35" d="M114.66,39.24c-4.1,3-8.37,6.7-9,11.71-.66-.44-1.32-.88-2-1.32,7.16-15.9,27-24.82,43.66-19.67A35.52,35.52,0,0,0,153,31.53a35,35,0,0,0,4.1.25c6.59.3,13.25,2.81,17.69,7.71s6.2,12.37,3.47,18.38c4.24,0,7.91,3.63,8.79,7.77s-.55,8.51-2.92,12c-2-.17-1.24-3.17-.36-4.91,1.76-3.5,1.43-8.1-1.29-10.85s-7.94-2.84-10.33.25c-1.08-1.46.82-3.17,2.17-4.38,3.34-3,3.8-8.41,1.9-12.51s-5.73-7-9.8-8.93c-4.41-2.06-9.56-3.11-14.14-1.48s-8.15,6.61-7,11.32c.71,3,3,5.26,5.29,7.3-.78,1.29-2.62,0-4-.47-2.51-.94-5.32,1.32-5.89,3.94s.35,5.29,1.43,7.77c4.74-2,9.64-4.08,14.79-4.22s10.75,2.07,13.06,6.67c1.32,2.59,1.87,6,4.57,7a23.15,23.15,0,0,1,10.22,7.38,8,8,0,0,1,9.37-5.81c1.38.35,2.7,1.1,4.13,1s2.92-1.49,2.29-2.78c-1.41-3,2.17-6.42,5.42-6s5.79,3,7.58,5.81c4.27-.36,5.15-6.78,9.06-8.57,3.53-1.65,8,2.76,6.48,6.34a7.23,7.23,0,0,1-2.68,2.92,13.47,13.47,0,0,1-15.95-1c-1.48-1.3-2.81-3-4.76-3.42s-4.24,2-3,3.44.14,4-1.68,4.71-3.86.31-5.76-.13-4-.86-5.73,0c-2.53,1.16-3.41,4.24-4,7-.91,4.16-1.6,9.14,1.52,12.07,3,2.78,1.1,8.45,4.1,11.23,1.68,1.57,1.19,4.33.55,6.53-.91,3.2-1.84,6.42-2.75,9.62,4.21,2.12,9.5-.94,14,.52,3.22,1,5.29,4.33,5.92,7.66s.09,6.78-.46,10.11q-2.66,15.66-5.29,31.32c-.31,1.76-2.15,2.76-3.78,3.5-6.86,3.11-14.07,6.28-21.59,5.81-1.22-.08-1.46,1.68-1.3,2.87s-.39,3-1.57,2.61c0-1.68.06-3.36.08-5.06a9.12,9.12,0,0,1-5.18-4.91,6.73,6.73,0,0,1,6.09-2.5c1.46-7.33,2.89-14.66,4.35-22a15.86,15.86,0,0,1-13.8,4.5,3.42,3.42,0,0,1-2.34-1.11c-.52-.71-.33-2,.52-2.17a11.73,11.73,0,0,0,17.17-9.42,45.06,45.06,0,0,1,2.72-12.32,11.5,11.5,0,0,0-5.67-1.07,9.89,9.89,0,0,1,1.05,8.81,15,15,0,0,1-3-9.17q-5.87,6.52-11.76,13a25,25,0,0,1,10.6-13.28c-1-2.07-4.27-.88-5.67,1s-2.73,4.35-5,4.38c2.56-3.59,5.09-7.17,7.66-10.78a5.53,5.53,0,0,1,1.48-1.57,5.72,5.72,0,0,1,3.09-.55c3.5.11,7,.2,10.52.28a20.63,20.63,0,0,1,1.35-9.84c1.82-4.54-1.82-9.5-5.89-12.2s-9-4.55-11.82-8.51a50.48,50.48,0,0,1,15.7,8.92,14.82,14.82,0,0,0-4.57-8.23,2.92,2.92,0,0,1-3.47,1,10.92,10.92,0,0,0-5.57-19.32,10,10,0,0,1-3.39,7.44c2.62-7.82-1.79-17.27-9.42-20.33s-17.32.77-20.82,8.24a22.09,22.09,0,0,0-1.82,6.8c-.44,3.58-.3,7.44,1.62,10.5s6,5,9.29,3.44c-1.24,2.37-4.52,3.06-7,2s-4.16-3.36-5.24-5.78a20.4,20.4,0,0,1,.91-17.91c1.88-3.36.88-7.49.66-11.32s1.11-8.57,4.88-9.34c-3.22-5.92-.08-14.35,6.2-16.75-4.93-4-11.87-4.68-18-3.17s-11.6,4.94-16.72,8.65m83.66,92.92c0,.64,0,1.27-.11,1.9-4.18,0-8.37.06-12.53.06q-2.85,20.7-7.52,41.1c-.22,1,1.16,1.54,2.2,1.6a19.56,19.56,0,0,0,8.54-1,9,9,0,0,0,5.54-6.22c1.54-8.35,3.08-16.67,4.63-25,.47-2.39.91-4.9.19-7.24-.3-1,.36-2,.58-3.06s-.55-2.48-1.52-2.07m-7.43-2.39c2.78.41,5.59.82,8.38,1.26a3.2,3.2,0,0,1,1.21.36,2.74,2.74,0,0,1,.88,1.74c.83,4.21.33,8.59-.3,12.84-.91,6-2,12-3.42,17.87a9.06,9.06,0,0,0-.36,3.53c.42,2.23,2.4,3.75,4.27,5q2.56-16.57,5.18-33.17c.41-2.67.83-5.48,0-8.07s-3.2-4.93-5.92-4.71a149.42,149.42,0,0,1-24.85.07l-1.28,2.87c1.55,1.36,3.79.55,5.77.09,3.39-.77,6.94-.25,10.41.28m-1.38,47.65c-1-.55-1.87,1.24-3,1.24-4.69,0-9.34-.13-14-.19a1.26,1.26,0,0,0,.28,1.68,3.58,3.58,0,0,0,1.76.58,41.67,41.67,0,0,0,16.37-1.29c-.47-.67-.91-1.35-1.38-2m34-103.8c1.66-1.07,3.39-2.48,3.5-4.43a2.56,2.56,0,0,0-.41-1.49,2.52,2.52,0,0,0-3.09-.38c.47.71,0,1.68-.44,2.42L220.5,73.9c.69.88,2.09.33,3-.28m-22.86,99.2a5.13,5.13,0,0,1-3.14-2.7,1.33,1.33,0,0,0-1.27,1.11,3.76,3.76,0,0,0,.19,1.81,14.06,14.06,0,0,0,2.62,2,2.18,2.18,0,0,0,.69.28,1.17,1.17,0,0,0,1.07-1,3.3,3.3,0,0,0-.16-1.55m-2.78,2.68c-1-.31-1.6-1.46-2.65-1.6a1.54,1.54,0,0,0-1.71,1.49,1.52,1.52,0,0,0,1.79,1.37,3.83,3.83,0,0,1,1.38.09,1.55,1.55,0,0,0,1.3-.22c.35-.31.33-1-.11-1.13m-4.47,3a.55.55,0,0,0,.44-.36.67.67,0,0,0,0-.46,4.89,4.89,0,0,0-1.24-2.07,1.46,1.46,0,0,0-1.55,1.84,1.87,1.87,0,0,0,2.37,1.05M217.58,73.71a2.87,2.87,0,0,1-.88.74,1.59,1.59,0,0,0,2.09,0,2.25,2.25,0,0,0-.55-.94.72.72,0,0,0-1,0"/><path class="8864cbdd-6535-4d1c-9b2a-72d3191f4a35" d="M166,161.23c.14-.31.28-.64.44-1l1,.09a1.27,1.27,0,0,1-1.46,1.15"/><path class="8864cbdd-6535-4d1c-9b2a-72d3191f4a35" d="M195.21,250.51a.79.79,0,0,1,.41,1.21,1.79,1.79,0,0,1-1.15-1.51c.22-.28.77,0,.71.3"/><path class="8864cbdd-6535-4d1c-9b2a-72d3191f4a35" d="M115.32,270.62a1,1,0,0,1-1.27.63,1,1,0,0,1-.6-1.26l1.84.66"/><path class="8864cbdd-6535-4d1c-9b2a-72d3191f4a35" d="M188.35,260.7a.59.59,0,0,0,.52.8l-.66.39a6.93,6.93,0,0,1-1.1-1.41.77.77,0,0,1,1.19.22"/><path class="8864cbdd-6535-4d1c-9b2a-72d3191f4a35" d="M180.53,269.55a.82.82,0,0,1-.61,1.18,3.1,3.1,0,0,1-1-2.09,1.89,1.89,0,0,1,1.68.88"/><path class="8864cbdd-6535-4d1c-9b2a-72d3191f4a35" d="M147.53,107.26a1,1,0,0,1-1.13.39,2.24,2.24,0,0,1,1.84-1.85,1.9,1.9,0,0,1-.69,1.46"/><path class="8864cbdd-6535-4d1c-9b2a-72d3191f4a35" d="M177.72,240.43a.92.92,0,0,1-.42-.94.87.87,0,0,1,.89-.08,7.25,7.25,0,0,1,1.15,2.31,1.39,1.39,0,0,1-1.57-1.27"/><path class="8864cbdd-6535-4d1c-9b2a-72d3191f4a35" d="M140.2,224.09a1.08,1.08,0,0,1-1.08,1.24,1.66,1.66,0,0,1,1.41-2.42.87.87,0,0,1-.14,1.15"/><path class="8864cbdd-6535-4d1c-9b2a-72d3191f4a35" d="M110.75,108.31c-.41-.17-.83-.33-1.21-.5a2.62,2.62,0,0,1,1.57-1,1.3,1.3,0,0,1,1.46.94,2.58,2.58,0,0,0-1.71.57"/><path class="8864cbdd-6535-4d1c-9b2a-72d3191f4a35" d="M196.59,270.29c.47-.08.93-.17,1.4-.28a5.61,5.61,0,0,1-3.41,1.88,2.09,2.09,0,0,1,2-1.46"/><path class="8864cbdd-6535-4d1c-9b2a-72d3191f4a35" d="M151.63,140.48a3.88,3.88,0,0,1-1.16,3,.77.77,0,0,1-.93.27,3.05,3.05,0,0,1,2.09-3.28"/><path class="8864cbdd-6535-4d1c-9b2a-72d3191f4a35" d="M189.29,236.05a2,2,0,0,1-.61-1.68,8.89,8.89,0,0,1,2.21,3.3,1.68,1.68,0,0,1-1.46-1.51"/><path class="8864cbdd-6535-4d1c-9b2a-72d3191f4a35" d="M136.18,177.67a.73.73,0,0,1-1.11-.38,1.75,1.75,0,0,1,.36-1.3,4.78,4.78,0,0,1,2.1-1.65c.46,1.18-.5,2.42-1.35,3.33"/><path class="8864cbdd-6535-4d1c-9b2a-72d3191f4a35" d="M215.84,109.44a1.24,1.24,0,0,1,1.41-.94,4.62,4.62,0,0,1-1.85,3.55,1.6,1.6,0,0,1,.5-2.5"/><path class="8864cbdd-6535-4d1c-9b2a-72d3191f4a35" d="M124.14,157.78c.55.94-.33,2.07-1.16,2.81a2.08,2.08,0,0,1-1.54.72c.91-1.19,1.79-2.37,2.7-3.53"/><path class="8864cbdd-6535-4d1c-9b2a-72d3191f4a35" d="M144.66,221.2a1.33,1.33,0,0,1,.08,1.71,2.94,2.94,0,0,0-.47,2.5,1.37,1.37,0,0,1-1,.14,4,4,0,0,1,1.38-4.35"/><path class="8864cbdd-6535-4d1c-9b2a-72d3191f4a35" d="M178.35,207.78a15.4,15.4,0,0,0-1.57-1.65c.17-.19.36-.36.52-.55-.63-.5-1.37-1.24-1-2a4.43,4.43,0,0,1,2.09,4.18"/><path class="8864cbdd-6535-4d1c-9b2a-72d3191f4a35" d="M135.38,151.14a3.62,3.62,0,0,1-.58,3.53c-.25.33-.61.69-.55,1.13-.8.14-1.1-1.07-.8-1.85s.85-1.54.52-2.31a2.68,2.68,0,0,1,1.41-.5"/><path class="8864cbdd-6535-4d1c-9b2a-72d3191f4a35" d="M152.26,147.92a2,2,0,0,1-1.15-2.18,3.05,3.05,0,0,1,1.62-2,1.82,1.82,0,0,1,1.24-.22,21.79,21.79,0,0,1-1.71,4.41"/><path class="8864cbdd-6535-4d1c-9b2a-72d3191f4a35" d="M190.28,244.89c.85-.19,1.54.63,2,1.38s1.05,1.71,1.6,2.56a6.4,6.4,0,0,1-3.61-3.94"/><path class="8864cbdd-6535-4d1c-9b2a-72d3191f4a35" d="M125.1,185.25a1.09,1.09,0,0,1,1.19,0c.55,1.08,1.1,2.15,1.68,3.25a1.48,1.48,0,0,1,.24,1.16c-.16.38-.82.52-.93.14a12.72,12.72,0,0,1-2.18-4.52"/><path class="8864cbdd-6535-4d1c-9b2a-72d3191f4a35" d="M146.26,191.31a4.19,4.19,0,0,1-3.83-1.68,6,6,0,0,1-.88-1.6,6.76,6.76,0,0,1,4.71,3.28"/><path class="8864cbdd-6535-4d1c-9b2a-72d3191f4a35" d="M121.38,216.18a12.15,12.15,0,0,1-4.65.83,3.77,3.77,0,0,1-2.37-.63,14.76,14.76,0,0,1,7-.2"/><path class="8864cbdd-6535-4d1c-9b2a-72d3191f4a35" d="M171.46,160.62c.14,1.13-.79,2.12-1.65,2.89-.63.61-1.27,1.19-1.93,1.79a10,10,0,0,1,3.58-4.68"/><path class="8864cbdd-6535-4d1c-9b2a-72d3191f4a35" d="M145.76,127.45c-.8.42-1.62.86-2.42,1.3l2.31-4.38a1.32,1.32,0,0,1,1.6,0c-.14.58-.3,1.16-.44,1.74a1.64,1.64,0,0,1-1.05,1.37"/><path class="8864cbdd-6535-4d1c-9b2a-72d3191f4a35" d="M124.8,163.9l-2.73,3.47c-.27.36-.69.74-1.07.55a29.43,29.43,0,0,1,3.8-4.63.4.4,0,0,1,0,.61"/><path class="8864cbdd-6535-4d1c-9b2a-72d3191f4a35" d="M175,84.37a1.46,1.46,0,0,1,.71.88,4.1,4.1,0,0,1-1,4.32c-.38.36-1,.64-1.43.31s-.3-.66-.3-1.08V87a3.86,3.86,0,0,1,.33-2,1.33,1.33,0,0,1,1.68-.69"/><path class="8864cbdd-6535-4d1c-9b2a-72d3191f4a35" d="M136,32.33a28.75,28.75,0,0,0-6.8,1.4.37.37,0,0,1,.08-.6,11.64,11.64,0,0,1,6.72-.8"/><path class="8864cbdd-6535-4d1c-9b2a-72d3191f4a35" d="M156,146.71c.22-.28.44-.58.69-.86s.88-.79,1.21-.44c.44,2.32-1.27,4.41-2.89,6.15a2.51,2.51,0,0,1-.42-2.56,7.39,7.39,0,0,1,1.41-2.29"/><path class="8864cbdd-6535-4d1c-9b2a-72d3191f4a35" d="M165.32,187.84a3.36,3.36,0,0,1-.74.88,1.57,1.57,0,0,1-1.63.11,7.14,7.14,0,0,1,5.15-5.23c-.93,1.4-1.84,2.83-2.78,4.24"/><path class="8864cbdd-6535-4d1c-9b2a-72d3191f4a35" d="M146.42,226.63c.14-.64.31-1.27.44-1.91a7.4,7.4,0,0,1,1.55-3.52,1.88,1.88,0,0,1,1.18-.64l-1.32,4.88c-.25.88-.83,2-1.71,1.76-.05-.19-.11-.38-.14-.57"/><path class="8864cbdd-6535-4d1c-9b2a-72d3191f4a35" d="M134.44,186.52c.69-.22,1.21.55,1.54,1.15a9.81,9.81,0,0,0,3.28,3.61,3.08,3.08,0,0,1-2.75-.44,8.18,8.18,0,0,1-2-2.07,2.51,2.51,0,0,1-.6-1.18.93.93,0,0,1,.52-1.07"/><path class="8864cbdd-6535-4d1c-9b2a-72d3191f4a35" d="M102.9,160.65a1.83,1.83,0,0,1,.3,1,.74.74,0,0,1-.66.63,9.39,9.39,0,0,1-2.42-8.15,32.63,32.63,0,0,0,2.78,6.53"/><path class="8864cbdd-6535-4d1c-9b2a-72d3191f4a35" d="M172.37,143.32a24,24,0,0,1,3.42-4.24c.33-.33,1-.61,1.21-.17a22.54,22.54,0,0,1-5.18,6.39,2.55,2.55,0,0,1,.55-2"/><path class="8864cbdd-6535-4d1c-9b2a-72d3191f4a35" d="M195.62,245.47c-.93-1.41-1.87-2.84-2.81-4.24-.68-1-1.37-2.1-2.06-3.14.85-.31,1.43.82,1.84,1.62a20.36,20.36,0,0,0,2.1,2.65,3.59,3.59,0,0,1,.93,3.11"/><path class="8864cbdd-6535-4d1c-9b2a-72d3191f4a35" d="M126.75,190.57a2.69,2.69,0,0,1,.91,2.89c-.38.36-1,.08-1.4-.22a11.26,11.26,0,0,1-4.13-6.26c.85-.11,1.51.67,2,1.38.63.91,1.27,1.85,1.87,2.76a1.16,1.16,0,0,0,.77-.55"/><path class="8864cbdd-6535-4d1c-9b2a-72d3191f4a35" d="M209.81,99.74c1.19-.44,2.26,1,2.56,2.2a9.42,9.42,0,0,1-.77,6.37,1.79,1.79,0,0,1-.93,1c-.42.14-1-.25-.89-.69a17.53,17.53,0,0,0,.77-4.16,17.78,17.78,0,0,0-.74-4.68"/><path class="8864cbdd-6535-4d1c-9b2a-72d3191f4a35" d="M150,115.19c.44.25.19.91-.14,1.3a28.88,28.88,0,0,1-6.52,5.76c-.53-.91.35-1.93,1.13-2.59,1.84-1.52,3.69-3,5.53-4.47"/><path class="8864cbdd-6535-4d1c-9b2a-72d3191f4a35" d="M140.61,179.19a2,2,0,0,1-1.05.11,7.24,7.24,0,0,1,2-5c1.11-1.13,2.18-2.26,3.28-3.36.33.22.66.47,1,.71a8.26,8.26,0,0,0-2.89,5,2.75,2.75,0,0,0-2.34,2.48"/><path class="8864cbdd-6535-4d1c-9b2a-72d3191f4a35" d="M179.26,146.13a1,1,0,0,1,.47.74,34.67,34.67,0,0,1-7.22,7.63c-.36.09-.38-.52-.19-.82a10.1,10.1,0,0,1,1.16-1.38c1.92-2.07,3.85-4.1,5.78-6.17"/><path class="8864cbdd-6535-4d1c-9b2a-72d3191f4a35" d="M159.56,37.32a1,1,0,0,1-.05-1.13,15.86,15.86,0,0,1,8.79,8.89,2.49,2.49,0,0,1-1.88-1.24,18.36,18.36,0,0,0-6.86-6.52"/><path class="8864cbdd-6535-4d1c-9b2a-72d3191f4a35" d="M154.27,82a3.39,3.39,0,0,1-.46-1.88,4.28,4.28,0,0,1,1.35-2.94,3.74,3.74,0,0,1,5.23,1.46,3.69,3.69,0,0,1-1.46,4.6A3.63,3.63,0,0,1,154.27,82M156.4,80c.08.61.19,1.24.27,1.85a2,2,0,0,0,1.9-1,1.47,1.47,0,0,0-.6-1.93,1.17,1.17,0,0,0-1.57,1"/><path class="8864cbdd-6535-4d1c-9b2a-72d3191f4a35" d="M72.32,114.28c.58,2.29,2.81,3.67,4.85,4.83,1.15.66,2.31,1.29,3.44,2a1.26,1.26,0,0,1,.5.41c.25.45-.2,1-.69,1.11a2.36,2.36,0,0,1-1.46-.36L76.42,121c-2.39-1.19-5-2.67-5.7-5.26a1.78,1.78,0,0,1,.25-1.63c.36-.41,1.21-.36,1.35.19"/><path class="8864cbdd-6535-4d1c-9b2a-72d3191f4a35" d="M182.73,209c-.55-.88-1-1.88-1.49-2.81a21.68,21.68,0,0,0-2.56-3.83,2.81,2.81,0,0,1-.88-1.54c-.08-.61.44-1.3,1-1.13a37.58,37.58,0,0,0,6.42,9.06,2.31,2.31,0,0,0,.55,2c-1.21.41-2.4-.66-3.06-1.76"/><path class="8864cbdd-6535-4d1c-9b2a-72d3191f4a35" d="M165.51,114.7c2.9-2.48,5.82-5,8.74-7.47a3,3,0,0,1,2.09-1c.39.25.08.83-.25,1.16a56.72,56.72,0,0,1-9,7.6,1.81,1.81,0,0,1-1,.39c-.33,0-.69-.36-.58-.69"/><path class="8864cbdd-6535-4d1c-9b2a-72d3191f4a35" d="M203.64,111.42l-.58-.33c-1.32-4.19,1.05-8.84-.14-13.09a4.46,4.46,0,0,1-.35-2.23c.16-.74,1.1-1.35,1.68-.85a1.4,1.4,0,0,1,.44,1,31.65,31.65,0,0,1-1.05,15.54"/><path class="8864cbdd-6535-4d1c-9b2a-72d3191f4a35" d="M150.64,132.8a23.81,23.81,0,0,1,6.06,3.11,6.82,6.82,0,0,1-5.29-1.18q-1.95,3.18-4,6.19c-.33.5-1.16.14-1.32-.41a2.06,2.06,0,0,1,.49-1.6,18.05,18.05,0,0,1,4.77-5,.92.92,0,0,1-.66-1.1"/><path class="8864cbdd-6535-4d1c-9b2a-72d3191f4a35" d="M194.25,229.24c-3.34-2.7-5.65-6.42-7.88-10.08-.42-.66-.77-1.6-.22-2.09,2.39,3.41,4.9,6.72,7.57,9.91.55.66,1.11,1.66.53,2.26"/><path class="8864cbdd-6535-4d1c-9b2a-72d3191f4a35" d="M185.27,224.83c0-.41.13-.82.19-1.23a86.31,86.31,0,0,1,8.84,12.28c.19.36.3.91-.08,1a16.17,16.17,0,0,1-1.63-2c-1-1.33-2-2.65-2.94-4a27.26,27.26,0,0,1-2-3c-.64-1.16-1.19-2.48-2.34-3.12"/><path class="8864cbdd-6535-4d1c-9b2a-72d3191f4a35" d="M135.57,48.31c.55-.61,1.49-1,1.57-1.82a7.25,7.25,0,0,1,3.14-1.19c.22.83-.63,1.52-1.32,2a7.37,7.37,0,0,0-2.67,5.6c0,2.09-1,4.18-.53,6.22.25,1.13.91,2.34.33,3.31a1.86,1.86,0,0,0-.91-.64c-.88-3.38-.71-6.91-.55-10.38a4.82,4.82,0,0,1,.94-3.14"/><path class="8864cbdd-6535-4d1c-9b2a-72d3191f4a35" d="M167.75,153.21c-.56.28-.83.91-1.19,1.41s-1,1-1.54.68c-.55-1.15.41-2.45,1.29-3.36a33.14,33.14,0,0,1,3-2.92c2.48-2,5.45-3.44,7.74-5.67.58.49,0,1.43-.5,2-1.07,1.13-2.18,2.23-3.25,3.36a19.88,19.88,0,0,1-5.56,4.52"/><path class="8864cbdd-6535-4d1c-9b2a-72d3191f4a35" d="M137.77,248c-.24,1.19-.49,2.4-.77,3.58s-.6,2.54-1.71,3c-.63-1.77.42-3.61,1.13-5.35a27.88,27.88,0,0,0,1.35-4.05l.66-2.39c.45-1.57.89-3.14,1.38-4.69.36-1,.88-2.23,2-2.48a10.7,10.7,0,0,1-1.49,5.71,10.26,10.26,0,0,0-1.43,4.38c-.06.91-.2,2.06-1.08,2.28"/><path class="8864cbdd-6535-4d1c-9b2a-72d3191f4a35" d="M176,161.58c-1.57,1.93-3.17,3.83-4.77,5.76a64.49,64.49,0,0,1-7,7.58,44,44,0,0,1,11.91-14.52c.41.22.16.83-.14,1.18"/><path class="8864cbdd-6535-4d1c-9b2a-72d3191f4a35" d="M91,131.67c-.14-.66-.52-1.24-.72-1.88a1.93,1.93,0,0,1,.28-1.9c.47-.49,1.49-.33,1.57.33a24.61,24.61,0,0,0,3,11.22c.47.82,1,1.62,1.38,2.5a13.1,13.1,0,0,1,1.27,4.8c-2.15-1.13-1.9-4.47-3.72-6.06a9.22,9.22,0,0,1-3-6.75,9,9,0,0,0,0-2.26"/><path class="8864cbdd-6535-4d1c-9b2a-72d3191f4a35" d="M174.47,115.36c1-.83,2-1.65,3-2.51a11.24,11.24,0,0,1,2.53-1.73c.56-.25,1.3-.33,1.57.19A201.21,201.21,0,0,1,165.68,124c-.58-.42,0-1.33.55-1.79,2.76-2.32,5.48-4.6,8.24-6.89"/><path class="8864cbdd-6535-4d1c-9b2a-72d3191f4a35" d="M98.08,211.86c-.36-.39.16-1,.6-1.21a132,132,0,0,0,14.88-10,2.77,2.77,0,0,1,1.79-.8c.66.06,1.21,1,.72,1.44a54.3,54.3,0,0,1-14.22,9.42,9.65,9.65,0,0,1-3.77,1.1"/><path class="8864cbdd-6535-4d1c-9b2a-72d3191f4a35" d="M178.79,226.74a14.42,14.42,0,0,0,2.54,4.32c.63.85,1.26,1.71,1.9,2.53l6.91,9.18c.42.55.83,1.24.55,1.84a9,9,0,0,1-5.15-3.55c-1.84-2.7-3.69-5.37-5.54-8.07a4.07,4.07,0,0,0-1.24-1.9,8.33,8.33,0,0,1-2.09-5.57,6.11,6.11,0,0,0,2.12,1.22"/><path class="8864cbdd-6535-4d1c-9b2a-72d3191f4a35" d="M167.28,126.54a8.24,8.24,0,0,0,1-1.4,1.35,1.35,0,0,1,1.46-.66c.14-.22.3-.42.44-.64,4.41-3.47,9-6.8,13.58-10,.47.39,0,1.13-.47,1.54a75,75,0,0,1-9.86,7.3,9.34,9.34,0,0,0-3.14,2.43,12.79,12.79,0,0,1-4.35,4c-.61-.16-.55-1.07-.14-1.51s1.08-.64,1.52-1.08"/><path class="8864cbdd-6535-4d1c-9b2a-72d3191f4a35" d="M181.49,255.91a3.48,3.48,0,0,0-.6.49,6,6,0,0,1,3.08,3.06,7.68,7.68,0,0,0,2.4,3.5,1.66,1.66,0,0,0,.41,1.35c1.1,1.68,2.2,3.33,3.31,5,.77,1.16,1.57,2.54,1.15,3.89-.82.36-1.59-.55-2-1.3-1.24-2.09-2.43-4.16-3.59-6.28a32.28,32.28,0,0,0-2.14-3.63c-1.71-2.43-4.11-4.44-5.21-7.19.27.22.38-.42.16-.69s-.38-.83-.05-.83a6.33,6.33,0,0,0,3.11,2.62"/><path class="8864cbdd-6535-4d1c-9b2a-72d3191f4a35" d="M74.33,95.25c-.11.41-.44.74-.58,1.13s.08,1,.5.91c-.39,0-.44.58-.36,1s.16,1,.28,1.46A29.49,29.49,0,0,0,82,114.64a7.05,7.05,0,0,1,2.18,3c-.22.39-.8.17-1.16-.11a29.73,29.73,0,0,1-10.63-15.78,9.21,9.21,0,0,1-.22-5.32,3.18,3.18,0,0,0,.36-2.15,1.11,1.11,0,0,1,1.76.94"/><path class="8864cbdd-6535-4d1c-9b2a-72d3191f4a35" d="M212,154.59c-.44,2.56-.88,5.12-1.29,7.68l-1.32,7.85c-.25,1.33-.47,2.68-.69,4-.14.77-.25,1.54-.44,2.29a14.31,14.31,0,0,1-4.79,7.41,1.48,1.48,0,0,1-.53.27c-.55.08-1-.6-.82-1.16a3.14,3.14,0,0,1,1-1.29,11.31,11.31,0,0,0,3.36-6.72c.38-3.39,1-6.75,1.65-10.14s1.3-6.75,1.93-10.11a6,6,0,0,1,.38-1.43,3.84,3.84,0,0,1,1-1.3c.8.55.71,1.71.57,2.65"/><path class="8864cbdd-6535-4d1c-9b2a-72d3191f4a35" d="M98,40.84a1.5,1.5,0,0,1,.91-.11,4.66,4.66,0,0,0,3.12,5,4.26,4.26,0,0,1-4.44,5.51c-1.6-.14-3.17.44-4.76.52a8.23,8.23,0,0,1-4.27-.94,4.37,4.37,0,0,1-2-1.79c-1-1.81-.17-4.07.88-5.86A5.17,5.17,0,0,1,88.32,42c1.16-1.16,3-1.19,4.66-.91s3.25.77,4.88.44a6.86,6.86,0,0,1,.13-.69m-3.58,2.34A3.15,3.15,0,0,0,90,43.1a3,3,0,0,0,.64,4.35c-.58-.13-1.08.55-1,1.13a1.81,1.81,0,0,0,1.24,1.16c.55.22,1.13.25,1.71.44a21.76,21.76,0,0,1,7.13-1.43c0-.41.28-.8.5-1.16s.3-.94-.08-1.16a.81.81,0,0,0-.66,0,4.05,4.05,0,0,0-2,1.41c-.91-.86.85-2.43.25-3.53-.33-.63-1.3-.63-2-.3a3.14,3.14,0,0,0-1.65,2.34A5.31,5.31,0,0,1,94,47.7c-.19.41-.74.72-1.1.44a2.88,2.88,0,0,0-.63-2.31,2.08,2.08,0,0,0,.19-1.41,6,6,0,0,0,2-1.24"/><path class="8864cbdd-6535-4d1c-9b2a-72d3191f4a35" d="M110.14,57.54a7.78,7.78,0,0,0,2.32-.55,15.63,15.63,0,0,1,6-.67,4.46,4.46,0,0,1,2.23.64c1.38,1,1.51,2.92,1.21,4.57s-.88,3.31-.47,4.9,2.48,2.9,3.78,1.85a10.05,10.05,0,0,1,4.57-2.37,4.42,4.42,0,0,1,4.52,1.87,3.41,3.41,0,0,1,.05,3.14c-.88.42-1.21-1.1-1.68-2-.69-1.32-2.62-1.3-3.94-.66s-2.42,1.79-3.85,2.2a4.36,4.36,0,0,1-4-.88c-2.42-2.07-1.81-5.92-.74-8.93.52-1.43-1.27-2.7-2.78-2.7-2.62,0-5,1.85-7.66,1.55a4.92,4.92,0,0,1-4.13-4A1.5,1.5,0,0,0,104,57.18c-.85-.36-.33-1.65-.5-2.56a1.58,1.58,0,0,0-2.28-1,4.34,4.34,0,0,1,.44-2.51,1.58,1.58,0,0,1,2.17-.6,2.37,2.37,0,0,0-.35,1.68c.33.13.63.27,1,.41a9.81,9.81,0,0,0,1.27-1.38,10.19,10.19,0,0,0,1,4.11,4.11,4.11,0,0,0,3.39,2.26"/><path class="8864cbdd-6535-4d1c-9b2a-72d3191f4a35" d="M205.21,268.66c-1.35-5.07-2.7-10.11-4.05-15.18-1.07-4-2.15-8-2.92-12.14-.36-2-.69-4-1-6-.91-6-1.85-12.07-2.78-18.13-.22-1.43-.09-3.44,1.37-3.72.5,2.4,1,4.79,1.46,7.19q4.92,23.76,9.78,47.52c.14.69.14,1.63-.55,1.79s-1.13-.69-1.32-1.38"/><path class="8864cbdd-6535-4d1c-9b2a-72d3191f4a35" d="M167.64,208c-3.39-3.69-6.34-8.4-5.71-13.39a29.27,29.27,0,0,1,4,7.55c.55,1.46,1.41,3.31,3,3.2-.63-2.37-1.38-4.71-2.23-7a11.6,11.6,0,0,0,3.06,1.08,13.88,13.88,0,0,0,2.48,5.7c.13.22.27.44.41.63a68.56,68.56,0,0,1,4.38,6.06c.22.33.72.36,1.13.36l13.74-.25-9.39-10.27c.66-.61,1.76-.09,2.43.55s1.37,1.43,2.28,1.29a5.54,5.54,0,0,0-1.79-3.94c1.63-.19,3,1.27,3.64,2.76s.88,3.19,1.73,4.6c.72,1.21,1.9,2.26,2,3.66a3.42,3.42,0,0,1-2.17,3.14,9.75,9.75,0,0,1-4,.66l-8.27.25a8.51,8.51,0,0,1-3.83-.49,7.14,7.14,0,0,1-1.4-1,50.75,50.75,0,0,1-5.48-5.18m3.69-1.57c-.22-.3-.53-.66-.91-.66s-.72.58-.39.77a6.89,6.89,0,0,0,3.36,3.94,16.46,16.46,0,0,0-2.06-4"/><path class="8864cbdd-6535-4d1c-9b2a-72d3191f4a35" d="M145.29,195.25a64.66,64.66,0,0,0-17.63-.08c.28-1.44,2.07-1.93,3.53-2.13a4.45,4.45,0,0,1-.5-5.06c.89,2.59,3.45,4.32,6.12,5a24.21,24.21,0,0,0,8.15.14c2-.22,4.08-.41,6.09-.6-.3-.94-.58-1.88-.88-2.81a9.53,9.53,0,0,0,6,2.25,70.21,70.21,0,0,1,24.82,5.21c-3.61,1.38-7.57-.16-11.29-1.27a52,52,0,0,0-18.71-2.06c-.63,0-1.46.6-1,1.05a13.3,13.3,0,0,1,6.78,1.7A175,175,0,0,1,124,198.17c-2.4-.11-5-.36-6.72-2a26.4,26.4,0,0,1,10.77-.2,37.36,37.36,0,0,0,17.21-.71"/><path class="8864cbdd-6535-4d1c-9b2a-72d3191f4a35" d="M129.48,122.93c-.74-1.51-1.46-3.05-2.2-4.57-.28-.6-.88-1.32-1.46-1-6.59,3.47-15.76.74-19.31-5.81,2.42-.25,4.16,2.12,6.08,3.58a11.37,11.37,0,0,0,9,1.76,19.89,19.89,0,0,0,8.4-4.19c4.27-3.33,7.88-8.42,7-13.77,1,2,3.69,2.48,5.95,2.29,7.44-.58,14.87-4.77,22-2.62a18.94,18.94,0,0,1-5,1.41c-5,1-10.05,1.9-15.09,2.83a14.81,14.81,0,0,1-6.31.31,18.77,18.77,0,0,1-8.24,11.48c-1.51.94-1.73,3.2-.93,4.82a10.74,10.74,0,0,0,3.74,3.81c-1.62-1-3.52.77-4.6,2.31l-6.28,8.9a31.5,31.5,0,0,1,7.19-11.55"/><path class="8864cbdd-6535-4d1c-9b2a-72d3191f4a35" d="M129.87,157.37c-3.61.25-8,.17-10-2.87-.85.72-1.73,1.41-2.61,2.13A3.37,3.37,0,0,0,117,152a11.8,11.8,0,0,1-4-7.63,36.7,36.7,0,0,1,5,7.41c1.3-.22,2.15-1.4,2.87-2.48q6-9,11.93-18.07c.71-1,1.82-2.26,3-1.82-4.71,7.93-9.81,15.65-15.29,23.09-.44.57.22,1.32.82,1.73,1.46,1,3.48,2,4.94,1a4.35,4.35,0,0,0,1.18-1.65,90.08,90.08,0,0,1,8.1-12.84c.77-1,1.82-2.12,3.08-2a99.53,99.53,0,0,1-11.32,16.78,2.51,2.51,0,0,0,3.28-.09,77.5,77.5,0,0,0,9.75,18.43c-1.29.91-2.89-.63-3.72-2a85.33,85.33,0,0,1-6.77-14.46"/><path class="8864cbdd-6535-4d1c-9b2a-72d3191f4a35" d="M113.56,78.69c-2.23-.22-4.3-1.26-6.48-1.87A17.07,17.07,0,0,0,93.15,79a17.24,17.24,0,0,0-7.47,12,26,26,0,0,0,.08,5.84,23.22,23.22,0,0,0,4,11.29c2.42,3.22,6.36,5.51,10.38,5.21,2.4-.19,3.67,2.73,4.22,5l9.5,40.38c.8,3.45,1.6,6.89,2.43,10.36A215.42,215.42,0,0,1,120.8,192c.09.69,0,1.6-.68,1.68-.47.08-.89-.39-1.11-.8-1.46-2.65-1.13-5.84-1.32-8.82-.52-7.79-4.82-14.84-6.25-22.5-.39-2-.55-3.94-.83-5.9a148,148,0,0,0-3.41-16.44q-3.2-12.81-6.37-25.57c-.27.66-.52,1.3-.8,1.93-3.19.36-6.33-1.07-8.84-3.06a22,22,0,0,1,11.18-39.23c-6-4.76-6.63-14.76-1.4-20.3-.72,3.8-1.43,7.66-.94,11.52s2.4,7.68,5.79,9.55c2.7,1.49,6.36,1.88,7.74,4.63"/><path class="8864cbdd-6535-4d1c-9b2a-72d3191f4a35" d="M139.76,138.31c-1.24-1.41-1.19-3.5-1.33-5.4s-.79-4.08-2.61-4.63c2-1.68-.33-5.1.88-7.38.83-1.55,1.65-3.09,2.48-4.66a3,3,0,0,0,.55-1.93c-.08-.66-.8-1.29-1.41-1a1.68,1.68,0,0,0-.77,1c-.47,1.19-.93,2.4-1.4,3.58a4.52,4.52,0,0,1-2.51-.68,10.89,10.89,0,0,1,7.47-6.7c-.72-.47-1.46-.94-2.18-1.43a8,8,0,0,1,7.44,1c1.35,1,3.19-.14,4.32-1.32s2.43-2.7,4.05-2.56a23.18,23.18,0,0,1-4,4.08c-2.29,2-4.6,4-6.89,6.06a6.68,6.68,0,0,1,2.92-3.7c-.85-1.4-3.14-1.18-4.27,0a7.89,7.89,0,0,0-1.54,4.63c-.17,1.63-.31,3.36-1.3,4.68.69.42,1.41.83,2.1,1.22a8.54,8.54,0,0,0-1.91,4c-.11,1.49.89,3.2,2.37,3.26a5.11,5.11,0,0,1-.41,2.7,3.15,3.15,0,0,0,.08,2.69c.53.75,2,.78,2.18-.13a9.45,9.45,0,0,1,6.75-7l-6.2,7.74a4.85,4.85,0,0,0-1.32,2.54,4.61,4.61,0,0,0,.66,2.45,26.55,26.55,0,0,0,16.5,13.25c.17-7.77.3-15.54.44-23.31s.28-15.76,1.13-23.58a17.2,17.2,0,0,1,1.74-6.64,43.77,43.77,0,0,0,6.94-1.65c-.86,1.68-2.7,2.56-4.22,3.66s-2.94,2.95-2.34,4.74a63.86,63.86,0,0,0,8.57-5.76c.72-.22.55,1.13,0,1.63a28.32,28.32,0,0,1-7,4.54c-1.71.78-2,3.06-2,4.94q-.41,22.1-.82,44.18a40.07,40.07,0,0,1-1.05,8.24c.94-1,1.85-2,2.78-3a4.63,4.63,0,0,1-.74,3.7c-.8-.58-2,.11-2.29,1a4.69,4.69,0,0,0,.31,2.87l3.38-2.89c-1,2.15-1.9,4.29-2.83,6.44a1.81,1.81,0,0,0-.22,1.49c.19.47,1,.61,1.15.11l-1.24,5.37c.53.61,1.46,0,2-.63,2.34-2.65,4.65-5.32,7-8,.8-.14.63,1.21.11,1.85l-8.79,10.24a3.47,3.47,0,0,1-2.51,1.6c1.74-8.46-2.45-17.66.75-25.67.55-1.41-.31-3.06-1.55-4a18,18,0,0,0-4.13-1.9,17.14,17.14,0,0,1-6.86-5.07c-.77-.94-2.48-1.84-2.84-.69a23.92,23.92,0,0,0,11.35,9.56,6.62,6.62,0,0,1-7.16-1.87,29.15,29.15,0,0,0,.25,16.53c.55,1.81-1.65,3.11-3.14,4.29a2.41,2.41,0,0,0-1.08,1.68c0,.69.72,1.38,1.33,1.08a1.9,1.9,0,1,1-2.26-2.76,5.11,5.11,0,0,0,3.19-5.78,38.41,38.41,0,0,1-.71-12.65,10.45,10.45,0,0,1-4.85-.08,3.61,3.61,0,0,1-2.62-3.66,10,10,0,0,0,5.9,2.26,2.69,2.69,0,0,0,2.23-.72c1.1-1.35-.66-3.11-1.88-4.38-3.47-3.69-2.75-10-6.08-13.77"/><path class="8864cbdd-6535-4d1c-9b2a-72d3191f4a35" d="M178.16,261.8a26.08,26.08,0,0,1,8.62,14.49l9.51-3.05c1.1-.36,2.34-.86,2.72-2,1.55-4.71.55-9.83-.49-14.68a4.48,4.48,0,0,1,1.79,2.89c1,3.25,1.93,6.61,1.35,9.92s-3.12,6.55-6.48,6.72c-.13,1.1,1.24,1.9,2.32,1.68a5.5,5.5,0,0,0,2.67-2c1.51-1.73,3.06-3.5,4.6-5.23.8,1.73-.3,3.72-1.52,5.21a10,10,0,0,1-5.15,3.69c-2.09.47-4.62-.55-5.2-2.62-5.68,1.41-11.57,3-15.93,6.89-5.48,5-15.2,4-19.67-1.85-.71-.94-1.54-2.09-2.69-2.06a301,301,0,0,1-48.46-3.12c-4.11-.6-7.8,2.48-11.9,3.14a10.83,10.83,0,0,1-11.13-5.64c-.58-1.19-.86-2.84.22-3.64,1.29-.94,1.62-2.7,1.84-4.27Q89,241.6,95,217.26a3.63,3.63,0,0,1,1-2.12,1.3,1.3,0,0,1,2,.33c-4.38,17.55-8,35.29-11,53.11-.2,1.08-.12,2.54,1,2.73,18.1,3.5,36.75,7,54.87,3.58,3.23-.58,6.48.41,9.56,1.4,4.3,1.35,8.6,2.73,12.9,4.11.66.19,1.46.85,1,1.4a44.46,44.46,0,0,0-8-1.57c2.81,3.2,7.14,5.24,11.35,4.6s8-4.32,8-8.56c-.47.91-1.93.8-2.62,0a4.84,4.84,0,0,1-.93-2.86l-1.41-13.22q-1.2-11.2-2.39-22.43c-.69-6.47-1.38-13.06-.47-19.5.6-.06,1.18-.14,1.79-.19.08,2.81.22,5.59.41,8.37.5,7.55,1.35,15.1,2.2,22.62,1.05,8.92,2.07,17.88,3.09,26.8a2.41,2.41,0,0,1,3.69,1.76,10.84,10.84,0,0,0,4.93-.9,68.15,68.15,0,0,1-7.93-14.94m-90.08,14c1.4,1,2.94,2,4.65,1.93a9.83,9.83,0,0,0,1.66-.3c1.1-.28,2.2-.53,3.3-.8a2.34,2.34,0,0,0,1-.47,1.17,1.17,0,0,0,.33-1.05,47.73,47.73,0,0,0-7-1.38c-2.15-.27-4.71-.63-5.65-2.58-.33-.64-1.46-.39-1.71.3a2.24,2.24,0,0,0,.55,2,11.57,11.57,0,0,0,2.79,2.31M139.51,278a58.26,58.26,0,0,0,9.34.16c.77,0,1.79-.38,1.68-1.15a30.5,30.5,0,0,0-10.86.19c0,.25-.11.52-.16.8"/><path class="8864cbdd-6535-4d1c-9b2a-72d3191f4a35" d="M139.29,215.83a3.71,3.71,0,0,0-2.54,2.89c3.86-.19,7.75-.41,11.6-.61,1.9-.11,4-.3,5.29-1.7q-.54,27.27-3.14,54.48c-.77.56-1.93-.27-2.07-1.21a4.2,4.2,0,0,1,1-2.64L130,266.87c-1.24,0-2.59.06-3.41.94-1.38,1.46-.66,4.52-2.57,5.21a4.94,4.94,0,0,1,.42-5.73c-1.52-.42-2.92.74-4.13,1.7s-3,1.85-4.22.94a14.34,14.34,0,0,0-13.83-5.12,2.14,2.14,0,0,1-2.23-1.63,6,6,0,0,1,.14-3l9.09-43.64,4.68-.11c.19,1.57,2.29,2,3.89,2,5.59.08,11.18.16,16.77.27a6,6,0,0,1,2.26-3c-.69-.11-1.35-.19-2-.27a201.49,201.49,0,0,0-31.9-1.68c4-3.28,9.84-2.4,15-1.82,13.94,1.49,28-.77,42,.36.74.63-.66,1.57-1.65,1.57q-10,.16-20,.3a1.18,1.18,0,0,0,1,1.6m-37,46.17a26.52,26.52,0,0,0,7.19.74,28.37,28.37,0,0,1-.11-15.32,13,13,0,0,1,4-6.83c3-2.37,7.13-2.37,10.93-2.28a2,2,0,0,1,.06-2.51c4.57,2.81,7.24,8.15,7.66,13.5s-1.19,10.69-3.64,15.45c6.8-.14,13.64-.22,20.47-.19q.78-22.11,2.61-44.16a35.75,35.75,0,0,0-8.07-.41c-2.72.16-5.84.91-7.1,3.36-1.11,2.12-.39,4.76-1.16,7,3.91.08,7.85.36,11.76.83,1.16.14,2.73.93,2.21,2l-12.18.08a173.66,173.66,0,0,1-22.12-.71c-2.29-.25-5.35-.11-5.9,2.12q-3.3,13.68-6.61,27.33m15.43-18.41a2.94,2.94,0,0,0-3.28.89c-.85.85-1.43,2-2.31,2.78-.25.91-.47,1.82-.66,2.75a25.15,25.15,0,0,0-.34,7.3c.22,2.26,1.13,4.91,3.37,5.43a1.91,1.91,0,0,1,1,.36c.25.27.36.74.72.77a.68.68,0,0,0,.55-.25,14,14,0,0,0,4.79-9.14,14.12,14.12,0,0,0-2.84-9.95,3.57,3.57,0,0,0-1-.94m6.55,11.16a16.71,16.71,0,0,1-5,10.72,7.71,7.71,0,0,1-.69.71c.66.39,1.49,0,2.18-.35a9.53,9.53,0,0,1,5-.83c.85-2.23,1.68-4.44,2.53-6.67a12.94,12.94,0,0,0,.69-10.91c-.3-1.07-.63-2.17-.94-3.25a6,6,0,0,0-.52-1.37,4.29,4.29,0,0,0-3.22-2,9.2,9.2,0,0,0-3.83.55c.14,2.4,2.7,4,3.3,6.36.44,1.74-.24,3.61.39,5.29a4.44,4.44,0,0,1,.16,1.71m.12-29.09c-.69-.55-.23-1.65.24-2.4s.77-1.95,0-2.34a1,1,0,0,0-1.16-.3,3.23,3.23,0,0,1-1.76,1.63,2.67,2.67,0,0,1,.27-2.07,12.16,12.16,0,0,0-2.89-.08c-.8.88-.61,2.23-.86,3.38a13.66,13.66,0,0,1-1.37,3,3.71,3.71,0,0,0-.31,3.12,1.16,1.16,0,0,0-1.26.74,40,40,0,0,1,9.75.58c2.06.27,4.13.58,6.2.85.8.14,1.29-.82,1.51-1.6a9.47,9.47,0,0,0,.14-5.81l.58-1.93a1.78,1.78,0,0,1-1.43-1.76c-1.6-.11-3.59.63-3.75,2.26-.08.74.11,1.82-.63,2-.5.14-.72.69-.86,1.18l-1.07,3.72c-.25.8-1.6.61-1.93-.16a2.75,2.75,0,0,1,.47-2.37c.3-.52.58-1.24.14-1.6m-8.46-1.54v-3.64a1,1,0,0,0-1.46.11,3.44,3.44,0,0,0-.55,1.57,1.89,1.89,0,0,1-.88,1.38c-.66-.41-1.57.14-1.85.88a7.45,7.45,0,0,0-.16,2.32,5.86,5.86,0,0,1-1.21,3.41c1.13.08,2.23.14,3.36.17a2.48,2.48,0,0,0,1.35-.28.84.84,0,0,0,.22-1.21,3,3,0,0,1,1.18-4.77m-4.8-2.26c.58-.33,1.16-.85,1.13-1.48s-1-1.16-1.32-.61a1.72,1.72,0,0,1-.6,1.63c.27.19.55.35.82.55"/></g></svg>