<svg xmlns="http://www.w3.org/2000/svg" viewBox="0 0 300 300"><defs><style>.\35 352edbd-45fa-4098-854e-cb7cded3d380{isolation:isolate;}.\39 064b001-5cae-4908-b2da-9e4cee3243eb{fill:#fff;}.\31 7b65d93-9bba-47a5-8a25-8650c062dfc1{fill:#52df84;}.\37 74329d6-f949-4783-b412-68d1c78fdc58,.b75bbc3f-aa08-42a9-ada3-e7e65621313f{fill:#e6e6e6;}.b75bbc3f-aa08-42a9-ada3-e7e65621313f,.dbf6c75b-0af0-4551-8c82-c10531cae4e3{mix-blend-mode:multiply;}.\34 e02d0e3-956e-4858-a16c-51cbb6a87b73,.dbf6c75b-0af0-4551-8c82-c10531cae4e3{fill:#b3b3b3;opacity:0.3;}.ce4300b0-274b-4eb8-a47b-5a9ad25980ee{fill:#424242;}</style></defs><g class="5352edbd-45fa-4098-854e-cb7cded3d380"><g id="9c6cd456-3ffb-454c-b065-34c771432474" data-name="Layer 1"><path class="9064b001-5cae-4908-b2da-9e4cee3243eb" d="M253.69,113.45l-.07-.2c0,.07,0,.14.07.2Z"/><path class="9064b001-5cae-4908-b2da-9e4cee3243eb" d="M275.64,108.53c-2.38-1.85-6.65-2.07-8.73.52a13.33,13.33,0,0,1-1.29,1.42c-.07.07-.31.26-.47.38l-.1.07c-.53.3-1.07.58-1.61.88-.44.12-.87.3-1.31.43a32.55,32.55,0,0,1-3.89.86l-.17,0-.63.06c-.76.08-1.51.14-2.27.2l-1.48.08,0,0h0v0h0c-.12-.26-.23-.6-.07-.2-.12-.29-.23-.58-.33-.88a47.76,47.76,0,0,1-1.43-4.83c-.22-.93-.42-1.88-.59-2.82-.06-.36-.12-.71-.17-1.07,0-.09,0-.17,0-.22s0-.3,0-.51c-.27-3-.35-6.12-1.76-8.67l1.61,0c4.17,0,8.49-.56,12-2.89,2.91-1.91,4.4-6,2.39-9.1-1.87-2.9-6-4.42-9.1-2.38l-.57.35a5.26,5.26,0,0,1-.79.35c-.38.11-.78.17-1.16.28h0l-1.84,0a6.83,6.83,0,0,0-7.73-.8l-1.55.77c-2.67,0-5.33.14-8,.38-2.83.25-5.4.76-7.55,2.78-2,1.83-2.84,4.23-3.76,6.67a34.19,34.19,0,0,0-2.43,12.71c0,.19,0,.37,0,.55a19,19,0,0,0-.24,3.91c-1.05.29-2.11.54-3.17.81a58,58,0,0,0-12.11,4.86c-.73-.07-1.46-.13-2.2-.18a19.11,19.11,0,0,0,4.59-5.94c2.2-4.45,3.19-9.74,1.54-14.55-1.8-5.24-5.94-8.63-11.09-10.38-3.76-1.28-7.81-1.39-11.57-2.69A16.5,16.5,0,0,0,185,79c-.74-.43-1.42-.91-2.13-1.38l-.19-.12-.09-.08-.8-.66c-.79-.67-1.56-1.37-2.32-2.08-5.85-5.49-11.58-11.9-19.73-13.81-6-1.4-12.48-.56-18.53.26a45.31,45.31,0,0,0-12.35,3.36c-2.29-3.61-5.13-6.94-9.06-8.69-5.75-2.57-12.83-2.27-19-1.56a48.17,48.17,0,0,0-18.05,5.32C76.86,62.75,71,68.71,71.92,76c.49,3.61,3.14,6.83,4.64,10.1l.21.47.31.79c.12.33.25.67.37,1a7.37,7.37,0,0,0-2.77,0,5.76,5.76,0,0,0-5.42-2.93,20.7,20.7,0,0,0-10.18,3.83,25.32,25.32,0,0,0-8.68,5.19,6.78,6.78,0,0,0-1.33,7.53A16.42,16.42,0,0,0,46,111.36c0,.16,0,.32,0,.48a10.07,10.07,0,0,0,.4,8.67,11,11,0,0,0,9.08,5.61c5.56,2.5,12,1.73,17.74,0A46,46,0,0,0,80.78,123c.3,2.76.5,5.59,2,8,3.57,6,10.93,5.79,16.54,3.28s9.47-8.34,7.62-14.54c-1.13-3.81-4.38-6.07-8-7.56A14.89,14.89,0,0,0,102,106a11.1,11.1,0,0,0-2.4-10.11,10.36,10.36,0,0,0-7.29-3,7.8,7.8,0,0,0-.18-1.57,56.17,56.17,0,0,0-2.88-9.15c-.74-1.8-1.52-3.58-2.41-5.31-.37-.72-.76-1.42-1.16-2.11-.07-.12-.17-.34-.29-.59l.19-.3a11,11,0,0,1,.9-.91c.18-.17.38-.33.57-.49l.48-.33c1.2-.7,2.37-1.43,3.63-2l.55-.25.57-.22c.73-.25,1.44-.51,2.18-.74,5.67-1.73,10.33-2.05,16.88-1.69l1.16.11c.58.17,1.63.52,1.42.36q.42.22.81.48c-.56-.33.87.77,1.08,1,.07.07.67.8.74.85.36.5.7,1,1,1.55.73,1.17,1.38,2.38,2,3.59a6.69,6.69,0,0,0,5.61,3.28,6.18,6.18,0,0,0,6.1-.23c.93-.6,1.89-1.11,2.86-1.63l.58-.28.86-.32a41.68,41.68,0,0,1,6.42-1.64l1.65-.27.19,0,.36,0c.89-.09,1.78-.19,2.67-.26a60.66,60.66,0,0,1,6.87-.33c.58,0,1.16,0,1.73.11l.21,0,.42.12,1.94.58h0c.32.22.76.37,1.1.56.73.4,1.44.84,2.13,1.31l.32.23.75.58c.53.44,1,.89,1.55,1.35,1.3,1.16,2.54,2.38,3.78,3.59,5.35,5.2,11,10,18.5,11.66,1.69.36,3.4.6,5.1.94a27.87,27.87,0,0,1,2.73.67l1,.35c-1.39-.44.08.1.37.25l.26.13.64.64.07.14,0,.07a2.81,2.81,0,0,0,.26.86c0,.32,0,.67,0,1,0,.07,0,.13,0,.19l0,.08c-.09.34-.15.68-.25,1s-.28.83-.29.88q-.16.34-.36.69c-.13.22-.76,1.13-.69,1.09a15.54,15.54,0,0,1-1.36,1.33l-.26.2c-.51.33-1,.67-1.55,1s-.9.49-1.36.71l-.52.24-.16.06c-1.1.34-2.16.76-3.26,1.07-2.21.63-4.47,1.1-6.72,1.57-3.41.7-5.69,4.92-4.64,8.17a6.68,6.68,0,0,0,5.33,4.71,5.28,5.28,0,0,0,.21,1c1.19,3.68,4.5,5.3,8.18,4.64.59-.11,1.18-.21,1.78-.3l1.33-.17c1.28-.13,2.57-.22,3.86-.27a62.55,62.55,0,0,1,7.5.16,6.56,6.56,0,0,0,3.72.46q1.74.3,3.45.69a63.33,63.33,0,0,1,8.08,2.48c3.26,1.23,7.43-1.37,8.17-4.64a6.6,6.6,0,0,0-1-5.51c.65-.22,1.28-.47,1.91-.72a40.3,40.3,0,0,0,5.94,5c3.26,2.28,6.75,4.25,10.16,6.3s7.19,4.57,11.3,5.48c6.23,1.38,11.72-1.07,15.2-6.32,2.64-4,4.66-8.55,6.92-12.78A6.68,6.68,0,0,0,275.64,108.53ZM89.19,102.44a3.71,3.71,0,0,0-.23.83v0A.87.87,0,0,1,89.19,102.44Z"/><path class="9064b001-5cae-4908-b2da-9e4cee3243eb" d="M204.38,211.14l.82-.13.93.11c8.89.87,18.29-2.6,25.34-7.88A82.18,82.18,0,0,0,250,183.55c.41-.62.8-1.24,1.16-1.86,1.1-3.52,2.09-7.07,2.88-10.67q.69-3.17,1.22-6.36c.14-.83.26-1.67.38-2.5,0,0,0-.14,0-.31a42.79,42.79,0,0,0-.75-5.7c-1.73-8.68-6.62-16.37-12-23.2-5.52-7-12.63-12.37-21.66-13.7a138.79,138.79,0,0,0-26.72-1.14c-3.68.18-7.39.44-11.09.83a31.62,31.62,0,0,0,4.25-3.6,13.49,13.49,0,0,0,3.76-6.42h0c-.31,3.48,3.28,6.8,6.65,6.65,3.87-.17,6.31-2.93,6.64-6.65a55.39,55.39,0,0,0-.83-15.2c-1-5.4-3.2-9.9-7.74-13.17a43.8,43.8,0,0,0-12.59-5.8,54.7,54.7,0,0,0-14.71-2.33,6.13,6.13,0,0,0-2.46.48l-.22-.26c-4.62-5.18-12.72-4.75-19.1-4.54a7,7,0,0,0-6.56,5.33c-1.44.07-2.87.19-4.31.37-1.85.24-3.69.56-5.51,1-3.94-4.9-8.64-9.27-15-10.69a38.5,38.5,0,0,0-12.12-.43A36.93,36.93,0,0,0,91,66.85c-7.11,3.36-12.21,10.82-11.66,18.81A33,33,0,0,0,83,97.91c2,4,5.12,7.17,9.53,8.19a15.16,15.16,0,0,0,10.16-1.17,26.53,26.53,0,0,0,1,8.1,71.18,71.18,0,0,0,4.74,11.22,6.22,6.22,0,0,0-4.52,3.78,6.55,6.55,0,0,0,.65,6.31c-1.89,1.19-3.82,2.3-5.63,3.65-5.13,3.83-9.9,8.39-12.83,14.18a28.47,28.47,0,0,0-3.28,11.92,55.73,55.73,0,0,0-5.72-1.31l-.33-.23a24.28,24.28,0,0,0-20.88-2.35,25.25,25.25,0,0,0-15,14.86A46.24,46.24,0,0,0,38.64,186q-.7,5.61-1.37,11.22c-.34,2.74,2.29,5.82,4.88,6.41a6.82,6.82,0,0,0,7.43-2.95l.17-.09c-.14.06-.13,0,.06,0l.27-.13-.26.13.28-.09,1.45-.44q3.44-1,6.91-1.82c1.25-.31,2.52-.6,3.78-.88l1,1.34c.39.48.78,1,1.16,1.45l.1.14a36.7,36.7,0,0,1,3.38,5.65l.2.41.16.45c.15.42.3.83.44,1.25a33.38,33.38,0,0,1,.94,3.53c.09.39.16.79.23,1.19,0,.08,0,.48,0,.8s0,.7,0,1.05c0-.05,0,.18,0,.31l-.14.09c-.94.53-1.9,1-2.88,1.42L52.6,222.77c-3.8,1.7-4.33,7.83-1.35,10.44a29.11,29.11,0,0,0,34,2.92,33.75,33.75,0,0,0,15.56-26.91c1.1-1,2.21-2,3.37-3,0,0,.91-.73,1-.79.42-.32.85-.63,1.28-.94a70,70,0,0,1,7.38-4.67q1.84-1,3.75-1.92.89-.42,1.77-.81l.32-.14.78-.32a75.23,75.23,0,0,1,8.31-2.69,6.11,6.11,0,0,0,3.56-2.44,70.5,70.5,0,0,0,15.46,9,16.92,16.92,0,0,0,4.91,2.74A146.68,146.68,0,0,0,186,211.23,64.82,64.82,0,0,0,204.38,211.14Zm-94.15-31.67-3.11,3.35h0a22.5,22.5,0,0,0,1.9-2.55,8.35,8.35,0,0,0,.72-1.39l2-1Zm28-92.32-.42-.24,1.56-.13Z"/><path class="9064b001-5cae-4908-b2da-9e4cee3243eb" d="M49.75,200.59l.07,0h0Z"/><path class="17b65d93-9bba-47a5-8a25-8650c062dfc1" d="M53.48,170.85l-.09.06c-.11.09-.61.46-.77.6s-.58.54-.86.82a99.69,99.69,0,0,1,5.8,10.53C56.19,178.86,54.82,174.86,53.48,170.85Z"/><path class="17b65d93-9bba-47a5-8a25-8650c062dfc1" d="M253.32,156.93c-1.73-8.68-6.62-16.37-12-23.2-5.52-7-12.64-12.36-21.66-13.7a138.79,138.79,0,0,0-26.72-1.14c-1.25.06-2.5.14-3.75.22a27.32,27.32,0,0,1-3.44,1c-4.76,1-9.81.88-14.15-1.56a18.15,18.15,0,0,1-6.75-7.23,59,59,0,0,1-4.6,10.14c-4.24,7.3-10.34,14-18.78,16.24s-17.7.57-26.06-1.63a34.43,34.43,0,0,1-13.29-6.59,6.55,6.55,0,0,0,.89,5.65c-1.89,1.19-3.83,2.3-5.63,3.65-5.14,3.83-9.9,8.39-12.83,14.18a29.54,29.54,0,0,0-3.2,10.47c.87.68,1.72,1.37,2.58,2.05l2.56,2,.17.13.81.62c1.29,1,2.62,1.88,4,2.71.32.2,2.39,1.11.89.59l1.1.37a31.84,31.84,0,0,0,3.48.79c2,.36,4.06.61,6.07,1,.78.16,1.55.37,2.33.6.09-.55.2-1.1.32-1.64,1.19-5.24,7.84-6.34,11.44-3,6.69,6.17,10.14,14.64,13.18,23.14.15-.17.28-.34.41-.52a70.57,70.57,0,0,0,15.47,9,16.79,16.79,0,0,0,4.91,2.74A146.56,146.56,0,0,0,184.42,212a64.45,64.45,0,0,0,18.4-.09l.82-.13.93.11c8.89.88,18.29-2.59,25.33-7.88a82,82,0,0,0,18.48-19.69q.62-.92,1.17-1.86c1.1-3.52,2.08-7.07,2.87-10.67.47-2.11.87-4.23,1.22-6.36.14-.83.27-1.66.39-2.5,0,0,0-.14,0-.31A44.47,44.47,0,0,0,253.32,156.93Z"/><path class="17b65d93-9bba-47a5-8a25-8650c062dfc1" d="M52,225.84c-.18-.8-.36-1.6-.55-2.4l0-.08-.28.13C51.47,224.27,51.75,225.06,52,225.84Z"/><path class="774329d6-f949-4783-b412-68d1c78fdc58" d="M110.45,125.47l-7.64-9.21c-2.62-3.16-5.5-7-10.21-6a6.79,6.79,0,0,0-4,2.51,5.37,5.37,0,0,0-4.88-1.17,14.22,14.22,0,0,1-12.11-2.4,14.66,14.66,0,0,1-5.15-8.79c3.46-3.93-1.39-11.09-6.71-8-2.91,1.7-5.82,3.38-8.72,5.09s-5.51,3.52-7.22,6.31c-3.51,5.71-2,13,2.35,17.81a20.6,20.6,0,0,0,16.7,6.23,15.31,15.31,0,0,0,8.58-3.71,20.38,20.38,0,0,0,2.59-.08,6.19,6.19,0,0,0,3.74-1.63,25.59,25.59,0,0,0,2.63.12A17,17,0,0,0,85.33,132c4.28,3.9,12,5.53,16.53,1.06a7.12,7.12,0,0,0,.64-.73l.49.58c1.82,2.2,5.58,1.89,7.46,0C112.63,130.76,112.28,127.67,110.45,125.47Z"/><path class="774329d6-f949-4783-b412-68d1c78fdc58" d="M89.37,63.15a5.05,5.05,0,0,0-.77-.63,5.56,5.56,0,0,0-3.45-1.35c-5.48-.17-9.75,4.26-11,9.35a18.4,18.4,0,0,0,.12,8.22c.1.47.21,1,.34,1.44a20.12,20.12,0,0,0,1.45,7.26c1,2.43,3,4.2,5.79,3.78A5.24,5.24,0,0,0,86.43,86a35.47,35.47,0,0,0-1.25-6.56c0-.24,0-.48,0-.72,0,0,0-.44.06-.65s.19-1,.19-.95a9.19,9.19,0,0,1,1.27-3.36c.18-.32.38-.62.57-.94.09-.13.14-.23.19-.31l.15-.16a16.07,16.07,0,0,1,1.74-1.76C91.51,68.73,91.3,65.08,89.37,63.15Z"/><path class="774329d6-f949-4783-b412-68d1c78fdc58" d="M176.52,75.63a5.36,5.36,0,0,0-6.5-3.69c-2.31.62-4.27.24-6.72-.64a40.46,40.46,0,0,1-7.14-3.74,5.36,5.36,0,0,0-7.22,1.9c-1.57,2.68-.41,5.52,1.89,7.22l11,8.12c2.08,1.55,5.38.55,6.81-1.36a6,6,0,0,0,.45-.71,18.71,18.71,0,0,0,3.78-.61A5.37,5.37,0,0,0,176.52,75.63Z"/><path class="774329d6-f949-4783-b412-68d1c78fdc58" d="M171.81,114.75c-.51-2.81-3.92-4.4-6.49-3.69a5.28,5.28,0,0,0-3.77,5.88c-.18.23-.51.53-.54.57a9.64,9.64,0,0,1-1.9,1.51c-2.28,1.57-4.63,3-7,4.46a129.15,129.15,0,0,1-14.52,7.35c-2.61,1.13-3.2,5-1.89,7.22,1.58,2.71,4.59,3,7.22,1.9a129.38,129.38,0,0,0,17.61-9.23C166.4,127,173.25,122.74,171.81,114.75Z"/><path class="b75bbc3f-aa08-42a9-ada3-e7e65621313f" d="M119,136.5c-.68-2.49-3.84-4.78-6.49-3.68A35.69,35.69,0,0,0,92,154.17c-1,2.68,1.08,5.77,3.69,6.49a5.38,5.38,0,0,0,6.49-3.69,25.22,25.22,0,0,1,5.13-8.3,23.85,23.85,0,0,1,3.58-3.16,26.3,26.3,0,0,1,2.48-1.54l1-.55s1.43-.66.87-.42C117.94,141.91,119.82,139.5,119,136.5Z"/><path class="774329d6-f949-4783-b412-68d1c78fdc58" d="M253.91,82.11c-.83-3-3.67-4.13-6.5-3.69a31.75,31.75,0,0,0-23.23,17.46c-1.21,2.58-.72,5.69,1.89,7.22,2.3,1.34,6,.7,7.23-1.89A21.63,21.63,0,0,1,250.22,88.6C253,88.16,254.6,84.63,253.91,82.11Z"/><path class="774329d6-f949-4783-b412-68d1c78fdc58" d="M90.53,219A5.36,5.36,0,0,0,84,222.67a2.75,2.75,0,0,0-.1.34s0,0-.1.13-.76.93-.28.43a4,4,0,0,1-1.27,1.08,12.91,12.91,0,0,1-4.43,1.86,33,33,0,0,1-12.7.89c-2.84-.32-5.28,2.65-5.28,5.28,0,3.12,2.44,4.95,5.28,5.27,10.1,1.14,25.52-1.18,29.06-12.47A5.36,5.36,0,0,0,90.53,219Z"/><path class="774329d6-f949-4783-b412-68d1c78fdc58" d="M76.18,192.73c-.58-1-1.16-2-1.75-2.94a5.46,5.46,0,0,0-3.15-2.42,5.29,5.29,0,0,0-6.5,3.68,5.5,5.5,0,0,0,.54,4.07c.58,1,1.16,2,1.75,2.94a5.47,5.47,0,0,0,3.15,2.43,5.4,5.4,0,0,0,4.07-.54,5.3,5.3,0,0,0,2.43-3.15A5.5,5.5,0,0,0,76.18,192.73Z"/><path class="4e02d0e3-956e-4858-a16c-51cbb6a87b73" d="M275.51,114.86c-4.87,1.73-11,2.14-15.4-1a7.88,7.88,0,0,1-2.75-3.25c-.39-.49-.75-1-1.11-1.47a71.46,71.46,0,0,1-6.57-10.91,4.33,4.33,0,0,0-1.89-1.92l13.51-3.85a5.31,5.31,0,0,0,3.28-2.75,5.51,5.51,0,0,0,1.85-5.63,4.41,4.41,0,0,0-.31-.84c-2.64-.08-5.29-.17-7.95-.23-3.26-.08-6.52-.06-9.78.1-1.33.07-2.67.15-4,.27-.78.06-1.54.15-2.32.22l-.26,0-.23,0a38.24,38.24,0,0,0-7.22,1.84c-.06,0-.82.39-1,.49a22.88,22.88,0,0,0-2,1.17c-.25.17-1.47,1.29-.49.33-.57.56-1.18,1.07-1.73,1.65a6.86,6.86,0,0,1-8.6.83,25.17,25.17,0,0,0-1.17,4.18,22.24,22.24,0,0,0-.09,9.33,6.79,6.79,0,0,1-.34,12.75,8.12,8.12,0,0,1,.93,3.06A32.29,32.29,0,0,1,233.72,125c2.42,1.71,4.69,3.64,7.23,5.17a35.27,35.27,0,0,0,5,2.47,14.77,14.77,0,0,0,4.14,4c.33-3.18,3.52-6.5,6.82-6.09a54,54,0,0,0,11.65.28l.47,0,.59-.12a25.93,25.93,0,0,0,4.64-8.08c.07-.18.14-.36.22-.54a17.08,17.08,0,0,0,1.83-4.6l1.32-3.47C276.9,114.33,276.22,114.61,275.51,114.86Z"/><path class="dbf6c75b-0af0-4551-8c82-c10531cae4e3" d="M238.85,189.71a65.74,65.74,0,0,1-14.31,8.88c-5.67,2.44-11.69,2.75-17.77,2.92l-1.79.06c-4.76,0-9.52-.23-14.22-.67a100.52,100.52,0,0,1-16.61-3.32c-12.9-3.81-26.87-11.2-34.05-22.86a22.54,22.54,0,0,1-3.39-9,13.77,13.77,0,0,1-2.36-8.23,6.87,6.87,0,0,1,4.24-9.66c.84-.2,1.67-.42,2.49-.69.36-.12.7-.27,1.06-.37h0c1.14-.56,2.27-1.13,3.36-1.8.59-.37,1.17-.75,1.74-1.15.32-.23,1.15-.88,1.13-.85.86-.71,1.7-1.42,2.53-2.15,4-3.52,7.78-7.22,12.19-10.22a36,36,0,0,1,3.32-2c.06-.13.11-.26.18-.38a6.92,6.92,0,0,1,8.89-2.71c1.68-.25,3.38-.4,5-.54,1.49-.13,3-.24,4.46-.38.4,0,2.08-.28,1.19-.13.52-.09,1-.18,1.56-.29a35.15,35.15,0,0,0,4.5-1.32l.78-.3.21-.1c.56-.27,1.12-.53,1.67-.82,3.81-1.94,7.39-4.19,11.14-6.15a24.28,24.28,0,0,1-5.11-2.52,15.72,15.72,0,0,1-1.66,1.29,31.07,31.07,0,0,1-30.89,2.93c0,.11-.07.21-.1.31a5.23,5.23,0,0,0-.13,1.82,5.66,5.66,0,0,0-5.08,2.58c-2,3-5.06,5.27-8.11,7.39a6,6,0,0,0-4.37,2.6c-.18.24-.38.5-.6.77a19.52,19.52,0,0,1-2.43,1.29,17.11,17.11,0,0,1-6.8,1.09c-5.36.06-10.74-.1-16.09-.34-1,0-1.9-.11-2.85-.19l-.47,0a2.66,2.66,0,0,0-.41-.09c-.46-.1-.93-.19-1.39-.3l-.54-.15a7.12,7.12,0,0,1-6.75,5.48c-.37,0-.74,0-1.11,0l-.19,0c-.64.14-1.27.28-1.89.47-.19.05-1.81.64-1.78.6-.53.22-1,.48-1.55.73a46.22,46.22,0,0,0-4,2.35c-.54.35-1.06.73-1.6,1.08l-1,.64c-.24.22-1,.85-1.15.95-.42.39-.83.79-1.24,1.2-1,1-1.88,2-2.82,2.93a27.82,27.82,0,0,1-6.69,5.44,7.25,7.25,0,0,1-3.74.86,10.31,10.31,0,0,0,.34,2.16c1,3.85,4,7,7.27,9.16a19.82,19.82,0,0,0,3.5,1.84,4.81,4.81,0,0,0-.06.77,5.08,5.08,0,0,0,.53,2.2c-.73.17-1.45.33-2.19.48-.79-.59-1.6-1.15-2.43-1.69a5.51,5.51,0,0,0-2.71-2.54l-.06,0c-1.17-2.74-4.71-4.47-7.53-2.7-1-.37-1.94-.71-2.92-1a6.69,6.69,0,0,0-.64-1.21,6,6,0,0,1-1.74.24c-1,0-1.9,0-2.85,0-.41,0-.82.06-1.24.1l-.25,0a33.44,33.44,0,0,0-4.74,1.16c-.68.22-1.35.49-2,.74h0c-.42.21-.85.39-1.27.59-1.35.67-2.66,1.4-4,2.17-5.78,3.46-11.06,7.68-16.8,11.2a6.24,6.24,0,0,1-2.79.9c-.07,1.84,0,3.68.1,5.47A6.33,6.33,0,0,0,41.15,191l-2.14.51a5.28,5.28,0,1,0,2.81,10.18l15.11-3.62,3.55-.85.24.33a27.29,27.29,0,0,1,2.18,3.16,4.25,4.25,0,0,1,.37.77c.13.36.16,1.33.27.55-.39,2.82.69,5.67,3.69,6.49a5.31,5.31,0,0,0,2.48,0c-1.13,1.36-2.25,2.72-3.38,4.07,1.86,1.7,3.11,4.6,2.14,7-2,4.85-5.82,7.75-10.44,10-2.35,1.13-4.77,2.1-7.17,3.1l-1.26.51-.1.05-.63.29c4.23,4.39,14.36,5.33,19.2,5.51,5.6.21,12.52-.25,18.1-2.75l.51-.52c1-1,1.91-2.13,2.83-3.23l.28-.36c.19-.24.37-.49.55-.74.37-.5.73-1,1.08-1.53A59,59,0,0,0,96,222c.25-.51.48-1,.72-1.55-.72,1.55.22-.57.32-.88a12,12,0,0,0,.42-1.64c.05-.24.19-1.17.2-1.26A55.64,55.64,0,0,1,99,208.34a14.9,14.9,0,0,1,6.2-8.45c4.3-3,9.67-4.2,14.63-5.67a6.39,6.39,0,0,1,3.92.11h0a3.78,3.78,0,0,0,1.08-1.5,5.79,5.79,0,0,0,2.49-3.76c6.85,10.69,18.47,17.36,30.51,20.62,13.85,3.74,28.32,3.1,42.51,2.59l.71,0a226,226,0,0,0,22.69-.45,5.57,5.57,0,0,0,5-3.55,63.56,63.56,0,0,0,9.35-5.09c.91-.95,1.8-1.91,2.66-2.91.49-.57,1-1.15,1.45-1.73l.27-.33.39-.51a59.67,59.67,0,0,0,5-7.86q.57-1.06,1.08-2.16c.15-.32.55-1.3.57-1.33.43-1.12.83-2.25,1.2-3.4.86-2.69,1.66-5.41,2.37-8.15A77.87,77.87,0,0,1,238.85,189.71ZM69.77,186.37a7,7,0,0,0-.68-.65l1.75-1.05C70.49,185.24,70.13,185.81,69.77,186.37ZM72,195.3c-.2-.34-.4-.68-.62-1s-.4-.58-.6-.86a4.39,4.39,0,0,0,.71.51,4.88,4.88,0,0,0,.87.41Zm1.9,8.25a15.71,15.71,0,0,0,0-2.38,6.78,6.78,0,0,0,1.34.8C74.73,202.49,74.3,203,73.86,203.55Zm43-47.23a6,6,0,0,0-2.82-.9,18.65,18.65,0,0,1,4.23-2.67.1.1,0,0,0,.06,0A14.49,14.49,0,0,1,116.85,156.32Zm5.72,23.83a30.44,30.44,0,0,1-1.64-5.54c-.45-2.22-.72-4.46-1-6.7.47-.32.92-.65,1.36-1a37.08,37.08,0,0,0,2.8,16A16.2,16.2,0,0,1,122.57,180.15Zm6.67-29a5.14,5.14,0,0,0-1.24.16,5.43,5.43,0,0,0-1.41-1.61,4.72,4.72,0,0,0,.65-.84l.57.47a12.44,12.44,0,0,0,1.79,1.2Z"/><g id="c17e178b-93c5-4183-96a9-972cedd2bcd9" data-name="Form 29"><path class="ce4300b0-274b-4eb8-a47b-5a9ad25980ee" d="M278.59,110.56a7.49,7.49,0,0,0-1.49-3.72c-2.34-2.58-6.68-1.17-9.54.9s-5.86,4.81-9.34,4.19c-5.87-2.7-8.29-11.07-4.73-16.51a25.81,25.81,0,0,1,12-9.77,10.82,10.82,0,0,1-7.27,9.23,8.49,8.49,0,0,0,6.33-15.53c-2.23-1.33-4.89-1.56-7.47-1.8-7.27-.62-14.82-1.21-21.7,1.18-11.18,3.79-19,15.72-17.95,27.49l-8.72,5.2a270.23,270.23,0,0,0,29.37-10.64,21,21,0,0,0-16.86,3.72,7.23,7.23,0,0,1-.19-7.16c1.33,1.17,2.66,2.39,4,3.56a14.91,14.91,0,0,1,4.18-14.47c3.52-3.28,8.45-4.61,13.22-5.28a67.3,67.3,0,0,1,23.26.67c-.15,2.11-2.65,3.4-4.73,3.05S257.2,83,255.6,81.62a4.75,4.75,0,0,0,3.75,4.46c-4.69,2.7-9.42,5.39-14.15,8.09,0,6.85,4.37,12.83,8.6,18.19,2.42,3.12,7.19,3.51,10.83,2s6.41-4.5,9.07-7.43c2-.12,2.35,2.93,1.33,4.65s-2.58,3.52-1.92,5.4c2.12,6.06-1.64,13.14-7.42,15.95s-12.79,2-18.54-.82-10.48-7.43-14.82-12.16a12.84,12.84,0,0,1,3.91-7.27,25.52,25.52,0,0,1,6.61,12.39,9.91,9.91,0,1,0-17.36-9.46l4.65-1.17c.31,1.68.63,3.32.94,5a73.57,73.57,0,0,0-28.82-6.33A22.68,22.68,0,0,0,208,93.16a5.72,5.72,0,0,0,4.89-1.69,9.51,9.51,0,0,1-7.28-4.53l4-3.09a3.34,3.34,0,0,0-4.1,2,2.58,2.58,0,0,1-2.55-3A40.24,40.24,0,0,0,224.71,56.4c-6.14,4.3-7.86,12.67-13,18.18-4.49,4.89-11.3,7.16-17.95,7.47s-13.21-1-19.7-2.46c3.44-4.19,10.09-2.39,15.25-.71s12.55,1.72,14.15-3.48C198,78.81,190.8,77,184.59,75.09a19,19,0,0,1-4.77-2A26,26,0,0,1,175,68.4c-9.78-10.71-27.1-13.64-39.89-6.76-3.24,1.76-6.72-1.56-9.58-3.91-9.54-7.86-23.66-6-35.5-2.46-6.46,1.87-13.1,4.38-17.4,9.5S67.47,78.53,72.52,83a19.55,19.55,0,0,1,7.31-20.8c3.75-2.66,8.37-3.87,12.87-4.93,11.49-2.74,25.45-4.3,33.35,4.46a3.85,3.85,0,0,1,1.25,2.7c-.12,1.52-1.8,2.38-3,3.44s-1.56,3.48,0,3.79A33.89,33.89,0,0,1,177.55,76a14.15,14.15,0,0,0-12.08,9.5c6.41-1.6,12.9-3.2,19.47-2.93s13.37,2.74,17.4,7.94,4.46,13.41-.2,18.1a27.31,27.31,0,0,1-19.74,7.94c8.64,1.09,17.36-.67,26,0,22.64,1.64,42.5,21.62,43.95,44.26s-15.68,45.05-37.93,49.55c-7.19,1.48-14.66,1.25-22,.82-16.62-1-33.83-3.09-48.06-11.77s-24.75-25.46-21.27-41.76A9.63,9.63,0,0,1,141,154.86c1.8-1,1.56-4,0-5.36s-3.79-1.6-5.87-1.6a47.44,47.44,0,0,0-27.41,8.76c-1.48,1.05-3,2.31-3.44,4.07s.74,4,2.54,3.94a11,11,0,0,1,8.41-9.93C113.89,160.41,111,166,106,169s-12.16,2.65-15.87-1.76c-4.15-4.89-2.74-12.4.11-18.15,3-5.9,7.47-11.26,13.38-14.19s13.41-3.21,19,.39c10.91,7,26.47,5.83,36.21-2.78s12.86-23.85,7.31-35.58c.67,14.08-11.07,25.49-22.64,33.55-3.52,2.46-7.35,4.89-11.65,5.12-4.58.32-9-1.91-12.91-4.22-4.41-2.62-8.83-5.63-11.65-9.93-4.69-7.28-3.87-17-.39-24.87,4.69-10.64,14.31-19.36,25.73-21.51s24.24,3.13,29.68,13.45c.74-6.29-4.73-11.73-10.56-14.27-11.5-5-25.53-2.62-35.47,5.08s-15.6,20.1-16.14,32.62a8.92,8.92,0,0,1-7.86-.86c0,3.55,5.51,5.47,7.66,2.62a12.29,12.29,0,0,1,1.68,8.28,19,19,0,0,0-6.72,2.27,5.5,5.5,0,0,0,8.17-1.84c2.5,2.23,5,4.46,7.47,6.69-4.11,1.84-8.25,3.64-12.36,5.48-3.48,1.52-7.7,3-10.91,1-4.42-2.81-3.13-9.5-1.33-14.43-2.54,0-4.65,2.27-5.32,4.7s-.35,5,0,7.58c-4.89-.94-9.93-1.84-14.86-1s-9.73,3.87-11.3,8.6c-2.15,6.41-10.52,9.85-16.54,6.8-3.79-1.91-6.21-5.71-8.72-9.11s-5.55-6.92-9.73-7.74-9.23,2.62-8.37,6.76c.62,3.17,4,4.85,7,6.06l9.81,4.11c4.89,2,9.9,4.07,15.17,4.18s11-2.15,13.42-6.84c1.6-3.13,1.83-7.23,4.73-9.19a9.47,9.47,0,0,1,4.53-1.33,42.76,42.76,0,0,1,25.77,5.79,30.75,30.75,0,0,0-7.86,22.21c-10.24-9.15-27.41-7.94-37.61,1.29s-13.49,24.63-9.86,37.89c2.39-2.74,4.77-5.47,7.16-8.25-.9,3.13-1.8,6.22-2.7,9.31,6.65-3.48,13.33-7,20-10.52A32,32,0,0,0,67,206.28c3.09,3.83-1.21,9.35-5.63,11.5s-10,4-11.06,8.83c7.51-4.38,15-8.8,22.48-13.17,1.64-.94,3.36-2,4.07-3.8a8.1,8.1,0,0,0,0-4.42,48.31,48.31,0,0,0-10.75-21.78c-2.66,3.17.54,7.67,3.12,10.91,3.84,4.85,6.38,11.7,3.56,17.21A59.48,59.48,0,0,0,60.44,190c1.05-2.11,2.11-4.26,3.12-6.37L38.85,191.5c-.15-11.11,4.07-23.07,13.61-28.7,13-7.74,30.5-.59,40.08,11.06-2,3.37-7.27.82-9.39-2.42s-4.37-7.63-8.25-7.39c3.95,4.34,7.9,8.72,11.85,13.06a15.8,15.8,0,0,0-10.4,4.77c8.92-2.54,17.75-5.51,26.4-8.88,7.46-2.89,16-7.74,16.22-15.72,1.1,9.58-6,18.66-14.62,22.92-2.74,1.33-5.83,2.5-7.47,5-2.66,4.23.55,10.4,5.36,11.69s10.05-1.33,13.06-5.31,4.26-9,5.08-13.89c2.66,4.74,5.32,9.47,8,14.24-3.84-1.06-7.75,1.17-11.11,3.28s-6.8,4.26-10.2,6.42c-2.31,1.44-4.74,3.05-6,5.47s-1.13,5.16-1.4,7.78C98.13,230,81.79,241.75,67,238.34c-8.06-1.83-15-7.31-23.07-9,8.4,11.15,24.24,16,37.46,11.58S104.31,223,104.31,209.1l25.57-10.45a3.2,3.2,0,0,1-2.7-2.19c1-.66,2-1.32,3-2a113.91,113.91,0,0,0,68.51,20.18c11.85-.43,23.78-2.82,34.06-8.72a49.91,49.91,0,0,0,7.89-5.6l.07-.08c.49-.57,1-1.15,1.45-1.73l.27-.33.39-.51a59.67,59.67,0,0,0,5-7.86q.57-1.06,1.08-2.16c.15-.32.55-1.3.57-1.33.43-1.12.83-2.25,1.2-3.4C252,179,253.1,175.05,254,171q.69-3.17,1.22-6.36h0c0-.29,0-.58,0-.87-.55-10.09-2.74-20.42-8.57-28.71a9.34,9.34,0,0,1,5,1c1.41.94,2.15,3.09,1,4.38C267.64,140.74,281,125.42,278.59,110.56ZM140,134.92a39,39,0,0,0,8.21-4.19c1.53-1,3-2.19,4.5-3.36a46.84,46.84,0,0,0,8.29-7.62,25.14,25.14,0,0,0,2.93-4.89,5.84,5.84,0,0,1,1.17-2,1.62,1.62,0,0,1,2.08-.19,18.22,18.22,0,0,1-3.09,9.66,31.51,31.51,0,0,1-5.59,5.94c-5.44,4.69-12.05,9-19.2,8.37A2.2,2.2,0,0,1,140,134.92ZM31.42,146.61c-.08.78-1,1.45-1.6.94-1.88-1.57-3.75-3.17-5.63-4.77a13.15,13.15,0,0,0-3.25-2.23c-2.38-1-5.43-.71-7.23-2.58.27-1,.51-2.07.78-3.09a2.28,2.28,0,0,1,.51-1.1c.66-.62,1.72-.23,2.5.16,2.15,1.13,4.34,2.23,6.49,3.36A6.38,6.38,0,0,1,26.34,139c1.41,1.88,2.78,3.72,4.18,5.56A3.18,3.18,0,0,1,31.42,146.61Zm18.89,44.54a3.68,3.68,0,0,1,1.91-.86,17.41,17.41,0,0,1,7.08-.67C58,191,56,191.42,54.14,191.77a8.6,8.6,0,0,1-7.66,3.48C47.77,193.88,49,192.52,50.31,191.15Zm70.19-15.49c-.08.51-.51,1.14-.94.86-.78-.58-1.76.47-2.19,1.33-.74,1.45-1.45,2.9-2.19,4.34a1.16,1.16,0,1,1-2.11.86c-.71-.35-1.41.71-1.14,1.49s.94,1.25,1.33,2a3.64,3.64,0,0,1-.54,4,11.12,11.12,0,0,1-3.48,2.54,13.06,13.06,0,0,1-4.07,1.65,4.53,4.53,0,0,1-4.07-1.14c-1.25-1.33-1.17-3.4-1-5.24a6.06,6.06,0,0,1,1.09-3.63c.82-1,2.66-1.14,3.29,0a9.93,9.93,0,0,0,.39,3.44c1.72-2.08,1.48-5.52,3.63-7.2a12.88,12.88,0,0,1,2.58-1.21,19.38,19.38,0,0,0,5.44-4.18.93.93,0,0,0-.63-1.41,2.54,2.54,0,0,0,.86-2.23c.79-.9,1.53-1.84,2.31-2.74A8.75,8.75,0,0,1,120.5,175.66Zm1.37,22,.07.11a2.2,2.2,0,0,1-2.19.16,20.5,20.5,0,0,1,2.86-2.66A1.66,1.66,0,0,1,121.87,197.68Z"/><path class="ce4300b0-274b-4eb8-a47b-5a9ad25980ee" d="M169.33,94V95.5a2.16,2.16,0,0,1-1.41.2,8,8,0,0,1-.15-2.54,2,2,0,0,1,1.37-.2,1.27,1.27,0,0,1,.19,1"/><path class="ce4300b0-274b-4eb8-a47b-5a9ad25980ee" d="M223.34,50.53a1.13,1.13,0,0,1,1.4-1,3.43,3.43,0,0,1-1.17,3.95c-.08-1-.19-2-.27-3"/><path class="ce4300b0-274b-4eb8-a47b-5a9ad25980ee" d="M177,99.22c-.35-.9-.74-1.76-1.1-2.66l3.84-.12a3.42,3.42,0,0,1-.16,3c-.63.78-2.23.75-2.46-.23"/><path class="ce4300b0-274b-4eb8-a47b-5a9ad25980ee" d="M220.52,200.06a7.27,7.27,0,0,1-1.6.43c-.31,0-.74,0-.78-.35a7.83,7.83,0,0,1,6.14-1.92,18.46,18.46,0,0,1-3.76,1.84"/><path class="ce4300b0-274b-4eb8-a47b-5a9ad25980ee" d="M135.75,130.5a12.86,12.86,0,0,1-3.64,1.09,10.05,10.05,0,0,1-3.75-.07c2.46-.36,4.92-.67,7.39-1"/><path class="ce4300b0-274b-4eb8-a47b-5a9ad25980ee" d="M96.84,165.69a6.22,6.22,0,0,1-1.8-4.38,10,10,0,0,1,.08-1.09c1.6.35,2.35,2.19,2.82,3.75a2.22,2.22,0,0,1,.07,1.41c-.19.47-.9.7-1.17.31"/><path class="ce4300b0-274b-4eb8-a47b-5a9ad25980ee" d="M99.19,103.13a4,4,0,0,1-4.89,3.44,7.65,7.65,0,0,1-2.74-1.64c1.72-2.12,5.63,0,7.63-1.8"/><path class="ce4300b0-274b-4eb8-a47b-5a9ad25980ee" d="M110.17,134.76l8.57,1.76a8,8,0,0,1-9-.82l.46-.94"/><path class="ce4300b0-274b-4eb8-a47b-5a9ad25980ee" d="M101.85,96.87c.11.47-.36.9-.83,1.1a6,6,0,0,1-8-3.45,45.37,45.37,0,0,1,7.86,1.65c.39.11.86.31.94.7"/><path class="ce4300b0-274b-4eb8-a47b-5a9ad25980ee" d="M147.48,191.42c-2.07.12-3.87-1.29-5.48-2.66-.78-.66-1.52-1.33-2.3-2a8.27,8.27,0,0,1,5.39,2.3c.79.79,1.61,1.57,2.39,2.35"/><path class="ce4300b0-274b-4eb8-a47b-5a9ad25980ee" d="M82.49,95.23l7.23,5c.51.35,1.1.86,1,1.49a13.76,13.76,0,0,1-5.2-2c-1-1.52-2-3-3-4.53"/><path class="ce4300b0-274b-4eb8-a47b-5a9ad25980ee" d="M49.41,219.54c1.8-1.14,3.68-2.12,5.55-3.09,1.21-.67,2.47-1.29,3.68-2,1.48-.74,2.93-1.48,4.38-2.27a2,2,0,0,1,1.48-.31c.47.2.67,1,.16,1.17a21.85,21.85,0,0,0-8.17,5.2,10.35,10.35,0,0,1-7.08,1.26"/><path class="ce4300b0-274b-4eb8-a47b-5a9ad25980ee" d="M106.11,79.51c0,1.41-.08,2.81-.08,4.22a1.74,1.74,0,0,1-2.58-.31,4.22,4.22,0,0,1-.55-2.85,18.54,18.54,0,0,1,11.85-15.68,2.33,2.33,0,0,1,.31,1.68,21.55,21.55,0,0,0-6.68,8.87c-.59,1.45-1.06,3-2.27,4.07"/><path class="ce4300b0-274b-4eb8-a47b-5a9ad25980ee" d="M223.3,41.85c-.51,0-.63-.7-.51-1.21.43-2.42.9-4.85,1.37-7.27.7-.47,1.45-.94,2.15-1.37a6,6,0,0,1,1.48,2c-.89.12-1,1.37-.89,2.27s-.2,2.11-1.1,2.07A11.94,11.94,0,0,0,228.34,48a9.65,9.65,0,0,1,1.72,2.31,2.3,2.3,0,0,1-.39,2.66c-.66-1.29-.94-2.74-1.68-4s-2.46-2.07-3.68-1.29c.2.55-.58,1.09-1.05.78,1.21-2-1.68-5.12,0-6.69"/><path class="ce4300b0-274b-4eb8-a47b-5a9ad25980ee" d="M175.83,52.53c3.95,0,7.66,1.95,10.71,4.42A31.24,31.24,0,0,1,192,62.7a10.75,10.75,0,0,1,2.38,5.7,9.49,9.49,0,0,1-5.16-3.32,31.16,31.16,0,0,0-15.76-10.75c-.31-1.14,1.25-1.8,2.39-1.8"/><path class="ce4300b0-274b-4eb8-a47b-5a9ad25980ee" d="M138.6,98c2.39-.31,4.66,1.26,6,3.25a6.85,6.85,0,0,1,1.14,6.26,7.37,7.37,0,0,1-12.2-.71c-.28-1.09-.55-2.19-.78-3.28,1.33-2.43,3.08-5.08,5.82-5.52m1.84,3a2.19,2.19,0,0,0-3,.86,5.84,5.84,0,0,0-.47,3.4,2.31,2.31,0,0,0,2.23,2,6.51,6.51,0,0,0,3.17-.74,6.46,6.46,0,0,0-.94-3.95,1.57,1.57,0,0,1-1-1.52"/><path class="ce4300b0-274b-4eb8-a47b-5a9ad25980ee" d="M71.82,88c-6.42-2.73-14.2.2-18.73,5.48s-6.34,12.39-6.89,19.35c-.19,2.62-.19,5.44,1.14,7.67a11,11,0,0,0,3.36,3.36,24.09,24.09,0,0,0,26.51.08c.94-.63,2.19.63,2,1.72a3.9,3.9,0,0,1-2.31,2.27,28.35,28.35,0,0,1-29.29-2.39A11.7,11.7,0,0,1,44.91,123c-1.44-2-1.8-4.65-1.95-7.15-.39-8.69,1.68-17.76,7.43-24.29S66,81.86,73.89,85.37a5.5,5.5,0,0,1,2.85,2.27,2.53,2.53,0,0,1-.62,3.29A13.18,13.18,0,0,0,71.82,88"/></g></g></g></svg>