<svg id="fe13e20a-249c-43dc-a950-1a3bc8c8c35a" data-name="Layer 1" xmlns="http://www.w3.org/2000/svg" viewBox="0 0 300 300"><defs><style>.\37 1003c35-c15c-4bfc-aa5d-7db9c2de76a7{fill:#fff;}.\35 ea4c37d-5fca-4089-8280-8b04f98fc7e7{fill:#52df84;}.\35 a8b09eb-38e6-4c68-8087-599ef58760d6{fill:#e6e6e6;}.\33 23d25f4-e7fb-4367-8fc5-5fb205fe9e50{fill:#8b898a;}</style></defs><path class="71003c35-c15c-4bfc-aa5d-7db9c2de76a7" d="M268.91,155.54c-.4-2.77-3.37-6.24-5.76-7.5a13.69,13.69,0,0,0-9.67-1.27c-1.91.43-3.84.78-5.77,1.08-10,1.16-20,.94-30.06.92a2.83,2.83,0,0,0,.11-.31c3-8.92-2.07-17.71-9.58-22.35l-.26-.16A12.24,12.24,0,0,0,209,114.34c-2-4.83-6.35-7.32-11.47-7.72A28.14,28.14,0,0,0,186.45,108,47.28,47.28,0,0,0,187,96.1a99.73,99.73,0,0,0-1.63-13.57c-.51-2.82-3.28-6.19-5.76-7.5A16.22,16.22,0,0,0,176,73.65a11.89,11.89,0,0,0,1.59-6.07,12.67,12.67,0,0,0-3.67-8.87A14.2,14.2,0,0,0,165,55,16.64,16.64,0,0,0,154.56,58a19.33,19.33,0,0,0-7.83,10.51,16.48,16.48,0,0,0-.62,4.25,18.69,18.69,0,0,0-9.92,4.87,19.39,19.39,0,0,0-5.52,14.59c-4.43.84-8.87,4.26-9.81,8.88a16.42,16.42,0,0,0,.28,8.54c-.47.25-.92.51-1.36.8a21.93,21.93,0,0,0-8.57,11.09h0a17.7,17.7,0,0,0-2.14.16,21.49,21.49,0,0,0-8.22,2.67,22.2,22.2,0,0,0-10.11,13.15,13.46,13.46,0,0,0-.06,6.41q-27.51-1.17-55-2.83c-3.9-.24-7.57,2-9.86,4.94-2.54,3.3-3.06,6.91-2.24,10.94.44,2.18.82,4.36,1.15,6.56a126.55,126.55,0,0,1,.24,27c-.94,9.61-2.65,19.18-2.53,28.87.09,7.58.38,17.24,7.81,21.49,5.7,3.26,12.32,1.9,18.51,1.36,9.82-.84,19.63-1.74,29.47-2.17,39-1.67,77.91,2.35,116.8,4.48,21.93,1.2,43.93,1.79,65.87.47,6.94-.42,12.31-5.42,12.54-12.55A434.55,434.55,0,0,0,268.91,155.54Z"/><path class="5ea4c37d-5fca-4089-8280-8b04f98fc7e7" d="M198.86,133.65a13.45,13.45,0,0,0-2.87-7.18,17.57,17.57,0,0,0-5.43-4.57,31.38,31.38,0,0,0-3.34-1.52l-1.07-.41c-1.7-3.32-7.49-3.34-9,.63A8.92,8.92,0,0,0,176,121a19.76,19.76,0,0,0-4,2.36l-.26.1a39.32,39.32,0,0,1-5.49,1.74,15.72,15.72,0,0,1-3.9.35,8.1,8.1,0,0,1-2.13-.57c.08,0-.6-.37-.67-.42a1.14,1.14,0,0,0-.19-.11c-.07-.08-.18-.19-.35-.35a5,5,0,0,0-6-.77,17.92,17.92,0,0,1-9.24,2.9,30.73,30.73,0,0,0-3.61.06A4.68,4.68,0,0,0,137,123.4a4.84,4.84,0,0,0-2.24-.06c0-.07-.05-.14-.08-.2-2.69-5.71-10.33-2.69-14.29-.14a18.12,18.12,0,0,0-5.3,4.83,8.35,8.35,0,0,0-1.29,3.21,13.86,13.86,0,0,0-1.62,3,11.38,11.38,0,0,0,.43,9c1.37,3.17,6.39,3,8.28.45a1.38,1.38,0,0,1-.26-.23c-1.13-1.16-1.87-2.65-3.06-3.76-1.42-1.33.12-3.33,1.66-3a1.74,1.74,0,0,1,.92-.3c.22,0,.43,0,.63,0a9.6,9.6,0,0,1,4.17-1.6,1.84,1.84,0,0,1,2.24,2.24c-.09.48-.2.95-.31,1.41-.07.87-.12,1.72-.16,2.52A46.94,46.94,0,0,0,128.84,158c1.81,5.43,5,10.28,10.07,13.13a44.4,44.4,0,0,0,7.92,3.25,22,22,0,0,0,8.9,1.29c5-.5,9.21-2.8,13.16-5.6a14.88,14.88,0,0,0,8.1-7.11,3.93,3.93,0,0,0,1.12-.87c.39-.43.75-.86,1.09-1.31,3.48-4.21,6.87-8.76,7.81-14.24a60,60,0,0,0,.69-7.46,2,2,0,0,1,.11-2.4v-.07c0-.42,0-.84.05-1.27l1,.86h.22a4.92,4.92,0,0,1,1.19.19,1.85,1.85,0,0,1,1.33,1.75,40.23,40.23,0,0,1-.16,4.11,5,5,0,0,0,5.43-.9A7.28,7.28,0,0,0,198.86,133.65Z"/><path class="5a8b09eb-38e6-4c68-8087-599ef58760d6" d="M195.93,213.8c-1.81-5.59-7.53-9.28-13.42-7.62l-21.67,6.13-10.49,3c.07-.78.13-1.56.16-2.34a84.64,84.64,0,0,0-.63-12.73c-.3-3-1-5.54-3.19-7.72A11.08,11.08,0,0,0,139,189.3c-5.42.24-11.53,4.83-10.91,10.91a78.69,78.69,0,0,1,.51,14.39c-.48,2.31-1.29,4.49-1.81,6.8a14.43,14.43,0,0,0,6.1,15.61c6.16,4,13.2,2.17,19.68.33l35.77-10.11C193.8,225.67,197.76,219.44,195.93,213.8Z"/><path class="5a8b09eb-38e6-4c68-8087-599ef58760d6" d="M214.62,136.25a26.76,26.76,0,0,0-3.15-11c-2.61-4.92-6.9-8.61-11.23-12-2.39-1.85-4.55-3.19-7.71-3.19a11.13,11.13,0,0,0-7.72,3.19,11,11,0,0,0-3.2,7.72c.12,2.68,1,6,3.2,7.71a64.64,64.64,0,0,1,5.53,4.64c.39.39.78.78,1.15,1.19a15.66,15.66,0,0,0,1.17,1.92c.06.21.11.42.16.63v0c0,.16-.09.32-.14.48l-.15.42c0,.09-.07.18-.1.27l0-.06a10.73,10.73,0,0,0-.27,6.38,11.14,11.14,0,0,0,5,6.52c4.87,2.57,12.31,1.58,14.93-3.91A21.71,21.71,0,0,0,214.62,136.25Z"/><path class="5a8b09eb-38e6-4c68-8087-599ef58760d6" d="M116.25,138.3c-.11.28,0,.16.68-1.05l0,0A10.51,10.51,0,0,1,116.25,138.3Z"/><path class="5a8b09eb-38e6-4c68-8087-599ef58760d6" d="M121.06,117.43a11.14,11.14,0,0,0-15.43,0A60.35,60.35,0,0,0,93.9,132.88c-2.66,5-1.45,12.09,3.91,14.92,5,2.67,12.09,1.48,14.93-3.91.63-1.18,1.29-2.35,2-3.48.44-.71,1-1.4,1.51-2.11a4.13,4.13,0,0,1,.58-.94l.08-.09.1-.17-.08.15c.36-.43.73-.87,1.11-1.29,1-1.08,2-2.1,3-3.09C125.21,128.92,125.33,121.35,121.06,117.43Z"/><path class="5a8b09eb-38e6-4c68-8087-599ef58760d6" d="M182.57,74.76a11.06,11.06,0,0,0-6.53-5,12.54,12.54,0,0,0-8.33,1.07,58.62,58.62,0,0,1-11.85,3.26,58.22,58.22,0,0,1-13.26-.15c-2.57-.32-6,1.46-7.72,3.2a10.92,10.92,0,0,0,0,15.43c2.28,2.09,4.68,2.81,7.72,3.2,12.4,1.56,24.75-1,36.05-6.07,2.34-1.05,4.36-4.15,5-6.52A11.19,11.19,0,0,0,182.57,74.76Z"/><path class="323d25f4-e7fb-4367-8fc5-5fb205fe9e50" d="M275.66,236a3.44,3.44,0,0,0-1.52.33,3.52,3.52,0,0,0-.66-.06L178.11,236l-95.37-.28-53.67-.15c-4.45,0-4.46,6.9,0,6.91l5.72,0a3.36,3.36,0,0,0,6,0l83.65.23,95.37.28,53.67.15a3.45,3.45,0,0,0,1.53-.33,3.42,3.42,0,0,0,.65.06C280.11,242.92,280.12,236,275.66,236Z"/><path class="323d25f4-e7fb-4367-8fc5-5fb205fe9e50" d="M115.82,141.06c-25.35-.4-50.52,4.21-75.88,3.15-4.45-.18-4.44,6.73,0,6.91,25.36,1.06,50.53-3.55,75.88-3.15C120.27,148,120.27,141.13,115.82,141.06Z"/><path class="323d25f4-e7fb-4367-8fc5-5fb205fe9e50" d="M275.88,145.3c-6.07-2.2-12.6-2.53-19-2.28-6.6.26-13.19.86-19.79,1.13q-20.72.85-41.44-.18c-4.44-.22-4.43,6.69,0,6.91q20.34,1,40.72.21c6.51-.26,13-.8,19.52-1.11,6.17-.3,12.29-.14,18.15,2a3.5,3.5,0,0,0,4.26-2.42A3.54,3.54,0,0,0,275.88,145.3Z"/><g id="94ae3d41-689f-4ffa-ac9c-d19dd3cdf7ce" data-name="pdf24_6"><path d="M108.21,123.9a15.91,15.91,0,0,1,13.71-13c-2.91-8.47,2.74-18.4,11.13-21.55s18.23-.25,24.75,5.87a16.39,16.39,0,0,1,30.1,9c2.06-2.06,5.43-1.48,8.28-1,2.69.44,5.54.66,7.95-.52s4.17-4.14,3.15-6.63c-.9-2.17,1.18-4.44,3.35-5.32s4.68-1,6.52-2.47c2-1.59,2.71-4.27,3.7-6.63s2.8-4.85,5.35-4.88c3.48-.06,5.26,4.82,3.56,7.84S224.44,89,221,89.75s-7,1.12-9.86,3.07a3.9,3.9,0,0,0-1.9,2.63,8,8,0,0,0,.28,2.08c.52,3.65-3.05,6.72-6.66,7.43s-7.3-.19-11-.33a4.39,4.39,0,0,0-2.77.52,4.75,4.75,0,0,0-1.42,2.14c-1.21,2.77-2.42,5.51-3.62,8.28-.28.6-.44,1.51.16,1.78,5.51,2.63,11.3,5.76,14.09,11.18s.8,13.68-5.15,15.05c-1.54.36-2,2.22-2.25,3.76-2.55,18.45-2.66,38.84,8.53,53.73-11.93,9.51-27.8,12.11-42.9,14.39-2.58.38-5.29.77-7.76,0a12.6,12.6,0,0,1-5.1-3.56c-5.54-6-7.57-14.31-8.53-22.4s-1-16.34-3.53-24.07a79,79,0,0,0-3.35-8.19c-2.57-5.7-5.18-11.43-8.91-16.42,2.14-.08,3.46,2.25,4.25,4.25a53.23,53.23,0,0,0,1.7-10.26c-2.9.44-5.89,1.27-8.06,3.27s-3.23,5.4-1.81,8c-3-.79-2.93-5.4-1-7.92a12,12,0,0,1,10-4.58c1.07.06,1.78-1,2.25-2,1.34-2.68,2.66-5.34,4-8a2.81,2.81,0,0,0,.39-1.29c0-1.75-2.69-1.78-4.31-1.12-4.27,1.75-8.41,4.14-11.32,7.73s-4.39,8.55-3,12.94a5.65,5.65,0,0,1-3-5.62,12.43,12.43,0,0,1,2.63-6.2,30.78,30.78,0,0,1,15-11c-.41-4.82-7.26-6.85-11.29-4.16s-5.38,8-5.18,12.82c-4-3.31-10.42-2.63-14.31.8s-5.46,9-5,14.17c-2.44-1.72-2.53-5.4-1.54-8.22a16.52,16.52,0,0,1,18.42-10.42m50.88-5.76a16.64,16.64,0,0,1-24.2,5.62c-.83-.57-1.84.33-2.42,1.16a32.7,32.7,0,0,0,11.32,46.68,25.35,25.35,0,0,0,5.57,2.3c5.89,1.56,12.36.28,17.68-2.77a38.54,38.54,0,0,0,12.88-12.83,43.8,43.8,0,0,0,2.61-4.55,31,31,0,0,0,1.07-23.9c-.28-.63.6-1.26,1.26-1a2.53,2.53,0,0,1,1.26,1.53c.88,1.89,1.75,3.78,2.66,5.68a3.63,3.63,0,0,0-.82,2.68,41.75,41.75,0,0,1-16.62,32c-4.87,3.61-10.77,6.16-16.85,6a26.89,26.89,0,0,1-11.11-2.94,37.94,37.94,0,0,1-9-6.11c1.38,7.78,2.72,15.57,4.09,23.36,1.12,6.57,2.41,13.43,6.5,18.69A9.85,9.85,0,0,0,149,213.1c2.33.93,5,.5,7.43.06q6.7-1.24,13.41-2.44c9.15-1.67,18.88-3.65,25.55-10.12a79,79,0,0,1-5.93-54.71c.83-3.24,1.84-6.86.22-9.79a4.56,4.56,0,0,1,2.85,5.87c3.6-1.1,5.51-5.38,4.91-9.08s-3.21-6.8-6.19-9.1-6.39-3.92-9.52-6a41.4,41.4,0,0,1-14.52,7.73,13.68,13.68,0,0,1-6.2.66,5.86,5.86,0,0,1-4.66-3.73,16.4,16.4,0,0,0,11.46,1.1,23.74,23.74,0,0,0,5.84-2.63c5.84-3.49,11.18-8.89,11.76-15.63a14.06,14.06,0,0,0-23.74-11.38c-1.18,1.16-2.17,3.07-1.13,4.36,2.14,2.58,2.75,6.17,2.42,9.52a40.23,40.23,0,0,1-2.75,9.67c.94-1.81,4-1.75,5,0a3.26,3.26,0,0,1-2.44,4.55,3.55,3.55,0,0,1-3.65-3.84m1.29-15.57a15.18,15.18,0,0,0-6.94-8.69,29.05,29.05,0,0,0-10.74-3.56,18.52,18.52,0,0,0-4.63-.27A15.92,15.92,0,0,0,129,94.49c-4.22,3.81-7.18,9.87-5.26,15.24a17.73,17.73,0,0,0,3.45,5.34c3.4,3.84,7.49,7.3,12.39,8.8s10.72.77,14.42-2.79a19.44,19.44,0,0,0,2.33-2.85c3.15-4.61,5.51-10.28,4.06-15.66M220.06,88a3.73,3.73,0,0,0,2.9-.79l2-1.21a7.78,7.78,0,0,0,3.51-3.29,3.34,3.34,0,0,0,.24-1.34,2.63,2.63,0,0,0-3.75-1.92c-2.14,1.26-1.54,4.83-3.43,6.47-.69.6-1.78,1.23-1.45,2.08m-57.55,30h-.95a1.87,1.87,0,0,0,0,1.94c.43.52,1.48.47,1.64-.19s.06-1.07.08-1.62a.85.85,0,0,0-.68-.13"/><path d="M161.06,218.12c0-.41.61-.47,1-.38a1.43,1.43,0,0,1,.14.93,1.46,1.46,0,0,1-1,.13.83.83,0,0,1-.14-.68"/><path d="M133.24,208.77a1.49,1.49,0,0,1-.47-2,.77.77,0,0,1,.69.11c0,.6-.05,1.18-.08,1.78"/><path d="M177,215.08a4.18,4.18,0,0,1-1.23,1.28c-.58-.32-.11-1.23.38-1.67.3.08.63.19.93.28"/><path d="M175,221.82a1.51,1.51,0,0,1-1.64.52.59.59,0,0,1-.06-.74,1.35,1.35,0,0,0,1.79-.44c.35.06.3.69,0,.66"/><path d="M184.72,216.78a7.36,7.36,0,0,1,.19,3.2.24.24,0,0,1-.41.09,6,6,0,0,1,.22-3.29"/><path d="M226.91,241.69a1,1,0,0,1-.44-1.2,1,1,0,0,1,1.15-.55,1.85,1.85,0,0,0,.66,1.21,1.75,1.75,0,0,0-.66,1c-.33,0-.79-.11-.68-.39"/><path d="M77,145a4.73,4.73,0,0,1,3.32-.6A3.35,3.35,0,0,1,77,145"/><path d="M128.82,209.9c-.19-.25.3-.44.52-.28v1.07a1.62,1.62,0,0,0-.9,1.81,2.26,2.26,0,0,1,.41-2.55"/><path d="M227.54,224a1.87,1.87,0,0,1-2.36-.14,4.35,4.35,0,0,1,3.68,0,1.78,1.78,0,0,1-1.26.22"/><path d="M152.43,188.73c-.33-.35-.88,0-1.26.3s-1.07.47-1.23,0l1.91-.82c.25-.11.58-.22.8-.06s0,.66-.25.47"/><path d="M249.31,245.23a3.81,3.81,0,0,1-3.9-.08,3.06,3.06,0,0,1,3.9.08"/><path d="M145.88,217.32a1.85,1.85,0,0,1-2.06-.87,3,3,0,0,1,3,.35l-.87.66"/><path d="M148.84,223.3a1.07,1.07,0,0,1-.71.16,4.92,4.92,0,0,1,.52-4.11.61.61,0,0,1,.74.3.69.69,0,0,0-.09,1.29,2.48,2.48,0,0,0-.46,2.36"/><path d="M227.13,145.45a5.84,5.84,0,0,1-2.8.77A10.08,10.08,0,0,1,222,146a8.16,8.16,0,0,1,5.18-.57"/><path d="M154.21,219.49a1.8,1.8,0,0,1,1.18-.11c-.22,1.4-.44,2.82-.69,4.22a.76.76,0,0,1-1.09-.16,1.23,1.23,0,0,0,.19-1.92,2,2,0,0,0,.41-2"/><path d="M176.94,221.52c-.06.24-.5.16-.55-.08a.9.9,0,0,1,.22-.72l4.74-.65c.38.27-.19.76-.66.85-1.26.19-2.49.41-3.75.6"/><path d="M188,213.91h-1.55a.62.62,0,0,1-.8.71c.25-.66.52-1.29.8-1.92a.66.66,0,0,0,.9-.38,2.15,2.15,0,0,0,.06-1.1c.55.8,1.12,1.81.71,2.69"/><path d="M163.7,241.78c-.41.33-1.1,0-1.35-.44a2.8,2.8,0,0,1-.22-1.56l.17-2.88a5.78,5.78,0,0,1,1.86.11c0,1.2,0,2.41-.08,3.61a1.42,1.42,0,0,1-.38,1.16"/><path d="M255.83,245.2c.66-.08,1.23-.6,1.92-.57a1.29,1.29,0,0,1,1.18,1.09,21.75,21.75,0,0,1-6,.11c.08-.54.74-.79,1.29-.76a8.19,8.19,0,0,0,1.64.13"/><path d="M77.81,142c-.22-.27-.63-.25-1-.25-2.08.14-4.14.28-6.19.39a1.27,1.27,0,0,1-.93-.17c-.25-.22-.2-.74.13-.76-.22.33.44.54.77.35s.77-.52,1-.24a1.82,1.82,0,0,0,1.45.27c2-.16,4-.33,6-.52a13.5,13.5,0,0,0-1.35.93"/><path d="M129.84,231.77a.82.82,0,0,1-1,.47,52.34,52.34,0,0,1,.17-10.17c.08-.52-.55-1.24-.09-1.46,1.07.58,1.07,2.06,1,3.24-.22,2.3-.46,4.58-.68,6.85-.06.47.14,1.18.6,1.07"/><path d="M267.07,162.33a5.82,5.82,0,0,0,.38-1.7c.22-1.91.44-3.83.63-5.78.06-.49.25-1.12.74-1.1s.66.77.61,1.29c-.19,1.84-.39,3.68-.58,5.51a5.85,5.85,0,0,0-.3,2.06c-.11.71-.88,1.42-1.43,1-.32,0-.16-.52.09-.74s.05-.82-.14-.55"/><path d="M151.66,120.2a3.31,3.31,0,0,1-5.29-.38,2.38,2.38,0,0,1,1.34-3.48,3.61,3.61,0,0,1,2.91.32,2.68,2.68,0,0,1,1.51,2.5,2.46,2.46,0,0,1-.47,1M150,118.75a1,1,0,0,0-1.34-.74,1,1,0,0,0-.14,1.62c.53.35,1.4-.2,1.21-.8"/><path d="M94.34,141.5c0-.19-.08-.41-.11-.63,3-1.1,6.64,1.34,9.54-.05.33.6,1.24.3,1.87.05s1.7-.16,1.61.52a10.88,10.88,0,0,1-7.4,1.1c-1.83-.39-3.64-1.24-5.51-1"/><path d="M131.54,203.56a1.22,1.22,0,0,0,.55-.82c-.25.06-.47.11-.69.14a48.17,48.17,0,0,1,.06-9.3c.08-.74.41-1.72,1.18-1.64.68,4.69,1.18,9.38,1.45,14.09a3,3,0,0,1-2,.36,7.1,7.1,0,0,0-.52-2.83"/><path d="M29.26,147.48c.14-.25.28-.5.42-.77A72.49,72.49,0,0,1,43.11,146c1.62,0,3.23,0,4.85,0,.38,0,.9.22.74.54-2.69.33-5.4.58-8.09.74-3.78.22-7.56.31-11.35.2"/><path d="M209.53,146.16a2.34,2.34,0,0,0-1.7.52.89.89,0,0,0-.93-.38,25.56,25.56,0,0,1-11.54-.36c1.62-1.1,3.7-1.15,5.65-1.18,3.48,0,7,0,10.41.22a23.38,23.38,0,0,1,6.61,1.13c-2.83,0-5.65,0-8.5,0"/><path d="M131.82,184.07c-.33-1.2-.64-2.41-1-3.62s-.58-2.24-.88-3.37c-.6-2.44-1.23-4.85-1.87-7.26a12.92,12.92,0,0,1-.63-5.35,9.47,9.47,0,0,1,2,4.58c.76,3.29,1.53,6.55,2.3,9.84a11.69,11.69,0,0,1,.38,5.68c-.19,0-.3-.28-.35-.5"/><path d="M134,214l.69.27c-.11,1.84-.25,3.67-.36,5.54a12.15,12.15,0,0,0,.17,3.86,11.54,11.54,0,0,1,0,3.32c0,1.12.3,2.41,1.31,2.85-.44.55-1.37.14-1.64-.52a8.19,8.19,0,0,1-.28-2.06c-.11-.68-.6-1.45-1.29-1.37,1.07-2.93-.54-6.3.33-9.29a1.68,1.68,0,0,0,.11-1.1,7,7,0,0,1,.11-5.48,1,1,0,0,1,.88,1c-.28.11-.55.19-.82.3a1.23,1.23,0,0,0,.79,1.62v1"/><path d="M34.17,156.91a5.2,5.2,0,0,1-1.73.46c-1.4.24-2.81.44-4.22.63l-.09.78L31.9,158c2.52-.55,5.23,0,7.62-.91A6,6,0,0,0,34.17,156.91Z"/><path d="M127.65,83.19c0,.5,0,1,0,1.51.11,1.34.22,2.69.3,4a2.28,2.28,0,0,1-1,.17A10.84,10.84,0,0,1,125,81.06a20.56,20.56,0,0,1,1.1-3.81c.55-1.57,1.18-3.24,2.52-4.17a4.1,4.1,0,0,1,4.61,0,4,4,0,0,0,.6,1.06c-.66,1.79-2.63,2.66-4,4a7.43,7.43,0,0,0-2.22,5m2-7.26a1.18,1.18,0,0,0,.58-1.62A1.83,1.83,0,0,0,129,75.87a6.85,6.85,0,0,0,.74.14"/><path d="M46.92,141.72l19.9.08a23.3,23.3,0,0,1-10.2.52,29.93,29.93,0,0,1-6.06.28,6.31,6.31,0,0,0-3.67.44c-.27-.42-.9-.31-1.4-.17a10.1,10.1,0,0,1-5.48,0c-.41-.13-1-.13-1,.31a1,1,0,0,1-.39-.69,31.43,31.43,0,0,1,8.34-.74"/><path d="M37.65,142.43q-4.6-.13-9.21.12l.12,1.21,4.48-.34c1.32-.11,2.66-.19,4-.27C37.43,143.09,38,142.68,37.65,142.43Z"/><path d="M276.63,144.78q-12.45-.09-24.91.78a37.91,37.91,0,0,0-7,.66c5.79.16,11.57.16,17.33,0,1.83-.06,3.67-.14,5.51-.22l9-.41C276.56,145.3,276.6,145,276.63,144.78Z"/><path d="M159.31,224.12c.9-1.51.06-4,1.65-4.74a6.25,6.25,0,0,1-.28,4.11.5.5,0,0,1-.16.8.79.79,0,0,0,1.42-.09.88.88,0,0,0,1.18.44,33,33,0,0,1,5.37-1.53c.17.88-.9,1.42-1.75,1.64q-6.17,1.69-12.5,2.8a5.13,5.13,0,0,0-3.15,1.31,5.88,5.88,0,0,0-3.21.2c-2.22.57-4.44,1.12-6.66,1.7-1.48.35-3.32.6-4.25-.58,3.07-.68,6.14-1.4,9.21-2.08l1.7.33a1.39,1.39,0,0,0,1.15-.09c.3-.24.16-.9-.22-.85,2.5-.57,5-1.15,7.51-1.75a4.32,4.32,0,0,0,3-1.62"/><path d="M257.94,223a128.75,128.75,0,0,0-29.33-1.89c-2.39.11-4.77.3-7.16.49l-11.78.91c.44-1.84,2.74-2.33,4.63-2.47,13.38-1,26.89-1.89,40.16.22,1.59.27,3.62,1.1,3.48,2.74"/><path d="M44.37,216.39c-.41-2-.8-4.11-1-6.17a85.15,85.15,0,0,1-.39-9.59q0-20.59,0-41.2c0-.66.08-1.43.68-1.65,1.7,3.68,1.92,7.87,2,12,.22,15.76-1.42,31.68,1.32,47.23.66,3.84,1.56,8-.19,11.46-.8-4-1.56-8-2.33-12"/><path d="M263.29,155.51c.49-.47,1.34-.08,1.61.52a3.41,3.41,0,0,1,0,1.95c-4.66,21-.17,43.14-3.9,64.33-.16.94-1,2.14-1.75,1.51a1.4,1.4,0,0,1-.27-1.1c.11-3.72.21-7.45.35-11.15l1-31.44c.25-8,.52-16.15,2.63-23.88a1.56,1.56,0,0,1,.36-.74"/><path d="M193.74,106.63c5.18-.35,10.83,1.15,14.06,5.24s3.07,10.94-1.23,13.87a22.22,22.22,0,0,1,10.12,5.73A15.33,15.33,0,0,1,221.24,142a2.83,2.83,0,0,1-.47,1.81,1.17,1.17,0,0,1-1.65.28,1.92,1.92,0,0,1-.3-1.54,14,14,0,0,0-10.17-14,7.68,7.68,0,0,1-3.2-1.15c-.88-.74-1.21-2.3-.28-3,3.21-2.33,3.68-7.32,1.56-10.69s-6.14-5.12-10.11-5.26c-2.61-.11-5.24.41-7.84.22,1.1-1.48,3.12-1.92,5-2.06"/><path d="M192,149.15q40.31-1.36,80.59.19c.72,0,1.65.36,1.51,1q-38.65-.69-77.33.17c-1.73,0-3.7-.06-4.77-1.4"/><path d="M112.05,93.8c.74,3-3.54,4.85-4.3,7.84a3.93,3.93,0,0,0,4.74,4.47,12.76,12.76,0,0,1,7.59,0c-.41,1-1.81,1.29-2.93,1.18s-2.33-.39-3.32.16a5.66,5.66,0,0,1-7.1-8.63c1-1.16,2.52-2,2.91-3.51a3.46,3.46,0,0,0-1.81-3.57,7.4,7.4,0,0,0-4.14-.74c-2.6.17-5.15.88-7.76,1.24a12.27,12.27,0,0,1-7.65-1c-2.27-1.26-3.83-4-3-6.55a5.19,5.19,0,0,1,6-3.21,6.4,6.4,0,0,1,4.58,5.38c.22,1.53,1.87,2.49,3.43,2.6a37.6,37.6,0,0,0,4.6-.41,9.31,9.31,0,0,1,7.19,3,4.3,4.3,0,0,1,1,1.7M96.56,90.16a8.4,8.4,0,0,1-4.27-6,3.06,3.06,0,0,0-3.13-.53,3.18,3.18,0,0,0-1.84,2.58,3.92,3.92,0,0,0,1.79,3.24,8,8,0,0,0,3.64,1.2,6.2,6.2,0,0,0,3.81-.46"/><path d="M256.57,158.55q-21.58,1.69-43.2,1.87-.75,20.84-1.51,41.66-.29,8.35-.58,16.75c-.05.85-1.39,1-2,.41a3.23,3.23,0,0,1-.52-2.41q1.2-29.45,2.44-58.85a315.75,315.75,0,0,0,51.34-2.17c-1,2.08-3.7,2.55-6,2.74"/><path d="M60.9,214.45a39,39,0,0,1-.22-6.75c.44-16.61.16-33.22-.74-49.81,1.51.25,2,2.14,2.14,3.68q.86,10.27.87,20.61c0,12.86-1,25.88,1.59,38.49a4.52,4.52,0,0,0,1.13,2.55c.93.88,2.36.85,3.64.79l39.86-2.38c.5,1-1,1.7-2,1.78q-20.6,1.84-41.28,2.47a2.68,2.68,0,0,1-1.4,2c-.85-3.07-1.7-6.11-2.55-9.18a39.19,39.19,0,0,1-1-4.22"/><path d="M107.8,146.74c-26.35-.3-52.68,2.7-79,3.27,0,.51,0,1,0,1.53q9.73-.16,19.45-.69c22.56-1.21,45.2-3.95,67.71-2,1.73.14,3.56.31,5.1-.49C116.79,146.93,112.27,146.79,107.8,146.74Z"/><path d="M116.14,156.28a39,39,0,0,1-.44,9.7,12.71,12.71,0,0,1-.09-7.81c-.27-1-1.78-1-2.44-.22a4.24,4.24,0,0,0-.71,2.85q0,27.18-.14,54.33a56.24,56.24,0,0,1-.32,7.1c-1.68-.85-1.92-3.12-1.92-5q-.17-30,.3-60L67,158.41c-2,.06-4.58-.41-4.83-2.35,18,1.34,36.13-2.17,54,.22"/><path d="M132.69,79.11a18.06,18.06,0,0,1,13.9-4.83,5.56,5.56,0,0,1-2.27-5,12.27,12.27,0,0,1,1.91-5.4c3.07-5.16,7.87-9.43,13.63-11s12.47-.3,16.64,4,5.15,11.63,1.67,16.51a9.29,9.29,0,0,1,9,9.45c-.11,2,1.27,3.65,2.17,5.4s1.15,4.33-.55,5.32c-2.66-.57-4.38-3-6-5.21s-4-4.33-6.72-3.92a9.07,9.07,0,0,1-5.37-.77,3.17,3.17,0,0,1,1.62-.82,23.23,23.23,0,0,1,13.24.44,8.17,8.17,0,0,0-12.36-6.85c2.11-2.52,4.25-5.21,4.93-8.42,1.32-6.36-4.3-12.8-10.75-13.7s-12.91,2.6-17,7.67a15.19,15.19,0,0,0-3.53,7.32,8.3,8.3,0,0,0,2.54,7.48,17.24,17.24,0,0,0-11.48,1.1c-3.48,1.81-6.17,5.37-6.25,9.29a3.92,3.92,0,0,1-1.4-4.14,7.93,7.93,0,0,1,2.52-3.86m55.18,12a10.66,10.66,0,0,0,.06-2.82c-1.07-.93-1.76-2.22-2.77-3.21s-2.58-1.64-3.84-1a.82.82,0,0,0-.19.85,19.63,19.63,0,0,1,5.54,6,1.52,1.52,0,0,0,1.2.16"/><path d="M104.59,242.63c-2.24,0-5.31-.66-5.29-2.94,0-1-.49-2.79-1.07-1.94.17,1.59.33,3.15.5,4.71-23-.73-46.22-1.29-69.12.82.16.5.3,1,.42,1.52q25.49-1.06,51-1.21c17.71-.09,35.44.16,53.18.41q54.86.74,109.71,1.5C197.58,241.91,151.06,241.83,104.59,242.63Z"/><path d="M276.15,237.65c-82.35-3.86-165-4.7-247.14,1.89,0,.26,0,.51,0,.77,46-2.48,92.11-4.91,138.19-4.1,36.3.62,72.64,3.24,108.93,1.69Z"/></g></svg>