<svg id="9db16d49-662d-4339-8c4e-a7e2fe42f884" data-name="Layer 1" xmlns="http://www.w3.org/2000/svg" viewBox="0 0 300 300"><defs><style>.\30 c46bf0d-84c4-497b-8c91-a112e8439670{fill:#fff;}.bec3023a-e739-4912-b533-8aad22b0e1c1{fill:#52df84;}.eed247b1-9a64-4fef-a257-321cd9f2e1ff{fill:#e6e6e6;}.\38 34fb931-6fc4-4c7d-9ed8-254f8b9be1d2{fill:#8b898a;}</style></defs><path class="0c46bf0d-84c4-497b-8c91-a112e8439670" d="M239.67,114.93c-5.31-3-12.5-3.32-18.24-1.51-.49.15-1,.32-1.43.49a18.87,18.87,0,0,0-14.75-2.71,16.75,16.75,0,0,0-12.32,11.5,18.76,18.76,0,0,0-.58,3.26,15.32,15.32,0,0,0-4.76-.79c-8.54,0-14.79,5.61-17.56,13.32-1.54,4.32-1.06,8.61-.36,12.93a59.84,59.84,0,0,0-9,1.87c-9.51,2.75-18.47,9-21.08,19-1.45,5.6-.87,12.1,2.46,16.95a26,26,0,0,0,2.64,3.26l-.35.2c-4.66,1.71-8,5.25-8.71,10.33a12.08,12.08,0,0,0,.86,6.5,13.64,13.64,0,0,0,5.14,6c6.23,4.53,14.36,5.28,21.71,3.88a23,23,0,0,0,4.33-1.28,22.37,22.37,0,0,0,27.52,10.9,22.5,22.5,0,0,0,4.53,1.5,45.48,45.48,0,0,0,14.06.87c3.77-.37,7.37-1,10.63-3.08A16.57,16.57,0,0,0,232,218.1a17.53,17.53,0,0,0-1.9-12.6A15.11,15.11,0,0,0,219,198.25l1.6-3a12.5,12.5,0,0,0,.63-11.17,9.47,9.47,0,0,0-2.59-4,15.49,15.49,0,0,0-1.31-1.14,17,17,0,0,0-1.24-13,19.43,19.43,0,0,0-7.4-7.49c.37-.25.74-.49,1.13-.72s.91-.23,1.37-.31c4.51-.51,8.9-.89,13.07-3a18.11,18.11,0,0,0,7.12-6.77,14.31,14.31,0,0,0,1.29-2.91l.6-.11a18.66,18.66,0,0,0,9.07-5A16.61,16.61,0,0,0,247.43,128,15.3,15.3,0,0,0,239.67,114.93Z"/><path class="0c46bf0d-84c4-497b-8c91-a112e8439670" d="M141.62,106.78A121.82,121.82,0,0,1,141,90.91a12.86,12.86,0,0,0-5.88-10.62,12.3,12.3,0,0,0-3.47-7.23,26.69,26.69,0,0,0-5.53-4.31c0-.06,0-.12,0-.17s0-.29,0-.43c0-6.57-5.78-12.85-12.55-12.55l-8.71.37A11.41,11.41,0,0,0,98.39,50a9.38,9.38,0,0,0-4.84-1.08l-3.34.44a12.69,12.69,0,0,0-5.54,3.23l-2,2.54A13.17,13.17,0,0,0,81.84,57l-9.59.41c-4.8.21-10.15-.15-14.34,2.54-4.47,2.86-6.4,7.24-6.79,12.32C51,74,51,75.69,51,77.41c-.17,6.75-.24,13.51.26,20.24a131.24,131.24,0,0,0,1.85,14.23c.6,3.25,1.34,6.47,1.89,9.73,1.22,12.68-2.26,25.74,2.55,38a15.51,15.51,0,0,0,3.23,5.54A12.32,12.32,0,0,0,68,168.61a12.5,12.5,0,0,0,9.41-2.53c3-.09,6.14.12,9.16.15l13.8.12,22.67.2a14.26,14.26,0,0,0,5.82,0c6.24-.44,12-6.08,11.67-12.52,0-.08,0-.16,0-.24a8.83,8.83,0,0,0-.5-3.93,16,16,0,0,1-.69-2.17c0-.75,0-1.5.05-2.24.43-2.27,1-4.5,1.62-6.73a76.26,76.26,0,0,0,2.23-11.61C143.92,120.33,142.62,113.5,141.62,106.78Z"/><path class="bec3023a-e739-4912-b533-8aad22b0e1c1" d="M207.69,159.39a20.57,20.57,0,0,0-2.17-3c-1.43-.71-2.81-1.49-4.12-2.21a1.78,1.78,0,0,1-1.6.41c-7.5-1.54-15.14-2.26-22.73-3.29a36.31,36.31,0,0,0-9.93,2.2H166c-5.72,0-11.45,1-16,4.68-8.27,6.64-8.5,19.33-1.3,26.77,6.3,6.51,15.85,8.14,24.86,7.81a1.7,1.7,0,0,1,.34-.12,68.18,68.18,0,0,1,9.56-1.05l.29,0a52.91,52.91,0,0,0,17.34-7.67c-.35.57-.71,1.14-1.06,1.68a18.65,18.65,0,0,1-5.33,5.5,1.73,1.73,0,0,1-.53,1.19,7.61,7.61,0,0,1-3.17,1.82c-4.74,2.64-11.23,1.87-16.42,2.12l-.11.15a4.91,4.91,0,0,0-.28.62,2.63,2.63,0,0,1,2-.66c2.81.08,4.43,2.25,6.09,4.15a4.65,4.65,0,0,0,2,1.32c1.27.11,2.55.15,3.82.17h1.2a27.48,27.48,0,0,0,3-.65c.88-.23,1.75-.5,2.61-.78,2.67-1.84,4.43-4.95,6.49-7.36a15.33,15.33,0,0,1,6.5-4.72,22.64,22.64,0,0,1,4.29-4.18,30.5,30.5,0,0,0,3.74-11.45C216.37,167.31,213.09,161.11,207.69,159.39Z"/><path class="eed247b1-9a64-4fef-a257-321cd9f2e1ff" d="M225.24,208a12.23,12.23,0,0,0-7.78-7.69,11.8,11.8,0,0,0,.32-2.61v-2.18a12.11,12.11,0,0,0-3.2-7.72,8.15,8.15,0,0,0-3.51-2.26,8.27,8.27,0,0,0-4.21-.94L204,185a10.85,10.85,0,0,0-4.82,2.81L197.43,190a11,11,0,0,0-1.49,5.51v.33a13.42,13.42,0,0,0-3.31.92c-3.78,1.59-6.47,4.51-9.34,7.35l-6.89,6.82c-4.07,4-4.33,11.47,0,15.44a11.11,11.11,0,0,0,15.43,0l2.5-2.47a18.51,18.51,0,0,0,11.25,3.83,24.47,24.47,0,0,0,12.9-2.91C224,221.55,227.4,214.21,225.24,208Z"/><path class="eed247b1-9a64-4fef-a257-321cd9f2e1ff" d="M236,132.17A8.31,8.31,0,0,0,235,128a11.22,11.22,0,0,0-10-6.71l-2.9.39a10.93,10.93,0,0,0-4.82,2.8,12.9,12.9,0,0,0-2.77,4.57,10,10,0,0,0-1.68,7.51,8.12,8.12,0,0,0,1.3,4.05,11,11,0,0,0,6.52,5l2.9.39a10.78,10.78,0,0,0,5.51-1.49,25.57,25.57,0,0,0,2.49-1.9l.37-.35a24.14,24.14,0,0,0,1.92-2.48,3.18,3.18,0,0,0,.26-.44A14,14,0,0,0,236,132.17Z"/><path class="834fb931-6fc4-4c7d-9ed8-254f8b9be1d2" d="M113.71,97.73A64.26,64.26,0,0,0,111.6,88c-.89-3-1.92-6-4.57-7.84-2.34-1.63-5.26-1.76-8-1.75L89,78.5l-5,0c-1.66,0-3.54-.13-5,.73-3.3,1.88-2.49,5.74-2.12,8.86A185.69,185.69,0,0,0,81,110.64c.67,2.68,3.71,3,5.64,1.62,1.29,2.17,4.62,2.76,6,.21a25.42,25.42,0,0,0,2.12-5.08c.44.9.89,1.79,1.36,2.66,1.17,2.17,4.85,2.34,6,0A36.06,36.06,0,0,0,104,105.3l1.4,3.8a3.66,3.66,0,0,0,3.33,2.54c2.8.34,4.88-2.19,5.43-4.68C114.77,104,114.12,100.68,113.71,97.73Zm-15.16.91c-.48-1.34-.92-2.69-1.31-4.07A7.3,7.3,0,0,1,98.67,92l.09-.08A27.27,27.27,0,0,1,98.55,98.64ZM93.67,85.38l2.41,0a9.08,9.08,0,0,0-1.68,1.23c-2.07-1.1-5.48.12-5.32,3,.13,2.29.28,4.64.27,7l-.06.15a84.75,84.75,0,0,1-1.43-10.42,4.18,4.18,0,0,0-.16-.87Z"/><g id="9d883441-5e75-421a-be44-b6faa1d682de" data-name="pdf24_7"><path d="M179.1,139.78a4.11,4.11,0,0,1,1.56-2.81,4,4,0,0,1-.73,4.7,5.65,5.65,0,0,0-1.09-2"/><path d="M213,175a4.9,4.9,0,0,1-3.75-3.75A4,4,0,0,1,213,175"/><path d="M201.22,143.71a2.82,2.82,0,0,1-1.46-.29c-.94-.66-.69-2.08-.32-3.17a8.82,8.82,0,0,0,5.38.69,1.86,1.86,0,0,1-.87,2.37,5.41,5.41,0,0,1-2.73.4"/><path d="M156.83,180.31a20.28,20.28,0,0,0-3.06-5.06c1.17-.36,2.33.59,3.24,1.46,1.38,1.35,2.87,2.87,3.09,4.8.15,1.39,3.24.62,3.13,2-1.2.8-2.8.11-4-.58a2,2,0,0,0-2.36-2.62"/><path d="M170.69,126a26.09,26.09,0,0,1,5.17-10.91,7.75,7.75,0,0,1,3.31-2.66,3.27,3.27,0,0,1,3.82,1.06,20.14,20.14,0,0,0-8.66,13.82,4,4,0,0,1-2.62,1.39c-.33-.91-.66-1.79-1-2.7"/><path d="M160.58,211.86c-.4,0-.81.11-1.24.15,0-1.17-1.31-1.86-2.4-2.33a83.37,83.37,0,0,1-13.14-7.43,2.12,2.12,0,0,1,1-2.94c3.28,3,7.39,4.91,11.39,6.84a11.31,11.31,0,0,1,3.28,2.11,3.87,3.87,0,0,1,1.13,3.6"/><path d="M85.73,147.31c1,0,1.93-.07,2.87-.15l12.92-.54c2.58-.08,5.31-.15,7.57,1.09-.84,1.27-2.62,1.38-4.11,1.35a196.82,196.82,0,0,0-22.78.87c-2.08.22-4.66.22-5.72-1.6a52.08,52.08,0,0,1,9.25-1"/><path d="M114.55,140.83c-.4-.91-1.71.26-2.66,0a31.83,31.83,0,0,0-7.86-.4c-7.35.29-14.7.54-22,.8-2.07.07-4.51,0-5.75-1.71a17.88,17.88,0,0,1,5-.66c8-.29,16-.54,24-.8,3.53-.14,7.14-.22,10.45.91a1,1,0,0,1,.43.22.87.87,0,0,1-.22,1.27,2.48,2.48,0,0,1-1.41.33"/><path d="M88.49,121.29c7.46,0,14.92,0,22.42.07a26.11,26.11,0,0,1,6.8.59c.87.22,1.89.8,1.78,1.67q-21.06,0-42.2.07c-.19-1,1.09-1.67,2.14-1.85a49.8,49.8,0,0,1,9.06-.55"/><path d="M82.89,131.19c-2,.18-4.11.33-6.19.51,0-.51-.11-1-.18-1.49a15.92,15.92,0,0,1,7.06-1.35q14.9-.54,29.84-.11c1.45,0,3.09.18,4,1.28a16.51,16.51,0,0,1-6.52.87l-23-.11a7.73,7.73,0,0,0-4,.69c-.22-.33-.69-.33-1.09-.29"/><path d="M194.38,210.48c.65.22,1.35.4,2,.58.47,2.73,1,5.42,1.46,8.11a25.32,25.32,0,0,1,.58,7.75,15.74,15.74,0,0,0,.87,5.61,65.25,65.25,0,0,1,1.38,10.33c.22,2.48.4,5,.59,7.46.14,1.46-.29,3.46-1.71,3.38a15,15,0,0,1-.8-3.63c-.48-3.28-.95-6.59-1.42-9.86-.22-1.35-.4-2.7-.59-4-.54-3.79-1.09-7.57-1.49-11.39q-.76-7.09-.87-14.3"/><path d="M103.08,107.28a2.21,2.21,0,0,0-.54,1.28c0,.47.4.94.83.83,0-.69,1.06-.69,1.79-.69,1.74,0,3-1.6,4.07-3,.73-.11.88,1.06.66,1.79s-.18,1.85.58,1.89a1.19,1.19,0,0,1,1,1.67q-9.49.5-18.88,1.35c-.77,0-.66-1.13-.29-1.79l14-22.81a4.87,4.87,0,0,1,2.07-2.18c-.32,4.14-2.65,7.82-4.95,11.28s-4.54,7-6.84,10.48c-.51.8-1,1.6-1.56,2.4,1-.15,2.07-.26,3.13-.37a2.15,2.15,0,0,0,1.78-.83,77,77,0,0,1,7.9-11.79c1.16,1.56,0,3.71-1.06,5.31l-3.64,5.2"/><path d="M180.81,227.11c3.16,1.67,6.62,3.38,10.11,2.76a7.89,7.89,0,0,1,2.88-.25c.94.21,1.78,1.27,1.31,2.11a20.76,20.76,0,0,1-21.4-6.48c-.76-.91-2.55-1.67-2.69-.51A145.43,145.43,0,0,1,162.25,257c-.4,1-1.17,2.18-2.22,2-1.2-2.8.22-6,1.42-8.8,3-7.06,4.66-14.6,6.33-22.06.69-3.16,1.42-6.33,2.11-9.49a21.7,21.7,0,0,1,6.7-11.43c1.41,3.79-3.1,7.35-3.21,11.43s3.9,6.66,7.43,8.48"/><path d="M111.71,239.22c-4.4-.13-8.77-.22-13.16-.27q1,.95,1.92,2c18.58.57,37.22,2.3,55.78,1.12,2.14-.14,4.43-.36,6.25-1.56Q137.08,239.86,111.71,239.22Z"/><path d="M159,231.69q-24.94-.54-49.81-1.13c-8.44-.18-16.87-.37-25.3-.51a40.76,40.76,0,0,1,5.93,2.59q9.47.12,18.93.29l11.17.22q20.64.38,41.34.83C162.36,233.07,160.39,231.73,159,231.69Z"/><path d="M96.24,64.06c-1.34,0-2.87,0-3.93.9A3.83,3.83,0,0,0,92,69.77a7.89,7.89,0,0,0,4.29,2.87A4.77,4.77,0,0,1,94.39,76c3.71.07,7.42.18,11.13.25,2.55.08,5.5.3,7.1,2.33,1.09,1.42,1.2,3.31,1.31,5.1q.7,14.68,1.38,29.36c-1.24.77-2.33-1.16-2.55-2.58-1.53-10.19-3.05-20.49-1.93-30.71.11-1.06-1.2-1.71-2.18-1.38a4.46,4.46,0,0,0-2.18,2.11,384.87,384.87,0,0,0-19.36,33.84c-.36.72-1.64.32-1.86-.48a3.15,3.15,0,0,1,.66-2.33q9.72-16.36,19.39-32.71a5.21,5.21,0,0,0-5.71,2c-.69.44-1.24-.72-1.2-1.53-7.71,2.15-8.19,13.76-15,18A158.86,158.86,0,0,1,93.62,78c-2.73-.73-5.16,1.93-6.44,4.48s-2.36,5.56-5,6.66A26,26,0,0,1,88,79.23a4.22,4.22,0,0,0-6.08,2.36c-.47-.87-1-1.71-1.46-2.54-1.09-.33-1.78,1.2-1.74,2.33,1-.33,2,.94,1.93,2a19.43,19.43,0,0,1-.95,3.13c-.4,1.86.36,3.75.8,5.57s.44,4.11-1.09,5.24a6.57,6.57,0,0,1,1.35,8.55c0,1.2,2,.47,2.62-.55L98.06,81.78C95.55,93,85.14,101.17,82.82,112.38c-.66.25-1.35-.29-1.79-.84-1.82-2.29-2.25-5.38-2.65-8.3-.33-2.54-.66-5.09-1-7.64-.69-5.42-1.42-10.88-.73-16.26a3.2,3.2,0,0,1,.69-1.82,3,3,0,0,1,1.93-.58l12.3-1.1a27.07,27.07,0,0,1-3.89-11.53,153.92,153.92,0,0,0-25.22.62,2,2,0,0,0-1.17.36,2,2,0,0,0-.36,1.57q2.23,43.94,4.44,87.87c.11,2.15,1,5,3.09,4.81a456.41,456.41,0,0,1,64.37-.59c.37,1.13-1.31,1.68-2.47,1.6a458.55,458.55,0,0,0-66.3,1c-1.13.11-1.6-1.39-1.67-2.51q-3.23-45.69-4.92-91.48a2.81,2.81,0,0,0-.4-1.57c-.47-.58-1.31-.65-2-.94s-1.2-1.28-.62-1.75a103,103,0,0,1,32.24-1.56c2.29.21,5.53-.33,5.35-2.62a203.67,203.67,0,0,0-34.31-.26c-1.68.15-3.86.8-3.86,2.48C54,93.57,55.34,125.84,58.07,158c.29,3.35.55,6.91-1.09,9.86a46.36,46.36,0,0,1-1.56-9q-2.79-26.25-3.9-52.58c-.62-15.1-.83-30.2-1.09-45.3a6,6,0,0,1,.69-3.49c1.06-1.53,3.24-1.71,5.13-1.71H84.64c.69,0,1.63-.26,1.52-.95-.43-3.93,3.64-7.38,7.57-7.13s7.28,3.35,8.81,7c4.55-.32,9.06-.69,13.57-1,1.6-.1,3.38-.18,4.73.73a7.81,7.81,0,0,1,1.82,1.93c6.51,9.06,13.06,18.16,19.61,27.22,1.17,1.6,2.08,4.33.26,5.13a281.88,281.88,0,0,1-23.47-30.78c-1.86-2.77-6-2-9.17-.8A26.52,26.52,0,0,0,116,66.53c.76-.76.36-2.11-.26-3s-1.45-1.78-1.45-2.88,1.71-2,2.22-1a95.15,95.15,0,0,0,16,22.89c1.75,1.86,3.75,4,3.75,6.55q.06,36.34.18,72.7c0,1-1.27,2.29-1.6,1.35a466.4,466.4,0,0,1-1.42-68.3c.33-5.75-3.85-10.63-7.78-14.81s-7.64-8.15-11.47-12.26A12.81,12.81,0,0,0,110.91,65a12.47,12.47,0,0,0-5.32-.83c-3.12,0-6.22,0-9.35-.07M108,60.74c.51-1.31-1-2.4-2.4-2.73a15.39,15.39,0,0,0-11.75,1.82c-.66,0-.8,1-.33,1.46a2.45,2.45,0,0,0,1.86.36c4.22-.32,8.4-.61,12.62-.91M89.84,52.41a2.67,2.67,0,0,0-.62,2,1.88,1.88,0,0,0,.47,1.13,2.8,2.8,0,0,0,2,.73,10.25,10.25,0,0,0,6.74-2.15c.07-1.75-2.22-2.51-4-2.69s-3.53-.22-4.62,1"/><path d="M204,155.06c3.35,1.89,7.82,0,10-3.13s2.84-7.13,3.35-10.92c.36-2.8.73-5.56,1.09-8.33.26-1.64.44-3.42-.36-4.87-1.39-2.52-5.5-3.75-5-6.59,4.33-.51,8.15,3.38,9.13,7.6s-.11,8.63-1.24,12.81c-.94,3.64-1.89,7.24-2.84,10.85,6.41.36,11.57-7.61,8.66-13.32,5.86,3.35,14.16,1,17.72-4.73s2-14-3.09-18.34a16,16,0,0,0-18.85-.8c-3.13,2.15,4.3,8.08,1,10-2.62-7.78-10.26-14.11-18.48-13.64s-15.5,9-13.39,17c4.51-2.51,9.57-4.44,14.66-3.86s10.15,4.29,10.77,9.39a16.86,16.86,0,0,0-29.36,15.72c-3.53-1-5.24-5.35-4.52-9s3.13-6.58,5.5-9.42c-3.42-3.86-10.15-1.75-13.46,2.22-2.19,2.62-3.57,6.15-2.66,9.42,1.6,5.79,8.91,7.5,14.88,7.57s13,0,16.74,4.59c-14.59-2.59-29.84-5.17-44-.77-8.4,2.62-16.84,9.17-16.81,18a9.07,9.07,0,0,0,7,9.31A15,15,0,0,1,146,171.14a44,44,0,0,0,6,9.68c1.5,2,2.95,4,4.44,6a45.24,45.24,0,0,0,38.94-1.09,16,16,0,0,0,6.47-5.35c1.46-2.44,1.71-5.82-.1-8s-5.83-2.29-7.25.19c-1.09,0-1.49-1.71-.8-2.59a4.46,4.46,0,0,1,3-1.24c2.59-.32,5.32-.54,7.68.59s4,4,2.91,6.4c-2.65,5.75-5.46,11.61-10,16.05s-11.28,7.13-17.32,5.2c-1-.33-2,.73-2.62,1.64-5,7.39-10,14.74-15,22.12a106.57,106.57,0,0,1-30.86-15.06q8.09-8.25,16.16-16.49c1.2-1.2,2.29-3.45.8-4.29a17,17,0,0,1-8.37-16.48L71.35,169.8a116.72,116.72,0,0,0-16,1c4.11-3.24,9.75-3.46,15-3.56q33.24-.6,66.52-1.17a4.46,4.46,0,0,0,2.36-.51c1.2-.8,1.31-2.47,1.28-3.89q-.22-28.17-.4-56.33c0-5.06-.08-10.3,1.85-15L143.73,92q-1.32,35.14-.18,70.37a39.93,39.93,0,0,1,28.2-13,14.21,14.21,0,0,1,16.3-21.8A18.07,18.07,0,0,1,212.32,110c3.75,1.38,7.86,4,11.31,2a18,18,0,0,1,20.09,1.86,17.4,17.4,0,0,1,4.73,19.47,16.8,16.8,0,0,1-17.32,9.89c1.24,4.55-3.2,8.74-7.64,10.34s-9.5,1.93-13.25,4.8a18,18,0,0,1,8.15,14.81c0,1.56-.21,3.24.37,4.73a16.42,16.42,0,0,0,2.58,3.64,12.18,12.18,0,0,1,.37,13.75A16.89,16.89,0,0,1,228.26,225c-3.39,2.69-2.26,8.08-.19,11.86s4.84,7.86,3.79,12.05a43.83,43.83,0,0,1-8.92-19.51A22,22,0,0,1,199.07,228c1.9-1.17,4.26-.29,6.33.36,7.5,2.26,16.41.51,21.62-5.35s5.46-15.86-.22-21.25c-3.24-3.05-7.79-4.36-12.23-4.58,6.3-3,7.43-13.1,2-17.47a70.21,70.21,0,0,0-13.94,12.38c-3.31,3.82-6.41,8.15-11,10.37s-11.21,1.27-13.1-3.42c1.78-.55,3.49,1,5.24,1.71,4.55,1.85,9.28-2,12.74-5.46q6.54-6.66,13.13-13.32c1.86-1.89,3.79-3.89,4.73-6.4,1.53-4.12-.07-9-3.09-12.16s-7.24-5-11.5-6l4.15-2.29m-50.62,38.17c-1,1-2.32,2.55-3.56,1.78l5.31-8.26c-4.77,1.42-6.51,7.28-10.48,10.26a38,38,0,0,0-8.29,8.45c6.44,3.38,12.91,6.8,19.39,10.18,1.71.91,3.78,1.79,5.46.88q8-11.25,16-22.49a4,4,0,0,0-3.93.65,12,12,0,0,0-2.65,3.24,99.09,99.09,0,0,1-8.74,11.28,23.77,23.77,0,0,1,8.95-15.1,6.86,6.86,0,0,0-9.86,3.17c-.32-.47-.65-.91-1-1.38l1.53-3.61a6.67,6.67,0,0,0-8.12.95m37.16.36a5.94,5.94,0,0,0,2.14-1.05,1.9,1.9,0,0,0,.62-2.11c-3.49,1.2-7,2.44-10.48,3.67.51,1.46,2.58,1.24,4,.73,1.24-.4,2.47-.8,3.68-1.24"/></g></svg>