<svg id="4f61ab4d-aacf-431a-b86c-81b42eeb0742" data-name="Layer 1" xmlns="http://www.w3.org/2000/svg" viewBox="0 0 300 300"><defs><style>.\35 fb82b75-76b9-4ca7-9ebe-1e9e8828b9db{fill:#fff;}.\31 97ba46b-0859-42f6-804d-406ce48e21df{fill:#52df84;}.\34 5dbd0a3-7f89-4b3b-ac24-9da6b3ad5472{fill:#e6e6e6;}</style></defs><path class="5fb82b75-76b9-4ca7-9ebe-1e9e8828b9db" d="M231,170.1a15.11,15.11,0,0,0-1.42-11.49,16.73,16.73,0,0,0-8.85-6.91,36,36,0,0,0-13.42-2.26c.26-1,.47-2,.64-3,3.81-6.54,4.77-14.75.73-21.47a18.87,18.87,0,0,0-5.71-6,18.6,18.6,0,0,0,.26-4,23.88,23.88,0,0,0-2.51-9.41c-1.37-3.07-5.67-6.16-8.86-6.91a15.85,15.85,0,0,0-11.49,1.42,22,22,0,0,0-5.61,4.43c0-.37.07-.74.11-1.11A34.3,34.3,0,0,1,176,98.78a15.27,15.27,0,0,0,6.55-2A19.57,19.57,0,0,0,186.33,94c.26-.27.51-.54.75-.82.63-.11,1.25-.2,1.88-.29l.18,0c3.42-.4,6.23-1,9.05-3.13a14.22,14.22,0,0,0,5.4-7.7,16,16,0,0,0-1.25-10.94c5-5.17,8.17-13.65,5.37-20.66a14.89,14.89,0,0,0-24.85-6.75c-.72.71-1.46,1.38-2.22,2a39.65,39.65,0,0,1-4.94,2.83A38.21,38.21,0,0,1,170,50c-.56,0-1.13.07-1.7.09a16,16,0,0,0-12.79,7,33.63,33.63,0,0,0-15,3.7,17.45,17.45,0,0,0-3.6,2.52c-1.35-.23-2.73-.41-4.13-.57-10.51-1.18-21.6,1.44-30.86,6.43a22.6,22.6,0,0,0-8.61,7.59,18.54,18.54,0,0,0-1.8,15.12c1.74,5.78,6,10.9,9.63,15.53a81.19,81.19,0,0,0,19.5,17.32A88.23,88.23,0,0,0,135.13,132c.48.2,1,.39,1.46.57a19.53,19.53,0,0,0-1,5.59c-.55.07-1.11.17-1.67.28-1.92.4-3.8,1-5.68,1.52-7.54,2.09-15.19,3.94-22.65,6.29-4.53,1.43-8.44,3.86-11,8a18.16,18.16,0,0,0-2.07,13.85c1.19,4.42,3.74,8,6,11.87A164.71,164.71,0,0,1,108,198.4a98.93,98.93,0,0,1,5.77,20.66c.18,1.84.29,3.69.32,5.54l-.3.17c-5.53,3.1-8.93,10.58-7,16.78a17.87,17.87,0,0,0,3.79,6.6c2.72,3,6.66,4.06,10.5,4.43l2.16.22a13.26,13.26,0,0,0,6.62.69c11.31,1.21,22.66,2.51,34,2.92a119.68,119.68,0,0,0,42.31-6.06,14.46,14.46,0,0,0,8.33.22c7.31-2.31,13.2-10.35,10.54-18.26a65.29,65.29,0,0,1-2.57-10.4,89.92,89.92,0,0,1,.42-19.47C224.7,191.45,227.78,180.74,231,170.1ZM182.3,111.17s-.15.11-.24.16l-.1.12a11.91,11.91,0,0,0-.62,1.1,2.16,2.16,0,1,1-3.71-2.21,6.3,6.3,0,0,1,2.52-2.92,2.21,2.21,0,0,1,2.95.8A2.18,2.18,0,0,1,182.3,111.17Z"/><path class="197ba46b-0859-42f6-804d-406ce48e21df" d="M182,95.13a2.25,2.25,0,0,1-1,.7c-5.64,2.12-14.35,2.52-16.88-4.22a1.83,1.83,0,0,1,0-1.32c-7.2-9.45-16.4-17.79-27-22.91-12.68-6.11-29.88-7.25-40.2,4.1a24.29,24.29,0,0,0-6.51,19.28c.94,7.38,5.91,13.39,10.39,19,8.93,11.2,20.57,20.44,35.24,21.88a31.64,31.64,0,0,0,15.59-2.52,4.31,4.31,0,0,0,2,.28c.52,0,1-.12,1.55-.21v0l.14,0a19.73,19.73,0,0,0,9.56-4.44c0-.08.1-.16.16-.24q2.06-2.67,4.06-5.36c.13-.28.25-.56.37-.84l.51-.33q3.8-5.07,7.53-10.19a28,28,0,0,1,7.27-6.41A5.48,5.48,0,0,0,182,95.13Zm-24.37,10.34c-1.88,4.26-3,8.83-6,12.49a2.06,2.06,0,0,1-3,0h0c-3,1.91-6.22,1.06-9.27-.18a12,12,0,0,1-6.35-2.64,35.62,35.62,0,0,1-3.18-2.8c-.74-.74-1.46-1.5-2.17-2.27,1.86-.28,3.67-.59,5.41-.85l19.45-2.9a2.34,2.34,0,0,1,.24-.09c.37-1,.75-2,1.17-3C155,100.73,158.75,103,157.64,105.47Z"/><path d="M100.58,62.58a4.61,4.61,0,0,1-5-2.19,3.84,3.84,0,0,1,5,2.19"/><path d="M171.18,82.38a1.37,1.37,0,0,1-.7.51c-.82.34-1.63-.49-2.15-1.18a12,12,0,0,1,4.75-6.23,3.68,3.68,0,0,1,.41,3.72,10.5,10.5,0,0,1-2.31,3.18"/><path d="M97.06,46.45A7.92,7.92,0,0,0,96.69,50c.21,1.3.76,2.55,1,3.85a4.15,4.15,0,0,1-.85,3.75c-.82.51-1.69,1-2.56,1.54A13.08,13.08,0,0,0,94.31,51a4.6,4.6,0,0,1,.76-4c.65-.22,1.34-.38,2-.55"/><path d="M183.63,49.12c2.43-.58,4.92,1.12,6,3.33a13.3,13.3,0,0,1,.64,7.26,3.34,3.34,0,0,1-.4,1.29,1.64,1.64,0,0,1-1.55.64c-.81-2-1-4.24-1.64-6.32s-2-4.2-4.12-4.74a3.56,3.56,0,0,0,1.09-1.46"/><path d="M145.84,44.33c.46,1-.75,2-1.71,2.62a14.71,14.71,0,0,0-6.06,8.12c-.26,1-1.86.89-2.42.07a3.75,3.75,0,0,1-.1-3A12.63,12.63,0,0,1,139,45.83a6.71,6.71,0,0,1,6.8-1.5"/><path d="M160.21,94.48c2.84,2.48,5.27,6,4.86,9.75-2,.33-3.49-1.88-3.78-3.87-1.08,1.11-.66,2.93-.42,4.44a16.14,16.14,0,0,1-4.1,13.23,15.93,15.93,0,0,1-13,4.84c-6-.56-11.07-4.44-15.75-8.19-4.51-3.57-12.43-.78-15.9-5.33,1.44-1.68,4-1.49,6.23-1.13a52.7,52.7,0,0,0,36.11-7.3c1.34-.9,2.87-2.27,2.4-3.83s-2.4-1.92-4-2.23-3.48-1.49-3-3c3.38-1.66,7.43.22,10.26,2.66m-23,22.12a19,19,0,0,0,8.4,2.31,11,11,0,0,0,8-2.54c2.18-2.06,2.93-5.07,3.64-8,.4-1.68.85-3.41,1.25-5.09a106,106,0,0,1-15.34,6.93c-3.77,1.23-7.79,2.11-11.71,1.43-.53.91-1,1.77-1.58,2.67a27.53,27.53,0,0,1,7.33,2.25"/><path d="M245.45,52.45c-1.57-3.51-7.57-4.24-9-.71-1.05,2.58-2.11,5.16-3.16,7.75a8.72,8.72,0,0,1-1.75,3c-2.39,2.36-6.62,1.46-9.31,3.48-1.74,1.28-2.49,3.52-4.09,4.93-2.13,1.93-5.42,2-8.09.94s-4.81-3-6.92-4.88c5.69-3.38,8.11-11.13,5.78-17.33S200,39.26,193.42,39.26s-13,3.84-16.52,9.43c-1.18,1.89-2.88,4.3-5,3.59a11.77,11.77,0,0,0-14.3,6.77c-6.45-4.28-16.31-2.06-20.29,4.61l-19.64-1.31c-2.16-.14-4.44-.33-6.12-1.64-5-3.79-1.29-13.39-6.44-17-2.33-1.66-5.67,1.17-5.65,4s2.08,5.24,4,7.32l6.17,6.74c1.29,1.43-1.23,3.1-3.13,3.56C95.79,67.86,87.81,78.9,88.73,89.88s9.4,19.76,18.08,26.55,18.48,12.87,29.12,16.36a9.93,9.93,0,0,0-3.1,11.2c.06.16.14.31.21.46a2.78,2.78,0,0,1,2.81-1.4l.68.11c-.07-.12-.16-.22-.23-.35-2.05-3.77.19-9.8,4.51-9.64,15,.47,29.88-8.65,36.58-22.07a2.5,2.5,0,0,1,.24-.76c.18-.35.37-.7.58-1s.3-.67.43-1c1.23-3.15,4.7-5.07,8.11-5.22s6.69,1,9.7,2.66a11.23,11.23,0,0,1,4.38,3.66c1.58,2.69.95,6.23-.75,8.85s-4.31,4.46-6.87,6.26c5-2,11,1.37,13.17,6.35s.92,10.8-1.7,15.54a24.65,24.65,0,0,1-6,7.09l.16,0a3.76,3.76,0,0,1,1.86.16c.89-.05,1.78-.12,2.68-.2a26.93,26.93,0,0,0,6.42-10c2.86-8.32,0-19-8.05-22.73,5.43-4.58,3.68-14.23-2-18.41s-13.71-3.94-20.42-1.66c-5.64,10.33-12,21.3-22.81,25.93-7.49,3.23-16.21,2.82-24,.31s-14.72-7-21.33-11.81c-6.06-4.4-12-9.33-15.66-15.87S91.14,84,95.29,77.79a22,22,0,0,1,5.22-5.19c10-7.36,23.85-8.56,35.44-4.2s21,13.83,26.47,25c2,4,6.65,6.35,11.14,6.25a18.37,18.37,0,0,0,12.05-5.44c1.17-1.11,2.52-2.44,4.12-2.3a12.06,12.06,0,0,0,10.5-19.67c.78-.72,1.61-1.41,2.39-2.14,3.41,6.68,14.15,7.83,18.86,2,2.39-3,6.2-4.4,9.88-5.41s7.53-1.94,10.61-4.25S247,55.91,245.45,52.45ZM106,52.43c-.73,0-1.47-.06-2.2-.06A7.55,7.55,0,0,1,102.47,45,7.69,7.69,0,0,1,106,52.43Zm89.15,17.11c-1.39.69-2.87,2.71-1.45,3.28a8.6,8.6,0,0,1,5,9.4,8.47,8.47,0,0,1-8.47,6.51,12,12,0,0,0,1.59-5.17c.87-7-1-14.3-5.65-19.52s-12.29-7.86-19-5.92S155.27,66.89,156,73.85c1.73.27,2.52-2.06,3-3.74,1.77-6.25,8.92-10.13,15.35-9.09S186,67.36,188,73.55c2.37,7.45-.16,16.63-6.92,20.56s-17.11.35-18.78-7.26c-1.51-6.75-11.5-10.36-10.38-17.17-1.05,2.1-4.24,1.13-6.26-.13-2.32-1.45-4.64-2.93-7-4.37a17.72,17.72,0,0,1,17.68-3c1.9.75,3.17-1.88,4.26-3.6,1.61-2.62,4.78-3.94,7.8-4.18a29.41,29.41,0,0,1,9.06,1.28c1.23-8.59,11.33-14.22,19.65-11.83a12.93,12.93,0,0,1,6,3.54c3.05,3.39,3.44,8.7,1.6,12.88S199.22,67.54,195.11,69.54Zm46-10.52a7.38,7.38,0,0,1-6,2.9,19.17,19.17,0,0,1,1.71-4.26,11,11,0,0,1,5.44-5.15A7.38,7.38,0,0,1,241.09,59Z"/><path class="45dbd0a3-7f89-4b3b-ac24-9da6b3ad5472" d="M203.18,134c-2.18-6.46-8.82-11.32-15.87-9.16l-2.36.72a14.12,14.12,0,0,0-8.29,7,33.74,33.74,0,0,0-8.48-1.27,30.45,30.45,0,0,0-3.32.1,32.35,32.35,0,0,1,1.33,5.32c2.18,4.2,2.19,10.28,2.41,15,3-2.49,8.41-1.29,11.86-.85,6.28.81,12.59,1.22,18.91,1.43C203.26,147.05,205.35,140.43,203.18,134Z"/><path d="M195.89,232.74a5.94,5.94,0,0,0,2.15,1.74,8.21,8.21,0,0,1-.18,1,3.81,3.81,0,0,1-2.29-.88c-.6-.61-.54-1.86.28-2.11"/><path d="M118.31,210.6c-.43-.47-.86-.91-1.29-1.34a3.54,3.54,0,0,1,4.22,1.8,2.89,2.89,0,0,1-3-.41"/><path d="M112,213.89a1.5,1.5,0,0,1-.84-2.26,7.93,7.93,0,0,1,4.43,2.5,5.74,5.74,0,0,1-3.59-.33"/><path d="M195.37,238.65c.69.74,1.2,2.17.25,2.42a7,7,0,0,1-4.25-4.65c1.6-.12,2.89,1.1,4,2.23"/><path d="M144.64,218.09a4.38,4.38,0,0,1,.24-3.24c.66-.9,2.47-.89,2.59.23a22.39,22.39,0,0,1,.1,4.84,2.86,2.86,0,0,0-2.34,1c-.21-.95-.38-1.9-.59-2.85"/><path d="M161.19,242.21a14,14,0,0,1,.72,8.08,4.6,4.6,0,0,1-2.82-3.82,4.79,4.79,0,0,1,2.1-4.26"/><path d="M124.91,193.16c1.72.79,3.78,2.1,3.51,4a10.44,10.44,0,0,1-7.66-3.3,1.85,1.85,0,0,1,1.82-1.36,5.1,5.1,0,0,1,2.33.66"/><path d="M156,252.76a6.42,6.42,0,0,1-2.55.2c0-2.55,0-5.1,0-7.65,0-1.38.24-3.11,1.58-3.49.34.18.73.4,1.08.57L156,252.93"/><path d="M146.16,192.57a9.17,9.17,0,0,1-1.92-9.25,8.14,8.14,0,0,1,1.22-2.15l1.29,1.17c1.05,3.46,2,7.7-.59,10.23"/><path d="M133.56,216.45a3.22,3.22,0,0,1,.63,2.3,7.29,7.29,0,0,1-.49,1.81c-.4,1.2-.84,2.41-1.28,3.62a4.46,4.46,0,0,1-1.57,2.58c-.91.55-2.38.24-2.5-.8a2.61,2.61,0,0,1,.14-1c.66-2.28,1.37-4.57,2-6.85a4.11,4.11,0,0,1,3-1.67"/><path d="M210.64,180.24c1.32,1.95-.34,4.49-1.69,6.42a28.93,28.93,0,0,0-4.39,9.73,3.57,3.57,0,0,1-1,2.2c-.61.51-1.82.37-1.95-.45a1.5,1.5,0,0,1,.1-.73c.62-2.37,1.28-4.79,1.9-7.2a17.73,17.73,0,0,1,7-10"/><path d="M195,251.65c-3.42,1.4-6.71,3.49-10.43,3.55a2.92,2.92,0,0,1,1.14-3.06c2.35-1.19,4.77-2.21,7.24-3.18a131.9,131.9,0,0,1,22.11-6.37,16.17,16.17,0,0,1,2.55-.37c2.33,0,4.53,1.07,6.64,2.12a2.46,2.46,0,0,1-2.26,1.88,17,17,0,0,1-3.24-.32,17.46,17.46,0,0,0-6.52.86c-3.6,1-7.14,1.89-10.73,2.86a59.47,59.47,0,0,0-6.5,2"/><path d="M170.57,151.54l0-2.54a526.18,526.18,0,0,1,54.65,3.18c2,.19,4.27.6,5.34,2.33-1.05.9-2.56.85-3.9.75q-28-1.87-56.11-3.72"/><path d="M184.4,214.35A31.83,31.83,0,0,0,193.8,229a24.56,24.56,0,0,0-6,4.28c-.47-.66-.94-1.26-1.37-1.87a5,5,0,0,0,2.14-3.4,30.36,30.36,0,0,1-9.69-22.65c-1.68-.36-3.33.93-4,2.48a8.92,8.92,0,0,0-.25,5c1.12,6.49,4.27,12.43,7.38,18.24.94,1.69,2.14,3.6,4.08,3.82a18.1,18.1,0,0,0,6.46,8.51c-1,1.6-3.41.46-4.79-.76-4-3.49-7.94-7-11.93-10.45,1.76,7.48,3.48,15,5.24,22.45a26.77,26.77,0,0,1-20.72-1c4.38-2,9.43-1.75,14.22-1.41q-1.45-14.53-3-29a1.5,1.5,0,0,0-.3-.91c-.64-.69-1.64.3-2.08,1.11-2.89,5.9-5.74,11.8-8.63,17.69-3.19-1.23-2.33-5.93-.67-8.9a59.31,59.31,0,0,1,8.94-12c2.26-2.31,1-6.94-2.15-7.83a9.66,9.66,0,0,1-4.72,8,4.17,4.17,0,0,0-1.12,5.95c-.21-1.55-2.58-1.4-3.84-.41-4.3,3.25-4.86,9.29-5.68,14.64a76.41,76.41,0,0,1-1.6,7.59c-.62,2.24-1.46,4.65-3.37,6-2.39,1.67-5.54,1.21-8.43.85a73.52,73.52,0,0,0-27.17,1.62,4.09,4.09,0,0,1,1.83-2.75,101.42,101.42,0,0,1,2.4-28.44c.54-2.42-1.91-4.51-4.24-5.39s-5-1.37-6.45-3.41-1-5.28.57-7.38,4-3.47,6.29-4.75q-10.92-21.52-20.38-43.72a9.15,9.15,0,0,1-1.09-5c.5-3.54,4.53-5.28,8-6.29q33.5-10.28,67.42-19a3.12,3.12,0,0,1,2.63.06c.73.53.59,2-.32,2a36.85,36.85,0,0,0,1.81,20.39,68.54,68.54,0,0,0-.2,22.46c.24,1.56.49,3.15-.17,4.53s-2.65,2.23-3.76,1.19a322.15,322.15,0,0,0-2.7-46.58q-28.62,7.18-56.9,15.93c-4.24,1.31-8.53,2.66-12.17,5.18q9.83,22.1,19.6,44.28a3.72,3.72,0,0,0,5.29,2.45c4.68-1.09,9.35-2.14,14-3.18.86-.21,1.9-.64,1.82-1.5a6.12,6.12,0,0,1,5.31-6.14c-.27,1.85-.58,3.71-.86,5.56a29.69,29.69,0,0,0,16.75-4.63c4.81-3,9.42-7.58,15.08-7,4.27.42,8.91,3.73,12.43,1.25s8.62-3.65,12.53-1.51,5.43,8.16,2.17,11.2c-1.35,1.29-.76,3.71.7,4.89s3.4,1.53,5.21,2a30.21,30.21,0,0,1,6.59,2.5c1.46.75,3,1.8,3.52,3.35s-.55,3.76-2.23,3.62a5.56,5.56,0,0,0-4.59-4.44c-1.78,1-1.41,3.88.22,5.1s3.75,1.28,5.78,1.29,4.23.2,5.69,1.59c1.74-1.11-.19-3.58-1.52-5.15-3.17-3.77-2.18-9.43-1-14.21q3.46-13.46,7.7-26.64c1.59-4.82,3.31-9.78,6.75-13.47,1.63,1.53.92,4.24.12,6.35a250.8,250.8,0,0,0-11.59,39.78c-.49,2.29-.51,5.4,1.73,6.15,4.35,1.54,5.47,8.41,1.74,11.19-3.35,2.57-2.39,7.85-.56,11.66s4.35,7.93,3,11.94a33.63,33.63,0,0,1-8.89-25.15c-10.53-.94-21-2.39-31.41-4.32m-38.89,34.32a13.31,13.31,0,0,0,1.39-12.91,47.94,47.94,0,0,1,10.86-16.24c1.57-1.5,3.39-3.39,2.85-5.51a4.51,4.51,0,0,1-4.31-7.16c-10.39,3.17-20.73,6.34-31.12,9.5-2,.59-4,1.31-5.25,3a9.16,9.16,0,0,0-1.41,4.87c-.88,8.45-1.5,17-2,25.42a2.21,2.21,0,0,0,.25,1.3,2,2,0,0,0,1.59.48l25,.31a3.7,3.7,0,0,0,2.85-.8c.7-.73.28-2.33-.76-2.21m12-46c2.25-.59,4-2.26,6-3.5s4.59-2,6.53-.69a4.31,4.31,0,0,0-3.61-3,12.65,12.65,0,0,0-4.88.52c-13.89,3.36-27.73,6.68-41.62,10-3.89.93-8,2-10.79,4.9a4.09,4.09,0,0,0-1,1.5c-.71,2,1.22,4.11,3.34,4.43s4.1-.58,6.05-1.43c5.68-2.42,11.43-4.63,17.32-6.48,7.49-2.41,15.1-4.35,22.67-6.28m24-5.75a7.9,7.9,0,0,1,3.33-1.27c.23-1.38-1.28-2.43-2.66-2.66s-2.89-.1-4.09-.85c-.86-.56-1.46-1.52-2.41-1.91s-2,0-3-.15a12.67,12.67,0,0,1-2.15-.67,7.71,7.71,0,0,0-7.49,1.77.7.7,0,0,0-.52,1.12,27.84,27.84,0,0,1,13,3.33,15.31,15.31,0,0,1,6.86,6.48,10.87,10.87,0,0,1,.86,6.61A6,6,0,0,0,183,211a1.57,1.57,0,0,0,1.54,1.44,13.17,13.17,0,0,0,4.58-13.4c-.33-1.39-2.19-1.57-3.53-1.24s-2.86,1-4.06.28c-.26-.18-.51-.44-.43-.74a.69.69,0,0,1,.44-.47m15.08,11.2-.09-5.57c-.6-.35-1.25-.7-1.85-1-1.13.51-1.1,2-1.1,3.27a10.68,10.68,0,0,1-2.47,6.55,3.41,3.41,0,0,0,4-.36c-.35,1.33,1.5,2.08,2.88,2.18,2.16.18,4.32.33,6.43.52a7.37,7.37,0,0,1-2.33-6.33,6.85,6.85,0,0,0-2.41-1,2.09,2.09,0,0,0-2.17,1.11c-.18.48-.78,1.16-.91.64m-27.57-4a5.33,5.33,0,0,0-2.3-3.81c-1.79,1.89-3.57,3.73-5.36,5.62a4.5,4.5,0,0,0-1.13,1.59,2.31,2.31,0,0,0,1.58,2.86c1.2.53,2.46-.59,3.29-1.62s1.92-2.19,3.17-1.92a5.43,5.43,0,0,1,.75-2.72m16.64-13.48a6.93,6.93,0,0,1,4.59,3.22c.47.78.9,1.74,1.8,2,1.25.36,2.34-1.1,2.48-2.4s-.33-2.68-.06-3.93a9.92,9.92,0,0,0-7.63-1.43,2.48,2.48,0,0,0-1.69.93,1.08,1.08,0,0,0,.51,1.61M177.74,203a2.38,2.38,0,0,0,.23-1.51l-2.54-1.83a3.57,3.57,0,0,0-2.54-.93c-.91.13-1.56,1.5-.79,2a2.86,2.86,0,0,1,1.15,2.08,39.64,39.64,0,0,0,4.49.16"/></svg>