<svg id="51d9071d-e6f0-4722-bc36-360bb931d184" data-name="Layer 1" xmlns="http://www.w3.org/2000/svg" viewBox="0 0 300 300"><defs><style>.\30 841b154-711c-4e0f-9e7b-fe6e25a480a2{fill:#fff;}.\37 2995003-3e97-43d1-98aa-93a81d0a5858{fill:#52df84;}.a887b776-8fca-4970-be21-9f620e97a7a8{fill:#e6e6e6;}</style></defs><path class="0841b154-711c-4e0f-9e7b-fe6e25a480a2" d="M255,206.88a15.78,15.78,0,0,0,3.5-9.9c-.36-8.08-7-16.44-15.82-15.82q-10.42.72-20.89.72c-3.63,0-7.27-.1-10.9-.24-8-.3-15.16,3.51-18.34,11.06-2.41,5.72-1.07,11.29-.25,17.19.48,3.41,1,6.83,1.43,10.24q1.46,10.45,2.92,20.92l1.59,3.78a12,12,0,0,0,4.08,4.43,15.75,15.75,0,0,0,9.58,3.4q9,.18,18-.16c2.85-.11,5.69-.27,8.54-.46a26.16,26.16,0,0,0,8.64-1.68,16.85,16.85,0,0,0,9.17-9.22c2.69-6.38,1.4-14.64.62-21.4C256.38,215.43,255.77,211.14,255,206.88Z"/><path class="0841b154-711c-4e0f-9e7b-fe6e25a480a2" d="M243.3,157c-.38-8.57-7-15.82-15.82-15.82-8.27,0-16.2,7.27-15.82,15.82s7,15.82,15.82,15.82C235.76,172.83,243.69,165.55,243.3,157Z"/><path class="0841b154-711c-4e0f-9e7b-fe6e25a480a2" d="M163.37,111.46c15.72-6.94,27.95-21.72,28.48-39.33.32-10.3-10.36-17.94-20-15.25L153.51,62c-3.83,1.06-7.72,2.41-11.64,3.4A16,16,0,0,0,134,62.09a17.36,17.36,0,0,0-10.68,2.2l-.36,0a21.85,21.85,0,0,0-4.49.32,23.6,23.6,0,0,0-12.77-7.94A28,28,0,0,0,87,59.12a23.61,23.61,0,0,0-3.08,1.8l-1-.36A26.31,26.31,0,0,0,72,59.48a40.47,40.47,0,0,0-14.31,4.27,58.4,58.4,0,0,0-7.32,4.6C47.09,70.63,44,73.72,43.1,77.8L42.53,82a15.77,15.77,0,0,0,2.16,8,18.32,18.32,0,0,0,7.43,7.7,19.81,19.81,0,0,0,4.13,1.74c.18,1.34.35,2.67.53,4a15.92,15.92,0,0,0,4.07,7l3.2,2.47a15.78,15.78,0,0,0,8,2.16h1.37a11.9,11.9,0,0,0,4.77-.76c2,.76,4.1,1.39,6.09,2,1.25.36,2.51.67,3.76.95a15.93,15.93,0,0,0,4.57,10c3,2.77,7,4.82,11.19,4.63a17.28,17.28,0,0,0,3.31-.45,72.72,72.72,0,0,0,7,4.49l.39.21a71.41,71.41,0,0,0-13.12,7.08c-6.83,4.76-12.84,10.17-15.4,18.38a23.12,23.12,0,0,0,.19,13.68A53.24,53.24,0,0,0,88.63,181c-1,2-2.14,4.05-3,6.18-3.32,7.86-3.12,16.73,3,23.29,3.77,4,9.57,6.05,14.54,8a66.6,66.6,0,0,0,10.22,3.13,81.63,81.63,0,0,0,24.29,1.89c9.71-.83,20.64-2.36,27.94-9.48,8.76-8.54,8.42-21.39,4.67-32.13a16.86,16.86,0,0,0-7.27-9.46c-.32-.19-.66-.36-1-.53-.07-.22-.15-.44-.23-.66.54-.29,1.08-.59,1.61-.92,7.31-4.55,12.36-12.25,12.56-21,.24-10-6.29-18-15.33-21.33-7.63-2.85-16.35-1.09-24.38,1.08a17.07,17.07,0,0,0,1.22-9.8l1.88-.41A124.56,124.56,0,0,0,163.37,111.46Z"/><path class="72995003-3e97-43d1-98aa-93a81d0a5858" d="M187.8,95.8a41.23,41.23,0,0,1-5.18,5.14l1.7-.6.53-.6A48.1,48.1,0,0,0,187.8,95.8Z"/><path class="72995003-3e97-43d1-98aa-93a81d0a5858" d="M191.77,65.79a18.84,18.84,0,0,0-8.6-8.44,24.67,24.67,0,0,0-13.46-1.9c-7.24,4.3-15.51,6.74-22.48,11.46-3.13,2.12-6,4.54-9,6.87l-.19.42c-1.87,4.29-2.57,9.19-4.74,13a11.53,11.53,0,0,1-5.08,9c-5.64,3.76-14,2.94-20.1.37a17,17,0,0,0-4.26,2.15,17,17,0,0,0-6.39,3,16,16,0,0,0-3.57,3.82,4.78,4.78,0,0,0-2,2.12q-1.69,3.69-3.41,7.38c-1.74,3.76-.34,7.71,3.7,9.09l1.15.39c1.89,2.66,5,4.15,8.08,5.37a45.54,45.54,0,0,0,16.5,3l3.69,1.26a5.56,5.56,0,0,0,6.58-2.4l.52-.08a13.11,13.11,0,0,1,.57-1.32,5.43,5.43,0,0,0-1.42-1.11c-.25-.15-.51-.29-.77-.42a10,10,0,0,1-7.17-3.28,2.27,2.27,0,0,1-.64-1.89,30.27,30.27,0,0,1-4.33-4.13c-1.77-2.08-3.59-4.66-3.5-7.53.07-2.51,4-3.21,4.5-.61,1.06,5.09,7,6.86,11.35,8.12,1,.3,2.1.57,3.17.83a2.12,2.12,0,0,1,2.07-1.46,48,48,0,0,0,7.8-.7,6.31,6.31,0,0,0,4.33.44,60.89,60.89,0,0,0,19.64-9.06,63.32,63.32,0,0,0,9-7.48,42.17,42.17,0,0,0,6.44-4.48,32.82,32.82,0,0,0,11.57-29.93A2.38,2.38,0,0,1,191.77,65.79Z"/><path class="a887b776-8fca-4970-be21-9f620e97a7a8" d="M169.46,188.63c-2.21-5.95-6.18-10.14-11.61-13.37a13.21,13.21,0,0,0-5.12-1.71l.25-.22c4.88-4.34,8.31-11.68,7.58-18.28a16.28,16.28,0,0,0-2.68-8.14c1-4.59-.16-9.77-3.62-12.95a14.07,14.07,0,0,0-19.46,0c-.48.45-1.06.85-1.51,1.33l.46-.47a1.48,1.48,0,0,0-.13.08,27.28,27.28,0,0,1-2.42,1.36,31.1,31.1,0,0,1-3.92,1.07,30,30,0,0,1-3.91,0,28.88,28.88,0,0,1-5.24-1.63c-3-1.29-7.9-.2-10.6,1.38a14.06,14.06,0,0,0-6.32,8.23c-.8,3.52-.63,7.47,1.39,10.6s4.72,4.84,8.22,6.32a35.5,35.5,0,0,0,10.41,2.59c-.26,6.27,3.36,12.91,10,14.31a25.45,25.45,0,0,0,8.21.42c-.13.21-.25.42-.37.64l-5.28,9.74a11.86,11.86,0,0,0-5.74-1.32,15.76,15.76,0,0,0-10.3,4.53,62,62,0,0,1-9.56-5.31c-2.8-1.94-7.43-2.26-10.6-1.38a14,14,0,0,0-8.22,6.32c-3.72,7-1.39,14.42,4.93,18.82a62,62,0,0,0,9.87,5.45c4.08,1.85,8.3,4.09,12.69,5a23.6,23.6,0,0,0,12.49-.53,21.25,21.25,0,0,0,14.86-2,21,21,0,0,0,2.13-1.31c10,1,19.77-5.68,23.21-15.21A21.72,21.72,0,0,0,169.46,188.63Z"/><path class="a887b776-8fca-4970-be21-9f620e97a7a8" d="M133.75,134.82c1.06-.74,1.95-2,0,0Z"/><path class="a887b776-8fca-4970-be21-9f620e97a7a8" d="M256.06,219.83,254.41,209q-1.74-11.28-3.46-22.57c-.47-3.05-3.68-6.82-6.32-8.22a15.37,15.37,0,0,0-10.6-1.38,285.1,285.1,0,0,0-30.33,7.51c-6.88,2.1-11.95,9.71-9.61,16.92a15.25,15.25,0,0,0,5.19,7.33c-.24,2.43-.46,4.87-.7,7.3q-1.05,10.76-2.09,21.52c-.31,3.17,1.73,7.62,4,9.73a14.86,14.86,0,0,0,9.73,4c7.55.34,15.12.39,22.67.09,4.12-.17,8.68-.09,12.64-1.28,7.56-2.27,12.17-9.3,12.29-17C257.92,228.67,256.71,224.08,256.06,219.83Z"/><path class="a887b776-8fca-4970-be21-9f620e97a7a8" d="M91.37,91.27a15.15,15.15,0,0,0-4.44-7,13.39,13.39,0,0,0-3.64-6.59c-2.62-2.4-6.06-4.19-9.73-4a15,15,0,0,0-9.73,4c-6.23,5.63-7,15.28-3.13,22.39,2.17,3.95,6.14,6.62,10.3,8a17.21,17.21,0,0,0,10.76,0c3.43-1.29,6.31-3.06,8.22-6.33A14,14,0,0,0,91.37,91.27Z"/><path d="M198.72,151a4.31,4.31,0,0,1-2.34-2.94c.32-.87.69-1.74,1.05-2.61a4.72,4.72,0,0,1,1.29,5.55"/><path d="M119.85,80.92a1.49,1.49,0,0,1,.45-2.39,2,2,0,0,1,2.44.92c-.56.64,0,1.7-.14,2.52a1.47,1.47,0,1,1-2.85-.73"/><path d="M239.16,57.71c.37.88-1,1.33-1.92,1.29-1.61-.09-3.26-.18-4.86-.32.82-1.93,3.48-1.93,5.59-1.61.46,0,1,.19,1.19.64"/><path d="M230.27,65.1c-.6-.83.73-1.7,1.74-1.88a10.39,10.39,0,0,1,3.76-.23,3.38,3.38,0,0,1,2.75,2.29,9,9,0,0,1-7.61.23,1.51,1.51,0,0,1-.64-.41"/><path d="M202.66,62.21a3,3,0,0,1-1.51-.46,1.89,1.89,0,0,1-.83-1.61,13.16,13.16,0,0,1,5.28-.41c1.74.37,3.44,1.65,3.62,3.44l-6.56-1"/><path d="M228.25,41c-1.51-.51-1.74-2.66-1.19-4.13a7.31,7.31,0,0,1,3.89-4,8.88,8.88,0,0,1-2.7,8.17"/><path d="M213.67,48.54a2.55,2.55,0,0,0-.64,1.88,10.46,10.46,0,0,1-5.46-5,1.58,1.58,0,0,1-.23-.92c.09-.59.87-.87,1.42-.73a3.39,3.39,0,0,1,1.47,1.1l3.44,3.71"/><path d="M221.14,35.47c0,1.43.78,2.71.87,4.09a8.73,8.73,0,0,1-.68,3.53c-1.7-.14-2.62-2-3.12-3.63-.42-1.28-.78-2.7-.19-3.85s2.75-1.37,3.12-.14"/><path d="M257.37,152.09a2.8,2.8,0,0,1,.27,1.92,24,24,0,0,1-7.24,2.16c-.83.13-2.07-.28-1.74-1.06a8.49,8.49,0,0,1,8.71-3"/><path d="M243.2,43.45c-2.29,1-4.63,2.07-6.93,3.12a3.24,3.24,0,0,1-2.15.37,5.48,5.48,0,0,1,9.08-3.49"/><path d="M235,79a1.66,1.66,0,0,1,.83.18c.41.32.22,1.05-.19,1.37a2.55,2.55,0,0,1-1.56.33c-3.3,0-6.6,0-9.9-.14-.23-1.24,1.51-1.79,2.8-1.74h8.25"/><path d="M203.62,162.27c-1.74,0-3.53-.1-5.27-.14-1.51-.09-3.44-.6-3.44-2.07A13.1,13.1,0,0,1,206,160a1.22,1.22,0,0,1-.23,1.88,3.17,3.17,0,0,1-2.16.42"/><path d="M202,173.82a12.16,12.16,0,0,0,3.76-3.76c1.75-.78,3.49-1.56,5.19-2.34,1.1.92,0,2.62-1,3.53a12.28,12.28,0,0,1-3.58,2.66,4.56,4.56,0,0,1-4.36-.09"/><path d="M227.19,131.31a18.6,18.6,0,0,1,.65-10.13,3.48,3.48,0,0,1,1.37-2,1.92,1.92,0,0,1,1.79,0,35.2,35.2,0,0,1-.41,8.76,5.8,5.8,0,0,1-.92,2.61,2.12,2.12,0,0,1-2.48.73"/><path d="M213.9,123.2a2.09,2.09,0,0,1,1,1.33c.82,1.92,1.6,3.85,2.43,5.82a4.14,4.14,0,0,1,.37,1.47,1.87,1.87,0,0,1-2.89,1.24c-.37-.78-.69-1.61-1.06-2.43-.68-1.56-1.37-3.12-2.06-4.73,0-1.37,1-3.3,2.25-2.7"/><path d="M197,94.22c-.69,0-.88,1-.6,1.55a9.77,9.77,0,0,1,.92,1.75c.27,1.51-1.61,3.21-.6,4.31l-1,.14a11.43,11.43,0,0,1-.37-12.06c.55,1.42,1.1,2.88,1.7,4.31"/><path d="M242.46,141.26c-.45-2.38,1.33-4.54,3-6.28,1.42-1.51,3.62-3.12,5.31-1.92a35.82,35.82,0,0,1-7.1,8.85,2.36,2.36,0,0,0-1.2-.65"/><path d="M129.38,228.3a26.08,26.08,0,0,0,12.71,1.42c1.19-.18,2.38-.32,3.57-.5a20.15,20.15,0,0,1-18,.36l1.69-1.28"/><path d="M137.32,56c-2.52,0-4.45-2.06-6.42-3.57a15.6,15.6,0,0,0-9.63-3.17c-.69-.14-.83-1.15-.42-1.7a2.82,2.82,0,0,1,1.89-.73A14.32,14.32,0,0,1,137.32,56"/><path d="M120.9,239.58a103.84,103.84,0,0,1,.18,10.73A58.71,58.71,0,0,1,119.62,261l-1.24.27c-.87-2.24-.69-4.67-.6-7.06a98,98,0,0,0-.46-13.39c-.09-1-.18-1.88-.23-2.84a23.32,23.32,0,0,1,2.25-10.82.62.62,0,0,1,.87-.33l.69,12.8"/><path d="M255,184.83a9.85,9.85,0,0,1,1-4.73,3.59,3.59,0,0,1,4-2,621.31,621.31,0,0,0-.09,83.78,3.61,3.61,0,0,1-3.76-2.06,10.26,10.26,0,0,1-.78-4.45c-.78-23.53-1.29-47.05-.37-70.57"/><path d="M242.6,159.7c0,1.47-.09,2.93-.14,4.4a2.49,2.49,0,0,1-.68,2.06c-1.29.92-.32,2.89-.42,4.45a4.21,4.21,0,0,1-2.79,3.49,13.44,13.44,0,0,1-4.63.64c-5,0-9.91,0-14.91.09a3.89,3.89,0,0,1-2.93-.83,3.65,3.65,0,0,1-.78-2.2,111.18,111.18,0,0,1,0-28.7c1.24-2.07,4-2.25,6.42-2.25h11.92A17.46,17.46,0,0,0,236.5,146c1.79,2.3,4.22,4.13,5.37,6.84a16.4,16.4,0,0,1,.73,6.83m-18.29-15.59a6.49,6.49,0,0,0-3.86.68c-1.65,1.2-1.83,3.54-1.83,5.6,0,6.19,0,12.43,0,18.66a4.18,4.18,0,0,0,.36,2.11,1.49,1.49,0,0,0,1.74.83,19.58,19.58,0,0,1,9.45-1,14.16,14.16,0,0,0,4.13.42,3.3,3.3,0,0,0,3-2.43c.92-5.19,1.79-10.69,0-15.64l-6.1-8.58a2.21,2.21,0,0,0-1.7-.59c-1.74,0-3.48,0-5.22-.09"/><path d="M184,128.42c-4.76,2.07-9.85,4.18-15,3.44A164,164,0,0,1,200,118.93c1.7-.5,2.43-2.47,2.89-4.17Q210.18,88.82,215,62.3c.51-2.61,1-5.32,2.39-7.61s3.94-4.08,6.6-3.76,4.86,3.39,3.67,5.78c-9.45,19.39-14.81,40.49-20.09,61.4-1.24,5.09-2.38,11,.92,15a12.41,12.41,0,0,1-6.83-12.25c-5.87,2.53-11.7,5-17.57,7.52m40.4-75.29a3.62,3.62,0,0,0-3.71.87,7.91,7.91,0,0,0-2,3.44,19.16,19.16,0,0,0-.87,4.63,7.1,7.1,0,0,1-.73,3.76,4.27,4.27,0,0,0,.82,5.32.91.91,0,0,0,1.42.32,2.91,2.91,0,0,0,.74-1.51c.87-3.3,1.69-6.61,2.56-9.91.6-2.29,1.2-4.63,1.79-6.92"/><path d="M204.59,182c-3,.05-6.93,1-7.06,4a412.33,412.33,0,0,0,1.33,63.55,449.41,449.41,0,0,1,50.71-1.56,4,4,0,0,1,2.66.78c.64.69.37,2.16-.55,2.21L205.5,252c-2.79,0-6.23.64-7,3.3a7.73,7.73,0,0,0,.51,4c.37,1.33.6,2.89-.28,4s-3,.92-3.16-.46a488.43,488.43,0,0,1-1.51-81.94c11.78-2.06,23.75-2.29,35.72-2.48,7-.13,14-.23,21-.36,2-.05,4.77,1.14,3.9,2.89-16.69.32-33.43.68-50.12,1"/><path d="M174.32,148.51c-1-7.84-7.43-14.26-14.9-16.83s-15.77-1.7-23.34.73c10.27-8.53,27.51-6.6,35.63,4s5.69,27.69-5.14,35.49c-1.14.83-.91,2.66,0,3.76a35.94,35.94,0,0,0,3.21,2.71c2.34,2.24,2.75,5.73,2.89,8.94.13,6.14-.46,12.42-2.94,18s-7,10.55-12.84,12.47c-2.2.74-2.15,3.85-1.6,6.15q5.35,23.52,12.47,46.63c-5-2.57-7.15-8.53-8.76-13.94a375.15,375.15,0,0,1-8.8-37.51c6.78-4.4,13.94-9.22,17.15-16.64a29.4,29.4,0,0,0,2.15-10.64c.28-7-2-15.46-8.76-17.24,1.7-4.27,5.69-7,8.62-10.51a20.31,20.31,0,0,0,5-15.54"/><path d="M66.93,113.38a14.33,14.33,0,0,1-7.06-6,9,9,0,0,1-.09-8.95c-6.52.65-13.67-.73-18.16-5.5s-4.91-13.48.32-17.47a7.77,7.77,0,0,1,0-15.54,8.08,8.08,0,0,1,8,7.42c8.48-9,24.16-10,33.65-1.92-2.2,1-4.72-.23-7-1.15a24.81,24.81,0,0,0-23.93,3.3c-.05,1,1.19,1.47,2.11,1.29s1.79-.74,2.75-.83a4.08,4.08,0,0,1,3.85,2.62,12.37,12.37,0,0,1,.6,4.86c-.1,2.84-.14,5.64-.19,8.48s.28,6.69,3.08,7.84c2.1.92,4.53-.27,6.28-1.74,3.39-2.89,5.91-7.06,10.09-8.67,3.11-1.19,7.42-1.28,8.43-4.45.6-1.74.28-4.44,2.11-4.63,1.1-.09,1.93,1.1,2.07,2.25s-.23,2.25-.1,3.35.78,2.29.74,3.53-1.42,2.43-2.34,1.65a17.87,17.87,0,0,1,.41,4.95c-.73.09-1.47.14-2.2.23.23-3.21-4-5.18-7.11-4.17S78.12,88,76,90.5s-4.73,5-8,5c-4.49,0-7,6.09-5,10.08s6.88,5.78,11.37,6,8.94-.78,13.43-.78a21.34,21.34,0,0,1-20.95,2.52M57.8,95.87c2.25.32,5.09.41,6.24-1.61a5.4,5.4,0,0,1-4.49-3.35,16.22,16.22,0,0,1-1.06-5.77c-.09-1.56-.18-3.17-.27-4.73l-.69-11.55C57,70.51,55.24,71.33,53.68,72c-2.71,1.1-5.41,2.2-8.12,3.25-1.74.69-2.61,2.62-3.07,4.4a16.05,16.05,0,0,0,.78,10.05c3.21,4.35,9.17,5.45,14.53,6.19M43.63,72.43a10,10,0,0,1,5.55-.68c.87-.28.74-1.65,0-2.25s-1.65-.78-2.29-1.38c-1.24-1.19-1-3.34-2.25-4.49a3.1,3.1,0,0,0-3.39-.32,6.92,6.92,0,0,0-2.52,2.52,5.08,5.08,0,0,0-.83,1.93,3.62,3.62,0,0,0,2,3.3,15.12,15.12,0,0,0,3.76,1.37"/><path d="M92.24,176.44c2.29-4.09,4.63-8.12,6.93-12.2,1.55-.6,3,1.37,2.75,3s-1.61,2.84-2.71,4.08a20.91,20.91,0,0,0-5.13,13.53A6.28,6.28,0,0,1,97,182.12c1.29-.41,3,.46,2.89,1.79-5,1.83-9.63,5.14-12.19,9.77s-2.89,10.77,0,15.27a21.15,21.15,0,0,0,6.14,5.77,33.62,33.62,0,0,0,15.18,5.83c3.3.37,6.7,0,10,.5,6,.87,11.74,4.31,17.61,3.17,4.67-.92,9.31-4.59,13.62-2.71a32.35,32.35,0,0,1-29,3.62c-2.21-.78-4.41-1.88-6.74-1.92s-5,1.24-5.42,3.57c-2.93,15.41-10.45,29.54-17.93,43.38-2.84-2.24-1-6.78.74-9.9a110.8,110.8,0,0,0,13.2-37A30.92,30.92,0,0,1,82.2,205.6c-4.77,7.66-9.54,15.36-14.26,23-.46.69-1.52,1.42-1.93.73a38.34,38.34,0,0,1,12.43-22.24c3.62-3.16,2.66-9,4.58-13.48,1.33-3,4-5.23,5.87-8s2.62-6.88.19-9.17c-4.82-4.63-5.64-12.29-3.58-18.62s6.42-11.64,11-16.5c3.39-3.63,8.71-7.34,12.84-4.59-7.43,3.62-14.31,8.94-18.16,16.28s-3.94,16.87,1.1,23.39"/><path d="M149.38,62.62a8.79,8.79,0,0,0,6.92-14.76c2.34-.69,4.82-1.38,6.56-3.08s2.52-4.63,1-6.55c-1.33-1.65-1-4.18.14-6A14.94,14.94,0,0,1,168.73,28a10.67,10.67,0,0,1,3.94,10.64,10.83,10.83,0,0,1-8.11,8c-2.53.5-3.26,3.76-3.26,6.37s0,5.69-2.2,7.06c5.27-2,10.68-4,16.37-4.26s11.74,1.6,15.22,6.05c4.82,6.19,3.35,15.27.19,22.47a61.34,61.34,0,0,1-46,35.22c-5.64.87-8.2,7.29-9.76,12.75-4.09-.42-7.75,2.47-11.83,3.21-3.31.59-6.7-.28-10-1.15-4.4-1.19-8.8-2.38-13.16-3.58-3.8-1-7.84-2.24-10.41-5.22-2.84-3.35-3.11-8.35-1.65-12.48s4.36-7.61,7.43-10.73c1.65-1.69,3.4-3.44,3.95-5.68.55-2.43-.42-4.86-.92-7.29C96.28,79,102.7,67.48,112.69,64A14.86,14.86,0,0,0,87.2,72.16,4.94,4.94,0,0,1,85,66.75a9.43,9.43,0,0,1,3.39-5.09,19.88,19.88,0,0,1,20.45-3.17c4.86,2.11,9.58,6.38,14.77,5.09a30.63,30.63,0,0,0,4.49-1.83,13.23,13.23,0,0,1,13.8,3c1.38,1.47,1.88,4.63-.13,4.82a12.15,12.15,0,0,0-15.6-3.81,19.39,19.39,0,0,1,9.18,11c3.85-3.17,7.7-6.38,11.6-9.54,1.1-.92,1.79-3.21.36-3.21-.82.51-1.6,1.06-2.43,1.61-.91-.78-.18-2.43.92-2.85a9.57,9.57,0,0,1,3.58-.09m-34.26,41.82a9.51,9.51,0,0,1,4.5-.55c1.51.28,2.93,1.61,2.75,3.12a10.26,10.26,0,0,0-7.52-.83c-.69.55,0,1.56.64,2.16,6.42,5.46,15,8.07,23.48,7.93s16.74-2.84,24.16-6.88c12.43-6.78,23-18,26.14-31.77,1-4.36,1.19-9.27-1.24-13S181.2,59,176.84,58.82s-8.66,1.14-12.7,2.75a86.21,86.21,0,0,0-19.9,11.09c-3.53,2.66-7,5.74-8.48,9.86-.74,1.88-1,4-1.65,5.87a18.33,18.33,0,0,1-11.37,10.87,26.52,26.52,0,0,1-16-.14c-3.39-1.05-6.56,2-8.76,4.77-2.56,3.17-5.18,6.42-6.28,10.36s-.32,8.67,3,11.06a14.66,14.66,0,0,0,5.18,2.06c6.61,1.7,13.16,3.44,19.77,5.14a3.88,3.88,0,0,0,2.47.09c.78-.37,1.2-1.56.55-2.07a23.24,23.24,0,0,1-13.89-12.65c-1.47-3.35-2-7.61.46-10.37,1.46-1.69,3.76-2.43,5.91-3.07m16-30.08c-2.06-4.81-7.38-7.38-12.52-8.35a12.89,12.89,0,0,0-6.87.28,15.86,15.86,0,0,0-3.54,2.2,16,16,0,0,0-4.86,5.37,14.07,14.07,0,0,0-1,2.75c-.83,2.84-1.7,5.78-1.47,8.71a26.77,26.77,0,0,0,1.19,5.32,11.91,11.91,0,0,0,1.24,3.07c2,3.3,6.37,4.08,10.22,4.17a27.76,27.76,0,0,0,8.9-1,17.26,17.26,0,0,0,8.8-6.56c.19-2,.37-3.9.6-5.87.32-3.39.64-7-.69-10.09m-20.63,36.27c.59,1.65,1.24,3.26,1.83,4.91a22.58,22.58,0,0,0,1.29,3.07,26,26,0,0,0,5.09,6.38c2.52,2.65,5.68,5.5,9.3,5,3.31-.51,5.51-3.67,7.25-6.61a3.9,3.9,0,0,0,.69-1.88c0-.68-.51-1.42-1.19-1.37a26.19,26.19,0,0,1-19.4-7.52c-1.33-1.33-3.26-2.94-4.86-1.93m59.38-79.24c-1,.23-1.88.51-2.84.74a14.94,14.94,0,0,0-1.29,4.12,4.47,4.47,0,0,0,.83,3.81c1,1,3,.69,3.16-.69a32.75,32.75,0,0,0,.14-8"/></svg>