<svg id="1a69d292-b6a5-405f-9994-f39fbd200d29" data-name="Layer 1" xmlns="http://www.w3.org/2000/svg" viewBox="0 0 300 300"><defs><style>.\38 13e40ee-5d61-44c0-bab4-a417bca64410{fill:#fff;}.\34 f05fb19-b7fd-4ae9-98d4-d5588ebf8c2c{fill:#52df84;}.\31 1e3bf13-f093-4a58-958e-7c7e3672149a{fill:#e6e6e6;}.\34 7d8783f-9967-418d-96b1-af3a93486a3f{fill:#8b898a;}</style></defs><path class="813e40ee-5d61-44c0-bab4-a417bca64410" d="M282.19,167.55a22.88,22.88,0,0,0-16.36-19.61c.4-6.63-.27-13.35-3.52-19.27a28.52,28.52,0,0,0-7.64-8.95,40.92,40.92,0,0,0-5.14-28.83c-2.95-4.75-8.11-7.54-13.76-6.29-2,.44-4,.78-6,1A60.2,60.2,0,0,1,216.81,85a16.77,16.77,0,0,0-11.18,1.73c-2.78,1.61-4.66,4-6.59,6.38a36.68,36.68,0,0,1-4.4,4l-.1.07a13.36,13.36,0,0,0-2.71-1.18A13.93,13.93,0,0,0,178.47,99c-3.39,3-4.67,7.65-5.53,12a43.31,43.31,0,0,0-.85,6.18,42.87,42.87,0,0,0-9.91-1.65,37,37,0,0,0-19.34,4.22c-6.9,3.82-11.52,9.78-14.57,16.93a39,39,0,0,0-2.59,11.21c-.1.88-.14,1.75-.17,2.63a113.37,113.37,0,0,0-16-2.47,51.33,51.33,0,0,0-19.67,2.68,82.78,82.78,0,0,0-17.21,8.38c-2.36,1.5-4.66,3.08-7,4.67-3.56,2.49-7.21,4.71-9.68,8.41-2.89,4.33-3.16,9.28-3.37,14.29a76.12,76.12,0,0,1-.82,8.39,79.37,79.37,0,0,1-5.19,16.33,79.9,79.9,0,0,1-4.08,7.21,12.54,12.54,0,0,0-.53,12.52c1.89,3.57,6.21,6.83,10.45,6.59L114.14,234l12-.72a12.24,12.24,0,0,0,14.28,7.6,13.78,13.78,0,0,0,9.19-8.58,256,256,0,0,1,25.65,1.38c11.51,1.11,23,2.29,34.53,3.44,6.14.62,11.62-4.51,12.63-10.23s-2.28-12.54-8.3-14c-.59-.15-1.17-.31-1.73-.51s-.89-.56-1.31-.87a31.28,31.28,0,0,1-3-3.35l-.32-.49c1,.06,2,.09,3,.1l2.66.18a84.67,84.67,0,0,0,8.56.48c5.13-.16,10-1.29,14-4.77a13.23,13.23,0,0,0,1.18-1.19,19.47,19.47,0,0,0,8.56.49c3.71-.51,7.23-2.33,10.61-3.92a49.34,49.34,0,0,0,14-9.46A22.84,22.84,0,0,0,282.19,167.55Z"/><path class="4f05fb19-b7fd-4ae9-98d4-d5588ebf8c2c" d="M231.72,150.62a11.71,11.71,0,0,0-2.31-5.84c-2.5-4.13-7.77-6.58-12.49-4.89a6,6,0,0,0-3,2.23,81.1,81.1,0,0,0-8.95.39,40.27,40.27,0,0,0-6.35,1.15,15.25,15.25,0,0,1-9-4.86,4.44,4.44,0,0,0-.56-.5q-.39-3.42-.82-6.82a13,13,0,0,0-.26-1.41,4.79,4.79,0,0,0-.58-5.76A37.12,37.12,0,0,0,154.3,115a34.33,34.33,0,0,0-14.51,7.17,30.83,30.83,0,0,0-6.28,4.4c-.59,0-1.18,0-1.77.1a26.7,26.7,0,0,1-3,6.32c-1.57,2.64-3.38,5.14-5,7.74a5.73,5.73,0,0,0,.59.35,26.53,26.53,0,0,0-.94,12.25c.88,4.73,4.17,7.92,7.68,10.88s7.14,5.86,11.53,7.53c4.84,1.85,10.1,1.48,15,.29,4.56-1.1,9-2.38,13.62-3.26a36.31,36.31,0,0,0,12.48-4.5,34.4,34.4,0,0,0,6.85-5.59,4.51,4.51,0,0,0,2.2-1.15,15.35,15.35,0,0,1,4.93-3.35,24.82,24.82,0,0,1,6-1.74,63.9,63.9,0,0,1,13.55-.54h.11a11.92,11.92,0,0,1,.22,1.68,17.72,17.72,0,0,1-.81,6.54,17.24,17.24,0,0,1-4.7,7.5c-1.53,2.88-4.21,3.85-7.21,3.87a17.27,17.27,0,0,1-9.19,0,4.89,4.89,0,0,0-5.85,2.57c-.92,2.05-.43,5,1.73,6.14a23.06,23.06,0,0,0,8.38,2.65c5.18-3.18,10.84-5.41,16.2-8.26l2.45-2.39a126.06,126.06,0,0,1,9.79-9,29.19,29.19,0,0,0,2.13-5.94,1.52,1.52,0,0,1,.94-1.13A19.11,19.11,0,0,0,231.72,150.62Z"/><path class="11e3bf13-f093-4a58-958e-7c7e3672149a" d="M278.88,165.83c-3.35-4.72-8.95-7.73-14.36-9.48a40.34,40.34,0,0,0-16.62-1.46c.46-1.83.87-3.68,1.22-5.53a43.55,43.55,0,0,0,.73-6.32,23,23,0,0,0,8-7.62c3-4.79,1.84-11.95-3.24-14.91a11.65,11.65,0,0,0-3.21-1.28,10.55,10.55,0,0,0,2.73-4.36c1.8-5.6,1-12.45-3.09-16.91a11.8,11.8,0,0,0-4.59-3.14,10.59,10.59,0,0,0-9-5.65A11,11,0,0,0,226.17,99.5a20,20,0,0,0,0,2.45,9.85,9.85,0,0,0-.35,6,11.18,11.18,0,0,0,5,6.76,19.53,19.53,0,0,0,10.31,7.17,10,10,0,0,0-1.52,1.88,3.87,3.87,0,0,1-.27.43l0,0-.39.2-.37.09a12.3,12.3,0,0,1-1.35-.12,10.37,10.37,0,0,0-5.5,1.24,10.67,10.67,0,0,0-4.63,5,10.85,10.85,0,0,0,1.31,11.4,25.46,25.46,0,0,1-.21,2.62,91.59,91.59,0,0,1-6.29,19.15c-1.08,2.22-2.24,4.39-3.5,6.52-.75,1.26-1.53,2.52-2.35,3.75l-.38.54c-.19.16-.42.36-.6.53l-.51.31a29.79,29.79,0,0,0-3.45,2.33,14.08,14.08,0,0,0-4.08,5.32,20.29,20.29,0,0,0-1.43,4.3c-1.68.06-3.36.11-5.05.15a10.62,10.62,0,0,0-3.91-3.14,10.32,10.32,0,0,0-5.55-1,12.05,12.05,0,0,0-6.32,2.7c-4.36,3.12-7.52,7.66-10.7,11.9-.57.76-1.15,1.51-1.74,2.26l-.06.06c-.4.43-.8.84-1.22,1.23s-.87.79-1.32,1.16l0,0-.48.28-4.45.32c-2.83.2-5.64.71-7.76,2.83a11.1,11.1,0,0,0-3.22,6.07c0,.09,0,.19,0,.28l-5.89.77c-2.54.33-5.33,2.62-6.66,4.68a11.09,11.09,0,0,0-1.35,3.18c-1.41-4.12-5-7.53-9.68-7.45a80.5,80.5,0,0,1-11.3-.59,9.84,9.84,0,0,0-3.2-4.73c-2.4-2-6.16-3.43-9.32-2.33-8.23,2.87-16.85,4.18-25.49,5q-3.39.3-6.79.55c-3,.24-5.47.74-7.75,2.84a10.8,10.8,0,0,0-.65,15.25c1.89,1.88,4.71,3.7,7.49,3.48,8.95-.7,18-1.34,26.83-3.11a9.43,9.43,0,0,0,3.35,1.72,91.25,91.25,0,0,0,25.92,3.44c4.82-.08,9.62-3.13,10.91-7.81a10.36,10.36,0,0,0,4.28,5.44,12.21,12.21,0,0,0,8.26,1.43c6.83-.88,13.65-1.84,20.48-2.68a11,11,0,0,0,10.82,1,9,9,0,0,0,5.77,2L199,234c3-.22,5.48-.74,7.76-2.83a10.79,10.79,0,0,0,.64-15.25c-1.88-1.89-4.7-3.69-7.49-3.48l-9.21.7c-.42,0-.83.07-1.24.12,1.06-1.31,2.08-2.64,3.09-4,6.58-.21,13.22-.2,19.77-.8.47-.05.94-.11,1.4-.2a8.39,8.39,0,0,0,.78.9c1.88,1.88,4.7,3.69,7.49,3.48,6.39-.49,12.53-1.17,17.92-5a20.79,20.79,0,0,0,5.47-5.65l.81.34c5.58,2.12,12.4.93,17.45-2a33.33,33.33,0,0,0,9.59-8.65C281.83,186.49,285,174.51,278.88,165.83ZM239.61,124l.6-.69A1.89,1.89,0,0,1,239.61,124Z"/><path class="11e3bf13-f093-4a58-958e-7c7e3672149a" d="M189.94,161.52a27.43,27.43,0,0,1-6,4.82c-7.78,4.61-17.39,6-26.32,5.6a31.88,31.88,0,0,1-16.45-1.9c-.72-.3-1.42-.61-2.12-.94a29.47,29.47,0,0,1-4.53-1.71,1.42,1.42,0,0,1-.88-1.31l-.83-.54c-3.78,2.41-6.4,7-5,11.53a19.37,19.37,0,0,0,7.43,10.45c3.23,2.31,7,3.2,10.86,3.76a54.85,54.85,0,0,0,16.87-.09c11.76-2,19.44-10.83,26-20A10.49,10.49,0,0,0,189.94,161.52Z"/><path class="47d8783f-9967-418d-96b1-af3a93486a3f" d="M216,227l-13.21-.14c.74-2-.29-4.76-2.94-4.7l-9.78.22c-8.35-1.77-16.85-3.52-25.43-3.22a30.72,30.72,0,0,0-5.62.66,47.23,47.23,0,0,0-11.53.42l.29-.25c3.32-2.9-1.31-7.92-4.63-5a47.43,47.43,0,0,0-7,7.56l-7.71-6.36c-1.43-1.18-3.81-.4-4.73,1-1.1,1.71-.4,3.55,1,4.73l3.53,2.91a2.61,2.61,0,0,0-1.09.39,3.14,3.14,0,0,1-2.45.41,3,3,0,0,0-2.3-3c-1.51-.46-3-.88-4.58-1.27a19.42,19.42,0,0,0-2.59-1.5c-5.24-2.42-11.26-2.22-16.9-2A135.8,135.8,0,0,0,63,223.81a3.58,3.58,0,0,0-2.5,4q-4.83.19-9.65.43a3.51,3.51,0,0,0-3.56,3.27,3.44,3.44,0,0,0,3.27,3.56q33.4-1.7,66.86-1.13a3.25,3.25,0,0,0,3.35-2.66c2.76,1.31,5.72,1.89,8.63.49a5.88,5.88,0,0,0,.19.65,3.65,3.65,0,0,0,3.33,2.65,3.13,3.13,0,0,0,4.75.29l.11-.1h0c.35.22.3,0,.74.21a13.15,13.15,0,0,1,2.2,1.67c1.42,1.19,3.82.38,4.73-1a3.23,3.23,0,0,0,.53-1.56c3.2-.22,6.4-.43,9.6-.58,6.71-.3,13.43-.42,20.15-.45,13.32-.06,26.63.16,39.94.29C220.07,233.83,220.38,227,216,227Z"/><path class="47d8783f-9967-418d-96b1-af3a93486a3f" d="M234.23,152.71a21.18,21.18,0,0,0-1.41-7.92,13.48,13.48,0,0,0-2-3.37,12.76,12.76,0,0,0-1.06-1.14,3.54,3.54,0,0,0,.82-2,3.5,3.5,0,0,0-3.27-3.56c-3.41-.45-6,3.28-5.14,6.41.67,2.54,3.1,3.71,4.19,6a14.48,14.48,0,0,1,1,7,37.11,37.11,0,0,1-1.08,7.71c-1.45,5.48-5.47,8.82-9.69,12.23a3.41,3.41,0,0,0-2.34.23,80.91,80.91,0,0,1-11.35,4.29c-3.65,1.07-7.74,2-10.64,4.58a4.63,4.63,0,0,0-.9,6c1.08,1.69,3,2.57,4.78,3.35a10.66,10.66,0,0,1,6,5.88c.64,1.73,2.15,3,4.1,2.56,1.63-.37,3.2-2.35,2.57-4.1a17.76,17.76,0,0,0-5-7.52c-.43-.37-.86-.71-1.31-1,5.67-.6,10.54-3.14,15.14-6.5s9.81-7.2,12.71-12.13S234.27,158.37,234.23,152.71Z"/><g id="02081ffd-74d3-4f61-b934-1866102ee800" data-name="pdf24_5"><path d="M255.06,105.87c-1.35-1-.55-3.16,0-4.78,2.21-6.69-3.1-14.16-9.8-16.27s-14.1,0-20.29,3.32c-6.73-6.79-19.14-6.73-25.78.16-.91.94-1.81,2-3.09,2.32a60.67,60.67,0,0,0-24.65,12.15c-2.21-3.38-7.41-1.88-11.08-.19s-9.2,2.6-10.76-1.16c-1.75-4.18-3.54-8.48-6.75-11.68a13.49,13.49,0,0,0-8-4c-1,.33-1.94.67-2.9,1s-2,.89-3,1.37a5.11,5.11,0,0,0,2.5,5.67c2.86,1.33,6.24.31,9.25-.7-3.52-.68-7-1.39-10.53-2.07,1.21-4,7.41-3.86,10.4-.92s4,7.23,6.2,10.82,6.69,6.61,10.34,4.59A22.45,22.45,0,0,1,170.89,103c-.42,3.86-.83,7.71-1.27,11.59-12-3.89-25.37,1.14-35.11,9.18-8.08,6.7-14.75,16.57-13.62,27,1,9.05,7.82,16.81,16.15,20.48s17.9,3.69,26.84,1.87a68.29,68.29,0,0,0,18.25-6.55c6.06-3.21,12.47-7.47,19.14-5.9a7.71,7.71,0,0,0-5.56-2,4.24,4.24,0,0,1,5.36-1.7,6.1,6.1,0,0,1,6-4.31,21.12,21.12,0,0,0,2.08,7.79,9.6,9.6,0,0,0-3.39,2.87,10.12,10.12,0,0,1,2.26,5.36c1.12.35,1-1.6.77-2.75-1.07-5.16,8.76-7.13,8.42-12.38a21.17,21.17,0,0,1-3.49,13.22c-3.76,5.56-12.23,8.9-17.18,4.36a17.47,17.47,0,0,0,7.94-12.35c-18.82,24.15-50.12,36.8-66.63,62.59-1.16,1.85-2.31,3.91-2.15,6.09a16.8,16.8,0,0,1,6.81,3,10.53,10.53,0,0,0-11,2.22c-2.35,2.36-6.06,2.53-9.4,2.57l-81.45,1c.87-3.1,1.73-6.23,2.62-9.36,12.1-5.31,23.32-12.53,35.72-17.15s26.68-6.39,38.57-.65c7.09,3.44,12.75,9.25,18.23,14.93Q129.4,196.12,123,168.18c-.9-3.89-1.82-7.85-3.8-11.33a20.87,20.87,0,0,0-19.47-10.14c-6,.56-11.5,3.77-16.75,6.89L60.31,167.2A11.67,11.67,0,0,0,56.75,170a11.53,11.53,0,0,0-1.81,4.4q-6.48,25-13,50l-.75.21A23.73,23.73,0,0,1,40.13,229a14.69,14.69,0,0,1-4.66,9.54q46-.69,92.07-1.33c4.21,6,13.92,6.89,19.19,1.85-2.19.31-4.38.62-6.54.91-3.29.47-7.73.18-8.46-3-.85-3.76,4.75-5.7,8.31-4.28s6.65,4.46,10.5,4.42l71.74-.67a20.16,20.16,0,0,1,7.48.87c.42-2.06-2.53-3-4.64-2.93q-39.17.36-78.29.75a13.07,13.07,0,0,0-5.28-7.57c8.55-10,24.09-9.95,36.93-6.92s25.94,8.18,38.82,5.28a118.55,118.55,0,0,1-21.07-2.79c-10-2.21-19.71-5.77-29.92-6.35S145,219.14,139,227.45c-1.4.12-1.2-2.2-.39-3.36,12.91-18.6,31.52-32.32,49.79-45.7q6.32,8.73,12.63,17.45a22.17,22.17,0,0,0-6.55-12.18,52.59,52.59,0,0,0,31.37-19.16c3.16-4.07,5.79-8.85,5.88-14s-3-10.61-7.95-11.91c9.58-5.62,12.52-20.06,5.86-29S208.34,99.37,200.19,107c5.61-2.12,11.58-4.27,17.43-3,7.32,1.58,12.85,8.75,13.19,16.23s-4.07,14.82-10.46,18.7-14.53,4.56-21.73,2.48a12.6,12.6,0,0,1-4.87-2.38c-2.29-2.05-3.12-5.25-3.29-8.3A24.72,24.72,0,0,1,196.77,113,10.77,10.77,0,0,0,189,95a24.92,24.92,0,0,1,16.77-.76,3.82,3.82,0,0,0-5-3.25c1.34-4.07,6.25-5.76,10.55-5.68A23.12,23.12,0,0,1,229,94.45a5.64,5.64,0,0,1,1-5.84c1.71-2,4.4-2.78,7-3,6.6-.48,13.71,3.31,15.62,9.65s-3.18,14.17-9.77,13.76c3.24,2.9,10-4,12-.07a3.64,3.64,0,0,1,.15,2.48A8.15,8.15,0,0,1,239,111c-1.67,1.85-1.1,5,.73,6.71s4.52,2.14,7,2c3.5-.18,7.13-1.55,9.17-4.4S257.83,108,255.06,105.87ZM46.59,214.53a8.63,8.63,0,0,0,.21,7c.69-3.26,1.39-6.52,2.08-9.78q3.79-18,7.72-35.86a9.45,9.45,0,0,1,1.7-4.21A9.34,9.34,0,0,1,60.47,170l22.26-13.82c5-3.11,10.11-6.26,15.86-7.36a15.78,15.78,0,0,1,8.41.41c3.34,1.2,5.94,3.87,8.42,6.43a19.25,19.25,0,0,1,2.91,3.57,17.92,17.92,0,0,1,1.63,4.52c4.71,18.53,6.32,38,14.11,55.49-.49.39-1.15-.17-1.54-.69-8.27-11.44-23.59-16.24-37.67-15s-27.17,7.69-39.25,15c-3.48,2.08-7.1,4.34-11.16,4.49A28.73,28.73,0,0,1,46.59,214.53Zm169.57-61.08c-.85.22-1.58-.49-2.21-1.08s-1.68-1.06-2.26-.42c1,.55,2.15,1.28,2.33,2.43a3.7,3.7,0,0,1-1,2.61c-.8,1.11-1.94,2.27-3.3,2.09a13.74,13.74,0,0,0-1.09-7.16c0-.61.82-.78,1.42-.73,1.19.05,2.35.13,3.54.2a4.26,4.26,0,0,1,1.91.41A1.44,1.44,0,0,1,216.16,153.45Zm-20-51.71c1.92,3.14,1.45,7.68-1.41,10-2.67,2.17-3.78,5.64-4.76,8.94-1.62,5.4-3.16,11.44-.56,16.43,2,3.89,6.26,6.27,10.59,7s8.75.19,13.06-.52a11,11,0,0,0,5.19-1.8,6.68,6.68,0,0,1,8.16.42,9.77,9.77,0,0,1,3.16,7.93,19.24,19.24,0,0,1-2.63,8.35c-4.56,8.34-12.12,14.68-20.41,19.26a22.32,22.32,0,0,1-9,3.19c-3.2.25-6.65-.83-8.52-3.44,2.28-1.73,4.48-3.56,6.64-5.47,3.85,2.29,8.57,4.61,12.65,2.71a11.54,11.54,0,0,0,3.35-2.62,35.66,35.66,0,0,0,6.5-9.4c1.56-3.32,2.54-7.43.52-10.48-1.57-2.4-4.64-3.44-7.46-3.25a19.75,19.75,0,0,0-8,2.77,7.5,7.5,0,0,0-.07-5.55c-1.7,1.4-2.21,3.76-3.38,5.66a15.36,15.36,0,0,1-3.86,3.94A78.31,78.31,0,0,1,166,170.38c-8.68,2.08-18,2.63-26.37-.54s-15.42-10.67-16.21-19.57c-.53-6,1.75-12,5.15-17a40.51,40.51,0,0,1,59.1-8.59c.84-2.5-2.08-4.52-4.52-5.54l-9.83-4.06c-.85-.34-1-1.46-1-2.37,0-2.71.11-5.52,1.38-7.92a12.72,12.72,0,0,1,3.06-3.64,16.59,16.59,0,0,1,10-4.19A10.61,10.61,0,0,1,196.11,101.74Z"/><path d="M229.82,95.67c-.28-.42-.56-.83-.86-1.22A3.93,3.93,0,0,0,229.82,95.67Z"/><path d="M239.77,119.48a4.89,4.89,0,0,1-3,.81,4.44,4.44,0,0,1-1.35-.56,2.9,2.9,0,0,1,4.39-.25"/><path d="M248.3,92a3.75,3.75,0,0,1,.33.9,9.26,9.26,0,0,0,1.29.55A9.71,9.71,0,0,0,248.3,92Z"/><path d="M62.77,220.51a11.67,11.67,0,0,1,3.74-2.3c.31-.12.67-.2.89,0a21.12,21.12,0,0,1-4.63,2.26"/><path d="M202.79,172.06a1.06,1.06,0,0,1-.87.06A5.43,5.43,0,0,1,202,167a.92.92,0,0,1,1.18.28,2.15,2.15,0,0,1,.32,1.28,8.2,8.2,0,0,1-.75,3.54"/><path d="M183,111.87a1.36,1.36,0,0,1,1-.42,1.43,1.43,0,0,1,.47.22,3.69,3.69,0,0,1,1.42,4.14,2.85,2.85,0,0,1-3.07,1.34,2.52,2.52,0,0,1-1.8-2.76,4.5,4.5,0,0,1,2-2.52"/><path d="M201.59,124.88a3.35,3.35,0,0,1-3.08,2.89c-1.51.16-3.26-.77-3.35-2.3a2.93,2.93,0,0,1,.34-1.43,3.67,3.67,0,0,1,3.48-2,2.91,2.91,0,0,1,2.61,2.84m-4-.06c-.41.59.63,1.26,1.2.86a1.89,1.89,0,0,0,.44-2,1.87,1.87,0,0,0-1.72,1"/><path d="M168.32,238.53a3.69,3.69,0,0,0-.94.05Z"/><path d="M164.13,238.76l.82,0h0a6.67,6.67,0,0,0-1.18-.24A3.08,3.08,0,0,1,164.13,238.76Z"/><path d="M159.84,238.61l-.58.08-.31,0,.68.05A1.2,1.2,0,0,1,159.84,238.61Z"/><path d="M52.13,172.5c.08-.38.15-.75.23-1.13a1.42,1.42,0,0,0-.08-.18Z"/><path d="M66.23,227H66a7.27,7.27,0,0,0-3.86.88c-.18.52.63.74,1.16.63l3.1-.52A4,4,0,0,1,66.23,227Z"/><path d="M235.9,104a5.24,5.24,0,0,1,1,4.63c-.57,2.23-1.17,4.45-1.75,6.68a1.31,1.31,0,0,1-1.61-.82,3.92,3.92,0,0,1-.07-2c.21-1.36.42-2.69.61-4.05a5.18,5.18,0,0,0,0-2.25c-.68-2.31-4-2.78-5.11-4.93-.3-.59-.18-1.57.48-1.62a1.24,1.24,0,0,1,.8.28c1.13.79,2.29,1.57,3.44,2.33A11.16,11.16,0,0,1,235.9,104"/><path d="M212.87,190c.06-.9.1-1.81.16-2.7a2.1,2.1,0,0,1,.35-1.17c.49-.59.47-1.45.73-2.17s1.1-1.45,1.74-1c.13.44.27.87.42,1.31a17.78,17.78,0,0,0-.38,8,6.48,6.48,0,0,0,6.72,5.17c1-.06,2.21-.23,2.6.65a6.54,6.54,0,0,1-5.67,1.12,11.29,11.29,0,0,1-3.66-2,8.36,8.36,0,0,1-2.54-2.69,8.49,8.49,0,0,1-.47-4.48"/><path d="M242.3,131.06c0-1.47.43-3.15-.56-4.2a3.35,3.35,0,0,0-1.84-.86,10.86,10.86,0,0,0-4.61,0,1.3,1.3,0,0,1,.56-1.69,3.58,3.58,0,0,1,1.94-.38c2.45.06,5.31.68,6.36,2.9,1.09,2.38-.39,5.63,1.35,7.58a4.19,4.19,0,0,0,3.72,1.12,34.2,34.2,0,0,0,3.94-1,12.44,12.44,0,0,1,8,.88,2.19,2.19,0,0,1,1.34,1.27c.15.64-.56,1.39-1.11,1a10.68,10.68,0,0,0-10-.8,6.42,6.42,0,0,1-9.09-5.93"/><path d="M216.64,222.25c.74-.61,1.76.32,2.29,1.13q2.91,4.6,5.84,9.21l-74.5,0c-1.7,0-3.59-.07-4.78-1.31a45.54,45.54,0,0,1,10.77-.76q31.37.25,62.75.5a3,3,0,0,0,2.3-.64,13.18,13.18,0,0,1-4.67-8.17"/><path d="M114.78,217.94a67.44,67.44,0,0,0-8-2.43c-12.24-2.72-24.84,1.3-36.73,5.28L57.8,224.9c-3.37,1.13-6.89,2.27-10.39,1.79-.92,2.17-1.82,4.33-2.73,6.5.89.72,2.21-.06,2.78-1s.88-2.17,1.74-2.89a5.39,5.39,0,0,1,2.37-.87,124.25,124.25,0,0,0,16.17-4.57,3.16,3.16,0,0,1,1.93-.65c3.52-1.2,7-2.4,10.6-3.44,9.59-2.81,19.94-4.45,29.52-1.59,3.3,1,6.42,2.48,9.61,3.73a65.83,65.83,0,0,0,10.08,3c-1.63,2.59-3.83,5.46-6.86,5.38a477.31,477.31,0,0,0-78.72,4.17c1.31,1.37,3.49,1.21,5.37,1,21.8-2.75,43.81-3.11,65.76-3.45,3.34-.07,6.69-.13,10-.16.39.47.77,1,1.15,1.46a16.08,16.08,0,0,1,8.26-8.41Z"/><path d="M211,196.81q-13.53,9.08-27,18.18a49.55,49.55,0,0,0,33.32,4.24,40.61,40.61,0,0,0-8.09-11.07c-1.65-1.62-3.61-3.78-2.66-5.86a18.18,18.18,0,0,0,12.8,6.79,29.39,29.39,0,0,0,14.55-2.65,14.83,14.83,0,0,0,5.73-3.86,6.47,6.47,0,0,0,1.24-6.51c5.24,3.57,12.24,3.89,18.23,1.79s11-6.38,15-11.3,6.95-10.49,7.64-16.62-1.28-12.81-6-16.76-12.42-4.45-17.05-.34a4.61,4.61,0,0,1,3-3.9,13.54,13.54,0,0,1,5.1-.72,6.09,6.09,0,0,1-2.64-3.05c-1.47.77-2.95,1.57-4.43,2.37a19.25,19.25,0,0,1,5-5.48c-.86-1.84-.32-4-.15-6a16.23,16.23,0,0,0-12.39-16.63A11.39,11.39,0,0,1,263.54,124c2.12,3.08,2.54,7,2.89,10.68.15,1.66.31,3.31.47,5q7.78-5.17,15.36-10.62c2.54-1.84,6.48.78,6.57,3.93s-2.62,5.76-5.6,6.67-6.2.5-9.29.06c1.77-1.16,4-1.27,6.14-1.51s4.41-.72,5.79-2.34,1.14-4.68-.88-5.33c-1.45-.46-3,.46-4.12,1.45-2.28,1.9-4.25,4.2-6.7,5.9s-5.64,2.75-8.43,1.69a1.82,1.82,0,0,1-.09,2.17c.57.28,1.14.56,1.68.84l-2.26-.25c.48.55,1,1.08,1.45,1.6a2.33,2.33,0,0,0-1.68,2.54c5.22,1.66,10.67,3.44,14.43,7.4,4.12,4.32,5.54,10.74,4.69,16.63s-3.8,11.33-7.47,16a39.48,39.48,0,0,1-14.25,11.91A25.67,25.67,0,0,1,244,200.08a28.25,28.25,0,0,1-31,9.17,73.53,73.53,0,0,0,8.3,10.81,55.38,55.38,0,0,1-40.32-4.54,34.14,34.14,0,0,0-36.13,3.06c3.36-5.2,9.51-8.18,15.69-8.78s12.37.92,18.14,3.19c1.67.68,3.72,1.35,5.13.25a265.26,265.26,0,0,1,28.62-19.33c.69,1-.42,2.23-1.41,2.9"/></g></svg>