<svg xmlns="http://www.w3.org/2000/svg" viewBox="0 0 300 300"><defs><style>.\31 b8bcfc5-b418-4c4a-9fa8-c5d9823826df{isolation:isolate;}.\38 88e1a9b-cb7c-4a5b-907f-8a3869a2cd6b,.\39 d672ba1-becf-4af4-bc78-433bb964c934{mix-blend-mode:multiply;}.\30 0ee87ad-aad5-40e0-91f5-14c8891f1b0f{fill:#8b898a;}.\35 527c60a-d7ed-468f-a459-f061ad3c9307{fill:#4d4d4d;}.\38 88e1a9b-cb7c-4a5b-907f-8a3869a2cd6b,.f65df3be-f5d4-4e0a-a478-2c29e4213fca{fill:#e6e6e6;}.\30 7ea594d-bf0b-4145-8abc-b81ff2d8efe8{fill:#f2f2f2;opacity:0.9;}.\30 2e1cad7-5b33-4257-8cb7-ef8db8092e57{fill:#fff;}.a0be3f15-6a6a-44af-a7a4-72660af155d0{fill:#e8d1a1;}</style></defs><g class="1b8bcfc5-b418-4c4a-9fa8-c5d9823826df"><g id="e076a5c3-51ca-450f-b3b5-277eb90f3e46" data-name="Layer 1"><g class="9d672ba1-becf-4af4-bc78-433bb964c934"><path class="00ee87ad-aad5-40e0-91f5-14c8891f1b0f" d="M224.43,136.26c1,2.51.92,5.05,1.54,7.68a56,56,0,0,0,3,8.73c1.88,4.52,4.23,8.64,6.33,13.08a54,54,0,0,1,2,5.79c.84,2.5,2.57,4.66,3.29,7.18a37.54,37.54,0,0,0,3,7.32c1.89,3.57,4.53,6.62,6.32,10.19,1.91,3.82,5.52,7.17,8.71,9.84,2.53,2.12,4.75,4.38,7.45,6.33,1.53,1.1,3,2.68,4.51,3.67,1.37.89,3.79.85,4.37,2.63-1.38,2-4.27,3.64-6.27,5-2.22,1.53-3.94,3.39-6.46,4.34-3.63,1.38-7.38,3.38-11,4.52-4.7,1.46-9.3,2.28-13.92,4.08-2.49,1-4.23.8-6.77,1.06-2.21.22-3.93,1-6.24,1a27.11,27.11,0,0,0-6.23.7c-1.85.36-3.66,0-5.51.28a47.85,47.85,0,0,1-6.47.8c-2.3,0-4.28.85-6.52,1-4.64.24-9.47-.59-14.08,0-4,.54-9.63,2.05-13.6.69-.37-2.37,4.61-5.33,5.88-6.74,2.17-2.42,3.31-5.54,4.39-8.54s2.39-5.51,3.53-8.32c1.29-3.21,1.73-6.6,3.4-9.69.55-1,1.31-2,1.81-3,.73-1.5.47-2.71,1.06-4.17s1.42-1.57,1.71-3.08-.15-2.87.13-4.33c1.05-5.51.67-11.09.7-16.71a33.29,33.29,0,0,0-.89-6.5,10.32,10.32,0,0,0-1.3-3.55c-.68-1.35-.38-2.59-.7-4.08-.94-4.4-3.07-8.61-4.36-12.9-.17-.57-1.16-3-1-3.66.65-2.17,5.13-2.48,6.71-2.74,3-.49,5.78-1.22,8.7-1.75,3.86-.71,7.78-1.72,11.64-2.34,3.21-.51,7.29.76,10.18-1.08"/></g><g class="9d672ba1-becf-4af4-bc78-433bb964c934"><path class="5527c60a-d7ed-468f-a459-f061ad3c9307" d="M223,136.66c1.4,4.26,1.63,8.7,3.2,13a117.28,117.28,0,0,0,5.44,12c3.86,7.69,6.2,16,10,23.75,3.66,7.43,8.57,15.23,14.79,20.74,3.2,2.84,6.48,5.55,9.79,8.26a29.39,29.39,0,0,0,3.68,3c1.2.68,3,.84,3.83,2.1l.24-1.82c-5.5,6.56-15.15,10.9-23.1,13.5A131.45,131.45,0,0,1,225.69,237c-8.65,1-17.44,2.12-26.11,2.91-4.69.42-9.38-.5-14.08,0-4.44.51-8.73,1.89-13.2.74l1.1,1.45c.17-2.2,3.44-3.76,4.89-5.15a18.63,18.63,0,0,0,4-6.36c2.33-5.46,4.51-11,6.38-16.58,1.08-3.28,3-6,4.11-9.24.69-2,2-4.12,2.36-6.22,1.24-6.36.95-13.64.83-20.11-.09-5.34-1.67-10.34-2.95-15.46a100.23,100.23,0,0,0-3.26-9.69c-.91-2.53-3-5.75.42-7.23,1.91-.84,4.67-.8,6.68-1.21q5.1-1,10.19-2.09a51.43,51.43,0,0,1,10.69-1.33,14,14,0,0,0,6.5-1.23c1.74-.82.22-3.41-1.52-2.59-3.2,1.51-7.23.55-10.65,1.08s-6.65,1.38-10,2-6.82,1.41-10.25,2c-1.72.3-3.76.43-5.25,1.48-3.11,2.19-1.3,5.32-.29,8.27,2.09,6.09,3.93,12.13,5.68,18.26,2.15,7.55.81,15.82.29,23.47-.44,6.36-3.94,11.41-6,17.36-2.3,6.66-4.34,14.3-8,20.4-2.16,3.63-7.61,5.59-7.95,10.12a1.51,1.51,0,0,0,1.11,1.44c3.9,1,7.62.37,11.53-.22,5.29-.81,10.36-.2,15.66-.43,4.74-.21,9.44-1.31,14.17-1.74s9.56-.56,14.24-1.33c9.34-1.53,18.81-3.46,27.67-7,7.43-3,16-6.82,21.28-13.12a1.56,1.56,0,0,0,.24-1.82c-1.58-2.5-4.62-2.89-6.87-4.73q-4.29-3.5-8.46-7.13a71.61,71.61,0,0,1-16.4-21.51c-3.64-7.07-5.61-14.93-9.14-22a140.51,140.51,0,0,1-6.35-13.7c-1.58-4.26-1.81-8.71-3.21-13-.6-1.83-3.49-1.05-2.89.8Z"/></g><path class="f65df3be-f5d4-4e0a-a478-2c29e4213fca" d="M54,182.48c8.43,1.36,14.84.39,23.19-1.55,20.62-4.79,41.07-10,61.8-14.31s41.8-8.53,62.25-14.31a327.09,327.09,0,0,0,32.21-11.49c4.24-1.69,9.25-3.91,12.95-.32a12.13,12.13,0,0,1,3.45,10.21,9.69,9.69,0,0,1-3,5.38c-1.3,1.09-2.85,1-4.26,1.85a62.41,62.41,0,0,1-14.74,6.37A183.49,183.49,0,0,1,205,168.89c-6.41.89-12.25,3.29-18.57,4.38a120.64,120.64,0,0,0-13.35,3.1,125.93,125.93,0,0,1-15.22,3c-4.42.71-8.19,3-12.47,4.12-5.25,1.39-10.78,1.32-16.09,2.65a81.59,81.59,0,0,1-10.07,1.77c-3.53.44-6.89,1.58-10.46,2-5.57.71-11,2-16.58,2.76-3.73.5-7.2,1.65-10.86,2.3-4.94.87-9.78,1.33-14.64,2.67-4.57,1.25-8.91,1.23-13.64,1.14-2.48,0-3.3.24-3.65-2.51a15.42,15.42,0,0,1,.27-4.55c1.47-6.93,9.14-8.37,15.2-8.36"/><g class="9d672ba1-becf-4af4-bc78-433bb964c934"><path class="5527c60a-d7ed-468f-a459-f061ad3c9307" d="M53.62,183.93c13.37,1.91,26.05-2,39-5.09,14.33-3.42,28.65-6.89,43.06-10,28.86-6.18,58.12-11.32,85.83-21.75,5.78-2.17,11.67-5.41,17.73-6.72,5.59-1.21,9.55,3.68,9.3,9-.22,4.85-4.53,6.23-8.2,8.17-13,6.88-26.8,7.59-40.82,10.93-12.8,3.05-25.57,6.8-38.57,8.92-6.19,1-11.59,3.75-17.66,5.08-6.8,1.49-14.11,2.5-21,3.54-15.67,2.38-31.17,6-46.81,8.43-3.67.58-7.2,1.49-10.82,2.21a38.79,38.79,0,0,1-6.35.69c-1.28.05-5.25.69-6.3,0-3.81-2.57.91-9.19,3.32-10.54,2.88-1.61,6.39-1.82,9.61-1.87,1.93,0,1.94-3,0-3-4.56.06-9.72.64-13.3,3.79-3.05,2.67-5,8.44-3.32,12.33s8.38,2.45,11.68,2.23a65.12,65.12,0,0,0,9.89-1.79c4.54-1,9.18-1.41,13.72-2.37,15.91-3.35,32-5.78,47.94-8.9,4.15-.81,8.41-1,12.55-1.84,3.84-.82,7.28-2.62,11-3.75,7.28-2.2,15.18-3,22.6-4.91,7.75-2,15.65-3.75,23.46-5.53s15.83-2.56,23.65-4.49a101.52,101.52,0,0,0,21.31-8.41c4.19-2.12,6-6.88,5.2-11.39s-3.77-9-8.49-9.69c-6.56-.93-14.44,4.12-20.35,6.37-16.2,6.18-32.86,10.57-49.75,14.38-19.46,4.39-39.06,8.16-58.49,12.7-9.35,2.19-18.69,4.45-28,6.66-10.54,2.51-20.84,5.32-31.75,3.76-1.89-.27-2.71,2.62-.8,2.89Z"/></g><path class="888e1a9b-cb7c-4a5b-907f-8a3869a2cd6b" d="M193,194.67l.73.22c12.86-3,25.25-9.35,37.17-14.23,1.15-.47,2.3-.93,3.45-1.37a11.18,11.18,0,0,0,1.81-2.34,12.67,12.67,0,0,0,1.25-9.54c-1.87-5.76-8.82-11.29-15.24-8.65L193,170.67l-.71.29C194,178.78,195.78,187.26,193,194.67Z"/><path class="888e1a9b-cb7c-4a5b-907f-8a3869a2cd6b" d="M246.37,153c-.25-3-4.82-5.6-10.93-4.82a67.18,67.18,0,0,0-17.59,4.73c-4.3,1.8-8.2,3.89-12.5,5.69-1.08.45-2.18.88-3.3,1.3-.56.2-1.13.39-1.69.6l-.29.11-.12,0c-2.66.78-5.3,1.56-8,2.25-5.66,1.44-11.42,2.7-17.16,4q-17.93,4-36,7.51-9.18,1.8-18.39,3.49l-8.7,1.57-4.1.72-2.57.44-1.33.23-1.92.33-2.57.43L94,182.4l-10.29,1.65q-10.56,1.65-21.15,3.15c-5.68.81-11.21,3.62-10.93,7,.25,3,4.83,5.7,10.93,4.83q37.86-5.38,75.34-12.55Q156,183,174,179.08c11.59-2.51,23.4-4.93,34.37-8.5a135.71,135.71,0,0,0,16-6.55c2.27-1.07,4.57-2.11,7-3l.58-.25c.42-.12.88-.22,1.24-.32.62-.16,1.24-.29,1.85-.44l.38,0C241.14,159.22,246.65,156.26,246.37,153Z"/><path class="07ea594d-bf0b-4145-8abc-b81ff2d8efe8" d="M207.18,241.34a19.17,19.17,0,0,1,8.08-3.48c2.35-.41,4.75-.46,7.11-.84a58.47,58.47,0,0,1,7.8-1.05,24.07,24.07,0,0,1,7.54,1c.35.11.74.24,1.12.38l1.69-.38c.2-.49.37-.93.47-1.11a9.41,9.41,0,0,1,3.09-3.73c3.48-2.41,8.44-2.09,12.48-1.91.64,0,1.28.1,1.92.19,2.88-1.61,5.66-3.41,8.49-5.17,2.08-1.29,4.33-2.62,6.43-4.14.12-.33.22-.66.32-1-1.75-.18-3.49-.43-5.2-.74a5.05,5.05,0,0,1-2.32.65,4.51,4.51,0,0,1-3.21-1.33,3.42,3.42,0,0,1-.63-.79,50.43,50.43,0,0,1-8-3.13,63.31,63.31,0,0,1-10.78-3.46l-3.42,1.21c-6.22,2.15-12.5,4.17-18.89,5.78q-4.5,1.13-9.06,1.95c-1.67.3-3.36.55-5,.81H207c-.76.08-1.52.18-2.28.27-6.23.69-12.49,1.09-18.75,1.48-2.19,7.18-7,12.56-12.33,17.64a14.73,14.73,0,0,0,.86,1.56C185.39,242.43,196.28,241.09,207.18,241.34Z"/><path class="02e1cad7-5b33-4257-8cb7-ef8db8092e57" d="M190.45,92.07c-1.4-5.31-5.84-7.26-10.82-7.89a97,97,0,0,0-12-.76,107.92,107.92,0,0,0-24.75,2.8c-1.49.35-3.06.7-4.63,1.11-.22-.42-.44-.84-.65-1.27a10.83,10.83,0,0,1-.73-2.22c-.27-1-.55-2-.9-3a6.92,6.92,0,0,0,2-.75c0,.12,0,.24.06.36a6.2,6.2,0,0,0,7.32,4.64c4.33-1,8.63-3,10.94-7a10.72,10.72,0,0,0-2-13.62c-3.14-2.66-7.5-3.21-11.43-2.31a22.35,22.35,0,0,0-4.46,1.65,26.5,26.5,0,0,0-5.3-6.74c-3.12-2.9-6.64-4.25-10.93-3.36a47.56,47.56,0,0,0-10.62,3.92A5.26,5.26,0,0,0,109,60a2.4,2.4,0,0,1-1.53-.23c.26.11-1.07-.6-1.36-.76-.58-.32-1.15-.64-1.74-.93a29.58,29.58,0,0,0-4.86-2,30.78,30.78,0,0,0-17.71.24A31.1,31.1,0,0,0,66.26,67.13C62.05,72.68,61,82.86,69.21,85.51a12,12,0,0,0,4.93.36,6.56,6.56,0,0,0,5.19,1.24,61.58,61.58,0,0,0,9.36-2.43,14.48,14.48,0,0,0-.32,7c1.54,6.73,8.55,10.26,15,9.73a29.45,29.45,0,0,0,12.33-4.08c.71.16,1.42.31,2.14.43-4,4.85-7.86,9.85-9.77,16a29.72,29.72,0,0,0-1.19,5.89c-6.85,3.76-11.9,9.61-16.5,15.8-4.28,5.78-8.82,12.18-6.29,19.72,2.43,7.21,9.27,12,16.69,12.88s14.58-2.47,20.72-6.48c4.57,1.48,9.56.29,14.28-1.87,5.71-2.62,12-7.07,12.1-14a12,12,0,0,0-4.68-9.65,6.07,6.07,0,0,0,1.2-.09A32.53,32.53,0,0,0,157.3,131l1.86-.67a62,62,0,0,0,7.48-3,12.22,12.22,0,0,0,5.2-5.06l1-.79.74-.56a50.33,50.33,0,0,0,10.26-7.06,20.53,20.53,0,0,0,6-9.77C190.79,100.47,191.44,95.8,190.45,92.07Zm-54.1,53.51,0-.11.09-.11C136.85,145,136.65,145.54,136.35,145.58Zm-4-11.57c0-.27,0-.54,0-.81a9.86,9.86,0,0,0,1.86.23h.49l.06.09A11.14,11.14,0,0,0,132.33,134Z"/><path class="a0be3f15-6a6a-44af-a7a4-72660af155d0" d="M131,145.06c-1,.45-2.08,1-3.14,1.49a16.21,16.21,0,0,0,2.59-1.17l.57-.27,0,0Z"/><path class="a0be3f15-6a6a-44af-a7a4-72660af155d0" d="M189.06,86.88c-6.24-8.94-17.23-4.51-26.11-3.73a2.43,2.43,0,0,1-2.35-1.22c-3.84.78-7.72,1.52-11.5,2.56-8.81,2.44-14.55,8.23-20.08,15a18.86,18.86,0,0,0-12.87.24,2.46,2.46,0,0,1,0,.71c-1,6.06-7,9.51-11.16,13.47l-.23.41a19.46,19.46,0,0,0-2.38,11.31,21.44,21.44,0,0,0,5.25,15.12,18.94,18.94,0,0,0,2.2,2.1,41.37,41.37,0,0,0,9.13,1.1,15.07,15.07,0,0,0,7.3-1.72,24,24,0,0,1,7.38-2.71,2.82,2.82,0,0,1,.58,0,6,6,0,0,0-2.6-4.82,2.17,2.17,0,0,1-.81.38c-4,1-8.43,1.12-11.87-1.41a11.45,11.45,0,0,1-4.65-9.75,24.18,24.18,0,0,1,3-9.88c1.64-2.75,4.59-3.59,6.61-.74a1.73,1.73,0,0,1,.15,2,1.86,1.86,0,0,0,.41-.1c.33,0,.89.28.79.2h0c0,.56.12,1.57.17,2.2a25.06,25.06,0,0,0,1.16,6.13,28.37,28.37,0,0,0,3.36,6.86,2.23,2.23,0,0,1,2.45,3,15.91,15.91,0,0,0,1.21,1.11c3.73,3.12,7.84,2.92,12.35,2,8.47-1.7,16.45-4.09,23.48-9.25,6-4.41,10.82-10.25,15.53-16,4.41-5.36,8.09-11.61,7.44-18.69A36.25,36.25,0,0,0,189.06,86.88Z"/><path class="f65df3be-f5d4-4e0a-a478-2c29e4213fca" d="M131.85,143.76c-2.34-2.3-5.88-4.6-9.31-4.32-3.07.24-6.35.6-9.58.63-.2-.36-.41-.72-.64-1.07-2-3-4.32-5.44-7.89-6.57a13.9,13.9,0,0,0-10.54,1c-5.88,3.48-9.79,12.05-5.61,18.43,1.13,1.73,1.81,3.7,2.93,5.45,2.69,4.19,6.3,7.61,11.24,9,5.94,1.65,12.71.9,18.77.41,3.82-.31,7-.92,9.94-3.64a13.85,13.85,0,0,0,4.33-9.31C135.5,150.12,134.47,146.34,131.85,143.76Z"/><path d="M175,74.57c-1-2.42-2-5-1.61-7.59s2.87-5,5.42-4.43c2.37.59,3.48,3.27,3.93,5.68.46,2.69-.34,6.36-3,6.4a8.1,8.1,0,0,0-2.23-9.73,6,6,0,0,0-.05,6c1.69,2.74-1.53,6.21-4.72,6.51s-6.3-1.1-9.47-1.32-7.12,1.64-7,4.83c4.25-.35,8.55-.67,12.8-1,5.21-.43,10.76-.79,15.5,1.45,8.24,4,11.07,15.1,8.22,23.79s-10.05,15.33-17.52,20.59a115.66,115.66,0,0,1-31.51,15.73,14.31,14.31,0,0,1-11.36,24A22.93,22.93,0,0,1,135.9,180a26,26,0,0,1-6.26-14.41c-1.84-1.54-4.21,1.18-6.43,2.05-3.87,1.42-8.72-3-12-.42a51.58,51.58,0,0,0,3.89,13.17c-1.66,1.12-3.94-.37-4.73-2.19s-.65-4-1.27-5.86-2.46-3.73-4.37-3.11c-3.69,1.2-7.8.07-11-2.08A47.28,47.28,0,0,1,92.6,178.5c-2.56-.63-2.92-4.09-2.52-6.69s.47-6-1.93-7.1a18.37,18.37,0,0,1-8.49-8,12.12,12.12,0,0,1,.08-11.42,74.24,74.24,0,0,1,14.69-17.91c1.39-1.28,3.06-2.54,4.91-2.36a36,36,0,0,0-3.12,6.2,2.55,2.55,0,0,1,2,2.81c-3.09-.7-6.31.67-8.63,2.78a28.57,28.57,0,0,0-5.45,7.64c-1.13,2-2.29,4.33-1.56,6.54a3.21,3.21,0,0,1,4.37-.24,6.76,6.76,0,0,0-4.5,1.76c4,10.46,17.73,15.93,27.78,11a15.18,15.18,0,0,1,3.54-1.45c3.58-.62,7.22,2.52,10.63,1.34a3.48,3.48,0,0,0-4.29-3.37,22.69,22.69,0,0,0-.78-7.83c2.7-.42,4.08,3,5.65,5.3a10,10,0,0,0,11.76,3,11.94,11.94,0,0,0,6.85-10.33c.2-3.86-1.71-8-5.3-9.51-4.88-2-10.16,1.58-14.23,5-3.09-1.92-7.14.11-10.66-.63a10.81,10.81,0,0,1-4.15-2.1,21.63,21.63,0,0,1,.49-34.73c2-1.43,5.4-2.28,6.59-.08-4.86,3-9.19,7.37-11.14,12.78S104.11,133,108.31,137c4.51,4.34,11.61,4.65,17.67,3.06a3.43,3.43,0,0,0,2.11-1.17c.5-.67.23-1.87-.55-2A13.65,13.65,0,0,1,115.09,134a13.46,13.46,0,0,1-4.45-11.94c.77-5.48,4.8-9.92,9.08-13.44a4.21,4.21,0,0,1,1.26-.8c1.77-.62,3.5,1.08,4.39,2.74,2.52,4.6,3.12,10,4.79,14.93s5.21,9.91,10.37,10.75c2.6.39,5.23-.34,7.71-1.12a85,85,0,0,0,31-18.41c3.69-3.44,7.16-7.28,9-12s2-10.26-.74-14.49-7.72-6.41-12.67-6.88-9.85.45-14.76,1.41L142.47,88.3c-3.3.64-7.17,1.84-8.07,5.07-1.8,6.5-9.44,10.82-16,8.93-4.18-1.2-9.17-4.36-12.29-1.29-3.54,3.54-9.69,3.48-13.85.69S85.85,93.94,85.16,89A14.58,14.58,0,0,1,63.28,75.69c.36-7.76,6.67-13.83,12.88-18.48,5.5-4.12,12.7-7.92,18.86-4.93,2.13,1,3.88,2.76,5.94,3.88s4.91,1.55,6.65,0A21.91,21.91,0,0,1,129,51.54c4.28,1.42,8.56,5.58,6.95,9.8-2.63-4.25-7.69-6.7-12.71-6.87a23.49,23.49,0,0,0-14,4.68c-1.53,1-3.1,2.33-5,2.6s-4.1-1.08-4-2.92c-.93.44-1.8.91-2.71,1.4-1.5-4.18-6.79-6-11.12-4.95s-7.84,4-11.07,7c-3.89,3.62-7.91,7.87-8.25,13.21-.38,6.41,6,12.37,12.4,11.5,5.38-.7,10.34-5.35,15.5-3.71-.94-5.24,1.61-10.65,5.49-14.31s8.87-5.86,13.85-7.72a26.09,26.09,0,0,1,7.92-2c4.6-.25,9,1.65,13.21,3.5a11.18,11.18,0,0,1,4.47,2.9c2,2.5,1.36,6.07.71,9.2-.79,3.71-1.6,7.38-2.4,11l8-2.5a19.24,19.24,0,0,0,6.36-3,9.3,9.3,0,0,0-5.33-16.48c-2.21-.11-5,.24-6-1.72a11.74,11.74,0,0,1,12.3-.11A11.62,11.62,0,0,1,159,73.19a72.07,72.07,0,0,0,16,1.38m-67.22,17.7a27.15,27.15,0,0,0,13.42,6.3,7.53,7.53,0,0,0,4.75-.37,8.56,8.56,0,0,0,2.11-1.83,38.68,38.68,0,0,0,9.72-22.61c.17-2.55-.07-5.47-2.2-6.9A22,22,0,0,0,121,63.62a38,38,0,0,0-14.37,5,10.83,10.83,0,0,0-4.59,4c-1.42,2.59-.74,5.84-.05,8.71a25.25,25.25,0,0,0,3,7.8,16.3,16.3,0,0,0,2.85,3.13m16.32,41.19c1.22-1.81,4.37,1.26,6.13,0a78.14,78.14,0,0,1-6.54-18.17c-.39-1.73-1.24-3.86-3-3.75a36.06,36.06,0,0,1-5.51,7,3.46,3.46,0,0,0-.92,1.93,12.57,12.57,0,0,0,6.22,13.21c1.17.62,2.81.91,3.6-.16M106.27,95.35c-3,.44-4.52-4.61-7.52-4.26a7.49,7.49,0,0,1-3.24-3.88c-1.43-1.4-4.15-.65-5.2,1.07a6.67,6.67,0,0,0,0,5.91c1.39,3.27,4.92,6,8.34,5,.74-.21,1.89-.28,1.87.46.26-.29.47-.61.72-1a6,6,0,0,0,4.1.06c1.26-.61,2-2.49.91-3.42m-8.48-9.59c.77,1.37,1.6,2.76,2.38,4.17a14.12,14.12,0,0,0-3-10.65c-1.68,1.64-.58,4.46.57,6.48"/><path d="M118,121.2a4.2,4.2,0,0,0,2-1.66c.2.28.41.61.61.89a5.49,5.49,0,0,1-3.5,3.67,3.76,3.76,0,0,1,1-2.69"/><path d="M145.86,79.74l-3.11.69a4.87,4.87,0,0,1,.31-3.83,5.65,5.65,0,0,1,4,1.24A4.77,4.77,0,0,1,146,79.76"/><path d="M124.2,124.41a2.77,2.77,0,0,1,.6,2.71c-1.57,1.88-3.57,4-6,3.76a.89.89,0,0,1-.15-1.5,24.05,24.05,0,0,1,5.54-5"/><path d="M121.64,83.16a3.57,3.57,0,0,0,4-3.94,1.93,1.93,0,0,1,1.38,1,4.91,4.91,0,1,1-9,3c-.07-1.33.91-3,2.27-2.74a2,2,0,0,0,1.26,2.7"/><path d="M91.17,126.34a12,12,0,0,0-1.18.31c-1.75-.54-.26-3.43-1.37-4.86s-3.34,0-3.57,1.73.64,3.26,1,4.9-.26,3.82-1.93,4.06a21.46,21.46,0,0,1-2.44-5.88,7.47,7.47,0,0,1,1.25-6c1.41-1.61,4-2.32,5.74-1.19a2.68,2.68,0,0,0,2.1,1.48c-.67.76-.08,1.93.44,2.79s.87,2.22,0,2.71"/><path d="M63.83,103a7.65,7.65,0,0,1,2.6,2l7.45-2.65a11.75,11.75,0,0,0,4-2c2.79-2.3,3.6-7,7.13-7.84A14.94,14.94,0,0,1,75.63,106a31.86,31.86,0,0,0-4.8,1.87,6.15,6.15,0,0,1-7.89-9.26c1.4-1.61,4.23-2.3,5.7-.72a7.63,7.63,0,0,1,1,4.06A4,4,0,0,0,63.83,103"/></g></g></svg>