<svg id="c3b0dbdd-f32d-453a-b239-2624487110d7" data-name="Layer 1" xmlns="http://www.w3.org/2000/svg" viewBox="0 0 300 300"><defs><style>.\33 0554851-7df4-4427-908c-7c99a2baba53{fill:#fff;}.\37 056fc86-9454-459d-acf7-e909cb0c951e{fill:#52df84;}.\33 71413f5-5729-4f6d-84fa-508c11c6ee18{fill:#e6e6e6;}.d6e8ea57-9e39-4bc6-807c-5d0ded6c0477{fill:#8b898a;}</style></defs><path class="30554851-7df4-4427-908c-7c99a2baba53" d="M170.93,126.66c-.65-1.62-1.28-3.24-1.8-4.9-.21-.71-.41-1.41-.58-2.13-.1-.44-.2-.89-.28-1.34,0-.11,0-.25,0-.43-.29-3.35-2.35-6.24-5.88-6.66a7.34,7.34,0,0,0-5.18,1.39,10.81,10.81,0,0,0,1-4.22c.12-3.75-2-7.13-3.31-10.53a89.73,89.73,0,0,1-5.23-41.48c.29-3.16-2.44-5.93-5.39-6.62a59.82,59.82,0,0,0-3.81-10.1c-2-4.22-7.13-4-10.26-1.53a34.49,34.49,0,0,0-5.66-7.43,7.33,7.33,0,0,0-7.75-1.42,27.92,27.92,0,0,0-14.24-9.34,6.92,6.92,0,0,0-8.61,6.51h-.19c-2.73,0-5.74,1.09-8.4,1.66a6.92,6.92,0,0,0-4.72,4.57,25,25,0,0,0-8.86,4.83,16.18,16.18,0,0,0-5.42,9.39c-.28,1.67,0,3.89-.4,5.48a.91.91,0,0,0-.1.16l-.34.36-.4.35-.55.37c-3.18,2-6.61,3.44-9.39,6.12-3.61,3.47-5.68,8.49-4.27,13.46a16.79,16.79,0,0,0,3.64,6c.76.93.89.78,1.13,1.56-.19-.49-.17-.35.08.43,0-.63,0-.51,0,.34,0,2.83-1.59,5.83-3.38,8.94-2.78,4.81,1.9,12.06,7.66,10a11,11,0,0,1,8.66.39,29.87,29.87,0,0,1,8.55,6.42c5.49,5.42,10.72,11.13,16,16.75a45,45,0,0,0-6.44,6.64,31.47,31.47,0,0,0-6.4,14.59,23.16,23.16,0,0,0,.31,13.73c.14.41.3.81.46,1.21-1.43.43-2.88.81-4.3,1.28A36.79,36.79,0,0,0,59,175c-9.87,13.37-9.8,31.24-7.18,46.92A96.66,96.66,0,0,0,59,245.81c3.24,7.1,8.66,13.28,16.38,15.47a41.91,41.91,0,0,0,12.08,1.08c3.58-.06,6.8-.17,9.72.75,1.7.54,3.38,1.5,5.17,2a18.78,18.78,0,0,0,8.47.19c4.13-.69,8.23-1.64,12.33-2.47s8.56-1.52,11.5-4.91,3.73-7.63,4.79-11.73q3.25-12.51,5.35-25.27.48-3,.9-5.92c.11-.76.21-1.51.31-2.27,1.17.27,2.35.48,3.52.64a13.28,13.28,0,0,0,15-14.61c-.87-9.32-9.26-14.61-17.21-17.68-3.55-1.37-7.24-2.22-10.89-3.25-.85-.24-1.71-.49-2.55-.78a7.25,7.25,0,0,1-1.52-.58c-.66-.34-1.31-.69-1.94-1.09a4.28,4.28,0,0,1-1.37-1.26c.73.85-.1-.49-.26-.62l-.09-.25c-.05-.23-.11-.45-.16-.68a1.61,1.61,0,0,0,0-.29c0-.08,0-.13,0-.17a1,1,0,0,1,0-.17l.4-.1c-.3.08-.79.23.54-.11.4-.1.8-.23,1.2-.35l6.43-1.85c7.66-2.21,15.58-4,22.92-7.17,6.55-2.81,12.35-7.59,14.35-14.69C176.44,140.37,173.62,133.37,170.93,126.66ZM66.7,226.8c-.21-.82-.41-1.63-.6-2.45.23.44.47.87.72,1.31C66.77,226,66.74,226.42,66.7,226.8Zm84.13-27.47c0,.06.06.16.13.32l.09.18v.08a.19.19,0,0,1,0,.07l-.06,0-.32-.08Zm4.07-83.27a4.79,4.79,0,0,0-.14.57v0l-.15.11a.75.75,0,0,1,0-.16v-.11c.07-.11.1-.16.08-.14l.28-.36S154.91,116,154.9,116.06Z"/><path class="30554851-7df4-4427-908c-7c99a2baba53" d="M270.09,160.42q-11.11-.63-22.21-.2a40.67,40.67,0,0,0,1.66-6.93,39.67,39.67,0,0,1,3.2-10.89c2.77-5.76,5.78-11.41,8.84-17a7.31,7.31,0,0,0,4.2-6.36,7.67,7.67,0,0,0-.1-1.2,6.92,6.92,0,0,0-2.5-9.17,7,7,0,0,0-8.27,1.09,7.33,7.33,0,0,0-3.61,1.88,278,278,0,0,0-37.3,0,7.5,7.5,0,0,0-5.43,2.8,6.93,6.93,0,0,0-7.35,4c-.43.25-.86.51-1.27.79a14.48,14.48,0,0,0-4.71,4.57,15.35,15.35,0,0,0-1.88,8.64A7.28,7.28,0,0,0,193,140a6.77,6.77,0,0,0,1.65,1.89c1,6,2.19,12.05,3.28,18.07q-8.07,8.67-16.13,17.33a7.19,7.19,0,0,0-1.92,5c-3.29.32-6.44,3.28-6.21,6.76q1,15.33,2,30.65.5,7.65,1,15.32c.29,4.42.52,9,1.77,13.24a21.29,21.29,0,0,0,7.28,11.19c3.87,3,8.59,4.08,13.4,4.22,4.52.14,9.09-.51,13.58-.9l15.36-1.34,35-3a8.58,8.58,0,0,0,3-.84,6.4,6.4,0,0,0,1.63.22A6.89,6.89,0,0,0,274.5,251L276,170.4a6.75,6.75,0,0,0,.84-3.19A6.91,6.91,0,0,0,270.09,160.42Zm-60.28-21.53-.5-.78.62-.49Z"/><path class="7056fc86-9454-459d-acf7-e909cb0c951e" d="M174.77,128c-4.65-8.38-14.14-11.09-23-11.87a56.4,56.4,0,0,0-13.92.45c-4.87.78-8.71,3.09-13,5.25a4.46,4.46,0,0,1-1.69.3c-1.26,0-2.5-.15-3.75-.22a23.94,23.94,0,0,0-8.28,1c-2.12.65-4.17,1.52-6.3,2.14-2.25-2.54-6.17-3.57-9.23-.53-4.42-.41-7.77,3.24-9.9,7.42a1.34,1.34,0,0,1-.06.12,13,13,0,0,0-2.78,5.38,12.69,12.69,0,0,0-.25,1.37,35.48,35.48,0,0,0-1.48,5,19.7,19.7,0,0,0,.26,10.08c0,.24,0,.48-.08.73a4.7,4.7,0,0,0,.34,2.32,15.36,15.36,0,0,0,2.46,9c2.57,3.87,6.49,6.6,10.41,9,4.48,2.72,9.43,4.43,14.74,4,4.89-.39,12.91-1.35,15.62-6a7.68,7.68,0,0,0,.86-2.07c0-.07,0-.31,0-.51a6,6,0,0,1,1.75-.44c.61-.11,2.24-.23,3.2-.35a87.26,87.26,0,0,0,13.87-2.74,81.89,81.89,0,0,0,24.87-12c4.57-3.29,8.47-6.74,8.8-12.75A27.76,27.76,0,0,0,174.77,128Zm-68,45.26c-4.43.83-9.11.05-12.33-3.34s-3.89-8-2.91-12.4A2.35,2.35,0,0,1,93,156c.83-2,4.15-2.5,4.52.07.73,5.1,5.74,10.12,9.89,12.81C109,169.9,109,172.88,106.81,173.28Z"/><path class="371413f5-5729-4f6d-84fa-508c11c6ee18" d="M280.09,235.77Q279,221,277.91,206.32l-2.43-32.83c-.59-7.92-6.19-14.45-14.55-14.55l-12.18-.16a34.51,34.51,0,0,0,1.43-7.06,25.59,25.59,0,0,0-3-14h0c3.45-3.58,5.22-8.67,3.58-13.73-2.33-7.21-10.15-12.7-17.89-10.16-9.53,3.11-17.59,9.8-18.26,20.45A20.57,20.57,0,0,0,218,146.62c.83,1.26,1.87,2.53,2.78,3.69l.2.28-.21.38,0,.05a20.16,20.16,0,0,0-1.86,1.71A70.5,70.5,0,0,1,208,158.12l-26.39,11.37c-3.11,1.33-5.83,5.59-6.69,8.69a14.88,14.88,0,0,0,1.47,11.21,18,18,0,0,0,3.52,4,93,93,0,0,0-4.16,24.65c-.35,9.74,2.39,19.4,1.63,29.09-.5,3.59-.31,7,1.62,10.25a14.79,14.79,0,0,0,8.69,6.69,16.94,16.94,0,0,0,11-1.44,16.42,16.42,0,0,0,7,2l28.89,1.78,14.92.93c4.51.27,9.22,1,13.73.75,10.12-.55,17.91-8,17.88-18.33C281.09,245.12,280.43,240.4,280.09,235.77ZM250,238.27l-14.92-.92-10.21-.63c1.16-8.17,2-16.38,2.54-24.61.45-7.55,0-15.29.67-22.84.1-.52.22-1.05.35-1.57,4.69-.27,9.47.06,14.14.12l4.91.05,1.83,24.72q.72,9.66,1.43,19.31l.48,6.46Z"/><path class="371413f5-5729-4f6d-84fa-508c11c6ee18" d="M150.51,64.47a51.16,51.16,0,0,0-2.67-12.61c-1.63-4.39-4-7.58-8.43-9.43a13.48,13.48,0,0,0-6.71-1.08c-1.32-.9-2.6-1.87-4-2.65a27.11,27.11,0,0,0-12.42-3.53,18.21,18.21,0,0,0-5.86.81,50.94,50.94,0,0,0-12.15-9,14.56,14.56,0,0,0-20.52,6.89,12.05,12.05,0,0,0-4.54,4.8,32,32,0,0,0-2,5,12,12,0,0,0-5.25,3.38c-4,4.6-8,9.28-10.34,15-1.94,4.58-2.46,9.23-3,14,0,0,0,.06,0,.1a14,14,0,0,0-3.65,11.61c.82,6.07,4.87,10,10.42,12.09l11.31,4.33a14.12,14.12,0,0,0,4.24,5.27A14.57,14.57,0,0,0,91,110.62c6.26-3.77,11.89-9.43,14.8-16.2A27.3,27.3,0,0,0,107.35,90c.79-.44,1.61-.85,2.43-1.24a63.32,63.32,0,0,1,11.48-3c7.07-.63,15.19.1,21.16-3.89A18.48,18.48,0,0,0,150.51,64.47Z"/><path class="d6e8ea57-9e39-4bc6-807c-5d0ded6c0477" d="M266.68,203.66c-1.39-4.18-2.61-8.47-4.2-12.58-2.1-5.42-7.5-4.46-12.27-4.36l-29.06.57a4.4,4.4,0,0,0-4.4,4,4.27,4.27,0,0,0-1.57,3.4,96.2,96.2,0,0,1-2.09,18.61c-.81,3.76,2.68,6.12,5.55,5.71l-.06.42-2.75.14c-5.9.3-5.94,9.51,0,9.22l6.31-.34a5.36,5.36,0,0,0,1.13-.06q12.09-.68,24.18-1.59a4.84,4.84,0,0,0,5.42,2.4c2.6-.71,3.62-3.2,3.21-5.66q-2.26-13.82-4.55-27.62h.62c.65,0,1.44-.12,2.2-.15l.3.9c.33,1,.67,2,1,3,.71,2.15,1.43,4.3,2.14,6.46C259.65,211.71,268.55,209.31,266.68,203.66Z"/><path class="d6e8ea57-9e39-4bc6-807c-5d0ded6c0477" d="M189.05,216a151.66,151.66,0,0,1-.53-24.76c.35-5.92-8.86-5.9-9.22,0a152.79,152.79,0,0,0,.54,24.76c.25,2.47,1.93,4.61,4.61,4.61C186.74,220.65,189.31,218.53,189.05,216Z"/><g id="5ec4d6c5-5295-4a2a-b671-7e40db01425a" data-name="pdf24_8"><path d="M85.94,133.72c-5.22,10.15-6,23-.14,32.76s19.1,15.13,29.48,10.45c5.87-2.67,10.31-8,16.43-10.15a41.79,41.79,0,0,1,8.43-1.47c9.8-1.05,19.91-3.38,27.32-9.87s11-18.16,5.81-26.53c-3.11-5-8.74-8-14.45-9.67A48.63,48.63,0,0,0,122.66,123c4.23-3.11,8-7,10.07-11.82s2.12-10.69-.75-15.06c-3.07-4.68-9-6.9-14.58-6.59-8.64.51-16.81,7.34-17.76,16s6.52,17.49,15.16,17a14,14,0,0,1-15.3-.17c1.3,0,2.6,0,3.86,0-8.68-8.29-7.69-24.48,2-31.62s25.41-3.35,30.81,7.41a15.57,15.57,0,0,1,21.89,18.14c3.52,1.33,7,2.63,10.55,4,.89-4.82-4.81-9.43-9.32-7.58,1-3.11,5.53-3.86,8.23-2s3.76,5.33,4,8.61c.2,3.07,3.07,5.43,6.08,6.11s6.11,0,9.15-.58a20.91,20.91,0,0,1-2.8-8.12,9,9,0,0,1,1-6.15c2.84-4.07,10.18-1.95,11.62,2.8s-1.88,9.87-6.29,12.16-9.56,2.35-14.51,2.15c4.71,7.1,3.34,17-1.57,24s-12.71,11.37-20.7,14.34-16.39,4.75-24.39,7.72c3.18,1,4.75,5.12,3.39,8.16a7.57,7.57,0,0,1-8.37,3.86c-.21,3,5.77,3,5.84,6,0,1.4-1.4,2.36-2.63,3a89.87,89.87,0,0,1-21.55,7.72,50.79,50.79,0,0,1,1.12,18.17c-1.36,11.68-2.76,23.39-4.13,35.07a12.65,12.65,0,0,0,.21,5.91c.71,1.88,2.63,3.45,4.57,3,2.19-.45,4.34,1.47,4.92,3.62s.1,4.44-.41,6.62c-.34,1.44-1.13,3.21-2.59,3.08.51-2.63,1-5.4.17-7.93s-3.35-4.78-6-4.23a13.69,13.69,0,0,1-1.22,4.64,110.88,110.88,0,0,1-3.22-13.35c-.88,1.23-1.81,2.42-2.69,3.65-2.29,1.4-4.58,2.8-6.83,4.2a42.07,42.07,0,0,0,1.84,12.37c-2.66.48-3.72-3.28-3.62-6s-1-6.45-3.62-5.91A132.88,132.88,0,0,1,48,267.84a187.58,187.58,0,0,1,34.67-3c-11.07-5.3-23.94-4.34-36.17-3.28a31.54,31.54,0,0,1,19.19-2.67A8.93,8.93,0,0,1,62,248.27c-3.79-.65-6.22-4.47-7.38-8.16S53,232.42,50.8,229.25c-.34-5.06-.72-10.11-1.06-15.13-.51-7-1-14.07.1-21s3.89-13.8,9-18.51c5.88-5.36,14-7.34,21.72-9.15a41.74,41.74,0,0,1,5.33-36.86,9.34,9.34,0,0,1,4-3.65c1.71-.68,4-.27,4.82,1.33-4,.14-7,3.83-8.78,7.41M73,259.06l9.09,2.36a17.45,17.45,0,0,0,5.77.82c3.41-.24,6.35-2.46,8.54-5.05a24.38,24.38,0,0,0,5.74-16.12,66.18,66.18,0,0,1,2.18-18.69c1.5-5.63.31-11.57-.92-17.28a12.42,12.42,0,0,0-1.06-3.31A11.16,11.16,0,0,0,98.2,198a50.06,50.06,0,0,0-12.4-5.33c.79-.44,1.61-.89,2.4-1.37.23-1.4-1.71-1.94-3.11-2.11a15.11,15.11,0,0,1-8.75-4.2,54.14,54.14,0,0,0,10.08-2.63l-7.1-2.6C77,178.94,74.53,178,73,176s-1.36-5.36.86-6.46A28.3,28.3,0,0,0,54.18,187c-2.15,5.8-2.29,12.12-2.19,18.3.14,7.07.62,14.11,1.4,21.11A6.1,6.1,0,0,0,54.55,230c1.1,1.2,2.91,1.33,4.55,1.3a41.63,41.63,0,0,0,5.43-.55,163,163,0,0,0-.24-37.6c-.41-3.62-1.13-7.55-3.83-10a2.46,2.46,0,0,1,3.18.51,7.16,7.16,0,0,1,1.47,3.22c1.06,4.06,2.15,8.16,3.24,12.26a26.6,26.6,0,0,1,1.16,6.35,46.7,46.7,0,0,1-.92,7.24A35.56,35.56,0,0,0,69,226c.3,1.5,1,3.24,2.56,3.52,2.76.47,3.51,4,3.65,6.86s.89,6.35,3.66,6.83l-1.54,4.95a27,27,0,0,1,15.54,2.91c-1.2,1.5-3.55.82-5.36.2a29.3,29.3,0,0,0-17.29-.55c-.64.18-1-.85-.61-1.36a3.21,3.21,0,0,1,1.74-.82,7,7,0,0,0,4.37-3.45c-1.47-3.89-2.9-7.82-4.37-11.71-.17-.41-.48-.93-.89-.76a22.91,22.91,0,0,1-15.13.65c-.78,7.24,5.4,14.48,12.64,14.83-3-.21-4.44,4.2-2.8,6.69S70,258.31,73,259.06M96,178.87c2.28,5.26,4.57,10.49,6.89,15.75a20.91,20.91,0,0,1-8.64-16.16A3.4,3.4,0,0,0,93,176.35c-3.42-3.32-6.87-6.66-10.28-10a22.75,22.75,0,0,0-7.14,5.7,2.38,2.38,0,0,0-.75,2.05,2.46,2.46,0,0,0,1.33,1.3c4.51,2.63,9,5.23,13.56,7.85-2.94.62-5.88,1.27-8.81,1.92,0,.89,1.06,1.3,1.91,1.53a44.29,44.29,0,0,1,17.72,9.57c1.51,1.33,3.11,2.87,5.13,3a8.21,8.21,0,0,0,3.11-.65l17.52-6.15c.27-.1.61-.27.61-.58a.82.82,0,0,0-.34-.55,15.22,15.22,0,0,0-10.11-3.58,101.27,101.27,0,0,1,12.88-6.46,8,8,0,0,0-.18-4.13c-.54-1.3-2.11-2.29-3.38-1.67-3.86,1.88-7.72,3.72-11.61,5.6-1.33.65-2.87,1.6-2.8,3.11a17.65,17.65,0,0,1-6.11,14.24c1.6-5.23,3.24-10.59,2.7-16-4-1.16-8-2.36-11.92-3.52m41.83-78.65c-1,.82-.85,2.29-.82,3.59a16.24,16.24,0,0,1-3.24,10.45,1.84,1.84,0,0,0-.48.95c0,.34.24.75.58.69a71.24,71.24,0,0,1,10.08-1c.85,0,1.67,0,2.52.06l8.37.31c-.72-1.43.62-3,.82-4.58a4.79,4.79,0,0,0-.2-2.18,12.73,12.73,0,0,0-5-6.63,14.87,14.87,0,0,0-11.1-2.32,3.43,3.43,0,0,0-1.54.65m51,18.89c-.1,1.6-.17,3.17-.24,4.78a8,8,0,0,0,3.76-2.67,2.87,2.87,0,0,0,.68-2.32c-.21-.82-1.3-1.4-1.95-.85a10.58,10.58,0,0,0,1.68-3.52,3.81,3.81,0,0,0-1-3.62,2.34,2.34,0,0,0-3.41.37,3.55,3.55,0,0,0-.35,1.58,51.37,51.37,0,0,0-.06,6.08,1.08,1.08,0,0,0,.85.17"/><path d="M111,282.87a1.68,1.68,0,0,1,.17-2.22,1.63,1.63,0,0,1,0,2.49"/><path d="M77.1,41l-.82-.2a2.32,2.32,0,0,1,.06-1.43c.24-.45.89-.69,1.23-.31-.1.61-.2,1.26-.3,1.91"/><path d="M95,69.21c-.51-.58.24-1.57,1-1.44a2,2,0,0,1,1.4,1.64A2.27,2.27,0,0,1,95,69.14"/><path d="M210.15,228.91a3.59,3.59,0,0,1,.45-2.53c.31.14.58.31.89.48a3,3,0,0,1-.75,2.35c-.21.18-.55,0-.55-.3"/><path d="M244.92,273.37a.38.38,0,0,1,.24.65,3,3,0,0,1-2.46-1.81,1.82,1.82,0,0,1,2.15,1.13"/><path d="M241.78,149.16c-.07-.2.31-.31.41-.14s0,.41-.1.58a2.36,2.36,0,0,1-2.63,1.17,2.16,2.16,0,0,1,2.25-1.64"/><path d="M209.61,154.32a1.21,1.21,0,0,1-1.54,1.23,4.89,4.89,0,0,1,1.88-2.63,1.3,1.3,0,0,1,0,1.36"/><path d="M116.88,74.71a8.52,8.52,0,0,1-.85.17V71.7a1.64,1.64,0,0,1,1.54,1.2,1.62,1.62,0,0,1-.75,1.81"/><path d="M162.51,251.52c-.31-.45.24-1.17.79-1.1a1.26,1.26,0,0,1,.95,1.27,3.35,3.35,0,0,1-.44,1.6.66.66,0,0,1-1.13.17,1.47,1.47,0,0,0-.75-1.33,1,1,0,0,0,.75-.68"/><path d="M86.49,154.45a1.27,1.27,0,0,0,.68,1.34,2.79,2.79,0,0,1-1.23,1,3.28,3.28,0,0,1-.72-3.34c.41.37.82.75,1.23,1.09"/><path d="M224.46,164a18.5,18.5,0,0,1-5.46,0,17.85,17.85,0,0,1,5.46,0"/><path d="M90.93,57.46a2.13,2.13,0,0,1-1.1,2.87,3.94,3.94,0,0,1,.79-4.54,2.35,2.35,0,0,1,.31,1.67"/><path d="M158.28,252.3a2.91,2.91,0,0,1-.31.24c-.51.17-.85-.55-.85-1.09a4.41,4.41,0,0,1,1.36-3,3.23,3.23,0,0,1-.2,3.82"/><path d="M56,69.17a5.33,5.33,0,0,1,.14,5.3,8.8,8.8,0,0,1-.14-5.3"/><path d="M63.54,66a1.52,1.52,0,0,1-1.92-.85,4,4,0,0,1-.17-2.29c0-.44.17-1,.62-1.12.48,1.43,1,2.83,1.47,4.26"/><path d="M180.34,282.15c0-.85,0-1.74,0-2.59a1.7,1.7,0,0,1,.1-.72c.3-.65,1.36-.55,1.81,0a3.1,3.1,0,0,1,.41,2.09,2.8,2.8,0,0,1-.48,1.87,1.05,1.05,0,0,1-1.67,0,2,2,0,0,1-.14-.72"/><path d="M239.05,269.65a11.35,11.35,0,0,1-3.14-3c-.21-.27-.21-.85.13-.78a14.91,14.91,0,0,1,3,3.82"/><path d="M98,265.28a2.08,2.08,0,0,1-.45.72,2.42,2.42,0,0,1-2.18.24,7.93,7.93,0,0,1,1.36-4.44A3.1,3.1,0,0,1,98,265.28"/><path d="M143.63,87.89a1.78,1.78,0,0,1,1.87-1.16,4.82,4.82,0,0,1-1.36,2.8,2.12,2.12,0,0,1-2.91,0l2.26-1.74"/><path d="M145.74,60c-.24-1.33-.51-2.66-.78-4-.17-.89-.34-1.81-.55-2.74A5.27,5.27,0,0,1,145.74,60"/><path d="M56.3,194.24a17,17,0,0,1,1,7,.83.83,0,0,1-1,0c0-2.32,0-7.12,0-7.12"/><path d="M143.93,111.08a1,1,0,0,1,.28.89c-.14.48-.76.61-1.23.65-1.47.1-3.11.13-4.2-.86a2.46,2.46,0,0,1,2.25-2.15,3.37,3.37,0,0,1,2.9,1.47"/><path d="M224.09,156.06a28.16,28.16,0,0,1,4.61-3.21,1.42,1.42,0,0,1,1.09-.21,8.13,8.13,0,0,1-5.7,3.42"/><path d="M113.78,161.66a7.18,7.18,0,0,1,4.26,1.2c.93.44,1.85.92,2.74,1.4-1.54.27-3-.52-4.44-1.23-.86-.48-1.71-.93-2.56-1.37"/><path d="M155.17,59.37c1.13,1.92.68,4.31.17,6.49a3.83,3.83,0,0,1-.65,1.64c-.65-.17-.68-1.09-.58-1.77.38-2.12.72-4.24,1.06-6.36"/><path d="M268,267.57c.37.72-.51,1.6-1.33,1.53a3.72,3.72,0,0,1-2.09-1.26l-2.49-2.46a1.6,1.6,0,0,1,.79-.1,3.37,3.37,0,0,0,2.76,1.71c.86,0,2-.21,2.36.58"/><path d="M136.9,283.14c-.65,1.95-.69,4.54-2.56,5.33a4.67,4.67,0,0,1-1,.27c.85-2.29,1.7-4.57,2.56-6.86.34.44.65.85,1,1.26"/><path d="M130.85,274.91c1.81.1,3.14,1.74,4.2,3.21a3,3,0,0,1,.79,2.46c-1.23-1.16-2.46-2.29-3.66-3.45a3.2,3.2,0,0,1-1.33-2.22"/><path d="M57.49,96.46a10.08,10.08,0,0,1,9,0,20.75,20.75,0,0,1-8.88,1.06,1.28,1.28,0,0,1-.14-1.1"/><path d="M126.31,274.33c-1.2-.41-2.39-.79-3.59-1.16a6.57,6.57,0,0,1-3.41-2,9.19,9.19,0,0,1,7.92,2.42.9.9,0,0,1-.92.72"/><path d="M221.05,266.37a2.23,2.23,0,0,1-1.26-.2,1.25,1.25,0,0,1-.62-.75,26.18,26.18,0,0,1,11,.75l-9.08.2"/><path d="M142.57,78.29a1.39,1.39,0,0,1-1.16.11,5.64,5.64,0,0,1,2.52-8.75c.65.79,0,1.92-.48,2.8a8.9,8.9,0,0,0-.88,5.84"/><path d="M267.33,222.93a30.43,30.43,0,0,1,3.07,5.91c-.58,0-1,.58-1.23,1.06s-.61,1.06-1.16,1.16-1.09-.75-.62-1.06c.82-.44.35-1.67-.06-2.53a8.46,8.46,0,0,1-.89-4l.89-.51"/><path d="M227.54,148.07c-2.15,1.81-4.27,3.65-6.42,5.5-.41.37-1,.71-1.44.51a1,1,0,0,1-.3-1.37,2.67,2.67,0,0,1,1.23-1c2.32-1.23,4.64-2.46,6.93-3.65"/><path d="M62.38,238.37c1.43,2.08,5,1.19,6.76,3,.61.61,1.64.41,2.49.34s2,.38,2,1.23a13.47,13.47,0,0,1-10-2c-.82-.58-1.67-1.63-1.19-2.52"/><path d="M108.86,252.52v3.71a13.38,13.38,0,0,0,2.11.27,3.62,3.62,0,0,1,.79,4,2.82,2.82,0,0,1-3.69,1.33,4.76,4.76,0,0,1-1.91-2.93c.78-.21.75-1.27.65-2.05a11.43,11.43,0,0,1,.78-5.74.65.65,0,0,1,1,.07,1.7,1.7,0,0,1,.24,1.16"/><path d="M161,75a11.64,11.64,0,0,0,4.44-2.87c.62-.58,1.71-1.09,2.12-.34a8.58,8.58,0,0,1-11.1,4.37c1.26-1,3-.75,4.54-1.16"/><path d="M170,129.9a36.81,36.81,0,0,0,1.7,4.47,10.34,10.34,0,0,1,.17,8.13,17.68,17.68,0,0,0-2.66-11.85c-.31-.51-.65-1.16-.31-1.64.38.31.72.62,1.1.89"/><path d="M63.26,76.38c1.3,1.71,3.73,2.08,5.5,3.25a6.81,6.81,0,0,1,2.29,2.45,9.91,9.91,0,0,1-9.94-8.53c1.09.51,1.44,1.87,2.15,2.83"/><path d="M89.05,112.65c-.72-1.67-1.4-3.35-2.08-5a9.86,9.86,0,0,0-.89-1.74c-1.13-1.57-3.52-2.67-3.28-4.61a16.84,16.84,0,0,1,7,7.75,4,4,0,0,1,.48,2.08,1.69,1.69,0,0,1-1.26,1.54"/><path d="M113.88,109.78a4.52,4.52,0,0,1,1-5.53,4.56,4.56,0,0,1,5.6.07,3.67,3.67,0,0,1,1,4.27c-1.09,2-3.89,2.15-6.18,2a1.61,1.61,0,0,1-.92-.21,1.29,1.29,0,0,1-.51-.58m2.9-1.64a3,3,0,0,0,1.64-.3,1,1,0,0,0,.34-1.44,1,1,0,0,0-1.43.17,2.68,2.68,0,0,0-.51,1.54"/><path d="M113.43,215.93a1.75,1.75,0,0,0,1.23.14,4,4,0,0,1,0,4.5,5.83,5.83,0,0,1-4,2.43,2.82,2.82,0,0,1-2.25-.34,1.32,1.32,0,0,1-.17-2,1.38,1.38,0,0,1,.85.34,5.66,5.66,0,0,0,3.18-1.77c.75-1,.51-2.77-.69-3.08a4.23,4.23,0,0,1-2.56-1.94,2.55,2.55,0,0,1,2.91-1,2.43,2.43,0,0,1,1.46,2.7"/><path d="M107.39,242.94a17.1,17.1,0,0,1,.34-6.45,4.94,4.94,0,0,1,1-2.12,1.9,1.9,0,0,1,2.15-.44,2.28,2.28,0,0,0,.92,1.36,2.28,2.28,0,0,1,.89,1.37c.07.55-.58,1.16-1,.82a1.45,1.45,0,0,0-1.94.58,3.61,3.61,0,0,0-.41,2.19c0,.41.1.85.47,1a1,1,0,0,0,.52,0c1.16-.28,2.63-.86,2.56-2.05a2,2,0,0,1,2.76-.34,5.39,5.39,0,0,1-2.93,4.44,5.33,5.33,0,0,1-5.33-.35"/><path d="M105.44,53.91c-.48-1.88-.92-3.79-1.36-5.71s-.86-3.72-.11-5.36a1.17,1.17,0,0,1,1.92.93,1.73,1.73,0,0,0-.14.68c0,.24.34.44.48.27-.55.48-.31,1.37,0,2.05a33.9,33.9,0,0,1,1.34,5.84c.41,2.77.82,5.5,1.19,8.27l-1.23.51a70,70,0,0,1-2-7.48"/><path d="M96.05,293.08c.85-1,2.32-1,3.65-1,5.64.14,11.27.38,16.91.65,1,.07,2.32.34,2.53,1.33-4.31,0-8.64-.07-13-.14a3.36,3.36,0,0,1-2.46-.65,1.51,1.51,0,0,1-1.33.35c-2.11-.21-4.23-.38-6.35-.55"/><path d="M76.48,68.83c-1.4-1.19-1.57-3.28-1.64-5.12a174.43,174.43,0,0,1,.65-19.4c1.13.07,1.3,1.71,1.2,2.84a26.78,26.78,0,0,0,.27,8,38,38,0,0,1-.48,13.73"/><path d="M132.12,68a10.85,10.85,0,0,1,.13-1.5q.36-2.93.72-5.81c.1-.78.41-1.81,1.19-1.77.31-1.13.62-2.22.93-3.31a3.5,3.5,0,0,1,1.23-2.12c.71-.45,1.91,0,1.87.82-.17,2.35-1.4,4.51-2,6.79a27.84,27.84,0,0,0-.93,5.06,11.52,11.52,0,0,0-.1,1.78c0,2.76,1.78,5.46,1.09,8.16a9.52,9.52,0,0,1-4.09-8.1"/><path d="M102.27,130.62a8.28,8.28,0,0,0-3.42,1.53,5.13,5.13,0,0,1,5.47-4.2,13.3,13.3,0,0,0,10.21-3.24,23.19,23.19,0,0,1,2.83-2.53,3.74,3.74,0,0,1,3.66-.48c.13.68-.45,1.27-1,1.71a42.64,42.64,0,0,1-5.91,4.3,20.74,20.74,0,0,1-8.61,2.6,31.18,31.18,0,0,0-3.24.31"/><path d="M187.27,199c0-2.39,2.56-4.27,2.43-6.66-.58.07-1-.51-1.06-1.09a3.06,3.06,0,0,1,.44-1.61c.62-1.26,1.23-2.53,1.85-3.79a.66.66,0,0,0-.11-.61,5,5,0,0,1-1-3c.14-1.09,1.57-1.95,2.32-1.2,1.16,1.81,2.39,3.9,1.95,6-.55,2.45-3.25,4.64-2.29,7a10.41,10.41,0,0,1-2,10.83c-.51-1-1.06-2.05-1.61-3.11a6.2,6.2,0,0,1-.92-2.73"/><path d="M150.83,245.88a4.12,4.12,0,0,0-.41,3.18,7.14,7.14,0,0,1-2.39.17,35.53,35.53,0,0,0-.89-9c2.43-2.12,5.88-2.33,9.05-2.43,1.85-.07,4.14.17,4.75,1.91a3.8,3.8,0,0,1,0,2,20.56,20.56,0,0,1-1.87,5.81c-.24-.41-.52-.79-.79-1.2a17.65,17.65,0,0,0,.55-6.14c-2-1.33-4.58-.79-6.87-.14a4.06,4.06,0,0,0-2.22,1.09c-1.19,1.34-.3,3.56,1.06,4.75"/><path d="M87,98a31.24,31.24,0,0,0-3.28-10.89,29.68,29.68,0,0,0-4.07-5.84c-1.5-1.64-3.31-3.25-3.62-5.47A32.81,32.81,0,0,1,89.42,98.07c.18,1.23.07,2.76-1,3.24-1.1-.58-1.27-2-1.4-3.28"/><path d="M251.21,231.74c-.14-.41-.72-.48-1.2-.48l-2.56.11c-9,.3-18,.61-26.91.44-.11-.41-.17-.82-.24-1.23a6.68,6.68,0,0,1,3.65-.75l22.34-.27a73,73,0,0,1,11.64.47c-1.19,2.12-5,.07-6.72,1.71"/><path d="M256.77,253.43q-25.6.4-51.23-1.09c-.68,0-.68-1.1-.44-1.78A299.29,299.29,0,0,0,244.24,252c4.23-.1,8.64-.27,12.53,1.44"/><path d="M159,210c1.4-.21,2.15-1.85,2-3.25a16.71,16.71,0,0,0-1.33-4,8.57,8.57,0,0,1,.17-6.56,5.93,5.93,0,0,1,5.33-3.45,4.61,4.61,0,0,1,4.44,4.2c.07,2.83-.07,6.22-2.42,7.86a31.21,31.21,0,0,1-2.91,1.4,2.89,2.89,0,0,0-1.74,2.52,9.5,9.5,0,0,0-3,5.3c-.07.44-.58.65-1,.71-3.66.62-7.24-1.23-10.49-3-.24-.72.51-1.78,1.06-1.27a61.75,61.75,0,0,0,8.54,2.7A6.49,6.49,0,0,0,159,210m5.57-7.93c.61.55,1.67,1,2.05.31a1.54,1.54,0,0,0,0-.85,12.65,12.65,0,0,1-.11-4.38c.17-1-1.12-1.87-2.18-1.6a3.77,3.77,0,0,0-2.15,2.25,5.6,5.6,0,0,0-.58,3.39,2.75,2.75,0,0,0,2.32,2.25,2,2,0,0,1,.65-1.37"/><path d="M127.1,203.05a1.67,1.67,0,0,1,1.22-.27,15.31,15.31,0,0,0,5-1.09,10.18,10.18,0,0,1,5-.72,4.06,4.06,0,0,1,3.55,3.21,19.93,19.93,0,0,1-.54,6.52,74,74,0,0,1-2.36,8.58c-.65,2-1.57,4.06-3.45,4.95a7.45,7.45,0,0,1-2.59.54,11.08,11.08,0,0,1-6.56-1.22c-1.88-1.23-3.08-3.8-2.12-5.81,1-.65.89-2.12.82-3.31a23.75,23.75,0,0,1,.65-5.81c.31-1.54.65-3.11,1-4.68a1.37,1.37,0,0,1,.41-.89m2.28,4.51c-1.53,1.74,0,4.51-.78,6.7-.38,1.16-.75,2.35-1.16,3.51a4.21,4.21,0,0,0-.24,2.8c.58,1.4,2.42,1.68,3.93,1.75a5.52,5.52,0,0,0,3.48-.59c1.23-.88,1.57-2.56,1.77-4.06.38-.1.62-.55.76-.92a28.94,28.94,0,0,0,1.6-8.51,4.51,4.51,0,0,1,.62-2.66c-.82-.27-.41-1.5.13-2.19a30.23,30.23,0,0,0-8.84,3.25,3.77,3.77,0,0,0-1.27.92"/><path d="M159,254.18c.34-.58,1.26.07,1.5.75a8.19,8.19,0,0,1-.58,7.14,79.94,79.94,0,0,0,16.87-.75,1.28,1.28,0,0,1-.24,1.91,3.67,3.67,0,0,1-2.08.55l-43.82,2.76c-5.43.34-11,.65-16.15-1.16a8.73,8.73,0,0,1,8.74-1,10.12,10.12,0,0,0,4.61.41c9.5-.75,19-1.47,28.42-2.22a2.87,2.87,0,0,0,2.15-.75,3,3,0,0,0,.44-1.88c0-1.91.07-3.83.14-5.74"/><path d="M100.46,20.92c-3.39,1.06-4.79,5.39-3.86,8.77-.79,1-2.19-.44-2.46-1.64a9,9,0,0,1,.75-6.79c1.71-2.67,5.26-3.55,8.4-3.18a14.29,14.29,0,0,1,9.46,5.33,22.49,22.49,0,0,0,2.53,3.18,3.82,3.82,0,0,0,3.69,1c3.31-1.27,7.17.2,9.56,2.8s3.55,6,4.34,9.49a53.82,53.82,0,0,1,1.29,10.18,1.1,1.1,0,0,1-1.6,0,3.14,3.14,0,0,1-.75-1.64c-.89-3.65-1.81-7.34-2.7-11a10.26,10.26,0,0,0-5.94-6.93c-2.84-1.16-6.9-.38-7.58,2.6-.11.47-.14,1-.55,1.26s-1.2-.21-1.33-.82a4.47,4.47,0,0,1,.1-1.78c.24-2.63-1.81-4.81-3.72-6.62-2.67-2.53-6.12-5.3-9.63-4.2"/><path d="M184.81,170.71a146.41,146.41,0,0,1,14.28-10.38c-3.76,9.15-17.45,11.95-19.5,21.65-1,4.58.82,10.18-2.5,13.49-2.9,2.9-3.51,7.38-3.48,11.51s.62,8.33-.55,12.26a2.69,2.69,0,0,1-1.22,1.78c-.69.31-1.68-.24-1.51-1,2-7.89-.82-16.8,3-24,1.61-3,4.31-5.77,4-9.12-.11-1-.45-1.88-.62-2.83-1-5.4,3.83-10,8.16-13.39"/><path d="M100.25,148a7.43,7.43,0,0,0-1.88,2.56,7,7,0,0,0,0,3.93,21.4,21.4,0,0,0,6.69,12,14.35,14.35,0,0,0,13,3.1,1.29,1.29,0,0,1-.1,1.95,4.07,4.07,0,0,1-2.12.68,33.19,33.19,0,0,0-9.56,2.91,8.8,8.8,0,0,1-6.9-.11,23.64,23.64,0,0,1-6-3.79c-1.7-1.33-3.44-2.8-4.26-4.81a9.81,9.81,0,0,1,.34-7c.89-2.25,2.18-4.27,3.17-6.49,2.46-5.39,3.21-12.09,8-15.6a3.45,3.45,0,0,1,1.13,2.83,4.82,4.82,0,0,0-3.76,3.07l7.92-.88c.58-.07,1.44.2,1.23.75a28.22,28.22,0,0,0-7,4.95m-7.48,10.72c-.31,2.91-.51,6,.79,8.58a9.86,9.86,0,0,0,5.84,4.88,16.89,16.89,0,0,0,7.72.48,1.7,1.7,0,0,0,.51-.17.89.89,0,0,0,0-1.3,2.68,2.68,0,0,0-1.26-.72,17.51,17.51,0,0,1-11-14.31,1.49,1.49,0,0,0-2,.41,4.4,4.4,0,0,0-.68,2.15"/><path d="M94.34,84.88a5.37,5.37,0,0,0,2.09-1.22,1.73,1.73,0,0,0,.2-2.22c-.44-.55-.1-1.37.31-2a40.94,40.94,0,0,1,11.27-12,24.26,24.26,0,0,1,15.67-4.34c2.09,2.77-.44,6.73.11,10.18a16.1,16.1,0,0,1,.48,2.49,1.93,1.93,0,0,1-1.3,2A36.4,36.4,0,0,0,100.9,91.54a9.79,9.79,0,0,1-6.56-6.66M112.41,74.3a14.73,14.73,0,0,0-1.23,2.76,1.3,1.3,0,0,0-.07.86c.31.78,1.44.44,2.15.07a15.28,15.28,0,0,1,6.9-2,68.9,68.9,0,0,1,1-8.75c.17-1.06-1.3-1.6-2.35-1.47a8.3,8.3,0,0,0-3.73,1.47,9.91,9.91,0,0,0-2.8,3.42c-.58,1.19-.89,2.8.14,3.62m-11,6.38a5.31,5.31,0,0,0,.44.65,8.4,8.4,0,0,0-.92,3.11c-1-.2-2-.44-2.94-.68a7.72,7.72,0,0,0,2.05,5.6,2.86,2.86,0,0,1,1.27-.85c-.82-1.85,1-3.73,2.56-4.92,1.16-.86,2.29-1.71,3.45-2.56A8.2,8.2,0,0,0,109,79.49c1.3-1.81.79-4.34,1.64-6.39.31-.75-1-1.36-1.64-.92a3.08,3.08,0,0,0-1,2.22c-.85.65-2.22,1.3-2.9.44-.75.11.14,1.4-.27,2a1.17,1.17,0,0,1-.75.37,3.72,3.72,0,0,0-2.7,3.45"/><path d="M149.91,88.16c-4.88-5.8-3.18-14.44-1.61-21.89a31.08,31.08,0,0,0,.86-9.87c-.38-3.31-1.91-6.62-4.72-8.43a2.86,2.86,0,0,0-.51,4.37c-2.05-.86-2.12-3.62-2.39-5.84a14,14,0,0,0-8.74-11.2c2.25-1.3,5.26-.65,7.27,1a12.59,12.59,0,0,1,3.73,6.73c.3,1.36.58,2.83,1.64,3.75a9.89,9.89,0,0,0,2,1.13c4.64,2.53,4.78,9,4.27,14.28l-1.23,13.52c-.24,2.63-.38,5.64,1.47,7.52a24.42,24.42,0,0,1,5.77,9.8,10.21,10.21,0,0,0,1.33,3.28,2.83,2.83,0,0,0,3.11,1.16c1.88-.82,1.4-3.59.61-5.5-1-2.39-2-4.78-3-7.17-.72-1.64-2.16-3.62-3.8-2.94a6.93,6.93,0,0,1-1.4,2.9,13.21,13.21,0,0,1-2.76-3.55c1.91-1.26,4.16-2.56,6.38-2,2.43.65,3.66,3.21,4.65,5.5,2,4.61,4,9.46,3.76,14.48a11.6,11.6,0,0,0-8.54,4.1,41.46,41.46,0,0,0-8.13-15.17"/><path d="M70,129.08c2.56-1.71,1.77-5.53,1.94-8.61.28-5,5.09-9.87,10.08-8.84,2.56.51,4.64,2.39,6.59,4.16,2.49,2.33,5,4.61,7.48,6.94-3.11,1.46-6.45-1.4-8.67-4s-5.4-5.64-8.61-4.41c-2.77,1.06-3.55,4.58-3.59,7.55s.11,6.32-1.94,8.47c-2.46,2.59-6.8,2-10,.44s-6.32-3.82-9.9-4c-8.71-.41-14.52,11.44-23.19,10.58-5.4-.51-9.09-6.21-9.16-11.64a10.94,10.94,0,0,1,3.32-8.37c2.35-2,6.14-2.53,8.57-.58,3,2.39,2.76,7,4.61,10.38a21.8,21.8,0,0,1,23.84-.41c2.66,1.71,6,4.13,8.64,2.36m-43.79,3.45c.69.75,1.95.1,2.6-.69s1.43-1.74,2.42-1.53c-.71.34-.88,1.23-1.12,2s-1,1.57-1.71,1.26c1.91,1.51,4.71.51,6.93-.54l2.32-1.13a14.2,14.2,0,0,0,1.78-.92c2.39-1.57,4.27-4.51,7.14-4.37.34,0,.58-.41.44-.76a1.05,1.05,0,0,0-.85-.58c-1.74-.37-3.18,1.3-4.58,2.43a9.05,9.05,0,0,1-5.19,2,10,10,0,0,1-2.83-5.29,15.92,15.92,0,0,0-1.88-5.26,1.41,1.41,0,0,0-1.68-.48,4,4,0,0,0-1.46,1.06c-2.36,2.32-4.89,5.29-4.17,8.5a8.49,8.49,0,0,1,1.06.14A10.42,10.42,0,0,1,30,123.61c.17.38.34.79.51,1.17a13.84,13.84,0,0,0-4.34,7.75"/><path d="M143.39,259.35c-7.14.21-14.14,2.16-21,4a11.84,11.84,0,0,1,7-3.55c2.12-.27,5.06-.61,5.13-2.73A52.86,52.86,0,0,1,136.25,247l4.1-16.77c2.42-9.91,4.85-19.95,4.78-30.16a17.43,17.43,0,0,0-.79-6c-.27-.75-.65-1.5-1-2.22-1.43-2.83-2.83-5.67-4.23-8.5a19,19,0,0,0-3.62-5.53c-1.34-1.2-3.18-2.46-2.91-4.24,9.5,5.06,19.1,10.18,26.85,17.62a37.85,37.85,0,0,1-16-10.14,3.73,3.73,0,0,0-2-1.36c-.78-.14-1.74.64-1.43,1.4a35.82,35.82,0,0,1,7.41,24.45c-.14,1.67-.38,3.35-.65,5a296.56,296.56,0,0,1-9.87,42.11,4.69,4.69,0,0,0-.27,2.73c.54,1.71,2.76,2.09,4.57,2.15s3.42.14,5.13.24a7.39,7.39,0,0,0,4-.58c1.2-.65,2-2.25,1.27-3.41a47.4,47.4,0,0,1-4.75-.34,6.93,6.93,0,0,1,4.47-1,7.11,7.11,0,0,0,.45-9c.48-1.33,2.56-1.26,3.48-.2a6.23,6.23,0,0,1,1,4,8.63,8.63,0,0,0-1.91,9.8c1.13,0,2.25,0,3.38,0,.31,1-1.06,1.74-2.12,1.94-4,.72-8.13.31-12.22.41"/><path d="M176.58,239.22c-1.84-.85-4,1-4.33,2.94s.47,4,1.19,5.91c.85,2.35,1.5,5,.68,7.31s-3.75,4.06-5.91,2.8c-.75-.41-1.7-1.06-2.25-.41-.24.3-.17.75-.34,1.12-.55,1.16-2.46,0-2.39-1.29s1-2.33,1.33-3.59a4.18,4.18,0,0,0,.58,2.63c2.6.17,5.74.07,7.11-2.15,2.52-4-3.9-9-2.5-13.49.75-2.5,3.66-3.73,6.29-3.9.41-9,.85-18,1.26-27,.17-4,.38-7.92.89-11.85.92.28,1.09,1.54,1,2.53-.17,4.13-.37,8.3-.54,12.43-.14,2.46.27,5.67,2.66,6.25a226.68,226.68,0,0,0,.34-25c-.17-3.93-.1-8.61,3.11-10.89q-.06,17.26-.72,34.59c0,1.06-.75,2.56-1.67,2a1.94,1.94,0,0,0-2.43.89,5.55,5.55,0,0,0-.58,2.77,168,168,0,0,0,1.16,25.17c.62,5,1.47,10,.45,14.92,3.38-1.77,4-7.14,1.06-9.63,3.17,1.3,6.35,2.56,9.53,3.83a1.83,1.83,0,0,1-.65,2.15,7.55,7.55,0,0,0-3.25-1.2,2.49,2.49,0,0,0-2.59,1.81c-.21,1.16,1.29,2.29,2.18,1.57A5.38,5.38,0,0,1,195,264a2,2,0,0,1-2.12.55,6.39,6.39,0,0,0-9.43.82c-2,3-1.16,7-2.52,10.35a1.46,1.46,0,0,1-.72.88c-.92.35-1.47-1.05-1.47-2a339,339,0,0,0-2.12-35.32"/><path d="M65.28,60.33a5.37,5.37,0,0,1-5.88-5.19c-3.21-.17-5.9,2.53-7.3,5.39a18.38,18.38,0,0,0,2.11,19.13,9.48,9.48,0,0,1,2,3.18c.24.82.34,2,1.23,2.15,7.24,1.26,13,6.55,18.34,11.61,2,1.88,4.17,4.34,3.49,7A91.17,91.17,0,0,0,55.1,85.29c-3,1.78-3.38,6-2.7,9.47.45,2.11,1.3,4.4,3.25,5.36,2.35,1.16,5.12-.14,7.72-.52,6.11-.92,11.71,3.18,16.53,7a13.51,13.51,0,0,1,2,1.84c-5.63,1.47-9.9-6.28-15.74-6.42-1.88,0-3.66.76-5.54,1a10.4,10.4,0,0,1-8.74-17.73C53.26,84,52,81.81,51,80.24,47.52,75.15,46,68.59,47.83,62.72S55.17,52.06,61.28,52c-1.3-9.8,5.88-20,15.54-22.1a6.69,6.69,0,0,0,2.67-.92,15.89,15.89,0,0,0,1.91-2.39,5.53,5.53,0,0,1,5.84-1.19,10.73,10.73,0,0,1,4.81,3.92A22,22,0,0,1,95,34.68c-4.06-.38-5.77-7.14-9.77-6.45-1.87.3-3,2.22-3.38,4.06s-.07,3.76-.34,5.63a8.07,8.07,0,0,1-2.7-5.22,8.75,8.75,0,0,0-6,1.23C65.18,38.16,62.51,49.3,67.4,56.5c-1.4.28-2.63-.92-3.79-1.74s-3.22-1-3.69.34c1.77,1.75,3.58,3.49,5.36,5.23"/><path d="M252.13,187.55c.27,2.22.31,4.61,1.6,6.45s4.55,2.43,5.64.45c1.06-.14.61,1.81-.45,2.15s-2.49.54-2.52,1.64a2.11,2.11,0,0,0,.51,1.16c3.45,4.64,6.93,9.25,10.38,13.9-4.57,6.62-1.12,16.73-6.18,22.95a10.35,10.35,0,0,0-1.6,10.14,9.73,9.73,0,0,1,2.73-1.64c0,.62.1,1.27.17,1.88-4.58,2.8-10.28,2.73-15.64,2.6l-37-.92a4.87,4.87,0,0,1,2.77-2.33q-.06-6.3-.11-12.6c0-2,.69-4.68,2.63-4.51-1.33-1.09-1.4-3.07-1.33-4.78q.66-19.11,1.33-38.25a1.19,1.19,0,0,1,.21-.75,1.08,1.08,0,0,1,.82-.21q22.53-.3,45-.64c1.68,0,3.73.17,4.44,1.67a4.47,4.47,0,0,1,.28,2.12q-.32,8.59-.62,17.14c-2-1-2.15-3.76-1.77-6s.95-4.71-.45-6.45c-.75-.89-.07-2.19.48-3.21s.75-2.6-.34-3c-1.13-.72-2.53.89-2.29,2.22-3-2.7-7.51-2.39-11.51-2.05a180.06,180.06,0,0,1-30.63,0,243.3,243.3,0,0,0-1.54,32.72c4.2-10.18,1.2-22.31,5.67-32.38.17,2,.38,3.89.58,5.84a64.44,64.44,0,0,1,11.95-2.42c5.74-.48,12,.37,16.74-2.94m-.45,10.07a7.37,7.37,0,0,0-3.24-.78c-6.56-.51-13.08-1-19.64-1.57a4.19,4.19,0,0,0-3,.54,3.94,3.94,0,0,0-1,2.22,252.26,252.26,0,0,0-4.47,25.86c0,.47-.07,1.06.37,1.29a1.17,1.17,0,0,0,.62.11q19.2-.51,38.38-1c.65.24.62,1.26.07,1.71a3.13,3.13,0,0,1-1.94.51q-18.6.47-37.13,1c-.72,0-1.09.78-1.3,1.47A96.82,96.82,0,0,0,216,243.52a2.17,2.17,0,0,0,.34,1.95,2.1,2.1,0,0,0,1.57.45q17.52.15,35,.34a2.59,2.59,0,0,0,3.21-2.43q3.75-14.09,7.45-28.11a4.47,4.47,0,0,0,.24-1.87,4.84,4.84,0,0,0-1-1.95c-3.07-4.1-6.14-8.23-9.22-12.33a7.12,7.12,0,0,0-1.88-1.95m-5.87-6.86c-.72,1.54-3.48,0-4.58,1.23-.58.75-1.74.58-2.66.34l-5-1.23a2.4,2.4,0,0,1-.79,1.2c2.39,2.15,6.15,1,9.29,1.6,1.6.31,3.21,1.06,4.78.65a3.13,3.13,0,0,0-1-3.79m2.19,2.8a2.73,2.73,0,0,0,.54,1.64c.41.41,1.27.41,1.47-.14a2.39,2.39,0,0,0-.89-2.59c-.44.34-.85.71-1.29,1.05"/><path d="M278.92,261.05c.07-.26.13-.54.2-.82-.8.09-1.6.17-2.4.27.2-27.6,1.54-55.23,4-82.72.48-5.81.89-12.19-2.6-16.84a2.5,2.5,0,0,0,3.49-1.33q-15.31-.26-30.71-.31,8.92-21.92,17.8-43.81c.92-2.26,1.77-5.06.24-6.94-1.33-1.64-3.79-1.7-5.91-1.6q-24.33,1.06-48.7,2.12c-4.1.17-9.16,1.05-10.32,5-.3,1,1.4,2.29,1.37,1.2a1.55,1.55,0,0,1-.58,2.32,1.5,1.5,0,0,1-1.95-1.33A49.24,49.24,0,0,1,192,129.15c-3.69,3.1-2.53,9-.78,13.49a139.23,139.23,0,0,0,7.68,16.53c.85.41,1.81-.45,1.91-1.37a4.28,4.28,0,0,0-.78-2.59,87.47,87.47,0,0,1-7-16.88,7.76,7.76,0,0,1-.41-4.5,8.22,8.22,0,0,1,2.22-3.25q6.09-6.35,12.19-12.74,4,20,8,40c1.26,1.09,2.42-1.54,2.12-3.21q-3.79-19.68-7.52-39.34c-.47-2.43,2.87-3.56,5.33-3.66q26.6-1.27,53.25-2.53l-18.75,46a4.19,4.19,0,0,1-4.85,3.24c-13.32.34-26.68.65-40,1-3.21.07-4.37,4.2-4.61,7.41q-4.2,54-4.37,108.27c0,4.44-.07,9.08-2.15,13,.68.79,1.91-.1,2.49-1q8.21-11.31,16.4-22.64a24.75,24.75,0,0,0-13.19,15.2c-.82.37-1.29-.89-1.26-1.78q2.5-56.4,5-112.8c.1-2.81,3.79-3.69,6.59-3.73q30.54-.56,61.1.79c2.15.1,4.58.34,5.94,2,1.13,1.44,1.1,3.42,1,5.23q-2.14,44.63-4.27,89.24-36.72.87-73.42,1.67a1.69,1.69,0,0,0,.44,2.5,4.86,4.86,0,0,0,2.8.47q10.56-.4,21.07-1.53A25.22,25.22,0,0,1,245.47,270a7.65,7.65,0,0,0-4.34-6.87c1.74-.27,3.45-.54,5.19-.78a32.47,32.47,0,0,0,3.93,16.32c1.57-2.9-.17-6.31-.85-9.53s1.12-7.71,4.3-6.93c1.43.38,2.32,1.74,3.11,3l14.75,23.67a179.67,179.67,0,0,0,2.94-26.06q2.12-.42,4.23-.75C278.78,261.69,278.84,261.37,278.92,261.05Zm-8.14,19.74c-.24.85-1.58.92-2.22.3a4.71,4.71,0,0,1-1-2.46,18.55,18.55,0,0,0-5-9c-1.3-1.27-1-3.73-2.43-4.78-.68-.48-1.57-.55-2.29-1s-1.09-1.61-.41-2a1.43,1.43,0,0,1,.93-.13q6.6.4,13.21,1c-.37,2.67-.71,5.36-1.06,8.06a18.72,18.72,0,0,0-.2,3C270.37,276.14,271.42,278.53,270.78,280.79Z"/></g></svg>