<svg xmlns="http://www.w3.org/2000/svg" viewBox="0 0 300 300"><defs><style>.\33 601f5e7-54cc-4829-a4a2-a5fdd6d39458{isolation:isolate;}.\36 75db821-5e81-4287-9de3-9d3182edc12d{fill:#fff;}.\34 875dea3-ff69-4efd-81b6-35065f2dff15,.f223325f-9c3a-4d0c-864d-56e66928fdf2{mix-blend-mode:multiply;}.\34 875dea3-ff69-4efd-81b6-35065f2dff15,.\38 05834ec-f3ef-48dd-8e34-9cdc6bfbd456{fill:#8b898a;}.\36 935ffdd-ab56-469e-b05b-7b4fc574c0f6{fill:#e8d1a1;}.\36 8712281-f8b3-4784-b26a-fdcfdfe47aab{fill:#e6e6e6;}</style></defs><g class="3601f5e7-54cc-4829-a4a2-a5fdd6d39458"><g id="2b42b4a8-6ece-4d1d-aced-8e7de224e9eb" data-name="Layer 1"><path class="675db821-5e81-4287-9de3-9d3182edc12d" d="M212.78,73.79a11.26,11.26,0,0,0-1.32-3.87l-6.79-12.15a13.63,13.63,0,0,0-.32-2.69c-.53-2.33-2.77-5.5-5-6.52a21.44,21.44,0,0,0-7.32-2,7.63,7.63,0,0,0-3.61.52q-7.38-.11-14.73-.9a8.6,8.6,0,0,0-5,1.19l0,0a11.23,11.23,0,0,0-8.41-1.1,10.91,10.91,0,0,0-7.84,11,13.64,13.64,0,0,0-.33,1.69,104.39,104.39,0,0,0-.94,11.8,74.1,74.1,0,0,0-9.15,3.57l-.82.38c-.5-1.26-1.05-2.51-1.59-3.74-.13-.34-.26-.67-.37-1a12.41,12.41,0,0,1-.35-1.23,19.62,19.62,0,0,0-.65-4.66,14.55,14.55,0,0,0-1-2.44,9.58,9.58,0,0,0-3.05-7,11.39,11.39,0,0,0-13.23-1.71c-1.45.74-2.93,1.41-4.4,2.11l-.41.2-.94.46.71-.36-.41.17c-.56.21-1.13.4-1.7.58-1,.33-2.07.62-3.11.92a99,99,0,0,0-14.08,5.65c-1,.45-2,.9-3,1.33l-.06,0-1,.41q-3,1.21-6,2.31c-4.29,1.55-8.65,2.89-13.06,4.07-5.52,1.48-9.43,7.85-7.62,13.43A12.44,12.44,0,0,0,67,87c.11,1.27.25,2.48.46,3.65a96,96,0,0,0,4.77,19.86,13.15,13.15,0,0,0,2.15,3.82c0,1,0,2,0,2.93.27,6.85,2.29,14.22,9.68,16.47a12.36,12.36,0,0,0,12.67-3.29c6.2-.77,12.1-4,17.85-6.12,3.42-1.26,6.88-2.41,10.39-3.41s7-1.62,10.39-2.74a12.2,12.2,0,0,0,1.93-.83,10.77,10.77,0,0,0,1.71-.33,12.13,12.13,0,0,0,5-2.89c-.19.41-.38.81-.56,1.21a47.62,47.62,0,0,0-3,7.89c-1.71,6.72,3.29,14,10.52,13.81a156.59,156.59,0,0,1,22.71,1.15q7.56,1.11,15,2.95c5.44,1.35,12.19-1.72,13.42-7.62a126,126,0,0,1,4-15.82c.85-2.41,1.78-4.8,2.39-7.29a73.75,73.75,0,0,0,1.35-8.65,98.18,98.18,0,0,1,5.13-17.81C216.26,80.67,215.12,76.54,212.78,73.79Zm-65.2,31.46a28.12,28.12,0,0,0-.63-4.62c-.27-1.38-.55-2.77-.82-4.16l1.63-.82,1.88-.94c-.27,1.76-.53,3.52-.86,5.27S148.06,103.51,147.58,105.25Z"/><path class="675db821-5e81-4287-9de3-9d3182edc12d" d="M116.43,55c.1-.05,0,0-.64.3l.23-.1Z"/><path d="M177.91,99.65a2.58,2.58,0,0,1,.63,1.75,1.67,1.67,0,0,1-.57,1.32,12.65,12.65,0,0,1-.06-3.07"/><path d="M129.48,60.15a5.72,5.72,0,0,1,.87-5.2,1,1,0,0,1,.91-.57c.35,0,.58.4.72.71A5.26,5.26,0,0,1,131.7,60a4.17,4.17,0,0,1-2.22.17"/><path d="M123.08,61.7a2.06,2.06,0,0,1-.78-2.76,3.64,3.64,0,0,1,3.39-2.15,3,3,0,0,1,.72,3.07,2.93,2.93,0,0,1-2.5,1.93,1.92,1.92,0,0,1-.83-.09"/><path d="M75.68,74.68a2.75,2.75,0,0,1,2,.06c.57.38.66,1.38,0,1.61l-7.24,2.56a2.56,2.56,0,0,1-1.83.17c-.58-.26-.84-1.21-.29-1.49a29.65,29.65,0,0,1,7.35-2.91"/><path d="M73.76,94.16a1.86,1.86,0,0,1,.4-2.24,5.47,5.47,0,0,1,2.15-1.12L81.69,89a2.85,2.85,0,0,1,1.55-.23,1,1,0,0,1,.83,1.15c-.11.43-.57.66-1,.8q-4.61,1.86-9.3,3.45"/><path d="M87.49,120.13c-.06-.32-.12-.66-.17-1a69.36,69.36,0,0,1,15.91-6.58c2-.54,4.11-1,6.15-1.43,1.29-.29,2.7-.55,3.82.11a6.83,6.83,0,0,1-3.77,2.21,72.83,72.83,0,0,0-18.21,6.15c-1.18.57-2.61,1.18-3.73.52"/><path d="M106.76,103.41a41.9,41.9,0,0,0-5.89,1.75l-14.93,5.17a1,1,0,0,1-1.24-.77,1.13,1.13,0,0,1,.86-1.21c6.84-2.59,13.76-5,20.71-7.12,1.81-.58,3.77-1.12,5.52-.46-.75,1.81-3.1,2.24-5,2.64"/><path d="M109,96a2.78,2.78,0,0,1,1.73-.06,1,1,0,0,1,.51,1.41c-8.44,2.38-16.8,5.14-25,8.21-1,.38-2.39.58-2.76-.4A2.69,2.69,0,0,1,84.9,104,151,151,0,0,1,109,96"/><path d="M112.79,106.8l-8.53,2.38c-.63.17-1.26.38-1.92.55A88.84,88.84,0,0,0,88.72,115c-1.06.52-2.44,1-3.24.18,1-1.76,3-2.68,4.82-3.42a165.69,165.69,0,0,1,18.3-6.24c1.49-.4,3.36-.66,4.31.52,0,.26-.09.49-.12.75"/><path d="M117.07,95.94c-.94.78-.63,2.3-.23,3.45.72,2,1.41,4,2.13,6.06a4.37,4.37,0,0,1,.32,2.61c-.29.86-1.44,1.44-2.13.86-.8-3.16-1.78-6.26-2.87-9.33-.55-1.52-1-3.42.11-4.54a4.22,4.22,0,0,1,1.35-.78c4.2-1.75,8.39-3.47,12.61-5.14a158.1,158.1,0,0,0,4.57,15.77c.43,1.24-1.06,2.24-2.27,2.73-4.51,1.78-9,3.59-13.53,5.37l-.26-1.63a74.32,74.32,0,0,1,11-5.06c.84-.32,1.79-.72,2-1.55a3,3,0,0,0-.31-2,48.82,48.82,0,0,1-3.13-11.06,42.05,42.05,0,0,1-9.4,4.19"/><path d="M81.05,71.75a4.46,4.46,0,0,1,2.27-1.4q13.11-4.78,26.37-9.11c2.93-1,6.06-1.89,9-1.18,1.18.69,1.18,2.56.32,3.65a7.23,7.23,0,0,1-3.54,2l-27,9.57c-1.72.6-3.62,1.23-5.37.69s-3.1-2.73-2.07-4.26m5.86,2.13q14.75-5.13,29.47-10.31a1.87,1.87,0,0,0,1-2.41c-11.2,3.41-22.35,7.12-33.35,11.08-.63.49-.2,1.61.55,1.9a3.36,3.36,0,0,0,2.29-.26"/><path d="M157.78,67.22a40.13,40.13,0,0,1,2.41-13.62,260,260,0,0,1,38.12,2.73c-1.12,1.15-.35,3,.49,4.39,3.27,5.52,6.54,11,9.82,16.52,1.69,2.87.95,6.49.11,9.74q-6.12,24.51-12.26,49.09a4.27,4.27,0,0,0-2.87-1.27q-23.06-3.62-46.39-5.05c1.66-12.87,3.93-25.68,6.78-38.35.43-1.92,1.2-4.19,3.13-4.57.54,1.64.11,3.42-.29,5.09a363.43,363.43,0,0,0-6.78,35.88,346.59,346.59,0,0,1,41.16,4.45c1.38.23,3.28.14,3.56-1.24q4.92-23.77,11.64-47.16c.89-3.19-.89-6.44-2.62-9.28q-4.74-7.75-9.5-15.57c-.55-.92-1.81-1.12-2.88-1.21-8.93-.71-17.83-1.46-26.74-2.18-2.5-.2-3.53,3.1-3.62,5.6s-.77,5.83-3.27,6"/><path d="M79,95.08c3.39-1.24,6.8-2.33,10.25-3.3-1.92-.52-2.35-3.31-1.23-5s3.13-2.38,5-3c3.42-1.21,6.87-2.38,10.29-3.59q9.87-3.4,19.76-6.87c2.64-.91,6.06-1.6,7.76.61a6.4,6.4,0,0,1,1,2.64c.89,3.79,1.75,7.58,2.64,11.4q2,9,4.11,17.93a5,5,0,0,1,0,3.24c-.55,1.24-1.9,1.84-3.16,2.3-15.05,5.78-30.39,10.83-45.9,15.17-2.82.8-5.83-.86-7.53-3.22s-2.41-5.26-3-8.1c-1.09-4.77-2.18-9.51-3.25-14.28a5.54,5.54,0,0,1,0-3.64c.61-1.24,2-1.81,3.28-2.3m57.22,12.64c.66-1.38,0-3-.49-4.43a79.75,79.75,0,0,1-5-23l-48.8,16.2c-1.5.49-3.25,1.27-3.56,2.82a4.44,4.44,0,0,0,.14,1.78c1.09,4.91,2.15,9.82,3.22,14.74a15.85,15.85,0,0,0,2.15,5.91c1.21,1.7,3.39,2.93,5.43,2.39,14.73-4,29.3-8.68,43.57-14.05,1.3-.52,2.73-1.12,3.34-2.38M119,77.3c-.72,1.26,1.06,2.81.51,4.16a76.32,76.32,0,0,0,9.77-3.3c.14-1.49-.52-3.33-2-3.59a4,4,0,0,0-1.92.29l-4.86,1.55a2.54,2.54,0,0,0-1.49.89M99.32,88.36a4.84,4.84,0,0,0-.63-3.79c-2.15.54-4.28,1.17-6.38,1.92A2.22,2.22,0,0,0,90.73,90c.23.66.81,1.43,1.44,1.17l2.3-1.06a22.43,22.43,0,0,1,4.85-1.72m16.86-10c-2.44.75-4.82,1.58-7.21,2.44-.66.26-.51,1.27-.17,1.87s.81,1.44.4,2a42.71,42.71,0,0,0,7.76-2.3,8.34,8.34,0,0,0-.78-4M105.9,82a8.26,8.26,0,0,0-4.19,1.23A2.55,2.55,0,0,0,103.8,87a5.18,5.18,0,0,0,1.93-.6,2.13,2.13,0,0,0,1-2.07A6.48,6.48,0,0,0,105.9,82"/><path d="M160.16,46.94c-1.44,0-3,.05-4,1.09A5.56,5.56,0,0,0,154.93,51C154,56.1,153,61.27,152.06,66.41c-.29,1.47-1,3.31-2.47,3.28-.89-.49-.8-1.81-.6-2.82q1.59-7.89,3.19-15.77c.43-2.21,1-4.62,2.9-5.86a8.61,8.61,0,0,1,4.74-1,337,337,0,0,1,37.31,2.1c1.92.2,4.25.78,4.82,2.64a69.89,69.89,0,0,0,13.48,25c1.12,1.29,2.32,2.73,2.44,4.42a9.46,9.46,0,0,1-.29,2.19q-7.41,31.36-17.69,61.93a448.32,448.32,0,0,0-63.43-6.21,1.63,1.63,0,0,1,1.78-1.35q1-6.72,2-13.44a4.18,4.18,0,0,1,.8-2.27,1.41,1.41,0,0,1,2.13,0,2.13,2.13,0,0,1,.11,1.35,109.58,109.58,0,0,1-2.78,13.9,361,361,0,0,1,56.73,5.35c.77.14,1.29-.81,1.52-1.58q9.6-30,16.69-60.7c-1.75-.4-2.87-2-3.85-3.5-4.71-7.21-9.48-14.56-11.81-22.84a3.09,3.09,0,0,0-.94-1.78,3,3,0,0,0-1.47-.37L186,48.29c-8.61-.69-17.2-1.35-25.85-1.35"/><path d="M150.31,73.08a31.71,31.71,0,0,1-1.09,12.81,18,18,0,0,1,27.66,12.29c-4,3.91-1,11.69-5.06,15.48-1.81,1.67-3.59,3.36-5.37,5-1-1.24,0-3,.86-4.37,2-3.21,3.08-6.95,4.11-10.62.72-2.68,1.47-5.49,1.06-8.25-.77-5.17-5.71-9-10.88-9.74S151.17,87,146.86,90c-.8.57-1.72,1.55-1.26,2.44a29.31,29.31,0,0,1,3,15.28,11.15,11.15,0,0,1-1.75,5.86c-1.38,1.92-3.62,3-5.8,4-15.74,6.78-33,9.54-48.6,16.61-2.62,1.14-5.26,2.47-8.1,2.55s-6-1.49-6.64-4.25q-6-25.33-13.9-50.15c-.66-2-1.29-4.34-.32-6.24a7.33,7.33,0,0,1,2-2.18c3.91-3.07,8.65-4.91,13.3-6.72,7.56-2.9,15.11-5.83,22.67-8.73,9.16-3.54,18.44-7.13,28.2-8.42,2.59-.34,6.07.06,6.55,2.64q2,10.05,3.85,20.08a1.76,1.76,0,0,0,.63,1.24,1.81,1.81,0,0,0,1.47-.17c5.08-2.3,10.43-4.34,16-4.6s11.52,1.49,15.14,5.74a4.5,4.5,0,0,0,2,1.73c.9.23,2-.58,1.7-1.41-.66-1.75-1.32-3.65-.86-5.46s2.44-3.33,4.16-2.61c2.42,12.26,2.39,24.87,2.36,37.37a5.26,5.26,0,0,1-2.79,4.31,15.58,15.58,0,0,1-5.08,1.63c-.2-1.37,1.61-2,2.84-2.67,3.07-1.66,3.59-6,2.59-9.33s-3.08-6.35-3.85-9.77c-.52-2.27-.49-4.68-1.5-6.81a11.88,11.88,0,0,0-2.81-3.44,24.8,24.8,0,0,0-21.83-5.37m-11.66,2.81a3.24,3.24,0,0,0-.2-1.15c-1-3.62-2.07-7.21-3.11-10.8Q104.23,73.63,73.67,84.8c-1.49.54-3.22,1.09-4.62.34,2.5-2.1,5.66-3.19,8.76-4.22q27.71-9.36,55.38-18.67a2.83,2.83,0,0,0,1.46-.84,2.89,2.89,0,0,0,.41-1.92,12.3,12.3,0,0,0-.89-5.4c-.84-1.64-2.73-2.9-4.51-2.41A389,389,0,0,0,69.28,74c-1.76.83-3.79,2.29-3.31,4.16Q73,104,80.05,129.92c.46,1.58,1,3.36,2.41,4.2,1.75,1,4,.2,5.83-.58a261.07,261.07,0,0,1,34.41-12c6.67-1.83,13.53-3.44,19.48-7,2-1.24,4-2.88,4.62-5.18a10.82,10.82,0,0,0-.31-4.79c-.86-3.82-1.73-7.61-2.59-11.43a6.25,6.25,0,0,0-3.67,5.11c-1.38.06-2.16-1.81-1.7-3.1s1.67-2.22,2.64-3.19,1.87-2.36,1.5-3.71c-.89-3.21-1.81-6.4-2.7-9.62a7.79,7.79,0,0,0-2.85,6.43A4,4,0,0,1,136,79c.95-1,2.53-1.72,2.62-3.13m5.51,8.56c.32,1.29.6,2.59.89,3.88a2.26,2.26,0,0,0,2.13-1.52,8.1,8.1,0,0,0,.34-2.73,32.48,32.48,0,0,1,1.58-9.77.83.83,0,0,0,0-.6c-.17-.38-.72-.26-1.09-.12a27.23,27.23,0,0,0-6.64,3.91,14.32,14.32,0,0,1,1.87,3.65,21.7,21.7,0,0,1,.89,3.3m36,7.07A40.16,40.16,0,0,0,181,84a20.42,20.42,0,0,0-1.38-6.89c-1.21,0-2.5,1.32-1.81,2.27a6,6,0,0,1,.72,3.7c0,1.81-.06,3.59-.12,5.37a5.28,5.28,0,0,0,.26,2,1.67,1.67,0,0,0,1.55,1.09"/><g class="f223325f-9c3a-4d0c-864d-56e66928fdf2"><path class="805834ec-f3ef-48dd-8e34-9cdc6bfbd456" d="M135,58.19a5.67,5.67,0,0,0-2.15-5.61c-2.59-1.81-6-.22-8.75.51q-15.42,4-30.59,9.07C87.79,64,82.11,66,76.59,68.36c-4.85,2.07-9.51,4.5-12.42,9.08a3.41,3.41,0,0,0,1.5,5,3.47,3.47,0,0,0,4.17,1.87c12-3.6,24.12-7.11,36.06-11q8.88-2.91,17.67-6.13a72.31,72.31,0,0,0,8.59-3.27A5.17,5.17,0,0,0,135,58.19Z"/><path class="805834ec-f3ef-48dd-8e34-9cdc6bfbd456" d="M129,76.4a3.55,3.55,0,0,0-.42-1.21,3.79,3.79,0,0,0-5.07-1.33c-3.17,1.51-7,1.83-10.45,2.49l-11.36,2.2a59.5,59.5,0,0,0-9.53,2.16c-3.17,1.19-7.34,3.67-6.13,7.74a5.29,5.29,0,0,0,3.7,3.47c2.06.51,4.15-.29,6.11-.84q5.18-1.42,10.36-2.75c7.21-1.85,14.44-3.62,21.66-5.41C131.27,82.09,131.14,78.07,129,76.4Z"/><path class="805834ec-f3ef-48dd-8e34-9cdc6bfbd456" d="M128.36,98.68c-.2-.41-.4-.82-.59-1.23.93-3.14-3.3-6.53-6.21-3.68a5.08,5.08,0,0,0-.77,1c-2.45-1.6-6.7.38-5.7,4l1,3.79a14.84,14.84,0,0,0,1.17,3.71c1.64,2.81,4.64,1.92,7.2,1.3s5.11-2,5.14-5A9.38,9.38,0,0,0,128.36,98.68Z"/><path class="805834ec-f3ef-48dd-8e34-9cdc6bfbd456" d="M179.06,103.78a18.26,18.26,0,0,0,.35-2.57,9.28,9.28,0,0,0-1-3.53A17.16,17.16,0,0,0,175.13,93a17.54,17.54,0,0,0-4.26-3.18,9,9,0,0,0-5.08-2.16,20,20,0,0,0-7.59.57l-.27.07-.18,0a17.78,17.78,0,0,0-3.54,1.41c-.51.26-1,.53-1.5.83a3.9,3.9,0,0,0-4.47-.5,3.79,3.79,0,0,0-1.33,5.06,51.82,51.82,0,0,1,3.35,9.19c1.24,4.64,8.09,2.67,7.14-2-.18-.89-.29-2-.47-3l1.64-.18c2.19-.26,4.45-.83,6.65-.9,1.51,0,2.58,1.27,3.56,2.29a18.11,18.11,0,0,1,1.28,1.5q1.06,2,2.06,4c1.66,3.41,6.89,1.62,6.9-1.87,0-.11,0-.22,0-.32S179.05,103.84,179.06,103.78Z"/></g><path class="4875dea3-ff69-4efd-81b6-35065f2dff15" d="M216.75,77.45c-.43-2.45-1.84-4.83-3-7a77.1,77.1,0,0,0-7.87-11.82c-1.26-1.57-2.67-3-3.78-4.72l-.07-.11c-.08-.19-.16-.38-.25-.56q-.3-.66-.66-1.29a13,13,0,0,0-1.91-3.63c-3.12-3.54-9.19-2.51-13.41-2.58l-15.43-.26c-3.08,0-6.18-.18-9.26-.15s-5.23,1.21-5.8,4.31c0,.21-.07.42-.1.63a22.66,22.66,0,0,0-2.29,7.15,33.15,33.15,0,0,0-.41,4.21,8.55,8.55,0,0,1-.24,2.4l-.3.63.24.19a41.24,41.24,0,0,1,7.69.1,37.16,37.16,0,0,0,1.73-5.58,43.16,43.16,0,0,0,.69-4.27l1.2.2a52.77,52.77,0,0,0,7.41.79c5,.19,9.94-.25,14.9-.51,2.31-.12,4.62-.21,6.93-.18a9.08,9.08,0,0,1,1.73,0h0c.18.39.36.77.57,1.14s.42.72.64,1.07c.06.15.12.3.18.43,3.3,7.58,5.9,15.68,12.05,21.54l.11.1c-.16.37-.32.8-.36.88a29,29,0,0,0-1.1,3.13,58.32,58.32,0,0,0-1.35,6.92,59.92,59.92,0,0,1-3.75,13.52,65.78,65.78,0,0,0-4.31,14.93c-.75,4.82-1.45,9.65-2.17,14.47-8.21-1.52-16.44-3-24.74-3.88-4.51-.5-9-.84-13.56-.92-3.3-.06-6.6.07-9.89,0a45.86,45.86,0,0,1,1.3-7.52,21.21,21.21,0,0,1,1.89-4.75c.92-1.62,2.22-3,3.07-4.65,1.78-3.46,1.65-8,1.26-11.81-.22-2.21-1-4.27-1.3-6.45a4.75,4.75,0,0,1,0-1.13,44.23,44.23,0,0,0-5.85,1.76l-1.37.66c.29,1.67.83,3.28,1.1,5a25.68,25.68,0,0,1,.08,7.06c-.26,1.88-1.7,3.23-2.69,4.76l0,.07a10.23,10.23,0,0,1-.49,2.23A153.18,153.18,0,0,0,139.2,131c0,.4-.06.8-.1,1.19-.17,2.15,1.85,3.5,3.71,3.7,4.37.49,8.75.23,13.14.29s9.06.36,13.57.84c9,1,17.82,2.64,26.67,4.28a4.38,4.38,0,0,0,1.84,0c1.61,0,3.43-1,3.68-2.7q.93-6.3,1.88-12.62l.12-.17c5.07-8,6.62-17.6,8.72-26.64L215.94,84C216.43,81.84,217.13,79.65,216.75,77.45Z"/><path class="675db821-5e81-4287-9de3-9d3182edc12d" d="M219.72,183.07c-.21-5.56-4.17-8.47-8.95-10.21A98.05,98.05,0,0,0,199,169.44a109.44,109.44,0,0,0-25.12-2.74c-1.54,0-3.18,0-4.83.07l-.36-1.39a11.43,11.43,0,0,1-.22-2.36c0-1.07-.1-2.13-.23-3.17a7.52,7.52,0,0,0,2.11-.3c0,.12,0,.24,0,.37a6.3,6.3,0,0,0,6.22,6.21c4.51-.07,9.19-1,12.38-4.49a10.86,10.86,0,0,0,1-13.93c-2.52-3.33-6.71-4.84-10.8-4.83a22.91,22.91,0,0,0-4.78.65,26.55,26.55,0,0,0-3.74-7.85c-2.44-3.56-5.63-5.68-10.06-5.75a48.18,48.18,0,0,0-11.39,1.51,5.39,5.39,0,0,0-3,1.8,2.53,2.53,0,0,1-1.47-.57c.24.17-.92-.83-1.17-1.06-.5-.44-1-.88-1.52-1.3a29.8,29.8,0,0,0-4.37-3,31.08,31.08,0,0,0-17.58-3.69,31.5,31.5,0,0,0-17.75,7.21c-5.4,4.56-8.71,14.39-1.17,18.84A12.4,12.4,0,0,0,106,151.1a6.64,6.64,0,0,0,4.85,2.39,61.86,61.86,0,0,0,9.81-.34A14.68,14.68,0,0,0,118.8,160c0,7,6.19,12.06,12.69,13a30,30,0,0,0,13.11-1.3c.67.32,1.34.62,2,.89-5.05,3.92-10,8-13.23,13.69a29.9,29.9,0,0,0-2.48,5.56c-7.61,2.2-13.91,6.86-19.84,12-5.52,4.76-11.43,10.09-10.6,18.11.8,7.68,6.51,13.91,13.65,16.45s15,.79,21.94-1.8c4.2,2.48,9.4,2.41,14.55,1.31,6.23-1.32,13.42-4.32,15.08-11.19a12.15,12.15,0,0,0-2.47-10.59,7.89,7.89,0,0,0,1.2.18,33.13,33.13,0,0,0,13.84-2l2-.25a64.7,64.7,0,0,0,8.06-1.29,12.5,12.5,0,0,0,6.27-3.85l1.2-.55.85-.39a50.78,50.78,0,0,0,11.72-4.71,20.73,20.73,0,0,0,8.12-8.33C218.19,191.46,219.87,187,219.72,183.07ZM154.31,224v-.11l.11-.09C154.94,223.49,154.61,224,154.31,224Zm-1.41-12.34c0-.27.1-.54.14-.81a11.06,11.06,0,0,0,1.79.64l.48.1a1,1,0,0,0,0,.1A11.77,11.77,0,0,0,152.9,211.66Z"/><path class="6935ffdd-ab56-469e-b05b-7b4fc574c0f6" d="M149.11,222.29c-1.15.22-2.28.51-3.43.78a16.32,16.32,0,0,0,2.81-.58l.63-.14,0,0Z"/><path class="6935ffdd-ab56-469e-b05b-7b4fc574c0f6" d="M219.5,177.63c-4.19-10.23-16.05-8.29-25-9.49a2.45,2.45,0,0,1-2.05-1.73c-4-.08-8-.21-11.95,0-9.26.45-16.23,4.91-23.21,10.42a19.1,19.1,0,0,0-12.79-2.62,2.46,2.46,0,0,1-.17.7c-2.38,5.76-9.07,7.85-14,10.84l-.31.35a19.76,19.76,0,0,0-4.88,10.67,21.71,21.71,0,0,0,1.85,16.12,17.33,17.33,0,0,0,1.7,2.57,41.82,41.82,0,0,0,8.79,3.12,15.32,15.32,0,0,0,7.61-.08,24.1,24.1,0,0,1,7.9-1,2.5,2.5,0,0,1,.57.12,6.39,6.39,0,0,0-.36-3.6,6.74,6.74,0,0,0-1.13-1.75,2.28,2.28,0,0,1-.89.2c-4.16.13-8.59-.77-11.43-4a11.61,11.61,0,0,1-2.44-10.68,24.73,24.73,0,0,1,5.16-9.1c2.24-2.36,5.35-2.54,6.71.73a1.76,1.76,0,0,1-.3,2,2.71,2.71,0,0,0,.43,0c.33.07.81.47.73.37h0c-.14.55-.22,1.58-.32,2.22a25.71,25.71,0,0,0-.21,6.32,28.51,28.51,0,0,0,1.8,7.54,2.25,2.25,0,0,1,1.76,3.48c.3.47.61.93.95,1.37,3,3.92,7.11,4.63,11.78,4.74,8.75.19,17.18-.39,25.28-3.94,6.93-3,13-7.74,18.92-12.35,5.55-4.32,10.57-9.69,11.51-16.85A36.85,36.85,0,0,0,219.5,177.63Z"/><path class="68712281-f8b3-4784-b26a-fdcfdfe47aab" d="M150.26,221.2c-1.81-2.8-4.8-5.86-8.26-6.35-3.08-.43-6.42-.81-9.61-1.5q-.18-.6-.39-1.2c-1.3-3.45-3.08-6.34-6.35-8.25A14.11,14.11,0,0,0,115,202.5c-6.59,2.14-12.36,9.75-9.64,17,.74,2,1,4.07,1.68,6,1.74,4.76,4.55,8.94,9.13,11.38,5.52,3,12.38,3.72,18.49,4.58,3.84.54,7.15.65,10.64-1.39a14.06,14.06,0,0,0,6.35-8.26C152.45,228.31,152.28,224.34,150.26,221.2Z"/><path d="M208.31,162.33c-.46-2.63-.88-5.43.09-7.87s4-4.33,6.35-3.18c2.21,1.1,2.72,4,2.63,6.49-.14,2.76-1.75,6.22-4.42,5.66a8.23,8.23,0,0,0-.05-10.13,6.12,6.12,0,0,0-1.38,5.94c1.06,3.09-2.9,5.81-6.12,5.39s-6-2.49-9.07-3.41-7.42.05-8,3.23c4.28.6,8.61,1.24,12.89,1.84,5.25.73,10.82,1.61,15,4.88,7.27,5.75,7.59,17.4,2.85,25.37S205.73,209.47,197.17,213a117.6,117.6,0,0,1-34.67,8.56,14.52,14.52,0,0,1-16.58,21.23A23.2,23.2,0,0,1,146.2,258a26.37,26.37,0,0,1-3-15.65c-1.48-1.94-4.42.23-6.82.59-4.14.56-8-4.88-11.78-3.08a51.82,51.82,0,0,0,.92,13.9c-1.89.74-3.82-1.24-4.19-3.22s.23-4,0-6.08-1.61-4.23-3.63-4.05c-3.92.37-7.74-1.65-10.45-4.51a48.21,48.21,0,0,1-3.6,11c-2.39-1.2-2-4.7-1-7.18s1.8-5.8-.32-7.46a18.72,18.72,0,0,1-6.63-9.81,12.3,12.3,0,0,1,2.62-11.28,75.56,75.56,0,0,1,18.51-14.46c1.66-1,3.59-1.84,5.39-1.24a36.14,36.14,0,0,0-4.47,5.43,2.6,2.6,0,0,1,1.34,3.23c-2.9-1.38-6.4-.74-9.16.83a28.72,28.72,0,0,0-7.09,6.35c-1.57,1.75-3.23,3.77-3,6.12a3.26,3.26,0,0,1,4.38.74,6.81,6.81,0,0,0-4.84.74c1.61,11.23,14,19.7,25,17a15.42,15.42,0,0,1,3.82-.64c3.68.18,6.58,4.09,10.22,3.68a3.52,3.52,0,0,0-3.5-4.28,23.14,23.14,0,0,0,1-7.92c2.76.18,3.36,3.91,4.42,6.49a10.1,10.1,0,0,0,11,5.62,12.12,12.12,0,0,0,9.07-8.7c1.06-3.78.09-8.34-3.13-10.59-4.38-3.09-10.41-.69-15.2,1.79-2.62-2.58-7.09-1.47-10.4-3a10.94,10.94,0,0,1-3.64-3,21.95,21.95,0,0,1,8.2-34.26c2.34-1,5.84-1.06,6.53,1.38-5.48,1.94-10.72,5.25-13.86,10.18s-3.72,11.69-.46,16.57c3.5,5.3,10.46,7.19,16.81,7a3.54,3.54,0,0,0,2.35-.69c.64-.56.64-1.8-.1-2.12a13.87,13.87,0,0,1-11.69-5.57,13.67,13.67,0,0,1-1.75-12.8c2-5.25,6.95-8.75,12-11.28a4.16,4.16,0,0,1,1.43-.51c1.89-.23,3.22,1.84,3.73,3.68,1.47,5.11.87,10.55,1.43,15.84s2.94,11,7.87,12.94c2.48,1,5.25.83,7.87.6A86,86,0,0,0,203.15,205c4.42-2.58,8.7-5.62,11.6-9.85s4.24-9.72,2.49-14.5-6.22-8.06-11-9.63-9.86-1.75-14.92-1.88l-18.23-.42c-3.41-.09-7.51.23-9.12,3.23-3.22,6-11.74,8.6-17.77,5.29-3.87-2.12-8.1-6.35-11.88-4-4.28,2.72-10.36,1.29-13.86-2.39s-4.65-9.12-4.23-14.18a14.78,14.78,0,0,1-18.69-18c2.07-7.6,9.66-12.2,16.85-15.43,6.35-2.85,14.31-5,19.75-.69,1.88,1.48,3.22,3.6,5,5.16s4.51,2.62,6.58,1.43a22.21,22.21,0,0,1,22.14.23c3.92,2.35,7.23,7.41,4.7,11.23-1.66-4.79-6.12-8.33-11.05-9.62a23.84,23.84,0,0,0-14.92,1.52c-1.75.69-3.59,1.61-5.47,1.47s-3.83-2-3.27-3.77c-1,.23-2,.5-3,.78-.55-4.47-5.38-7.41-9.89-7.37s-8.66,2.26-12.53,4.51c-4.65,2.72-9.57,6-11.09,11.24-1.8,6.26,3.22,13.58,9.71,14.13,5.48.51,11.42-3,16.16-.23.23-5.38,4-10.17,8.61-12.93s10.08-3.83,15.42-4.56a26.29,26.29,0,0,1,8.29-.28c4.61.78,8.56,3.64,12.29,6.4a11.19,11.19,0,0,1,3.78,3.87c1.38,2.9,0,6.31-1.34,9.25-1.61,3.5-3.22,6.95-4.83,10.41l8.52-.69a19.59,19.59,0,0,0,6.95-1.52,9.44,9.44,0,0,0-1.61-17.5c-2.17-.6-5-.87-5.57-3a11.91,11.91,0,0,1,12.2,2.63,11.78,11.78,0,0,1,2.85,12.15,73.4,73.4,0,0,0,15.52,4.93m-70.44,2.58a27.58,27.58,0,0,0,11.87,9.21,7.66,7.66,0,0,0,4.79.69,8.82,8.82,0,0,0,2.49-1.34,39.21,39.21,0,0,0,14.64-20.21c.74-2.49,1.15-5.43-.64-7.32a22.3,22.3,0,0,0-13.72-6.45A38.64,38.64,0,0,0,142,141.24c-2,.6-4.05,1.34-5.43,2.95-2,2.25-2,5.62-2,8.61a25.54,25.54,0,0,0,1.2,8.38,16.78,16.78,0,0,0,2.12,3.73m7,44.38c1.62-1.52,4.06,2.21,6.08,1.33a79.13,79.13,0,0,1-2.44-19.42c0-1.8-.37-4.1-2.12-4.38a36.52,36.52,0,0,1-7,5.67,3.46,3.46,0,0,0-1.34,1.7,12.78,12.78,0,0,0,3.22,14.46c1,.87,2.58,1.51,3.59.64m-9.16-41.67c-3-.23-3.45-5.57-6.49-5.89a7.57,7.57,0,0,1-2.35-4.56c-1.1-1.7-4-1.56-5.38-.09a6.75,6.75,0,0,0-1.29,5.85c.64,3.54,3.54,7,7.13,6.81.79,0,1.94.14,1.75.88a11,11,0,0,0,.92-.79,6.13,6.13,0,0,0,4.06,1c1.38-.32,2.48-2,1.65-3.18m-6.26-11.37c.46,1.52,1,3.09,1.43,4.65a14.36,14.36,0,0,0-.55-11.19c-2,1.25-1.57,4.29-.88,6.54"/><path d="M141.55,195.8a4.29,4.29,0,0,0,2.35-1.2c.14.33.27.69.41,1a5.54,5.54,0,0,1-4.28,2.85A3.77,3.77,0,0,1,141.6,196"/><path d="M178.34,161h-3.23a5,5,0,0,1,1.15-3.73,5.7,5.7,0,0,1,3.69,2.11,4.74,4.74,0,0,1-1.52,1.66"/><path d="M147,200.36a2.77,2.77,0,0,1,0,2.81c-2,1.52-4.42,3.13-6.77,2.39a.92.92,0,0,1,.19-1.52,24.35,24.35,0,0,1,6.58-3.68"/><path d="M153.61,159a3.62,3.62,0,0,0,4.88-3,1.93,1.93,0,0,1,1.15,1.24,5,5,0,1,1-9.53,1c.23-1.33,1.57-2.76,2.86-2.21a2.07,2.07,0,0,0,.64,2.95"/><path d="M113.88,194.93c-.41,0-.83,0-1.24,0-1.61-.92.5-3.45-.28-5.11s-3.31-.69-3.91.92-.1,3.36-.1,5.07-1.1,3.73-2.8,3.59a21.57,21.57,0,0,1-1.11-6.36,7.59,7.59,0,0,1,2.58-5.71c1.75-1.28,4.42-1.42,5.94.1a2.71,2.71,0,0,0,1.75,1.93c-.83.6-.51,1.89-.19,2.85s.37,2.4-.64,2.68"/><path d="M92,165.78a7.69,7.69,0,0,1,2.12,2.58l8-1a11.84,11.84,0,0,0,4.38-1.06c3.27-1.65,5.11-6.12,8.79-6.17A15.16,15.16,0,0,1,103,171.35a31.21,31.21,0,0,0-5.15.79,6.24,6.24,0,0,1-5.76-10.92c1.75-1.29,4.7-1.33,5.8.56A7.8,7.8,0,0,1,98,166a4.08,4.08,0,0,0-6-.23"/></g></g></svg>