<svg xmlns="http://www.w3.org/2000/svg" viewBox="0 0 104.189 123.138"><g transform="translate(-433.293 -2663.164)"><path d="M102.688,44.408l-4.128-8a8.374,8.374,0,0,1-.9-2.709l-1.29-8.9a12.55,12.55,0,0,0-6.707-9.287l-8-4A9.657,9.657,0,0,1,79.341,9.84l-6.32-6.32A12.57,12.57,0,0,0,62.186.037L53.415,1.455a10.441,10.441,0,0,1-2.838,0L41.806.037A12.45,12.45,0,0,0,30.971,3.519l-6.32,6.32a10.731,10.731,0,0,1-2.322,1.677l-8,4A12.55,12.55,0,0,0,7.625,24.8l-1.29,8.9a7.464,7.464,0,0,1-.9,2.709l-4.128,8a12.84,12.84,0,0,0,0,11.48l4.128,8a8.374,8.374,0,0,1,.9,2.709l1.29,8.9a12.55,12.55,0,0,0,6.707,9.287l8,4a9.657,9.657,0,0,1,2.322,1.677l5.8,5.933v24.636a2.2,2.2,0,0,0,.9,1.677,1.818,1.818,0,0,0,1.806.129L52,114.189l18.832,8.384a1.636,1.636,0,0,0,.774.129,2.43,2.43,0,0,0,1.032-.258,2.2,2.2,0,0,0,.9-1.677V96.131l5.8-5.933a10.731,10.731,0,0,1,2.322-1.677l8-4a12.55,12.55,0,0,0,6.707-9.287l1.29-8.9a7.464,7.464,0,0,1,.9-2.709l4.128-8A11.57,11.57,0,0,0,102.688,44.408ZM69.8,117.8l-16.9-7.739a1.913,1.913,0,0,0-1.677,0l-16.9,7.739V98.969a12.47,12.47,0,0,0,7.481,1.161l8.771-1.419a10.442,10.442,0,0,1,2.838,0l8.771,1.419a10.426,10.426,0,0,0,2.064.129,11.2,11.2,0,0,0,5.417-1.29V117.8ZM99.334,54.082l-4.128,8a12.438,12.438,0,0,0-1.29,3.87l-1.29,8.9a8.432,8.432,0,0,1-4.644,6.32l-8,4a14.681,14.681,0,0,0-3.225,2.322l-6.32,6.32A8.9,8.9,0,0,1,62.96,96.26l-8.771-1.419a10.426,10.426,0,0,0-2.064-.129,10.426,10.426,0,0,0-2.064.129L41.29,96.26a8.52,8.52,0,0,1-7.481-2.451l-6.32-6.32a9.346,9.346,0,0,0-3.225-2.322l-8-4a8.66,8.66,0,0,1-4.644-6.32l-1.29-8.9a13.673,13.673,0,0,0-1.29-3.87l-4.128-8a8.483,8.483,0,0,1,0-7.868l4.128-8a12.438,12.438,0,0,0,1.29-3.87l1.29-8.9a8.432,8.432,0,0,1,4.644-6.32l8-4a14.682,14.682,0,0,0,3.225-2.322l6.191-6.32a8.9,8.9,0,0,1,7.481-2.451l8.771,1.419a10.426,10.426,0,0,0,4,0L62.7,4.035a8.52,8.52,0,0,1,7.481,2.451l6.32,6.32a9.346,9.346,0,0,0,3.225,2.322l8,4a8.66,8.66,0,0,1,4.644,6.32l1.29,8.9a15.168,15.168,0,0,0,1.29,3.87l4.128,8A7.815,7.815,0,0,1,99.334,54.082Z" transform="translate(433.343 2663.291)"/><path d="M54.216,29.752a1.92,1.92,0,0,0-2.58.774L41.446,48.584l-6.32-6.062a1.918,1.918,0,1,0-2.58,2.838L40.672,53.1a1.848,1.848,0,0,0,1.29.516h.258a1.861,1.861,0,0,0,1.419-.9L54.989,32.461A2.171,2.171,0,0,0,54.216,29.752Z" transform="translate(442.603 2671.884)"/></g></svg>