<svg xmlns="http://www.w3.org/2000/svg" width="75" height="46" viewBox="0 0 75 46">
    <g fill="none" fillRule="evenodd" stroke="#666" transform="translate(-3 1)">
        <g transform="translate(24)">
            <circle cx="15.5" cy="15.5" r="15.5"/>
            <g transform="translate(6.5 10)">
                <ellipse cx="3.02" cy="3" rx="3.02" ry="3"/>
                <ellipse cx="15.48" cy="3" rx="3.02" ry="3"/>
            </g>
            <path d="M13.12.181A15.62 15.62 0 0 1 15.5 0c2.512 0 4.884.598 6.983 1.658A4.75 4.75 0 1 1 13.12.181zM5.412 27A15.262 15.262 0 0 1 1.5 21.207a3.364 3.364 0 0 1 2.064-.707C5.462 20.5 7 22.079 7 24.027c0 1.249-.633 2.347-1.588 2.973z"/>
            <path strokeLinecap="round" d="M10.5 21.5c1.31 1.667 2.982 2.5 5.017 2.5 2.034 0 3.695-.833 4.983-2.5"/>
            <path d="M30 20.991A15.142 15.142 0 0 1 26.952 26a2.954 2.954 0 0 1-1.452-2.554c0-1.627 1.297-2.946 2.897-2.946.593 0 1.144.18 1.603.491z"/>
        </g>
        <g transform="rotate(68 28.148 57.634)">
            <path strokeLinecap="round" d="M12.559 25.5c6.936 0 12.559-5.708 12.559-12.75S19.495 0 12.558 0C5.624 0 0 5.708 0 12.75"/>
            <ellipse cx="8.038" cy="10.5" rx="2.512" ry="2.5"/>
            <ellipse cx="19.089" cy="11" rx="3.014" ry="3"/>
            <ellipse cx="12.49" cy="19.068" rx="2.512" ry="2.5"/>
            <path d="M10.635.149A12.47 12.47 0 0 1 12.559 0c1.979 0 3.85.465 5.516 1.292C17.934 3.365 16.305 5 14.317 5c-2.08 0-3.768-1.79-3.768-4 0-.292.03-.577.086-.851zM23.789 18.064a12.757 12.757 0 0 1-3.822 4.454 2.872 2.872 0 0 1-1.024-1.535c-.415-1.553.523-3.153 2.096-3.575 1.01-.27 2.035.01 2.75.656z"/>
        </g>
        <g transform="rotate(-165 15.639 20.636)">
            <path strokeLinecap="round" d="M12.559 25.5c6.936 0 12.559-5.708 12.559-12.75S19.495 0 12.558 0C5.624 0 0 5.708 0 12.75"/>
            <ellipse cx="15.67" cy="12.729" rx="2.512" ry="2.5"/>
            <ellipse cx="7.199" cy="11.03" rx="2.512" ry="2.5"/>
            <path d="M10.635.149A12.47 12.47 0 0 1 12.559 0c1.979 0 3.85.465 5.516 1.292C17.934 3.365 16.305 5 14.317 5c-2.08 0-3.768-1.79-3.768-4 0-.292.03-.577.086-.851zM23.74 18.175a12.777 12.777 0 0 1-4.38 4.745c-.468-.4-.823-.939-.994-1.575-.457-1.701.578-3.456 2.31-3.92a3.263 3.263 0 0 1 3.065.75z"/>
        </g>
        <path d="M32 41.23c0-1.353 3.752-1.447 4.784-.965 1.032.483 1.664 1.29.832 2.317-.832 1.027-5.616 0-5.616-1.352zM50 41.05c0-2.255 1.876-2.411 2.392-1.608.516.804.832 2.15.416 3.862-.416 1.712-2.808 0-2.808-2.255z"/>
        <ellipse cx="42" cy="38.5" rx="3" ry="2.5"/>
    </g>
</svg>
