<svg xmlns="http://www.w3.org/2000/svg" viewBox="0 0 141.024 91.263"><g transform="translate(-419.818 -2256.333)"><path d="M34.53,44.652l-8.11,2.266-1.312-4.293,8.706-2.5L32.741,36.9,20.1,40.6l5.605,18.724,4.055-1.193-2.385-7.871,8.11-2.385Z" transform="translate(423.631 2263.47)"/><path d="M51.611,42.751a5.552,5.552,0,0,0,2.266-2.743,5.7,5.7,0,0,0,0-3.458,4.963,4.963,0,0,0-2.862-3.578,8.2,8.2,0,0,0-5.367,0l-8.348,2.5,5.605,18.6,4.055-1.193-2.266-7.513,2.624-.835a3.552,3.552,0,0,1,1.55-.119,2.475,2.475,0,0,1,1.193.716l4.293,5.486,4.293-1.312-3.936-5.128A3.381,3.381,0,0,0,51.611,42.751ZM49.822,39.77a4.479,4.479,0,0,1-2.385,1.312l-3.7,1.073-1.431-4.89,3.7-1.073a4.4,4.4,0,0,1,2.743-.119c.716.239,1.073.716,1.312,1.67A1.747,1.747,0,0,1,49.822,39.77Z" transform="translate(426.943 2262.627)"/><path d="M65.987,44.046l-1.431-4.77,8.467-2.5-.954-3.22-8.467,2.5L62.29,31.644l8.944-2.624L70.4,25.8l-13,3.816L62.886,48.34l13-3.816-.954-3.1Z" transform="translate(430.814 2261.332)"/><path d="M83.687,38.846l-1.431-4.77,8.348-2.5-.954-3.22-8.348,2.5L79.99,26.444l8.944-2.624L87.98,20.6,75.1,24.416,80.586,43.14l13-3.816-.954-3.22Z" transform="translate(434.222 2260.331)"/><path d="M140.6,23.5,120.68.6a2.2,2.2,0,0,0-1.908-.6L1.3,34.709A1.834,1.834,0,0,0,.11,36.975L15.733,89.925A1.9,1.9,0,0,0,16.567,91a2.211,2.211,0,0,0,.835.239.717.717,0,0,0,.477-.119l117.588-34.7a1.791,1.791,0,0,0,1.312-1.431l4.293-30.053A2.292,2.292,0,0,0,140.6,23.5Zm-7.275,29.934L18.595,87.182,4.045,37.69,118.771,3.821l18.6,21.466Z" transform="translate(419.769 2256.359)"/><path d="M97.631,22.858a6.146,6.146,0,0,0-.477,5.009,6.6,6.6,0,0,0,3.22,3.936,7.083,7.083,0,0,0,3.1.835,10.438,10.438,0,0,0,1.908-.239,6.805,6.805,0,0,0,4.532-8.229h0a6.805,6.805,0,0,0-8.229-4.532A6.915,6.915,0,0,0,97.631,22.858Zm3.1,1.789a3.047,3.047,0,0,1,1.789-1.431,2.029,2.029,0,0,1,.835-.119,2.935,2.935,0,0,1,2.862,2.147,3.144,3.144,0,0,1-2.027,3.816,2.97,2.97,0,0,1-2.266-.239,3.047,3.047,0,0,1-1.431-1.789A3.211,3.211,0,0,1,100.731,24.647Z" transform="translate(438.406 2260.1)"/></g></svg>