<?xml version="1.0" encoding="iso-8859-1"?>
<!-- Generator: Adobe Illustrator 19.0.0, SVG Export Plug-In . SVG Version: 6.00 Build 0)  -->

<svg version="1.1" id="Layer_1" xmlns="http://www.w3.org/2000/svg" xmlns:xlink="http://www.w3.org/1999/xlink" x="0px" y="0px"
	 viewBox="0 0 491.52 491.52" style="enable-background:new 0 0 491.52 491.52;" xml:space="preserve"><style type="text/css">
	.st0{fill:#fff;}
</style>
<g>
	<g>
		<path className="st0" d="M399.36,430.08v20.48h-74.407c47.872-26.595,80.606-76.409,84.171-133.12h20.956V256h-61.44v61.44h20.004
			c-4.537,63.167-50.507,116.286-112.164,129.764V430.08h-61.44v17.124c-61.657-13.478-107.627-66.596-112.164-129.764h20.004V256
			H61.44v61.44h20.956c3.565,56.711,36.299,106.525,84.171,133.12H92.16v-20.48H30.72v61.44h61.44v-20.48h122.88v20.48h61.44v-20.48
			h122.88v20.48h61.44v-61.44H399.36z M389.12,276.48h20.48v20.48h-20.48V276.48z M102.4,296.96H81.92v-20.48h20.48V296.96z
			 M71.68,471.04H51.2v-20.48h20.48V471.04z M256,471.04h-20.48v-20.48H256V471.04z M440.32,471.04h-20.48v-20.48h20.48V471.04z"/>
	</g>
</g>
<g>
	<g>
		<path className="st0" d="M112.64,0v199.06l133.12,122.03l133.12-122.03V0H112.64z M245.76,293.31L205.057,256h81.406L245.76,293.31z M358.4,190.06
			l-49.594,45.46H182.714l-49.594-45.46v-15.98c0-16.94,13.78-30.72,30.72-30.72s30.72,13.78,30.72,30.72h20.48
			c0-16.94,13.78-30.72,30.72-30.72s30.72,13.78,30.72,30.72h20.48c0-16.94,13.78-30.72,30.72-30.72s30.72,13.78,30.72,30.72V190.06
			z M358.4,133.382c-8.584-6.498-19.149-10.502-30.72-10.502c-16.807,0-31.619,8.251-40.96,20.797
			c-9.341-12.546-24.153-20.797-40.96-20.797s-31.619,8.251-40.96,20.797c-9.341-12.546-24.153-20.797-40.96-20.797
			c-11.571,0-22.136,4.004-30.72,10.502V20.48H358.4V133.382z"/>
	</g>
</g>
</svg>
