<svg xmlns="http://www.w3.org/2000/svg" viewBox="0 0 139.969 131.1"><g transform="translate(-448 -538)"><path d="M138.99,16.786l-4.532-3.357a2.394,2.394,0,0,0-3.357.336L115.825,30.719V28.536a2.155,2.155,0,0,0-.671-1.679L92.828.839A2.7,2.7,0,0,0,90.981,0H2.518A2.582,2.582,0,0,0,0,2.518V128.582A2.582,2.582,0,0,0,2.518,131.1H113.307a2.582,2.582,0,0,0,2.518-2.518V55.059l23.668-34.747A2.6,2.6,0,0,0,138.99,16.786ZM92.828,8.729l15.611,18.129H92.828Zm17.961,117.335H5.036V5.036H87.792V29.208a3.52,3.52,0,0,0,.671,1.846,2.524,2.524,0,0,0,1.846.671h20.479v4.532L92.324,56.737C88.3,61.1,86.281,66.809,84.434,72.348c-.336,1.007-.671,2.014-1.007,2.854a16.758,16.758,0,0,0-10.575,8.729,23.959,23.959,0,0,0-1.343,3.693l-1.175,5.2a2.1,2.1,0,0,0,.671,2.182,2.7,2.7,0,0,0,1.846.839h.336l3.861-.5c7.889-1.007,11.75-8.057,14.1-14.1.5-.336.839-.5,1.343-.839,5.372-3.525,11.079-7.218,14.772-12.59l3.693-5.372v63.62ZM84.938,80.07l1.007.671c-2.686,6.211-5.707,9.232-9.568,9.736h-.336l.336-1.679a7.416,7.416,0,0,1,1.007-2.686A11.083,11.083,0,0,1,84.938,80.07ZM102.9,64.962c-3.189,4.532-8.393,8.057-13.261,11.247-.168.168-.5.336-.671.5l-.671-.5c.336-.671.5-1.511.839-2.182,1.679-5.036,3.525-10.24,6.882-13.933L133.45,18.8l.671.5Z" transform="translate(448 538)"/></g></svg>